G04 #@! TF.GenerationSoftware,KiCad,Pcbnew,7.0.0-rc2-unknown-90e759e738~164~ubuntu22.04.1*
G04 #@! TF.CreationDate,2023-02-04T08:16:57-05:00*
G04 #@! TF.ProjectId,dualvca_b1,6475616c-7663-4615-9f62-312e6b696361,rev?*
G04 #@! TF.SameCoordinates,Original*
G04 #@! TF.FileFunction,Soldermask,Bot*
G04 #@! TF.FilePolarity,Negative*
%FSLAX46Y46*%
G04 Gerber Fmt 4.6, Leading zero omitted, Abs format (unit mm)*
G04 Created by KiCad (PCBNEW 7.0.0-rc2-unknown-90e759e738~164~ubuntu22.04.1) date 2023-02-04 08:16:57*
%MOMM*%
%LPD*%
G01*
G04 APERTURE LIST*
G04 Aperture macros list*
%AMRotRect*
0 Rectangle, with rotation*
0 The origin of the aperture is its center*
0 $1 length*
0 $2 width*
0 $3 Rotation angle, in degrees counterclockwise*
0 Add horizontal line*
21,1,$1,$2,0,0,$3*%
G04 Aperture macros list end*
%ADD10O,2.500000X4.500001*%
%ADD11O,4.500001X2.500001*%
%ADD12RotRect,4.500001X2.500001X315.000000*%
%ADD13O,4.500000X2.500000*%
%ADD14O,2.500000X4.500000*%
%ADD15C,1.500000*%
%ADD16R,1.700000X1.700000*%
%ADD17O,1.700000X1.700000*%
%ADD18C,1.600000*%
%ADD19O,1.600000X1.600000*%
%ADD20R,1.500000X1.500000*%
%ADD21R,2.200000X2.200000*%
%ADD22O,2.200000X2.200000*%
%ADD23C,1.440000*%
%ADD24R,2.400000X1.600000*%
%ADD25O,2.400000X1.600000*%
%ADD26R,1.600000X1.600000*%
%ADD27R,1.727200X1.727200*%
%ADD28O,1.727200X1.727200*%
G04 APERTURE END LIST*
D10*
G04 #@! TO.C,J8*
X168899999Y-167999999D03*
D11*
X164999999Y-173899999D03*
D12*
X157759999Y-172239999D03*
D13*
X161999999Y-161099999D03*
D14*
X156099999Y-164999999D03*
G04 #@! TD*
D10*
G04 #@! TO.C,J3*
X143899999Y-167999999D03*
D11*
X139999999Y-173899999D03*
D12*
X132759999Y-172239999D03*
D13*
X136999999Y-161099999D03*
D14*
X131099999Y-164999999D03*
G04 #@! TD*
D15*
G04 #@! TO.C,TP102*
X105550000Y-36620000D03*
G04 #@! TD*
D16*
G04 #@! TO.C,J101*
X132224999Y-53129999D03*
D17*
X134764999Y-53129999D03*
X137304999Y-53129999D03*
X139844999Y-53129999D03*
X142384999Y-53129999D03*
X144924999Y-53129999D03*
X147464999Y-53129999D03*
X150004999Y-53129999D03*
X152544999Y-53129999D03*
X155084999Y-53129999D03*
X157624999Y-53129999D03*
X160164999Y-53129999D03*
X162704999Y-53129999D03*
X165244999Y-53129999D03*
X167784999Y-53129999D03*
G04 #@! TD*
D10*
G04 #@! TO.C,J1*
X118899999Y-142999999D03*
D11*
X114999999Y-148899999D03*
D12*
X107759999Y-147239999D03*
D13*
X111999999Y-136099999D03*
D14*
X106099999Y-139999999D03*
G04 #@! TD*
D10*
G04 #@! TO.C,J7*
X193899999Y-167999999D03*
D11*
X189999999Y-173899999D03*
D12*
X182759999Y-172239999D03*
D13*
X186999999Y-161099999D03*
D14*
X181099999Y-164999999D03*
G04 #@! TD*
D10*
G04 #@! TO.C,J5*
X168899999Y-142999999D03*
D11*
X164999999Y-148899999D03*
D12*
X157759999Y-147239999D03*
D13*
X161999999Y-136099999D03*
D14*
X156099999Y-139999999D03*
G04 #@! TD*
D10*
G04 #@! TO.C,J6*
X193899999Y-142999999D03*
D11*
X189999999Y-148899999D03*
D12*
X182759999Y-147239999D03*
D13*
X186999999Y-136099999D03*
D14*
X181099999Y-139999999D03*
G04 #@! TD*
D10*
G04 #@! TO.C,J4*
X118899999Y-167999999D03*
D11*
X114999999Y-173899999D03*
D12*
X107759999Y-172239999D03*
D13*
X111999999Y-161099999D03*
D14*
X106099999Y-164999999D03*
G04 #@! TD*
D15*
G04 #@! TO.C,TP101*
X105550000Y-27730000D03*
G04 #@! TD*
G04 #@! TO.C,TP103*
X105550000Y-45510000D03*
G04 #@! TD*
D10*
G04 #@! TO.C,J2*
X143899999Y-142999999D03*
D11*
X139999999Y-148899999D03*
D12*
X132759999Y-147239999D03*
D13*
X136999999Y-136099999D03*
D14*
X131099999Y-139999999D03*
G04 #@! TD*
D18*
G04 #@! TO.C,R9*
X142245000Y-65830000D03*
D19*
X132084999Y-65829999D03*
G04 #@! TD*
D20*
G04 #@! TO.C,Q2*
X123329999Y-59479999D03*
D15*
X125870000Y-59480000D03*
X128410000Y-59480000D03*
G04 #@! TD*
D18*
G04 #@! TO.C,R13*
X128275000Y-75990000D03*
D19*
X118114999Y-75989999D03*
G04 #@! TD*
D18*
G04 #@! TO.C,R17*
X142245000Y-101390000D03*
D19*
X132084999Y-101389999D03*
G04 #@! TD*
D18*
G04 #@! TO.C,R23*
X171590000Y-86150000D03*
D19*
X181749999Y-86149999D03*
G04 #@! TD*
D18*
G04 #@! TO.C,R11*
X128275000Y-81070000D03*
D19*
X118114999Y-81069999D03*
G04 #@! TD*
D20*
G04 #@! TO.C,Q1*
X123329999Y-65829999D03*
D15*
X125870000Y-65830000D03*
X128410000Y-65830000D03*
G04 #@! TD*
D21*
G04 #@! TO.C,D102*
X155079999Y-41699999D03*
D22*
X144919999Y-41699999D03*
G04 #@! TD*
D18*
G04 #@! TO.C,R28*
X157485000Y-81070000D03*
D19*
X167644999Y-81069999D03*
G04 #@! TD*
D18*
G04 #@! TO.C,R4*
X128275000Y-91230000D03*
D19*
X118114999Y-91229999D03*
G04 #@! TD*
D18*
G04 #@! TO.C,R29*
X167645000Y-96310000D03*
D19*
X157484999Y-96309999D03*
G04 #@! TD*
D18*
G04 #@! TO.C,R33*
X171590000Y-81070000D03*
D19*
X181749999Y-81069999D03*
G04 #@! TD*
D18*
G04 #@! TO.C,R21*
X132085000Y-121710000D03*
D19*
X142244999Y-121709999D03*
G04 #@! TD*
D18*
G04 #@! TO.C,R16*
X132085000Y-106470000D03*
D19*
X142244999Y-106469999D03*
G04 #@! TD*
D23*
G04 #@! TO.C,RV18*
X120510000Y-126790000D03*
X123050000Y-126790000D03*
X125590000Y-126790000D03*
G04 #@! TD*
D18*
G04 #@! TO.C,R27*
X167645000Y-91230000D03*
D19*
X157484999Y-91229999D03*
G04 #@! TD*
D18*
G04 #@! TO.C,R34*
X181615000Y-53130000D03*
D19*
X171454999Y-53129999D03*
G04 #@! TD*
D24*
G04 #@! TO.C,U2*
X146189999Y-124249999D03*
D25*
X146189999Y-121709999D03*
X146189999Y-119169999D03*
X146189999Y-116629999D03*
X146189999Y-114089999D03*
X146189999Y-111549999D03*
X146189999Y-109009999D03*
X146189999Y-106469999D03*
X153809999Y-106469999D03*
X153809999Y-109009999D03*
X153809999Y-111549999D03*
X153809999Y-114089999D03*
X153809999Y-116629999D03*
X153809999Y-119169999D03*
X153809999Y-121709999D03*
X153809999Y-124249999D03*
G04 #@! TD*
D18*
G04 #@! TO.C,R101*
X118115000Y-70910000D03*
D19*
X128274999Y-70909999D03*
G04 #@! TD*
D23*
G04 #@! TO.C,RV45*
X120780000Y-111550000D03*
X123320000Y-111550000D03*
X125860000Y-111550000D03*
G04 #@! TD*
D18*
G04 #@! TO.C,R8*
X132085000Y-60750000D03*
D19*
X142244999Y-60749999D03*
G04 #@! TD*
D18*
G04 #@! TO.C,R42*
X171455000Y-121710000D03*
D19*
X181614999Y-121709999D03*
G04 #@! TD*
D18*
G04 #@! TO.C,C3*
X157485000Y-111550000D03*
X159985000Y-111550000D03*
G04 #@! TD*
D23*
G04 #@! TO.C,RV41*
X179210000Y-126790000D03*
X176670000Y-126790000D03*
X174130000Y-126790000D03*
G04 #@! TD*
D18*
G04 #@! TO.C,R31*
X157485000Y-65830000D03*
D19*
X167644999Y-65829999D03*
G04 #@! TD*
D20*
G04 #@! TO.C,Q3*
X176669999Y-65829999D03*
D15*
X174130000Y-65830000D03*
X171590000Y-65830000D03*
G04 #@! TD*
D18*
G04 #@! TO.C,R14*
X118115000Y-53130000D03*
D19*
X128274999Y-53129999D03*
G04 #@! TD*
D18*
G04 #@! TO.C,R48*
X181750000Y-116630000D03*
D19*
X171589999Y-116629999D03*
G04 #@! TD*
D18*
G04 #@! TO.C,C6*
X139705000Y-111550000D03*
X142205000Y-111550000D03*
G04 #@! TD*
G04 #@! TO.C,C2*
X157485000Y-86150000D03*
X159985000Y-86150000D03*
G04 #@! TD*
G04 #@! TO.C,R37*
X181615000Y-70910000D03*
D19*
X171454999Y-70909999D03*
G04 #@! TD*
D18*
G04 #@! TO.C,R40*
X167645000Y-126790000D03*
D19*
X157484999Y-126789999D03*
G04 #@! TD*
D18*
G04 #@! TO.C,R7*
X132220000Y-96310000D03*
D19*
X142379999Y-96309999D03*
G04 #@! TD*
D18*
G04 #@! TO.C,R22*
X142245000Y-116630000D03*
D19*
X132084999Y-116629999D03*
G04 #@! TD*
D18*
G04 #@! TO.C,R24*
X167645000Y-70910000D03*
D19*
X157484999Y-70909999D03*
G04 #@! TD*
D18*
G04 #@! TO.C,R39*
X157485000Y-101390000D03*
D19*
X167644999Y-101389999D03*
G04 #@! TD*
D18*
G04 #@! TO.C,R43*
X167645000Y-121710000D03*
D19*
X157484999Y-121709999D03*
G04 #@! TD*
D20*
G04 #@! TO.C,Q4*
X176669999Y-59479999D03*
D15*
X174130000Y-59480000D03*
X171590000Y-59480000D03*
G04 #@! TD*
D18*
G04 #@! TO.C,R30*
X167645000Y-60750000D03*
D19*
X157484999Y-60749999D03*
G04 #@! TD*
D18*
G04 #@! TO.C,R35*
X181615000Y-48050000D03*
D19*
X171454999Y-48049999D03*
G04 #@! TD*
D18*
G04 #@! TO.C,R44*
X157485000Y-116630000D03*
D19*
X167644999Y-116629999D03*
G04 #@! TD*
D18*
G04 #@! TO.C,R6*
X142245000Y-81070000D03*
D19*
X132084999Y-81069999D03*
G04 #@! TD*
D18*
G04 #@! TO.C,R2*
X132085000Y-70910000D03*
D19*
X142244999Y-70909999D03*
G04 #@! TD*
D18*
G04 #@! TO.C,R3*
X132085000Y-75990000D03*
D19*
X142244999Y-75989999D03*
G04 #@! TD*
D18*
G04 #@! TO.C,C5*
X139705000Y-86150000D03*
X142205000Y-86150000D03*
G04 #@! TD*
G04 #@! TO.C,R19*
X132085000Y-126790000D03*
D19*
X142244999Y-126789999D03*
G04 #@! TD*
D18*
G04 #@! TO.C,R38*
X167645000Y-106470000D03*
D19*
X157484999Y-106469999D03*
G04 #@! TD*
D26*
G04 #@! TO.C,C1*
X137259999Y-31539999D03*
D18*
X134760000Y-31540000D03*
G04 #@! TD*
D24*
G04 #@! TO.C,U1*
X153674999Y-78529999D03*
D25*
X153674999Y-81069999D03*
X153674999Y-83609999D03*
X153674999Y-86149999D03*
X153674999Y-88689999D03*
X153674999Y-91229999D03*
X153674999Y-93769999D03*
X146054999Y-93769999D03*
X146054999Y-91229999D03*
X146054999Y-88689999D03*
X146054999Y-86149999D03*
X146054999Y-83609999D03*
X146054999Y-81069999D03*
X146054999Y-78529999D03*
G04 #@! TD*
D23*
G04 #@! TO.C,RV47*
X179210000Y-111550000D03*
X176670000Y-111550000D03*
X174130000Y-111550000D03*
G04 #@! TD*
D26*
G04 #@! TO.C,C4*
X134759999Y-41699999D03*
D18*
X137260000Y-41700000D03*
G04 #@! TD*
G04 #@! TO.C,R46*
X118250000Y-116630000D03*
D19*
X128409999Y-116629999D03*
G04 #@! TD*
D21*
G04 #@! TO.C,D101*
X144919999Y-31539999D03*
D22*
X155079999Y-31539999D03*
G04 #@! TD*
D18*
G04 #@! TO.C,R26*
X171590000Y-91230000D03*
D19*
X181749999Y-91229999D03*
G04 #@! TD*
D27*
G04 #@! TO.C,J103*
X161429999Y-41699999D03*
D28*
X163969999Y-41699999D03*
X161429999Y-39159999D03*
X163969999Y-39159999D03*
X161429999Y-36619999D03*
X163969999Y-36619999D03*
X161429999Y-34079999D03*
X163969999Y-34079999D03*
X161429999Y-31539999D03*
X163969999Y-31539999D03*
G04 #@! TD*
D18*
G04 #@! TO.C,R15*
X118115000Y-48050000D03*
D19*
X128274999Y-48049999D03*
G04 #@! TD*
D18*
G04 #@! TO.C,R1*
X128275000Y-86150000D03*
D19*
X118114999Y-86149999D03*
G04 #@! TD*
D18*
G04 #@! TO.C,R36*
X171455000Y-75990000D03*
D19*
X181614999Y-75989999D03*
G04 #@! TD*
D18*
G04 #@! TO.C,R5*
X132085000Y-91230000D03*
D19*
X142244999Y-91229999D03*
G04 #@! TD*
D18*
G04 #@! TO.C,R20*
X128275000Y-121710000D03*
D19*
X118114999Y-121709999D03*
G04 #@! TD*
D18*
G04 #@! TO.C,R25*
X167645000Y-75990000D03*
D19*
X157484999Y-75989999D03*
G04 #@! TD*
M02*
