M48
; DRILL file {KiCad 7.0.0-rc2-unknown-90e759e738~164~ubuntu22.04.1} date Sat Feb  4 08:16:57 2023
; FORMAT={-:-/ absolute / metric / decimal}
; #@! TF.CreationDate,2023-02-04T08:16:57-05:00
; #@! TF.GenerationSoftware,Kicad,Pcbnew,7.0.0-rc2-unknown-90e759e738~164~ubuntu22.04.1
; #@! TF.FileFunction,MixedPlating,1,2
FMAT,2
METRIC
; #@! TA.AperFunction,Plated,PTH,ViaDrill
T1C0.400
; #@! TA.AperFunction,Plated,PTH,ComponentDrill
T2C0.700
; #@! TA.AperFunction,Plated,PTH,ComponentDrill
T3C0.800
; #@! TA.AperFunction,Plated,PTH,ComponentDrill
T4C1.000
; #@! TA.AperFunction,Plated,PTH,ComponentDrill
T5C1.016
; #@! TA.AperFunction,Plated,PTH,ComponentDrill
T6C1.100
%
G90
G05
T1
X130.188Y-93.77
X145.936Y-57.956
X169.418Y-93.643
T2
X105.55Y-27.73
X105.55Y-36.62
X105.55Y-45.51
T3
X118.115Y-48.05
X118.115Y-53.13
X118.115Y-70.91
X118.115Y-75.99
X118.115Y-81.07
X118.115Y-86.15
X118.115Y-91.23
X118.115Y-121.71
X118.25Y-116.63
X120.51Y-126.79
X120.78Y-111.55
X123.05Y-126.79
X123.32Y-111.55
X123.33Y-59.48
X123.33Y-65.83
X125.59Y-126.79
X125.86Y-111.55
X125.87Y-59.48
X125.87Y-65.83
X128.275Y-48.05
X128.275Y-53.13
X128.275Y-70.91
X128.275Y-75.99
X128.275Y-81.07
X128.275Y-86.15
X128.275Y-91.23
X128.275Y-121.71
X128.41Y-59.48
X128.41Y-65.83
X128.41Y-116.63
X132.085Y-60.75
X132.085Y-65.83
X132.085Y-70.91
X132.085Y-75.99
X132.085Y-81.07
X132.085Y-91.23
X132.085Y-101.39
X132.085Y-106.47
X132.085Y-116.63
X132.085Y-121.71
X132.085Y-126.79
X132.22Y-96.31
X134.76Y-31.54
X134.76Y-41.7
X137.26Y-31.54
X137.26Y-41.7
X139.705Y-86.15
X139.705Y-111.55
X142.205Y-86.15
X142.205Y-111.55
X142.245Y-60.75
X142.245Y-65.83
X142.245Y-70.91
X142.245Y-75.99
X142.245Y-81.07
X142.245Y-91.23
X142.245Y-101.39
X142.245Y-106.47
X142.245Y-116.63
X142.245Y-121.71
X142.245Y-126.79
X142.38Y-96.31
X146.055Y-78.53
X146.055Y-81.07
X146.055Y-83.61
X146.055Y-86.15
X146.055Y-88.69
X146.055Y-91.23
X146.055Y-93.77
X146.19Y-106.47
X146.19Y-109.01
X146.19Y-111.55
X146.19Y-114.09
X146.19Y-116.63
X146.19Y-119.17
X146.19Y-121.71
X146.19Y-124.25
X153.675Y-78.53
X153.675Y-81.07
X153.675Y-83.61
X153.675Y-86.15
X153.675Y-88.69
X153.675Y-91.23
X153.675Y-93.77
X153.81Y-106.47
X153.81Y-109.01
X153.81Y-111.55
X153.81Y-114.09
X153.81Y-116.63
X153.81Y-119.17
X153.81Y-121.71
X153.81Y-124.25
X157.485Y-60.75
X157.485Y-65.83
X157.485Y-70.91
X157.485Y-75.99
X157.485Y-81.07
X157.485Y-86.15
X157.485Y-91.23
X157.485Y-96.31
X157.485Y-101.39
X157.485Y-106.47
X157.485Y-111.55
X157.485Y-116.63
X157.485Y-121.71
X157.485Y-126.79
X159.985Y-86.15
X159.985Y-111.55
X167.645Y-60.75
X167.645Y-65.83
X167.645Y-70.91
X167.645Y-75.99
X167.645Y-81.07
X167.645Y-91.23
X167.645Y-96.31
X167.645Y-101.39
X167.645Y-106.47
X167.645Y-116.63
X167.645Y-121.71
X167.645Y-126.79
X171.455Y-48.05
X171.455Y-53.13
X171.455Y-70.91
X171.455Y-75.99
X171.455Y-121.71
X171.59Y-59.48
X171.59Y-65.83
X171.59Y-81.07
X171.59Y-86.15
X171.59Y-91.23
X171.59Y-116.63
X174.13Y-59.48
X174.13Y-65.83
X174.13Y-111.55
X174.13Y-126.79
X176.67Y-59.48
X176.67Y-65.83
X176.67Y-111.55
X176.67Y-126.79
X179.21Y-111.55
X179.21Y-126.79
X181.615Y-48.05
X181.615Y-53.13
X181.615Y-70.91
X181.615Y-75.99
X181.615Y-121.71
X181.75Y-81.07
X181.75Y-86.15
X181.75Y-91.23
X181.75Y-116.63
T4
X132.225Y-53.13
X134.765Y-53.13
X137.305Y-53.13
X139.845Y-53.13
X142.385Y-53.13
X144.925Y-53.13
X147.465Y-53.13
X150.005Y-53.13
X152.545Y-53.13
X155.085Y-53.13
X157.625Y-53.13
X160.165Y-53.13
X162.705Y-53.13
X165.245Y-53.13
X167.785Y-53.13
T5
X161.43Y-31.54
X161.43Y-34.08
X161.43Y-36.62
X161.43Y-39.16
X161.43Y-41.7
X163.97Y-31.54
X163.97Y-34.08
X163.97Y-36.62
X163.97Y-39.16
X163.97Y-41.7
T6
X144.92Y-31.54
X144.92Y-41.7
X155.08Y-31.54
X155.08Y-41.7
T4
X106.1Y-139.15G85X106.1Y-140.85
G05
X106.1Y-164.15G85X106.1Y-165.85
G05
X107.159Y-146.639G85X108.361Y-147.841
G05
X107.159Y-171.639G85X108.361Y-172.841
G05
X112.85Y-136.1G85X111.15Y-136.1
G05
X112.85Y-161.1G85X111.15Y-161.1
G05
X115.85Y-148.9G85X114.15Y-148.9
G05
X115.85Y-173.9G85X114.15Y-173.9
G05
X118.9Y-142.15G85X118.9Y-143.85
G05
X118.9Y-167.15G85X118.9Y-168.85
G05
X131.1Y-139.15G85X131.1Y-140.85
G05
X131.1Y-164.15G85X131.1Y-165.85
G05
X132.159Y-146.639G85X133.361Y-147.841
G05
X132.159Y-171.639G85X133.361Y-172.841
G05
X137.85Y-136.1G85X136.15Y-136.1
G05
X137.85Y-161.1G85X136.15Y-161.1
G05
X140.85Y-148.9G85X139.15Y-148.9
G05
X140.85Y-173.9G85X139.15Y-173.9
G05
X143.9Y-142.15G85X143.9Y-143.85
G05
X143.9Y-167.15G85X143.9Y-168.85
G05
X156.1Y-139.15G85X156.1Y-140.85
G05
X156.1Y-164.15G85X156.1Y-165.85
G05
X157.159Y-146.639G85X158.361Y-147.841
G05
X157.159Y-171.639G85X158.361Y-172.841
G05
X162.85Y-136.1G85X161.15Y-136.1
G05
X162.85Y-161.1G85X161.15Y-161.1
G05
X165.85Y-148.9G85X164.15Y-148.9
G05
X165.85Y-173.9G85X164.15Y-173.9
G05
X168.9Y-142.15G85X168.9Y-143.85
G05
X168.9Y-167.15G85X168.9Y-168.85
G05
X181.1Y-139.15G85X181.1Y-140.85
G05
X181.1Y-164.15G85X181.1Y-165.85
G05
X182.159Y-146.639G85X183.361Y-147.841
G05
X182.159Y-171.639G85X183.361Y-172.841
G05
X187.85Y-136.1G85X186.15Y-136.1
G05
X187.85Y-161.1G85X186.15Y-161.1
G05
X190.85Y-148.9G85X189.15Y-148.9
G05
X190.85Y-173.9G85X189.15Y-173.9
G05
X193.9Y-142.15G85X193.9Y-143.85
G05
X193.9Y-167.15G85X193.9Y-168.85
G05
T0
M30
