M48
; DRILL file {KiCad 7.0.0-da2b9df05c~163~ubuntu22.04.1} date Tue 21 Feb 2023 08:49:08 PM EST
; FORMAT={-:-/ absolute / metric / decimal}
; #@! TF.CreationDate,2023-02-21T20:49:08-05:00
; #@! TF.GenerationSoftware,Kicad,Pcbnew,7.0.0-da2b9df05c~163~ubuntu22.04.1
; #@! TF.FileFunction,Plated,1,2,PTH
FMAT,2
METRIC
; #@! TA.AperFunction,Plated,PTH,ComponentDrill
T1C0.600
; #@! TA.AperFunction,Plated,PTH,ComponentDrill
T2C3.200
%
G90
G05
T1
X23.4Y-156.0
X23.4Y-181.0
X25.2Y-151.7
X25.2Y-160.3
X25.2Y-176.7
X25.2Y-185.3
X29.5Y-149.9
X29.5Y-162.1
X29.5Y-174.9
X29.5Y-187.1
X33.7Y-160.4
X33.7Y-185.4
X33.8Y-151.7
X33.8Y-176.7
X35.6Y-156.0
X35.6Y-181.0
X37.3Y-46.0
X37.3Y-90.0
X37.5Y-131.0
X38.7Y-42.7
X38.7Y-49.3
X38.7Y-86.7
X38.7Y-93.3
X38.8Y-127.8
X38.8Y-134.2
X42.0Y-41.3
X42.0Y-50.7
X42.0Y-85.3
X42.0Y-94.7
X42.0Y-126.5
X42.0Y-135.5
X45.1Y-134.3
X45.2Y-49.4
X45.2Y-93.4
X45.2Y-127.8
X45.3Y-42.7
X45.3Y-86.7
X46.5Y-131.0
X46.7Y-46.0
X46.7Y-90.0
X48.4Y-156.0
X48.4Y-181.0
X50.2Y-151.7
X50.2Y-160.3
X50.2Y-176.7
X50.2Y-185.3
X54.5Y-149.9
X54.5Y-162.1
X54.5Y-174.9
X54.5Y-187.1
X58.7Y-160.4
X58.7Y-185.4
X58.8Y-151.7
X58.8Y-176.7
X60.6Y-156.0
X60.6Y-181.0
X73.4Y-156.0
X73.4Y-181.0
X75.2Y-151.7
X75.2Y-160.3
X75.2Y-176.7
X75.2Y-185.3
X79.5Y-149.9
X79.5Y-162.1
X79.5Y-174.9
X79.5Y-187.1
X83.7Y-160.4
X83.7Y-185.4
X83.8Y-151.7
X83.8Y-176.7
X85.6Y-156.0
X85.6Y-181.0
X87.3Y-46.0
X87.3Y-90.0
X87.5Y-131.0
X88.7Y-42.7
X88.7Y-49.3
X88.7Y-86.7
X88.7Y-93.3
X88.8Y-127.8
X88.8Y-134.2
X92.0Y-41.3
X92.0Y-50.7
X92.0Y-85.3
X92.0Y-94.7
X92.0Y-126.5
X92.0Y-135.5
X95.1Y-134.3
X95.2Y-49.4
X95.2Y-93.4
X95.2Y-127.8
X95.3Y-42.7
X95.3Y-86.7
X96.5Y-131.0
X96.7Y-46.0
X96.7Y-90.0
X98.4Y-156.0
X98.4Y-181.0
X100.2Y-151.7
X100.2Y-160.3
X100.2Y-176.7
X100.2Y-185.3
X104.5Y-149.9
X104.5Y-162.1
X104.5Y-174.9
X104.5Y-187.1
X108.7Y-160.4
X108.7Y-185.4
X108.8Y-151.7
X108.8Y-176.7
X110.6Y-156.0
X110.6Y-181.0
T2
X20.0Y-9.0G85X22.8Y-9.0
G05
X20.0Y-203.0G85X22.8Y-203.0
G05
X114.0Y-9.0G85X111.2Y-9.0
G05
X114.0Y-203.0G85X111.2Y-203.0
G05
T0
M30
