%TF.GenerationSoftware,KiCad,Pcbnew,7.0.0-da2b9df05c~163~ubuntu22.04.1*%
%TF.CreationDate,2023-02-21T20:49:05-05:00*%
%TF.ProjectId,mfos_vca-panel,6d666f73-5f76-4636-912d-70616e656c2e,rev?*%
%TF.SameCoordinates,Original*%
%TF.FileFunction,Copper,L2,Bot*%
%TF.FilePolarity,Positive*%
%FSLAX46Y46*%
G04 Gerber Fmt 4.6, Leading zero omitted, Abs format (unit mm)*
G04 Created by KiCad (PCBNEW 7.0.0-da2b9df05c~163~ubuntu22.04.1) date 2023-02-21 20:49:05*
%MOMM*%
%LPD*%
G01*
G04 APERTURE LIST*
G04 Aperture macros list*
%AMFreePoly0*
4,1,139,5.398598,5.455452,5.858736,5.376554,6.310525,5.258917,6.750711,5.103390,7.176121,4.911092,7.583690,4.683410,7.970482,4.421984,8.333711,4.128698,8.670759,3.805664,8.979197,3.455210,9.256803,3.079861,9.501578,2.682322,9.711757,2.265457,9.885826,1.832269,10.022531,1.385879,10.120888,0.929505,10.180186,0.466433,10.200000,0.000000,10.180186,-0.466433,10.120888,-0.929505,
10.022531,-1.385879,9.885826,-1.832269,9.711757,-2.265457,9.501578,-2.682322,9.256803,-3.079861,8.979197,-3.455210,8.670759,-3.805664,8.333711,-4.128698,7.970482,-4.421984,7.583690,-4.683410,7.176121,-4.911092,6.750711,-5.103390,6.310525,-5.258917,5.858736,-5.376554,5.398598,-5.455452,4.933427,-5.495044,4.466573,-5.495044,4.001402,-5.455452,3.541264,-5.376554,3.089475,-5.258917,
2.649289,-5.103390,2.223879,-4.911092,1.816310,-4.683410,1.429518,-4.421984,1.066289,-4.128698,0.729241,-3.805664,0.420803,-3.455210,0.143197,-3.079861,-0.101578,-2.682322,-0.311757,-2.265457,-0.485826,-1.832269,-0.622531,-1.385879,-0.720888,-0.929505,-0.780186,-0.466433,-0.800000,0.000000,0.794988,0.000000,0.815023,-0.395064,0.874924,-0.786073,0.974075,-1.169017,1.111459,-1.539964,
1.285666,-1.895110,1.494909,-2.230809,1.737040,-2.543617,2.009576,-2.830325,2.309719,-3.087989,2.634389,-3.313966,2.980256,-3.505938,3.343769,-3.661933,3.721199,-3.780353,4.108673,-3.859981,4.502214,-3.900000,4.897786,-3.900000,5.291327,-3.859981,5.678801,-3.780353,6.056231,-3.661933,6.419744,-3.505938,6.765611,-3.313966,7.090281,-3.087989,7.390424,-2.830325,7.662960,-2.543617,
7.905091,-2.230809,8.114334,-1.895110,8.288541,-1.539964,8.425925,-1.169017,8.525076,-0.786073,8.584977,-0.395064,8.605012,0.000000,8.584977,0.395064,8.525076,0.786073,8.425925,1.169017,8.288541,1.539964,8.114334,1.895110,7.905091,2.230809,7.662960,2.543617,7.390424,2.830325,7.090281,3.087989,6.765611,3.313966,6.419744,3.505938,6.056231,3.661933,5.678801,3.780353,
5.291327,3.859981,4.897786,3.900000,4.502214,3.900000,4.108673,3.859981,3.721199,3.780353,3.343769,3.661933,2.980256,3.505938,2.634389,3.313966,2.309719,3.087989,2.009576,2.830325,1.737040,2.543617,1.494909,2.230809,1.285666,1.895110,1.111459,1.539964,0.974075,1.169017,0.874924,0.786073,0.815023,0.395064,0.794988,0.000000,-0.800000,0.000000,-0.780186,0.466433,
-0.720888,0.929505,-0.622531,1.385879,-0.485826,1.832269,-0.311757,2.265457,-0.101578,2.682322,0.143197,3.079861,0.420803,3.455210,0.729241,3.805664,1.066289,4.128698,1.429518,4.421984,1.816310,4.683410,2.223879,4.911092,2.649289,5.103390,3.089475,5.258917,3.541264,5.376554,4.001402,5.455452,4.466573,5.495044,4.933427,5.495044,5.398598,5.455452,5.398598,5.455452,
$1*%
%AMFreePoly1*
4,1,137,5.198598,5.455452,5.658736,5.376554,6.110525,5.258917,6.550711,5.103390,6.976121,4.911092,7.383690,4.683410,7.770482,4.421984,8.133711,4.128698,8.470759,3.805664,8.779197,3.455210,9.056803,3.079861,9.301578,2.682322,9.511757,2.265457,9.685826,1.832269,9.822531,1.385879,9.920888,0.929505,9.980186,0.466433,10.000000,0.000000,9.980186,-0.466433,9.920888,-0.929505,
9.822531,-1.385879,9.685826,-1.832269,9.511757,-2.265457,9.301578,-2.682322,9.056803,-3.079861,8.779197,-3.455210,8.470759,-3.805664,8.133711,-4.128698,7.770482,-4.421984,7.383690,-4.683410,6.976121,-4.911092,6.550711,-5.103390,6.110525,-5.258917,5.658736,-5.376554,5.198598,-5.455452,4.733427,-5.495044,4.266573,-5.495044,3.801402,-5.455452,3.341264,-5.376554,2.889475,-5.258917,
2.449289,-5.103390,2.023879,-4.911092,1.616310,-4.683410,1.229518,-4.421984,0.866289,-4.128698,0.529241,-3.805664,0.220803,-3.455210,-0.056803,-3.079861,-0.301578,-2.682322,-0.511757,-2.265457,-0.685826,-1.832269,-0.822531,-1.385879,-0.920888,-0.929505,-0.980186,-0.466433,-1.000000,0.000000,0.995197,0.000000,1.014397,-0.366352,1.071785,-0.728690,1.166734,-1.083044,1.298203,-1.425532,
1.464752,-1.752402,1.664555,-2.060072,1.895424,-2.345171,2.154829,-2.604576,2.439928,-2.835445,2.747598,-3.035248,3.074468,-3.201797,3.416956,-3.333266,3.771310,-3.428215,4.133648,-3.485603,4.500000,-3.504803,4.866352,-3.485603,5.228690,-3.428215,5.583044,-3.333266,5.925532,-3.201797,6.252402,-3.035248,6.560072,-2.835445,6.845171,-2.604576,7.104576,-2.345171,7.335445,-2.060072,
7.535248,-1.752402,7.701797,-1.425532,7.833266,-1.083044,7.928215,-0.728690,7.985603,-0.366352,8.004803,0.000000,7.985603,0.366352,7.928215,0.728690,7.833266,1.083044,7.701797,1.425532,7.535248,1.752401,7.335445,2.060072,7.104576,2.345171,6.845171,2.604576,6.560072,2.835445,6.252402,3.035248,5.925532,3.201797,5.583044,3.333266,5.228690,3.428215,4.866352,3.485603,
4.500000,3.504803,4.133648,3.485603,3.771310,3.428215,3.416956,3.333266,3.074468,3.201797,2.747599,3.035248,2.439928,2.835445,2.154829,2.604576,1.895424,2.345171,1.664555,2.060072,1.464752,1.752401,1.298203,1.425532,1.166734,1.083044,1.071785,0.728690,1.014397,0.366352,0.995197,0.000000,-1.000000,0.000000,-0.980186,0.466433,-0.920888,0.929505,-0.822531,1.385879,
-0.685826,1.832269,-0.511757,2.265457,-0.301578,2.682322,-0.056803,3.079861,0.220803,3.455210,0.529241,3.805664,0.866289,4.128698,1.229518,4.421984,1.616310,4.683410,2.023879,4.911092,2.449289,5.103390,2.889475,5.258917,3.341264,5.376554,3.801402,5.455452,4.266573,5.495044,4.733427,5.495044,5.198598,5.455452,5.198598,5.455452,$1*%
%AMFreePoly2*
4,1,159,6.626847,7.030287,7.150748,6.971257,7.668773,6.873242,8.178024,6.736788,8.675654,6.562660,9.158880,6.351831,9.625000,6.105479,10.071406,5.824983,10.495603,5.511912,10.895218,5.168016,11.268016,4.795218,11.611912,4.395603,11.924983,3.971406,12.205479,3.525000,12.451831,3.058880,12.662660,2.575654,12.836788,2.078024,12.973242,1.568773,13.071257,1.050748,13.130287,0.526847,
13.150000,0.000000,13.130287,-0.526847,13.071257,-1.050748,12.973242,-1.568773,12.836788,-2.078024,12.662660,-2.575654,12.451831,-3.058880,12.205479,-3.525000,11.924983,-3.971406,11.611912,-4.395603,11.268016,-4.795218,10.895218,-5.168016,10.495603,-5.511912,10.071406,-5.824983,9.625000,-6.105479,9.158880,-6.351831,8.675654,-6.562660,8.178024,-6.736788,7.668773,-6.873242,7.150748,-6.971257,
6.626847,-7.030287,6.100000,-7.050000,5.573153,-7.030287,5.049252,-6.971257,4.531227,-6.873242,4.021976,-6.736788,3.524346,-6.562660,3.041120,-6.351831,2.575000,-6.105479,2.128594,-5.824983,1.704397,-5.511912,1.304782,-5.168016,0.931984,-4.795218,0.588088,-4.395603,0.275017,-3.971406,-0.005479,-3.525000,-0.251831,-3.058880,-0.462660,-2.575654,-0.636788,-2.078024,-0.773242,-1.568773,
-0.871257,-1.050748,-0.930287,-0.526847,-0.950000,0.000000,0.945094,0.000000,0.964710,-0.449280,1.023409,-0.895140,1.120743,-1.334188,1.255973,-1.763082,1.428069,-2.178557,1.635720,-2.577453,1.877348,-2.956733,2.151113,-3.313510,2.454931,-3.645069,2.786490,-3.948887,3.143267,-4.222652,3.522547,-4.464280,3.921443,-4.671931,4.336918,-4.844027,4.765812,-4.979257,5.204860,-5.076591,
5.650720,-5.135290,6.100000,-5.154906,6.549280,-5.135290,6.995140,-5.076591,7.434188,-4.979257,7.863082,-4.844027,8.278557,-4.671931,8.677453,-4.464280,9.056733,-4.222652,9.413510,-3.948887,9.745069,-3.645069,10.048887,-3.313510,10.322652,-2.956733,10.564280,-2.577453,10.771931,-2.178557,10.944027,-1.763082,11.079257,-1.334188,11.176591,-0.895140,11.235290,-0.449280,11.254906,0.000000,
11.235290,0.449280,11.176591,0.895140,11.079257,1.334188,10.944027,1.763082,10.771931,2.178557,10.564280,2.577453,10.322652,2.956733,10.048887,3.313510,9.745069,3.645069,9.413510,3.948887,9.056733,4.222652,8.677453,4.464280,8.278557,4.671931,7.863082,4.844027,7.434188,4.979257,6.995140,5.076591,6.549280,5.135290,6.100000,5.154906,5.650720,5.135290,5.204860,5.076591,
4.765812,4.979257,4.336918,4.844027,3.921443,4.671931,3.522547,4.464280,3.143267,4.222652,2.786490,3.948887,2.454931,3.645069,2.151113,3.313510,1.877348,2.956733,1.635720,2.577453,1.428069,2.178557,1.255973,1.763082,1.120743,1.334188,1.023409,0.895140,0.964710,0.449280,0.945094,0.000000,-0.950000,0.000000,-0.930287,0.526847,-0.871257,1.050748,-0.773242,1.568773,
-0.636788,2.078024,-0.462660,2.575654,-0.251831,3.058880,-0.005479,3.525000,0.275017,3.971406,0.588088,4.395603,0.931984,4.795218,1.304782,5.168016,1.704397,5.511912,2.128594,5.824983,2.575000,6.105479,3.041120,6.351831,3.524346,6.562660,4.021976,6.736788,4.531227,6.873242,5.049252,6.971257,5.573153,7.030287,6.100000,7.050000,6.626847,7.030287,6.626847,7.030287,
$1*%
G04 Aperture macros list end*
%TA.AperFunction,SMDPad,CuDef*%
%ADD10FreePoly0,0.000000*%
%TD*%
%TA.AperFunction,ComponentPad*%
%ADD11C,0.800000*%
%TD*%
%TA.AperFunction,ComponentPad*%
%ADD12O,6.800000X4.000000*%
%TD*%
%TA.AperFunction,SMDPad,CuDef*%
%ADD13FreePoly1,0.000000*%
%TD*%
%TA.AperFunction,SMDPad,CuDef*%
%ADD14FreePoly2,0.000000*%
%TD*%
G04 APERTURE END LIST*
D10*
%TO.P,H6,1*%
%TO.N,GND*%
X87300000Y-46000000D03*
D11*
X87300000Y-46000000D03*
X88700000Y-42700000D03*
X88700000Y-49300000D03*
X92000000Y-41300000D03*
X92000000Y-50700000D03*
X95200000Y-49400000D03*
X95300000Y-42700000D03*
X96700000Y-46000000D03*
%TD*%
D12*
%TO.P,H4,1*%
%TO.N,GND*%
X21399999Y-8999999D03*
X21399999Y-202999999D03*
%TD*%
D13*
%TO.P,H7,1*%
%TO.N,GND*%
X87500000Y-131000000D03*
D11*
X87500000Y-131000000D03*
X88800000Y-127800000D03*
X88800000Y-134200000D03*
X92000000Y-126500000D03*
X92000000Y-135500000D03*
X95100000Y-134300000D03*
X95200000Y-127800000D03*
X96500000Y-131000000D03*
%TD*%
D14*
%TO.P,H16,1*%
%TO.N,GND*%
X98400000Y-181000000D03*
D11*
X98400000Y-181000000D03*
X100200000Y-176700000D03*
X100200000Y-185300000D03*
X104500000Y-174900000D03*
X104500000Y-187100000D03*
X108700000Y-185400000D03*
X108800000Y-176700000D03*
X110600000Y-181000000D03*
%TD*%
D13*
%TO.P,H2,1*%
%TO.N,GND*%
X37500000Y-131000000D03*
D11*
X37500000Y-131000000D03*
X38800000Y-127800000D03*
X38800000Y-134200000D03*
X42000000Y-126500000D03*
X42000000Y-135500000D03*
X45100000Y-134300000D03*
X45200000Y-127800000D03*
X46500000Y-131000000D03*
%TD*%
D14*
%TO.P,H9,1*%
%TO.N,GND*%
X48400000Y-156000000D03*
D11*
X48400000Y-156000000D03*
X50200000Y-151700000D03*
X50200000Y-160300000D03*
X54500000Y-149900000D03*
X54500000Y-162100000D03*
X58700000Y-160400000D03*
X58800000Y-151700000D03*
X60600000Y-156000000D03*
%TD*%
D12*
%TO.P,H8,1*%
%TO.N,GND*%
X112599999Y-202999999D03*
X112599999Y-8999999D03*
%TD*%
D14*
%TO.P,H15,1*%
%TO.N,GND*%
X98400000Y-156000000D03*
D11*
X98400000Y-156000000D03*
X100200000Y-151700000D03*
X100200000Y-160300000D03*
X104500000Y-149900000D03*
X104500000Y-162100000D03*
X108700000Y-160400000D03*
X108800000Y-151700000D03*
X110600000Y-156000000D03*
%TD*%
D14*
%TO.P,H14,1*%
%TO.N,GND*%
X73400000Y-181000000D03*
D11*
X73400000Y-181000000D03*
X75200000Y-176700000D03*
X75200000Y-185300000D03*
X79500000Y-174900000D03*
X79500000Y-187100000D03*
X83700000Y-185400000D03*
X83800000Y-176700000D03*
X85600000Y-181000000D03*
%TD*%
D14*
%TO.P,H5,1*%
%TO.N,GND*%
X23400000Y-181000000D03*
D11*
X23400000Y-181000000D03*
X25200000Y-176700000D03*
X25200000Y-185300000D03*
X29500000Y-174900000D03*
X29500000Y-187100000D03*
X33700000Y-185400000D03*
X33800000Y-176700000D03*
X35600000Y-181000000D03*
%TD*%
D10*
%TO.P,H10,1*%
%TO.N,GND*%
X37300000Y-90000000D03*
D11*
X37300000Y-90000000D03*
X38700000Y-86700000D03*
X38700000Y-93300000D03*
X42000000Y-85300000D03*
X42000000Y-94700000D03*
X45200000Y-93400000D03*
X45300000Y-86700000D03*
X46700000Y-90000000D03*
%TD*%
D14*
%TO.P,H13,1*%
%TO.N,GND*%
X73400000Y-156000000D03*
D11*
X73400000Y-156000000D03*
X75200000Y-151700000D03*
X75200000Y-160300000D03*
X79500000Y-149900000D03*
X79500000Y-162100000D03*
X83700000Y-160400000D03*
X83800000Y-151700000D03*
X85600000Y-156000000D03*
%TD*%
D14*
%TO.P,H11,1*%
%TO.N,GND*%
X48400000Y-181000000D03*
D11*
X48400000Y-181000000D03*
X50200000Y-176700000D03*
X50200000Y-185300000D03*
X54500000Y-174900000D03*
X54500000Y-187100000D03*
X58700000Y-185400000D03*
X58800000Y-176700000D03*
X60600000Y-181000000D03*
%TD*%
D10*
%TO.P,H12,1*%
%TO.N,GND*%
X87300000Y-90000000D03*
D11*
X87300000Y-90000000D03*
X88700000Y-86700000D03*
X88700000Y-93300000D03*
X92000000Y-85300000D03*
X92000000Y-94700000D03*
X95200000Y-93400000D03*
X95300000Y-86700000D03*
X96700000Y-90000000D03*
%TD*%
D10*
%TO.P,H1,1*%
%TO.N,GND*%
X37300000Y-46000000D03*
D11*
X37300000Y-46000000D03*
X38700000Y-42700000D03*
X38700000Y-49300000D03*
X42000000Y-41300000D03*
X42000000Y-50700000D03*
X45200000Y-49400000D03*
X45300000Y-42700000D03*
X46700000Y-46000000D03*
%TD*%
D14*
%TO.P,H3,1*%
%TO.N,GND*%
X23400000Y-156000000D03*
D11*
X23400000Y-156000000D03*
X25200000Y-151700000D03*
X25200000Y-160300000D03*
X29500000Y-149900000D03*
X29500000Y-162100000D03*
X33700000Y-160400000D03*
X33800000Y-151700000D03*
X35600000Y-156000000D03*
%TD*%
%TA.AperFunction,Conductor*%
%TO.N,GND*%
G36*
X116911500Y-6042381D02*
G01*
X116957619Y-6088500D01*
X116974500Y-6151500D01*
X116974500Y-205848500D01*
X116957619Y-205911500D01*
X116911500Y-205957619D01*
X116848500Y-205974500D01*
X17151500Y-205974500D01*
X17088500Y-205957619D01*
X17042381Y-205911500D01*
X17025500Y-205848500D01*
X17025500Y-181000000D01*
X24569535Y-181000000D01*
X24569662Y-181002828D01*
X24589158Y-181436947D01*
X24589384Y-181441963D01*
X24648770Y-181880369D01*
X24747215Y-182311685D01*
X24748083Y-182314358D01*
X24748086Y-182314367D01*
X24883052Y-182729749D01*
X24883927Y-182732441D01*
X24885031Y-182735025D01*
X24885036Y-182735037D01*
X25056694Y-183136651D01*
X25056698Y-183136661D01*
X25057805Y-183139249D01*
X25059146Y-183141741D01*
X25059147Y-183141743D01*
X25266102Y-183526332D01*
X25266108Y-183526343D01*
X25267448Y-183528832D01*
X25269010Y-183531198D01*
X25269011Y-183531200D01*
X25489455Y-183865159D01*
X25511170Y-183898055D01*
X25649088Y-184070999D01*
X25785244Y-184241734D01*
X25785250Y-184241741D01*
X25787007Y-184243944D01*
X26092740Y-184563715D01*
X26425905Y-184854793D01*
X26783822Y-185114834D01*
X27163607Y-185341745D01*
X27562204Y-185533699D01*
X27976403Y-185689151D01*
X28402868Y-185806848D01*
X28838168Y-185885843D01*
X29278796Y-185925500D01*
X29718382Y-185925500D01*
X29721204Y-185925500D01*
X30161832Y-185885843D01*
X30597132Y-185806848D01*
X31023597Y-185689151D01*
X31437796Y-185533699D01*
X31836393Y-185341745D01*
X32216178Y-185114834D01*
X32574095Y-184854793D01*
X32907260Y-184563715D01*
X33212993Y-184243944D01*
X33488830Y-183898055D01*
X33732552Y-183528832D01*
X33942195Y-183139249D01*
X34116073Y-182732441D01*
X34252785Y-182311685D01*
X34351230Y-181880369D01*
X34410616Y-181441963D01*
X34430465Y-181000000D01*
X49569535Y-181000000D01*
X49569662Y-181002828D01*
X49589158Y-181436947D01*
X49589384Y-181441963D01*
X49648770Y-181880369D01*
X49747215Y-182311685D01*
X49748083Y-182314358D01*
X49748086Y-182314367D01*
X49883052Y-182729749D01*
X49883927Y-182732441D01*
X49885031Y-182735025D01*
X49885036Y-182735037D01*
X50056694Y-183136651D01*
X50056698Y-183136661D01*
X50057805Y-183139249D01*
X50059146Y-183141741D01*
X50059147Y-183141743D01*
X50266102Y-183526332D01*
X50266108Y-183526343D01*
X50267448Y-183528832D01*
X50269010Y-183531198D01*
X50269011Y-183531200D01*
X50489455Y-183865159D01*
X50511170Y-183898055D01*
X50649088Y-184070999D01*
X50785244Y-184241734D01*
X50785250Y-184241741D01*
X50787007Y-184243944D01*
X51092740Y-184563715D01*
X51425905Y-184854793D01*
X51783822Y-185114834D01*
X52163607Y-185341745D01*
X52562204Y-185533699D01*
X52976403Y-185689151D01*
X53402868Y-185806848D01*
X53838168Y-185885843D01*
X54278796Y-185925500D01*
X54718382Y-185925500D01*
X54721204Y-185925500D01*
X55161832Y-185885843D01*
X55597132Y-185806848D01*
X56023597Y-185689151D01*
X56437796Y-185533699D01*
X56836393Y-185341745D01*
X57216178Y-185114834D01*
X57574095Y-184854793D01*
X57907260Y-184563715D01*
X58212993Y-184243944D01*
X58488830Y-183898055D01*
X58732552Y-183528832D01*
X58942195Y-183139249D01*
X59116073Y-182732441D01*
X59252785Y-182311685D01*
X59351230Y-181880369D01*
X59410616Y-181441963D01*
X59430465Y-181000000D01*
X74569535Y-181000000D01*
X74569662Y-181002828D01*
X74589158Y-181436947D01*
X74589384Y-181441963D01*
X74648770Y-181880369D01*
X74747215Y-182311685D01*
X74748083Y-182314358D01*
X74748086Y-182314367D01*
X74883052Y-182729749D01*
X74883927Y-182732441D01*
X74885031Y-182735025D01*
X74885036Y-182735037D01*
X75056694Y-183136651D01*
X75056698Y-183136661D01*
X75057805Y-183139249D01*
X75059146Y-183141741D01*
X75059147Y-183141743D01*
X75266102Y-183526332D01*
X75266108Y-183526343D01*
X75267448Y-183528832D01*
X75269010Y-183531198D01*
X75269011Y-183531200D01*
X75489455Y-183865159D01*
X75511170Y-183898055D01*
X75649088Y-184070999D01*
X75785244Y-184241734D01*
X75785250Y-184241741D01*
X75787007Y-184243944D01*
X76092740Y-184563715D01*
X76425905Y-184854793D01*
X76783822Y-185114834D01*
X77163607Y-185341745D01*
X77562204Y-185533699D01*
X77976403Y-185689151D01*
X78402868Y-185806848D01*
X78838168Y-185885843D01*
X79278796Y-185925500D01*
X79718382Y-185925500D01*
X79721204Y-185925500D01*
X80161832Y-185885843D01*
X80597132Y-185806848D01*
X81023597Y-185689151D01*
X81437796Y-185533699D01*
X81836393Y-185341745D01*
X82216178Y-185114834D01*
X82574095Y-184854793D01*
X82907260Y-184563715D01*
X83212993Y-184243944D01*
X83488830Y-183898055D01*
X83732552Y-183528832D01*
X83942195Y-183139249D01*
X84116073Y-182732441D01*
X84252785Y-182311685D01*
X84351230Y-181880369D01*
X84410616Y-181441963D01*
X84430465Y-181000000D01*
X99569535Y-181000000D01*
X99569662Y-181002828D01*
X99589158Y-181436947D01*
X99589384Y-181441963D01*
X99648770Y-181880369D01*
X99747215Y-182311685D01*
X99748083Y-182314358D01*
X99748086Y-182314367D01*
X99883052Y-182729749D01*
X99883927Y-182732441D01*
X99885031Y-182735025D01*
X99885036Y-182735037D01*
X100056694Y-183136651D01*
X100056698Y-183136661D01*
X100057805Y-183139249D01*
X100059146Y-183141741D01*
X100059147Y-183141743D01*
X100266102Y-183526332D01*
X100266108Y-183526343D01*
X100267448Y-183528832D01*
X100269010Y-183531198D01*
X100269011Y-183531200D01*
X100489455Y-183865159D01*
X100511170Y-183898055D01*
X100649088Y-184070999D01*
X100785244Y-184241734D01*
X100785250Y-184241741D01*
X100787007Y-184243944D01*
X101092740Y-184563715D01*
X101425905Y-184854793D01*
X101783822Y-185114834D01*
X102163607Y-185341745D01*
X102562204Y-185533699D01*
X102976403Y-185689151D01*
X103402868Y-185806848D01*
X103838168Y-185885843D01*
X104278796Y-185925500D01*
X104718382Y-185925500D01*
X104721204Y-185925500D01*
X105161832Y-185885843D01*
X105597132Y-185806848D01*
X106023597Y-185689151D01*
X106437796Y-185533699D01*
X106836393Y-185341745D01*
X107216178Y-185114834D01*
X107574095Y-184854793D01*
X107907260Y-184563715D01*
X108212993Y-184243944D01*
X108488830Y-183898055D01*
X108732552Y-183528832D01*
X108942195Y-183139249D01*
X109116073Y-182732441D01*
X109252785Y-182311685D01*
X109351230Y-181880369D01*
X109410616Y-181441963D01*
X109430465Y-181000000D01*
X109410616Y-180558037D01*
X109351230Y-180119631D01*
X109252785Y-179688315D01*
X109116073Y-179267559D01*
X108942195Y-178860751D01*
X108732552Y-178471168D01*
X108488830Y-178101945D01*
X108212993Y-177756056D01*
X107907260Y-177436285D01*
X107574095Y-177145207D01*
X107280465Y-176931873D01*
X107218462Y-176886825D01*
X107218455Y-176886820D01*
X107216178Y-176885166D01*
X107213765Y-176883724D01*
X107213757Y-176883719D01*
X106838827Y-176659709D01*
X106838822Y-176659706D01*
X106836393Y-176658255D01*
X106437796Y-176466301D01*
X106435165Y-176465313D01*
X106435159Y-176465311D01*
X106026244Y-176311842D01*
X106026235Y-176311839D01*
X106023597Y-176310849D01*
X106020865Y-176310095D01*
X105599866Y-176193906D01*
X105599854Y-176193903D01*
X105597132Y-176193152D01*
X105594356Y-176192648D01*
X105594342Y-176192645D01*
X105164612Y-176114661D01*
X105164601Y-176114659D01*
X105161832Y-176114157D01*
X105159021Y-176113904D01*
X104724012Y-176074752D01*
X104723996Y-176074751D01*
X104721204Y-176074500D01*
X104278796Y-176074500D01*
X104276004Y-176074751D01*
X104275987Y-176074752D01*
X103840978Y-176113904D01*
X103840975Y-176113904D01*
X103838168Y-176114157D01*
X103835401Y-176114659D01*
X103835387Y-176114661D01*
X103405657Y-176192645D01*
X103405638Y-176192649D01*
X103402868Y-176193152D01*
X103400150Y-176193902D01*
X103400133Y-176193906D01*
X102979134Y-176310095D01*
X102979128Y-176310096D01*
X102976403Y-176310849D01*
X102973771Y-176311836D01*
X102973755Y-176311842D01*
X102564840Y-176465311D01*
X102564826Y-176465316D01*
X102562204Y-176466301D01*
X102163607Y-176658255D01*
X102161186Y-176659701D01*
X102161172Y-176659709D01*
X101786242Y-176883719D01*
X101786224Y-176883730D01*
X101783822Y-176885166D01*
X101781554Y-176886813D01*
X101781537Y-176886825D01*
X101428198Y-177143540D01*
X101428183Y-177143551D01*
X101425905Y-177145207D01*
X101423784Y-177147059D01*
X101423769Y-177147072D01*
X101094872Y-177434422D01*
X101092740Y-177436285D01*
X101090793Y-177438321D01*
X101090784Y-177438330D01*
X100788963Y-177754009D01*
X100788950Y-177754022D01*
X100787007Y-177756056D01*
X100785259Y-177758246D01*
X100785244Y-177758265D01*
X100512933Y-178099734D01*
X100511170Y-178101945D01*
X100509617Y-178104296D01*
X100509608Y-178104310D01*
X100269011Y-178468799D01*
X100269003Y-178468811D01*
X100267448Y-178471168D01*
X100266114Y-178473646D01*
X100266102Y-178473667D01*
X100059147Y-178858256D01*
X100059141Y-178858266D01*
X100057805Y-178860751D01*
X100056702Y-178863329D01*
X100056694Y-178863348D01*
X99885036Y-179264962D01*
X99885028Y-179264981D01*
X99883927Y-179267559D01*
X99883056Y-179270237D01*
X99883052Y-179270250D01*
X99748086Y-179685632D01*
X99748081Y-179685647D01*
X99747215Y-179688315D01*
X99746589Y-179691055D01*
X99746588Y-179691061D01*
X99649398Y-180116877D01*
X99649395Y-180116889D01*
X99648770Y-180119631D01*
X99648391Y-180122425D01*
X99648391Y-180122428D01*
X99589762Y-180555242D01*
X99589760Y-180555255D01*
X99589384Y-180558037D01*
X99589257Y-180560851D01*
X99589257Y-180560858D01*
X99569662Y-180997172D01*
X99569535Y-181000000D01*
X84430465Y-181000000D01*
X84410616Y-180558037D01*
X84351230Y-180119631D01*
X84252785Y-179688315D01*
X84116073Y-179267559D01*
X83942195Y-178860751D01*
X83732552Y-178471168D01*
X83488830Y-178101945D01*
X83212993Y-177756056D01*
X82907260Y-177436285D01*
X82574095Y-177145207D01*
X82280465Y-176931873D01*
X82218462Y-176886825D01*
X82218455Y-176886820D01*
X82216178Y-176885166D01*
X82213765Y-176883724D01*
X82213757Y-176883719D01*
X81838827Y-176659709D01*
X81838822Y-176659706D01*
X81836393Y-176658255D01*
X81437796Y-176466301D01*
X81435165Y-176465313D01*
X81435159Y-176465311D01*
X81026244Y-176311842D01*
X81026235Y-176311839D01*
X81023597Y-176310849D01*
X81020865Y-176310095D01*
X80599866Y-176193906D01*
X80599854Y-176193903D01*
X80597132Y-176193152D01*
X80594356Y-176192648D01*
X80594342Y-176192645D01*
X80164612Y-176114661D01*
X80164601Y-176114659D01*
X80161832Y-176114157D01*
X80159021Y-176113904D01*
X79724012Y-176074752D01*
X79723996Y-176074751D01*
X79721204Y-176074500D01*
X79278796Y-176074500D01*
X79276004Y-176074751D01*
X79275987Y-176074752D01*
X78840978Y-176113904D01*
X78840975Y-176113904D01*
X78838168Y-176114157D01*
X78835401Y-176114659D01*
X78835387Y-176114661D01*
X78405657Y-176192645D01*
X78405638Y-176192649D01*
X78402868Y-176193152D01*
X78400150Y-176193902D01*
X78400133Y-176193906D01*
X77979134Y-176310095D01*
X77979128Y-176310096D01*
X77976403Y-176310849D01*
X77973771Y-176311836D01*
X77973755Y-176311842D01*
X77564840Y-176465311D01*
X77564826Y-176465316D01*
X77562204Y-176466301D01*
X77163607Y-176658255D01*
X77161186Y-176659701D01*
X77161172Y-176659709D01*
X76786242Y-176883719D01*
X76786224Y-176883730D01*
X76783822Y-176885166D01*
X76781554Y-176886813D01*
X76781537Y-176886825D01*
X76428198Y-177143540D01*
X76428183Y-177143551D01*
X76425905Y-177145207D01*
X76423784Y-177147059D01*
X76423769Y-177147072D01*
X76094872Y-177434422D01*
X76092740Y-177436285D01*
X76090793Y-177438321D01*
X76090784Y-177438330D01*
X75788963Y-177754009D01*
X75788950Y-177754022D01*
X75787007Y-177756056D01*
X75785259Y-177758246D01*
X75785244Y-177758265D01*
X75512933Y-178099734D01*
X75511170Y-178101945D01*
X75509617Y-178104296D01*
X75509608Y-178104310D01*
X75269011Y-178468799D01*
X75269003Y-178468811D01*
X75267448Y-178471168D01*
X75266114Y-178473646D01*
X75266102Y-178473667D01*
X75059147Y-178858256D01*
X75059141Y-178858266D01*
X75057805Y-178860751D01*
X75056702Y-178863329D01*
X75056694Y-178863348D01*
X74885036Y-179264962D01*
X74885028Y-179264981D01*
X74883927Y-179267559D01*
X74883056Y-179270237D01*
X74883052Y-179270250D01*
X74748086Y-179685632D01*
X74748081Y-179685647D01*
X74747215Y-179688315D01*
X74746589Y-179691055D01*
X74746588Y-179691061D01*
X74649398Y-180116877D01*
X74649395Y-180116889D01*
X74648770Y-180119631D01*
X74648391Y-180122425D01*
X74648391Y-180122428D01*
X74589762Y-180555242D01*
X74589760Y-180555255D01*
X74589384Y-180558037D01*
X74589257Y-180560851D01*
X74589257Y-180560858D01*
X74569662Y-180997172D01*
X74569535Y-181000000D01*
X59430465Y-181000000D01*
X59410616Y-180558037D01*
X59351230Y-180119631D01*
X59252785Y-179688315D01*
X59116073Y-179267559D01*
X58942195Y-178860751D01*
X58732552Y-178471168D01*
X58488830Y-178101945D01*
X58212993Y-177756056D01*
X57907260Y-177436285D01*
X57574095Y-177145207D01*
X57280465Y-176931873D01*
X57218462Y-176886825D01*
X57218455Y-176886820D01*
X57216178Y-176885166D01*
X57213765Y-176883724D01*
X57213757Y-176883719D01*
X56838827Y-176659709D01*
X56838822Y-176659706D01*
X56836393Y-176658255D01*
X56437796Y-176466301D01*
X56435165Y-176465313D01*
X56435159Y-176465311D01*
X56026244Y-176311842D01*
X56026235Y-176311839D01*
X56023597Y-176310849D01*
X56020865Y-176310095D01*
X55599866Y-176193906D01*
X55599854Y-176193903D01*
X55597132Y-176193152D01*
X55594356Y-176192648D01*
X55594342Y-176192645D01*
X55164612Y-176114661D01*
X55164601Y-176114659D01*
X55161832Y-176114157D01*
X55159021Y-176113904D01*
X54724012Y-176074752D01*
X54723996Y-176074751D01*
X54721204Y-176074500D01*
X54278796Y-176074500D01*
X54276004Y-176074751D01*
X54275987Y-176074752D01*
X53840978Y-176113904D01*
X53840975Y-176113904D01*
X53838168Y-176114157D01*
X53835401Y-176114659D01*
X53835387Y-176114661D01*
X53405657Y-176192645D01*
X53405638Y-176192649D01*
X53402868Y-176193152D01*
X53400150Y-176193902D01*
X53400133Y-176193906D01*
X52979134Y-176310095D01*
X52979128Y-176310096D01*
X52976403Y-176310849D01*
X52973771Y-176311836D01*
X52973755Y-176311842D01*
X52564840Y-176465311D01*
X52564826Y-176465316D01*
X52562204Y-176466301D01*
X52163607Y-176658255D01*
X52161186Y-176659701D01*
X52161172Y-176659709D01*
X51786242Y-176883719D01*
X51786224Y-176883730D01*
X51783822Y-176885166D01*
X51781554Y-176886813D01*
X51781537Y-176886825D01*
X51428198Y-177143540D01*
X51428183Y-177143551D01*
X51425905Y-177145207D01*
X51423784Y-177147059D01*
X51423769Y-177147072D01*
X51094872Y-177434422D01*
X51092740Y-177436285D01*
X51090793Y-177438321D01*
X51090784Y-177438330D01*
X50788963Y-177754009D01*
X50788950Y-177754022D01*
X50787007Y-177756056D01*
X50785259Y-177758246D01*
X50785244Y-177758265D01*
X50512933Y-178099734D01*
X50511170Y-178101945D01*
X50509617Y-178104296D01*
X50509608Y-178104310D01*
X50269011Y-178468799D01*
X50269003Y-178468811D01*
X50267448Y-178471168D01*
X50266114Y-178473646D01*
X50266102Y-178473667D01*
X50059147Y-178858256D01*
X50059141Y-178858266D01*
X50057805Y-178860751D01*
X50056702Y-178863329D01*
X50056694Y-178863348D01*
X49885036Y-179264962D01*
X49885028Y-179264981D01*
X49883927Y-179267559D01*
X49883056Y-179270237D01*
X49883052Y-179270250D01*
X49748086Y-179685632D01*
X49748081Y-179685647D01*
X49747215Y-179688315D01*
X49746589Y-179691055D01*
X49746588Y-179691061D01*
X49649398Y-180116877D01*
X49649395Y-180116889D01*
X49648770Y-180119631D01*
X49648391Y-180122425D01*
X49648391Y-180122428D01*
X49589762Y-180555242D01*
X49589760Y-180555255D01*
X49589384Y-180558037D01*
X49589257Y-180560851D01*
X49589257Y-180560858D01*
X49569662Y-180997172D01*
X49569535Y-181000000D01*
X34430465Y-181000000D01*
X34410616Y-180558037D01*
X34351230Y-180119631D01*
X34252785Y-179688315D01*
X34116073Y-179267559D01*
X33942195Y-178860751D01*
X33732552Y-178471168D01*
X33488830Y-178101945D01*
X33212993Y-177756056D01*
X32907260Y-177436285D01*
X32574095Y-177145207D01*
X32280465Y-176931873D01*
X32218462Y-176886825D01*
X32218455Y-176886820D01*
X32216178Y-176885166D01*
X32213765Y-176883724D01*
X32213757Y-176883719D01*
X31838827Y-176659709D01*
X31838822Y-176659706D01*
X31836393Y-176658255D01*
X31437796Y-176466301D01*
X31435165Y-176465313D01*
X31435159Y-176465311D01*
X31026244Y-176311842D01*
X31026235Y-176311839D01*
X31023597Y-176310849D01*
X31020865Y-176310095D01*
X30599866Y-176193906D01*
X30599854Y-176193903D01*
X30597132Y-176193152D01*
X30594356Y-176192648D01*
X30594342Y-176192645D01*
X30164612Y-176114661D01*
X30164601Y-176114659D01*
X30161832Y-176114157D01*
X30159021Y-176113904D01*
X29724012Y-176074752D01*
X29723996Y-176074751D01*
X29721204Y-176074500D01*
X29278796Y-176074500D01*
X29276004Y-176074751D01*
X29275987Y-176074752D01*
X28840978Y-176113904D01*
X28840975Y-176113904D01*
X28838168Y-176114157D01*
X28835401Y-176114659D01*
X28835387Y-176114661D01*
X28405657Y-176192645D01*
X28405638Y-176192649D01*
X28402868Y-176193152D01*
X28400150Y-176193902D01*
X28400133Y-176193906D01*
X27979134Y-176310095D01*
X27979128Y-176310096D01*
X27976403Y-176310849D01*
X27973771Y-176311836D01*
X27973755Y-176311842D01*
X27564840Y-176465311D01*
X27564826Y-176465316D01*
X27562204Y-176466301D01*
X27163607Y-176658255D01*
X27161186Y-176659701D01*
X27161172Y-176659709D01*
X26786242Y-176883719D01*
X26786224Y-176883730D01*
X26783822Y-176885166D01*
X26781554Y-176886813D01*
X26781537Y-176886825D01*
X26428198Y-177143540D01*
X26428183Y-177143551D01*
X26425905Y-177145207D01*
X26423784Y-177147059D01*
X26423769Y-177147072D01*
X26094872Y-177434422D01*
X26092740Y-177436285D01*
X26090793Y-177438321D01*
X26090784Y-177438330D01*
X25788963Y-177754009D01*
X25788950Y-177754022D01*
X25787007Y-177756056D01*
X25785259Y-177758246D01*
X25785244Y-177758265D01*
X25512933Y-178099734D01*
X25511170Y-178101945D01*
X25509617Y-178104296D01*
X25509608Y-178104310D01*
X25269011Y-178468799D01*
X25269003Y-178468811D01*
X25267448Y-178471168D01*
X25266114Y-178473646D01*
X25266102Y-178473667D01*
X25059147Y-178858256D01*
X25059141Y-178858266D01*
X25057805Y-178860751D01*
X25056702Y-178863329D01*
X25056694Y-178863348D01*
X24885036Y-179264962D01*
X24885028Y-179264981D01*
X24883927Y-179267559D01*
X24883056Y-179270237D01*
X24883052Y-179270250D01*
X24748086Y-179685632D01*
X24748081Y-179685647D01*
X24747215Y-179688315D01*
X24746589Y-179691055D01*
X24746588Y-179691061D01*
X24649398Y-180116877D01*
X24649395Y-180116889D01*
X24648770Y-180119631D01*
X24648391Y-180122425D01*
X24648391Y-180122428D01*
X24589762Y-180555242D01*
X24589760Y-180555255D01*
X24589384Y-180558037D01*
X24589257Y-180560851D01*
X24589257Y-180560858D01*
X24569662Y-180997172D01*
X24569535Y-181000000D01*
X17025500Y-181000000D01*
X17025500Y-156000000D01*
X24569535Y-156000000D01*
X24569662Y-156002828D01*
X24589158Y-156436947D01*
X24589384Y-156441963D01*
X24648770Y-156880369D01*
X24747215Y-157311685D01*
X24748083Y-157314358D01*
X24748086Y-157314367D01*
X24883052Y-157729749D01*
X24883927Y-157732441D01*
X24885031Y-157735025D01*
X24885036Y-157735037D01*
X25056694Y-158136651D01*
X25056698Y-158136661D01*
X25057805Y-158139249D01*
X25059146Y-158141741D01*
X25059147Y-158141743D01*
X25266102Y-158526332D01*
X25266108Y-158526343D01*
X25267448Y-158528832D01*
X25269010Y-158531198D01*
X25269011Y-158531200D01*
X25489455Y-158865159D01*
X25511170Y-158898055D01*
X25649088Y-159070999D01*
X25785244Y-159241734D01*
X25785250Y-159241741D01*
X25787007Y-159243944D01*
X26092740Y-159563715D01*
X26425905Y-159854793D01*
X26783822Y-160114834D01*
X27163607Y-160341745D01*
X27562204Y-160533699D01*
X27976403Y-160689151D01*
X28402868Y-160806848D01*
X28838168Y-160885843D01*
X29278796Y-160925500D01*
X29718382Y-160925500D01*
X29721204Y-160925500D01*
X30161832Y-160885843D01*
X30597132Y-160806848D01*
X31023597Y-160689151D01*
X31437796Y-160533699D01*
X31836393Y-160341745D01*
X32216178Y-160114834D01*
X32574095Y-159854793D01*
X32907260Y-159563715D01*
X33212993Y-159243944D01*
X33488830Y-158898055D01*
X33732552Y-158528832D01*
X33942195Y-158139249D01*
X34116073Y-157732441D01*
X34252785Y-157311685D01*
X34351230Y-156880369D01*
X34410616Y-156441963D01*
X34430465Y-156000000D01*
X49569535Y-156000000D01*
X49569662Y-156002828D01*
X49589158Y-156436947D01*
X49589384Y-156441963D01*
X49648770Y-156880369D01*
X49747215Y-157311685D01*
X49748083Y-157314358D01*
X49748086Y-157314367D01*
X49883052Y-157729749D01*
X49883927Y-157732441D01*
X49885031Y-157735025D01*
X49885036Y-157735037D01*
X50056694Y-158136651D01*
X50056698Y-158136661D01*
X50057805Y-158139249D01*
X50059146Y-158141741D01*
X50059147Y-158141743D01*
X50266102Y-158526332D01*
X50266108Y-158526343D01*
X50267448Y-158528832D01*
X50269010Y-158531198D01*
X50269011Y-158531200D01*
X50489455Y-158865159D01*
X50511170Y-158898055D01*
X50649088Y-159070999D01*
X50785244Y-159241734D01*
X50785250Y-159241741D01*
X50787007Y-159243944D01*
X51092740Y-159563715D01*
X51425905Y-159854793D01*
X51783822Y-160114834D01*
X52163607Y-160341745D01*
X52562204Y-160533699D01*
X52976403Y-160689151D01*
X53402868Y-160806848D01*
X53838168Y-160885843D01*
X54278796Y-160925500D01*
X54718382Y-160925500D01*
X54721204Y-160925500D01*
X55161832Y-160885843D01*
X55597132Y-160806848D01*
X56023597Y-160689151D01*
X56437796Y-160533699D01*
X56836393Y-160341745D01*
X57216178Y-160114834D01*
X57574095Y-159854793D01*
X57907260Y-159563715D01*
X58212993Y-159243944D01*
X58488830Y-158898055D01*
X58732552Y-158528832D01*
X58942195Y-158139249D01*
X59116073Y-157732441D01*
X59252785Y-157311685D01*
X59351230Y-156880369D01*
X59410616Y-156441963D01*
X59430465Y-156000000D01*
X74569535Y-156000000D01*
X74569662Y-156002828D01*
X74589158Y-156436947D01*
X74589384Y-156441963D01*
X74648770Y-156880369D01*
X74747215Y-157311685D01*
X74748083Y-157314358D01*
X74748086Y-157314367D01*
X74883052Y-157729749D01*
X74883927Y-157732441D01*
X74885031Y-157735025D01*
X74885036Y-157735037D01*
X75056694Y-158136651D01*
X75056698Y-158136661D01*
X75057805Y-158139249D01*
X75059146Y-158141741D01*
X75059147Y-158141743D01*
X75266102Y-158526332D01*
X75266108Y-158526343D01*
X75267448Y-158528832D01*
X75269010Y-158531198D01*
X75269011Y-158531200D01*
X75489455Y-158865159D01*
X75511170Y-158898055D01*
X75649088Y-159070999D01*
X75785244Y-159241734D01*
X75785250Y-159241741D01*
X75787007Y-159243944D01*
X76092740Y-159563715D01*
X76425905Y-159854793D01*
X76783822Y-160114834D01*
X77163607Y-160341745D01*
X77562204Y-160533699D01*
X77976403Y-160689151D01*
X78402868Y-160806848D01*
X78838168Y-160885843D01*
X79278796Y-160925500D01*
X79718382Y-160925500D01*
X79721204Y-160925500D01*
X80161832Y-160885843D01*
X80597132Y-160806848D01*
X81023597Y-160689151D01*
X81437796Y-160533699D01*
X81836393Y-160341745D01*
X82216178Y-160114834D01*
X82574095Y-159854793D01*
X82907260Y-159563715D01*
X83212993Y-159243944D01*
X83488830Y-158898055D01*
X83732552Y-158528832D01*
X83942195Y-158139249D01*
X84116073Y-157732441D01*
X84252785Y-157311685D01*
X84351230Y-156880369D01*
X84410616Y-156441963D01*
X84430465Y-156000000D01*
X99569535Y-156000000D01*
X99569662Y-156002828D01*
X99589158Y-156436947D01*
X99589384Y-156441963D01*
X99648770Y-156880369D01*
X99747215Y-157311685D01*
X99748083Y-157314358D01*
X99748086Y-157314367D01*
X99883052Y-157729749D01*
X99883927Y-157732441D01*
X99885031Y-157735025D01*
X99885036Y-157735037D01*
X100056694Y-158136651D01*
X100056698Y-158136661D01*
X100057805Y-158139249D01*
X100059146Y-158141741D01*
X100059147Y-158141743D01*
X100266102Y-158526332D01*
X100266108Y-158526343D01*
X100267448Y-158528832D01*
X100269010Y-158531198D01*
X100269011Y-158531200D01*
X100489455Y-158865159D01*
X100511170Y-158898055D01*
X100649088Y-159070999D01*
X100785244Y-159241734D01*
X100785250Y-159241741D01*
X100787007Y-159243944D01*
X101092740Y-159563715D01*
X101425905Y-159854793D01*
X101783822Y-160114834D01*
X102163607Y-160341745D01*
X102562204Y-160533699D01*
X102976403Y-160689151D01*
X103402868Y-160806848D01*
X103838168Y-160885843D01*
X104278796Y-160925500D01*
X104718382Y-160925500D01*
X104721204Y-160925500D01*
X105161832Y-160885843D01*
X105597132Y-160806848D01*
X106023597Y-160689151D01*
X106437796Y-160533699D01*
X106836393Y-160341745D01*
X107216178Y-160114834D01*
X107574095Y-159854793D01*
X107907260Y-159563715D01*
X108212993Y-159243944D01*
X108488830Y-158898055D01*
X108732552Y-158528832D01*
X108942195Y-158139249D01*
X109116073Y-157732441D01*
X109252785Y-157311685D01*
X109351230Y-156880369D01*
X109410616Y-156441963D01*
X109430465Y-156000000D01*
X109410616Y-155558037D01*
X109351230Y-155119631D01*
X109252785Y-154688315D01*
X109116073Y-154267559D01*
X108942195Y-153860751D01*
X108732552Y-153471168D01*
X108488830Y-153101945D01*
X108212993Y-152756056D01*
X107907260Y-152436285D01*
X107574095Y-152145207D01*
X107280465Y-151931873D01*
X107218462Y-151886825D01*
X107218455Y-151886820D01*
X107216178Y-151885166D01*
X107213765Y-151883724D01*
X107213757Y-151883719D01*
X106838827Y-151659709D01*
X106838822Y-151659706D01*
X106836393Y-151658255D01*
X106437796Y-151466301D01*
X106435165Y-151465313D01*
X106435159Y-151465311D01*
X106026244Y-151311842D01*
X106026235Y-151311839D01*
X106023597Y-151310849D01*
X106020865Y-151310095D01*
X105599866Y-151193906D01*
X105599854Y-151193903D01*
X105597132Y-151193152D01*
X105594356Y-151192648D01*
X105594342Y-151192645D01*
X105164612Y-151114661D01*
X105164601Y-151114659D01*
X105161832Y-151114157D01*
X105159021Y-151113904D01*
X104724012Y-151074752D01*
X104723996Y-151074751D01*
X104721204Y-151074500D01*
X104278796Y-151074500D01*
X104276004Y-151074751D01*
X104275987Y-151074752D01*
X103840978Y-151113904D01*
X103840975Y-151113904D01*
X103838168Y-151114157D01*
X103835401Y-151114659D01*
X103835387Y-151114661D01*
X103405657Y-151192645D01*
X103405638Y-151192649D01*
X103402868Y-151193152D01*
X103400150Y-151193902D01*
X103400133Y-151193906D01*
X102979134Y-151310095D01*
X102979128Y-151310096D01*
X102976403Y-151310849D01*
X102973771Y-151311836D01*
X102973755Y-151311842D01*
X102564840Y-151465311D01*
X102564826Y-151465316D01*
X102562204Y-151466301D01*
X102163607Y-151658255D01*
X102161186Y-151659701D01*
X102161172Y-151659709D01*
X101786242Y-151883719D01*
X101786224Y-151883730D01*
X101783822Y-151885166D01*
X101781554Y-151886813D01*
X101781537Y-151886825D01*
X101428198Y-152143540D01*
X101428183Y-152143551D01*
X101425905Y-152145207D01*
X101423784Y-152147059D01*
X101423769Y-152147072D01*
X101094872Y-152434422D01*
X101092740Y-152436285D01*
X101090793Y-152438321D01*
X101090784Y-152438330D01*
X100788963Y-152754009D01*
X100788950Y-152754022D01*
X100787007Y-152756056D01*
X100785259Y-152758246D01*
X100785244Y-152758265D01*
X100512933Y-153099734D01*
X100511170Y-153101945D01*
X100509617Y-153104296D01*
X100509608Y-153104310D01*
X100269011Y-153468799D01*
X100269003Y-153468811D01*
X100267448Y-153471168D01*
X100266114Y-153473646D01*
X100266102Y-153473667D01*
X100059147Y-153858256D01*
X100059141Y-153858266D01*
X100057805Y-153860751D01*
X100056702Y-153863329D01*
X100056694Y-153863348D01*
X99885036Y-154264962D01*
X99885028Y-154264981D01*
X99883927Y-154267559D01*
X99883056Y-154270237D01*
X99883052Y-154270250D01*
X99748086Y-154685632D01*
X99748081Y-154685647D01*
X99747215Y-154688315D01*
X99746589Y-154691055D01*
X99746588Y-154691061D01*
X99649398Y-155116877D01*
X99649395Y-155116889D01*
X99648770Y-155119631D01*
X99648391Y-155122425D01*
X99648391Y-155122428D01*
X99589762Y-155555242D01*
X99589760Y-155555255D01*
X99589384Y-155558037D01*
X99589257Y-155560851D01*
X99589257Y-155560858D01*
X99569662Y-155997172D01*
X99569535Y-156000000D01*
X84430465Y-156000000D01*
X84410616Y-155558037D01*
X84351230Y-155119631D01*
X84252785Y-154688315D01*
X84116073Y-154267559D01*
X83942195Y-153860751D01*
X83732552Y-153471168D01*
X83488830Y-153101945D01*
X83212993Y-152756056D01*
X82907260Y-152436285D01*
X82574095Y-152145207D01*
X82280465Y-151931873D01*
X82218462Y-151886825D01*
X82218455Y-151886820D01*
X82216178Y-151885166D01*
X82213765Y-151883724D01*
X82213757Y-151883719D01*
X81838827Y-151659709D01*
X81838822Y-151659706D01*
X81836393Y-151658255D01*
X81437796Y-151466301D01*
X81435165Y-151465313D01*
X81435159Y-151465311D01*
X81026244Y-151311842D01*
X81026235Y-151311839D01*
X81023597Y-151310849D01*
X81020865Y-151310095D01*
X80599866Y-151193906D01*
X80599854Y-151193903D01*
X80597132Y-151193152D01*
X80594356Y-151192648D01*
X80594342Y-151192645D01*
X80164612Y-151114661D01*
X80164601Y-151114659D01*
X80161832Y-151114157D01*
X80159021Y-151113904D01*
X79724012Y-151074752D01*
X79723996Y-151074751D01*
X79721204Y-151074500D01*
X79278796Y-151074500D01*
X79276004Y-151074751D01*
X79275987Y-151074752D01*
X78840978Y-151113904D01*
X78840975Y-151113904D01*
X78838168Y-151114157D01*
X78835401Y-151114659D01*
X78835387Y-151114661D01*
X78405657Y-151192645D01*
X78405638Y-151192649D01*
X78402868Y-151193152D01*
X78400150Y-151193902D01*
X78400133Y-151193906D01*
X77979134Y-151310095D01*
X77979128Y-151310096D01*
X77976403Y-151310849D01*
X77973771Y-151311836D01*
X77973755Y-151311842D01*
X77564840Y-151465311D01*
X77564826Y-151465316D01*
X77562204Y-151466301D01*
X77163607Y-151658255D01*
X77161186Y-151659701D01*
X77161172Y-151659709D01*
X76786242Y-151883719D01*
X76786224Y-151883730D01*
X76783822Y-151885166D01*
X76781554Y-151886813D01*
X76781537Y-151886825D01*
X76428198Y-152143540D01*
X76428183Y-152143551D01*
X76425905Y-152145207D01*
X76423784Y-152147059D01*
X76423769Y-152147072D01*
X76094872Y-152434422D01*
X76092740Y-152436285D01*
X76090793Y-152438321D01*
X76090784Y-152438330D01*
X75788963Y-152754009D01*
X75788950Y-152754022D01*
X75787007Y-152756056D01*
X75785259Y-152758246D01*
X75785244Y-152758265D01*
X75512933Y-153099734D01*
X75511170Y-153101945D01*
X75509617Y-153104296D01*
X75509608Y-153104310D01*
X75269011Y-153468799D01*
X75269003Y-153468811D01*
X75267448Y-153471168D01*
X75266114Y-153473646D01*
X75266102Y-153473667D01*
X75059147Y-153858256D01*
X75059141Y-153858266D01*
X75057805Y-153860751D01*
X75056702Y-153863329D01*
X75056694Y-153863348D01*
X74885036Y-154264962D01*
X74885028Y-154264981D01*
X74883927Y-154267559D01*
X74883056Y-154270237D01*
X74883052Y-154270250D01*
X74748086Y-154685632D01*
X74748081Y-154685647D01*
X74747215Y-154688315D01*
X74746589Y-154691055D01*
X74746588Y-154691061D01*
X74649398Y-155116877D01*
X74649395Y-155116889D01*
X74648770Y-155119631D01*
X74648391Y-155122425D01*
X74648391Y-155122428D01*
X74589762Y-155555242D01*
X74589760Y-155555255D01*
X74589384Y-155558037D01*
X74589257Y-155560851D01*
X74589257Y-155560858D01*
X74569662Y-155997172D01*
X74569535Y-156000000D01*
X59430465Y-156000000D01*
X59410616Y-155558037D01*
X59351230Y-155119631D01*
X59252785Y-154688315D01*
X59116073Y-154267559D01*
X58942195Y-153860751D01*
X58732552Y-153471168D01*
X58488830Y-153101945D01*
X58212993Y-152756056D01*
X57907260Y-152436285D01*
X57574095Y-152145207D01*
X57280465Y-151931873D01*
X57218462Y-151886825D01*
X57218455Y-151886820D01*
X57216178Y-151885166D01*
X57213765Y-151883724D01*
X57213757Y-151883719D01*
X56838827Y-151659709D01*
X56838822Y-151659706D01*
X56836393Y-151658255D01*
X56437796Y-151466301D01*
X56435165Y-151465313D01*
X56435159Y-151465311D01*
X56026244Y-151311842D01*
X56026235Y-151311839D01*
X56023597Y-151310849D01*
X56020865Y-151310095D01*
X55599866Y-151193906D01*
X55599854Y-151193903D01*
X55597132Y-151193152D01*
X55594356Y-151192648D01*
X55594342Y-151192645D01*
X55164612Y-151114661D01*
X55164601Y-151114659D01*
X55161832Y-151114157D01*
X55159021Y-151113904D01*
X54724012Y-151074752D01*
X54723996Y-151074751D01*
X54721204Y-151074500D01*
X54278796Y-151074500D01*
X54276004Y-151074751D01*
X54275987Y-151074752D01*
X53840978Y-151113904D01*
X53840975Y-151113904D01*
X53838168Y-151114157D01*
X53835401Y-151114659D01*
X53835387Y-151114661D01*
X53405657Y-151192645D01*
X53405638Y-151192649D01*
X53402868Y-151193152D01*
X53400150Y-151193902D01*
X53400133Y-151193906D01*
X52979134Y-151310095D01*
X52979128Y-151310096D01*
X52976403Y-151310849D01*
X52973771Y-151311836D01*
X52973755Y-151311842D01*
X52564840Y-151465311D01*
X52564826Y-151465316D01*
X52562204Y-151466301D01*
X52163607Y-151658255D01*
X52161186Y-151659701D01*
X52161172Y-151659709D01*
X51786242Y-151883719D01*
X51786224Y-151883730D01*
X51783822Y-151885166D01*
X51781554Y-151886813D01*
X51781537Y-151886825D01*
X51428198Y-152143540D01*
X51428183Y-152143551D01*
X51425905Y-152145207D01*
X51423784Y-152147059D01*
X51423769Y-152147072D01*
X51094872Y-152434422D01*
X51092740Y-152436285D01*
X51090793Y-152438321D01*
X51090784Y-152438330D01*
X50788963Y-152754009D01*
X50788950Y-152754022D01*
X50787007Y-152756056D01*
X50785259Y-152758246D01*
X50785244Y-152758265D01*
X50512933Y-153099734D01*
X50511170Y-153101945D01*
X50509617Y-153104296D01*
X50509608Y-153104310D01*
X50269011Y-153468799D01*
X50269003Y-153468811D01*
X50267448Y-153471168D01*
X50266114Y-153473646D01*
X50266102Y-153473667D01*
X50059147Y-153858256D01*
X50059141Y-153858266D01*
X50057805Y-153860751D01*
X50056702Y-153863329D01*
X50056694Y-153863348D01*
X49885036Y-154264962D01*
X49885028Y-154264981D01*
X49883927Y-154267559D01*
X49883056Y-154270237D01*
X49883052Y-154270250D01*
X49748086Y-154685632D01*
X49748081Y-154685647D01*
X49747215Y-154688315D01*
X49746589Y-154691055D01*
X49746588Y-154691061D01*
X49649398Y-155116877D01*
X49649395Y-155116889D01*
X49648770Y-155119631D01*
X49648391Y-155122425D01*
X49648391Y-155122428D01*
X49589762Y-155555242D01*
X49589760Y-155555255D01*
X49589384Y-155558037D01*
X49589257Y-155560851D01*
X49589257Y-155560858D01*
X49569662Y-155997172D01*
X49569535Y-156000000D01*
X34430465Y-156000000D01*
X34410616Y-155558037D01*
X34351230Y-155119631D01*
X34252785Y-154688315D01*
X34116073Y-154267559D01*
X33942195Y-153860751D01*
X33732552Y-153471168D01*
X33488830Y-153101945D01*
X33212993Y-152756056D01*
X32907260Y-152436285D01*
X32574095Y-152145207D01*
X32280465Y-151931873D01*
X32218462Y-151886825D01*
X32218455Y-151886820D01*
X32216178Y-151885166D01*
X32213765Y-151883724D01*
X32213757Y-151883719D01*
X31838827Y-151659709D01*
X31838822Y-151659706D01*
X31836393Y-151658255D01*
X31437796Y-151466301D01*
X31435165Y-151465313D01*
X31435159Y-151465311D01*
X31026244Y-151311842D01*
X31026235Y-151311839D01*
X31023597Y-151310849D01*
X31020865Y-151310095D01*
X30599866Y-151193906D01*
X30599854Y-151193903D01*
X30597132Y-151193152D01*
X30594356Y-151192648D01*
X30594342Y-151192645D01*
X30164612Y-151114661D01*
X30164601Y-151114659D01*
X30161832Y-151114157D01*
X30159021Y-151113904D01*
X29724012Y-151074752D01*
X29723996Y-151074751D01*
X29721204Y-151074500D01*
X29278796Y-151074500D01*
X29276004Y-151074751D01*
X29275987Y-151074752D01*
X28840978Y-151113904D01*
X28840975Y-151113904D01*
X28838168Y-151114157D01*
X28835401Y-151114659D01*
X28835387Y-151114661D01*
X28405657Y-151192645D01*
X28405638Y-151192649D01*
X28402868Y-151193152D01*
X28400150Y-151193902D01*
X28400133Y-151193906D01*
X27979134Y-151310095D01*
X27979128Y-151310096D01*
X27976403Y-151310849D01*
X27973771Y-151311836D01*
X27973755Y-151311842D01*
X27564840Y-151465311D01*
X27564826Y-151465316D01*
X27562204Y-151466301D01*
X27163607Y-151658255D01*
X27161186Y-151659701D01*
X27161172Y-151659709D01*
X26786242Y-151883719D01*
X26786224Y-151883730D01*
X26783822Y-151885166D01*
X26781554Y-151886813D01*
X26781537Y-151886825D01*
X26428198Y-152143540D01*
X26428183Y-152143551D01*
X26425905Y-152145207D01*
X26423784Y-152147059D01*
X26423769Y-152147072D01*
X26094872Y-152434422D01*
X26092740Y-152436285D01*
X26090793Y-152438321D01*
X26090784Y-152438330D01*
X25788963Y-152754009D01*
X25788950Y-152754022D01*
X25787007Y-152756056D01*
X25785259Y-152758246D01*
X25785244Y-152758265D01*
X25512933Y-153099734D01*
X25511170Y-153101945D01*
X25509617Y-153104296D01*
X25509608Y-153104310D01*
X25269011Y-153468799D01*
X25269003Y-153468811D01*
X25267448Y-153471168D01*
X25266114Y-153473646D01*
X25266102Y-153473667D01*
X25059147Y-153858256D01*
X25059141Y-153858266D01*
X25057805Y-153860751D01*
X25056702Y-153863329D01*
X25056694Y-153863348D01*
X24885036Y-154264962D01*
X24885028Y-154264981D01*
X24883927Y-154267559D01*
X24883056Y-154270237D01*
X24883052Y-154270250D01*
X24748086Y-154685632D01*
X24748081Y-154685647D01*
X24747215Y-154688315D01*
X24746589Y-154691055D01*
X24746588Y-154691061D01*
X24649398Y-155116877D01*
X24649395Y-155116889D01*
X24648770Y-155119631D01*
X24648391Y-155122425D01*
X24648391Y-155122428D01*
X24589762Y-155555242D01*
X24589760Y-155555255D01*
X24589384Y-155558037D01*
X24589257Y-155560851D01*
X24589257Y-155560858D01*
X24569662Y-155997172D01*
X24569535Y-156000000D01*
X17025500Y-156000000D01*
X17025500Y-136297497D01*
X41565652Y-136297497D01*
X41574820Y-136304628D01*
X41711841Y-136365634D01*
X41724319Y-136369688D01*
X41898107Y-136406627D01*
X41911168Y-136408000D01*
X42088832Y-136408000D01*
X42101892Y-136406627D01*
X42275680Y-136369688D01*
X42288158Y-136365634D01*
X42425177Y-136304628D01*
X42434346Y-136297497D01*
X91565652Y-136297497D01*
X91574820Y-136304628D01*
X91711841Y-136365634D01*
X91724319Y-136369688D01*
X91898107Y-136406627D01*
X91911168Y-136408000D01*
X92088832Y-136408000D01*
X92101892Y-136406627D01*
X92275680Y-136369688D01*
X92288158Y-136365634D01*
X92425177Y-136304628D01*
X92434346Y-136297497D01*
X92428341Y-136287551D01*
X92011729Y-135870939D01*
X91999999Y-135864167D01*
X91988271Y-135870938D01*
X91571657Y-136287551D01*
X91565652Y-136297497D01*
X42434346Y-136297497D01*
X42428341Y-136287551D01*
X42011729Y-135870939D01*
X41999999Y-135864167D01*
X41988271Y-135870938D01*
X41571657Y-136287551D01*
X41565652Y-136297497D01*
X17025500Y-136297497D01*
X17025500Y-135506565D01*
X41087688Y-135506565D01*
X41106259Y-135683260D01*
X41108988Y-135696101D01*
X41163888Y-135865066D01*
X41169235Y-135877074D01*
X41196570Y-135924419D01*
X41204372Y-135932750D01*
X41214065Y-135926723D01*
X41629059Y-135511730D01*
X41635832Y-135499999D01*
X42364167Y-135499999D01*
X42370939Y-135511729D01*
X42785929Y-135926719D01*
X42795626Y-135932749D01*
X42803429Y-135924418D01*
X42830770Y-135877064D01*
X42836108Y-135865074D01*
X42891011Y-135696101D01*
X42893740Y-135683260D01*
X42912312Y-135506565D01*
X91087688Y-135506565D01*
X91106259Y-135683260D01*
X91108988Y-135696101D01*
X91163888Y-135865066D01*
X91169235Y-135877074D01*
X91196570Y-135924419D01*
X91204372Y-135932750D01*
X91214065Y-135926723D01*
X91629059Y-135511730D01*
X91635832Y-135499999D01*
X92364167Y-135499999D01*
X92370939Y-135511729D01*
X92785929Y-135926719D01*
X92795626Y-135932749D01*
X92803429Y-135924418D01*
X92830770Y-135877064D01*
X92836108Y-135865074D01*
X92891011Y-135696101D01*
X92893740Y-135683260D01*
X92912312Y-135506565D01*
X92912312Y-135493435D01*
X92893740Y-135316739D01*
X92891011Y-135303898D01*
X92836111Y-135134933D01*
X92830764Y-135122926D01*
X92816083Y-135097497D01*
X94665652Y-135097497D01*
X94674820Y-135104628D01*
X94811841Y-135165634D01*
X94824319Y-135169688D01*
X94998107Y-135206627D01*
X95011168Y-135208000D01*
X95188832Y-135208000D01*
X95201892Y-135206627D01*
X95375680Y-135169688D01*
X95388158Y-135165634D01*
X95525177Y-135104628D01*
X95534346Y-135097497D01*
X95528341Y-135087551D01*
X95111729Y-134670939D01*
X95099999Y-134664167D01*
X95088271Y-134670938D01*
X94671657Y-135087551D01*
X94665652Y-135097497D01*
X92816083Y-135097497D01*
X92803429Y-135075579D01*
X92795626Y-135067248D01*
X92785932Y-135073276D01*
X92370938Y-135488271D01*
X92364167Y-135499999D01*
X91635832Y-135499999D01*
X91629060Y-135488270D01*
X91214067Y-135073277D01*
X91204372Y-135067248D01*
X91196570Y-135075578D01*
X91169234Y-135122927D01*
X91163889Y-135134933D01*
X91108988Y-135303898D01*
X91106259Y-135316739D01*
X91087688Y-135493435D01*
X91087688Y-135506565D01*
X42912312Y-135506565D01*
X42912312Y-135493435D01*
X42893740Y-135316739D01*
X42891011Y-135303898D01*
X42836111Y-135134933D01*
X42830764Y-135122926D01*
X42816083Y-135097497D01*
X44665652Y-135097497D01*
X44674820Y-135104628D01*
X44811841Y-135165634D01*
X44824319Y-135169688D01*
X44998107Y-135206627D01*
X45011168Y-135208000D01*
X45188832Y-135208000D01*
X45201892Y-135206627D01*
X45375680Y-135169688D01*
X45388158Y-135165634D01*
X45525177Y-135104628D01*
X45534346Y-135097497D01*
X45528341Y-135087551D01*
X45438287Y-134997497D01*
X88365652Y-134997497D01*
X88374820Y-135004628D01*
X88511841Y-135065634D01*
X88524319Y-135069688D01*
X88698107Y-135106627D01*
X88711168Y-135108000D01*
X88888832Y-135108000D01*
X88901892Y-135106627D01*
X89075680Y-135069688D01*
X89088158Y-135065634D01*
X89225177Y-135004628D01*
X89234346Y-134997497D01*
X89228341Y-134987551D01*
X88943292Y-134702502D01*
X91565652Y-134702502D01*
X91571657Y-134712447D01*
X91988270Y-135129060D01*
X91999999Y-135135832D01*
X92011730Y-135129059D01*
X92428343Y-134712445D01*
X92434347Y-134702502D01*
X92425178Y-134695370D01*
X92288159Y-134634366D01*
X92275680Y-134630311D01*
X92101892Y-134593372D01*
X92088832Y-134592000D01*
X91911168Y-134592000D01*
X91898107Y-134593372D01*
X91724326Y-134630310D01*
X91711833Y-134634369D01*
X91574823Y-134695369D01*
X91565652Y-134702502D01*
X88943292Y-134702502D01*
X88811729Y-134570939D01*
X88799999Y-134564167D01*
X88788271Y-134570938D01*
X88371657Y-134987551D01*
X88365652Y-134997497D01*
X45438287Y-134997497D01*
X45111729Y-134670939D01*
X45099999Y-134664167D01*
X45088271Y-134670938D01*
X44671657Y-135087551D01*
X44665652Y-135097497D01*
X42816083Y-135097497D01*
X42803429Y-135075579D01*
X42795626Y-135067248D01*
X42785932Y-135073276D01*
X42370938Y-135488271D01*
X42364167Y-135499999D01*
X41635832Y-135499999D01*
X41629060Y-135488270D01*
X41214067Y-135073277D01*
X41204372Y-135067248D01*
X41196570Y-135075578D01*
X41169234Y-135122927D01*
X41163889Y-135134933D01*
X41108988Y-135303898D01*
X41106259Y-135316739D01*
X41087688Y-135493435D01*
X41087688Y-135506565D01*
X17025500Y-135506565D01*
X17025500Y-134997497D01*
X38365652Y-134997497D01*
X38374820Y-135004628D01*
X38511841Y-135065634D01*
X38524319Y-135069688D01*
X38698107Y-135106627D01*
X38711168Y-135108000D01*
X38888832Y-135108000D01*
X38901892Y-135106627D01*
X39075680Y-135069688D01*
X39088158Y-135065634D01*
X39225177Y-135004628D01*
X39234346Y-134997497D01*
X39228341Y-134987551D01*
X38943292Y-134702502D01*
X41565652Y-134702502D01*
X41571657Y-134712447D01*
X41988270Y-135129060D01*
X41999999Y-135135832D01*
X42011730Y-135129059D01*
X42428343Y-134712445D01*
X42434347Y-134702502D01*
X42425178Y-134695370D01*
X42288159Y-134634366D01*
X42275680Y-134630311D01*
X42101892Y-134593372D01*
X42088832Y-134592000D01*
X41911168Y-134592000D01*
X41898107Y-134593372D01*
X41724326Y-134630310D01*
X41711833Y-134634369D01*
X41574823Y-134695369D01*
X41565652Y-134702502D01*
X38943292Y-134702502D01*
X38811729Y-134570939D01*
X38799999Y-134564167D01*
X38788271Y-134570938D01*
X38371657Y-134987551D01*
X38365652Y-134997497D01*
X17025500Y-134997497D01*
X17025500Y-134206565D01*
X37887688Y-134206565D01*
X37906259Y-134383260D01*
X37908988Y-134396101D01*
X37963888Y-134565066D01*
X37969235Y-134577074D01*
X37996570Y-134624419D01*
X38004372Y-134632750D01*
X38014065Y-134626723D01*
X38429059Y-134211730D01*
X38435832Y-134199999D01*
X39164167Y-134199999D01*
X39170939Y-134211729D01*
X39585929Y-134626719D01*
X39595626Y-134632749D01*
X39603429Y-134624418D01*
X39630770Y-134577064D01*
X39636108Y-134565074D01*
X39691011Y-134396101D01*
X39693740Y-134383260D01*
X39712312Y-134206565D01*
X39712312Y-134193435D01*
X39693740Y-134016739D01*
X39691011Y-134003898D01*
X39636111Y-133834933D01*
X39630764Y-133822926D01*
X39603429Y-133775579D01*
X39595626Y-133767248D01*
X39585932Y-133773276D01*
X39170938Y-134188271D01*
X39164167Y-134199999D01*
X38435832Y-134199999D01*
X38429060Y-134188270D01*
X38014067Y-133773277D01*
X38004372Y-133767248D01*
X37996570Y-133775578D01*
X37969234Y-133822927D01*
X37963889Y-133834933D01*
X37908988Y-134003898D01*
X37906259Y-134016739D01*
X37887688Y-134193435D01*
X37887688Y-134206565D01*
X17025500Y-134206565D01*
X17025500Y-133402502D01*
X38365652Y-133402502D01*
X38371657Y-133412447D01*
X38788270Y-133829060D01*
X38799999Y-133835832D01*
X38811730Y-133829059D01*
X39228343Y-133412445D01*
X39234347Y-133402502D01*
X39225178Y-133395370D01*
X39088159Y-133334366D01*
X39075680Y-133330311D01*
X38901892Y-133293372D01*
X38888832Y-133292000D01*
X38711168Y-133292000D01*
X38698107Y-133293372D01*
X38524326Y-133330310D01*
X38511833Y-133334369D01*
X38374823Y-133395369D01*
X38365652Y-133402502D01*
X17025500Y-133402502D01*
X17025500Y-131797497D01*
X37065652Y-131797497D01*
X37074820Y-131804628D01*
X37211841Y-131865634D01*
X37224319Y-131869688D01*
X37398107Y-131906627D01*
X37411168Y-131908000D01*
X37588832Y-131908000D01*
X37601892Y-131906627D01*
X37775680Y-131869688D01*
X37788158Y-131865634D01*
X37925177Y-131804628D01*
X37934346Y-131797497D01*
X37928341Y-131787551D01*
X37511729Y-131370939D01*
X37499999Y-131364167D01*
X37488271Y-131370938D01*
X37071657Y-131787551D01*
X37065652Y-131797497D01*
X17025500Y-131797497D01*
X17025500Y-131006565D01*
X36587688Y-131006565D01*
X36606259Y-131183260D01*
X36608988Y-131196101D01*
X36663888Y-131365066D01*
X36669235Y-131377074D01*
X36696570Y-131424419D01*
X36704372Y-131432750D01*
X36714065Y-131426723D01*
X37129059Y-131011730D01*
X37135832Y-130999999D01*
X37864167Y-130999999D01*
X37870939Y-131011729D01*
X38285929Y-131426719D01*
X38295626Y-131432749D01*
X38303429Y-131424418D01*
X38330770Y-131377064D01*
X38336108Y-131365074D01*
X38391011Y-131196101D01*
X38393740Y-131183260D01*
X38412312Y-131006565D01*
X38412312Y-131000000D01*
X38669616Y-131000000D01*
X38669801Y-131003412D01*
X38688954Y-131356676D01*
X38688955Y-131356686D01*
X38689139Y-131360078D01*
X38689689Y-131363438D01*
X38689690Y-131363439D01*
X38745509Y-131703921D01*
X38747479Y-131715934D01*
X38748387Y-131719206D01*
X38748391Y-131719222D01*
X38843035Y-132060100D01*
X38843038Y-132060110D01*
X38843951Y-132063397D01*
X38977425Y-132398392D01*
X39146337Y-132716992D01*
X39348704Y-133015463D01*
X39582156Y-133290303D01*
X39584625Y-133292642D01*
X39584631Y-133292648D01*
X39841470Y-133535939D01*
X39841479Y-133535946D01*
X39843955Y-133538292D01*
X40131032Y-133756522D01*
X40440020Y-133942434D01*
X40767298Y-134093849D01*
X41109028Y-134208991D01*
X41461204Y-134286511D01*
X41819697Y-134325500D01*
X42176888Y-134325500D01*
X42180303Y-134325500D01*
X42354405Y-134306565D01*
X44187688Y-134306565D01*
X44206259Y-134483260D01*
X44208988Y-134496101D01*
X44263888Y-134665066D01*
X44269235Y-134677074D01*
X44296570Y-134724419D01*
X44304372Y-134732750D01*
X44314065Y-134726723D01*
X44729059Y-134311730D01*
X44735832Y-134299999D01*
X45464167Y-134299999D01*
X45470939Y-134311729D01*
X45885929Y-134726719D01*
X45895626Y-134732749D01*
X45903429Y-134724418D01*
X45930770Y-134677064D01*
X45936108Y-134665074D01*
X45991011Y-134496101D01*
X45993740Y-134483260D01*
X46012312Y-134306565D01*
X46012312Y-134293435D01*
X46003181Y-134206565D01*
X87887688Y-134206565D01*
X87906259Y-134383260D01*
X87908988Y-134396101D01*
X87963888Y-134565066D01*
X87969235Y-134577074D01*
X87996570Y-134624419D01*
X88004372Y-134632750D01*
X88014065Y-134626723D01*
X88429059Y-134211730D01*
X88435832Y-134199999D01*
X89164167Y-134199999D01*
X89170939Y-134211729D01*
X89585929Y-134626719D01*
X89595626Y-134632749D01*
X89603429Y-134624418D01*
X89630770Y-134577064D01*
X89636108Y-134565074D01*
X89691011Y-134396101D01*
X89693740Y-134383260D01*
X89712312Y-134206565D01*
X89712312Y-134193435D01*
X89693740Y-134016739D01*
X89691011Y-134003898D01*
X89636111Y-133834933D01*
X89630764Y-133822926D01*
X89603429Y-133775579D01*
X89595626Y-133767248D01*
X89585932Y-133773276D01*
X89170938Y-134188271D01*
X89164167Y-134199999D01*
X88435832Y-134199999D01*
X88429060Y-134188270D01*
X88014067Y-133773277D01*
X88004372Y-133767248D01*
X87996570Y-133775578D01*
X87969234Y-133822927D01*
X87963889Y-133834933D01*
X87908988Y-134003898D01*
X87906259Y-134016739D01*
X87887688Y-134193435D01*
X87887688Y-134206565D01*
X46003181Y-134206565D01*
X45993740Y-134116739D01*
X45991011Y-134103898D01*
X45936111Y-133934933D01*
X45930764Y-133922926D01*
X45903429Y-133875579D01*
X45895626Y-133867248D01*
X45885932Y-133873276D01*
X45470938Y-134288271D01*
X45464167Y-134299999D01*
X44735832Y-134299999D01*
X44729060Y-134288270D01*
X44314067Y-133873277D01*
X44304372Y-133867248D01*
X44296570Y-133875578D01*
X44269234Y-133922927D01*
X44263889Y-133934933D01*
X44208988Y-134103898D01*
X44206259Y-134116739D01*
X44187688Y-134293435D01*
X44187688Y-134306565D01*
X42354405Y-134306565D01*
X42538796Y-134286511D01*
X42890972Y-134208991D01*
X43232702Y-134093849D01*
X43559980Y-133942434D01*
X43868968Y-133756522D01*
X44156045Y-133538292D01*
X44193828Y-133502502D01*
X44665652Y-133502502D01*
X44671657Y-133512447D01*
X45088270Y-133929060D01*
X45099999Y-133935832D01*
X45111730Y-133929059D01*
X45528343Y-133512445D01*
X45534347Y-133502502D01*
X45525178Y-133495370D01*
X45388159Y-133434366D01*
X45375680Y-133430311D01*
X45244846Y-133402502D01*
X88365652Y-133402502D01*
X88371657Y-133412447D01*
X88788270Y-133829060D01*
X88799999Y-133835832D01*
X88811730Y-133829059D01*
X89228343Y-133412445D01*
X89234347Y-133402502D01*
X89225178Y-133395370D01*
X89088159Y-133334366D01*
X89075680Y-133330311D01*
X88901892Y-133293372D01*
X88888832Y-133292000D01*
X88711168Y-133292000D01*
X88698107Y-133293372D01*
X88524326Y-133330310D01*
X88511833Y-133334369D01*
X88374823Y-133395369D01*
X88365652Y-133402502D01*
X45244846Y-133402502D01*
X45201892Y-133393372D01*
X45188832Y-133392000D01*
X45011168Y-133392000D01*
X44998107Y-133393372D01*
X44824326Y-133430310D01*
X44811833Y-133434369D01*
X44674823Y-133495369D01*
X44665652Y-133502502D01*
X44193828Y-133502502D01*
X44417844Y-133290303D01*
X44651296Y-133015463D01*
X44853663Y-132716992D01*
X45022575Y-132398392D01*
X45156049Y-132063397D01*
X45229875Y-131797497D01*
X46065652Y-131797497D01*
X46074820Y-131804628D01*
X46211841Y-131865634D01*
X46224319Y-131869688D01*
X46398107Y-131906627D01*
X46411168Y-131908000D01*
X46588832Y-131908000D01*
X46601892Y-131906627D01*
X46775680Y-131869688D01*
X46788158Y-131865634D01*
X46925177Y-131804628D01*
X46934346Y-131797497D01*
X87065652Y-131797497D01*
X87074820Y-131804628D01*
X87211841Y-131865634D01*
X87224319Y-131869688D01*
X87398107Y-131906627D01*
X87411168Y-131908000D01*
X87588832Y-131908000D01*
X87601892Y-131906627D01*
X87775680Y-131869688D01*
X87788158Y-131865634D01*
X87925177Y-131804628D01*
X87934346Y-131797497D01*
X87928341Y-131787551D01*
X87511729Y-131370939D01*
X87499999Y-131364167D01*
X87488271Y-131370938D01*
X87071657Y-131787551D01*
X87065652Y-131797497D01*
X46934346Y-131797497D01*
X46928341Y-131787551D01*
X46511729Y-131370939D01*
X46499999Y-131364167D01*
X46488271Y-131370938D01*
X46071657Y-131787551D01*
X46065652Y-131797497D01*
X45229875Y-131797497D01*
X45252521Y-131715934D01*
X45310861Y-131360078D01*
X45330028Y-131006565D01*
X45587688Y-131006565D01*
X45606259Y-131183260D01*
X45608988Y-131196101D01*
X45663888Y-131365066D01*
X45669235Y-131377074D01*
X45696570Y-131424419D01*
X45704372Y-131432750D01*
X45714065Y-131426723D01*
X46129059Y-131011730D01*
X46135832Y-130999999D01*
X46864167Y-130999999D01*
X46870939Y-131011729D01*
X47285929Y-131426719D01*
X47295626Y-131432749D01*
X47303429Y-131424418D01*
X47330770Y-131377064D01*
X47336108Y-131365074D01*
X47391011Y-131196101D01*
X47393740Y-131183260D01*
X47412312Y-131006565D01*
X86587688Y-131006565D01*
X86606259Y-131183260D01*
X86608988Y-131196101D01*
X86663888Y-131365066D01*
X86669235Y-131377074D01*
X86696570Y-131424419D01*
X86704372Y-131432750D01*
X86714065Y-131426723D01*
X87129059Y-131011730D01*
X87135832Y-130999999D01*
X87864167Y-130999999D01*
X87870939Y-131011729D01*
X88285929Y-131426719D01*
X88295626Y-131432749D01*
X88303429Y-131424418D01*
X88330770Y-131377064D01*
X88336108Y-131365074D01*
X88391011Y-131196101D01*
X88393740Y-131183260D01*
X88412312Y-131006565D01*
X88412312Y-131000000D01*
X88669616Y-131000000D01*
X88669801Y-131003412D01*
X88688954Y-131356676D01*
X88688955Y-131356686D01*
X88689139Y-131360078D01*
X88689689Y-131363438D01*
X88689690Y-131363439D01*
X88745509Y-131703921D01*
X88747479Y-131715934D01*
X88748387Y-131719206D01*
X88748391Y-131719222D01*
X88843035Y-132060100D01*
X88843038Y-132060110D01*
X88843951Y-132063397D01*
X88977425Y-132398392D01*
X89146337Y-132716992D01*
X89348704Y-133015463D01*
X89582156Y-133290303D01*
X89584625Y-133292642D01*
X89584631Y-133292648D01*
X89841470Y-133535939D01*
X89841479Y-133535946D01*
X89843955Y-133538292D01*
X90131032Y-133756522D01*
X90440020Y-133942434D01*
X90767298Y-134093849D01*
X91109028Y-134208991D01*
X91461204Y-134286511D01*
X91819697Y-134325500D01*
X92176888Y-134325500D01*
X92180303Y-134325500D01*
X92354405Y-134306565D01*
X94187688Y-134306565D01*
X94206259Y-134483260D01*
X94208988Y-134496101D01*
X94263888Y-134665066D01*
X94269235Y-134677074D01*
X94296570Y-134724419D01*
X94304372Y-134732750D01*
X94314065Y-134726723D01*
X94729059Y-134311730D01*
X94735832Y-134299999D01*
X95464167Y-134299999D01*
X95470939Y-134311729D01*
X95885929Y-134726719D01*
X95895626Y-134732749D01*
X95903429Y-134724418D01*
X95930770Y-134677064D01*
X95936108Y-134665074D01*
X95991011Y-134496101D01*
X95993740Y-134483260D01*
X96012312Y-134306565D01*
X96012312Y-134293435D01*
X95993740Y-134116739D01*
X95991011Y-134103898D01*
X95936111Y-133934933D01*
X95930764Y-133922926D01*
X95903429Y-133875579D01*
X95895626Y-133867248D01*
X95885932Y-133873276D01*
X95470938Y-134288271D01*
X95464167Y-134299999D01*
X94735832Y-134299999D01*
X94729060Y-134288270D01*
X94314067Y-133873277D01*
X94304372Y-133867248D01*
X94296570Y-133875578D01*
X94269234Y-133922927D01*
X94263889Y-133934933D01*
X94208988Y-134103898D01*
X94206259Y-134116739D01*
X94187688Y-134293435D01*
X94187688Y-134306565D01*
X92354405Y-134306565D01*
X92538796Y-134286511D01*
X92890972Y-134208991D01*
X93232702Y-134093849D01*
X93559980Y-133942434D01*
X93868968Y-133756522D01*
X94156045Y-133538292D01*
X94193828Y-133502502D01*
X94665652Y-133502502D01*
X94671657Y-133512447D01*
X95088270Y-133929060D01*
X95099999Y-133935832D01*
X95111730Y-133929059D01*
X95528343Y-133512445D01*
X95534347Y-133502502D01*
X95525178Y-133495370D01*
X95388159Y-133434366D01*
X95375680Y-133430311D01*
X95201892Y-133393372D01*
X95188832Y-133392000D01*
X95011168Y-133392000D01*
X94998107Y-133393372D01*
X94824326Y-133430310D01*
X94811833Y-133434369D01*
X94674823Y-133495369D01*
X94665652Y-133502502D01*
X94193828Y-133502502D01*
X94417844Y-133290303D01*
X94651296Y-133015463D01*
X94853663Y-132716992D01*
X95022575Y-132398392D01*
X95156049Y-132063397D01*
X95229875Y-131797497D01*
X96065652Y-131797497D01*
X96074820Y-131804628D01*
X96211841Y-131865634D01*
X96224319Y-131869688D01*
X96398107Y-131906627D01*
X96411168Y-131908000D01*
X96588832Y-131908000D01*
X96601892Y-131906627D01*
X96775680Y-131869688D01*
X96788158Y-131865634D01*
X96925177Y-131804628D01*
X96934346Y-131797497D01*
X96928341Y-131787551D01*
X96511729Y-131370939D01*
X96499999Y-131364167D01*
X96488271Y-131370938D01*
X96071657Y-131787551D01*
X96065652Y-131797497D01*
X95229875Y-131797497D01*
X95252521Y-131715934D01*
X95310861Y-131360078D01*
X95330028Y-131006565D01*
X95587688Y-131006565D01*
X95606259Y-131183260D01*
X95608988Y-131196101D01*
X95663888Y-131365066D01*
X95669235Y-131377074D01*
X95696570Y-131424419D01*
X95704372Y-131432750D01*
X95714065Y-131426723D01*
X96129059Y-131011730D01*
X96135832Y-130999999D01*
X96864167Y-130999999D01*
X96870939Y-131011729D01*
X97285929Y-131426719D01*
X97295626Y-131432749D01*
X97303429Y-131424418D01*
X97330770Y-131377064D01*
X97336108Y-131365074D01*
X97391011Y-131196101D01*
X97393740Y-131183260D01*
X97412312Y-131006565D01*
X97412312Y-130993435D01*
X97393740Y-130816739D01*
X97391011Y-130803898D01*
X97336111Y-130634933D01*
X97330764Y-130622926D01*
X97303429Y-130575579D01*
X97295626Y-130567248D01*
X97285932Y-130573276D01*
X96870938Y-130988271D01*
X96864167Y-130999999D01*
X96135832Y-130999999D01*
X96129060Y-130988270D01*
X95714067Y-130573277D01*
X95704372Y-130567248D01*
X95696570Y-130575578D01*
X95669234Y-130622927D01*
X95663889Y-130634933D01*
X95608988Y-130803898D01*
X95606259Y-130816739D01*
X95587688Y-130993435D01*
X95587688Y-131006565D01*
X95330028Y-131006565D01*
X95330384Y-131000000D01*
X95310861Y-130639922D01*
X95252521Y-130284066D01*
X95229875Y-130202502D01*
X96065652Y-130202502D01*
X96071657Y-130212447D01*
X96488270Y-130629060D01*
X96499999Y-130635832D01*
X96511730Y-130629059D01*
X96928343Y-130212445D01*
X96934347Y-130202502D01*
X96925178Y-130195370D01*
X96788159Y-130134366D01*
X96775680Y-130130311D01*
X96601892Y-130093372D01*
X96588832Y-130092000D01*
X96411168Y-130092000D01*
X96398107Y-130093372D01*
X96224326Y-130130310D01*
X96211833Y-130134369D01*
X96074823Y-130195369D01*
X96065652Y-130202502D01*
X95229875Y-130202502D01*
X95156049Y-129936603D01*
X95022575Y-129601608D01*
X94853663Y-129283008D01*
X94651296Y-128984537D01*
X94417844Y-128709697D01*
X94415373Y-128707356D01*
X94415368Y-128707351D01*
X94299397Y-128597497D01*
X94765652Y-128597497D01*
X94774820Y-128604628D01*
X94911841Y-128665634D01*
X94924319Y-128669688D01*
X95098107Y-128706627D01*
X95111168Y-128708000D01*
X95288832Y-128708000D01*
X95301892Y-128706627D01*
X95475680Y-128669688D01*
X95488158Y-128665634D01*
X95625177Y-128604628D01*
X95634346Y-128597497D01*
X95628341Y-128587551D01*
X95211729Y-128170939D01*
X95199999Y-128164167D01*
X95188271Y-128170938D01*
X94771657Y-128587551D01*
X94765652Y-128597497D01*
X94299397Y-128597497D01*
X94158529Y-128464060D01*
X94158519Y-128464051D01*
X94156045Y-128461708D01*
X93868968Y-128243478D01*
X93851136Y-128232749D01*
X93642040Y-128106940D01*
X93559980Y-128057566D01*
X93556882Y-128056132D01*
X93556875Y-128056129D01*
X93235800Y-127907584D01*
X93235795Y-127907582D01*
X93232702Y-127906151D01*
X93229473Y-127905063D01*
X93229468Y-127905061D01*
X92937142Y-127806565D01*
X94287688Y-127806565D01*
X94306259Y-127983260D01*
X94308988Y-127996101D01*
X94363888Y-128165066D01*
X94369235Y-128177074D01*
X94396570Y-128224419D01*
X94404372Y-128232750D01*
X94414065Y-128226723D01*
X94829059Y-127811730D01*
X94835832Y-127799999D01*
X95564167Y-127799999D01*
X95570939Y-127811729D01*
X95985929Y-128226719D01*
X95995626Y-128232749D01*
X96003429Y-128224418D01*
X96030770Y-128177064D01*
X96036108Y-128165074D01*
X96091011Y-127996101D01*
X96093740Y-127983260D01*
X96112312Y-127806565D01*
X96112312Y-127793435D01*
X96093740Y-127616739D01*
X96091011Y-127603898D01*
X96036111Y-127434933D01*
X96030764Y-127422926D01*
X96003429Y-127375579D01*
X95995626Y-127367248D01*
X95985932Y-127373276D01*
X95570938Y-127788271D01*
X95564167Y-127799999D01*
X94835832Y-127799999D01*
X94829060Y-127788270D01*
X94414067Y-127373277D01*
X94404372Y-127367248D01*
X94396570Y-127375578D01*
X94369234Y-127422927D01*
X94363889Y-127434933D01*
X94308988Y-127603898D01*
X94306259Y-127616739D01*
X94287688Y-127793435D01*
X94287688Y-127806565D01*
X92937142Y-127806565D01*
X92894208Y-127792099D01*
X92894202Y-127792097D01*
X92890972Y-127791009D01*
X92887647Y-127790277D01*
X92887636Y-127790274D01*
X92542127Y-127714222D01*
X92542123Y-127714221D01*
X92538796Y-127713489D01*
X92525591Y-127712052D01*
X92183701Y-127674869D01*
X92183690Y-127674868D01*
X92180303Y-127674500D01*
X91819697Y-127674500D01*
X91816310Y-127674868D01*
X91816298Y-127674869D01*
X91464596Y-127713120D01*
X91464594Y-127713120D01*
X91461204Y-127713489D01*
X91457879Y-127714220D01*
X91457872Y-127714222D01*
X91112363Y-127790274D01*
X91112347Y-127790278D01*
X91109028Y-127791009D01*
X91105802Y-127792095D01*
X91105791Y-127792099D01*
X90770531Y-127905061D01*
X90770519Y-127905065D01*
X90767298Y-127906151D01*
X90764210Y-127907579D01*
X90764199Y-127907584D01*
X90443124Y-128056129D01*
X90443110Y-128056136D01*
X90440020Y-128057566D01*
X90437094Y-128059326D01*
X90437093Y-128059327D01*
X90133964Y-128241713D01*
X90133952Y-128241720D01*
X90131032Y-128243478D01*
X90128316Y-128245541D01*
X90128308Y-128245548D01*
X89846674Y-128459641D01*
X89843955Y-128461708D01*
X89841489Y-128464043D01*
X89841470Y-128464060D01*
X89584631Y-128707351D01*
X89584616Y-128707366D01*
X89582156Y-128709697D01*
X89579959Y-128712283D01*
X89579950Y-128712293D01*
X89350911Y-128981938D01*
X89350905Y-128981944D01*
X89348704Y-128984537D01*
X89346796Y-128987351D01*
X89346790Y-128987359D01*
X89148255Y-129280178D01*
X89148248Y-129280188D01*
X89146337Y-129283008D01*
X89144742Y-129286015D01*
X89144735Y-129286028D01*
X88979021Y-129598596D01*
X88979015Y-129598608D01*
X88977425Y-129601608D01*
X88976166Y-129604765D01*
X88976163Y-129604774D01*
X88845216Y-129933427D01*
X88843951Y-129936603D01*
X88843039Y-129939884D01*
X88843035Y-129939899D01*
X88748391Y-130280777D01*
X88748386Y-130280797D01*
X88747479Y-130284066D01*
X88746928Y-130287421D01*
X88746927Y-130287430D01*
X88689690Y-130636560D01*
X88689139Y-130639922D01*
X88688955Y-130643311D01*
X88688954Y-130643323D01*
X88688811Y-130645964D01*
X88669616Y-131000000D01*
X88412312Y-131000000D01*
X88412312Y-130993435D01*
X88393740Y-130816739D01*
X88391011Y-130803898D01*
X88336111Y-130634933D01*
X88330764Y-130622926D01*
X88303429Y-130575579D01*
X88295626Y-130567248D01*
X88285932Y-130573276D01*
X87870938Y-130988271D01*
X87864167Y-130999999D01*
X87135832Y-130999999D01*
X87129060Y-130988270D01*
X86714067Y-130573277D01*
X86704372Y-130567248D01*
X86696570Y-130575578D01*
X86669234Y-130622927D01*
X86663889Y-130634933D01*
X86608988Y-130803898D01*
X86606259Y-130816739D01*
X86587688Y-130993435D01*
X86587688Y-131006565D01*
X47412312Y-131006565D01*
X47412312Y-130993435D01*
X47393740Y-130816739D01*
X47391011Y-130803898D01*
X47336111Y-130634933D01*
X47330764Y-130622926D01*
X47303429Y-130575579D01*
X47295626Y-130567248D01*
X47285932Y-130573276D01*
X46870938Y-130988271D01*
X46864167Y-130999999D01*
X46135832Y-130999999D01*
X46129060Y-130988270D01*
X45714067Y-130573277D01*
X45704372Y-130567248D01*
X45696570Y-130575578D01*
X45669234Y-130622927D01*
X45663889Y-130634933D01*
X45608988Y-130803898D01*
X45606259Y-130816739D01*
X45587688Y-130993435D01*
X45587688Y-131006565D01*
X45330028Y-131006565D01*
X45330384Y-131000000D01*
X45310861Y-130639922D01*
X45252521Y-130284066D01*
X45229875Y-130202502D01*
X46065652Y-130202502D01*
X46071657Y-130212447D01*
X46488270Y-130629060D01*
X46499999Y-130635832D01*
X46511730Y-130629059D01*
X46928343Y-130212445D01*
X46934347Y-130202502D01*
X87065652Y-130202502D01*
X87071657Y-130212447D01*
X87488270Y-130629060D01*
X87499999Y-130635832D01*
X87511730Y-130629059D01*
X87928343Y-130212445D01*
X87934347Y-130202502D01*
X87925178Y-130195370D01*
X87788159Y-130134366D01*
X87775680Y-130130311D01*
X87601892Y-130093372D01*
X87588832Y-130092000D01*
X87411168Y-130092000D01*
X87398107Y-130093372D01*
X87224326Y-130130310D01*
X87211833Y-130134369D01*
X87074823Y-130195369D01*
X87065652Y-130202502D01*
X46934347Y-130202502D01*
X46925178Y-130195370D01*
X46788159Y-130134366D01*
X46775680Y-130130311D01*
X46601892Y-130093372D01*
X46588832Y-130092000D01*
X46411168Y-130092000D01*
X46398107Y-130093372D01*
X46224326Y-130130310D01*
X46211833Y-130134369D01*
X46074823Y-130195369D01*
X46065652Y-130202502D01*
X45229875Y-130202502D01*
X45156049Y-129936603D01*
X45022575Y-129601608D01*
X44853663Y-129283008D01*
X44651296Y-128984537D01*
X44417844Y-128709697D01*
X44415373Y-128707356D01*
X44415368Y-128707351D01*
X44299397Y-128597497D01*
X44765652Y-128597497D01*
X44774820Y-128604628D01*
X44911841Y-128665634D01*
X44924319Y-128669688D01*
X45098107Y-128706627D01*
X45111168Y-128708000D01*
X45288832Y-128708000D01*
X45301892Y-128706627D01*
X45475680Y-128669688D01*
X45488158Y-128665634D01*
X45625177Y-128604628D01*
X45634346Y-128597497D01*
X88365652Y-128597497D01*
X88374820Y-128604628D01*
X88511841Y-128665634D01*
X88524319Y-128669688D01*
X88698107Y-128706627D01*
X88711168Y-128708000D01*
X88888832Y-128708000D01*
X88901892Y-128706627D01*
X89075680Y-128669688D01*
X89088158Y-128665634D01*
X89225177Y-128604628D01*
X89234346Y-128597497D01*
X89228341Y-128587551D01*
X88811729Y-128170939D01*
X88799999Y-128164167D01*
X88788271Y-128170938D01*
X88371657Y-128587551D01*
X88365652Y-128597497D01*
X45634346Y-128597497D01*
X45628341Y-128587551D01*
X45211729Y-128170939D01*
X45199999Y-128164167D01*
X45188271Y-128170938D01*
X44771657Y-128587551D01*
X44765652Y-128597497D01*
X44299397Y-128597497D01*
X44158529Y-128464060D01*
X44158519Y-128464051D01*
X44156045Y-128461708D01*
X43868968Y-128243478D01*
X43851136Y-128232749D01*
X43642040Y-128106940D01*
X43559980Y-128057566D01*
X43556882Y-128056132D01*
X43556875Y-128056129D01*
X43235800Y-127907584D01*
X43235795Y-127907582D01*
X43232702Y-127906151D01*
X43229473Y-127905063D01*
X43229468Y-127905061D01*
X42937142Y-127806565D01*
X44287688Y-127806565D01*
X44306259Y-127983260D01*
X44308988Y-127996101D01*
X44363888Y-128165066D01*
X44369235Y-128177074D01*
X44396570Y-128224419D01*
X44404372Y-128232750D01*
X44414065Y-128226723D01*
X44829059Y-127811730D01*
X44835832Y-127799999D01*
X45564167Y-127799999D01*
X45570939Y-127811729D01*
X45985929Y-128226719D01*
X45995626Y-128232749D01*
X46003429Y-128224418D01*
X46030770Y-128177064D01*
X46036108Y-128165074D01*
X46091011Y-127996101D01*
X46093740Y-127983260D01*
X46112312Y-127806565D01*
X87887688Y-127806565D01*
X87906259Y-127983260D01*
X87908988Y-127996101D01*
X87963888Y-128165066D01*
X87969235Y-128177074D01*
X87996570Y-128224419D01*
X88004372Y-128232750D01*
X88014065Y-128226723D01*
X88429059Y-127811730D01*
X88435832Y-127799999D01*
X89164167Y-127799999D01*
X89170939Y-127811729D01*
X89585929Y-128226719D01*
X89595626Y-128232749D01*
X89603429Y-128224418D01*
X89630770Y-128177064D01*
X89636108Y-128165074D01*
X89691011Y-127996101D01*
X89693740Y-127983260D01*
X89712312Y-127806565D01*
X89712312Y-127793435D01*
X89693740Y-127616739D01*
X89691011Y-127603898D01*
X89636111Y-127434933D01*
X89630764Y-127422926D01*
X89603429Y-127375579D01*
X89595626Y-127367248D01*
X89585932Y-127373276D01*
X89170938Y-127788271D01*
X89164167Y-127799999D01*
X88435832Y-127799999D01*
X88429060Y-127788270D01*
X88014067Y-127373277D01*
X88004372Y-127367248D01*
X87996570Y-127375578D01*
X87969234Y-127422927D01*
X87963889Y-127434933D01*
X87908988Y-127603898D01*
X87906259Y-127616739D01*
X87887688Y-127793435D01*
X87887688Y-127806565D01*
X46112312Y-127806565D01*
X46112312Y-127793435D01*
X46093740Y-127616739D01*
X46091011Y-127603898D01*
X46036111Y-127434933D01*
X46030764Y-127422926D01*
X46003429Y-127375579D01*
X45995626Y-127367248D01*
X45985932Y-127373276D01*
X45570938Y-127788271D01*
X45564167Y-127799999D01*
X44835832Y-127799999D01*
X44829060Y-127788270D01*
X44414067Y-127373277D01*
X44404372Y-127367248D01*
X44396570Y-127375578D01*
X44369234Y-127422927D01*
X44363889Y-127434933D01*
X44308988Y-127603898D01*
X44306259Y-127616739D01*
X44287688Y-127793435D01*
X44287688Y-127806565D01*
X42937142Y-127806565D01*
X42894208Y-127792099D01*
X42894202Y-127792097D01*
X42890972Y-127791009D01*
X42887647Y-127790277D01*
X42887636Y-127790274D01*
X42542127Y-127714222D01*
X42542123Y-127714221D01*
X42538796Y-127713489D01*
X42525591Y-127712052D01*
X42183701Y-127674869D01*
X42183690Y-127674868D01*
X42180303Y-127674500D01*
X41819697Y-127674500D01*
X41816310Y-127674868D01*
X41816298Y-127674869D01*
X41464596Y-127713120D01*
X41464594Y-127713120D01*
X41461204Y-127713489D01*
X41457879Y-127714220D01*
X41457872Y-127714222D01*
X41112363Y-127790274D01*
X41112347Y-127790278D01*
X41109028Y-127791009D01*
X41105802Y-127792095D01*
X41105791Y-127792099D01*
X40770531Y-127905061D01*
X40770519Y-127905065D01*
X40767298Y-127906151D01*
X40764210Y-127907579D01*
X40764199Y-127907584D01*
X40443124Y-128056129D01*
X40443110Y-128056136D01*
X40440020Y-128057566D01*
X40437094Y-128059326D01*
X40437093Y-128059327D01*
X40133964Y-128241713D01*
X40133952Y-128241720D01*
X40131032Y-128243478D01*
X40128316Y-128245541D01*
X40128308Y-128245548D01*
X39846674Y-128459641D01*
X39843955Y-128461708D01*
X39841489Y-128464043D01*
X39841470Y-128464060D01*
X39584631Y-128707351D01*
X39584616Y-128707366D01*
X39582156Y-128709697D01*
X39579959Y-128712283D01*
X39579950Y-128712293D01*
X39350911Y-128981938D01*
X39350905Y-128981944D01*
X39348704Y-128984537D01*
X39346796Y-128987351D01*
X39346790Y-128987359D01*
X39148255Y-129280178D01*
X39148248Y-129280188D01*
X39146337Y-129283008D01*
X39144742Y-129286015D01*
X39144735Y-129286028D01*
X38979021Y-129598596D01*
X38979015Y-129598608D01*
X38977425Y-129601608D01*
X38976166Y-129604765D01*
X38976163Y-129604774D01*
X38845216Y-129933427D01*
X38843951Y-129936603D01*
X38843039Y-129939884D01*
X38843035Y-129939899D01*
X38748391Y-130280777D01*
X38748386Y-130280797D01*
X38747479Y-130284066D01*
X38746928Y-130287421D01*
X38746927Y-130287430D01*
X38689690Y-130636560D01*
X38689139Y-130639922D01*
X38688955Y-130643311D01*
X38688954Y-130643323D01*
X38688811Y-130645964D01*
X38669616Y-131000000D01*
X38412312Y-131000000D01*
X38412312Y-130993435D01*
X38393740Y-130816739D01*
X38391011Y-130803898D01*
X38336111Y-130634933D01*
X38330764Y-130622926D01*
X38303429Y-130575579D01*
X38295626Y-130567248D01*
X38285932Y-130573276D01*
X37870938Y-130988271D01*
X37864167Y-130999999D01*
X37135832Y-130999999D01*
X37129060Y-130988270D01*
X36714067Y-130573277D01*
X36704372Y-130567248D01*
X36696570Y-130575578D01*
X36669234Y-130622927D01*
X36663889Y-130634933D01*
X36608988Y-130803898D01*
X36606259Y-130816739D01*
X36587688Y-130993435D01*
X36587688Y-131006565D01*
X17025500Y-131006565D01*
X17025500Y-130202502D01*
X37065652Y-130202502D01*
X37071657Y-130212447D01*
X37488270Y-130629060D01*
X37499999Y-130635832D01*
X37511730Y-130629059D01*
X37928343Y-130212445D01*
X37934347Y-130202502D01*
X37925178Y-130195370D01*
X37788159Y-130134366D01*
X37775680Y-130130311D01*
X37601892Y-130093372D01*
X37588832Y-130092000D01*
X37411168Y-130092000D01*
X37398107Y-130093372D01*
X37224326Y-130130310D01*
X37211833Y-130134369D01*
X37074823Y-130195369D01*
X37065652Y-130202502D01*
X17025500Y-130202502D01*
X17025500Y-128597497D01*
X38365652Y-128597497D01*
X38374820Y-128604628D01*
X38511841Y-128665634D01*
X38524319Y-128669688D01*
X38698107Y-128706627D01*
X38711168Y-128708000D01*
X38888832Y-128708000D01*
X38901892Y-128706627D01*
X39075680Y-128669688D01*
X39088158Y-128665634D01*
X39225177Y-128604628D01*
X39234346Y-128597497D01*
X39228341Y-128587551D01*
X38811729Y-128170939D01*
X38799999Y-128164167D01*
X38788271Y-128170938D01*
X38371657Y-128587551D01*
X38365652Y-128597497D01*
X17025500Y-128597497D01*
X17025500Y-127806565D01*
X37887688Y-127806565D01*
X37906259Y-127983260D01*
X37908988Y-127996101D01*
X37963888Y-128165066D01*
X37969235Y-128177074D01*
X37996570Y-128224419D01*
X38004372Y-128232750D01*
X38014065Y-128226723D01*
X38429059Y-127811730D01*
X38435832Y-127799999D01*
X39164167Y-127799999D01*
X39170939Y-127811729D01*
X39585929Y-128226719D01*
X39595626Y-128232749D01*
X39603429Y-128224418D01*
X39630770Y-128177064D01*
X39636108Y-128165074D01*
X39691011Y-127996101D01*
X39693740Y-127983260D01*
X39712312Y-127806565D01*
X39712312Y-127793435D01*
X39693740Y-127616739D01*
X39691011Y-127603898D01*
X39636111Y-127434933D01*
X39630764Y-127422926D01*
X39603429Y-127375579D01*
X39595626Y-127367248D01*
X39585932Y-127373276D01*
X39170938Y-127788271D01*
X39164167Y-127799999D01*
X38435832Y-127799999D01*
X38429060Y-127788270D01*
X38014067Y-127373277D01*
X38004372Y-127367248D01*
X37996570Y-127375578D01*
X37969234Y-127422927D01*
X37963889Y-127434933D01*
X37908988Y-127603898D01*
X37906259Y-127616739D01*
X37887688Y-127793435D01*
X37887688Y-127806565D01*
X17025500Y-127806565D01*
X17025500Y-127002502D01*
X38365652Y-127002502D01*
X38371657Y-127012447D01*
X38788270Y-127429060D01*
X38799999Y-127435832D01*
X38811730Y-127429059D01*
X38943292Y-127297497D01*
X41565652Y-127297497D01*
X41574820Y-127304628D01*
X41711841Y-127365634D01*
X41724319Y-127369688D01*
X41898107Y-127406627D01*
X41911168Y-127408000D01*
X42088832Y-127408000D01*
X42101892Y-127406627D01*
X42275680Y-127369688D01*
X42288158Y-127365634D01*
X42425177Y-127304628D01*
X42434346Y-127297497D01*
X42428341Y-127287551D01*
X42143292Y-127002502D01*
X44765652Y-127002502D01*
X44771657Y-127012447D01*
X45188270Y-127429060D01*
X45199999Y-127435832D01*
X45211730Y-127429059D01*
X45628343Y-127012445D01*
X45634347Y-127002502D01*
X88365652Y-127002502D01*
X88371657Y-127012447D01*
X88788270Y-127429060D01*
X88799999Y-127435832D01*
X88811730Y-127429059D01*
X88943292Y-127297497D01*
X91565652Y-127297497D01*
X91574820Y-127304628D01*
X91711841Y-127365634D01*
X91724319Y-127369688D01*
X91898107Y-127406627D01*
X91911168Y-127408000D01*
X92088832Y-127408000D01*
X92101892Y-127406627D01*
X92275680Y-127369688D01*
X92288158Y-127365634D01*
X92425177Y-127304628D01*
X92434346Y-127297497D01*
X92428341Y-127287551D01*
X92143292Y-127002502D01*
X94765652Y-127002502D01*
X94771657Y-127012447D01*
X95188270Y-127429060D01*
X95199999Y-127435832D01*
X95211730Y-127429059D01*
X95628343Y-127012445D01*
X95634347Y-127002502D01*
X95625178Y-126995370D01*
X95488159Y-126934366D01*
X95475680Y-126930311D01*
X95301892Y-126893372D01*
X95288832Y-126892000D01*
X95111168Y-126892000D01*
X95098107Y-126893372D01*
X94924326Y-126930310D01*
X94911833Y-126934369D01*
X94774823Y-126995369D01*
X94765652Y-127002502D01*
X92143292Y-127002502D01*
X92011729Y-126870939D01*
X91999999Y-126864167D01*
X91988271Y-126870938D01*
X91571657Y-127287551D01*
X91565652Y-127297497D01*
X88943292Y-127297497D01*
X89228343Y-127012445D01*
X89234347Y-127002502D01*
X89225178Y-126995370D01*
X89088159Y-126934366D01*
X89075680Y-126930311D01*
X88901892Y-126893372D01*
X88888832Y-126892000D01*
X88711168Y-126892000D01*
X88698107Y-126893372D01*
X88524326Y-126930310D01*
X88511833Y-126934369D01*
X88374823Y-126995369D01*
X88365652Y-127002502D01*
X45634347Y-127002502D01*
X45625178Y-126995370D01*
X45488159Y-126934366D01*
X45475680Y-126930311D01*
X45301892Y-126893372D01*
X45288832Y-126892000D01*
X45111168Y-126892000D01*
X45098107Y-126893372D01*
X44924326Y-126930310D01*
X44911833Y-126934369D01*
X44774823Y-126995369D01*
X44765652Y-127002502D01*
X42143292Y-127002502D01*
X42011729Y-126870939D01*
X41999999Y-126864167D01*
X41988271Y-126870938D01*
X41571657Y-127287551D01*
X41565652Y-127297497D01*
X38943292Y-127297497D01*
X39228343Y-127012445D01*
X39234347Y-127002502D01*
X39225178Y-126995370D01*
X39088159Y-126934366D01*
X39075680Y-126930311D01*
X38901892Y-126893372D01*
X38888832Y-126892000D01*
X38711168Y-126892000D01*
X38698107Y-126893372D01*
X38524326Y-126930310D01*
X38511833Y-126934369D01*
X38374823Y-126995369D01*
X38365652Y-127002502D01*
X17025500Y-127002502D01*
X17025500Y-126506565D01*
X41087688Y-126506565D01*
X41106259Y-126683260D01*
X41108988Y-126696101D01*
X41163888Y-126865066D01*
X41169235Y-126877074D01*
X41196570Y-126924419D01*
X41204372Y-126932750D01*
X41214065Y-126926723D01*
X41629059Y-126511730D01*
X41635832Y-126499999D01*
X42364167Y-126499999D01*
X42370939Y-126511729D01*
X42785929Y-126926719D01*
X42795626Y-126932749D01*
X42803429Y-126924418D01*
X42830770Y-126877064D01*
X42836108Y-126865074D01*
X42891011Y-126696101D01*
X42893740Y-126683260D01*
X42912312Y-126506565D01*
X91087688Y-126506565D01*
X91106259Y-126683260D01*
X91108988Y-126696101D01*
X91163888Y-126865066D01*
X91169235Y-126877074D01*
X91196570Y-126924419D01*
X91204372Y-126932750D01*
X91214065Y-126926723D01*
X91629059Y-126511730D01*
X91635832Y-126499999D01*
X92364167Y-126499999D01*
X92370939Y-126511729D01*
X92785929Y-126926719D01*
X92795626Y-126932749D01*
X92803429Y-126924418D01*
X92830770Y-126877064D01*
X92836108Y-126865074D01*
X92891011Y-126696101D01*
X92893740Y-126683260D01*
X92912312Y-126506565D01*
X92912312Y-126493435D01*
X92893740Y-126316739D01*
X92891011Y-126303898D01*
X92836111Y-126134933D01*
X92830764Y-126122926D01*
X92803429Y-126075579D01*
X92795626Y-126067248D01*
X92785932Y-126073276D01*
X92370938Y-126488271D01*
X92364167Y-126499999D01*
X91635832Y-126499999D01*
X91629060Y-126488270D01*
X91214067Y-126073277D01*
X91204372Y-126067248D01*
X91196570Y-126075578D01*
X91169234Y-126122927D01*
X91163889Y-126134933D01*
X91108988Y-126303898D01*
X91106259Y-126316739D01*
X91087688Y-126493435D01*
X91087688Y-126506565D01*
X42912312Y-126506565D01*
X42912312Y-126493435D01*
X42893740Y-126316739D01*
X42891011Y-126303898D01*
X42836111Y-126134933D01*
X42830764Y-126122926D01*
X42803429Y-126075579D01*
X42795626Y-126067248D01*
X42785932Y-126073276D01*
X42370938Y-126488271D01*
X42364167Y-126499999D01*
X41635832Y-126499999D01*
X41629060Y-126488270D01*
X41214067Y-126073277D01*
X41204372Y-126067248D01*
X41196570Y-126075578D01*
X41169234Y-126122927D01*
X41163889Y-126134933D01*
X41108988Y-126303898D01*
X41106259Y-126316739D01*
X41087688Y-126493435D01*
X41087688Y-126506565D01*
X17025500Y-126506565D01*
X17025500Y-125702502D01*
X41565652Y-125702502D01*
X41571657Y-125712447D01*
X41988270Y-126129060D01*
X41999999Y-126135832D01*
X42011730Y-126129059D01*
X42428343Y-125712445D01*
X42434347Y-125702502D01*
X91565652Y-125702502D01*
X91571657Y-125712447D01*
X91988270Y-126129060D01*
X91999999Y-126135832D01*
X92011730Y-126129059D01*
X92428343Y-125712445D01*
X92434347Y-125702502D01*
X92425178Y-125695370D01*
X92288159Y-125634366D01*
X92275680Y-125630311D01*
X92101892Y-125593372D01*
X92088832Y-125592000D01*
X91911168Y-125592000D01*
X91898107Y-125593372D01*
X91724326Y-125630310D01*
X91711833Y-125634369D01*
X91574823Y-125695369D01*
X91565652Y-125702502D01*
X42434347Y-125702502D01*
X42425178Y-125695370D01*
X42288159Y-125634366D01*
X42275680Y-125630311D01*
X42101892Y-125593372D01*
X42088832Y-125592000D01*
X41911168Y-125592000D01*
X41898107Y-125593372D01*
X41724326Y-125630310D01*
X41711833Y-125634369D01*
X41574823Y-125695369D01*
X41565652Y-125702502D01*
X17025500Y-125702502D01*
X17025500Y-90000000D01*
X38269712Y-90000000D01*
X38269874Y-90003194D01*
X38288688Y-90374189D01*
X38288689Y-90374204D01*
X38288851Y-90377387D01*
X38289334Y-90380541D01*
X38289335Y-90380549D01*
X38345588Y-90747752D01*
X38345590Y-90747763D01*
X38346071Y-90750901D01*
X38346865Y-90753968D01*
X38346868Y-90753982D01*
X38349455Y-90763972D01*
X38440786Y-91116711D01*
X38441886Y-91119681D01*
X38441891Y-91119697D01*
X38447738Y-91135483D01*
X38572023Y-91471061D01*
X38738435Y-91810316D01*
X38938316Y-92130995D01*
X39169614Y-92429807D01*
X39429955Y-92703686D01*
X39716668Y-92949821D01*
X39719274Y-92951634D01*
X39719282Y-92951641D01*
X39933997Y-93101086D01*
X40026812Y-93165687D01*
X40029603Y-93167236D01*
X40029606Y-93167238D01*
X40056580Y-93182210D01*
X40357203Y-93349070D01*
X40360123Y-93350323D01*
X40360127Y-93350325D01*
X40530826Y-93423577D01*
X40704451Y-93498086D01*
X41064994Y-93611206D01*
X41435131Y-93687272D01*
X41811064Y-93725500D01*
X42185736Y-93725500D01*
X42188936Y-93725500D01*
X42564869Y-93687272D01*
X42935006Y-93611206D01*
X43295549Y-93498086D01*
X43642797Y-93349070D01*
X43973188Y-93165687D01*
X44283332Y-92949821D01*
X44570045Y-92703686D01*
X44830386Y-92429807D01*
X45061684Y-92130995D01*
X45261565Y-91810316D01*
X45427977Y-91471061D01*
X45559214Y-91116711D01*
X45653929Y-90750901D01*
X45711149Y-90377387D01*
X45730288Y-90000000D01*
X88269712Y-90000000D01*
X88269874Y-90003194D01*
X88288688Y-90374189D01*
X88288689Y-90374204D01*
X88288851Y-90377387D01*
X88289334Y-90380541D01*
X88289335Y-90380549D01*
X88345588Y-90747752D01*
X88345590Y-90747763D01*
X88346071Y-90750901D01*
X88346865Y-90753968D01*
X88346868Y-90753982D01*
X88349455Y-90763972D01*
X88440786Y-91116711D01*
X88441886Y-91119681D01*
X88441891Y-91119697D01*
X88447738Y-91135483D01*
X88572023Y-91471061D01*
X88738435Y-91810316D01*
X88938316Y-92130995D01*
X89169614Y-92429807D01*
X89429955Y-92703686D01*
X89716668Y-92949821D01*
X89719274Y-92951634D01*
X89719282Y-92951641D01*
X89933997Y-93101086D01*
X90026812Y-93165687D01*
X90029603Y-93167236D01*
X90029606Y-93167238D01*
X90056580Y-93182210D01*
X90357203Y-93349070D01*
X90360123Y-93350323D01*
X90360127Y-93350325D01*
X90530826Y-93423577D01*
X90704451Y-93498086D01*
X91064994Y-93611206D01*
X91435131Y-93687272D01*
X91811064Y-93725500D01*
X92185736Y-93725500D01*
X92188936Y-93725500D01*
X92564869Y-93687272D01*
X92935006Y-93611206D01*
X93295549Y-93498086D01*
X93642797Y-93349070D01*
X93973188Y-93165687D01*
X94283332Y-92949821D01*
X94570045Y-92703686D01*
X94830386Y-92429807D01*
X95061684Y-92130995D01*
X95261565Y-91810316D01*
X95427977Y-91471061D01*
X95559214Y-91116711D01*
X95653929Y-90750901D01*
X95711149Y-90377387D01*
X95730288Y-90000000D01*
X95711149Y-89622613D01*
X95653929Y-89249099D01*
X95559214Y-88883289D01*
X95427977Y-88528939D01*
X95261565Y-88189684D01*
X95061684Y-87869005D01*
X94830386Y-87570193D01*
X94570045Y-87296314D01*
X94567630Y-87294241D01*
X94567625Y-87294236D01*
X94285746Y-87052251D01*
X94285741Y-87052247D01*
X94283332Y-87050179D01*
X94280728Y-87048367D01*
X94280717Y-87048358D01*
X93975813Y-86836140D01*
X93975812Y-86836139D01*
X93973188Y-86834313D01*
X93970402Y-86832766D01*
X93970393Y-86832761D01*
X93645580Y-86652474D01*
X93645569Y-86652468D01*
X93642797Y-86650930D01*
X93639884Y-86649680D01*
X93639872Y-86649674D01*
X93298472Y-86503168D01*
X93298465Y-86503165D01*
X93295549Y-86501914D01*
X92935006Y-86388794D01*
X92931880Y-86388151D01*
X92931874Y-86388150D01*
X92567993Y-86313370D01*
X92567992Y-86313369D01*
X92564869Y-86312728D01*
X92561705Y-86312406D01*
X92561697Y-86312405D01*
X92192115Y-86274823D01*
X92192109Y-86274822D01*
X92188936Y-86274500D01*
X91811064Y-86274500D01*
X91807891Y-86274822D01*
X91807884Y-86274823D01*
X91438302Y-86312405D01*
X91438291Y-86312406D01*
X91435131Y-86312728D01*
X91432010Y-86313369D01*
X91432006Y-86313370D01*
X91068125Y-86388150D01*
X91068114Y-86388152D01*
X91064994Y-86388794D01*
X91061947Y-86389749D01*
X91061943Y-86389751D01*
X90707487Y-86500961D01*
X90707478Y-86500963D01*
X90704451Y-86501914D01*
X90701540Y-86503163D01*
X90701527Y-86503168D01*
X90360127Y-86649674D01*
X90360107Y-86649683D01*
X90357203Y-86650930D01*
X90354438Y-86652464D01*
X90354419Y-86652474D01*
X90029606Y-86832761D01*
X90029588Y-86832771D01*
X90026812Y-86834313D01*
X90024196Y-86836133D01*
X90024186Y-86836140D01*
X89719282Y-87048358D01*
X89719261Y-87048373D01*
X89716668Y-87050179D01*
X89714267Y-87052239D01*
X89714253Y-87052251D01*
X89432374Y-87294236D01*
X89432359Y-87294249D01*
X89429955Y-87296314D01*
X89427769Y-87298613D01*
X89427756Y-87298626D01*
X89171810Y-87567882D01*
X89171802Y-87567890D01*
X89169614Y-87570193D01*
X89167669Y-87572705D01*
X89167661Y-87572715D01*
X88940266Y-87866485D01*
X88940260Y-87866493D01*
X88938316Y-87869005D01*
X88936638Y-87871695D01*
X88936631Y-87871707D01*
X88755223Y-88162750D01*
X88738435Y-88189684D01*
X88737032Y-88192543D01*
X88737026Y-88192555D01*
X88573429Y-88526072D01*
X88572023Y-88528939D01*
X88570918Y-88531920D01*
X88570916Y-88531927D01*
X88441891Y-88880302D01*
X88441884Y-88880324D01*
X88440786Y-88883289D01*
X88439989Y-88886363D01*
X88439987Y-88886373D01*
X88346868Y-89246017D01*
X88346864Y-89246035D01*
X88346071Y-89249099D01*
X88345590Y-89252232D01*
X88345588Y-89252247D01*
X88289335Y-89619450D01*
X88289333Y-89619460D01*
X88288851Y-89622613D01*
X88288689Y-89625793D01*
X88288688Y-89625810D01*
X88270253Y-89989319D01*
X88269712Y-90000000D01*
X45730288Y-90000000D01*
X45711149Y-89622613D01*
X45653929Y-89249099D01*
X45559214Y-88883289D01*
X45427977Y-88528939D01*
X45261565Y-88189684D01*
X45061684Y-87869005D01*
X44830386Y-87570193D01*
X44570045Y-87296314D01*
X44567630Y-87294241D01*
X44567625Y-87294236D01*
X44285746Y-87052251D01*
X44285741Y-87052247D01*
X44283332Y-87050179D01*
X44280728Y-87048367D01*
X44280717Y-87048358D01*
X43975813Y-86836140D01*
X43975812Y-86836139D01*
X43973188Y-86834313D01*
X43970402Y-86832766D01*
X43970393Y-86832761D01*
X43645580Y-86652474D01*
X43645569Y-86652468D01*
X43642797Y-86650930D01*
X43639884Y-86649680D01*
X43639872Y-86649674D01*
X43298472Y-86503168D01*
X43298465Y-86503165D01*
X43295549Y-86501914D01*
X42935006Y-86388794D01*
X42931880Y-86388151D01*
X42931874Y-86388150D01*
X42567993Y-86313370D01*
X42567992Y-86313369D01*
X42564869Y-86312728D01*
X42561705Y-86312406D01*
X42561697Y-86312405D01*
X42192115Y-86274823D01*
X42192109Y-86274822D01*
X42188936Y-86274500D01*
X41811064Y-86274500D01*
X41807891Y-86274822D01*
X41807884Y-86274823D01*
X41438302Y-86312405D01*
X41438291Y-86312406D01*
X41435131Y-86312728D01*
X41432010Y-86313369D01*
X41432006Y-86313370D01*
X41068125Y-86388150D01*
X41068114Y-86388152D01*
X41064994Y-86388794D01*
X41061947Y-86389749D01*
X41061943Y-86389751D01*
X40707487Y-86500961D01*
X40707478Y-86500963D01*
X40704451Y-86501914D01*
X40701540Y-86503163D01*
X40701527Y-86503168D01*
X40360127Y-86649674D01*
X40360107Y-86649683D01*
X40357203Y-86650930D01*
X40354438Y-86652464D01*
X40354419Y-86652474D01*
X40029606Y-86832761D01*
X40029588Y-86832771D01*
X40026812Y-86834313D01*
X40024196Y-86836133D01*
X40024186Y-86836140D01*
X39719282Y-87048358D01*
X39719261Y-87048373D01*
X39716668Y-87050179D01*
X39714267Y-87052239D01*
X39714253Y-87052251D01*
X39432374Y-87294236D01*
X39432359Y-87294249D01*
X39429955Y-87296314D01*
X39427769Y-87298613D01*
X39427756Y-87298626D01*
X39171810Y-87567882D01*
X39171802Y-87567890D01*
X39169614Y-87570193D01*
X39167669Y-87572705D01*
X39167661Y-87572715D01*
X38940266Y-87866485D01*
X38940260Y-87866493D01*
X38938316Y-87869005D01*
X38936638Y-87871695D01*
X38936631Y-87871707D01*
X38755223Y-88162750D01*
X38738435Y-88189684D01*
X38737032Y-88192543D01*
X38737026Y-88192555D01*
X38573429Y-88526072D01*
X38572023Y-88528939D01*
X38570918Y-88531920D01*
X38570916Y-88531927D01*
X38441891Y-88880302D01*
X38441884Y-88880324D01*
X38440786Y-88883289D01*
X38439989Y-88886363D01*
X38439987Y-88886373D01*
X38346868Y-89246017D01*
X38346864Y-89246035D01*
X38346071Y-89249099D01*
X38345590Y-89252232D01*
X38345588Y-89252247D01*
X38289335Y-89619450D01*
X38289333Y-89619460D01*
X38288851Y-89622613D01*
X38288689Y-89625793D01*
X38288688Y-89625810D01*
X38270253Y-89989319D01*
X38269712Y-90000000D01*
X17025500Y-90000000D01*
X17025500Y-46000000D01*
X38269712Y-46000000D01*
X38269874Y-46003194D01*
X38288688Y-46374189D01*
X38288689Y-46374204D01*
X38288851Y-46377387D01*
X38289334Y-46380541D01*
X38289335Y-46380549D01*
X38345588Y-46747752D01*
X38345590Y-46747763D01*
X38346071Y-46750901D01*
X38346865Y-46753968D01*
X38346868Y-46753982D01*
X38349455Y-46763972D01*
X38440786Y-47116711D01*
X38441886Y-47119681D01*
X38441891Y-47119697D01*
X38447738Y-47135483D01*
X38572023Y-47471061D01*
X38738435Y-47810316D01*
X38938316Y-48130995D01*
X39169614Y-48429807D01*
X39429955Y-48703686D01*
X39716668Y-48949821D01*
X39719274Y-48951634D01*
X39719282Y-48951641D01*
X39933997Y-49101086D01*
X40026812Y-49165687D01*
X40029603Y-49167236D01*
X40029606Y-49167238D01*
X40056580Y-49182210D01*
X40357203Y-49349070D01*
X40360123Y-49350323D01*
X40360127Y-49350325D01*
X40530827Y-49423578D01*
X40704451Y-49498086D01*
X41064994Y-49611206D01*
X41435131Y-49687272D01*
X41811064Y-49725500D01*
X42185736Y-49725500D01*
X42188936Y-49725500D01*
X42564869Y-49687272D01*
X42935006Y-49611206D01*
X43295549Y-49498086D01*
X43642797Y-49349070D01*
X43973188Y-49165687D01*
X44283332Y-48949821D01*
X44570045Y-48703686D01*
X44830386Y-48429807D01*
X45061684Y-48130995D01*
X45261565Y-47810316D01*
X45427977Y-47471061D01*
X45559214Y-47116711D01*
X45653929Y-46750901D01*
X45711149Y-46377387D01*
X45730288Y-46000000D01*
X88269712Y-46000000D01*
X88269874Y-46003194D01*
X88288688Y-46374189D01*
X88288689Y-46374204D01*
X88288851Y-46377387D01*
X88289334Y-46380541D01*
X88289335Y-46380549D01*
X88345588Y-46747752D01*
X88345590Y-46747763D01*
X88346071Y-46750901D01*
X88346865Y-46753968D01*
X88346868Y-46753982D01*
X88349455Y-46763972D01*
X88440786Y-47116711D01*
X88441886Y-47119681D01*
X88441891Y-47119697D01*
X88447738Y-47135483D01*
X88572023Y-47471061D01*
X88738435Y-47810316D01*
X88938316Y-48130995D01*
X89169614Y-48429807D01*
X89429955Y-48703686D01*
X89716668Y-48949821D01*
X89719274Y-48951634D01*
X89719282Y-48951641D01*
X89933997Y-49101086D01*
X90026812Y-49165687D01*
X90029603Y-49167236D01*
X90029606Y-49167238D01*
X90056580Y-49182210D01*
X90357203Y-49349070D01*
X90360123Y-49350323D01*
X90360127Y-49350325D01*
X90530827Y-49423578D01*
X90704451Y-49498086D01*
X91064994Y-49611206D01*
X91435131Y-49687272D01*
X91811064Y-49725500D01*
X92185736Y-49725500D01*
X92188936Y-49725500D01*
X92564869Y-49687272D01*
X92935006Y-49611206D01*
X93295549Y-49498086D01*
X93642797Y-49349070D01*
X93973188Y-49165687D01*
X94283332Y-48949821D01*
X94570045Y-48703686D01*
X94830386Y-48429807D01*
X95061684Y-48130995D01*
X95261565Y-47810316D01*
X95427977Y-47471061D01*
X95559214Y-47116711D01*
X95653929Y-46750901D01*
X95711149Y-46377387D01*
X95730288Y-46000000D01*
X95711149Y-45622613D01*
X95653929Y-45249099D01*
X95559214Y-44883289D01*
X95427977Y-44528939D01*
X95261565Y-44189684D01*
X95061684Y-43869005D01*
X94830386Y-43570193D01*
X94570045Y-43296314D01*
X94567630Y-43294241D01*
X94567625Y-43294236D01*
X94285746Y-43052251D01*
X94285741Y-43052247D01*
X94283332Y-43050179D01*
X94280728Y-43048367D01*
X94280717Y-43048358D01*
X93975813Y-42836140D01*
X93975812Y-42836139D01*
X93973188Y-42834313D01*
X93970402Y-42832766D01*
X93970393Y-42832761D01*
X93645580Y-42652474D01*
X93645569Y-42652468D01*
X93642797Y-42650930D01*
X93639884Y-42649680D01*
X93639872Y-42649674D01*
X93298472Y-42503168D01*
X93298465Y-42503165D01*
X93295549Y-42501914D01*
X92935006Y-42388794D01*
X92931880Y-42388151D01*
X92931874Y-42388150D01*
X92567993Y-42313370D01*
X92567992Y-42313369D01*
X92564869Y-42312728D01*
X92561705Y-42312406D01*
X92561697Y-42312405D01*
X92192115Y-42274823D01*
X92192109Y-42274822D01*
X92188936Y-42274500D01*
X91811064Y-42274500D01*
X91807891Y-42274822D01*
X91807884Y-42274823D01*
X91438302Y-42312405D01*
X91438291Y-42312406D01*
X91435131Y-42312728D01*
X91432010Y-42313369D01*
X91432006Y-42313370D01*
X91068125Y-42388150D01*
X91068114Y-42388152D01*
X91064994Y-42388794D01*
X91061947Y-42389749D01*
X91061943Y-42389751D01*
X90707487Y-42500961D01*
X90707478Y-42500963D01*
X90704451Y-42501914D01*
X90701540Y-42503163D01*
X90701527Y-42503168D01*
X90360127Y-42649674D01*
X90360107Y-42649683D01*
X90357203Y-42650930D01*
X90354438Y-42652464D01*
X90354419Y-42652474D01*
X90029606Y-42832761D01*
X90029588Y-42832771D01*
X90026812Y-42834313D01*
X90024196Y-42836133D01*
X90024186Y-42836140D01*
X89719282Y-43048358D01*
X89719261Y-43048373D01*
X89716668Y-43050179D01*
X89714267Y-43052239D01*
X89714253Y-43052251D01*
X89432374Y-43294236D01*
X89432359Y-43294249D01*
X89429955Y-43296314D01*
X89427769Y-43298613D01*
X89427756Y-43298626D01*
X89171810Y-43567882D01*
X89171802Y-43567890D01*
X89169614Y-43570193D01*
X89167669Y-43572705D01*
X89167661Y-43572715D01*
X88940266Y-43866485D01*
X88940260Y-43866493D01*
X88938316Y-43869005D01*
X88936638Y-43871695D01*
X88936631Y-43871707D01*
X88755223Y-44162750D01*
X88738435Y-44189684D01*
X88737032Y-44192543D01*
X88737026Y-44192555D01*
X88573429Y-44526072D01*
X88572023Y-44528939D01*
X88570918Y-44531920D01*
X88570916Y-44531927D01*
X88441891Y-44880302D01*
X88441884Y-44880324D01*
X88440786Y-44883289D01*
X88439989Y-44886363D01*
X88439987Y-44886373D01*
X88346868Y-45246017D01*
X88346864Y-45246035D01*
X88346071Y-45249099D01*
X88345590Y-45252232D01*
X88345588Y-45252247D01*
X88289335Y-45619450D01*
X88289333Y-45619460D01*
X88288851Y-45622613D01*
X88288689Y-45625793D01*
X88288688Y-45625810D01*
X88270253Y-45989319D01*
X88269712Y-46000000D01*
X45730288Y-46000000D01*
X45711149Y-45622613D01*
X45653929Y-45249099D01*
X45559214Y-44883289D01*
X45427977Y-44528939D01*
X45261565Y-44189684D01*
X45061684Y-43869005D01*
X44830386Y-43570193D01*
X44570045Y-43296314D01*
X44567630Y-43294241D01*
X44567625Y-43294236D01*
X44285746Y-43052251D01*
X44285741Y-43052247D01*
X44283332Y-43050179D01*
X44280728Y-43048367D01*
X44280717Y-43048358D01*
X43975813Y-42836140D01*
X43975812Y-42836139D01*
X43973188Y-42834313D01*
X43970402Y-42832766D01*
X43970393Y-42832761D01*
X43645580Y-42652474D01*
X43645569Y-42652468D01*
X43642797Y-42650930D01*
X43639884Y-42649680D01*
X43639872Y-42649674D01*
X43298472Y-42503168D01*
X43298465Y-42503165D01*
X43295549Y-42501914D01*
X42935006Y-42388794D01*
X42931880Y-42388151D01*
X42931874Y-42388150D01*
X42567993Y-42313370D01*
X42567992Y-42313369D01*
X42564869Y-42312728D01*
X42561705Y-42312406D01*
X42561697Y-42312405D01*
X42192115Y-42274823D01*
X42192109Y-42274822D01*
X42188936Y-42274500D01*
X41811064Y-42274500D01*
X41807891Y-42274822D01*
X41807884Y-42274823D01*
X41438302Y-42312405D01*
X41438291Y-42312406D01*
X41435131Y-42312728D01*
X41432010Y-42313369D01*
X41432006Y-42313370D01*
X41068125Y-42388150D01*
X41068114Y-42388152D01*
X41064994Y-42388794D01*
X41061947Y-42389749D01*
X41061943Y-42389751D01*
X40707487Y-42500961D01*
X40707478Y-42500963D01*
X40704451Y-42501914D01*
X40701540Y-42503163D01*
X40701527Y-42503168D01*
X40360127Y-42649674D01*
X40360107Y-42649683D01*
X40357203Y-42650930D01*
X40354438Y-42652464D01*
X40354419Y-42652474D01*
X40029606Y-42832761D01*
X40029588Y-42832771D01*
X40026812Y-42834313D01*
X40024196Y-42836133D01*
X40024186Y-42836140D01*
X39719282Y-43048358D01*
X39719261Y-43048373D01*
X39716668Y-43050179D01*
X39714267Y-43052239D01*
X39714253Y-43052251D01*
X39432374Y-43294236D01*
X39432359Y-43294249D01*
X39429955Y-43296314D01*
X39427769Y-43298613D01*
X39427756Y-43298626D01*
X39171810Y-43567882D01*
X39171802Y-43567890D01*
X39169614Y-43570193D01*
X39167669Y-43572705D01*
X39167661Y-43572715D01*
X38940266Y-43866485D01*
X38940260Y-43866493D01*
X38938316Y-43869005D01*
X38936638Y-43871695D01*
X38936631Y-43871707D01*
X38755223Y-44162750D01*
X38738435Y-44189684D01*
X38737032Y-44192543D01*
X38737026Y-44192555D01*
X38573429Y-44526072D01*
X38572023Y-44528939D01*
X38570918Y-44531920D01*
X38570916Y-44531927D01*
X38441891Y-44880302D01*
X38441884Y-44880324D01*
X38440786Y-44883289D01*
X38439989Y-44886363D01*
X38439987Y-44886373D01*
X38346868Y-45246017D01*
X38346864Y-45246035D01*
X38346071Y-45249099D01*
X38345590Y-45252232D01*
X38345588Y-45252247D01*
X38289335Y-45619450D01*
X38289333Y-45619460D01*
X38288851Y-45622613D01*
X38288689Y-45625793D01*
X38288688Y-45625810D01*
X38270253Y-45989319D01*
X38269712Y-46000000D01*
X17025500Y-46000000D01*
X17025500Y-6151500D01*
X17042381Y-6088500D01*
X17088500Y-6042381D01*
X17151500Y-6025500D01*
X116848500Y-6025500D01*
X116911500Y-6042381D01*
G37*
%TD.AperFunction*%
%TD*%
M02*
