%TF.GenerationSoftware,KiCad,Pcbnew,7.0.0-da2b9df05c~163~ubuntu22.04.1*%
%TF.CreationDate,2023-02-21T20:49:05-05:00*%
%TF.ProjectId,mfos_vca-panel,6d666f73-5f76-4636-912d-70616e656c2e,rev?*%
%TF.SameCoordinates,Original*%
%TF.FileFunction,Legend,Bot*%
%TF.FilePolarity,Positive*%
%FSLAX46Y46*%
G04 Gerber Fmt 4.6, Leading zero omitted, Abs format (unit mm)*
G04 Created by KiCad (PCBNEW 7.0.0-da2b9df05c~163~ubuntu22.04.1) date 2023-02-21 20:49:05*
%MOMM*%
%LPD*%
G01*
G04 APERTURE LIST*
G04 Aperture macros list*
%AMFreePoly0*
4,1,139,5.398598,5.455452,5.858736,5.376554,6.310525,5.258917,6.750711,5.103390,7.176121,4.911092,7.583690,4.683410,7.970482,4.421984,8.333711,4.128698,8.670759,3.805664,8.979197,3.455210,9.256803,3.079861,9.501578,2.682322,9.711757,2.265457,9.885826,1.832269,10.022531,1.385879,10.120888,0.929505,10.180186,0.466433,10.200000,0.000000,10.180186,-0.466433,10.120888,-0.929505,
10.022531,-1.385879,9.885826,-1.832269,9.711757,-2.265457,9.501578,-2.682322,9.256803,-3.079861,8.979197,-3.455210,8.670759,-3.805664,8.333711,-4.128698,7.970482,-4.421984,7.583690,-4.683410,7.176121,-4.911092,6.750711,-5.103390,6.310525,-5.258917,5.858736,-5.376554,5.398598,-5.455452,4.933427,-5.495044,4.466573,-5.495044,4.001402,-5.455452,3.541264,-5.376554,3.089475,-5.258917,
2.649289,-5.103390,2.223879,-4.911092,1.816310,-4.683410,1.429518,-4.421984,1.066289,-4.128698,0.729241,-3.805664,0.420803,-3.455210,0.143197,-3.079861,-0.101578,-2.682322,-0.311757,-2.265457,-0.485826,-1.832269,-0.622531,-1.385879,-0.720888,-0.929505,-0.780186,-0.466433,-0.800000,0.000000,0.794988,0.000000,0.815023,-0.395064,0.874924,-0.786073,0.974075,-1.169017,1.111459,-1.539964,
1.285666,-1.895110,1.494909,-2.230809,1.737040,-2.543617,2.009576,-2.830325,2.309719,-3.087989,2.634389,-3.313966,2.980256,-3.505938,3.343769,-3.661933,3.721199,-3.780353,4.108673,-3.859981,4.502214,-3.900000,4.897786,-3.900000,5.291327,-3.859981,5.678801,-3.780353,6.056231,-3.661933,6.419744,-3.505938,6.765611,-3.313966,7.090281,-3.087989,7.390424,-2.830325,7.662960,-2.543617,
7.905091,-2.230809,8.114334,-1.895110,8.288541,-1.539964,8.425925,-1.169017,8.525076,-0.786073,8.584977,-0.395064,8.605012,0.000000,8.584977,0.395064,8.525076,0.786073,8.425925,1.169017,8.288541,1.539964,8.114334,1.895110,7.905091,2.230809,7.662960,2.543617,7.390424,2.830325,7.090281,3.087989,6.765611,3.313966,6.419744,3.505938,6.056231,3.661933,5.678801,3.780353,
5.291327,3.859981,4.897786,3.900000,4.502214,3.900000,4.108673,3.859981,3.721199,3.780353,3.343769,3.661933,2.980256,3.505938,2.634389,3.313966,2.309719,3.087989,2.009576,2.830325,1.737040,2.543617,1.494909,2.230809,1.285666,1.895110,1.111459,1.539964,0.974075,1.169017,0.874924,0.786073,0.815023,0.395064,0.794988,0.000000,-0.800000,0.000000,-0.780186,0.466433,
-0.720888,0.929505,-0.622531,1.385879,-0.485826,1.832269,-0.311757,2.265457,-0.101578,2.682322,0.143197,3.079861,0.420803,3.455210,0.729241,3.805664,1.066289,4.128698,1.429518,4.421984,1.816310,4.683410,2.223879,4.911092,2.649289,5.103390,3.089475,5.258917,3.541264,5.376554,4.001402,5.455452,4.466573,5.495044,4.933427,5.495044,5.398598,5.455452,5.398598,5.455452,
$1*%
%AMFreePoly1*
4,1,137,5.198598,5.455452,5.658736,5.376554,6.110525,5.258917,6.550711,5.103390,6.976121,4.911092,7.383690,4.683410,7.770482,4.421984,8.133711,4.128698,8.470759,3.805664,8.779197,3.455210,9.056803,3.079861,9.301578,2.682322,9.511757,2.265457,9.685826,1.832269,9.822531,1.385879,9.920888,0.929505,9.980186,0.466433,10.000000,0.000000,9.980186,-0.466433,9.920888,-0.929505,
9.822531,-1.385879,9.685826,-1.832269,9.511757,-2.265457,9.301578,-2.682322,9.056803,-3.079861,8.779197,-3.455210,8.470759,-3.805664,8.133711,-4.128698,7.770482,-4.421984,7.383690,-4.683410,6.976121,-4.911092,6.550711,-5.103390,6.110525,-5.258917,5.658736,-5.376554,5.198598,-5.455452,4.733427,-5.495044,4.266573,-5.495044,3.801402,-5.455452,3.341264,-5.376554,2.889475,-5.258917,
2.449289,-5.103390,2.023879,-4.911092,1.616310,-4.683410,1.229518,-4.421984,0.866289,-4.128698,0.529241,-3.805664,0.220803,-3.455210,-0.056803,-3.079861,-0.301578,-2.682322,-0.511757,-2.265457,-0.685826,-1.832269,-0.822531,-1.385879,-0.920888,-0.929505,-0.980186,-0.466433,-1.000000,0.000000,0.995197,0.000000,1.014397,-0.366352,1.071785,-0.728690,1.166734,-1.083044,1.298203,-1.425532,
1.464752,-1.752402,1.664555,-2.060072,1.895424,-2.345171,2.154829,-2.604576,2.439928,-2.835445,2.747598,-3.035248,3.074468,-3.201797,3.416956,-3.333266,3.771310,-3.428215,4.133648,-3.485603,4.500000,-3.504803,4.866352,-3.485603,5.228690,-3.428215,5.583044,-3.333266,5.925532,-3.201797,6.252402,-3.035248,6.560072,-2.835445,6.845171,-2.604576,7.104576,-2.345171,7.335445,-2.060072,
7.535248,-1.752402,7.701797,-1.425532,7.833266,-1.083044,7.928215,-0.728690,7.985603,-0.366352,8.004803,0.000000,7.985603,0.366352,7.928215,0.728690,7.833266,1.083044,7.701797,1.425532,7.535248,1.752401,7.335445,2.060072,7.104576,2.345171,6.845171,2.604576,6.560072,2.835445,6.252402,3.035248,5.925532,3.201797,5.583044,3.333266,5.228690,3.428215,4.866352,3.485603,
4.500000,3.504803,4.133648,3.485603,3.771310,3.428215,3.416956,3.333266,3.074468,3.201797,2.747599,3.035248,2.439928,2.835445,2.154829,2.604576,1.895424,2.345171,1.664555,2.060072,1.464752,1.752401,1.298203,1.425532,1.166734,1.083044,1.071785,0.728690,1.014397,0.366352,0.995197,0.000000,-1.000000,0.000000,-0.980186,0.466433,-0.920888,0.929505,-0.822531,1.385879,
-0.685826,1.832269,-0.511757,2.265457,-0.301578,2.682322,-0.056803,3.079861,0.220803,3.455210,0.529241,3.805664,0.866289,4.128698,1.229518,4.421984,1.616310,4.683410,2.023879,4.911092,2.449289,5.103390,2.889475,5.258917,3.341264,5.376554,3.801402,5.455452,4.266573,5.495044,4.733427,5.495044,5.198598,5.455452,5.198598,5.455452,$1*%
%AMFreePoly2*
4,1,159,6.626847,7.030287,7.150748,6.971257,7.668773,6.873242,8.178024,6.736788,8.675654,6.562660,9.158880,6.351831,9.625000,6.105479,10.071406,5.824983,10.495603,5.511912,10.895218,5.168016,11.268016,4.795218,11.611912,4.395603,11.924983,3.971406,12.205479,3.525000,12.451831,3.058880,12.662660,2.575654,12.836788,2.078024,12.973242,1.568773,13.071257,1.050748,13.130287,0.526847,
13.150000,0.000000,13.130287,-0.526847,13.071257,-1.050748,12.973242,-1.568773,12.836788,-2.078024,12.662660,-2.575654,12.451831,-3.058880,12.205479,-3.525000,11.924983,-3.971406,11.611912,-4.395603,11.268016,-4.795218,10.895218,-5.168016,10.495603,-5.511912,10.071406,-5.824983,9.625000,-6.105479,9.158880,-6.351831,8.675654,-6.562660,8.178024,-6.736788,7.668773,-6.873242,7.150748,-6.971257,
6.626847,-7.030287,6.100000,-7.050000,5.573153,-7.030287,5.049252,-6.971257,4.531227,-6.873242,4.021976,-6.736788,3.524346,-6.562660,3.041120,-6.351831,2.575000,-6.105479,2.128594,-5.824983,1.704397,-5.511912,1.304782,-5.168016,0.931984,-4.795218,0.588088,-4.395603,0.275017,-3.971406,-0.005479,-3.525000,-0.251831,-3.058880,-0.462660,-2.575654,-0.636788,-2.078024,-0.773242,-1.568773,
-0.871257,-1.050748,-0.930287,-0.526847,-0.950000,0.000000,0.945094,0.000000,0.964710,-0.449280,1.023409,-0.895140,1.120743,-1.334188,1.255973,-1.763082,1.428069,-2.178557,1.635720,-2.577453,1.877348,-2.956733,2.151113,-3.313510,2.454931,-3.645069,2.786490,-3.948887,3.143267,-4.222652,3.522547,-4.464280,3.921443,-4.671931,4.336918,-4.844027,4.765812,-4.979257,5.204860,-5.076591,
5.650720,-5.135290,6.100000,-5.154906,6.549280,-5.135290,6.995140,-5.076591,7.434188,-4.979257,7.863082,-4.844027,8.278557,-4.671931,8.677453,-4.464280,9.056733,-4.222652,9.413510,-3.948887,9.745069,-3.645069,10.048887,-3.313510,10.322652,-2.956733,10.564280,-2.577453,10.771931,-2.178557,10.944027,-1.763082,11.079257,-1.334188,11.176591,-0.895140,11.235290,-0.449280,11.254906,0.000000,
11.235290,0.449280,11.176591,0.895140,11.079257,1.334188,10.944027,1.763082,10.771931,2.178557,10.564280,2.577453,10.322652,2.956733,10.048887,3.313510,9.745069,3.645069,9.413510,3.948887,9.056733,4.222652,8.677453,4.464280,8.278557,4.671931,7.863082,4.844027,7.434188,4.979257,6.995140,5.076591,6.549280,5.135290,6.100000,5.154906,5.650720,5.135290,5.204860,5.076591,
4.765812,4.979257,4.336918,4.844027,3.921443,4.671931,3.522547,4.464280,3.143267,4.222652,2.786490,3.948887,2.454931,3.645069,2.151113,3.313510,1.877348,2.956733,1.635720,2.577453,1.428069,2.178557,1.255973,1.763082,1.120743,1.334188,1.023409,0.895140,0.964710,0.449280,0.945094,0.000000,-0.950000,0.000000,-0.930287,0.526847,-0.871257,1.050748,-0.773242,1.568773,
-0.636788,2.078024,-0.462660,2.575654,-0.251831,3.058880,-0.005479,3.525000,0.275017,3.971406,0.588088,4.395603,0.931984,4.795218,1.304782,5.168016,1.704397,5.511912,2.128594,5.824983,2.575000,6.105479,3.041120,6.351831,3.524346,6.562660,4.021976,6.736788,4.531227,6.873242,5.049252,6.971257,5.573153,7.030287,6.100000,7.050000,6.626847,7.030287,6.626847,7.030287,
$1*%
G04 Aperture macros list end*
%ADD10C,0.150000*%
%ADD11FreePoly0,0.000000*%
%ADD12C,0.800000*%
%ADD13O,6.800000X4.000000*%
%ADD14FreePoly1,0.000000*%
%ADD15FreePoly2,0.000000*%
G04 APERTURE END LIST*
D10*
X77676190Y-190437380D02*
X77676190Y-189437380D01*
X77676190Y-189437380D02*
X77295238Y-189437380D01*
X77295238Y-189437380D02*
X77200000Y-189485000D01*
X77200000Y-189485000D02*
X77152381Y-189532619D01*
X77152381Y-189532619D02*
X77104762Y-189627857D01*
X77104762Y-189627857D02*
X77104762Y-189770714D01*
X77104762Y-189770714D02*
X77152381Y-189865952D01*
X77152381Y-189865952D02*
X77200000Y-189913571D01*
X77200000Y-189913571D02*
X77295238Y-189961190D01*
X77295238Y-189961190D02*
X77676190Y-189961190D01*
X76247619Y-190437380D02*
X76247619Y-189913571D01*
X76247619Y-189913571D02*
X76295238Y-189818333D01*
X76295238Y-189818333D02*
X76390476Y-189770714D01*
X76390476Y-189770714D02*
X76580952Y-189770714D01*
X76580952Y-189770714D02*
X76676190Y-189818333D01*
X76247619Y-190389761D02*
X76342857Y-190437380D01*
X76342857Y-190437380D02*
X76580952Y-190437380D01*
X76580952Y-190437380D02*
X76676190Y-190389761D01*
X76676190Y-190389761D02*
X76723809Y-190294523D01*
X76723809Y-190294523D02*
X76723809Y-190199285D01*
X76723809Y-190199285D02*
X76676190Y-190104047D01*
X76676190Y-190104047D02*
X76580952Y-190056428D01*
X76580952Y-190056428D02*
X76342857Y-190056428D01*
X76342857Y-190056428D02*
X76247619Y-190008809D01*
X75771428Y-189770714D02*
X75771428Y-190437380D01*
X75771428Y-189865952D02*
X75723809Y-189818333D01*
X75723809Y-189818333D02*
X75628571Y-189770714D01*
X75628571Y-189770714D02*
X75485714Y-189770714D01*
X75485714Y-189770714D02*
X75390476Y-189818333D01*
X75390476Y-189818333D02*
X75342857Y-189913571D01*
X75342857Y-189913571D02*
X75342857Y-190437380D01*
X74485714Y-190389761D02*
X74580952Y-190437380D01*
X74580952Y-190437380D02*
X74771428Y-190437380D01*
X74771428Y-190437380D02*
X74866666Y-190389761D01*
X74866666Y-190389761D02*
X74914285Y-190294523D01*
X74914285Y-190294523D02*
X74914285Y-189913571D01*
X74914285Y-189913571D02*
X74866666Y-189818333D01*
X74866666Y-189818333D02*
X74771428Y-189770714D01*
X74771428Y-189770714D02*
X74580952Y-189770714D01*
X74580952Y-189770714D02*
X74485714Y-189818333D01*
X74485714Y-189818333D02*
X74438095Y-189913571D01*
X74438095Y-189913571D02*
X74438095Y-190008809D01*
X74438095Y-190008809D02*
X74914285Y-190104047D01*
X73866666Y-190437380D02*
X73961904Y-190389761D01*
X73961904Y-190389761D02*
X74009523Y-190294523D01*
X74009523Y-190294523D02*
X74009523Y-189437380D01*
X72457142Y-190437380D02*
X72457142Y-189437380D01*
X72457142Y-190389761D02*
X72552380Y-190437380D01*
X72552380Y-190437380D02*
X72742856Y-190437380D01*
X72742856Y-190437380D02*
X72838094Y-190389761D01*
X72838094Y-190389761D02*
X72885713Y-190342142D01*
X72885713Y-190342142D02*
X72933332Y-190246904D01*
X72933332Y-190246904D02*
X72933332Y-189961190D01*
X72933332Y-189961190D02*
X72885713Y-189865952D01*
X72885713Y-189865952D02*
X72838094Y-189818333D01*
X72838094Y-189818333D02*
X72742856Y-189770714D01*
X72742856Y-189770714D02*
X72552380Y-189770714D01*
X72552380Y-189770714D02*
X72457142Y-189818333D01*
X71599999Y-190389761D02*
X71695237Y-190437380D01*
X71695237Y-190437380D02*
X71885713Y-190437380D01*
X71885713Y-190437380D02*
X71980951Y-190389761D01*
X71980951Y-190389761D02*
X72028570Y-190294523D01*
X72028570Y-190294523D02*
X72028570Y-189913571D01*
X72028570Y-189913571D02*
X71980951Y-189818333D01*
X71980951Y-189818333D02*
X71885713Y-189770714D01*
X71885713Y-189770714D02*
X71695237Y-189770714D01*
X71695237Y-189770714D02*
X71599999Y-189818333D01*
X71599999Y-189818333D02*
X71552380Y-189913571D01*
X71552380Y-189913571D02*
X71552380Y-190008809D01*
X71552380Y-190008809D02*
X72028570Y-190104047D01*
X71171427Y-190389761D02*
X71076189Y-190437380D01*
X71076189Y-190437380D02*
X70885713Y-190437380D01*
X70885713Y-190437380D02*
X70790475Y-190389761D01*
X70790475Y-190389761D02*
X70742856Y-190294523D01*
X70742856Y-190294523D02*
X70742856Y-190246904D01*
X70742856Y-190246904D02*
X70790475Y-190151666D01*
X70790475Y-190151666D02*
X70885713Y-190104047D01*
X70885713Y-190104047D02*
X71028570Y-190104047D01*
X71028570Y-190104047D02*
X71123808Y-190056428D01*
X71123808Y-190056428D02*
X71171427Y-189961190D01*
X71171427Y-189961190D02*
X71171427Y-189913571D01*
X71171427Y-189913571D02*
X71123808Y-189818333D01*
X71123808Y-189818333D02*
X71028570Y-189770714D01*
X71028570Y-189770714D02*
X70885713Y-189770714D01*
X70885713Y-189770714D02*
X70790475Y-189818333D01*
X70314284Y-190437380D02*
X70314284Y-189770714D01*
X70314284Y-189437380D02*
X70361903Y-189485000D01*
X70361903Y-189485000D02*
X70314284Y-189532619D01*
X70314284Y-189532619D02*
X70266665Y-189485000D01*
X70266665Y-189485000D02*
X70314284Y-189437380D01*
X70314284Y-189437380D02*
X70314284Y-189532619D01*
X69409523Y-189770714D02*
X69409523Y-190580238D01*
X69409523Y-190580238D02*
X69457142Y-190675476D01*
X69457142Y-190675476D02*
X69504761Y-190723095D01*
X69504761Y-190723095D02*
X69599999Y-190770714D01*
X69599999Y-190770714D02*
X69742856Y-190770714D01*
X69742856Y-190770714D02*
X69838094Y-190723095D01*
X69409523Y-190389761D02*
X69504761Y-190437380D01*
X69504761Y-190437380D02*
X69695237Y-190437380D01*
X69695237Y-190437380D02*
X69790475Y-190389761D01*
X69790475Y-190389761D02*
X69838094Y-190342142D01*
X69838094Y-190342142D02*
X69885713Y-190246904D01*
X69885713Y-190246904D02*
X69885713Y-189961190D01*
X69885713Y-189961190D02*
X69838094Y-189865952D01*
X69838094Y-189865952D02*
X69790475Y-189818333D01*
X69790475Y-189818333D02*
X69695237Y-189770714D01*
X69695237Y-189770714D02*
X69504761Y-189770714D01*
X69504761Y-189770714D02*
X69409523Y-189818333D01*
X68933332Y-189770714D02*
X68933332Y-190437380D01*
X68933332Y-189865952D02*
X68885713Y-189818333D01*
X68885713Y-189818333D02*
X68790475Y-189770714D01*
X68790475Y-189770714D02*
X68647618Y-189770714D01*
X68647618Y-189770714D02*
X68552380Y-189818333D01*
X68552380Y-189818333D02*
X68504761Y-189913571D01*
X68504761Y-189913571D02*
X68504761Y-190437380D01*
X67428570Y-190437380D02*
X67428570Y-189437380D01*
X67428570Y-189818333D02*
X67333332Y-189770714D01*
X67333332Y-189770714D02*
X67142856Y-189770714D01*
X67142856Y-189770714D02*
X67047618Y-189818333D01*
X67047618Y-189818333D02*
X66999999Y-189865952D01*
X66999999Y-189865952D02*
X66952380Y-189961190D01*
X66952380Y-189961190D02*
X66952380Y-190246904D01*
X66952380Y-190246904D02*
X66999999Y-190342142D01*
X66999999Y-190342142D02*
X67047618Y-190389761D01*
X67047618Y-190389761D02*
X67142856Y-190437380D01*
X67142856Y-190437380D02*
X67333332Y-190437380D01*
X67333332Y-190437380D02*
X67428570Y-190389761D01*
X66619046Y-189770714D02*
X66380951Y-190437380D01*
X66142856Y-189770714D02*
X66380951Y-190437380D01*
X66380951Y-190437380D02*
X66476189Y-190675476D01*
X66476189Y-190675476D02*
X66523808Y-190723095D01*
X66523808Y-190723095D02*
X66619046Y-190770714D01*
X64590475Y-190437380D02*
X64923808Y-189961190D01*
X65161903Y-190437380D02*
X65161903Y-189437380D01*
X65161903Y-189437380D02*
X64780951Y-189437380D01*
X64780951Y-189437380D02*
X64685713Y-189485000D01*
X64685713Y-189485000D02*
X64638094Y-189532619D01*
X64638094Y-189532619D02*
X64590475Y-189627857D01*
X64590475Y-189627857D02*
X64590475Y-189770714D01*
X64590475Y-189770714D02*
X64638094Y-189865952D01*
X64638094Y-189865952D02*
X64685713Y-189913571D01*
X64685713Y-189913571D02*
X64780951Y-189961190D01*
X64780951Y-189961190D02*
X65161903Y-189961190D01*
X64161903Y-190437380D02*
X64161903Y-189770714D01*
X64161903Y-189437380D02*
X64209522Y-189485000D01*
X64209522Y-189485000D02*
X64161903Y-189532619D01*
X64161903Y-189532619D02*
X64114284Y-189485000D01*
X64114284Y-189485000D02*
X64161903Y-189437380D01*
X64161903Y-189437380D02*
X64161903Y-189532619D01*
X63257142Y-190389761D02*
X63352380Y-190437380D01*
X63352380Y-190437380D02*
X63542856Y-190437380D01*
X63542856Y-190437380D02*
X63638094Y-190389761D01*
X63638094Y-190389761D02*
X63685713Y-190342142D01*
X63685713Y-190342142D02*
X63733332Y-190246904D01*
X63733332Y-190246904D02*
X63733332Y-189961190D01*
X63733332Y-189961190D02*
X63685713Y-189865952D01*
X63685713Y-189865952D02*
X63638094Y-189818333D01*
X63638094Y-189818333D02*
X63542856Y-189770714D01*
X63542856Y-189770714D02*
X63352380Y-189770714D01*
X63352380Y-189770714D02*
X63257142Y-189818333D01*
X62828570Y-190437380D02*
X62828570Y-189437380D01*
X62399999Y-190437380D02*
X62399999Y-189913571D01*
X62399999Y-189913571D02*
X62447618Y-189818333D01*
X62447618Y-189818333D02*
X62542856Y-189770714D01*
X62542856Y-189770714D02*
X62685713Y-189770714D01*
X62685713Y-189770714D02*
X62780951Y-189818333D01*
X62780951Y-189818333D02*
X62828570Y-189865952D01*
X61323808Y-190437380D02*
X61323808Y-189437380D01*
X61323808Y-189913571D02*
X60752380Y-189913571D01*
X60752380Y-190437380D02*
X60752380Y-189437380D01*
X60133332Y-190437380D02*
X60228570Y-190389761D01*
X60228570Y-190389761D02*
X60276189Y-190342142D01*
X60276189Y-190342142D02*
X60323808Y-190246904D01*
X60323808Y-190246904D02*
X60323808Y-189961190D01*
X60323808Y-189961190D02*
X60276189Y-189865952D01*
X60276189Y-189865952D02*
X60228570Y-189818333D01*
X60228570Y-189818333D02*
X60133332Y-189770714D01*
X60133332Y-189770714D02*
X59990475Y-189770714D01*
X59990475Y-189770714D02*
X59895237Y-189818333D01*
X59895237Y-189818333D02*
X59847618Y-189865952D01*
X59847618Y-189865952D02*
X59799999Y-189961190D01*
X59799999Y-189961190D02*
X59799999Y-190246904D01*
X59799999Y-190246904D02*
X59847618Y-190342142D01*
X59847618Y-190342142D02*
X59895237Y-190389761D01*
X59895237Y-190389761D02*
X59990475Y-190437380D01*
X59990475Y-190437380D02*
X60133332Y-190437380D01*
X59228570Y-190437380D02*
X59323808Y-190389761D01*
X59323808Y-190389761D02*
X59371427Y-190294523D01*
X59371427Y-190294523D02*
X59371427Y-189437380D01*
X58847617Y-190437380D02*
X58847617Y-189770714D01*
X58847617Y-189865952D02*
X58799998Y-189818333D01*
X58799998Y-189818333D02*
X58704760Y-189770714D01*
X58704760Y-189770714D02*
X58561903Y-189770714D01*
X58561903Y-189770714D02*
X58466665Y-189818333D01*
X58466665Y-189818333D02*
X58419046Y-189913571D01*
X58419046Y-189913571D02*
X58419046Y-190437380D01*
X58419046Y-189913571D02*
X58371427Y-189818333D01*
X58371427Y-189818333D02*
X58276189Y-189770714D01*
X58276189Y-189770714D02*
X58133332Y-189770714D01*
X58133332Y-189770714D02*
X58038093Y-189818333D01*
X58038093Y-189818333D02*
X57990474Y-189913571D01*
X57990474Y-189913571D02*
X57990474Y-190437380D01*
X57133332Y-190389761D02*
X57228570Y-190437380D01*
X57228570Y-190437380D02*
X57419046Y-190437380D01*
X57419046Y-190437380D02*
X57514284Y-190389761D01*
X57514284Y-190389761D02*
X57561903Y-190294523D01*
X57561903Y-190294523D02*
X57561903Y-189913571D01*
X57561903Y-189913571D02*
X57514284Y-189818333D01*
X57514284Y-189818333D02*
X57419046Y-189770714D01*
X57419046Y-189770714D02*
X57228570Y-189770714D01*
X57228570Y-189770714D02*
X57133332Y-189818333D01*
X57133332Y-189818333D02*
X57085713Y-189913571D01*
X57085713Y-189913571D02*
X57085713Y-190008809D01*
X57085713Y-190008809D02*
X57561903Y-190104047D01*
X56704760Y-190389761D02*
X56609522Y-190437380D01*
X56609522Y-190437380D02*
X56419046Y-190437380D01*
X56419046Y-190437380D02*
X56323808Y-190389761D01*
X56323808Y-190389761D02*
X56276189Y-190294523D01*
X56276189Y-190294523D02*
X56276189Y-190246904D01*
X56276189Y-190246904D02*
X56323808Y-190151666D01*
X56323808Y-190151666D02*
X56419046Y-190104047D01*
X56419046Y-190104047D02*
X56561903Y-190104047D01*
X56561903Y-190104047D02*
X56657141Y-190056428D01*
X56657141Y-190056428D02*
X56704760Y-189961190D01*
X56704760Y-189961190D02*
X56704760Y-189913571D01*
X56704760Y-189913571D02*
X56657141Y-189818333D01*
X56657141Y-189818333D02*
X56561903Y-189770714D01*
X56561903Y-189770714D02*
X56419046Y-189770714D01*
X56419046Y-189770714D02*
X56323808Y-189818333D01*
X74033333Y-191533571D02*
X74366666Y-191533571D01*
X74366666Y-192057380D02*
X74366666Y-191057380D01*
X74366666Y-191057380D02*
X73890476Y-191057380D01*
X73128571Y-192009761D02*
X73223809Y-192057380D01*
X73223809Y-192057380D02*
X73414285Y-192057380D01*
X73414285Y-192057380D02*
X73509523Y-192009761D01*
X73509523Y-192009761D02*
X73557142Y-191914523D01*
X73557142Y-191914523D02*
X73557142Y-191533571D01*
X73557142Y-191533571D02*
X73509523Y-191438333D01*
X73509523Y-191438333D02*
X73414285Y-191390714D01*
X73414285Y-191390714D02*
X73223809Y-191390714D01*
X73223809Y-191390714D02*
X73128571Y-191438333D01*
X73128571Y-191438333D02*
X73080952Y-191533571D01*
X73080952Y-191533571D02*
X73080952Y-191628809D01*
X73080952Y-191628809D02*
X73557142Y-191724047D01*
X72652380Y-192057380D02*
X72652380Y-191057380D01*
X72652380Y-191438333D02*
X72557142Y-191390714D01*
X72557142Y-191390714D02*
X72366666Y-191390714D01*
X72366666Y-191390714D02*
X72271428Y-191438333D01*
X72271428Y-191438333D02*
X72223809Y-191485952D01*
X72223809Y-191485952D02*
X72176190Y-191581190D01*
X72176190Y-191581190D02*
X72176190Y-191866904D01*
X72176190Y-191866904D02*
X72223809Y-191962142D01*
X72223809Y-191962142D02*
X72271428Y-192009761D01*
X72271428Y-192009761D02*
X72366666Y-192057380D01*
X72366666Y-192057380D02*
X72557142Y-192057380D01*
X72557142Y-192057380D02*
X72652380Y-192009761D01*
X71195237Y-191152619D02*
X71147618Y-191105000D01*
X71147618Y-191105000D02*
X71052380Y-191057380D01*
X71052380Y-191057380D02*
X70814285Y-191057380D01*
X70814285Y-191057380D02*
X70719047Y-191105000D01*
X70719047Y-191105000D02*
X70671428Y-191152619D01*
X70671428Y-191152619D02*
X70623809Y-191247857D01*
X70623809Y-191247857D02*
X70623809Y-191343095D01*
X70623809Y-191343095D02*
X70671428Y-191485952D01*
X70671428Y-191485952D02*
X71242856Y-192057380D01*
X71242856Y-192057380D02*
X70623809Y-192057380D01*
X70004761Y-191057380D02*
X69909523Y-191057380D01*
X69909523Y-191057380D02*
X69814285Y-191105000D01*
X69814285Y-191105000D02*
X69766666Y-191152619D01*
X69766666Y-191152619D02*
X69719047Y-191247857D01*
X69719047Y-191247857D02*
X69671428Y-191438333D01*
X69671428Y-191438333D02*
X69671428Y-191676428D01*
X69671428Y-191676428D02*
X69719047Y-191866904D01*
X69719047Y-191866904D02*
X69766666Y-191962142D01*
X69766666Y-191962142D02*
X69814285Y-192009761D01*
X69814285Y-192009761D02*
X69909523Y-192057380D01*
X69909523Y-192057380D02*
X70004761Y-192057380D01*
X70004761Y-192057380D02*
X70099999Y-192009761D01*
X70099999Y-192009761D02*
X70147618Y-191962142D01*
X70147618Y-191962142D02*
X70195237Y-191866904D01*
X70195237Y-191866904D02*
X70242856Y-191676428D01*
X70242856Y-191676428D02*
X70242856Y-191438333D01*
X70242856Y-191438333D02*
X70195237Y-191247857D01*
X70195237Y-191247857D02*
X70147618Y-191152619D01*
X70147618Y-191152619D02*
X70099999Y-191105000D01*
X70099999Y-191105000D02*
X70004761Y-191057380D01*
X69290475Y-191152619D02*
X69242856Y-191105000D01*
X69242856Y-191105000D02*
X69147618Y-191057380D01*
X69147618Y-191057380D02*
X68909523Y-191057380D01*
X68909523Y-191057380D02*
X68814285Y-191105000D01*
X68814285Y-191105000D02*
X68766666Y-191152619D01*
X68766666Y-191152619D02*
X68719047Y-191247857D01*
X68719047Y-191247857D02*
X68719047Y-191343095D01*
X68719047Y-191343095D02*
X68766666Y-191485952D01*
X68766666Y-191485952D02*
X69338094Y-192057380D01*
X69338094Y-192057380D02*
X68719047Y-192057380D01*
X68385713Y-191057380D02*
X67766666Y-191057380D01*
X67766666Y-191057380D02*
X68099999Y-191438333D01*
X68099999Y-191438333D02*
X67957142Y-191438333D01*
X67957142Y-191438333D02*
X67861904Y-191485952D01*
X67861904Y-191485952D02*
X67814285Y-191533571D01*
X67814285Y-191533571D02*
X67766666Y-191628809D01*
X67766666Y-191628809D02*
X67766666Y-191866904D01*
X67766666Y-191866904D02*
X67814285Y-191962142D01*
X67814285Y-191962142D02*
X67861904Y-192009761D01*
X67861904Y-192009761D02*
X67957142Y-192057380D01*
X67957142Y-192057380D02*
X68242856Y-192057380D01*
X68242856Y-192057380D02*
X68338094Y-192009761D01*
X68338094Y-192009761D02*
X68385713Y-191962142D01*
X66023809Y-191009761D02*
X66880951Y-192295476D01*
X64519047Y-191962142D02*
X64566666Y-192009761D01*
X64566666Y-192009761D02*
X64709523Y-192057380D01*
X64709523Y-192057380D02*
X64804761Y-192057380D01*
X64804761Y-192057380D02*
X64947618Y-192009761D01*
X64947618Y-192009761D02*
X65042856Y-191914523D01*
X65042856Y-191914523D02*
X65090475Y-191819285D01*
X65090475Y-191819285D02*
X65138094Y-191628809D01*
X65138094Y-191628809D02*
X65138094Y-191485952D01*
X65138094Y-191485952D02*
X65090475Y-191295476D01*
X65090475Y-191295476D02*
X65042856Y-191200238D01*
X65042856Y-191200238D02*
X64947618Y-191105000D01*
X64947618Y-191105000D02*
X64804761Y-191057380D01*
X64804761Y-191057380D02*
X64709523Y-191057380D01*
X64709523Y-191057380D02*
X64566666Y-191105000D01*
X64566666Y-191105000D02*
X64519047Y-191152619D01*
X63519047Y-191962142D02*
X63566666Y-192009761D01*
X63566666Y-192009761D02*
X63709523Y-192057380D01*
X63709523Y-192057380D02*
X63804761Y-192057380D01*
X63804761Y-192057380D02*
X63947618Y-192009761D01*
X63947618Y-192009761D02*
X64042856Y-191914523D01*
X64042856Y-191914523D02*
X64090475Y-191819285D01*
X64090475Y-191819285D02*
X64138094Y-191628809D01*
X64138094Y-191628809D02*
X64138094Y-191485952D01*
X64138094Y-191485952D02*
X64090475Y-191295476D01*
X64090475Y-191295476D02*
X64042856Y-191200238D01*
X64042856Y-191200238D02*
X63947618Y-191105000D01*
X63947618Y-191105000D02*
X63804761Y-191057380D01*
X63804761Y-191057380D02*
X63709523Y-191057380D01*
X63709523Y-191057380D02*
X63566666Y-191105000D01*
X63566666Y-191105000D02*
X63519047Y-191152619D01*
X62899999Y-191057380D02*
X62804761Y-191057380D01*
X62804761Y-191057380D02*
X62709523Y-191105000D01*
X62709523Y-191105000D02*
X62661904Y-191152619D01*
X62661904Y-191152619D02*
X62614285Y-191247857D01*
X62614285Y-191247857D02*
X62566666Y-191438333D01*
X62566666Y-191438333D02*
X62566666Y-191676428D01*
X62566666Y-191676428D02*
X62614285Y-191866904D01*
X62614285Y-191866904D02*
X62661904Y-191962142D01*
X62661904Y-191962142D02*
X62709523Y-192009761D01*
X62709523Y-192009761D02*
X62804761Y-192057380D01*
X62804761Y-192057380D02*
X62899999Y-192057380D01*
X62899999Y-192057380D02*
X62995237Y-192009761D01*
X62995237Y-192009761D02*
X63042856Y-191962142D01*
X63042856Y-191962142D02*
X63090475Y-191866904D01*
X63090475Y-191866904D02*
X63138094Y-191676428D01*
X63138094Y-191676428D02*
X63138094Y-191438333D01*
X63138094Y-191438333D02*
X63090475Y-191247857D01*
X63090475Y-191247857D02*
X63042856Y-191152619D01*
X63042856Y-191152619D02*
X62995237Y-191105000D01*
X62995237Y-191105000D02*
X62899999Y-191057380D01*
X61014285Y-192057380D02*
X61585713Y-192057380D01*
X61299999Y-192057380D02*
X61299999Y-191057380D01*
X61299999Y-191057380D02*
X61395237Y-191200238D01*
X61395237Y-191200238D02*
X61490475Y-191295476D01*
X61490475Y-191295476D02*
X61585713Y-191343095D01*
X60585713Y-191962142D02*
X60538094Y-192009761D01*
X60538094Y-192009761D02*
X60585713Y-192057380D01*
X60585713Y-192057380D02*
X60633332Y-192009761D01*
X60633332Y-192009761D02*
X60585713Y-191962142D01*
X60585713Y-191962142D02*
X60585713Y-192057380D01*
X59919047Y-191057380D02*
X59823809Y-191057380D01*
X59823809Y-191057380D02*
X59728571Y-191105000D01*
X59728571Y-191105000D02*
X59680952Y-191152619D01*
X59680952Y-191152619D02*
X59633333Y-191247857D01*
X59633333Y-191247857D02*
X59585714Y-191438333D01*
X59585714Y-191438333D02*
X59585714Y-191676428D01*
X59585714Y-191676428D02*
X59633333Y-191866904D01*
X59633333Y-191866904D02*
X59680952Y-191962142D01*
X59680952Y-191962142D02*
X59728571Y-192009761D01*
X59728571Y-192009761D02*
X59823809Y-192057380D01*
X59823809Y-192057380D02*
X59919047Y-192057380D01*
X59919047Y-192057380D02*
X60014285Y-192009761D01*
X60014285Y-192009761D02*
X60061904Y-191962142D01*
X60061904Y-191962142D02*
X60109523Y-191866904D01*
X60109523Y-191866904D02*
X60157142Y-191676428D01*
X60157142Y-191676428D02*
X60157142Y-191438333D01*
X60157142Y-191438333D02*
X60109523Y-191247857D01*
X60109523Y-191247857D02*
X60061904Y-191152619D01*
X60061904Y-191152619D02*
X60014285Y-191105000D01*
X60014285Y-191105000D02*
X59919047Y-191057380D01*
X71619048Y-194297380D02*
X71619048Y-195011666D01*
X71619048Y-195011666D02*
X71666667Y-195154523D01*
X71666667Y-195154523D02*
X71761905Y-195249761D01*
X71761905Y-195249761D02*
X71904762Y-195297380D01*
X71904762Y-195297380D02*
X72000000Y-195297380D01*
X70666667Y-195297380D02*
X71142857Y-195297380D01*
X71142857Y-195297380D02*
X71142857Y-194297380D01*
X69761905Y-195202142D02*
X69809524Y-195249761D01*
X69809524Y-195249761D02*
X69952381Y-195297380D01*
X69952381Y-195297380D02*
X70047619Y-195297380D01*
X70047619Y-195297380D02*
X70190476Y-195249761D01*
X70190476Y-195249761D02*
X70285714Y-195154523D01*
X70285714Y-195154523D02*
X70333333Y-195059285D01*
X70333333Y-195059285D02*
X70380952Y-194868809D01*
X70380952Y-194868809D02*
X70380952Y-194725952D01*
X70380952Y-194725952D02*
X70333333Y-194535476D01*
X70333333Y-194535476D02*
X70285714Y-194440238D01*
X70285714Y-194440238D02*
X70190476Y-194345000D01*
X70190476Y-194345000D02*
X70047619Y-194297380D01*
X70047619Y-194297380D02*
X69952381Y-194297380D01*
X69952381Y-194297380D02*
X69809524Y-194345000D01*
X69809524Y-194345000D02*
X69761905Y-194392619D01*
X69047619Y-194297380D02*
X69047619Y-195011666D01*
X69047619Y-195011666D02*
X69095238Y-195154523D01*
X69095238Y-195154523D02*
X69190476Y-195249761D01*
X69190476Y-195249761D02*
X69333333Y-195297380D01*
X69333333Y-195297380D02*
X69428571Y-195297380D01*
X68095238Y-195297380D02*
X68571428Y-195297380D01*
X68571428Y-195297380D02*
X68571428Y-194297380D01*
X67190476Y-195202142D02*
X67238095Y-195249761D01*
X67238095Y-195249761D02*
X67380952Y-195297380D01*
X67380952Y-195297380D02*
X67476190Y-195297380D01*
X67476190Y-195297380D02*
X67619047Y-195249761D01*
X67619047Y-195249761D02*
X67714285Y-195154523D01*
X67714285Y-195154523D02*
X67761904Y-195059285D01*
X67761904Y-195059285D02*
X67809523Y-194868809D01*
X67809523Y-194868809D02*
X67809523Y-194725952D01*
X67809523Y-194725952D02*
X67761904Y-194535476D01*
X67761904Y-194535476D02*
X67714285Y-194440238D01*
X67714285Y-194440238D02*
X67619047Y-194345000D01*
X67619047Y-194345000D02*
X67476190Y-194297380D01*
X67476190Y-194297380D02*
X67380952Y-194297380D01*
X67380952Y-194297380D02*
X67238095Y-194345000D01*
X67238095Y-194345000D02*
X67190476Y-194392619D01*
X66476190Y-194297380D02*
X66476190Y-195011666D01*
X66476190Y-195011666D02*
X66523809Y-195154523D01*
X66523809Y-195154523D02*
X66619047Y-195249761D01*
X66619047Y-195249761D02*
X66761904Y-195297380D01*
X66761904Y-195297380D02*
X66857142Y-195297380D01*
X65523809Y-195297380D02*
X65999999Y-195297380D01*
X65999999Y-195297380D02*
X65999999Y-194297380D01*
X64619047Y-195202142D02*
X64666666Y-195249761D01*
X64666666Y-195249761D02*
X64809523Y-195297380D01*
X64809523Y-195297380D02*
X64904761Y-195297380D01*
X64904761Y-195297380D02*
X65047618Y-195249761D01*
X65047618Y-195249761D02*
X65142856Y-195154523D01*
X65142856Y-195154523D02*
X65190475Y-195059285D01*
X65190475Y-195059285D02*
X65238094Y-194868809D01*
X65238094Y-194868809D02*
X65238094Y-194725952D01*
X65238094Y-194725952D02*
X65190475Y-194535476D01*
X65190475Y-194535476D02*
X65142856Y-194440238D01*
X65142856Y-194440238D02*
X65047618Y-194345000D01*
X65047618Y-194345000D02*
X64904761Y-194297380D01*
X64904761Y-194297380D02*
X64809523Y-194297380D01*
X64809523Y-194297380D02*
X64666666Y-194345000D01*
X64666666Y-194345000D02*
X64619047Y-194392619D01*
X63904761Y-194297380D02*
X63904761Y-195011666D01*
X63904761Y-195011666D02*
X63952380Y-195154523D01*
X63952380Y-195154523D02*
X64047618Y-195249761D01*
X64047618Y-195249761D02*
X64190475Y-195297380D01*
X64190475Y-195297380D02*
X64285713Y-195297380D01*
X62952380Y-195297380D02*
X63428570Y-195297380D01*
X63428570Y-195297380D02*
X63428570Y-194297380D01*
X62047618Y-195202142D02*
X62095237Y-195249761D01*
X62095237Y-195249761D02*
X62238094Y-195297380D01*
X62238094Y-195297380D02*
X62333332Y-195297380D01*
X62333332Y-195297380D02*
X62476189Y-195249761D01*
X62476189Y-195249761D02*
X62571427Y-195154523D01*
X62571427Y-195154523D02*
X62619046Y-195059285D01*
X62619046Y-195059285D02*
X62666665Y-194868809D01*
X62666665Y-194868809D02*
X62666665Y-194725952D01*
X62666665Y-194725952D02*
X62619046Y-194535476D01*
X62619046Y-194535476D02*
X62571427Y-194440238D01*
X62571427Y-194440238D02*
X62476189Y-194345000D01*
X62476189Y-194345000D02*
X62333332Y-194297380D01*
X62333332Y-194297380D02*
X62238094Y-194297380D01*
X62238094Y-194297380D02*
X62095237Y-194345000D01*
X62095237Y-194345000D02*
X62047618Y-194392619D01*
%LPC*%
D11*
%TO.C,H6*%
X87300000Y-46000000D03*
D12*
X87300000Y-46000000D03*
X88700000Y-42700000D03*
X88700000Y-49300000D03*
X92000000Y-41300000D03*
X92000000Y-50700000D03*
X95200000Y-49400000D03*
X95300000Y-42700000D03*
X96700000Y-46000000D03*
%TD*%
D13*
%TO.C,H4*%
X21399999Y-8999999D03*
X21399999Y-202999999D03*
%TD*%
D14*
%TO.C,H7*%
X87500000Y-131000000D03*
D12*
X87500000Y-131000000D03*
X88800000Y-127800000D03*
X88800000Y-134200000D03*
X92000000Y-126500000D03*
X92000000Y-135500000D03*
X95100000Y-134300000D03*
X95200000Y-127800000D03*
X96500000Y-131000000D03*
%TD*%
D15*
%TO.C,H16*%
X98400000Y-181000000D03*
D12*
X98400000Y-181000000D03*
X100200000Y-176700000D03*
X100200000Y-185300000D03*
X104500000Y-174900000D03*
X104500000Y-187100000D03*
X108700000Y-185400000D03*
X108800000Y-176700000D03*
X110600000Y-181000000D03*
%TD*%
D14*
%TO.C,H2*%
X37500000Y-131000000D03*
D12*
X37500000Y-131000000D03*
X38800000Y-127800000D03*
X38800000Y-134200000D03*
X42000000Y-126500000D03*
X42000000Y-135500000D03*
X45100000Y-134300000D03*
X45200000Y-127800000D03*
X46500000Y-131000000D03*
%TD*%
D15*
%TO.C,H9*%
X48400000Y-156000000D03*
D12*
X48400000Y-156000000D03*
X50200000Y-151700000D03*
X50200000Y-160300000D03*
X54500000Y-149900000D03*
X54500000Y-162100000D03*
X58700000Y-160400000D03*
X58800000Y-151700000D03*
X60600000Y-156000000D03*
%TD*%
D13*
%TO.C,H8*%
X112599999Y-202999999D03*
X112599999Y-8999999D03*
%TD*%
D15*
%TO.C,H15*%
X98400000Y-156000000D03*
D12*
X98400000Y-156000000D03*
X100200000Y-151700000D03*
X100200000Y-160300000D03*
X104500000Y-149900000D03*
X104500000Y-162100000D03*
X108700000Y-160400000D03*
X108800000Y-151700000D03*
X110600000Y-156000000D03*
%TD*%
D15*
%TO.C,H14*%
X73400000Y-181000000D03*
D12*
X73400000Y-181000000D03*
X75200000Y-176700000D03*
X75200000Y-185300000D03*
X79500000Y-174900000D03*
X79500000Y-187100000D03*
X83700000Y-185400000D03*
X83800000Y-176700000D03*
X85600000Y-181000000D03*
%TD*%
D15*
%TO.C,H5*%
X23400000Y-181000000D03*
D12*
X23400000Y-181000000D03*
X25200000Y-176700000D03*
X25200000Y-185300000D03*
X29500000Y-174900000D03*
X29500000Y-187100000D03*
X33700000Y-185400000D03*
X33800000Y-176700000D03*
X35600000Y-181000000D03*
%TD*%
D11*
%TO.C,H10*%
X37300000Y-90000000D03*
D12*
X37300000Y-90000000D03*
X38700000Y-86700000D03*
X38700000Y-93300000D03*
X42000000Y-85300000D03*
X42000000Y-94700000D03*
X45200000Y-93400000D03*
X45300000Y-86700000D03*
X46700000Y-90000000D03*
%TD*%
D15*
%TO.C,H13*%
X73400000Y-156000000D03*
D12*
X73400000Y-156000000D03*
X75200000Y-151700000D03*
X75200000Y-160300000D03*
X79500000Y-149900000D03*
X79500000Y-162100000D03*
X83700000Y-160400000D03*
X83800000Y-151700000D03*
X85600000Y-156000000D03*
%TD*%
D15*
%TO.C,H11*%
X48400000Y-181000000D03*
D12*
X48400000Y-181000000D03*
X50200000Y-176700000D03*
X50200000Y-185300000D03*
X54500000Y-174900000D03*
X54500000Y-187100000D03*
X58700000Y-185400000D03*
X58800000Y-176700000D03*
X60600000Y-181000000D03*
%TD*%
D11*
%TO.C,H12*%
X87300000Y-90000000D03*
D12*
X87300000Y-90000000D03*
X88700000Y-86700000D03*
X88700000Y-93300000D03*
X92000000Y-85300000D03*
X92000000Y-94700000D03*
X95200000Y-93400000D03*
X95300000Y-86700000D03*
X96700000Y-90000000D03*
%TD*%
D11*
%TO.C,H1*%
X37300000Y-46000000D03*
D12*
X37300000Y-46000000D03*
X38700000Y-42700000D03*
X38700000Y-49300000D03*
X42000000Y-41300000D03*
X42000000Y-50700000D03*
X45200000Y-49400000D03*
X45300000Y-42700000D03*
X46700000Y-46000000D03*
%TD*%
D15*
%TO.C,H3*%
X23400000Y-156000000D03*
D12*
X23400000Y-156000000D03*
X25200000Y-151700000D03*
X25200000Y-160300000D03*
X29500000Y-149900000D03*
X29500000Y-162100000D03*
X33700000Y-160400000D03*
X33800000Y-151700000D03*
X35600000Y-156000000D03*
%TD*%
M02*
