%TF.GenerationSoftware,KiCad,Pcbnew,7.0.0-da2b9df05c~163~ubuntu22.04.1*%
%TF.CreationDate,2023-02-21T20:49:09-05:00*%
%TF.ProjectId,mfos_vca-panel,6d666f73-5f76-4636-912d-70616e656c2e,rev?*%
%TF.SameCoordinates,Original*%
%TF.FileFunction,Drillmap*%
%TF.FilePolarity,Positive*%
%FSLAX45Y45*%
G04 Gerber Fmt 4.5, Leading zero omitted, Abs format (unit mm)*
G04 Created by KiCad (PCBNEW 7.0.0-da2b9df05c~163~ubuntu22.04.1) date 2023-02-21 20:49:09*
%MOMM*%
%LPD*%
G01*
G04 APERTURE LIST*
%ADD10C,0.050000*%
%ADD11C,0.200000*%
G04 APERTURE END LIST*
D10*
X1700000Y-600000D02*
X11700000Y-600000D01*
X11700000Y-600000D02*
X11700000Y-20600000D01*
X11700000Y-20600000D02*
X1700000Y-20600000D01*
X1700000Y-20600000D02*
X1700000Y-600000D01*
D11*
X1945119Y-20895976D02*
X1945119Y-20695976D01*
X1945119Y-20695976D02*
X1992738Y-20695976D01*
X1992738Y-20695976D02*
X2021309Y-20705500D01*
X2021309Y-20705500D02*
X2040357Y-20724548D01*
X2040357Y-20724548D02*
X2049881Y-20743595D01*
X2049881Y-20743595D02*
X2059405Y-20781690D01*
X2059405Y-20781690D02*
X2059405Y-20810262D01*
X2059405Y-20810262D02*
X2049881Y-20848357D01*
X2049881Y-20848357D02*
X2040357Y-20867405D01*
X2040357Y-20867405D02*
X2021309Y-20886452D01*
X2021309Y-20886452D02*
X1992738Y-20895976D01*
X1992738Y-20895976D02*
X1945119Y-20895976D01*
X2145119Y-20895976D02*
X2145119Y-20762643D01*
X2145119Y-20800738D02*
X2154643Y-20781690D01*
X2154643Y-20781690D02*
X2164167Y-20772167D01*
X2164167Y-20772167D02*
X2183214Y-20762643D01*
X2183214Y-20762643D02*
X2202262Y-20762643D01*
X2268929Y-20895976D02*
X2268929Y-20762643D01*
X2268929Y-20695976D02*
X2259405Y-20705500D01*
X2259405Y-20705500D02*
X2268929Y-20715024D01*
X2268929Y-20715024D02*
X2278452Y-20705500D01*
X2278452Y-20705500D02*
X2268929Y-20695976D01*
X2268929Y-20695976D02*
X2268929Y-20715024D01*
X2392738Y-20895976D02*
X2373690Y-20886452D01*
X2373690Y-20886452D02*
X2364167Y-20867405D01*
X2364167Y-20867405D02*
X2364167Y-20695976D01*
X2497500Y-20895976D02*
X2478452Y-20886452D01*
X2478452Y-20886452D02*
X2468929Y-20867405D01*
X2468929Y-20867405D02*
X2468929Y-20695976D01*
X2693690Y-20895976D02*
X2693690Y-20695976D01*
X2693690Y-20695976D02*
X2760357Y-20838833D01*
X2760357Y-20838833D02*
X2827024Y-20695976D01*
X2827024Y-20695976D02*
X2827024Y-20895976D01*
X3007976Y-20895976D02*
X3007976Y-20791214D01*
X3007976Y-20791214D02*
X2998452Y-20772167D01*
X2998452Y-20772167D02*
X2979405Y-20762643D01*
X2979405Y-20762643D02*
X2941309Y-20762643D01*
X2941309Y-20762643D02*
X2922262Y-20772167D01*
X3007976Y-20886452D02*
X2988928Y-20895976D01*
X2988928Y-20895976D02*
X2941309Y-20895976D01*
X2941309Y-20895976D02*
X2922262Y-20886452D01*
X2922262Y-20886452D02*
X2912738Y-20867405D01*
X2912738Y-20867405D02*
X2912738Y-20848357D01*
X2912738Y-20848357D02*
X2922262Y-20829310D01*
X2922262Y-20829310D02*
X2941309Y-20819786D01*
X2941309Y-20819786D02*
X2988928Y-20819786D01*
X2988928Y-20819786D02*
X3007976Y-20810262D01*
X3103214Y-20762643D02*
X3103214Y-20962643D01*
X3103214Y-20772167D02*
X3122262Y-20762643D01*
X3122262Y-20762643D02*
X3160357Y-20762643D01*
X3160357Y-20762643D02*
X3179405Y-20772167D01*
X3179405Y-20772167D02*
X3188928Y-20781690D01*
X3188928Y-20781690D02*
X3198452Y-20800738D01*
X3198452Y-20800738D02*
X3198452Y-20857881D01*
X3198452Y-20857881D02*
X3188928Y-20876929D01*
X3188928Y-20876929D02*
X3179405Y-20886452D01*
X3179405Y-20886452D02*
X3160357Y-20895976D01*
X3160357Y-20895976D02*
X3122262Y-20895976D01*
X3122262Y-20895976D02*
X3103214Y-20886452D01*
X3284167Y-20876929D02*
X3293690Y-20886452D01*
X3293690Y-20886452D02*
X3284167Y-20895976D01*
X3284167Y-20895976D02*
X3274643Y-20886452D01*
X3274643Y-20886452D02*
X3284167Y-20876929D01*
X3284167Y-20876929D02*
X3284167Y-20895976D01*
X3284167Y-20772167D02*
X3293690Y-20781690D01*
X3293690Y-20781690D02*
X3284167Y-20791214D01*
X3284167Y-20791214D02*
X3274643Y-20781690D01*
X3274643Y-20781690D02*
X3284167Y-20772167D01*
X3284167Y-20772167D02*
X3284167Y-20791214D01*
M02*
