%TF.GenerationSoftware,KiCad,Pcbnew,7.0.0-da2b9df05c~163~ubuntu22.04.1*%
%TF.CreationDate,2023-02-21T20:49:09-05:00*%
%TF.ProjectId,mfos_vca-panel,6d666f73-5f76-4636-912d-70616e656c2e,rev?*%
%TF.SameCoordinates,Original*%
%TF.FileFunction,Drillmap*%
%TF.FilePolarity,Positive*%
%FSLAX45Y45*%
G04 Gerber Fmt 4.5, Leading zero omitted, Abs format (unit mm)*
G04 Created by KiCad (PCBNEW 7.0.0-da2b9df05c~163~ubuntu22.04.1) date 2023-02-21 20:49:09*
%MOMM*%
%LPD*%
G01*
G04 APERTURE LIST*
%ADD10C,0.050000*%
%ADD11C,0.200000*%
%ADD12C,0.060000*%
%ADD13C,0.320000*%
G04 APERTURE END LIST*
D10*
X1700000Y-600000D02*
X11700000Y-600000D01*
X11700000Y-600000D02*
X11700000Y-20600000D01*
X11700000Y-20600000D02*
X1700000Y-20600000D01*
X1700000Y-20600000D02*
X1700000Y-600000D01*
D11*
D12*
X2310000Y-15570000D02*
X2370000Y-15630000D01*
X2370000Y-15570000D02*
X2310000Y-15630000D01*
X2310000Y-18070000D02*
X2370000Y-18130000D01*
X2370000Y-18070000D02*
X2310000Y-18130000D01*
X2490000Y-15140000D02*
X2550000Y-15200000D01*
X2550000Y-15140000D02*
X2490000Y-15200000D01*
X2490000Y-16000000D02*
X2550000Y-16060000D01*
X2550000Y-16000000D02*
X2490000Y-16060000D01*
X2490000Y-17640000D02*
X2550000Y-17700000D01*
X2550000Y-17640000D02*
X2490000Y-17700000D01*
X2490000Y-18500000D02*
X2550000Y-18560000D01*
X2550000Y-18500000D02*
X2490000Y-18560000D01*
X2920000Y-14960000D02*
X2980000Y-15020000D01*
X2980000Y-14960000D02*
X2920000Y-15020000D01*
X2920000Y-16180000D02*
X2980000Y-16240000D01*
X2980000Y-16180000D02*
X2920000Y-16240000D01*
X2920000Y-17460000D02*
X2980000Y-17520000D01*
X2980000Y-17460000D02*
X2920000Y-17520000D01*
X2920000Y-18680000D02*
X2980000Y-18740000D01*
X2980000Y-18680000D02*
X2920000Y-18740000D01*
X3340000Y-16010000D02*
X3400000Y-16070000D01*
X3400000Y-16010000D02*
X3340000Y-16070000D01*
X3340000Y-18510000D02*
X3400000Y-18570000D01*
X3400000Y-18510000D02*
X3340000Y-18570000D01*
X3350000Y-15140000D02*
X3410000Y-15200000D01*
X3410000Y-15140000D02*
X3350000Y-15200000D01*
X3350000Y-17640000D02*
X3410000Y-17700000D01*
X3410000Y-17640000D02*
X3350000Y-17700000D01*
X3530000Y-15570000D02*
X3590000Y-15630000D01*
X3590000Y-15570000D02*
X3530000Y-15630000D01*
X3530000Y-18070000D02*
X3590000Y-18130000D01*
X3590000Y-18070000D02*
X3530000Y-18130000D01*
X3700000Y-4570000D02*
X3760000Y-4630000D01*
X3760000Y-4570000D02*
X3700000Y-4630000D01*
X3700000Y-8970000D02*
X3760000Y-9030000D01*
X3760000Y-8970000D02*
X3700000Y-9030000D01*
X3720000Y-13070000D02*
X3780000Y-13130000D01*
X3780000Y-13070000D02*
X3720000Y-13130000D01*
X3840000Y-4240000D02*
X3900000Y-4300000D01*
X3900000Y-4240000D02*
X3840000Y-4300000D01*
X3840000Y-4900000D02*
X3900000Y-4960000D01*
X3900000Y-4900000D02*
X3840000Y-4960000D01*
X3840000Y-8640000D02*
X3900000Y-8700000D01*
X3900000Y-8640000D02*
X3840000Y-8700000D01*
X3840000Y-9300000D02*
X3900000Y-9360000D01*
X3900000Y-9300000D02*
X3840000Y-9360000D01*
X3850000Y-12750000D02*
X3910000Y-12810000D01*
X3910000Y-12750000D02*
X3850000Y-12810000D01*
X3850000Y-13390000D02*
X3910000Y-13450000D01*
X3910000Y-13390000D02*
X3850000Y-13450000D01*
X4170000Y-4100000D02*
X4230000Y-4160000D01*
X4230000Y-4100000D02*
X4170000Y-4160000D01*
X4170000Y-5040000D02*
X4230000Y-5100000D01*
X4230000Y-5040000D02*
X4170000Y-5100000D01*
X4170000Y-8500000D02*
X4230000Y-8560000D01*
X4230000Y-8500000D02*
X4170000Y-8560000D01*
X4170000Y-9440000D02*
X4230000Y-9500000D01*
X4230000Y-9440000D02*
X4170000Y-9500000D01*
X4170000Y-12620000D02*
X4230000Y-12680000D01*
X4230000Y-12620000D02*
X4170000Y-12680000D01*
X4170000Y-13520000D02*
X4230000Y-13580000D01*
X4230000Y-13520000D02*
X4170000Y-13580000D01*
X4480000Y-13400000D02*
X4540000Y-13460000D01*
X4540000Y-13400000D02*
X4480000Y-13460000D01*
X4490000Y-4910000D02*
X4550000Y-4970000D01*
X4550000Y-4910000D02*
X4490000Y-4970000D01*
X4490000Y-9310000D02*
X4550000Y-9370000D01*
X4550000Y-9310000D02*
X4490000Y-9370000D01*
X4490000Y-12750000D02*
X4550000Y-12810000D01*
X4550000Y-12750000D02*
X4490000Y-12810000D01*
X4500000Y-4240000D02*
X4560000Y-4300000D01*
X4560000Y-4240000D02*
X4500000Y-4300000D01*
X4500000Y-8640000D02*
X4560000Y-8700000D01*
X4560000Y-8640000D02*
X4500000Y-8700000D01*
X4620000Y-13070000D02*
X4680000Y-13130000D01*
X4680000Y-13070000D02*
X4620000Y-13130000D01*
X4640000Y-4570000D02*
X4700000Y-4630000D01*
X4700000Y-4570000D02*
X4640000Y-4630000D01*
X4640000Y-8970000D02*
X4700000Y-9030000D01*
X4700000Y-8970000D02*
X4640000Y-9030000D01*
X4810000Y-15570000D02*
X4870000Y-15630000D01*
X4870000Y-15570000D02*
X4810000Y-15630000D01*
X4810000Y-18070000D02*
X4870000Y-18130000D01*
X4870000Y-18070000D02*
X4810000Y-18130000D01*
X4990000Y-15140000D02*
X5050000Y-15200000D01*
X5050000Y-15140000D02*
X4990000Y-15200000D01*
X4990000Y-16000000D02*
X5050000Y-16060000D01*
X5050000Y-16000000D02*
X4990000Y-16060000D01*
X4990000Y-17640000D02*
X5050000Y-17700000D01*
X5050000Y-17640000D02*
X4990000Y-17700000D01*
X4990000Y-18500000D02*
X5050000Y-18560000D01*
X5050000Y-18500000D02*
X4990000Y-18560000D01*
X5420000Y-14960000D02*
X5480000Y-15020000D01*
X5480000Y-14960000D02*
X5420000Y-15020000D01*
X5420000Y-16180000D02*
X5480000Y-16240000D01*
X5480000Y-16180000D02*
X5420000Y-16240000D01*
X5420000Y-17460000D02*
X5480000Y-17520000D01*
X5480000Y-17460000D02*
X5420000Y-17520000D01*
X5420000Y-18680000D02*
X5480000Y-18740000D01*
X5480000Y-18680000D02*
X5420000Y-18740000D01*
X5840000Y-16010000D02*
X5900000Y-16070000D01*
X5900000Y-16010000D02*
X5840000Y-16070000D01*
X5840000Y-18510000D02*
X5900000Y-18570000D01*
X5900000Y-18510000D02*
X5840000Y-18570000D01*
X5850000Y-15140000D02*
X5910000Y-15200000D01*
X5910000Y-15140000D02*
X5850000Y-15200000D01*
X5850000Y-17640000D02*
X5910000Y-17700000D01*
X5910000Y-17640000D02*
X5850000Y-17700000D01*
X6030000Y-15570000D02*
X6090000Y-15630000D01*
X6090000Y-15570000D02*
X6030000Y-15630000D01*
X6030000Y-18070000D02*
X6090000Y-18130000D01*
X6090000Y-18070000D02*
X6030000Y-18130000D01*
X7310000Y-15570000D02*
X7370000Y-15630000D01*
X7370000Y-15570000D02*
X7310000Y-15630000D01*
X7310000Y-18070000D02*
X7370000Y-18130000D01*
X7370000Y-18070000D02*
X7310000Y-18130000D01*
X7490000Y-15140000D02*
X7550000Y-15200000D01*
X7550000Y-15140000D02*
X7490000Y-15200000D01*
X7490000Y-16000000D02*
X7550000Y-16060000D01*
X7550000Y-16000000D02*
X7490000Y-16060000D01*
X7490000Y-17640000D02*
X7550000Y-17700000D01*
X7550000Y-17640000D02*
X7490000Y-17700000D01*
X7490000Y-18500000D02*
X7550000Y-18560000D01*
X7550000Y-18500000D02*
X7490000Y-18560000D01*
X7920000Y-14960000D02*
X7980000Y-15020000D01*
X7980000Y-14960000D02*
X7920000Y-15020000D01*
X7920000Y-16180000D02*
X7980000Y-16240000D01*
X7980000Y-16180000D02*
X7920000Y-16240000D01*
X7920000Y-17460000D02*
X7980000Y-17520000D01*
X7980000Y-17460000D02*
X7920000Y-17520000D01*
X7920000Y-18680000D02*
X7980000Y-18740000D01*
X7980000Y-18680000D02*
X7920000Y-18740000D01*
X8340000Y-16010000D02*
X8400000Y-16070000D01*
X8400000Y-16010000D02*
X8340000Y-16070000D01*
X8340000Y-18510000D02*
X8400000Y-18570000D01*
X8400000Y-18510000D02*
X8340000Y-18570000D01*
X8350000Y-15140000D02*
X8410000Y-15200000D01*
X8410000Y-15140000D02*
X8350000Y-15200000D01*
X8350000Y-17640000D02*
X8410000Y-17700000D01*
X8410000Y-17640000D02*
X8350000Y-17700000D01*
X8530000Y-15570000D02*
X8590000Y-15630000D01*
X8590000Y-15570000D02*
X8530000Y-15630000D01*
X8530000Y-18070000D02*
X8590000Y-18130000D01*
X8590000Y-18070000D02*
X8530000Y-18130000D01*
X8700000Y-4570000D02*
X8760000Y-4630000D01*
X8760000Y-4570000D02*
X8700000Y-4630000D01*
X8700000Y-8970000D02*
X8760000Y-9030000D01*
X8760000Y-8970000D02*
X8700000Y-9030000D01*
X8720000Y-13070000D02*
X8780000Y-13130000D01*
X8780000Y-13070000D02*
X8720000Y-13130000D01*
X8840000Y-4240000D02*
X8900000Y-4300000D01*
X8900000Y-4240000D02*
X8840000Y-4300000D01*
X8840000Y-4900000D02*
X8900000Y-4960000D01*
X8900000Y-4900000D02*
X8840000Y-4960000D01*
X8840000Y-8640000D02*
X8900000Y-8700000D01*
X8900000Y-8640000D02*
X8840000Y-8700000D01*
X8840000Y-9300000D02*
X8900000Y-9360000D01*
X8900000Y-9300000D02*
X8840000Y-9360000D01*
X8850000Y-12750000D02*
X8910000Y-12810000D01*
X8910000Y-12750000D02*
X8850000Y-12810000D01*
X8850000Y-13390000D02*
X8910000Y-13450000D01*
X8910000Y-13390000D02*
X8850000Y-13450000D01*
X9170000Y-4100000D02*
X9230000Y-4160000D01*
X9230000Y-4100000D02*
X9170000Y-4160000D01*
X9170000Y-5040000D02*
X9230000Y-5100000D01*
X9230000Y-5040000D02*
X9170000Y-5100000D01*
X9170000Y-8500000D02*
X9230000Y-8560000D01*
X9230000Y-8500000D02*
X9170000Y-8560000D01*
X9170000Y-9440000D02*
X9230000Y-9500000D01*
X9230000Y-9440000D02*
X9170000Y-9500000D01*
X9170000Y-12620000D02*
X9230000Y-12680000D01*
X9230000Y-12620000D02*
X9170000Y-12680000D01*
X9170000Y-13520000D02*
X9230000Y-13580000D01*
X9230000Y-13520000D02*
X9170000Y-13580000D01*
X9480000Y-13400000D02*
X9540000Y-13460000D01*
X9540000Y-13400000D02*
X9480000Y-13460000D01*
X9490000Y-4910000D02*
X9550000Y-4970000D01*
X9550000Y-4910000D02*
X9490000Y-4970000D01*
X9490000Y-9310000D02*
X9550000Y-9370000D01*
X9550000Y-9310000D02*
X9490000Y-9370000D01*
X9490000Y-12750000D02*
X9550000Y-12810000D01*
X9550000Y-12750000D02*
X9490000Y-12810000D01*
X9500000Y-4240000D02*
X9560000Y-4300000D01*
X9560000Y-4240000D02*
X9500000Y-4300000D01*
X9500000Y-8640000D02*
X9560000Y-8700000D01*
X9560000Y-8640000D02*
X9500000Y-8700000D01*
X9620000Y-13070000D02*
X9680000Y-13130000D01*
X9680000Y-13070000D02*
X9620000Y-13130000D01*
X9640000Y-4570000D02*
X9700000Y-4630000D01*
X9700000Y-4570000D02*
X9640000Y-4630000D01*
X9640000Y-8970000D02*
X9700000Y-9030000D01*
X9700000Y-8970000D02*
X9640000Y-9030000D01*
X9810000Y-15570000D02*
X9870000Y-15630000D01*
X9870000Y-15570000D02*
X9810000Y-15630000D01*
X9810000Y-18070000D02*
X9870000Y-18130000D01*
X9870000Y-18070000D02*
X9810000Y-18130000D01*
X9990000Y-15140000D02*
X10050000Y-15200000D01*
X10050000Y-15140000D02*
X9990000Y-15200000D01*
X9990000Y-16000000D02*
X10050000Y-16060000D01*
X10050000Y-16000000D02*
X9990000Y-16060000D01*
X9990000Y-17640000D02*
X10050000Y-17700000D01*
X10050000Y-17640000D02*
X9990000Y-17700000D01*
X9990000Y-18500000D02*
X10050000Y-18560000D01*
X10050000Y-18500000D02*
X9990000Y-18560000D01*
X10420000Y-14960000D02*
X10480000Y-15020000D01*
X10480000Y-14960000D02*
X10420000Y-15020000D01*
X10420000Y-16180000D02*
X10480000Y-16240000D01*
X10480000Y-16180000D02*
X10420000Y-16240000D01*
X10420000Y-17460000D02*
X10480000Y-17520000D01*
X10480000Y-17460000D02*
X10420000Y-17520000D01*
X10420000Y-18680000D02*
X10480000Y-18740000D01*
X10480000Y-18680000D02*
X10420000Y-18740000D01*
X10840000Y-16010000D02*
X10900000Y-16070000D01*
X10900000Y-16010000D02*
X10840000Y-16070000D01*
X10840000Y-18510000D02*
X10900000Y-18570000D01*
X10900000Y-18510000D02*
X10840000Y-18570000D01*
X10850000Y-15140000D02*
X10910000Y-15200000D01*
X10910000Y-15140000D02*
X10850000Y-15200000D01*
X10850000Y-17640000D02*
X10910000Y-17700000D01*
X10910000Y-17640000D02*
X10850000Y-17700000D01*
X11030000Y-15570000D02*
X11090000Y-15630000D01*
X11090000Y-15570000D02*
X11030000Y-15630000D01*
X11030000Y-18070000D02*
X11090000Y-18130000D01*
X11090000Y-18070000D02*
X11030000Y-18130000D01*
D13*
X2300000Y-900000D02*
G75*
G03*
X2300000Y-900000I-160000J0D01*
G01*
D11*
X2000000Y-1060000D02*
X2280000Y-1060000D01*
X2280000Y-1060000D02*
G75*
G03*
X2280000Y-740000I0J160000D01*
G01*
X2280000Y-740000D02*
X2000000Y-740000D01*
X2000000Y-740000D02*
G75*
G03*
X2000000Y-1060000I0J-160000D01*
G01*
D13*
X2300000Y-20300000D02*
G75*
G03*
X2300000Y-20300000I-160000J0D01*
G01*
D11*
X2000000Y-20460000D02*
X2280000Y-20460000D01*
X2280000Y-20460000D02*
G75*
G03*
X2280000Y-20140000I0J160000D01*
G01*
X2280000Y-20140000D02*
X2000000Y-20140000D01*
X2000000Y-20140000D02*
G75*
G03*
X2000000Y-20460000I0J-160000D01*
G01*
D13*
X11420000Y-900000D02*
G75*
G03*
X11420000Y-900000I-160000J0D01*
G01*
D11*
X11400000Y-740000D02*
X11120000Y-740000D01*
X11120000Y-740000D02*
G75*
G03*
X11120000Y-1060000I0J-160000D01*
G01*
X11120000Y-1060000D02*
X11400000Y-1060000D01*
X11400000Y-1060000D02*
G75*
G03*
X11400000Y-740000I0J160000D01*
G01*
D13*
X11420000Y-20300000D02*
G75*
G03*
X11420000Y-20300000I-160000J0D01*
G01*
D11*
X11400000Y-20140000D02*
X11120000Y-20140000D01*
X11120000Y-20140000D02*
G75*
G03*
X11120000Y-20460000I0J-160000D01*
G01*
X11120000Y-20460000D02*
X11400000Y-20460000D01*
X11400000Y-20460000D02*
G75*
G03*
X11400000Y-20140000I0J160000D01*
G01*
X1945119Y-20895976D02*
X1945119Y-20695976D01*
X1945119Y-20695976D02*
X1992738Y-20695976D01*
X1992738Y-20695976D02*
X2021309Y-20705500D01*
X2021309Y-20705500D02*
X2040357Y-20724548D01*
X2040357Y-20724548D02*
X2049881Y-20743595D01*
X2049881Y-20743595D02*
X2059405Y-20781690D01*
X2059405Y-20781690D02*
X2059405Y-20810262D01*
X2059405Y-20810262D02*
X2049881Y-20848357D01*
X2049881Y-20848357D02*
X2040357Y-20867405D01*
X2040357Y-20867405D02*
X2021309Y-20886452D01*
X2021309Y-20886452D02*
X1992738Y-20895976D01*
X1992738Y-20895976D02*
X1945119Y-20895976D01*
X2145119Y-20895976D02*
X2145119Y-20762643D01*
X2145119Y-20800738D02*
X2154643Y-20781690D01*
X2154643Y-20781690D02*
X2164167Y-20772167D01*
X2164167Y-20772167D02*
X2183214Y-20762643D01*
X2183214Y-20762643D02*
X2202262Y-20762643D01*
X2268929Y-20895976D02*
X2268929Y-20762643D01*
X2268929Y-20695976D02*
X2259405Y-20705500D01*
X2259405Y-20705500D02*
X2268929Y-20715024D01*
X2268929Y-20715024D02*
X2278452Y-20705500D01*
X2278452Y-20705500D02*
X2268929Y-20695976D01*
X2268929Y-20695976D02*
X2268929Y-20715024D01*
X2392738Y-20895976D02*
X2373690Y-20886452D01*
X2373690Y-20886452D02*
X2364167Y-20867405D01*
X2364167Y-20867405D02*
X2364167Y-20695976D01*
X2497500Y-20895976D02*
X2478452Y-20886452D01*
X2478452Y-20886452D02*
X2468929Y-20867405D01*
X2468929Y-20867405D02*
X2468929Y-20695976D01*
X2693690Y-20895976D02*
X2693690Y-20695976D01*
X2693690Y-20695976D02*
X2760357Y-20838833D01*
X2760357Y-20838833D02*
X2827024Y-20695976D01*
X2827024Y-20695976D02*
X2827024Y-20895976D01*
X3007976Y-20895976D02*
X3007976Y-20791214D01*
X3007976Y-20791214D02*
X2998452Y-20772167D01*
X2998452Y-20772167D02*
X2979405Y-20762643D01*
X2979405Y-20762643D02*
X2941309Y-20762643D01*
X2941309Y-20762643D02*
X2922262Y-20772167D01*
X3007976Y-20886452D02*
X2988928Y-20895976D01*
X2988928Y-20895976D02*
X2941309Y-20895976D01*
X2941309Y-20895976D02*
X2922262Y-20886452D01*
X2922262Y-20886452D02*
X2912738Y-20867405D01*
X2912738Y-20867405D02*
X2912738Y-20848357D01*
X2912738Y-20848357D02*
X2922262Y-20829310D01*
X2922262Y-20829310D02*
X2941309Y-20819786D01*
X2941309Y-20819786D02*
X2988928Y-20819786D01*
X2988928Y-20819786D02*
X3007976Y-20810262D01*
X3103214Y-20762643D02*
X3103214Y-20962643D01*
X3103214Y-20772167D02*
X3122262Y-20762643D01*
X3122262Y-20762643D02*
X3160357Y-20762643D01*
X3160357Y-20762643D02*
X3179405Y-20772167D01*
X3179405Y-20772167D02*
X3188928Y-20781690D01*
X3188928Y-20781690D02*
X3198452Y-20800738D01*
X3198452Y-20800738D02*
X3198452Y-20857881D01*
X3198452Y-20857881D02*
X3188928Y-20876929D01*
X3188928Y-20876929D02*
X3179405Y-20886452D01*
X3179405Y-20886452D02*
X3160357Y-20895976D01*
X3160357Y-20895976D02*
X3122262Y-20895976D01*
X3122262Y-20895976D02*
X3103214Y-20886452D01*
X3284167Y-20876929D02*
X3293690Y-20886452D01*
X3293690Y-20886452D02*
X3284167Y-20895976D01*
X3284167Y-20895976D02*
X3274643Y-20886452D01*
X3274643Y-20886452D02*
X3284167Y-20876929D01*
X3284167Y-20876929D02*
X3284167Y-20895976D01*
X3284167Y-20772167D02*
X3293690Y-20781690D01*
X3293690Y-20781690D02*
X3284167Y-20791214D01*
X3284167Y-20791214D02*
X3274643Y-20781690D01*
X3274643Y-20781690D02*
X3284167Y-20772167D01*
X3284167Y-20772167D02*
X3284167Y-20791214D01*
D12*
X1637500Y-21212500D02*
X1697500Y-21272500D01*
X1697500Y-21212500D02*
X1637500Y-21272500D01*
D11*
X1983214Y-21115976D02*
X2002262Y-21115976D01*
X2002262Y-21115976D02*
X2021309Y-21125500D01*
X2021309Y-21125500D02*
X2030833Y-21135024D01*
X2030833Y-21135024D02*
X2040357Y-21154071D01*
X2040357Y-21154071D02*
X2049881Y-21192167D01*
X2049881Y-21192167D02*
X2049881Y-21239786D01*
X2049881Y-21239786D02*
X2040357Y-21277881D01*
X2040357Y-21277881D02*
X2030833Y-21296929D01*
X2030833Y-21296929D02*
X2021309Y-21306452D01*
X2021309Y-21306452D02*
X2002262Y-21315976D01*
X2002262Y-21315976D02*
X1983214Y-21315976D01*
X1983214Y-21315976D02*
X1964167Y-21306452D01*
X1964167Y-21306452D02*
X1954643Y-21296929D01*
X1954643Y-21296929D02*
X1945119Y-21277881D01*
X1945119Y-21277881D02*
X1935595Y-21239786D01*
X1935595Y-21239786D02*
X1935595Y-21192167D01*
X1935595Y-21192167D02*
X1945119Y-21154071D01*
X1945119Y-21154071D02*
X1954643Y-21135024D01*
X1954643Y-21135024D02*
X1964167Y-21125500D01*
X1964167Y-21125500D02*
X1983214Y-21115976D01*
X2135595Y-21296929D02*
X2145119Y-21306452D01*
X2145119Y-21306452D02*
X2135595Y-21315976D01*
X2135595Y-21315976D02*
X2126071Y-21306452D01*
X2126071Y-21306452D02*
X2135595Y-21296929D01*
X2135595Y-21296929D02*
X2135595Y-21315976D01*
X2316548Y-21115976D02*
X2278452Y-21115976D01*
X2278452Y-21115976D02*
X2259405Y-21125500D01*
X2259405Y-21125500D02*
X2249881Y-21135024D01*
X2249881Y-21135024D02*
X2230833Y-21163595D01*
X2230833Y-21163595D02*
X2221310Y-21201690D01*
X2221310Y-21201690D02*
X2221310Y-21277881D01*
X2221310Y-21277881D02*
X2230833Y-21296929D01*
X2230833Y-21296929D02*
X2240357Y-21306452D01*
X2240357Y-21306452D02*
X2259405Y-21315976D01*
X2259405Y-21315976D02*
X2297500Y-21315976D01*
X2297500Y-21315976D02*
X2316548Y-21306452D01*
X2316548Y-21306452D02*
X2326071Y-21296929D01*
X2326071Y-21296929D02*
X2335595Y-21277881D01*
X2335595Y-21277881D02*
X2335595Y-21230262D01*
X2335595Y-21230262D02*
X2326071Y-21211214D01*
X2326071Y-21211214D02*
X2316548Y-21201690D01*
X2316548Y-21201690D02*
X2297500Y-21192167D01*
X2297500Y-21192167D02*
X2259405Y-21192167D01*
X2259405Y-21192167D02*
X2240357Y-21201690D01*
X2240357Y-21201690D02*
X2230833Y-21211214D01*
X2230833Y-21211214D02*
X2221310Y-21230262D01*
X2459405Y-21115976D02*
X2478452Y-21115976D01*
X2478452Y-21115976D02*
X2497500Y-21125500D01*
X2497500Y-21125500D02*
X2507024Y-21135024D01*
X2507024Y-21135024D02*
X2516548Y-21154071D01*
X2516548Y-21154071D02*
X2526071Y-21192167D01*
X2526071Y-21192167D02*
X2526071Y-21239786D01*
X2526071Y-21239786D02*
X2516548Y-21277881D01*
X2516548Y-21277881D02*
X2507024Y-21296929D01*
X2507024Y-21296929D02*
X2497500Y-21306452D01*
X2497500Y-21306452D02*
X2478452Y-21315976D01*
X2478452Y-21315976D02*
X2459405Y-21315976D01*
X2459405Y-21315976D02*
X2440357Y-21306452D01*
X2440357Y-21306452D02*
X2430833Y-21296929D01*
X2430833Y-21296929D02*
X2421310Y-21277881D01*
X2421310Y-21277881D02*
X2411786Y-21239786D01*
X2411786Y-21239786D02*
X2411786Y-21192167D01*
X2411786Y-21192167D02*
X2421310Y-21154071D01*
X2421310Y-21154071D02*
X2430833Y-21135024D01*
X2430833Y-21135024D02*
X2440357Y-21125500D01*
X2440357Y-21125500D02*
X2459405Y-21115976D01*
X2649881Y-21115976D02*
X2668929Y-21115976D01*
X2668929Y-21115976D02*
X2687976Y-21125500D01*
X2687976Y-21125500D02*
X2697500Y-21135024D01*
X2697500Y-21135024D02*
X2707024Y-21154071D01*
X2707024Y-21154071D02*
X2716548Y-21192167D01*
X2716548Y-21192167D02*
X2716548Y-21239786D01*
X2716548Y-21239786D02*
X2707024Y-21277881D01*
X2707024Y-21277881D02*
X2697500Y-21296929D01*
X2697500Y-21296929D02*
X2687976Y-21306452D01*
X2687976Y-21306452D02*
X2668929Y-21315976D01*
X2668929Y-21315976D02*
X2649881Y-21315976D01*
X2649881Y-21315976D02*
X2630833Y-21306452D01*
X2630833Y-21306452D02*
X2621310Y-21296929D01*
X2621310Y-21296929D02*
X2611786Y-21277881D01*
X2611786Y-21277881D02*
X2602262Y-21239786D01*
X2602262Y-21239786D02*
X2602262Y-21192167D01*
X2602262Y-21192167D02*
X2611786Y-21154071D01*
X2611786Y-21154071D02*
X2621310Y-21135024D01*
X2621310Y-21135024D02*
X2630833Y-21125500D01*
X2630833Y-21125500D02*
X2649881Y-21115976D01*
X2802262Y-21315976D02*
X2802262Y-21182643D01*
X2802262Y-21201690D02*
X2811786Y-21192167D01*
X2811786Y-21192167D02*
X2830833Y-21182643D01*
X2830833Y-21182643D02*
X2859405Y-21182643D01*
X2859405Y-21182643D02*
X2878452Y-21192167D01*
X2878452Y-21192167D02*
X2887976Y-21211214D01*
X2887976Y-21211214D02*
X2887976Y-21315976D01*
X2887976Y-21211214D02*
X2897500Y-21192167D01*
X2897500Y-21192167D02*
X2916548Y-21182643D01*
X2916548Y-21182643D02*
X2945119Y-21182643D01*
X2945119Y-21182643D02*
X2964167Y-21192167D01*
X2964167Y-21192167D02*
X2973690Y-21211214D01*
X2973690Y-21211214D02*
X2973690Y-21315976D01*
X3068929Y-21315976D02*
X3068929Y-21182643D01*
X3068929Y-21201690D02*
X3078452Y-21192167D01*
X3078452Y-21192167D02*
X3097500Y-21182643D01*
X3097500Y-21182643D02*
X3126071Y-21182643D01*
X3126071Y-21182643D02*
X3145119Y-21192167D01*
X3145119Y-21192167D02*
X3154643Y-21211214D01*
X3154643Y-21211214D02*
X3154643Y-21315976D01*
X3154643Y-21211214D02*
X3164167Y-21192167D01*
X3164167Y-21192167D02*
X3183214Y-21182643D01*
X3183214Y-21182643D02*
X3211786Y-21182643D01*
X3211786Y-21182643D02*
X3230833Y-21192167D01*
X3230833Y-21192167D02*
X3240357Y-21211214D01*
X3240357Y-21211214D02*
X3240357Y-21315976D01*
X3598452Y-21106452D02*
X3427024Y-21363595D01*
X3823214Y-21115976D02*
X3842262Y-21115976D01*
X3842262Y-21115976D02*
X3861310Y-21125500D01*
X3861310Y-21125500D02*
X3870833Y-21135024D01*
X3870833Y-21135024D02*
X3880357Y-21154071D01*
X3880357Y-21154071D02*
X3889881Y-21192167D01*
X3889881Y-21192167D02*
X3889881Y-21239786D01*
X3889881Y-21239786D02*
X3880357Y-21277881D01*
X3880357Y-21277881D02*
X3870833Y-21296929D01*
X3870833Y-21296929D02*
X3861310Y-21306452D01*
X3861310Y-21306452D02*
X3842262Y-21315976D01*
X3842262Y-21315976D02*
X3823214Y-21315976D01*
X3823214Y-21315976D02*
X3804167Y-21306452D01*
X3804167Y-21306452D02*
X3794643Y-21296929D01*
X3794643Y-21296929D02*
X3785119Y-21277881D01*
X3785119Y-21277881D02*
X3775595Y-21239786D01*
X3775595Y-21239786D02*
X3775595Y-21192167D01*
X3775595Y-21192167D02*
X3785119Y-21154071D01*
X3785119Y-21154071D02*
X3794643Y-21135024D01*
X3794643Y-21135024D02*
X3804167Y-21125500D01*
X3804167Y-21125500D02*
X3823214Y-21115976D01*
X3975595Y-21296929D02*
X3985119Y-21306452D01*
X3985119Y-21306452D02*
X3975595Y-21315976D01*
X3975595Y-21315976D02*
X3966071Y-21306452D01*
X3966071Y-21306452D02*
X3975595Y-21296929D01*
X3975595Y-21296929D02*
X3975595Y-21315976D01*
X4108929Y-21115976D02*
X4127976Y-21115976D01*
X4127976Y-21115976D02*
X4147024Y-21125500D01*
X4147024Y-21125500D02*
X4156548Y-21135024D01*
X4156548Y-21135024D02*
X4166071Y-21154071D01*
X4166071Y-21154071D02*
X4175595Y-21192167D01*
X4175595Y-21192167D02*
X4175595Y-21239786D01*
X4175595Y-21239786D02*
X4166071Y-21277881D01*
X4166071Y-21277881D02*
X4156548Y-21296929D01*
X4156548Y-21296929D02*
X4147024Y-21306452D01*
X4147024Y-21306452D02*
X4127976Y-21315976D01*
X4127976Y-21315976D02*
X4108929Y-21315976D01*
X4108929Y-21315976D02*
X4089881Y-21306452D01*
X4089881Y-21306452D02*
X4080357Y-21296929D01*
X4080357Y-21296929D02*
X4070833Y-21277881D01*
X4070833Y-21277881D02*
X4061310Y-21239786D01*
X4061310Y-21239786D02*
X4061310Y-21192167D01*
X4061310Y-21192167D02*
X4070833Y-21154071D01*
X4070833Y-21154071D02*
X4080357Y-21135024D01*
X4080357Y-21135024D02*
X4089881Y-21125500D01*
X4089881Y-21125500D02*
X4108929Y-21115976D01*
X4251786Y-21135024D02*
X4261310Y-21125500D01*
X4261310Y-21125500D02*
X4280357Y-21115976D01*
X4280357Y-21115976D02*
X4327976Y-21115976D01*
X4327976Y-21115976D02*
X4347024Y-21125500D01*
X4347024Y-21125500D02*
X4356548Y-21135024D01*
X4356548Y-21135024D02*
X4366072Y-21154071D01*
X4366072Y-21154071D02*
X4366072Y-21173119D01*
X4366072Y-21173119D02*
X4356548Y-21201690D01*
X4356548Y-21201690D02*
X4242262Y-21315976D01*
X4242262Y-21315976D02*
X4366072Y-21315976D01*
X4432738Y-21115976D02*
X4556548Y-21115976D01*
X4556548Y-21115976D02*
X4489881Y-21192167D01*
X4489881Y-21192167D02*
X4518453Y-21192167D01*
X4518453Y-21192167D02*
X4537500Y-21201690D01*
X4537500Y-21201690D02*
X4547024Y-21211214D01*
X4547024Y-21211214D02*
X4556548Y-21230262D01*
X4556548Y-21230262D02*
X4556548Y-21277881D01*
X4556548Y-21277881D02*
X4547024Y-21296929D01*
X4547024Y-21296929D02*
X4537500Y-21306452D01*
X4537500Y-21306452D02*
X4518453Y-21315976D01*
X4518453Y-21315976D02*
X4461310Y-21315976D01*
X4461310Y-21315976D02*
X4442262Y-21306452D01*
X4442262Y-21306452D02*
X4432738Y-21296929D01*
X4727976Y-21115976D02*
X4689881Y-21115976D01*
X4689881Y-21115976D02*
X4670833Y-21125500D01*
X4670833Y-21125500D02*
X4661310Y-21135024D01*
X4661310Y-21135024D02*
X4642262Y-21163595D01*
X4642262Y-21163595D02*
X4632738Y-21201690D01*
X4632738Y-21201690D02*
X4632738Y-21277881D01*
X4632738Y-21277881D02*
X4642262Y-21296929D01*
X4642262Y-21296929D02*
X4651786Y-21306452D01*
X4651786Y-21306452D02*
X4670833Y-21315976D01*
X4670833Y-21315976D02*
X4708929Y-21315976D01*
X4708929Y-21315976D02*
X4727976Y-21306452D01*
X4727976Y-21306452D02*
X4737500Y-21296929D01*
X4737500Y-21296929D02*
X4747024Y-21277881D01*
X4747024Y-21277881D02*
X4747024Y-21230262D01*
X4747024Y-21230262D02*
X4737500Y-21211214D01*
X4737500Y-21211214D02*
X4727976Y-21201690D01*
X4727976Y-21201690D02*
X4708929Y-21192167D01*
X4708929Y-21192167D02*
X4670833Y-21192167D01*
X4670833Y-21192167D02*
X4651786Y-21201690D01*
X4651786Y-21201690D02*
X4642262Y-21211214D01*
X4642262Y-21211214D02*
X4632738Y-21230262D01*
X4823214Y-21115976D02*
X4823214Y-21154071D01*
X4899405Y-21115976D02*
X4899405Y-21154071D01*
X5162262Y-21392167D02*
X5152738Y-21382643D01*
X5152738Y-21382643D02*
X5133691Y-21354071D01*
X5133691Y-21354071D02*
X5124167Y-21335024D01*
X5124167Y-21335024D02*
X5114643Y-21306452D01*
X5114643Y-21306452D02*
X5105119Y-21258833D01*
X5105119Y-21258833D02*
X5105119Y-21220738D01*
X5105119Y-21220738D02*
X5114643Y-21173119D01*
X5114643Y-21173119D02*
X5124167Y-21144548D01*
X5124167Y-21144548D02*
X5133691Y-21125500D01*
X5133691Y-21125500D02*
X5152738Y-21096929D01*
X5152738Y-21096929D02*
X5162262Y-21087405D01*
X5343214Y-21315976D02*
X5228929Y-21315976D01*
X5286072Y-21315976D02*
X5286072Y-21115976D01*
X5286072Y-21115976D02*
X5267024Y-21144548D01*
X5267024Y-21144548D02*
X5247976Y-21163595D01*
X5247976Y-21163595D02*
X5228929Y-21173119D01*
X5533691Y-21315976D02*
X5419405Y-21315976D01*
X5476548Y-21315976D02*
X5476548Y-21115976D01*
X5476548Y-21115976D02*
X5457500Y-21144548D01*
X5457500Y-21144548D02*
X5438453Y-21163595D01*
X5438453Y-21163595D02*
X5419405Y-21173119D01*
X5609881Y-21135024D02*
X5619405Y-21125500D01*
X5619405Y-21125500D02*
X5638452Y-21115976D01*
X5638452Y-21115976D02*
X5686072Y-21115976D01*
X5686072Y-21115976D02*
X5705119Y-21125500D01*
X5705119Y-21125500D02*
X5714643Y-21135024D01*
X5714643Y-21135024D02*
X5724167Y-21154071D01*
X5724167Y-21154071D02*
X5724167Y-21173119D01*
X5724167Y-21173119D02*
X5714643Y-21201690D01*
X5714643Y-21201690D02*
X5600357Y-21315976D01*
X5600357Y-21315976D02*
X5724167Y-21315976D01*
X5929881Y-21315976D02*
X5929881Y-21115976D01*
X6015595Y-21315976D02*
X6015595Y-21211214D01*
X6015595Y-21211214D02*
X6006072Y-21192167D01*
X6006072Y-21192167D02*
X5987024Y-21182643D01*
X5987024Y-21182643D02*
X5958452Y-21182643D01*
X5958452Y-21182643D02*
X5939405Y-21192167D01*
X5939405Y-21192167D02*
X5929881Y-21201690D01*
X6139405Y-21315976D02*
X6120357Y-21306452D01*
X6120357Y-21306452D02*
X6110833Y-21296929D01*
X6110833Y-21296929D02*
X6101310Y-21277881D01*
X6101310Y-21277881D02*
X6101310Y-21220738D01*
X6101310Y-21220738D02*
X6110833Y-21201690D01*
X6110833Y-21201690D02*
X6120357Y-21192167D01*
X6120357Y-21192167D02*
X6139405Y-21182643D01*
X6139405Y-21182643D02*
X6167976Y-21182643D01*
X6167976Y-21182643D02*
X6187024Y-21192167D01*
X6187024Y-21192167D02*
X6196548Y-21201690D01*
X6196548Y-21201690D02*
X6206072Y-21220738D01*
X6206072Y-21220738D02*
X6206072Y-21277881D01*
X6206072Y-21277881D02*
X6196548Y-21296929D01*
X6196548Y-21296929D02*
X6187024Y-21306452D01*
X6187024Y-21306452D02*
X6167976Y-21315976D01*
X6167976Y-21315976D02*
X6139405Y-21315976D01*
X6320357Y-21315976D02*
X6301310Y-21306452D01*
X6301310Y-21306452D02*
X6291786Y-21287405D01*
X6291786Y-21287405D02*
X6291786Y-21115976D01*
X6472738Y-21306452D02*
X6453691Y-21315976D01*
X6453691Y-21315976D02*
X6415595Y-21315976D01*
X6415595Y-21315976D02*
X6396548Y-21306452D01*
X6396548Y-21306452D02*
X6387024Y-21287405D01*
X6387024Y-21287405D02*
X6387024Y-21211214D01*
X6387024Y-21211214D02*
X6396548Y-21192167D01*
X6396548Y-21192167D02*
X6415595Y-21182643D01*
X6415595Y-21182643D02*
X6453691Y-21182643D01*
X6453691Y-21182643D02*
X6472738Y-21192167D01*
X6472738Y-21192167D02*
X6482262Y-21211214D01*
X6482262Y-21211214D02*
X6482262Y-21230262D01*
X6482262Y-21230262D02*
X6387024Y-21249310D01*
X6558453Y-21306452D02*
X6577500Y-21315976D01*
X6577500Y-21315976D02*
X6615595Y-21315976D01*
X6615595Y-21315976D02*
X6634643Y-21306452D01*
X6634643Y-21306452D02*
X6644167Y-21287405D01*
X6644167Y-21287405D02*
X6644167Y-21277881D01*
X6644167Y-21277881D02*
X6634643Y-21258833D01*
X6634643Y-21258833D02*
X6615595Y-21249310D01*
X6615595Y-21249310D02*
X6587024Y-21249310D01*
X6587024Y-21249310D02*
X6567976Y-21239786D01*
X6567976Y-21239786D02*
X6558453Y-21220738D01*
X6558453Y-21220738D02*
X6558453Y-21211214D01*
X6558453Y-21211214D02*
X6567976Y-21192167D01*
X6567976Y-21192167D02*
X6587024Y-21182643D01*
X6587024Y-21182643D02*
X6615595Y-21182643D01*
X6615595Y-21182643D02*
X6634643Y-21192167D01*
X6710834Y-21392167D02*
X6720357Y-21382643D01*
X6720357Y-21382643D02*
X6739405Y-21354071D01*
X6739405Y-21354071D02*
X6748929Y-21335024D01*
X6748929Y-21335024D02*
X6758453Y-21306452D01*
X6758453Y-21306452D02*
X6767976Y-21258833D01*
X6767976Y-21258833D02*
X6767976Y-21220738D01*
X6767976Y-21220738D02*
X6758453Y-21173119D01*
X6758453Y-21173119D02*
X6748929Y-21144548D01*
X6748929Y-21144548D02*
X6739405Y-21125500D01*
X6739405Y-21125500D02*
X6720357Y-21096929D01*
X6720357Y-21096929D02*
X6710834Y-21087405D01*
X1697500Y-21506500D02*
G75*
G03*
X1697500Y-21506500I-100000J0D01*
G01*
X1926071Y-21379976D02*
X2049881Y-21379976D01*
X2049881Y-21379976D02*
X1983214Y-21456167D01*
X1983214Y-21456167D02*
X2011786Y-21456167D01*
X2011786Y-21456167D02*
X2030833Y-21465690D01*
X2030833Y-21465690D02*
X2040357Y-21475214D01*
X2040357Y-21475214D02*
X2049881Y-21494262D01*
X2049881Y-21494262D02*
X2049881Y-21541881D01*
X2049881Y-21541881D02*
X2040357Y-21560929D01*
X2040357Y-21560929D02*
X2030833Y-21570452D01*
X2030833Y-21570452D02*
X2011786Y-21579976D01*
X2011786Y-21579976D02*
X1954643Y-21579976D01*
X1954643Y-21579976D02*
X1935595Y-21570452D01*
X1935595Y-21570452D02*
X1926071Y-21560929D01*
X2135595Y-21560929D02*
X2145119Y-21570452D01*
X2145119Y-21570452D02*
X2135595Y-21579976D01*
X2135595Y-21579976D02*
X2126071Y-21570452D01*
X2126071Y-21570452D02*
X2135595Y-21560929D01*
X2135595Y-21560929D02*
X2135595Y-21579976D01*
X2221310Y-21399024D02*
X2230833Y-21389500D01*
X2230833Y-21389500D02*
X2249881Y-21379976D01*
X2249881Y-21379976D02*
X2297500Y-21379976D01*
X2297500Y-21379976D02*
X2316548Y-21389500D01*
X2316548Y-21389500D02*
X2326071Y-21399024D01*
X2326071Y-21399024D02*
X2335595Y-21418071D01*
X2335595Y-21418071D02*
X2335595Y-21437119D01*
X2335595Y-21437119D02*
X2326071Y-21465690D01*
X2326071Y-21465690D02*
X2211786Y-21579976D01*
X2211786Y-21579976D02*
X2335595Y-21579976D01*
X2459405Y-21379976D02*
X2478452Y-21379976D01*
X2478452Y-21379976D02*
X2497500Y-21389500D01*
X2497500Y-21389500D02*
X2507024Y-21399024D01*
X2507024Y-21399024D02*
X2516548Y-21418071D01*
X2516548Y-21418071D02*
X2526071Y-21456167D01*
X2526071Y-21456167D02*
X2526071Y-21503786D01*
X2526071Y-21503786D02*
X2516548Y-21541881D01*
X2516548Y-21541881D02*
X2507024Y-21560929D01*
X2507024Y-21560929D02*
X2497500Y-21570452D01*
X2497500Y-21570452D02*
X2478452Y-21579976D01*
X2478452Y-21579976D02*
X2459405Y-21579976D01*
X2459405Y-21579976D02*
X2440357Y-21570452D01*
X2440357Y-21570452D02*
X2430833Y-21560929D01*
X2430833Y-21560929D02*
X2421310Y-21541881D01*
X2421310Y-21541881D02*
X2411786Y-21503786D01*
X2411786Y-21503786D02*
X2411786Y-21456167D01*
X2411786Y-21456167D02*
X2421310Y-21418071D01*
X2421310Y-21418071D02*
X2430833Y-21399024D01*
X2430833Y-21399024D02*
X2440357Y-21389500D01*
X2440357Y-21389500D02*
X2459405Y-21379976D01*
X2649881Y-21379976D02*
X2668929Y-21379976D01*
X2668929Y-21379976D02*
X2687976Y-21389500D01*
X2687976Y-21389500D02*
X2697500Y-21399024D01*
X2697500Y-21399024D02*
X2707024Y-21418071D01*
X2707024Y-21418071D02*
X2716548Y-21456167D01*
X2716548Y-21456167D02*
X2716548Y-21503786D01*
X2716548Y-21503786D02*
X2707024Y-21541881D01*
X2707024Y-21541881D02*
X2697500Y-21560929D01*
X2697500Y-21560929D02*
X2687976Y-21570452D01*
X2687976Y-21570452D02*
X2668929Y-21579976D01*
X2668929Y-21579976D02*
X2649881Y-21579976D01*
X2649881Y-21579976D02*
X2630833Y-21570452D01*
X2630833Y-21570452D02*
X2621310Y-21560929D01*
X2621310Y-21560929D02*
X2611786Y-21541881D01*
X2611786Y-21541881D02*
X2602262Y-21503786D01*
X2602262Y-21503786D02*
X2602262Y-21456167D01*
X2602262Y-21456167D02*
X2611786Y-21418071D01*
X2611786Y-21418071D02*
X2621310Y-21399024D01*
X2621310Y-21399024D02*
X2630833Y-21389500D01*
X2630833Y-21389500D02*
X2649881Y-21379976D01*
X2802262Y-21579976D02*
X2802262Y-21446643D01*
X2802262Y-21465690D02*
X2811786Y-21456167D01*
X2811786Y-21456167D02*
X2830833Y-21446643D01*
X2830833Y-21446643D02*
X2859405Y-21446643D01*
X2859405Y-21446643D02*
X2878452Y-21456167D01*
X2878452Y-21456167D02*
X2887976Y-21475214D01*
X2887976Y-21475214D02*
X2887976Y-21579976D01*
X2887976Y-21475214D02*
X2897500Y-21456167D01*
X2897500Y-21456167D02*
X2916548Y-21446643D01*
X2916548Y-21446643D02*
X2945119Y-21446643D01*
X2945119Y-21446643D02*
X2964167Y-21456167D01*
X2964167Y-21456167D02*
X2973690Y-21475214D01*
X2973690Y-21475214D02*
X2973690Y-21579976D01*
X3068929Y-21579976D02*
X3068929Y-21446643D01*
X3068929Y-21465690D02*
X3078452Y-21456167D01*
X3078452Y-21456167D02*
X3097500Y-21446643D01*
X3097500Y-21446643D02*
X3126071Y-21446643D01*
X3126071Y-21446643D02*
X3145119Y-21456167D01*
X3145119Y-21456167D02*
X3154643Y-21475214D01*
X3154643Y-21475214D02*
X3154643Y-21579976D01*
X3154643Y-21475214D02*
X3164167Y-21456167D01*
X3164167Y-21456167D02*
X3183214Y-21446643D01*
X3183214Y-21446643D02*
X3211786Y-21446643D01*
X3211786Y-21446643D02*
X3230833Y-21456167D01*
X3230833Y-21456167D02*
X3240357Y-21475214D01*
X3240357Y-21475214D02*
X3240357Y-21579976D01*
X3598452Y-21370452D02*
X3427024Y-21627595D01*
X3823214Y-21379976D02*
X3842262Y-21379976D01*
X3842262Y-21379976D02*
X3861310Y-21389500D01*
X3861310Y-21389500D02*
X3870833Y-21399024D01*
X3870833Y-21399024D02*
X3880357Y-21418071D01*
X3880357Y-21418071D02*
X3889881Y-21456167D01*
X3889881Y-21456167D02*
X3889881Y-21503786D01*
X3889881Y-21503786D02*
X3880357Y-21541881D01*
X3880357Y-21541881D02*
X3870833Y-21560929D01*
X3870833Y-21560929D02*
X3861310Y-21570452D01*
X3861310Y-21570452D02*
X3842262Y-21579976D01*
X3842262Y-21579976D02*
X3823214Y-21579976D01*
X3823214Y-21579976D02*
X3804167Y-21570452D01*
X3804167Y-21570452D02*
X3794643Y-21560929D01*
X3794643Y-21560929D02*
X3785119Y-21541881D01*
X3785119Y-21541881D02*
X3775595Y-21503786D01*
X3775595Y-21503786D02*
X3775595Y-21456167D01*
X3775595Y-21456167D02*
X3785119Y-21418071D01*
X3785119Y-21418071D02*
X3794643Y-21399024D01*
X3794643Y-21399024D02*
X3804167Y-21389500D01*
X3804167Y-21389500D02*
X3823214Y-21379976D01*
X3975595Y-21560929D02*
X3985119Y-21570452D01*
X3985119Y-21570452D02*
X3975595Y-21579976D01*
X3975595Y-21579976D02*
X3966071Y-21570452D01*
X3966071Y-21570452D02*
X3975595Y-21560929D01*
X3975595Y-21560929D02*
X3975595Y-21579976D01*
X4175595Y-21579976D02*
X4061310Y-21579976D01*
X4118452Y-21579976D02*
X4118452Y-21379976D01*
X4118452Y-21379976D02*
X4099405Y-21408548D01*
X4099405Y-21408548D02*
X4080357Y-21427595D01*
X4080357Y-21427595D02*
X4061310Y-21437119D01*
X4251786Y-21399024D02*
X4261310Y-21389500D01*
X4261310Y-21389500D02*
X4280357Y-21379976D01*
X4280357Y-21379976D02*
X4327976Y-21379976D01*
X4327976Y-21379976D02*
X4347024Y-21389500D01*
X4347024Y-21389500D02*
X4356548Y-21399024D01*
X4356548Y-21399024D02*
X4366072Y-21418071D01*
X4366072Y-21418071D02*
X4366072Y-21437119D01*
X4366072Y-21437119D02*
X4356548Y-21465690D01*
X4356548Y-21465690D02*
X4242262Y-21579976D01*
X4242262Y-21579976D02*
X4366072Y-21579976D01*
X4537500Y-21379976D02*
X4499405Y-21379976D01*
X4499405Y-21379976D02*
X4480357Y-21389500D01*
X4480357Y-21389500D02*
X4470833Y-21399024D01*
X4470833Y-21399024D02*
X4451786Y-21427595D01*
X4451786Y-21427595D02*
X4442262Y-21465690D01*
X4442262Y-21465690D02*
X4442262Y-21541881D01*
X4442262Y-21541881D02*
X4451786Y-21560929D01*
X4451786Y-21560929D02*
X4461310Y-21570452D01*
X4461310Y-21570452D02*
X4480357Y-21579976D01*
X4480357Y-21579976D02*
X4518453Y-21579976D01*
X4518453Y-21579976D02*
X4537500Y-21570452D01*
X4537500Y-21570452D02*
X4547024Y-21560929D01*
X4547024Y-21560929D02*
X4556548Y-21541881D01*
X4556548Y-21541881D02*
X4556548Y-21494262D01*
X4556548Y-21494262D02*
X4547024Y-21475214D01*
X4547024Y-21475214D02*
X4537500Y-21465690D01*
X4537500Y-21465690D02*
X4518453Y-21456167D01*
X4518453Y-21456167D02*
X4480357Y-21456167D01*
X4480357Y-21456167D02*
X4461310Y-21465690D01*
X4461310Y-21465690D02*
X4451786Y-21475214D01*
X4451786Y-21475214D02*
X4442262Y-21494262D01*
X4680357Y-21379976D02*
X4699405Y-21379976D01*
X4699405Y-21379976D02*
X4718453Y-21389500D01*
X4718453Y-21389500D02*
X4727976Y-21399024D01*
X4727976Y-21399024D02*
X4737500Y-21418071D01*
X4737500Y-21418071D02*
X4747024Y-21456167D01*
X4747024Y-21456167D02*
X4747024Y-21503786D01*
X4747024Y-21503786D02*
X4737500Y-21541881D01*
X4737500Y-21541881D02*
X4727976Y-21560929D01*
X4727976Y-21560929D02*
X4718453Y-21570452D01*
X4718453Y-21570452D02*
X4699405Y-21579976D01*
X4699405Y-21579976D02*
X4680357Y-21579976D01*
X4680357Y-21579976D02*
X4661310Y-21570452D01*
X4661310Y-21570452D02*
X4651786Y-21560929D01*
X4651786Y-21560929D02*
X4642262Y-21541881D01*
X4642262Y-21541881D02*
X4632738Y-21503786D01*
X4632738Y-21503786D02*
X4632738Y-21456167D01*
X4632738Y-21456167D02*
X4642262Y-21418071D01*
X4642262Y-21418071D02*
X4651786Y-21399024D01*
X4651786Y-21399024D02*
X4661310Y-21389500D01*
X4661310Y-21389500D02*
X4680357Y-21379976D01*
X4823214Y-21379976D02*
X4823214Y-21418071D01*
X4899405Y-21379976D02*
X4899405Y-21418071D01*
X5162262Y-21656167D02*
X5152738Y-21646643D01*
X5152738Y-21646643D02*
X5133691Y-21618071D01*
X5133691Y-21618071D02*
X5124167Y-21599024D01*
X5124167Y-21599024D02*
X5114643Y-21570452D01*
X5114643Y-21570452D02*
X5105119Y-21522833D01*
X5105119Y-21522833D02*
X5105119Y-21484738D01*
X5105119Y-21484738D02*
X5114643Y-21437119D01*
X5114643Y-21437119D02*
X5124167Y-21408548D01*
X5124167Y-21408548D02*
X5133691Y-21389500D01*
X5133691Y-21389500D02*
X5152738Y-21360929D01*
X5152738Y-21360929D02*
X5162262Y-21351405D01*
X5276548Y-21379976D02*
X5295595Y-21379976D01*
X5295595Y-21379976D02*
X5314643Y-21389500D01*
X5314643Y-21389500D02*
X5324167Y-21399024D01*
X5324167Y-21399024D02*
X5333691Y-21418071D01*
X5333691Y-21418071D02*
X5343214Y-21456167D01*
X5343214Y-21456167D02*
X5343214Y-21503786D01*
X5343214Y-21503786D02*
X5333691Y-21541881D01*
X5333691Y-21541881D02*
X5324167Y-21560929D01*
X5324167Y-21560929D02*
X5314643Y-21570452D01*
X5314643Y-21570452D02*
X5295595Y-21579976D01*
X5295595Y-21579976D02*
X5276548Y-21579976D01*
X5276548Y-21579976D02*
X5257500Y-21570452D01*
X5257500Y-21570452D02*
X5247976Y-21560929D01*
X5247976Y-21560929D02*
X5238453Y-21541881D01*
X5238453Y-21541881D02*
X5228929Y-21503786D01*
X5228929Y-21503786D02*
X5228929Y-21456167D01*
X5228929Y-21456167D02*
X5238453Y-21418071D01*
X5238453Y-21418071D02*
X5247976Y-21399024D01*
X5247976Y-21399024D02*
X5257500Y-21389500D01*
X5257500Y-21389500D02*
X5276548Y-21379976D01*
X5548929Y-21579976D02*
X5548929Y-21379976D01*
X5634643Y-21579976D02*
X5634643Y-21475214D01*
X5634643Y-21475214D02*
X5625119Y-21456167D01*
X5625119Y-21456167D02*
X5606072Y-21446643D01*
X5606072Y-21446643D02*
X5577500Y-21446643D01*
X5577500Y-21446643D02*
X5558453Y-21456167D01*
X5558453Y-21456167D02*
X5548929Y-21465690D01*
X5758452Y-21579976D02*
X5739405Y-21570452D01*
X5739405Y-21570452D02*
X5729881Y-21560929D01*
X5729881Y-21560929D02*
X5720357Y-21541881D01*
X5720357Y-21541881D02*
X5720357Y-21484738D01*
X5720357Y-21484738D02*
X5729881Y-21465690D01*
X5729881Y-21465690D02*
X5739405Y-21456167D01*
X5739405Y-21456167D02*
X5758452Y-21446643D01*
X5758452Y-21446643D02*
X5787024Y-21446643D01*
X5787024Y-21446643D02*
X5806072Y-21456167D01*
X5806072Y-21456167D02*
X5815595Y-21465690D01*
X5815595Y-21465690D02*
X5825119Y-21484738D01*
X5825119Y-21484738D02*
X5825119Y-21541881D01*
X5825119Y-21541881D02*
X5815595Y-21560929D01*
X5815595Y-21560929D02*
X5806072Y-21570452D01*
X5806072Y-21570452D02*
X5787024Y-21579976D01*
X5787024Y-21579976D02*
X5758452Y-21579976D01*
X5939405Y-21579976D02*
X5920357Y-21570452D01*
X5920357Y-21570452D02*
X5910833Y-21551405D01*
X5910833Y-21551405D02*
X5910833Y-21379976D01*
X6091786Y-21570452D02*
X6072738Y-21579976D01*
X6072738Y-21579976D02*
X6034643Y-21579976D01*
X6034643Y-21579976D02*
X6015595Y-21570452D01*
X6015595Y-21570452D02*
X6006072Y-21551405D01*
X6006072Y-21551405D02*
X6006072Y-21475214D01*
X6006072Y-21475214D02*
X6015595Y-21456167D01*
X6015595Y-21456167D02*
X6034643Y-21446643D01*
X6034643Y-21446643D02*
X6072738Y-21446643D01*
X6072738Y-21446643D02*
X6091786Y-21456167D01*
X6091786Y-21456167D02*
X6101310Y-21475214D01*
X6101310Y-21475214D02*
X6101310Y-21494262D01*
X6101310Y-21494262D02*
X6006072Y-21513310D01*
X6177500Y-21570452D02*
X6196548Y-21579976D01*
X6196548Y-21579976D02*
X6234643Y-21579976D01*
X6234643Y-21579976D02*
X6253691Y-21570452D01*
X6253691Y-21570452D02*
X6263214Y-21551405D01*
X6263214Y-21551405D02*
X6263214Y-21541881D01*
X6263214Y-21541881D02*
X6253691Y-21522833D01*
X6253691Y-21522833D02*
X6234643Y-21513310D01*
X6234643Y-21513310D02*
X6206072Y-21513310D01*
X6206072Y-21513310D02*
X6187024Y-21503786D01*
X6187024Y-21503786D02*
X6177500Y-21484738D01*
X6177500Y-21484738D02*
X6177500Y-21475214D01*
X6177500Y-21475214D02*
X6187024Y-21456167D01*
X6187024Y-21456167D02*
X6206072Y-21446643D01*
X6206072Y-21446643D02*
X6234643Y-21446643D01*
X6234643Y-21446643D02*
X6253691Y-21456167D01*
X6468929Y-21503786D02*
X6621310Y-21503786D01*
X6545119Y-21579976D02*
X6545119Y-21427595D01*
X6922262Y-21446643D02*
X6922262Y-21579976D01*
X6874643Y-21370452D02*
X6827024Y-21513310D01*
X6827024Y-21513310D02*
X6950833Y-21513310D01*
X7137500Y-21570452D02*
X7156548Y-21579976D01*
X7156548Y-21579976D02*
X7194643Y-21579976D01*
X7194643Y-21579976D02*
X7213691Y-21570452D01*
X7213691Y-21570452D02*
X7223214Y-21551405D01*
X7223214Y-21551405D02*
X7223214Y-21541881D01*
X7223214Y-21541881D02*
X7213691Y-21522833D01*
X7213691Y-21522833D02*
X7194643Y-21513310D01*
X7194643Y-21513310D02*
X7166072Y-21513310D01*
X7166072Y-21513310D02*
X7147024Y-21503786D01*
X7147024Y-21503786D02*
X7137500Y-21484738D01*
X7137500Y-21484738D02*
X7137500Y-21475214D01*
X7137500Y-21475214D02*
X7147024Y-21456167D01*
X7147024Y-21456167D02*
X7166072Y-21446643D01*
X7166072Y-21446643D02*
X7194643Y-21446643D01*
X7194643Y-21446643D02*
X7213691Y-21456167D01*
X7337500Y-21579976D02*
X7318453Y-21570452D01*
X7318453Y-21570452D02*
X7308929Y-21551405D01*
X7308929Y-21551405D02*
X7308929Y-21379976D01*
X7442262Y-21579976D02*
X7423214Y-21570452D01*
X7423214Y-21570452D02*
X7413691Y-21560929D01*
X7413691Y-21560929D02*
X7404167Y-21541881D01*
X7404167Y-21541881D02*
X7404167Y-21484738D01*
X7404167Y-21484738D02*
X7413691Y-21465690D01*
X7413691Y-21465690D02*
X7423214Y-21456167D01*
X7423214Y-21456167D02*
X7442262Y-21446643D01*
X7442262Y-21446643D02*
X7470834Y-21446643D01*
X7470834Y-21446643D02*
X7489881Y-21456167D01*
X7489881Y-21456167D02*
X7499405Y-21465690D01*
X7499405Y-21465690D02*
X7508929Y-21484738D01*
X7508929Y-21484738D02*
X7508929Y-21541881D01*
X7508929Y-21541881D02*
X7499405Y-21560929D01*
X7499405Y-21560929D02*
X7489881Y-21570452D01*
X7489881Y-21570452D02*
X7470834Y-21579976D01*
X7470834Y-21579976D02*
X7442262Y-21579976D01*
X7566072Y-21446643D02*
X7642262Y-21446643D01*
X7594643Y-21379976D02*
X7594643Y-21551405D01*
X7594643Y-21551405D02*
X7604167Y-21570452D01*
X7604167Y-21570452D02*
X7623214Y-21579976D01*
X7623214Y-21579976D02*
X7642262Y-21579976D01*
X7699405Y-21570452D02*
X7718453Y-21579976D01*
X7718453Y-21579976D02*
X7756548Y-21579976D01*
X7756548Y-21579976D02*
X7775595Y-21570452D01*
X7775595Y-21570452D02*
X7785119Y-21551405D01*
X7785119Y-21551405D02*
X7785119Y-21541881D01*
X7785119Y-21541881D02*
X7775595Y-21522833D01*
X7775595Y-21522833D02*
X7756548Y-21513310D01*
X7756548Y-21513310D02*
X7727976Y-21513310D01*
X7727976Y-21513310D02*
X7708929Y-21503786D01*
X7708929Y-21503786D02*
X7699405Y-21484738D01*
X7699405Y-21484738D02*
X7699405Y-21475214D01*
X7699405Y-21475214D02*
X7708929Y-21456167D01*
X7708929Y-21456167D02*
X7727976Y-21446643D01*
X7727976Y-21446643D02*
X7756548Y-21446643D01*
X7756548Y-21446643D02*
X7775595Y-21456167D01*
X7851786Y-21656167D02*
X7861310Y-21646643D01*
X7861310Y-21646643D02*
X7880357Y-21618071D01*
X7880357Y-21618071D02*
X7889881Y-21599024D01*
X7889881Y-21599024D02*
X7899405Y-21570452D01*
X7899405Y-21570452D02*
X7908929Y-21522833D01*
X7908929Y-21522833D02*
X7908929Y-21484738D01*
X7908929Y-21484738D02*
X7899405Y-21437119D01*
X7899405Y-21437119D02*
X7889881Y-21408548D01*
X7889881Y-21408548D02*
X7880357Y-21389500D01*
X7880357Y-21389500D02*
X7861310Y-21360929D01*
X7861310Y-21360929D02*
X7851786Y-21351405D01*
M02*
