M48
; DRILL file {KiCad 7.0.0-rc2-unknown-92a61b187f~165~ubuntu22.04.1} date Fri Feb 10 21:55:46 2023
; FORMAT={-:-/ absolute / metric / decimal}
; #@! TF.CreationDate,2023-02-10T21:55:46-05:00
; #@! TF.GenerationSoftware,Kicad,Pcbnew,7.0.0-rc2-unknown-92a61b187f~165~ubuntu22.04.1
; #@! TF.FileFunction,MixedPlating,1,2
FMAT,2
METRIC
; #@! TA.AperFunction,Plated,PTH,ComponentDrill
T1C0.700
; #@! TA.AperFunction,Plated,PTH,ComponentDrill
T2C1.000
; #@! TA.AperFunction,Plated,PTH,ComponentDrill
T3C1.100
; #@! TA.AperFunction,Plated,PTH,ComponentDrill
T4C1.300
; #@! TA.AperFunction,Plated,PTH,ComponentDrill
T5C2.100
%
G90
G05
T1
X117.31Y-115.73
X117.31Y-124.62
X117.31Y-133.51
T2
X122.5Y-64.5
X122.5Y-93.5
X125.0Y-64.5
X125.0Y-93.5
X127.5Y-64.5
X127.5Y-93.5
X132.225Y-77.63
X134.765Y-77.63
X137.305Y-77.63
X139.845Y-77.63
X142.385Y-77.63
X144.925Y-77.63
X147.465Y-77.63
X150.005Y-77.63
X152.545Y-77.63
X155.085Y-77.63
X157.625Y-77.63
X160.165Y-77.63
X162.705Y-77.63
X165.245Y-77.63
X167.785Y-77.63
X172.5Y-64.5
X172.5Y-93.5
X175.0Y-64.5
X175.0Y-93.5
X177.5Y-64.5
X177.5Y-93.5
T4
X120.0Y-73.0
X120.0Y-85.0
X125.0Y-73.0
X125.0Y-85.0
X130.0Y-73.0
X130.0Y-85.0
X170.0Y-73.0
X170.0Y-85.0
X175.0Y-73.0
X175.0Y-85.0
X180.0Y-73.0
X180.0Y-85.0
T5
X125.0Y-137.3
X125.0Y-142.0
X125.0Y-146.7
X175.0Y-137.3
X175.0Y-142.0
X175.0Y-146.7
T3
X120.2Y-57.35G85X120.2Y-56.65
G05
X120.2Y-100.65G85X120.2Y-101.35
G05
X129.8Y-57.35G85X129.8Y-56.65
G05
X129.8Y-100.65G85X129.8Y-101.35
G05
X170.2Y-57.35G85X170.2Y-56.65
G05
X170.2Y-100.65G85X170.2Y-101.35
G05
X179.8Y-57.35G85X179.8Y-56.65
G05
X179.8Y-100.65G85X179.8Y-101.35
G05
T0
M30
