G04 #@! TF.GenerationSoftware,KiCad,Pcbnew,7.0.0-rc2-unknown-90e759e738~164~ubuntu22.04.1*
G04 #@! TF.CreationDate,2023-02-04T08:16:59-05:00*
G04 #@! TF.ProjectId,dualvca_b2,6475616c-7663-4615-9f62-322e6b696361,rev?*
G04 #@! TF.SameCoordinates,Original*
G04 #@! TF.FileFunction,Legend,Top*
G04 #@! TF.FilePolarity,Positive*
%FSLAX46Y46*%
G04 Gerber Fmt 4.6, Leading zero omitted, Abs format (unit mm)*
G04 Created by KiCad (PCBNEW 7.0.0-rc2-unknown-90e759e738~164~ubuntu22.04.1) date 2023-02-04 08:16:59*
%MOMM*%
%LPD*%
G01*
G04 APERTURE LIST*
%ADD10C,0.150000*%
%ADD11C,0.120000*%
G04 APERTURE END LIST*
D10*
X144614285Y-136162380D02*
X144614285Y-135162380D01*
X144614285Y-135162380D02*
X144947618Y-135876666D01*
X144947618Y-135876666D02*
X145280951Y-135162380D01*
X145280951Y-135162380D02*
X145280951Y-136162380D01*
X146090475Y-135638571D02*
X145757142Y-135638571D01*
X145757142Y-136162380D02*
X145757142Y-135162380D01*
X145757142Y-135162380D02*
X146233332Y-135162380D01*
X146804761Y-135162380D02*
X146995237Y-135162380D01*
X146995237Y-135162380D02*
X147090475Y-135210000D01*
X147090475Y-135210000D02*
X147185713Y-135305238D01*
X147185713Y-135305238D02*
X147233332Y-135495714D01*
X147233332Y-135495714D02*
X147233332Y-135829047D01*
X147233332Y-135829047D02*
X147185713Y-136019523D01*
X147185713Y-136019523D02*
X147090475Y-136114761D01*
X147090475Y-136114761D02*
X146995237Y-136162380D01*
X146995237Y-136162380D02*
X146804761Y-136162380D01*
X146804761Y-136162380D02*
X146709523Y-136114761D01*
X146709523Y-136114761D02*
X146614285Y-136019523D01*
X146614285Y-136019523D02*
X146566666Y-135829047D01*
X146566666Y-135829047D02*
X146566666Y-135495714D01*
X146566666Y-135495714D02*
X146614285Y-135305238D01*
X146614285Y-135305238D02*
X146709523Y-135210000D01*
X146709523Y-135210000D02*
X146804761Y-135162380D01*
X147614285Y-136114761D02*
X147757142Y-136162380D01*
X147757142Y-136162380D02*
X147995237Y-136162380D01*
X147995237Y-136162380D02*
X148090475Y-136114761D01*
X148090475Y-136114761D02*
X148138094Y-136067142D01*
X148138094Y-136067142D02*
X148185713Y-135971904D01*
X148185713Y-135971904D02*
X148185713Y-135876666D01*
X148185713Y-135876666D02*
X148138094Y-135781428D01*
X148138094Y-135781428D02*
X148090475Y-135733809D01*
X148090475Y-135733809D02*
X147995237Y-135686190D01*
X147995237Y-135686190D02*
X147804761Y-135638571D01*
X147804761Y-135638571D02*
X147709523Y-135590952D01*
X147709523Y-135590952D02*
X147661904Y-135543333D01*
X147661904Y-135543333D02*
X147614285Y-135448095D01*
X147614285Y-135448095D02*
X147614285Y-135352857D01*
X147614285Y-135352857D02*
X147661904Y-135257619D01*
X147661904Y-135257619D02*
X147709523Y-135210000D01*
X147709523Y-135210000D02*
X147804761Y-135162380D01*
X147804761Y-135162380D02*
X148042856Y-135162380D01*
X148042856Y-135162380D02*
X148185713Y-135210000D01*
X149214285Y-136162380D02*
X149214285Y-135162380D01*
X149214285Y-135162380D02*
X149452380Y-135162380D01*
X149452380Y-135162380D02*
X149595237Y-135210000D01*
X149595237Y-135210000D02*
X149690475Y-135305238D01*
X149690475Y-135305238D02*
X149738094Y-135400476D01*
X149738094Y-135400476D02*
X149785713Y-135590952D01*
X149785713Y-135590952D02*
X149785713Y-135733809D01*
X149785713Y-135733809D02*
X149738094Y-135924285D01*
X149738094Y-135924285D02*
X149690475Y-136019523D01*
X149690475Y-136019523D02*
X149595237Y-136114761D01*
X149595237Y-136114761D02*
X149452380Y-136162380D01*
X149452380Y-136162380D02*
X149214285Y-136162380D01*
X150642856Y-135495714D02*
X150642856Y-136162380D01*
X150214285Y-135495714D02*
X150214285Y-136019523D01*
X150214285Y-136019523D02*
X150261904Y-136114761D01*
X150261904Y-136114761D02*
X150357142Y-136162380D01*
X150357142Y-136162380D02*
X150499999Y-136162380D01*
X150499999Y-136162380D02*
X150595237Y-136114761D01*
X150595237Y-136114761D02*
X150642856Y-136067142D01*
X151547618Y-136162380D02*
X151547618Y-135638571D01*
X151547618Y-135638571D02*
X151499999Y-135543333D01*
X151499999Y-135543333D02*
X151404761Y-135495714D01*
X151404761Y-135495714D02*
X151214285Y-135495714D01*
X151214285Y-135495714D02*
X151119047Y-135543333D01*
X151547618Y-136114761D02*
X151452380Y-136162380D01*
X151452380Y-136162380D02*
X151214285Y-136162380D01*
X151214285Y-136162380D02*
X151119047Y-136114761D01*
X151119047Y-136114761D02*
X151071428Y-136019523D01*
X151071428Y-136019523D02*
X151071428Y-135924285D01*
X151071428Y-135924285D02*
X151119047Y-135829047D01*
X151119047Y-135829047D02*
X151214285Y-135781428D01*
X151214285Y-135781428D02*
X151452380Y-135781428D01*
X151452380Y-135781428D02*
X151547618Y-135733809D01*
X152166666Y-136162380D02*
X152071428Y-136114761D01*
X152071428Y-136114761D02*
X152023809Y-136019523D01*
X152023809Y-136019523D02*
X152023809Y-135162380D01*
X153004762Y-135162380D02*
X153338095Y-136162380D01*
X153338095Y-136162380D02*
X153671428Y-135162380D01*
X154576190Y-136067142D02*
X154528571Y-136114761D01*
X154528571Y-136114761D02*
X154385714Y-136162380D01*
X154385714Y-136162380D02*
X154290476Y-136162380D01*
X154290476Y-136162380D02*
X154147619Y-136114761D01*
X154147619Y-136114761D02*
X154052381Y-136019523D01*
X154052381Y-136019523D02*
X154004762Y-135924285D01*
X154004762Y-135924285D02*
X153957143Y-135733809D01*
X153957143Y-135733809D02*
X153957143Y-135590952D01*
X153957143Y-135590952D02*
X154004762Y-135400476D01*
X154004762Y-135400476D02*
X154052381Y-135305238D01*
X154052381Y-135305238D02*
X154147619Y-135210000D01*
X154147619Y-135210000D02*
X154290476Y-135162380D01*
X154290476Y-135162380D02*
X154385714Y-135162380D01*
X154385714Y-135162380D02*
X154528571Y-135210000D01*
X154528571Y-135210000D02*
X154576190Y-135257619D01*
X154957143Y-135876666D02*
X155433333Y-135876666D01*
X154861905Y-136162380D02*
X155195238Y-135162380D01*
X155195238Y-135162380D02*
X155528571Y-136162380D01*
X145271427Y-137687142D02*
X145223808Y-137734761D01*
X145223808Y-137734761D02*
X145080951Y-137782380D01*
X145080951Y-137782380D02*
X144985713Y-137782380D01*
X144985713Y-137782380D02*
X144842856Y-137734761D01*
X144842856Y-137734761D02*
X144747618Y-137639523D01*
X144747618Y-137639523D02*
X144699999Y-137544285D01*
X144699999Y-137544285D02*
X144652380Y-137353809D01*
X144652380Y-137353809D02*
X144652380Y-137210952D01*
X144652380Y-137210952D02*
X144699999Y-137020476D01*
X144699999Y-137020476D02*
X144747618Y-136925238D01*
X144747618Y-136925238D02*
X144842856Y-136830000D01*
X144842856Y-136830000D02*
X144985713Y-136782380D01*
X144985713Y-136782380D02*
X145080951Y-136782380D01*
X145080951Y-136782380D02*
X145223808Y-136830000D01*
X145223808Y-136830000D02*
X145271427Y-136877619D01*
X145842856Y-137782380D02*
X145747618Y-137734761D01*
X145747618Y-137734761D02*
X145699999Y-137687142D01*
X145699999Y-137687142D02*
X145652380Y-137591904D01*
X145652380Y-137591904D02*
X145652380Y-137306190D01*
X145652380Y-137306190D02*
X145699999Y-137210952D01*
X145699999Y-137210952D02*
X145747618Y-137163333D01*
X145747618Y-137163333D02*
X145842856Y-137115714D01*
X145842856Y-137115714D02*
X145985713Y-137115714D01*
X145985713Y-137115714D02*
X146080951Y-137163333D01*
X146080951Y-137163333D02*
X146128570Y-137210952D01*
X146128570Y-137210952D02*
X146176189Y-137306190D01*
X146176189Y-137306190D02*
X146176189Y-137591904D01*
X146176189Y-137591904D02*
X146128570Y-137687142D01*
X146128570Y-137687142D02*
X146080951Y-137734761D01*
X146080951Y-137734761D02*
X145985713Y-137782380D01*
X145985713Y-137782380D02*
X145842856Y-137782380D01*
X146604761Y-137115714D02*
X146604761Y-137782380D01*
X146604761Y-137210952D02*
X146652380Y-137163333D01*
X146652380Y-137163333D02*
X146747618Y-137115714D01*
X146747618Y-137115714D02*
X146890475Y-137115714D01*
X146890475Y-137115714D02*
X146985713Y-137163333D01*
X146985713Y-137163333D02*
X147033332Y-137258571D01*
X147033332Y-137258571D02*
X147033332Y-137782380D01*
X147366666Y-137115714D02*
X147747618Y-137115714D01*
X147509523Y-136782380D02*
X147509523Y-137639523D01*
X147509523Y-137639523D02*
X147557142Y-137734761D01*
X147557142Y-137734761D02*
X147652380Y-137782380D01*
X147652380Y-137782380D02*
X147747618Y-137782380D01*
X148080952Y-137782380D02*
X148080952Y-137115714D01*
X148080952Y-137306190D02*
X148128571Y-137210952D01*
X148128571Y-137210952D02*
X148176190Y-137163333D01*
X148176190Y-137163333D02*
X148271428Y-137115714D01*
X148271428Y-137115714D02*
X148366666Y-137115714D01*
X148842857Y-137782380D02*
X148747619Y-137734761D01*
X148747619Y-137734761D02*
X148700000Y-137687142D01*
X148700000Y-137687142D02*
X148652381Y-137591904D01*
X148652381Y-137591904D02*
X148652381Y-137306190D01*
X148652381Y-137306190D02*
X148700000Y-137210952D01*
X148700000Y-137210952D02*
X148747619Y-137163333D01*
X148747619Y-137163333D02*
X148842857Y-137115714D01*
X148842857Y-137115714D02*
X148985714Y-137115714D01*
X148985714Y-137115714D02*
X149080952Y-137163333D01*
X149080952Y-137163333D02*
X149128571Y-137210952D01*
X149128571Y-137210952D02*
X149176190Y-137306190D01*
X149176190Y-137306190D02*
X149176190Y-137591904D01*
X149176190Y-137591904D02*
X149128571Y-137687142D01*
X149128571Y-137687142D02*
X149080952Y-137734761D01*
X149080952Y-137734761D02*
X148985714Y-137782380D01*
X148985714Y-137782380D02*
X148842857Y-137782380D01*
X149747619Y-137782380D02*
X149652381Y-137734761D01*
X149652381Y-137734761D02*
X149604762Y-137639523D01*
X149604762Y-137639523D02*
X149604762Y-136782380D01*
X150080953Y-137734761D02*
X150176191Y-137782380D01*
X150176191Y-137782380D02*
X150366667Y-137782380D01*
X150366667Y-137782380D02*
X150461905Y-137734761D01*
X150461905Y-137734761D02*
X150509524Y-137639523D01*
X150509524Y-137639523D02*
X150509524Y-137591904D01*
X150509524Y-137591904D02*
X150461905Y-137496666D01*
X150461905Y-137496666D02*
X150366667Y-137449047D01*
X150366667Y-137449047D02*
X150223810Y-137449047D01*
X150223810Y-137449047D02*
X150128572Y-137401428D01*
X150128572Y-137401428D02*
X150080953Y-137306190D01*
X150080953Y-137306190D02*
X150080953Y-137258571D01*
X150080953Y-137258571D02*
X150128572Y-137163333D01*
X150128572Y-137163333D02*
X150223810Y-137115714D01*
X150223810Y-137115714D02*
X150366667Y-137115714D01*
X150366667Y-137115714D02*
X150461905Y-137163333D01*
X151538096Y-137782380D02*
X151538096Y-136782380D01*
X151538096Y-137163333D02*
X151633334Y-137115714D01*
X151633334Y-137115714D02*
X151823810Y-137115714D01*
X151823810Y-137115714D02*
X151919048Y-137163333D01*
X151919048Y-137163333D02*
X151966667Y-137210952D01*
X151966667Y-137210952D02*
X152014286Y-137306190D01*
X152014286Y-137306190D02*
X152014286Y-137591904D01*
X152014286Y-137591904D02*
X151966667Y-137687142D01*
X151966667Y-137687142D02*
X151919048Y-137734761D01*
X151919048Y-137734761D02*
X151823810Y-137782380D01*
X151823810Y-137782380D02*
X151633334Y-137782380D01*
X151633334Y-137782380D02*
X151538096Y-137734761D01*
X152585715Y-137782380D02*
X152490477Y-137734761D01*
X152490477Y-137734761D02*
X152442858Y-137687142D01*
X152442858Y-137687142D02*
X152395239Y-137591904D01*
X152395239Y-137591904D02*
X152395239Y-137306190D01*
X152395239Y-137306190D02*
X152442858Y-137210952D01*
X152442858Y-137210952D02*
X152490477Y-137163333D01*
X152490477Y-137163333D02*
X152585715Y-137115714D01*
X152585715Y-137115714D02*
X152728572Y-137115714D01*
X152728572Y-137115714D02*
X152823810Y-137163333D01*
X152823810Y-137163333D02*
X152871429Y-137210952D01*
X152871429Y-137210952D02*
X152919048Y-137306190D01*
X152919048Y-137306190D02*
X152919048Y-137591904D01*
X152919048Y-137591904D02*
X152871429Y-137687142D01*
X152871429Y-137687142D02*
X152823810Y-137734761D01*
X152823810Y-137734761D02*
X152728572Y-137782380D01*
X152728572Y-137782380D02*
X152585715Y-137782380D01*
X153776191Y-137782380D02*
X153776191Y-137258571D01*
X153776191Y-137258571D02*
X153728572Y-137163333D01*
X153728572Y-137163333D02*
X153633334Y-137115714D01*
X153633334Y-137115714D02*
X153442858Y-137115714D01*
X153442858Y-137115714D02*
X153347620Y-137163333D01*
X153776191Y-137734761D02*
X153680953Y-137782380D01*
X153680953Y-137782380D02*
X153442858Y-137782380D01*
X153442858Y-137782380D02*
X153347620Y-137734761D01*
X153347620Y-137734761D02*
X153300001Y-137639523D01*
X153300001Y-137639523D02*
X153300001Y-137544285D01*
X153300001Y-137544285D02*
X153347620Y-137449047D01*
X153347620Y-137449047D02*
X153442858Y-137401428D01*
X153442858Y-137401428D02*
X153680953Y-137401428D01*
X153680953Y-137401428D02*
X153776191Y-137353809D01*
X154252382Y-137782380D02*
X154252382Y-137115714D01*
X154252382Y-137306190D02*
X154300001Y-137210952D01*
X154300001Y-137210952D02*
X154347620Y-137163333D01*
X154347620Y-137163333D02*
X154442858Y-137115714D01*
X154442858Y-137115714D02*
X154538096Y-137115714D01*
X155300001Y-137782380D02*
X155300001Y-136782380D01*
X155300001Y-137734761D02*
X155204763Y-137782380D01*
X155204763Y-137782380D02*
X155014287Y-137782380D01*
X155014287Y-137782380D02*
X154919049Y-137734761D01*
X154919049Y-137734761D02*
X154871430Y-137687142D01*
X154871430Y-137687142D02*
X154823811Y-137591904D01*
X154823811Y-137591904D02*
X154823811Y-137306190D01*
X154823811Y-137306190D02*
X154871430Y-137210952D01*
X154871430Y-137210952D02*
X154919049Y-137163333D01*
X154919049Y-137163333D02*
X155014287Y-137115714D01*
X155014287Y-137115714D02*
X155204763Y-137115714D01*
X155204763Y-137115714D02*
X155300001Y-137163333D01*
G04 #@! TO.C,RV101*
X117695535Y-65152714D02*
X117338392Y-65402714D01*
X117695535Y-65581285D02*
X116945535Y-65581285D01*
X116945535Y-65581285D02*
X116945535Y-65295571D01*
X116945535Y-65295571D02*
X116981250Y-65224142D01*
X116981250Y-65224142D02*
X117016964Y-65188428D01*
X117016964Y-65188428D02*
X117088392Y-65152714D01*
X117088392Y-65152714D02*
X117195535Y-65152714D01*
X117195535Y-65152714D02*
X117266964Y-65188428D01*
X117266964Y-65188428D02*
X117302678Y-65224142D01*
X117302678Y-65224142D02*
X117338392Y-65295571D01*
X117338392Y-65295571D02*
X117338392Y-65581285D01*
X116945535Y-64938428D02*
X117695535Y-64688428D01*
X117695535Y-64688428D02*
X116945535Y-64438428D01*
X117695535Y-63795571D02*
X117695535Y-64224142D01*
X117695535Y-64009857D02*
X116945535Y-64009857D01*
X116945535Y-64009857D02*
X117052678Y-64081285D01*
X117052678Y-64081285D02*
X117124107Y-64152714D01*
X117124107Y-64152714D02*
X117159821Y-64224142D01*
X116945535Y-63331285D02*
X116945535Y-63259856D01*
X116945535Y-63259856D02*
X116981250Y-63188428D01*
X116981250Y-63188428D02*
X117016964Y-63152714D01*
X117016964Y-63152714D02*
X117088392Y-63116999D01*
X117088392Y-63116999D02*
X117231250Y-63081285D01*
X117231250Y-63081285D02*
X117409821Y-63081285D01*
X117409821Y-63081285D02*
X117552678Y-63116999D01*
X117552678Y-63116999D02*
X117624107Y-63152714D01*
X117624107Y-63152714D02*
X117659821Y-63188428D01*
X117659821Y-63188428D02*
X117695535Y-63259856D01*
X117695535Y-63259856D02*
X117695535Y-63331285D01*
X117695535Y-63331285D02*
X117659821Y-63402714D01*
X117659821Y-63402714D02*
X117624107Y-63438428D01*
X117624107Y-63438428D02*
X117552678Y-63474142D01*
X117552678Y-63474142D02*
X117409821Y-63509856D01*
X117409821Y-63509856D02*
X117231250Y-63509856D01*
X117231250Y-63509856D02*
X117088392Y-63474142D01*
X117088392Y-63474142D02*
X117016964Y-63438428D01*
X117016964Y-63438428D02*
X116981250Y-63402714D01*
X116981250Y-63402714D02*
X116945535Y-63331285D01*
X117695535Y-62366999D02*
X117695535Y-62795570D01*
X117695535Y-62581285D02*
X116945535Y-62581285D01*
X116945535Y-62581285D02*
X117052678Y-62652713D01*
X117052678Y-62652713D02*
X117124107Y-62724142D01*
X117124107Y-62724142D02*
X117159821Y-62795570D01*
X117695535Y-53619571D02*
X117695535Y-54048142D01*
X117695535Y-53833857D02*
X116945535Y-53833857D01*
X116945535Y-53833857D02*
X117052678Y-53905285D01*
X117052678Y-53905285D02*
X117124107Y-53976714D01*
X117124107Y-53976714D02*
X117159821Y-54048142D01*
X116945535Y-53155285D02*
X116945535Y-53083856D01*
X116945535Y-53083856D02*
X116981250Y-53012428D01*
X116981250Y-53012428D02*
X117016964Y-52976714D01*
X117016964Y-52976714D02*
X117088392Y-52940999D01*
X117088392Y-52940999D02*
X117231250Y-52905285D01*
X117231250Y-52905285D02*
X117409821Y-52905285D01*
X117409821Y-52905285D02*
X117552678Y-52940999D01*
X117552678Y-52940999D02*
X117624107Y-52976714D01*
X117624107Y-52976714D02*
X117659821Y-53012428D01*
X117659821Y-53012428D02*
X117695535Y-53083856D01*
X117695535Y-53083856D02*
X117695535Y-53155285D01*
X117695535Y-53155285D02*
X117659821Y-53226714D01*
X117659821Y-53226714D02*
X117624107Y-53262428D01*
X117624107Y-53262428D02*
X117552678Y-53298142D01*
X117552678Y-53298142D02*
X117409821Y-53333856D01*
X117409821Y-53333856D02*
X117231250Y-53333856D01*
X117231250Y-53333856D02*
X117088392Y-53298142D01*
X117088392Y-53298142D02*
X117016964Y-53262428D01*
X117016964Y-53262428D02*
X116981250Y-53226714D01*
X116981250Y-53226714D02*
X116945535Y-53155285D01*
X116945535Y-52440999D02*
X116945535Y-52369570D01*
X116945535Y-52369570D02*
X116981250Y-52298142D01*
X116981250Y-52298142D02*
X117016964Y-52262428D01*
X117016964Y-52262428D02*
X117088392Y-52226713D01*
X117088392Y-52226713D02*
X117231250Y-52190999D01*
X117231250Y-52190999D02*
X117409821Y-52190999D01*
X117409821Y-52190999D02*
X117552678Y-52226713D01*
X117552678Y-52226713D02*
X117624107Y-52262428D01*
X117624107Y-52262428D02*
X117659821Y-52298142D01*
X117659821Y-52298142D02*
X117695535Y-52369570D01*
X117695535Y-52369570D02*
X117695535Y-52440999D01*
X117695535Y-52440999D02*
X117659821Y-52512428D01*
X117659821Y-52512428D02*
X117624107Y-52548142D01*
X117624107Y-52548142D02*
X117552678Y-52583856D01*
X117552678Y-52583856D02*
X117409821Y-52619570D01*
X117409821Y-52619570D02*
X117231250Y-52619570D01*
X117231250Y-52619570D02*
X117088392Y-52583856D01*
X117088392Y-52583856D02*
X117016964Y-52548142D01*
X117016964Y-52548142D02*
X116981250Y-52512428D01*
X116981250Y-52512428D02*
X116945535Y-52440999D01*
X117695535Y-51869570D02*
X116945535Y-51869570D01*
X117409821Y-51798142D02*
X117695535Y-51583856D01*
X117195535Y-51583856D02*
X117481250Y-51869570D01*
G04 #@! TO.C,RV105*
X165045535Y-57660714D02*
X164688392Y-57910714D01*
X165045535Y-58089285D02*
X164295535Y-58089285D01*
X164295535Y-58089285D02*
X164295535Y-57803571D01*
X164295535Y-57803571D02*
X164331250Y-57732142D01*
X164331250Y-57732142D02*
X164366964Y-57696428D01*
X164366964Y-57696428D02*
X164438392Y-57660714D01*
X164438392Y-57660714D02*
X164545535Y-57660714D01*
X164545535Y-57660714D02*
X164616964Y-57696428D01*
X164616964Y-57696428D02*
X164652678Y-57732142D01*
X164652678Y-57732142D02*
X164688392Y-57803571D01*
X164688392Y-57803571D02*
X164688392Y-58089285D01*
X164295535Y-57446428D02*
X165045535Y-57196428D01*
X165045535Y-57196428D02*
X164295535Y-56946428D01*
X165045535Y-56303571D02*
X165045535Y-56732142D01*
X165045535Y-56517857D02*
X164295535Y-56517857D01*
X164295535Y-56517857D02*
X164402678Y-56589285D01*
X164402678Y-56589285D02*
X164474107Y-56660714D01*
X164474107Y-56660714D02*
X164509821Y-56732142D01*
X164295535Y-55839285D02*
X164295535Y-55767856D01*
X164295535Y-55767856D02*
X164331250Y-55696428D01*
X164331250Y-55696428D02*
X164366964Y-55660714D01*
X164366964Y-55660714D02*
X164438392Y-55624999D01*
X164438392Y-55624999D02*
X164581250Y-55589285D01*
X164581250Y-55589285D02*
X164759821Y-55589285D01*
X164759821Y-55589285D02*
X164902678Y-55624999D01*
X164902678Y-55624999D02*
X164974107Y-55660714D01*
X164974107Y-55660714D02*
X165009821Y-55696428D01*
X165009821Y-55696428D02*
X165045535Y-55767856D01*
X165045535Y-55767856D02*
X165045535Y-55839285D01*
X165045535Y-55839285D02*
X165009821Y-55910714D01*
X165009821Y-55910714D02*
X164974107Y-55946428D01*
X164974107Y-55946428D02*
X164902678Y-55982142D01*
X164902678Y-55982142D02*
X164759821Y-56017856D01*
X164759821Y-56017856D02*
X164581250Y-56017856D01*
X164581250Y-56017856D02*
X164438392Y-55982142D01*
X164438392Y-55982142D02*
X164366964Y-55946428D01*
X164366964Y-55946428D02*
X164331250Y-55910714D01*
X164331250Y-55910714D02*
X164295535Y-55839285D01*
X164295535Y-54910713D02*
X164295535Y-55267856D01*
X164295535Y-55267856D02*
X164652678Y-55303570D01*
X164652678Y-55303570D02*
X164616964Y-55267856D01*
X164616964Y-55267856D02*
X164581250Y-55196428D01*
X164581250Y-55196428D02*
X164581250Y-55017856D01*
X164581250Y-55017856D02*
X164616964Y-54946428D01*
X164616964Y-54946428D02*
X164652678Y-54910713D01*
X164652678Y-54910713D02*
X164724107Y-54874999D01*
X164724107Y-54874999D02*
X164902678Y-54874999D01*
X164902678Y-54874999D02*
X164974107Y-54910713D01*
X164974107Y-54910713D02*
X165009821Y-54946428D01*
X165009821Y-54946428D02*
X165045535Y-55017856D01*
X165045535Y-55017856D02*
X165045535Y-55196428D01*
X165045535Y-55196428D02*
X165009821Y-55267856D01*
X165009821Y-55267856D02*
X164974107Y-55303570D01*
X175275535Y-57803571D02*
X175275535Y-58232142D01*
X175275535Y-58017857D02*
X174525535Y-58017857D01*
X174525535Y-58017857D02*
X174632678Y-58089285D01*
X174632678Y-58089285D02*
X174704107Y-58160714D01*
X174704107Y-58160714D02*
X174739821Y-58232142D01*
X174525535Y-57339285D02*
X174525535Y-57267856D01*
X174525535Y-57267856D02*
X174561250Y-57196428D01*
X174561250Y-57196428D02*
X174596964Y-57160714D01*
X174596964Y-57160714D02*
X174668392Y-57124999D01*
X174668392Y-57124999D02*
X174811250Y-57089285D01*
X174811250Y-57089285D02*
X174989821Y-57089285D01*
X174989821Y-57089285D02*
X175132678Y-57124999D01*
X175132678Y-57124999D02*
X175204107Y-57160714D01*
X175204107Y-57160714D02*
X175239821Y-57196428D01*
X175239821Y-57196428D02*
X175275535Y-57267856D01*
X175275535Y-57267856D02*
X175275535Y-57339285D01*
X175275535Y-57339285D02*
X175239821Y-57410714D01*
X175239821Y-57410714D02*
X175204107Y-57446428D01*
X175204107Y-57446428D02*
X175132678Y-57482142D01*
X175132678Y-57482142D02*
X174989821Y-57517856D01*
X174989821Y-57517856D02*
X174811250Y-57517856D01*
X174811250Y-57517856D02*
X174668392Y-57482142D01*
X174668392Y-57482142D02*
X174596964Y-57446428D01*
X174596964Y-57446428D02*
X174561250Y-57410714D01*
X174561250Y-57410714D02*
X174525535Y-57339285D01*
X174525535Y-56624999D02*
X174525535Y-56553570D01*
X174525535Y-56553570D02*
X174561250Y-56482142D01*
X174561250Y-56482142D02*
X174596964Y-56446428D01*
X174596964Y-56446428D02*
X174668392Y-56410713D01*
X174668392Y-56410713D02*
X174811250Y-56374999D01*
X174811250Y-56374999D02*
X174989821Y-56374999D01*
X174989821Y-56374999D02*
X175132678Y-56410713D01*
X175132678Y-56410713D02*
X175204107Y-56446428D01*
X175204107Y-56446428D02*
X175239821Y-56482142D01*
X175239821Y-56482142D02*
X175275535Y-56553570D01*
X175275535Y-56553570D02*
X175275535Y-56624999D01*
X175275535Y-56624999D02*
X175239821Y-56696428D01*
X175239821Y-56696428D02*
X175204107Y-56732142D01*
X175204107Y-56732142D02*
X175132678Y-56767856D01*
X175132678Y-56767856D02*
X174989821Y-56803570D01*
X174989821Y-56803570D02*
X174811250Y-56803570D01*
X174811250Y-56803570D02*
X174668392Y-56767856D01*
X174668392Y-56767856D02*
X174596964Y-56732142D01*
X174596964Y-56732142D02*
X174561250Y-56696428D01*
X174561250Y-56696428D02*
X174525535Y-56624999D01*
X175275535Y-56053570D02*
X174525535Y-56053570D01*
X174989821Y-55982142D02*
X175275535Y-55767856D01*
X174775535Y-55767856D02*
X175061250Y-56053570D01*
G04 #@! TO.C,TP106*
X119883535Y-126280714D02*
X119883535Y-125852143D01*
X120633535Y-126066428D02*
X119883535Y-126066428D01*
X120633535Y-125602142D02*
X119883535Y-125602142D01*
X119883535Y-125602142D02*
X119883535Y-125316428D01*
X119883535Y-125316428D02*
X119919250Y-125244999D01*
X119919250Y-125244999D02*
X119954964Y-125209285D01*
X119954964Y-125209285D02*
X120026392Y-125173571D01*
X120026392Y-125173571D02*
X120133535Y-125173571D01*
X120133535Y-125173571D02*
X120204964Y-125209285D01*
X120204964Y-125209285D02*
X120240678Y-125244999D01*
X120240678Y-125244999D02*
X120276392Y-125316428D01*
X120276392Y-125316428D02*
X120276392Y-125602142D01*
X120633535Y-124459285D02*
X120633535Y-124887856D01*
X120633535Y-124673571D02*
X119883535Y-124673571D01*
X119883535Y-124673571D02*
X119990678Y-124744999D01*
X119990678Y-124744999D02*
X120062107Y-124816428D01*
X120062107Y-124816428D02*
X120097821Y-124887856D01*
X119883535Y-123994999D02*
X119883535Y-123923570D01*
X119883535Y-123923570D02*
X119919250Y-123852142D01*
X119919250Y-123852142D02*
X119954964Y-123816428D01*
X119954964Y-123816428D02*
X120026392Y-123780713D01*
X120026392Y-123780713D02*
X120169250Y-123744999D01*
X120169250Y-123744999D02*
X120347821Y-123744999D01*
X120347821Y-123744999D02*
X120490678Y-123780713D01*
X120490678Y-123780713D02*
X120562107Y-123816428D01*
X120562107Y-123816428D02*
X120597821Y-123852142D01*
X120597821Y-123852142D02*
X120633535Y-123923570D01*
X120633535Y-123923570D02*
X120633535Y-123994999D01*
X120633535Y-123994999D02*
X120597821Y-124066428D01*
X120597821Y-124066428D02*
X120562107Y-124102142D01*
X120562107Y-124102142D02*
X120490678Y-124137856D01*
X120490678Y-124137856D02*
X120347821Y-124173570D01*
X120347821Y-124173570D02*
X120169250Y-124173570D01*
X120169250Y-124173570D02*
X120026392Y-124137856D01*
X120026392Y-124137856D02*
X119954964Y-124102142D01*
X119954964Y-124102142D02*
X119919250Y-124066428D01*
X119919250Y-124066428D02*
X119883535Y-123994999D01*
X119883535Y-123102142D02*
X119883535Y-123244999D01*
X119883535Y-123244999D02*
X119919250Y-123316427D01*
X119919250Y-123316427D02*
X119954964Y-123352142D01*
X119954964Y-123352142D02*
X120062107Y-123423570D01*
X120062107Y-123423570D02*
X120204964Y-123459284D01*
X120204964Y-123459284D02*
X120490678Y-123459284D01*
X120490678Y-123459284D02*
X120562107Y-123423570D01*
X120562107Y-123423570D02*
X120597821Y-123387856D01*
X120597821Y-123387856D02*
X120633535Y-123316427D01*
X120633535Y-123316427D02*
X120633535Y-123173570D01*
X120633535Y-123173570D02*
X120597821Y-123102142D01*
X120597821Y-123102142D02*
X120562107Y-123066427D01*
X120562107Y-123066427D02*
X120490678Y-123030713D01*
X120490678Y-123030713D02*
X120312107Y-123030713D01*
X120312107Y-123030713D02*
X120240678Y-123066427D01*
X120240678Y-123066427D02*
X120204964Y-123102142D01*
X120204964Y-123102142D02*
X120169250Y-123173570D01*
X120169250Y-123173570D02*
X120169250Y-123316427D01*
X120169250Y-123316427D02*
X120204964Y-123387856D01*
X120204964Y-123387856D02*
X120240678Y-123423570D01*
X120240678Y-123423570D02*
X120312107Y-123459284D01*
X118903250Y-125191428D02*
X118867535Y-125262857D01*
X118867535Y-125262857D02*
X118867535Y-125369999D01*
X118867535Y-125369999D02*
X118903250Y-125477142D01*
X118903250Y-125477142D02*
X118974678Y-125548571D01*
X118974678Y-125548571D02*
X119046107Y-125584285D01*
X119046107Y-125584285D02*
X119188964Y-125619999D01*
X119188964Y-125619999D02*
X119296107Y-125619999D01*
X119296107Y-125619999D02*
X119438964Y-125584285D01*
X119438964Y-125584285D02*
X119510392Y-125548571D01*
X119510392Y-125548571D02*
X119581821Y-125477142D01*
X119581821Y-125477142D02*
X119617535Y-125369999D01*
X119617535Y-125369999D02*
X119617535Y-125298571D01*
X119617535Y-125298571D02*
X119581821Y-125191428D01*
X119581821Y-125191428D02*
X119546107Y-125155714D01*
X119546107Y-125155714D02*
X119296107Y-125155714D01*
X119296107Y-125155714D02*
X119296107Y-125298571D01*
X119617535Y-124834285D02*
X118867535Y-124834285D01*
X118867535Y-124834285D02*
X119617535Y-124405714D01*
X119617535Y-124405714D02*
X118867535Y-124405714D01*
X119617535Y-124048571D02*
X118867535Y-124048571D01*
X118867535Y-124048571D02*
X118867535Y-123870000D01*
X118867535Y-123870000D02*
X118903250Y-123762857D01*
X118903250Y-123762857D02*
X118974678Y-123691428D01*
X118974678Y-123691428D02*
X119046107Y-123655714D01*
X119046107Y-123655714D02*
X119188964Y-123620000D01*
X119188964Y-123620000D02*
X119296107Y-123620000D01*
X119296107Y-123620000D02*
X119438964Y-123655714D01*
X119438964Y-123655714D02*
X119510392Y-123691428D01*
X119510392Y-123691428D02*
X119581821Y-123762857D01*
X119581821Y-123762857D02*
X119617535Y-123870000D01*
X119617535Y-123870000D02*
X119617535Y-124048571D01*
G04 #@! TO.C,RV104*
X135530535Y-102660714D02*
X135173392Y-102910714D01*
X135530535Y-103089285D02*
X134780535Y-103089285D01*
X134780535Y-103089285D02*
X134780535Y-102803571D01*
X134780535Y-102803571D02*
X134816250Y-102732142D01*
X134816250Y-102732142D02*
X134851964Y-102696428D01*
X134851964Y-102696428D02*
X134923392Y-102660714D01*
X134923392Y-102660714D02*
X135030535Y-102660714D01*
X135030535Y-102660714D02*
X135101964Y-102696428D01*
X135101964Y-102696428D02*
X135137678Y-102732142D01*
X135137678Y-102732142D02*
X135173392Y-102803571D01*
X135173392Y-102803571D02*
X135173392Y-103089285D01*
X134780535Y-102446428D02*
X135530535Y-102196428D01*
X135530535Y-102196428D02*
X134780535Y-101946428D01*
X135530535Y-101303571D02*
X135530535Y-101732142D01*
X135530535Y-101517857D02*
X134780535Y-101517857D01*
X134780535Y-101517857D02*
X134887678Y-101589285D01*
X134887678Y-101589285D02*
X134959107Y-101660714D01*
X134959107Y-101660714D02*
X134994821Y-101732142D01*
X134780535Y-100839285D02*
X134780535Y-100767856D01*
X134780535Y-100767856D02*
X134816250Y-100696428D01*
X134816250Y-100696428D02*
X134851964Y-100660714D01*
X134851964Y-100660714D02*
X134923392Y-100624999D01*
X134923392Y-100624999D02*
X135066250Y-100589285D01*
X135066250Y-100589285D02*
X135244821Y-100589285D01*
X135244821Y-100589285D02*
X135387678Y-100624999D01*
X135387678Y-100624999D02*
X135459107Y-100660714D01*
X135459107Y-100660714D02*
X135494821Y-100696428D01*
X135494821Y-100696428D02*
X135530535Y-100767856D01*
X135530535Y-100767856D02*
X135530535Y-100839285D01*
X135530535Y-100839285D02*
X135494821Y-100910714D01*
X135494821Y-100910714D02*
X135459107Y-100946428D01*
X135459107Y-100946428D02*
X135387678Y-100982142D01*
X135387678Y-100982142D02*
X135244821Y-101017856D01*
X135244821Y-101017856D02*
X135066250Y-101017856D01*
X135066250Y-101017856D02*
X134923392Y-100982142D01*
X134923392Y-100982142D02*
X134851964Y-100946428D01*
X134851964Y-100946428D02*
X134816250Y-100910714D01*
X134816250Y-100910714D02*
X134780535Y-100839285D01*
X135030535Y-99946428D02*
X135530535Y-99946428D01*
X134744821Y-100124999D02*
X135280535Y-100303570D01*
X135280535Y-100303570D02*
X135280535Y-99839285D01*
X125275535Y-101803571D02*
X125275535Y-102232142D01*
X125275535Y-102017857D02*
X124525535Y-102017857D01*
X124525535Y-102017857D02*
X124632678Y-102089285D01*
X124632678Y-102089285D02*
X124704107Y-102160714D01*
X124704107Y-102160714D02*
X124739821Y-102232142D01*
X124525535Y-101339285D02*
X124525535Y-101267856D01*
X124525535Y-101267856D02*
X124561250Y-101196428D01*
X124561250Y-101196428D02*
X124596964Y-101160714D01*
X124596964Y-101160714D02*
X124668392Y-101124999D01*
X124668392Y-101124999D02*
X124811250Y-101089285D01*
X124811250Y-101089285D02*
X124989821Y-101089285D01*
X124989821Y-101089285D02*
X125132678Y-101124999D01*
X125132678Y-101124999D02*
X125204107Y-101160714D01*
X125204107Y-101160714D02*
X125239821Y-101196428D01*
X125239821Y-101196428D02*
X125275535Y-101267856D01*
X125275535Y-101267856D02*
X125275535Y-101339285D01*
X125275535Y-101339285D02*
X125239821Y-101410714D01*
X125239821Y-101410714D02*
X125204107Y-101446428D01*
X125204107Y-101446428D02*
X125132678Y-101482142D01*
X125132678Y-101482142D02*
X124989821Y-101517856D01*
X124989821Y-101517856D02*
X124811250Y-101517856D01*
X124811250Y-101517856D02*
X124668392Y-101482142D01*
X124668392Y-101482142D02*
X124596964Y-101446428D01*
X124596964Y-101446428D02*
X124561250Y-101410714D01*
X124561250Y-101410714D02*
X124525535Y-101339285D01*
X124525535Y-100624999D02*
X124525535Y-100553570D01*
X124525535Y-100553570D02*
X124561250Y-100482142D01*
X124561250Y-100482142D02*
X124596964Y-100446428D01*
X124596964Y-100446428D02*
X124668392Y-100410713D01*
X124668392Y-100410713D02*
X124811250Y-100374999D01*
X124811250Y-100374999D02*
X124989821Y-100374999D01*
X124989821Y-100374999D02*
X125132678Y-100410713D01*
X125132678Y-100410713D02*
X125204107Y-100446428D01*
X125204107Y-100446428D02*
X125239821Y-100482142D01*
X125239821Y-100482142D02*
X125275535Y-100553570D01*
X125275535Y-100553570D02*
X125275535Y-100624999D01*
X125275535Y-100624999D02*
X125239821Y-100696428D01*
X125239821Y-100696428D02*
X125204107Y-100732142D01*
X125204107Y-100732142D02*
X125132678Y-100767856D01*
X125132678Y-100767856D02*
X124989821Y-100803570D01*
X124989821Y-100803570D02*
X124811250Y-100803570D01*
X124811250Y-100803570D02*
X124668392Y-100767856D01*
X124668392Y-100767856D02*
X124596964Y-100732142D01*
X124596964Y-100732142D02*
X124561250Y-100696428D01*
X124561250Y-100696428D02*
X124525535Y-100624999D01*
X125275535Y-100053570D02*
X124525535Y-100053570D01*
X124989821Y-99982142D02*
X125275535Y-99767856D01*
X124775535Y-99767856D02*
X125061250Y-100053570D01*
G04 #@! TO.C,SW2*
X174000000Y-134839821D02*
X174107143Y-134875535D01*
X174107143Y-134875535D02*
X174285714Y-134875535D01*
X174285714Y-134875535D02*
X174357143Y-134839821D01*
X174357143Y-134839821D02*
X174392857Y-134804107D01*
X174392857Y-134804107D02*
X174428571Y-134732678D01*
X174428571Y-134732678D02*
X174428571Y-134661250D01*
X174428571Y-134661250D02*
X174392857Y-134589821D01*
X174392857Y-134589821D02*
X174357143Y-134554107D01*
X174357143Y-134554107D02*
X174285714Y-134518392D01*
X174285714Y-134518392D02*
X174142857Y-134482678D01*
X174142857Y-134482678D02*
X174071428Y-134446964D01*
X174071428Y-134446964D02*
X174035714Y-134411250D01*
X174035714Y-134411250D02*
X174000000Y-134339821D01*
X174000000Y-134339821D02*
X174000000Y-134268392D01*
X174000000Y-134268392D02*
X174035714Y-134196964D01*
X174035714Y-134196964D02*
X174071428Y-134161250D01*
X174071428Y-134161250D02*
X174142857Y-134125535D01*
X174142857Y-134125535D02*
X174321428Y-134125535D01*
X174321428Y-134125535D02*
X174428571Y-134161250D01*
X174678571Y-134125535D02*
X174857143Y-134875535D01*
X174857143Y-134875535D02*
X175000000Y-134339821D01*
X175000000Y-134339821D02*
X175142857Y-134875535D01*
X175142857Y-134875535D02*
X175321429Y-134125535D01*
X175571429Y-134196964D02*
X175607143Y-134161250D01*
X175607143Y-134161250D02*
X175678572Y-134125535D01*
X175678572Y-134125535D02*
X175857143Y-134125535D01*
X175857143Y-134125535D02*
X175928572Y-134161250D01*
X175928572Y-134161250D02*
X175964286Y-134196964D01*
X175964286Y-134196964D02*
X176000000Y-134268392D01*
X176000000Y-134268392D02*
X176000000Y-134339821D01*
X176000000Y-134339821D02*
X175964286Y-134446964D01*
X175964286Y-134446964D02*
X175535714Y-134875535D01*
X175535714Y-134875535D02*
X176000000Y-134875535D01*
G04 #@! TO.C,RV106*
X185530535Y-102660714D02*
X185173392Y-102910714D01*
X185530535Y-103089285D02*
X184780535Y-103089285D01*
X184780535Y-103089285D02*
X184780535Y-102803571D01*
X184780535Y-102803571D02*
X184816250Y-102732142D01*
X184816250Y-102732142D02*
X184851964Y-102696428D01*
X184851964Y-102696428D02*
X184923392Y-102660714D01*
X184923392Y-102660714D02*
X185030535Y-102660714D01*
X185030535Y-102660714D02*
X185101964Y-102696428D01*
X185101964Y-102696428D02*
X185137678Y-102732142D01*
X185137678Y-102732142D02*
X185173392Y-102803571D01*
X185173392Y-102803571D02*
X185173392Y-103089285D01*
X184780535Y-102446428D02*
X185530535Y-102196428D01*
X185530535Y-102196428D02*
X184780535Y-101946428D01*
X185530535Y-101303571D02*
X185530535Y-101732142D01*
X185530535Y-101517857D02*
X184780535Y-101517857D01*
X184780535Y-101517857D02*
X184887678Y-101589285D01*
X184887678Y-101589285D02*
X184959107Y-101660714D01*
X184959107Y-101660714D02*
X184994821Y-101732142D01*
X184780535Y-100839285D02*
X184780535Y-100767856D01*
X184780535Y-100767856D02*
X184816250Y-100696428D01*
X184816250Y-100696428D02*
X184851964Y-100660714D01*
X184851964Y-100660714D02*
X184923392Y-100624999D01*
X184923392Y-100624999D02*
X185066250Y-100589285D01*
X185066250Y-100589285D02*
X185244821Y-100589285D01*
X185244821Y-100589285D02*
X185387678Y-100624999D01*
X185387678Y-100624999D02*
X185459107Y-100660714D01*
X185459107Y-100660714D02*
X185494821Y-100696428D01*
X185494821Y-100696428D02*
X185530535Y-100767856D01*
X185530535Y-100767856D02*
X185530535Y-100839285D01*
X185530535Y-100839285D02*
X185494821Y-100910714D01*
X185494821Y-100910714D02*
X185459107Y-100946428D01*
X185459107Y-100946428D02*
X185387678Y-100982142D01*
X185387678Y-100982142D02*
X185244821Y-101017856D01*
X185244821Y-101017856D02*
X185066250Y-101017856D01*
X185066250Y-101017856D02*
X184923392Y-100982142D01*
X184923392Y-100982142D02*
X184851964Y-100946428D01*
X184851964Y-100946428D02*
X184816250Y-100910714D01*
X184816250Y-100910714D02*
X184780535Y-100839285D01*
X184780535Y-99946428D02*
X184780535Y-100089285D01*
X184780535Y-100089285D02*
X184816250Y-100160713D01*
X184816250Y-100160713D02*
X184851964Y-100196428D01*
X184851964Y-100196428D02*
X184959107Y-100267856D01*
X184959107Y-100267856D02*
X185101964Y-100303570D01*
X185101964Y-100303570D02*
X185387678Y-100303570D01*
X185387678Y-100303570D02*
X185459107Y-100267856D01*
X185459107Y-100267856D02*
X185494821Y-100232142D01*
X185494821Y-100232142D02*
X185530535Y-100160713D01*
X185530535Y-100160713D02*
X185530535Y-100017856D01*
X185530535Y-100017856D02*
X185494821Y-99946428D01*
X185494821Y-99946428D02*
X185459107Y-99910713D01*
X185459107Y-99910713D02*
X185387678Y-99874999D01*
X185387678Y-99874999D02*
X185209107Y-99874999D01*
X185209107Y-99874999D02*
X185137678Y-99910713D01*
X185137678Y-99910713D02*
X185101964Y-99946428D01*
X185101964Y-99946428D02*
X185066250Y-100017856D01*
X185066250Y-100017856D02*
X185066250Y-100160713D01*
X185066250Y-100160713D02*
X185101964Y-100232142D01*
X185101964Y-100232142D02*
X185137678Y-100267856D01*
X185137678Y-100267856D02*
X185209107Y-100303570D01*
X175275535Y-101803571D02*
X175275535Y-102232142D01*
X175275535Y-102017857D02*
X174525535Y-102017857D01*
X174525535Y-102017857D02*
X174632678Y-102089285D01*
X174632678Y-102089285D02*
X174704107Y-102160714D01*
X174704107Y-102160714D02*
X174739821Y-102232142D01*
X174525535Y-101339285D02*
X174525535Y-101267856D01*
X174525535Y-101267856D02*
X174561250Y-101196428D01*
X174561250Y-101196428D02*
X174596964Y-101160714D01*
X174596964Y-101160714D02*
X174668392Y-101124999D01*
X174668392Y-101124999D02*
X174811250Y-101089285D01*
X174811250Y-101089285D02*
X174989821Y-101089285D01*
X174989821Y-101089285D02*
X175132678Y-101124999D01*
X175132678Y-101124999D02*
X175204107Y-101160714D01*
X175204107Y-101160714D02*
X175239821Y-101196428D01*
X175239821Y-101196428D02*
X175275535Y-101267856D01*
X175275535Y-101267856D02*
X175275535Y-101339285D01*
X175275535Y-101339285D02*
X175239821Y-101410714D01*
X175239821Y-101410714D02*
X175204107Y-101446428D01*
X175204107Y-101446428D02*
X175132678Y-101482142D01*
X175132678Y-101482142D02*
X174989821Y-101517856D01*
X174989821Y-101517856D02*
X174811250Y-101517856D01*
X174811250Y-101517856D02*
X174668392Y-101482142D01*
X174668392Y-101482142D02*
X174596964Y-101446428D01*
X174596964Y-101446428D02*
X174561250Y-101410714D01*
X174561250Y-101410714D02*
X174525535Y-101339285D01*
X174525535Y-100624999D02*
X174525535Y-100553570D01*
X174525535Y-100553570D02*
X174561250Y-100482142D01*
X174561250Y-100482142D02*
X174596964Y-100446428D01*
X174596964Y-100446428D02*
X174668392Y-100410713D01*
X174668392Y-100410713D02*
X174811250Y-100374999D01*
X174811250Y-100374999D02*
X174989821Y-100374999D01*
X174989821Y-100374999D02*
X175132678Y-100410713D01*
X175132678Y-100410713D02*
X175204107Y-100446428D01*
X175204107Y-100446428D02*
X175239821Y-100482142D01*
X175239821Y-100482142D02*
X175275535Y-100553570D01*
X175275535Y-100553570D02*
X175275535Y-100624999D01*
X175275535Y-100624999D02*
X175239821Y-100696428D01*
X175239821Y-100696428D02*
X175204107Y-100732142D01*
X175204107Y-100732142D02*
X175132678Y-100767856D01*
X175132678Y-100767856D02*
X174989821Y-100803570D01*
X174989821Y-100803570D02*
X174811250Y-100803570D01*
X174811250Y-100803570D02*
X174668392Y-100767856D01*
X174668392Y-100767856D02*
X174596964Y-100732142D01*
X174596964Y-100732142D02*
X174561250Y-100696428D01*
X174561250Y-100696428D02*
X174525535Y-100624999D01*
X175275535Y-100053570D02*
X174525535Y-100053570D01*
X174989821Y-99982142D02*
X175275535Y-99767856D01*
X174775535Y-99767856D02*
X175061250Y-100053570D01*
G04 #@! TO.C,RV103*
X115045535Y-57660714D02*
X114688392Y-57910714D01*
X115045535Y-58089285D02*
X114295535Y-58089285D01*
X114295535Y-58089285D02*
X114295535Y-57803571D01*
X114295535Y-57803571D02*
X114331250Y-57732142D01*
X114331250Y-57732142D02*
X114366964Y-57696428D01*
X114366964Y-57696428D02*
X114438392Y-57660714D01*
X114438392Y-57660714D02*
X114545535Y-57660714D01*
X114545535Y-57660714D02*
X114616964Y-57696428D01*
X114616964Y-57696428D02*
X114652678Y-57732142D01*
X114652678Y-57732142D02*
X114688392Y-57803571D01*
X114688392Y-57803571D02*
X114688392Y-58089285D01*
X114295535Y-57446428D02*
X115045535Y-57196428D01*
X115045535Y-57196428D02*
X114295535Y-56946428D01*
X115045535Y-56303571D02*
X115045535Y-56732142D01*
X115045535Y-56517857D02*
X114295535Y-56517857D01*
X114295535Y-56517857D02*
X114402678Y-56589285D01*
X114402678Y-56589285D02*
X114474107Y-56660714D01*
X114474107Y-56660714D02*
X114509821Y-56732142D01*
X114295535Y-55839285D02*
X114295535Y-55767856D01*
X114295535Y-55767856D02*
X114331250Y-55696428D01*
X114331250Y-55696428D02*
X114366964Y-55660714D01*
X114366964Y-55660714D02*
X114438392Y-55624999D01*
X114438392Y-55624999D02*
X114581250Y-55589285D01*
X114581250Y-55589285D02*
X114759821Y-55589285D01*
X114759821Y-55589285D02*
X114902678Y-55624999D01*
X114902678Y-55624999D02*
X114974107Y-55660714D01*
X114974107Y-55660714D02*
X115009821Y-55696428D01*
X115009821Y-55696428D02*
X115045535Y-55767856D01*
X115045535Y-55767856D02*
X115045535Y-55839285D01*
X115045535Y-55839285D02*
X115009821Y-55910714D01*
X115009821Y-55910714D02*
X114974107Y-55946428D01*
X114974107Y-55946428D02*
X114902678Y-55982142D01*
X114902678Y-55982142D02*
X114759821Y-56017856D01*
X114759821Y-56017856D02*
X114581250Y-56017856D01*
X114581250Y-56017856D02*
X114438392Y-55982142D01*
X114438392Y-55982142D02*
X114366964Y-55946428D01*
X114366964Y-55946428D02*
X114331250Y-55910714D01*
X114331250Y-55910714D02*
X114295535Y-55839285D01*
X114295535Y-55339285D02*
X114295535Y-54874999D01*
X114295535Y-54874999D02*
X114581250Y-55124999D01*
X114581250Y-55124999D02*
X114581250Y-55017856D01*
X114581250Y-55017856D02*
X114616964Y-54946428D01*
X114616964Y-54946428D02*
X114652678Y-54910713D01*
X114652678Y-54910713D02*
X114724107Y-54874999D01*
X114724107Y-54874999D02*
X114902678Y-54874999D01*
X114902678Y-54874999D02*
X114974107Y-54910713D01*
X114974107Y-54910713D02*
X115009821Y-54946428D01*
X115009821Y-54946428D02*
X115045535Y-55017856D01*
X115045535Y-55017856D02*
X115045535Y-55232142D01*
X115045535Y-55232142D02*
X115009821Y-55303570D01*
X115009821Y-55303570D02*
X114974107Y-55339285D01*
X125275535Y-57803571D02*
X125275535Y-58232142D01*
X125275535Y-58017857D02*
X124525535Y-58017857D01*
X124525535Y-58017857D02*
X124632678Y-58089285D01*
X124632678Y-58089285D02*
X124704107Y-58160714D01*
X124704107Y-58160714D02*
X124739821Y-58232142D01*
X124525535Y-57339285D02*
X124525535Y-57267856D01*
X124525535Y-57267856D02*
X124561250Y-57196428D01*
X124561250Y-57196428D02*
X124596964Y-57160714D01*
X124596964Y-57160714D02*
X124668392Y-57124999D01*
X124668392Y-57124999D02*
X124811250Y-57089285D01*
X124811250Y-57089285D02*
X124989821Y-57089285D01*
X124989821Y-57089285D02*
X125132678Y-57124999D01*
X125132678Y-57124999D02*
X125204107Y-57160714D01*
X125204107Y-57160714D02*
X125239821Y-57196428D01*
X125239821Y-57196428D02*
X125275535Y-57267856D01*
X125275535Y-57267856D02*
X125275535Y-57339285D01*
X125275535Y-57339285D02*
X125239821Y-57410714D01*
X125239821Y-57410714D02*
X125204107Y-57446428D01*
X125204107Y-57446428D02*
X125132678Y-57482142D01*
X125132678Y-57482142D02*
X124989821Y-57517856D01*
X124989821Y-57517856D02*
X124811250Y-57517856D01*
X124811250Y-57517856D02*
X124668392Y-57482142D01*
X124668392Y-57482142D02*
X124596964Y-57446428D01*
X124596964Y-57446428D02*
X124561250Y-57410714D01*
X124561250Y-57410714D02*
X124525535Y-57339285D01*
X124525535Y-56624999D02*
X124525535Y-56553570D01*
X124525535Y-56553570D02*
X124561250Y-56482142D01*
X124561250Y-56482142D02*
X124596964Y-56446428D01*
X124596964Y-56446428D02*
X124668392Y-56410713D01*
X124668392Y-56410713D02*
X124811250Y-56374999D01*
X124811250Y-56374999D02*
X124989821Y-56374999D01*
X124989821Y-56374999D02*
X125132678Y-56410713D01*
X125132678Y-56410713D02*
X125204107Y-56446428D01*
X125204107Y-56446428D02*
X125239821Y-56482142D01*
X125239821Y-56482142D02*
X125275535Y-56553570D01*
X125275535Y-56553570D02*
X125275535Y-56624999D01*
X125275535Y-56624999D02*
X125239821Y-56696428D01*
X125239821Y-56696428D02*
X125204107Y-56732142D01*
X125204107Y-56732142D02*
X125132678Y-56767856D01*
X125132678Y-56767856D02*
X124989821Y-56803570D01*
X124989821Y-56803570D02*
X124811250Y-56803570D01*
X124811250Y-56803570D02*
X124668392Y-56767856D01*
X124668392Y-56767856D02*
X124596964Y-56732142D01*
X124596964Y-56732142D02*
X124561250Y-56696428D01*
X124561250Y-56696428D02*
X124525535Y-56624999D01*
X125275535Y-56053570D02*
X124525535Y-56053570D01*
X124989821Y-55982142D02*
X125275535Y-55767856D01*
X124775535Y-55767856D02*
X125061250Y-56053570D01*
G04 #@! TO.C,TP104*
X119883535Y-135170714D02*
X119883535Y-134742143D01*
X120633535Y-134956428D02*
X119883535Y-134956428D01*
X120633535Y-134492142D02*
X119883535Y-134492142D01*
X119883535Y-134492142D02*
X119883535Y-134206428D01*
X119883535Y-134206428D02*
X119919250Y-134134999D01*
X119919250Y-134134999D02*
X119954964Y-134099285D01*
X119954964Y-134099285D02*
X120026392Y-134063571D01*
X120026392Y-134063571D02*
X120133535Y-134063571D01*
X120133535Y-134063571D02*
X120204964Y-134099285D01*
X120204964Y-134099285D02*
X120240678Y-134134999D01*
X120240678Y-134134999D02*
X120276392Y-134206428D01*
X120276392Y-134206428D02*
X120276392Y-134492142D01*
X120633535Y-133349285D02*
X120633535Y-133777856D01*
X120633535Y-133563571D02*
X119883535Y-133563571D01*
X119883535Y-133563571D02*
X119990678Y-133634999D01*
X119990678Y-133634999D02*
X120062107Y-133706428D01*
X120062107Y-133706428D02*
X120097821Y-133777856D01*
X119883535Y-132884999D02*
X119883535Y-132813570D01*
X119883535Y-132813570D02*
X119919250Y-132742142D01*
X119919250Y-132742142D02*
X119954964Y-132706428D01*
X119954964Y-132706428D02*
X120026392Y-132670713D01*
X120026392Y-132670713D02*
X120169250Y-132634999D01*
X120169250Y-132634999D02*
X120347821Y-132634999D01*
X120347821Y-132634999D02*
X120490678Y-132670713D01*
X120490678Y-132670713D02*
X120562107Y-132706428D01*
X120562107Y-132706428D02*
X120597821Y-132742142D01*
X120597821Y-132742142D02*
X120633535Y-132813570D01*
X120633535Y-132813570D02*
X120633535Y-132884999D01*
X120633535Y-132884999D02*
X120597821Y-132956428D01*
X120597821Y-132956428D02*
X120562107Y-132992142D01*
X120562107Y-132992142D02*
X120490678Y-133027856D01*
X120490678Y-133027856D02*
X120347821Y-133063570D01*
X120347821Y-133063570D02*
X120169250Y-133063570D01*
X120169250Y-133063570D02*
X120026392Y-133027856D01*
X120026392Y-133027856D02*
X119954964Y-132992142D01*
X119954964Y-132992142D02*
X119919250Y-132956428D01*
X119919250Y-132956428D02*
X119883535Y-132884999D01*
X120133535Y-131992142D02*
X120633535Y-131992142D01*
X119847821Y-132170713D02*
X120383535Y-132349284D01*
X120383535Y-132349284D02*
X120383535Y-131884999D01*
X119331821Y-134831428D02*
X119331821Y-134260000D01*
X119617535Y-134545714D02*
X119046107Y-134545714D01*
X119617535Y-133510000D02*
X119617535Y-133938571D01*
X119617535Y-133724286D02*
X118867535Y-133724286D01*
X118867535Y-133724286D02*
X118974678Y-133795714D01*
X118974678Y-133795714D02*
X119046107Y-133867143D01*
X119046107Y-133867143D02*
X119081821Y-133938571D01*
X118938964Y-133224285D02*
X118903250Y-133188571D01*
X118903250Y-133188571D02*
X118867535Y-133117143D01*
X118867535Y-133117143D02*
X118867535Y-132938571D01*
X118867535Y-132938571D02*
X118903250Y-132867143D01*
X118903250Y-132867143D02*
X118938964Y-132831428D01*
X118938964Y-132831428D02*
X119010392Y-132795714D01*
X119010392Y-132795714D02*
X119081821Y-132795714D01*
X119081821Y-132795714D02*
X119188964Y-132831428D01*
X119188964Y-132831428D02*
X119617535Y-133260000D01*
X119617535Y-133260000D02*
X119617535Y-132795714D01*
X118867535Y-132581428D02*
X119617535Y-132331428D01*
X119617535Y-132331428D02*
X118867535Y-132081428D01*
G04 #@! TO.C,RV32*
X182855535Y-94811571D02*
X182498392Y-95061571D01*
X182855535Y-95240142D02*
X182105535Y-95240142D01*
X182105535Y-95240142D02*
X182105535Y-94954428D01*
X182105535Y-94954428D02*
X182141250Y-94882999D01*
X182141250Y-94882999D02*
X182176964Y-94847285D01*
X182176964Y-94847285D02*
X182248392Y-94811571D01*
X182248392Y-94811571D02*
X182355535Y-94811571D01*
X182355535Y-94811571D02*
X182426964Y-94847285D01*
X182426964Y-94847285D02*
X182462678Y-94882999D01*
X182462678Y-94882999D02*
X182498392Y-94954428D01*
X182498392Y-94954428D02*
X182498392Y-95240142D01*
X182105535Y-94597285D02*
X182855535Y-94347285D01*
X182855535Y-94347285D02*
X182105535Y-94097285D01*
X182105535Y-93918714D02*
X182105535Y-93454428D01*
X182105535Y-93454428D02*
X182391250Y-93704428D01*
X182391250Y-93704428D02*
X182391250Y-93597285D01*
X182391250Y-93597285D02*
X182426964Y-93525857D01*
X182426964Y-93525857D02*
X182462678Y-93490142D01*
X182462678Y-93490142D02*
X182534107Y-93454428D01*
X182534107Y-93454428D02*
X182712678Y-93454428D01*
X182712678Y-93454428D02*
X182784107Y-93490142D01*
X182784107Y-93490142D02*
X182819821Y-93525857D01*
X182819821Y-93525857D02*
X182855535Y-93597285D01*
X182855535Y-93597285D02*
X182855535Y-93811571D01*
X182855535Y-93811571D02*
X182819821Y-93882999D01*
X182819821Y-93882999D02*
X182784107Y-93918714D01*
X182176964Y-93168713D02*
X182141250Y-93132999D01*
X182141250Y-93132999D02*
X182105535Y-93061571D01*
X182105535Y-93061571D02*
X182105535Y-92882999D01*
X182105535Y-92882999D02*
X182141250Y-92811571D01*
X182141250Y-92811571D02*
X182176964Y-92775856D01*
X182176964Y-92775856D02*
X182248392Y-92740142D01*
X182248392Y-92740142D02*
X182319821Y-92740142D01*
X182319821Y-92740142D02*
X182426964Y-92775856D01*
X182426964Y-92775856D02*
X182855535Y-93204428D01*
X182855535Y-93204428D02*
X182855535Y-92740142D01*
X182855535Y-105987571D02*
X182855535Y-106416142D01*
X182855535Y-106201857D02*
X182105535Y-106201857D01*
X182105535Y-106201857D02*
X182212678Y-106273285D01*
X182212678Y-106273285D02*
X182284107Y-106344714D01*
X182284107Y-106344714D02*
X182319821Y-106416142D01*
X182105535Y-105523285D02*
X182105535Y-105451856D01*
X182105535Y-105451856D02*
X182141250Y-105380428D01*
X182141250Y-105380428D02*
X182176964Y-105344714D01*
X182176964Y-105344714D02*
X182248392Y-105308999D01*
X182248392Y-105308999D02*
X182391250Y-105273285D01*
X182391250Y-105273285D02*
X182569821Y-105273285D01*
X182569821Y-105273285D02*
X182712678Y-105308999D01*
X182712678Y-105308999D02*
X182784107Y-105344714D01*
X182784107Y-105344714D02*
X182819821Y-105380428D01*
X182819821Y-105380428D02*
X182855535Y-105451856D01*
X182855535Y-105451856D02*
X182855535Y-105523285D01*
X182855535Y-105523285D02*
X182819821Y-105594714D01*
X182819821Y-105594714D02*
X182784107Y-105630428D01*
X182784107Y-105630428D02*
X182712678Y-105666142D01*
X182712678Y-105666142D02*
X182569821Y-105701856D01*
X182569821Y-105701856D02*
X182391250Y-105701856D01*
X182391250Y-105701856D02*
X182248392Y-105666142D01*
X182248392Y-105666142D02*
X182176964Y-105630428D01*
X182176964Y-105630428D02*
X182141250Y-105594714D01*
X182141250Y-105594714D02*
X182105535Y-105523285D01*
X182105535Y-104808999D02*
X182105535Y-104737570D01*
X182105535Y-104737570D02*
X182141250Y-104666142D01*
X182141250Y-104666142D02*
X182176964Y-104630428D01*
X182176964Y-104630428D02*
X182248392Y-104594713D01*
X182248392Y-104594713D02*
X182391250Y-104558999D01*
X182391250Y-104558999D02*
X182569821Y-104558999D01*
X182569821Y-104558999D02*
X182712678Y-104594713D01*
X182712678Y-104594713D02*
X182784107Y-104630428D01*
X182784107Y-104630428D02*
X182819821Y-104666142D01*
X182819821Y-104666142D02*
X182855535Y-104737570D01*
X182855535Y-104737570D02*
X182855535Y-104808999D01*
X182855535Y-104808999D02*
X182819821Y-104880428D01*
X182819821Y-104880428D02*
X182784107Y-104916142D01*
X182784107Y-104916142D02*
X182712678Y-104951856D01*
X182712678Y-104951856D02*
X182569821Y-104987570D01*
X182569821Y-104987570D02*
X182391250Y-104987570D01*
X182391250Y-104987570D02*
X182248392Y-104951856D01*
X182248392Y-104951856D02*
X182176964Y-104916142D01*
X182176964Y-104916142D02*
X182141250Y-104880428D01*
X182141250Y-104880428D02*
X182105535Y-104808999D01*
X182855535Y-104237570D02*
X182105535Y-104237570D01*
X182569821Y-104166142D02*
X182855535Y-103951856D01*
X182355535Y-103951856D02*
X182641250Y-104237570D01*
G04 #@! TO.C,TP105*
X119883535Y-117390714D02*
X119883535Y-116962143D01*
X120633535Y-117176428D02*
X119883535Y-117176428D01*
X120633535Y-116712142D02*
X119883535Y-116712142D01*
X119883535Y-116712142D02*
X119883535Y-116426428D01*
X119883535Y-116426428D02*
X119919250Y-116354999D01*
X119919250Y-116354999D02*
X119954964Y-116319285D01*
X119954964Y-116319285D02*
X120026392Y-116283571D01*
X120026392Y-116283571D02*
X120133535Y-116283571D01*
X120133535Y-116283571D02*
X120204964Y-116319285D01*
X120204964Y-116319285D02*
X120240678Y-116354999D01*
X120240678Y-116354999D02*
X120276392Y-116426428D01*
X120276392Y-116426428D02*
X120276392Y-116712142D01*
X120633535Y-115569285D02*
X120633535Y-115997856D01*
X120633535Y-115783571D02*
X119883535Y-115783571D01*
X119883535Y-115783571D02*
X119990678Y-115854999D01*
X119990678Y-115854999D02*
X120062107Y-115926428D01*
X120062107Y-115926428D02*
X120097821Y-115997856D01*
X119883535Y-115104999D02*
X119883535Y-115033570D01*
X119883535Y-115033570D02*
X119919250Y-114962142D01*
X119919250Y-114962142D02*
X119954964Y-114926428D01*
X119954964Y-114926428D02*
X120026392Y-114890713D01*
X120026392Y-114890713D02*
X120169250Y-114854999D01*
X120169250Y-114854999D02*
X120347821Y-114854999D01*
X120347821Y-114854999D02*
X120490678Y-114890713D01*
X120490678Y-114890713D02*
X120562107Y-114926428D01*
X120562107Y-114926428D02*
X120597821Y-114962142D01*
X120597821Y-114962142D02*
X120633535Y-115033570D01*
X120633535Y-115033570D02*
X120633535Y-115104999D01*
X120633535Y-115104999D02*
X120597821Y-115176428D01*
X120597821Y-115176428D02*
X120562107Y-115212142D01*
X120562107Y-115212142D02*
X120490678Y-115247856D01*
X120490678Y-115247856D02*
X120347821Y-115283570D01*
X120347821Y-115283570D02*
X120169250Y-115283570D01*
X120169250Y-115283570D02*
X120026392Y-115247856D01*
X120026392Y-115247856D02*
X119954964Y-115212142D01*
X119954964Y-115212142D02*
X119919250Y-115176428D01*
X119919250Y-115176428D02*
X119883535Y-115104999D01*
X119883535Y-114176427D02*
X119883535Y-114533570D01*
X119883535Y-114533570D02*
X120240678Y-114569284D01*
X120240678Y-114569284D02*
X120204964Y-114533570D01*
X120204964Y-114533570D02*
X120169250Y-114462142D01*
X120169250Y-114462142D02*
X120169250Y-114283570D01*
X120169250Y-114283570D02*
X120204964Y-114212142D01*
X120204964Y-114212142D02*
X120240678Y-114176427D01*
X120240678Y-114176427D02*
X120312107Y-114140713D01*
X120312107Y-114140713D02*
X120490678Y-114140713D01*
X120490678Y-114140713D02*
X120562107Y-114176427D01*
X120562107Y-114176427D02*
X120597821Y-114212142D01*
X120597821Y-114212142D02*
X120633535Y-114283570D01*
X120633535Y-114283570D02*
X120633535Y-114462142D01*
X120633535Y-114462142D02*
X120597821Y-114533570D01*
X120597821Y-114533570D02*
X120562107Y-114569284D01*
X119331821Y-117051428D02*
X119331821Y-116480000D01*
X119617535Y-115730000D02*
X119617535Y-116158571D01*
X119617535Y-115944286D02*
X118867535Y-115944286D01*
X118867535Y-115944286D02*
X118974678Y-116015714D01*
X118974678Y-116015714D02*
X119046107Y-116087143D01*
X119046107Y-116087143D02*
X119081821Y-116158571D01*
X118938964Y-115444285D02*
X118903250Y-115408571D01*
X118903250Y-115408571D02*
X118867535Y-115337143D01*
X118867535Y-115337143D02*
X118867535Y-115158571D01*
X118867535Y-115158571D02*
X118903250Y-115087143D01*
X118903250Y-115087143D02*
X118938964Y-115051428D01*
X118938964Y-115051428D02*
X119010392Y-115015714D01*
X119010392Y-115015714D02*
X119081821Y-115015714D01*
X119081821Y-115015714D02*
X119188964Y-115051428D01*
X119188964Y-115051428D02*
X119617535Y-115480000D01*
X119617535Y-115480000D02*
X119617535Y-115015714D01*
X118867535Y-114801428D02*
X119617535Y-114551428D01*
X119617535Y-114551428D02*
X118867535Y-114301428D01*
G04 #@! TO.C,RV10*
X132855535Y-94811571D02*
X132498392Y-95061571D01*
X132855535Y-95240142D02*
X132105535Y-95240142D01*
X132105535Y-95240142D02*
X132105535Y-94954428D01*
X132105535Y-94954428D02*
X132141250Y-94882999D01*
X132141250Y-94882999D02*
X132176964Y-94847285D01*
X132176964Y-94847285D02*
X132248392Y-94811571D01*
X132248392Y-94811571D02*
X132355535Y-94811571D01*
X132355535Y-94811571D02*
X132426964Y-94847285D01*
X132426964Y-94847285D02*
X132462678Y-94882999D01*
X132462678Y-94882999D02*
X132498392Y-94954428D01*
X132498392Y-94954428D02*
X132498392Y-95240142D01*
X132105535Y-94597285D02*
X132855535Y-94347285D01*
X132855535Y-94347285D02*
X132105535Y-94097285D01*
X132855535Y-93454428D02*
X132855535Y-93882999D01*
X132855535Y-93668714D02*
X132105535Y-93668714D01*
X132105535Y-93668714D02*
X132212678Y-93740142D01*
X132212678Y-93740142D02*
X132284107Y-93811571D01*
X132284107Y-93811571D02*
X132319821Y-93882999D01*
X132105535Y-92990142D02*
X132105535Y-92918713D01*
X132105535Y-92918713D02*
X132141250Y-92847285D01*
X132141250Y-92847285D02*
X132176964Y-92811571D01*
X132176964Y-92811571D02*
X132248392Y-92775856D01*
X132248392Y-92775856D02*
X132391250Y-92740142D01*
X132391250Y-92740142D02*
X132569821Y-92740142D01*
X132569821Y-92740142D02*
X132712678Y-92775856D01*
X132712678Y-92775856D02*
X132784107Y-92811571D01*
X132784107Y-92811571D02*
X132819821Y-92847285D01*
X132819821Y-92847285D02*
X132855535Y-92918713D01*
X132855535Y-92918713D02*
X132855535Y-92990142D01*
X132855535Y-92990142D02*
X132819821Y-93061571D01*
X132819821Y-93061571D02*
X132784107Y-93097285D01*
X132784107Y-93097285D02*
X132712678Y-93132999D01*
X132712678Y-93132999D02*
X132569821Y-93168713D01*
X132569821Y-93168713D02*
X132391250Y-93168713D01*
X132391250Y-93168713D02*
X132248392Y-93132999D01*
X132248392Y-93132999D02*
X132176964Y-93097285D01*
X132176964Y-93097285D02*
X132141250Y-93061571D01*
X132141250Y-93061571D02*
X132105535Y-92990142D01*
X132855535Y-105987571D02*
X132855535Y-106416142D01*
X132855535Y-106201857D02*
X132105535Y-106201857D01*
X132105535Y-106201857D02*
X132212678Y-106273285D01*
X132212678Y-106273285D02*
X132284107Y-106344714D01*
X132284107Y-106344714D02*
X132319821Y-106416142D01*
X132105535Y-105523285D02*
X132105535Y-105451856D01*
X132105535Y-105451856D02*
X132141250Y-105380428D01*
X132141250Y-105380428D02*
X132176964Y-105344714D01*
X132176964Y-105344714D02*
X132248392Y-105308999D01*
X132248392Y-105308999D02*
X132391250Y-105273285D01*
X132391250Y-105273285D02*
X132569821Y-105273285D01*
X132569821Y-105273285D02*
X132712678Y-105308999D01*
X132712678Y-105308999D02*
X132784107Y-105344714D01*
X132784107Y-105344714D02*
X132819821Y-105380428D01*
X132819821Y-105380428D02*
X132855535Y-105451856D01*
X132855535Y-105451856D02*
X132855535Y-105523285D01*
X132855535Y-105523285D02*
X132819821Y-105594714D01*
X132819821Y-105594714D02*
X132784107Y-105630428D01*
X132784107Y-105630428D02*
X132712678Y-105666142D01*
X132712678Y-105666142D02*
X132569821Y-105701856D01*
X132569821Y-105701856D02*
X132391250Y-105701856D01*
X132391250Y-105701856D02*
X132248392Y-105666142D01*
X132248392Y-105666142D02*
X132176964Y-105630428D01*
X132176964Y-105630428D02*
X132141250Y-105594714D01*
X132141250Y-105594714D02*
X132105535Y-105523285D01*
X132105535Y-104808999D02*
X132105535Y-104737570D01*
X132105535Y-104737570D02*
X132141250Y-104666142D01*
X132141250Y-104666142D02*
X132176964Y-104630428D01*
X132176964Y-104630428D02*
X132248392Y-104594713D01*
X132248392Y-104594713D02*
X132391250Y-104558999D01*
X132391250Y-104558999D02*
X132569821Y-104558999D01*
X132569821Y-104558999D02*
X132712678Y-104594713D01*
X132712678Y-104594713D02*
X132784107Y-104630428D01*
X132784107Y-104630428D02*
X132819821Y-104666142D01*
X132819821Y-104666142D02*
X132855535Y-104737570D01*
X132855535Y-104737570D02*
X132855535Y-104808999D01*
X132855535Y-104808999D02*
X132819821Y-104880428D01*
X132819821Y-104880428D02*
X132784107Y-104916142D01*
X132784107Y-104916142D02*
X132712678Y-104951856D01*
X132712678Y-104951856D02*
X132569821Y-104987570D01*
X132569821Y-104987570D02*
X132391250Y-104987570D01*
X132391250Y-104987570D02*
X132248392Y-104951856D01*
X132248392Y-104951856D02*
X132176964Y-104916142D01*
X132176964Y-104916142D02*
X132141250Y-104880428D01*
X132141250Y-104880428D02*
X132105535Y-104808999D01*
X132855535Y-104237570D02*
X132105535Y-104237570D01*
X132569821Y-104166142D02*
X132855535Y-103951856D01*
X132355535Y-103951856D02*
X132641250Y-104237570D01*
G04 #@! TO.C,RV102*
X167695535Y-65152714D02*
X167338392Y-65402714D01*
X167695535Y-65581285D02*
X166945535Y-65581285D01*
X166945535Y-65581285D02*
X166945535Y-65295571D01*
X166945535Y-65295571D02*
X166981250Y-65224142D01*
X166981250Y-65224142D02*
X167016964Y-65188428D01*
X167016964Y-65188428D02*
X167088392Y-65152714D01*
X167088392Y-65152714D02*
X167195535Y-65152714D01*
X167195535Y-65152714D02*
X167266964Y-65188428D01*
X167266964Y-65188428D02*
X167302678Y-65224142D01*
X167302678Y-65224142D02*
X167338392Y-65295571D01*
X167338392Y-65295571D02*
X167338392Y-65581285D01*
X166945535Y-64938428D02*
X167695535Y-64688428D01*
X167695535Y-64688428D02*
X166945535Y-64438428D01*
X167695535Y-63795571D02*
X167695535Y-64224142D01*
X167695535Y-64009857D02*
X166945535Y-64009857D01*
X166945535Y-64009857D02*
X167052678Y-64081285D01*
X167052678Y-64081285D02*
X167124107Y-64152714D01*
X167124107Y-64152714D02*
X167159821Y-64224142D01*
X166945535Y-63331285D02*
X166945535Y-63259856D01*
X166945535Y-63259856D02*
X166981250Y-63188428D01*
X166981250Y-63188428D02*
X167016964Y-63152714D01*
X167016964Y-63152714D02*
X167088392Y-63116999D01*
X167088392Y-63116999D02*
X167231250Y-63081285D01*
X167231250Y-63081285D02*
X167409821Y-63081285D01*
X167409821Y-63081285D02*
X167552678Y-63116999D01*
X167552678Y-63116999D02*
X167624107Y-63152714D01*
X167624107Y-63152714D02*
X167659821Y-63188428D01*
X167659821Y-63188428D02*
X167695535Y-63259856D01*
X167695535Y-63259856D02*
X167695535Y-63331285D01*
X167695535Y-63331285D02*
X167659821Y-63402714D01*
X167659821Y-63402714D02*
X167624107Y-63438428D01*
X167624107Y-63438428D02*
X167552678Y-63474142D01*
X167552678Y-63474142D02*
X167409821Y-63509856D01*
X167409821Y-63509856D02*
X167231250Y-63509856D01*
X167231250Y-63509856D02*
X167088392Y-63474142D01*
X167088392Y-63474142D02*
X167016964Y-63438428D01*
X167016964Y-63438428D02*
X166981250Y-63402714D01*
X166981250Y-63402714D02*
X166945535Y-63331285D01*
X167016964Y-62795570D02*
X166981250Y-62759856D01*
X166981250Y-62759856D02*
X166945535Y-62688428D01*
X166945535Y-62688428D02*
X166945535Y-62509856D01*
X166945535Y-62509856D02*
X166981250Y-62438428D01*
X166981250Y-62438428D02*
X167016964Y-62402713D01*
X167016964Y-62402713D02*
X167088392Y-62366999D01*
X167088392Y-62366999D02*
X167159821Y-62366999D01*
X167159821Y-62366999D02*
X167266964Y-62402713D01*
X167266964Y-62402713D02*
X167695535Y-62831285D01*
X167695535Y-62831285D02*
X167695535Y-62366999D01*
X167695535Y-53619571D02*
X167695535Y-54048142D01*
X167695535Y-53833857D02*
X166945535Y-53833857D01*
X166945535Y-53833857D02*
X167052678Y-53905285D01*
X167052678Y-53905285D02*
X167124107Y-53976714D01*
X167124107Y-53976714D02*
X167159821Y-54048142D01*
X166945535Y-53155285D02*
X166945535Y-53083856D01*
X166945535Y-53083856D02*
X166981250Y-53012428D01*
X166981250Y-53012428D02*
X167016964Y-52976714D01*
X167016964Y-52976714D02*
X167088392Y-52940999D01*
X167088392Y-52940999D02*
X167231250Y-52905285D01*
X167231250Y-52905285D02*
X167409821Y-52905285D01*
X167409821Y-52905285D02*
X167552678Y-52940999D01*
X167552678Y-52940999D02*
X167624107Y-52976714D01*
X167624107Y-52976714D02*
X167659821Y-53012428D01*
X167659821Y-53012428D02*
X167695535Y-53083856D01*
X167695535Y-53083856D02*
X167695535Y-53155285D01*
X167695535Y-53155285D02*
X167659821Y-53226714D01*
X167659821Y-53226714D02*
X167624107Y-53262428D01*
X167624107Y-53262428D02*
X167552678Y-53298142D01*
X167552678Y-53298142D02*
X167409821Y-53333856D01*
X167409821Y-53333856D02*
X167231250Y-53333856D01*
X167231250Y-53333856D02*
X167088392Y-53298142D01*
X167088392Y-53298142D02*
X167016964Y-53262428D01*
X167016964Y-53262428D02*
X166981250Y-53226714D01*
X166981250Y-53226714D02*
X166945535Y-53155285D01*
X166945535Y-52440999D02*
X166945535Y-52369570D01*
X166945535Y-52369570D02*
X166981250Y-52298142D01*
X166981250Y-52298142D02*
X167016964Y-52262428D01*
X167016964Y-52262428D02*
X167088392Y-52226713D01*
X167088392Y-52226713D02*
X167231250Y-52190999D01*
X167231250Y-52190999D02*
X167409821Y-52190999D01*
X167409821Y-52190999D02*
X167552678Y-52226713D01*
X167552678Y-52226713D02*
X167624107Y-52262428D01*
X167624107Y-52262428D02*
X167659821Y-52298142D01*
X167659821Y-52298142D02*
X167695535Y-52369570D01*
X167695535Y-52369570D02*
X167695535Y-52440999D01*
X167695535Y-52440999D02*
X167659821Y-52512428D01*
X167659821Y-52512428D02*
X167624107Y-52548142D01*
X167624107Y-52548142D02*
X167552678Y-52583856D01*
X167552678Y-52583856D02*
X167409821Y-52619570D01*
X167409821Y-52619570D02*
X167231250Y-52619570D01*
X167231250Y-52619570D02*
X167088392Y-52583856D01*
X167088392Y-52583856D02*
X167016964Y-52548142D01*
X167016964Y-52548142D02*
X166981250Y-52512428D01*
X166981250Y-52512428D02*
X166945535Y-52440999D01*
X167695535Y-51869570D02*
X166945535Y-51869570D01*
X167409821Y-51798142D02*
X167695535Y-51583856D01*
X167195535Y-51583856D02*
X167481250Y-51869570D01*
G04 #@! TO.C,SW1*
X124000000Y-134839821D02*
X124107143Y-134875535D01*
X124107143Y-134875535D02*
X124285714Y-134875535D01*
X124285714Y-134875535D02*
X124357143Y-134839821D01*
X124357143Y-134839821D02*
X124392857Y-134804107D01*
X124392857Y-134804107D02*
X124428571Y-134732678D01*
X124428571Y-134732678D02*
X124428571Y-134661250D01*
X124428571Y-134661250D02*
X124392857Y-134589821D01*
X124392857Y-134589821D02*
X124357143Y-134554107D01*
X124357143Y-134554107D02*
X124285714Y-134518392D01*
X124285714Y-134518392D02*
X124142857Y-134482678D01*
X124142857Y-134482678D02*
X124071428Y-134446964D01*
X124071428Y-134446964D02*
X124035714Y-134411250D01*
X124035714Y-134411250D02*
X124000000Y-134339821D01*
X124000000Y-134339821D02*
X124000000Y-134268392D01*
X124000000Y-134268392D02*
X124035714Y-134196964D01*
X124035714Y-134196964D02*
X124071428Y-134161250D01*
X124071428Y-134161250D02*
X124142857Y-134125535D01*
X124142857Y-134125535D02*
X124321428Y-134125535D01*
X124321428Y-134125535D02*
X124428571Y-134161250D01*
X124678571Y-134125535D02*
X124857143Y-134875535D01*
X124857143Y-134875535D02*
X125000000Y-134339821D01*
X125000000Y-134339821D02*
X125142857Y-134875535D01*
X125142857Y-134875535D02*
X125321429Y-134125535D01*
X126000000Y-134875535D02*
X125571429Y-134875535D01*
X125785714Y-134875535D02*
X125785714Y-134125535D01*
X125785714Y-134125535D02*
X125714286Y-134232678D01*
X125714286Y-134232678D02*
X125642857Y-134304107D01*
X125642857Y-134304107D02*
X125571429Y-134339821D01*
D11*
G04 #@! TO.C,RV101*
X120120000Y-63620000D02*
X120120000Y-58900000D01*
X121310000Y-63620000D02*
X120130000Y-63620000D01*
X124210000Y-63620000D02*
X123680000Y-63620000D01*
X126660000Y-63620000D02*
X125830000Y-63620000D01*
X129870000Y-63620000D02*
X128380000Y-63620000D01*
X129870000Y-63620000D02*
X129870000Y-58900000D01*
X120130000Y-55090000D02*
X120130000Y-52030000D01*
X129870000Y-55090000D02*
X129870000Y-52030000D01*
X129870000Y-52030000D02*
X120130000Y-52030000D01*
G04 #@! TO.C,RV105*
X166000000Y-72000000D02*
X166000000Y-48000000D01*
X169000000Y-72000000D02*
X166000000Y-72000000D01*
X174000000Y-72000000D02*
X171000000Y-72000000D01*
X179000000Y-72000000D02*
X176000000Y-72000000D01*
X184000000Y-72000000D02*
X181000000Y-72000000D01*
X166000000Y-48000000D02*
X184000000Y-48000000D01*
X184000000Y-48000000D02*
X184000000Y-72000000D01*
G04 #@! TO.C,TP106*
X118260000Y-124620000D02*
G75*
G03*
X118260000Y-124620000I-950000J0D01*
G01*
G04 #@! TO.C,RV104*
X134000000Y-86000000D02*
X134000000Y-110000000D01*
X131000000Y-86000000D02*
X134000000Y-86000000D01*
X126000000Y-86000000D02*
X129000000Y-86000000D01*
X121000000Y-86000000D02*
X124000000Y-86000000D01*
X116000000Y-86000000D02*
X119000000Y-86000000D01*
X134000000Y-110000000D02*
X116000000Y-110000000D01*
X116000000Y-110000000D02*
X116000000Y-86000000D01*
G04 #@! TO.C,SW2*
X171570000Y-135650000D02*
X178420000Y-135650000D01*
X171570000Y-148340000D02*
X171570000Y-135650000D01*
X178420000Y-135650000D02*
X178420000Y-135660000D01*
X178430000Y-135650000D02*
X178430000Y-148350000D01*
X178430000Y-148350000D02*
X171570000Y-148350000D01*
G04 #@! TO.C,RV106*
X184000000Y-86000000D02*
X184000000Y-110000000D01*
X181000000Y-86000000D02*
X184000000Y-86000000D01*
X176000000Y-86000000D02*
X179000000Y-86000000D01*
X171000000Y-86000000D02*
X174000000Y-86000000D01*
X166000000Y-86000000D02*
X169000000Y-86000000D01*
X184000000Y-110000000D02*
X166000000Y-110000000D01*
X166000000Y-110000000D02*
X166000000Y-86000000D01*
G04 #@! TO.C,RV103*
X116000000Y-72000000D02*
X116000000Y-48000000D01*
X119000000Y-72000000D02*
X116000000Y-72000000D01*
X124000000Y-72000000D02*
X121000000Y-72000000D01*
X129000000Y-72000000D02*
X126000000Y-72000000D01*
X134000000Y-72000000D02*
X131000000Y-72000000D01*
X116000000Y-48000000D02*
X134000000Y-48000000D01*
X134000000Y-48000000D02*
X134000000Y-72000000D01*
G04 #@! TO.C,TP104*
X118260000Y-133510000D02*
G75*
G03*
X118260000Y-133510000I-950000J0D01*
G01*
G04 #@! TO.C,RV32*
X179880000Y-94380000D02*
X179880000Y-99100000D01*
X178690000Y-94380000D02*
X179870000Y-94380000D01*
X175790000Y-94380000D02*
X176320000Y-94380000D01*
X173340000Y-94380000D02*
X174170000Y-94380000D01*
X170130000Y-94380000D02*
X171620000Y-94380000D01*
X170130000Y-94380000D02*
X170130000Y-99100000D01*
X179870000Y-102910000D02*
X179870000Y-105970000D01*
X170130000Y-102910000D02*
X170130000Y-105970000D01*
X170130000Y-105970000D02*
X179870000Y-105970000D01*
G04 #@! TO.C,TP105*
X118260000Y-115730000D02*
G75*
G03*
X118260000Y-115730000I-950000J0D01*
G01*
G04 #@! TO.C,RV10*
X129880000Y-94380000D02*
X129880000Y-99100000D01*
X128690000Y-94380000D02*
X129870000Y-94380000D01*
X125790000Y-94380000D02*
X126320000Y-94380000D01*
X123340000Y-94380000D02*
X124170000Y-94380000D01*
X120130000Y-94380000D02*
X121620000Y-94380000D01*
X120130000Y-94380000D02*
X120130000Y-99100000D01*
X129870000Y-102910000D02*
X129870000Y-105970000D01*
X120130000Y-102910000D02*
X120130000Y-105970000D01*
X120130000Y-105970000D02*
X129870000Y-105970000D01*
G04 #@! TO.C,RV102*
X170120000Y-63620000D02*
X170120000Y-58900000D01*
X171310000Y-63620000D02*
X170130000Y-63620000D01*
X174210000Y-63620000D02*
X173680000Y-63620000D01*
X176660000Y-63620000D02*
X175830000Y-63620000D01*
X179870000Y-63620000D02*
X178380000Y-63620000D01*
X179870000Y-63620000D02*
X179870000Y-58900000D01*
X170130000Y-55090000D02*
X170130000Y-52030000D01*
X179870000Y-55090000D02*
X179870000Y-52030000D01*
X179870000Y-52030000D02*
X170130000Y-52030000D01*
G04 #@! TO.C,SW1*
X121570000Y-135650000D02*
X128420000Y-135650000D01*
X121570000Y-148340000D02*
X121570000Y-135650000D01*
X128420000Y-135650000D02*
X128420000Y-135660000D01*
X128430000Y-135650000D02*
X128430000Y-148350000D01*
X128430000Y-148350000D02*
X121570000Y-148350000D01*
G04 #@! TD*
M02*
