G04 #@! TF.GenerationSoftware,KiCad,Pcbnew,7.0.0-rc2-unknown-92a61b187f~165~ubuntu22.04.1*
G04 #@! TF.CreationDate,2023-02-10T21:55:46-05:00*
G04 #@! TF.ProjectId,dualvca_b2,6475616c-7663-4615-9f62-322e6b696361,rev?*
G04 #@! TF.SameCoordinates,Original*
G04 #@! TF.FileFunction,Soldermask,Bot*
G04 #@! TF.FilePolarity,Negative*
%FSLAX46Y46*%
G04 Gerber Fmt 4.6, Leading zero omitted, Abs format (unit mm)*
G04 Created by KiCad (PCBNEW 7.0.0-rc2-unknown-92a61b187f~165~ubuntu22.04.1) date 2023-02-10 21:55:46*
%MOMM*%
%LPD*%
G01*
G04 APERTURE LIST*
%ADD10O,2.720000X3.240000*%
%ADD11R,1.800000X1.800000*%
%ADD12C,1.800000*%
%ADD13C,2.340000*%
%ADD14C,1.500000*%
%ADD15C,3.100000*%
%ADD16R,1.700000X1.700000*%
%ADD17O,1.700000X1.700000*%
G04 APERTURE END LIST*
D10*
G04 #@! TO.C,RV101*
X120199999Y-56999999D03*
X129799999Y-56999999D03*
D11*
X122499999Y-64499999D03*
D12*
X125000000Y-64500000D03*
X127500000Y-64500000D03*
G04 #@! TD*
D13*
G04 #@! TO.C,RV105*
X170000000Y-73000000D03*
X175000000Y-73000000D03*
X180000000Y-73000000D03*
G04 #@! TD*
D14*
G04 #@! TO.C,TP106*
X117310000Y-124620000D03*
G04 #@! TD*
D13*
G04 #@! TO.C,RV104*
X130000000Y-85000000D03*
X125000000Y-85000000D03*
X120000000Y-85000000D03*
G04 #@! TD*
D15*
G04 #@! TO.C,SW2*
X175000000Y-146700000D03*
X175000000Y-142000000D03*
X175000000Y-137300000D03*
G04 #@! TD*
D13*
G04 #@! TO.C,RV106*
X180000000Y-85000000D03*
X175000000Y-85000000D03*
X170000000Y-85000000D03*
G04 #@! TD*
G04 #@! TO.C,RV103*
X120000000Y-73000000D03*
X125000000Y-73000000D03*
X130000000Y-73000000D03*
G04 #@! TD*
D14*
G04 #@! TO.C,TP104*
X117310000Y-133510000D03*
G04 #@! TD*
D10*
G04 #@! TO.C,RV32*
X179799999Y-100999999D03*
X170199999Y-100999999D03*
D11*
X177499999Y-93499999D03*
D12*
X175000000Y-93500000D03*
X172500000Y-93500000D03*
G04 #@! TD*
D14*
G04 #@! TO.C,TP105*
X117310000Y-115730000D03*
G04 #@! TD*
D10*
G04 #@! TO.C,RV10*
X129799999Y-100999999D03*
X120199999Y-100999999D03*
D11*
X127499999Y-93499999D03*
D12*
X125000000Y-93500000D03*
X122500000Y-93500000D03*
G04 #@! TD*
D10*
G04 #@! TO.C,RV102*
X170199999Y-56999999D03*
X179799999Y-56999999D03*
D11*
X172499999Y-64499999D03*
D12*
X175000000Y-64500000D03*
X177500000Y-64500000D03*
G04 #@! TD*
D15*
G04 #@! TO.C,SW1*
X125000000Y-146700000D03*
X125000000Y-142000000D03*
X125000000Y-137300000D03*
G04 #@! TD*
D16*
G04 #@! TO.C,J102*
X132224999Y-77629999D03*
D17*
X134764999Y-77629999D03*
X137304999Y-77629999D03*
X139844999Y-77629999D03*
X142384999Y-77629999D03*
X144924999Y-77629999D03*
X147464999Y-77629999D03*
X150004999Y-77629999D03*
X152544999Y-77629999D03*
X155084999Y-77629999D03*
X157624999Y-77629999D03*
X160164999Y-77629999D03*
X162704999Y-77629999D03*
X165244999Y-77629999D03*
X167784999Y-77629999D03*
G04 #@! TD*
M02*
