G04 #@! TF.GenerationSoftware,KiCad,Pcbnew,7.0.0-rc2-unknown-90e759e738~164~ubuntu22.04.1*
G04 #@! TF.CreationDate,2023-02-04T08:16:59-05:00*
G04 #@! TF.ProjectId,dualvca_b2,6475616c-7663-4615-9f62-322e6b696361,rev?*
G04 #@! TF.SameCoordinates,Original*
G04 #@! TF.FileFunction,Copper,L2,Bot*
G04 #@! TF.FilePolarity,Positive*
%FSLAX46Y46*%
G04 Gerber Fmt 4.6, Leading zero omitted, Abs format (unit mm)*
G04 Created by KiCad (PCBNEW 7.0.0-rc2-unknown-90e759e738~164~ubuntu22.04.1) date 2023-02-04 08:16:59*
%MOMM*%
%LPD*%
G01*
G04 APERTURE LIST*
G04 #@! TA.AperFunction,ComponentPad*
%ADD10O,2.720000X3.240000*%
G04 #@! TD*
G04 #@! TA.AperFunction,ComponentPad*
%ADD11R,1.800000X1.800000*%
G04 #@! TD*
G04 #@! TA.AperFunction,ComponentPad*
%ADD12C,1.800000*%
G04 #@! TD*
G04 #@! TA.AperFunction,ComponentPad*
%ADD13C,2.340000*%
G04 #@! TD*
G04 #@! TA.AperFunction,ComponentPad*
%ADD14C,1.500000*%
G04 #@! TD*
G04 #@! TA.AperFunction,ComponentPad*
%ADD15C,3.100000*%
G04 #@! TD*
G04 #@! TA.AperFunction,ComponentPad*
%ADD16R,1.700000X1.700000*%
G04 #@! TD*
G04 #@! TA.AperFunction,ComponentPad*
%ADD17O,1.700000X1.700000*%
G04 #@! TD*
G04 #@! TA.AperFunction,Conductor*
%ADD18C,0.250000*%
G04 #@! TD*
G04 APERTURE END LIST*
D10*
G04 #@! TO.P,RV101,*
G04 #@! TO.N,*
X120199999Y-56999999D03*
X129799999Y-56999999D03*
D11*
G04 #@! TO.P,RV101,1,1*
G04 #@! TO.N,Board_0-GND1*
X122499999Y-64499999D03*
D12*
G04 #@! TO.P,RV101,2,2*
G04 #@! TO.N,Board_0-/Pots and switches PCB/CV1AA_P*
X125000000Y-64500000D03*
G04 #@! TO.P,RV101,3,3*
G04 #@! TO.N,Board_0-/Pots and switches PCB/CV1A_P*
X127500000Y-64500000D03*
G04 #@! TD*
D13*
G04 #@! TO.P,RV105,1,1*
G04 #@! TO.N,Board_0-GND1*
X170000000Y-73000000D03*
G04 #@! TO.P,RV105,2,2*
G04 #@! TO.N,Board_0-/Pots and switches PCB/CV1AB_P*
X175000000Y-73000000D03*
G04 #@! TO.P,RV105,3,3*
G04 #@! TO.N,Board_0-/Pots and switches PCB/CV1B_P*
X180000000Y-73000000D03*
G04 #@! TD*
D14*
G04 #@! TO.P,TP106,1,1*
G04 #@! TO.N,Board_0-GND1*
X117310000Y-124620000D03*
G04 #@! TD*
D13*
G04 #@! TO.P,RV104,1,1*
G04 #@! TO.N,Board_0--12V_1*
X130000000Y-85000000D03*
G04 #@! TO.P,RV104,2,2*
G04 #@! TO.N,Board_0-/Pots and switches PCB/CVOFFSA_P*
X125000000Y-85000000D03*
G04 #@! TO.P,RV104,3,3*
G04 #@! TO.N,Board_0-+12V_1*
X120000000Y-85000000D03*
G04 #@! TD*
D15*
G04 #@! TO.P,SW2,1,A*
G04 #@! TO.N,Board_0-/Pots and switches PCB/LOGB_P*
X175000000Y-146700000D03*
G04 #@! TO.P,SW2,2,B*
G04 #@! TO.N,Board_0-/Pots and switches PCB/LLSWB_P*
X175000000Y-142000000D03*
G04 #@! TO.P,SW2,3,C*
G04 #@! TO.N,Board_0-/Pots and switches PCB/LINB_P*
X175000000Y-137300000D03*
G04 #@! TD*
D13*
G04 #@! TO.P,RV106,1,1*
G04 #@! TO.N,Board_0--12V_1*
X180000000Y-85000000D03*
G04 #@! TO.P,RV106,2,2*
G04 #@! TO.N,Board_0-/Pots and switches PCB/CVOFFSB_P*
X175000000Y-85000000D03*
G04 #@! TO.P,RV106,3,3*
G04 #@! TO.N,Board_0-+12V_1*
X170000000Y-85000000D03*
G04 #@! TD*
G04 #@! TO.P,RV103,1,1*
G04 #@! TO.N,Board_0-GND1*
X120000000Y-73000000D03*
G04 #@! TO.P,RV103,2,2*
G04 #@! TO.N,Board_0-/Pots and switches PCB/CV1AA_P*
X125000000Y-73000000D03*
G04 #@! TO.P,RV103,3,3*
G04 #@! TO.N,Board_0-/Pots and switches PCB/CV1A_P*
X130000000Y-73000000D03*
G04 #@! TD*
D14*
G04 #@! TO.P,TP104,1,1*
G04 #@! TO.N,Board_0-+12V_1*
X117310000Y-133510000D03*
G04 #@! TD*
D10*
G04 #@! TO.P,RV32,*
G04 #@! TO.N,*
X179799999Y-100999999D03*
X170199999Y-100999999D03*
D11*
G04 #@! TO.P,RV32,1,1*
G04 #@! TO.N,Board_0--12V_1*
X177499999Y-93499999D03*
D12*
G04 #@! TO.P,RV32,2,2*
G04 #@! TO.N,Board_0-/Pots and switches PCB/CVOFFSB_P*
X175000000Y-93500000D03*
G04 #@! TO.P,RV32,3,3*
G04 #@! TO.N,Board_0-+12V_1*
X172500000Y-93500000D03*
G04 #@! TD*
D14*
G04 #@! TO.P,TP105,1,1*
G04 #@! TO.N,Board_0--12V_1*
X117310000Y-115730000D03*
G04 #@! TD*
D10*
G04 #@! TO.P,RV10,*
G04 #@! TO.N,*
X129799999Y-100999999D03*
X120199999Y-100999999D03*
D11*
G04 #@! TO.P,RV10,1,1*
G04 #@! TO.N,Board_0--12V_1*
X127499999Y-93499999D03*
D12*
G04 #@! TO.P,RV10,2,2*
G04 #@! TO.N,Board_0-/Pots and switches PCB/CVOFFSA_P*
X125000000Y-93500000D03*
G04 #@! TO.P,RV10,3,3*
G04 #@! TO.N,Board_0-+12V_1*
X122500000Y-93500000D03*
G04 #@! TD*
D10*
G04 #@! TO.P,RV102,*
G04 #@! TO.N,*
X170199999Y-56999999D03*
X179799999Y-56999999D03*
D11*
G04 #@! TO.P,RV102,1,1*
G04 #@! TO.N,Board_0-GND1*
X172499999Y-64499999D03*
D12*
G04 #@! TO.P,RV102,2,2*
G04 #@! TO.N,Board_0-/Pots and switches PCB/CV1AB_P*
X175000000Y-64500000D03*
G04 #@! TO.P,RV102,3,3*
G04 #@! TO.N,Board_0-/Pots and switches PCB/CV1B_P*
X177500000Y-64500000D03*
G04 #@! TD*
D15*
G04 #@! TO.P,SW1,1,A*
G04 #@! TO.N,Board_0-/Pots and switches PCB/LOGA_P*
X125000000Y-146700000D03*
G04 #@! TO.P,SW1,2,B*
G04 #@! TO.N,Board_0-/Pots and switches PCB/LLSWA_P*
X125000000Y-142000000D03*
G04 #@! TO.P,SW1,3,C*
G04 #@! TO.N,Board_0-/Pots and switches PCB/LINA_P*
X125000000Y-137300000D03*
G04 #@! TD*
D16*
G04 #@! TO.P,J102,1,Pin_1*
G04 #@! TO.N,Board_0-GND1*
X132224999Y-77629999D03*
D17*
G04 #@! TO.P,J102,2,Pin_2*
G04 #@! TO.N,Board_0--12V_1*
X134764999Y-77629999D03*
G04 #@! TO.P,J102,3,Pin_3*
G04 #@! TO.N,Board_0-+12V_1*
X137304999Y-77629999D03*
G04 #@! TO.P,J102,4,Pin_4*
G04 #@! TO.N,Board_0-/Pots and switches PCB/CVOFFSA_P*
X139844999Y-77629999D03*
G04 #@! TO.P,J102,5,Pin_5*
G04 #@! TO.N,Board_0-/Pots and switches PCB/CV1AA_P*
X142384999Y-77629999D03*
G04 #@! TO.P,J102,6,Pin_6*
G04 #@! TO.N,Board_0-/Pots and switches PCB/CV1A_P*
X144924999Y-77629999D03*
G04 #@! TO.P,J102,7,Pin_7*
G04 #@! TO.N,Board_0-/Pots and switches PCB/LOGA_P*
X147464999Y-77629999D03*
G04 #@! TO.P,J102,8,Pin_8*
G04 #@! TO.N,Board_0-/Pots and switches PCB/LLSWA_P*
X150004999Y-77629999D03*
G04 #@! TO.P,J102,9,Pin_9*
G04 #@! TO.N,Board_0-/Pots and switches PCB/LINA_P*
X152544999Y-77629999D03*
G04 #@! TO.P,J102,10,Pin_10*
G04 #@! TO.N,Board_0-/Pots and switches PCB/LINB_P*
X155084999Y-77629999D03*
G04 #@! TO.P,J102,11,Pin_11*
G04 #@! TO.N,Board_0-/Pots and switches PCB/LLSWB_P*
X157624999Y-77629999D03*
G04 #@! TO.P,J102,12,Pin_12*
G04 #@! TO.N,Board_0-/Pots and switches PCB/LOGB_P*
X160164999Y-77629999D03*
G04 #@! TO.P,J102,13,Pin_13*
G04 #@! TO.N,Board_0-/Pots and switches PCB/CV1B_P*
X162704999Y-77629999D03*
G04 #@! TO.P,J102,14,Pin_14*
G04 #@! TO.N,Board_0-/Pots and switches PCB/CV1AB_P*
X165244999Y-77629999D03*
G04 #@! TO.P,J102,15,Pin_15*
G04 #@! TO.N,Board_0-/Pots and switches PCB/CVOFFSB_P*
X167784999Y-77629999D03*
G04 #@! TD*
D18*
G04 #@! TO.N,Board_0-+12V_1*
X137305000Y-83274000D02*
X139031000Y-85000000D01*
X128545000Y-76455000D02*
X136130000Y-76455000D01*
X137305000Y-77630000D02*
X137305000Y-83274000D01*
X122500000Y-93500000D02*
X122500000Y-128320000D01*
X139031000Y-85000000D02*
X170000000Y-85000000D01*
X136130000Y-76455000D02*
X137305000Y-77630000D01*
X120000000Y-85000000D02*
X128545000Y-76455000D01*
X122500000Y-128320000D02*
X117310000Y-133510000D01*
G04 #@! TO.N,Board_0--12V_1*
X130000000Y-85000000D02*
X136000000Y-85000000D01*
X135979000Y-78844000D02*
X135979000Y-84979000D01*
X178505489Y-86494511D02*
X180000000Y-85000000D01*
X134765000Y-77630000D02*
X135979000Y-78844000D01*
X137494511Y-86494511D02*
X178505489Y-86494511D01*
X135979000Y-84979000D02*
X137494511Y-86494511D01*
G04 #@! TO.N,Board_0-/Pots and switches PCB/CV1A_P*
X127500000Y-70500000D02*
X130000000Y-73000000D01*
X130000000Y-73000000D02*
X140295000Y-73000000D01*
X140295000Y-73000000D02*
X144925000Y-77630000D01*
X127500000Y-64500000D02*
X127500000Y-70500000D01*
G04 #@! TD*
G04 #@! TA.AperFunction,Conductor*
G04 #@! TO.N,Board_0-GND1*
G36*
X185936500Y-47017381D02*
G01*
X185982619Y-47063500D01*
X185999500Y-47126500D01*
X185999500Y-152873500D01*
X185982619Y-152936500D01*
X185936500Y-152982619D01*
X185873500Y-152999500D01*
X114126500Y-152999500D01*
X114063500Y-152982619D01*
X114017381Y-152936500D01*
X114000500Y-152873500D01*
X114000500Y-146700000D01*
X122936690Y-146700000D01*
X122955908Y-146980954D01*
X123013203Y-147256674D01*
X123014639Y-147260716D01*
X123014641Y-147260721D01*
X123106069Y-147517975D01*
X123106072Y-147517982D01*
X123107509Y-147522025D01*
X123109483Y-147525835D01*
X123109485Y-147525839D01*
X123235085Y-147768237D01*
X123235088Y-147768242D01*
X123237068Y-147772063D01*
X123239553Y-147775583D01*
X123239554Y-147775585D01*
X123396983Y-147998612D01*
X123396988Y-147998618D01*
X123399467Y-148002130D01*
X123591681Y-148207941D01*
X123810130Y-148385662D01*
X124050743Y-148531982D01*
X124309040Y-148644176D01*
X124580207Y-148720154D01*
X124859195Y-148758500D01*
X125136500Y-148758500D01*
X125140805Y-148758500D01*
X125419793Y-148720154D01*
X125690960Y-148644176D01*
X125949257Y-148531982D01*
X126189870Y-148385662D01*
X126408319Y-148207941D01*
X126600533Y-148002130D01*
X126762932Y-147772063D01*
X126892491Y-147522025D01*
X126986797Y-147256674D01*
X127044092Y-146980954D01*
X127063310Y-146700000D01*
X172936690Y-146700000D01*
X172955908Y-146980954D01*
X173013203Y-147256674D01*
X173014639Y-147260716D01*
X173014641Y-147260721D01*
X173106069Y-147517975D01*
X173106072Y-147517982D01*
X173107509Y-147522025D01*
X173109483Y-147525835D01*
X173109485Y-147525839D01*
X173235085Y-147768237D01*
X173235088Y-147768242D01*
X173237068Y-147772063D01*
X173239553Y-147775583D01*
X173239554Y-147775585D01*
X173396983Y-147998612D01*
X173396988Y-147998618D01*
X173399467Y-148002130D01*
X173591681Y-148207941D01*
X173810130Y-148385662D01*
X174050743Y-148531982D01*
X174309040Y-148644176D01*
X174580207Y-148720154D01*
X174859195Y-148758500D01*
X175136500Y-148758500D01*
X175140805Y-148758500D01*
X175419793Y-148720154D01*
X175690960Y-148644176D01*
X175949257Y-148531982D01*
X176189870Y-148385662D01*
X176408319Y-148207941D01*
X176600533Y-148002130D01*
X176762932Y-147772063D01*
X176892491Y-147522025D01*
X176986797Y-147256674D01*
X177044092Y-146980954D01*
X177063310Y-146700000D01*
X177044092Y-146419046D01*
X176986797Y-146143326D01*
X176892491Y-145877975D01*
X176762932Y-145627937D01*
X176600533Y-145397870D01*
X176408319Y-145192059D01*
X176189870Y-145014338D01*
X175949257Y-144868018D01*
X175945317Y-144866306D01*
X175945312Y-144866304D01*
X175694907Y-144757538D01*
X175694901Y-144757536D01*
X175690960Y-144755824D01*
X175686824Y-144754665D01*
X175686818Y-144754663D01*
X175423934Y-144681006D01*
X175423930Y-144681005D01*
X175419793Y-144679846D01*
X175415530Y-144679260D01*
X175415525Y-144679259D01*
X175145073Y-144642086D01*
X175145063Y-144642085D01*
X175140805Y-144641500D01*
X174859195Y-144641500D01*
X174854937Y-144642085D01*
X174854926Y-144642086D01*
X174584474Y-144679259D01*
X174584466Y-144679260D01*
X174580207Y-144679846D01*
X174576072Y-144681004D01*
X174576065Y-144681006D01*
X174313181Y-144754663D01*
X174313171Y-144754666D01*
X174309040Y-144755824D01*
X174305102Y-144757534D01*
X174305092Y-144757538D01*
X174054687Y-144866304D01*
X174054676Y-144866309D01*
X174050743Y-144868018D01*
X174047076Y-144870247D01*
X174047070Y-144870251D01*
X173813803Y-145012104D01*
X173813798Y-145012106D01*
X173810130Y-145014338D01*
X173806803Y-145017044D01*
X173806794Y-145017051D01*
X173595017Y-145189344D01*
X173595008Y-145189351D01*
X173591681Y-145192059D01*
X173588749Y-145195197D01*
X173588744Y-145195203D01*
X173402406Y-145394722D01*
X173402399Y-145394730D01*
X173399467Y-145397870D01*
X173396993Y-145401373D01*
X173396983Y-145401387D01*
X173239554Y-145624414D01*
X173239548Y-145624422D01*
X173237068Y-145627937D01*
X173235092Y-145631750D01*
X173235085Y-145631762D01*
X173109485Y-145874160D01*
X173109481Y-145874169D01*
X173107509Y-145877975D01*
X173106074Y-145882011D01*
X173106069Y-145882024D01*
X173014641Y-146139278D01*
X173014638Y-146139286D01*
X173013203Y-146143326D01*
X172955908Y-146419046D01*
X172936690Y-146700000D01*
X127063310Y-146700000D01*
X127044092Y-146419046D01*
X126986797Y-146143326D01*
X126892491Y-145877975D01*
X126762932Y-145627937D01*
X126600533Y-145397870D01*
X126408319Y-145192059D01*
X126189870Y-145014338D01*
X125949257Y-144868018D01*
X125945317Y-144866306D01*
X125945312Y-144866304D01*
X125694907Y-144757538D01*
X125694901Y-144757536D01*
X125690960Y-144755824D01*
X125686824Y-144754665D01*
X125686818Y-144754663D01*
X125423934Y-144681006D01*
X125423930Y-144681005D01*
X125419793Y-144679846D01*
X125415530Y-144679260D01*
X125415525Y-144679259D01*
X125145073Y-144642086D01*
X125145063Y-144642085D01*
X125140805Y-144641500D01*
X124859195Y-144641500D01*
X124854937Y-144642085D01*
X124854926Y-144642086D01*
X124584474Y-144679259D01*
X124584466Y-144679260D01*
X124580207Y-144679846D01*
X124576072Y-144681004D01*
X124576065Y-144681006D01*
X124313181Y-144754663D01*
X124313171Y-144754666D01*
X124309040Y-144755824D01*
X124305102Y-144757534D01*
X124305092Y-144757538D01*
X124054687Y-144866304D01*
X124054676Y-144866309D01*
X124050743Y-144868018D01*
X124047076Y-144870247D01*
X124047070Y-144870251D01*
X123813803Y-145012104D01*
X123813798Y-145012106D01*
X123810130Y-145014338D01*
X123806803Y-145017044D01*
X123806794Y-145017051D01*
X123595017Y-145189344D01*
X123595008Y-145189351D01*
X123591681Y-145192059D01*
X123588749Y-145195197D01*
X123588744Y-145195203D01*
X123402406Y-145394722D01*
X123402399Y-145394730D01*
X123399467Y-145397870D01*
X123396993Y-145401373D01*
X123396983Y-145401387D01*
X123239554Y-145624414D01*
X123239548Y-145624422D01*
X123237068Y-145627937D01*
X123235092Y-145631750D01*
X123235085Y-145631762D01*
X123109485Y-145874160D01*
X123109481Y-145874169D01*
X123107509Y-145877975D01*
X123106074Y-145882011D01*
X123106069Y-145882024D01*
X123014641Y-146139278D01*
X123014638Y-146139286D01*
X123013203Y-146143326D01*
X122955908Y-146419046D01*
X122936690Y-146700000D01*
X114000500Y-146700000D01*
X114000500Y-142000000D01*
X122936690Y-142000000D01*
X122955908Y-142280954D01*
X123013203Y-142556674D01*
X123014639Y-142560716D01*
X123014641Y-142560721D01*
X123106069Y-142817975D01*
X123106072Y-142817982D01*
X123107509Y-142822025D01*
X123109483Y-142825835D01*
X123109485Y-142825839D01*
X123235085Y-143068237D01*
X123235088Y-143068242D01*
X123237068Y-143072063D01*
X123239553Y-143075583D01*
X123239554Y-143075585D01*
X123396983Y-143298612D01*
X123396988Y-143298618D01*
X123399467Y-143302130D01*
X123591681Y-143507941D01*
X123810130Y-143685662D01*
X124050743Y-143831982D01*
X124309040Y-143944176D01*
X124580207Y-144020154D01*
X124859195Y-144058500D01*
X125136500Y-144058500D01*
X125140805Y-144058500D01*
X125419793Y-144020154D01*
X125690960Y-143944176D01*
X125949257Y-143831982D01*
X126189870Y-143685662D01*
X126408319Y-143507941D01*
X126600533Y-143302130D01*
X126762932Y-143072063D01*
X126892491Y-142822025D01*
X126986797Y-142556674D01*
X127044092Y-142280954D01*
X127063310Y-142000000D01*
X172936690Y-142000000D01*
X172955908Y-142280954D01*
X173013203Y-142556674D01*
X173014639Y-142560716D01*
X173014641Y-142560721D01*
X173106069Y-142817975D01*
X173106072Y-142817982D01*
X173107509Y-142822025D01*
X173109483Y-142825835D01*
X173109485Y-142825839D01*
X173235085Y-143068237D01*
X173235088Y-143068242D01*
X173237068Y-143072063D01*
X173239553Y-143075583D01*
X173239554Y-143075585D01*
X173396983Y-143298612D01*
X173396988Y-143298618D01*
X173399467Y-143302130D01*
X173591681Y-143507941D01*
X173810130Y-143685662D01*
X174050743Y-143831982D01*
X174309040Y-143944176D01*
X174580207Y-144020154D01*
X174859195Y-144058500D01*
X175136500Y-144058500D01*
X175140805Y-144058500D01*
X175419793Y-144020154D01*
X175690960Y-143944176D01*
X175949257Y-143831982D01*
X176189870Y-143685662D01*
X176408319Y-143507941D01*
X176600533Y-143302130D01*
X176762932Y-143072063D01*
X176892491Y-142822025D01*
X176986797Y-142556674D01*
X177044092Y-142280954D01*
X177063310Y-142000000D01*
X177044092Y-141719046D01*
X176986797Y-141443326D01*
X176892491Y-141177975D01*
X176762932Y-140927937D01*
X176600533Y-140697870D01*
X176408319Y-140492059D01*
X176189870Y-140314338D01*
X175949257Y-140168018D01*
X175945317Y-140166306D01*
X175945312Y-140166304D01*
X175694907Y-140057538D01*
X175694901Y-140057536D01*
X175690960Y-140055824D01*
X175686824Y-140054665D01*
X175686818Y-140054663D01*
X175423934Y-139981006D01*
X175423930Y-139981005D01*
X175419793Y-139979846D01*
X175415530Y-139979260D01*
X175415525Y-139979259D01*
X175145073Y-139942086D01*
X175145063Y-139942085D01*
X175140805Y-139941500D01*
X174859195Y-139941500D01*
X174854937Y-139942085D01*
X174854926Y-139942086D01*
X174584474Y-139979259D01*
X174584466Y-139979260D01*
X174580207Y-139979846D01*
X174576072Y-139981004D01*
X174576065Y-139981006D01*
X174313181Y-140054663D01*
X174313171Y-140054666D01*
X174309040Y-140055824D01*
X174305102Y-140057534D01*
X174305092Y-140057538D01*
X174054687Y-140166304D01*
X174054676Y-140166309D01*
X174050743Y-140168018D01*
X174047076Y-140170247D01*
X174047070Y-140170251D01*
X173813803Y-140312104D01*
X173813798Y-140312106D01*
X173810130Y-140314338D01*
X173806803Y-140317044D01*
X173806794Y-140317051D01*
X173595017Y-140489344D01*
X173595008Y-140489351D01*
X173591681Y-140492059D01*
X173588749Y-140495197D01*
X173588744Y-140495203D01*
X173402406Y-140694722D01*
X173402399Y-140694730D01*
X173399467Y-140697870D01*
X173396993Y-140701373D01*
X173396983Y-140701387D01*
X173239554Y-140924414D01*
X173239548Y-140924422D01*
X173237068Y-140927937D01*
X173235092Y-140931750D01*
X173235085Y-140931762D01*
X173109485Y-141174160D01*
X173109481Y-141174169D01*
X173107509Y-141177975D01*
X173106074Y-141182011D01*
X173106069Y-141182024D01*
X173014641Y-141439278D01*
X173014638Y-141439286D01*
X173013203Y-141443326D01*
X172955908Y-141719046D01*
X172936690Y-142000000D01*
X127063310Y-142000000D01*
X127044092Y-141719046D01*
X126986797Y-141443326D01*
X126892491Y-141177975D01*
X126762932Y-140927937D01*
X126600533Y-140697870D01*
X126408319Y-140492059D01*
X126189870Y-140314338D01*
X125949257Y-140168018D01*
X125945317Y-140166306D01*
X125945312Y-140166304D01*
X125694907Y-140057538D01*
X125694901Y-140057536D01*
X125690960Y-140055824D01*
X125686824Y-140054665D01*
X125686818Y-140054663D01*
X125423934Y-139981006D01*
X125423930Y-139981005D01*
X125419793Y-139979846D01*
X125415530Y-139979260D01*
X125415525Y-139979259D01*
X125145073Y-139942086D01*
X125145063Y-139942085D01*
X125140805Y-139941500D01*
X124859195Y-139941500D01*
X124854937Y-139942085D01*
X124854926Y-139942086D01*
X124584474Y-139979259D01*
X124584466Y-139979260D01*
X124580207Y-139979846D01*
X124576072Y-139981004D01*
X124576065Y-139981006D01*
X124313181Y-140054663D01*
X124313171Y-140054666D01*
X124309040Y-140055824D01*
X124305102Y-140057534D01*
X124305092Y-140057538D01*
X124054687Y-140166304D01*
X124054676Y-140166309D01*
X124050743Y-140168018D01*
X124047076Y-140170247D01*
X124047070Y-140170251D01*
X123813803Y-140312104D01*
X123813798Y-140312106D01*
X123810130Y-140314338D01*
X123806803Y-140317044D01*
X123806794Y-140317051D01*
X123595017Y-140489344D01*
X123595008Y-140489351D01*
X123591681Y-140492059D01*
X123588749Y-140495197D01*
X123588744Y-140495203D01*
X123402406Y-140694722D01*
X123402399Y-140694730D01*
X123399467Y-140697870D01*
X123396993Y-140701373D01*
X123396983Y-140701387D01*
X123239554Y-140924414D01*
X123239548Y-140924422D01*
X123237068Y-140927937D01*
X123235092Y-140931750D01*
X123235085Y-140931762D01*
X123109485Y-141174160D01*
X123109481Y-141174169D01*
X123107509Y-141177975D01*
X123106074Y-141182011D01*
X123106069Y-141182024D01*
X123014641Y-141439278D01*
X123014638Y-141439286D01*
X123013203Y-141443326D01*
X122955908Y-141719046D01*
X122936690Y-142000000D01*
X114000500Y-142000000D01*
X114000500Y-137300000D01*
X122936690Y-137300000D01*
X122955908Y-137580954D01*
X123013203Y-137856674D01*
X123014639Y-137860716D01*
X123014641Y-137860721D01*
X123106069Y-138117975D01*
X123106072Y-138117982D01*
X123107509Y-138122025D01*
X123109483Y-138125835D01*
X123109485Y-138125839D01*
X123235085Y-138368237D01*
X123235088Y-138368242D01*
X123237068Y-138372063D01*
X123239553Y-138375583D01*
X123239554Y-138375585D01*
X123396983Y-138598612D01*
X123396988Y-138598618D01*
X123399467Y-138602130D01*
X123591681Y-138807941D01*
X123810130Y-138985662D01*
X124050743Y-139131982D01*
X124309040Y-139244176D01*
X124580207Y-139320154D01*
X124859195Y-139358500D01*
X125136500Y-139358500D01*
X125140805Y-139358500D01*
X125419793Y-139320154D01*
X125690960Y-139244176D01*
X125949257Y-139131982D01*
X126189870Y-138985662D01*
X126408319Y-138807941D01*
X126600533Y-138602130D01*
X126762932Y-138372063D01*
X126892491Y-138122025D01*
X126986797Y-137856674D01*
X127044092Y-137580954D01*
X127063310Y-137300000D01*
X172936690Y-137300000D01*
X172955908Y-137580954D01*
X173013203Y-137856674D01*
X173014639Y-137860716D01*
X173014641Y-137860721D01*
X173106069Y-138117975D01*
X173106072Y-138117982D01*
X173107509Y-138122025D01*
X173109483Y-138125835D01*
X173109485Y-138125839D01*
X173235085Y-138368237D01*
X173235088Y-138368242D01*
X173237068Y-138372063D01*
X173239553Y-138375583D01*
X173239554Y-138375585D01*
X173396983Y-138598612D01*
X173396988Y-138598618D01*
X173399467Y-138602130D01*
X173591681Y-138807941D01*
X173810130Y-138985662D01*
X174050743Y-139131982D01*
X174309040Y-139244176D01*
X174580207Y-139320154D01*
X174859195Y-139358500D01*
X175136500Y-139358500D01*
X175140805Y-139358500D01*
X175419793Y-139320154D01*
X175690960Y-139244176D01*
X175949257Y-139131982D01*
X176189870Y-138985662D01*
X176408319Y-138807941D01*
X176600533Y-138602130D01*
X176762932Y-138372063D01*
X176892491Y-138122025D01*
X176986797Y-137856674D01*
X177044092Y-137580954D01*
X177063310Y-137300000D01*
X177044092Y-137019046D01*
X176986797Y-136743326D01*
X176892491Y-136477975D01*
X176762932Y-136227937D01*
X176600533Y-135997870D01*
X176408319Y-135792059D01*
X176189870Y-135614338D01*
X175949257Y-135468018D01*
X175945317Y-135466306D01*
X175945312Y-135466304D01*
X175694907Y-135357538D01*
X175694901Y-135357536D01*
X175690960Y-135355824D01*
X175686824Y-135354665D01*
X175686818Y-135354663D01*
X175423934Y-135281006D01*
X175423930Y-135281005D01*
X175419793Y-135279846D01*
X175415530Y-135279260D01*
X175415525Y-135279259D01*
X175145073Y-135242086D01*
X175145063Y-135242085D01*
X175140805Y-135241500D01*
X174859195Y-135241500D01*
X174854937Y-135242085D01*
X174854926Y-135242086D01*
X174584474Y-135279259D01*
X174584466Y-135279260D01*
X174580207Y-135279846D01*
X174576072Y-135281004D01*
X174576065Y-135281006D01*
X174313181Y-135354663D01*
X174313171Y-135354666D01*
X174309040Y-135355824D01*
X174305102Y-135357534D01*
X174305092Y-135357538D01*
X174054687Y-135466304D01*
X174054676Y-135466309D01*
X174050743Y-135468018D01*
X174047076Y-135470247D01*
X174047070Y-135470251D01*
X173813803Y-135612104D01*
X173813798Y-135612106D01*
X173810130Y-135614338D01*
X173806803Y-135617044D01*
X173806794Y-135617051D01*
X173595017Y-135789344D01*
X173595008Y-135789351D01*
X173591681Y-135792059D01*
X173588749Y-135795197D01*
X173588744Y-135795203D01*
X173402406Y-135994722D01*
X173402399Y-135994730D01*
X173399467Y-135997870D01*
X173396993Y-136001373D01*
X173396983Y-136001387D01*
X173239554Y-136224414D01*
X173239548Y-136224422D01*
X173237068Y-136227937D01*
X173235092Y-136231750D01*
X173235085Y-136231762D01*
X173109485Y-136474160D01*
X173109481Y-136474169D01*
X173107509Y-136477975D01*
X173106074Y-136482011D01*
X173106069Y-136482024D01*
X173014641Y-136739278D01*
X173014638Y-136739286D01*
X173013203Y-136743326D01*
X172955908Y-137019046D01*
X172936690Y-137300000D01*
X127063310Y-137300000D01*
X127044092Y-137019046D01*
X126986797Y-136743326D01*
X126892491Y-136477975D01*
X126762932Y-136227937D01*
X126600533Y-135997870D01*
X126408319Y-135792059D01*
X126189870Y-135614338D01*
X125949257Y-135468018D01*
X125945317Y-135466306D01*
X125945312Y-135466304D01*
X125694907Y-135357538D01*
X125694901Y-135357536D01*
X125690960Y-135355824D01*
X125686824Y-135354665D01*
X125686818Y-135354663D01*
X125423934Y-135281006D01*
X125423930Y-135281005D01*
X125419793Y-135279846D01*
X125415530Y-135279260D01*
X125415525Y-135279259D01*
X125145073Y-135242086D01*
X125145063Y-135242085D01*
X125140805Y-135241500D01*
X124859195Y-135241500D01*
X124854937Y-135242085D01*
X124854926Y-135242086D01*
X124584474Y-135279259D01*
X124584466Y-135279260D01*
X124580207Y-135279846D01*
X124576072Y-135281004D01*
X124576065Y-135281006D01*
X124313181Y-135354663D01*
X124313171Y-135354666D01*
X124309040Y-135355824D01*
X124305102Y-135357534D01*
X124305092Y-135357538D01*
X124054687Y-135466304D01*
X124054676Y-135466309D01*
X124050743Y-135468018D01*
X124047076Y-135470247D01*
X124047070Y-135470251D01*
X123813803Y-135612104D01*
X123813798Y-135612106D01*
X123810130Y-135614338D01*
X123806803Y-135617044D01*
X123806794Y-135617051D01*
X123595017Y-135789344D01*
X123595008Y-135789351D01*
X123591681Y-135792059D01*
X123588749Y-135795197D01*
X123588744Y-135795203D01*
X123402406Y-135994722D01*
X123402399Y-135994730D01*
X123399467Y-135997870D01*
X123396993Y-136001373D01*
X123396983Y-136001387D01*
X123239554Y-136224414D01*
X123239548Y-136224422D01*
X123237068Y-136227937D01*
X123235092Y-136231750D01*
X123235085Y-136231762D01*
X123109485Y-136474160D01*
X123109481Y-136474169D01*
X123107509Y-136477975D01*
X123106074Y-136482011D01*
X123106069Y-136482024D01*
X123014641Y-136739278D01*
X123014638Y-136739286D01*
X123013203Y-136743326D01*
X122955908Y-137019046D01*
X122936690Y-137300000D01*
X114000500Y-137300000D01*
X114000500Y-133510000D01*
X116046693Y-133510000D01*
X116047172Y-133515475D01*
X116065405Y-133723894D01*
X116065406Y-133723903D01*
X116065885Y-133729371D01*
X116067305Y-133734673D01*
X116067307Y-133734680D01*
X116121456Y-133936764D01*
X116121458Y-133936770D01*
X116122880Y-133942076D01*
X116125202Y-133947055D01*
X116125204Y-133947061D01*
X116213618Y-134136666D01*
X116215944Y-134141654D01*
X116219097Y-134146157D01*
X116219100Y-134146162D01*
X116292223Y-134250591D01*
X116342251Y-134322038D01*
X116497962Y-134477749D01*
X116678346Y-134604056D01*
X116877924Y-134697120D01*
X117090629Y-134754115D01*
X117310000Y-134773307D01*
X117529371Y-134754115D01*
X117742076Y-134697120D01*
X117941654Y-134604056D01*
X118122038Y-134477749D01*
X118277749Y-134322038D01*
X118404056Y-134141654D01*
X118497120Y-133942076D01*
X118554115Y-133729371D01*
X118573307Y-133510000D01*
X118554115Y-133290629D01*
X118545714Y-133259280D01*
X118545714Y-133194061D01*
X118578324Y-133137578D01*
X122892259Y-128823643D01*
X122900533Y-128816114D01*
X122907018Y-128812000D01*
X122953676Y-128762312D01*
X122956368Y-128759534D01*
X122976134Y-128739770D01*
X122978601Y-128736588D01*
X122986310Y-128727561D01*
X123016586Y-128695321D01*
X123026345Y-128677567D01*
X123037199Y-128661043D01*
X123049613Y-128645041D01*
X123067167Y-128604475D01*
X123072392Y-128593808D01*
X123089875Y-128562008D01*
X123089874Y-128562008D01*
X123093695Y-128555060D01*
X123098732Y-128535442D01*
X123105138Y-128516730D01*
X123113181Y-128498145D01*
X123120099Y-128454456D01*
X123122503Y-128442856D01*
X123133500Y-128400030D01*
X123133500Y-128379769D01*
X123135051Y-128360058D01*
X123136979Y-128347884D01*
X123138219Y-128340057D01*
X123134058Y-128296045D01*
X123133500Y-128284189D01*
X123133500Y-101328288D01*
X127931500Y-101328288D01*
X127931666Y-101330558D01*
X127931667Y-101330581D01*
X127946130Y-101528188D01*
X127946131Y-101528197D01*
X127946467Y-101532783D01*
X128005937Y-101799753D01*
X128103645Y-102055219D01*
X128105897Y-102059231D01*
X128105900Y-102059238D01*
X128235253Y-102289721D01*
X128235257Y-102289727D01*
X128237507Y-102293736D01*
X128404671Y-102510220D01*
X128601574Y-102700059D01*
X128605314Y-102702735D01*
X128605318Y-102702738D01*
X128776415Y-102825147D01*
X128824019Y-102859205D01*
X129067266Y-102984267D01*
X129326130Y-103072579D01*
X129595093Y-103122259D01*
X129868424Y-103132248D01*
X130140296Y-103102334D01*
X130404916Y-103033153D01*
X130656643Y-102926181D01*
X130890112Y-102783697D01*
X131100347Y-102608738D01*
X131282867Y-102405033D01*
X131433783Y-102176923D01*
X131549877Y-101929271D01*
X131628676Y-101667355D01*
X131668500Y-101396757D01*
X131668500Y-101328288D01*
X168331500Y-101328288D01*
X168331666Y-101330558D01*
X168331667Y-101330581D01*
X168346130Y-101528188D01*
X168346131Y-101528197D01*
X168346467Y-101532783D01*
X168405937Y-101799753D01*
X168503645Y-102055219D01*
X168505897Y-102059231D01*
X168505900Y-102059238D01*
X168635253Y-102289721D01*
X168635257Y-102289727D01*
X168637507Y-102293736D01*
X168804671Y-102510220D01*
X169001574Y-102700059D01*
X169005314Y-102702735D01*
X169005318Y-102702738D01*
X169176415Y-102825147D01*
X169224019Y-102859205D01*
X169467266Y-102984267D01*
X169726130Y-103072579D01*
X169995093Y-103122259D01*
X170268424Y-103132248D01*
X170540296Y-103102334D01*
X170804916Y-103033153D01*
X171056643Y-102926181D01*
X171290112Y-102783697D01*
X171500347Y-102608738D01*
X171682867Y-102405033D01*
X171833783Y-102176923D01*
X171949877Y-101929271D01*
X172028676Y-101667355D01*
X172068500Y-101396757D01*
X172068500Y-101328288D01*
X177931500Y-101328288D01*
X177931666Y-101330558D01*
X177931667Y-101330581D01*
X177946130Y-101528188D01*
X177946131Y-101528197D01*
X177946467Y-101532783D01*
X178005937Y-101799753D01*
X178103645Y-102055219D01*
X178105897Y-102059231D01*
X178105900Y-102059238D01*
X178235253Y-102289721D01*
X178235257Y-102289727D01*
X178237507Y-102293736D01*
X178404671Y-102510220D01*
X178601574Y-102700059D01*
X178605314Y-102702735D01*
X178605318Y-102702738D01*
X178776415Y-102825147D01*
X178824019Y-102859205D01*
X179067266Y-102984267D01*
X179326130Y-103072579D01*
X179595093Y-103122259D01*
X179868424Y-103132248D01*
X180140296Y-103102334D01*
X180404916Y-103033153D01*
X180656643Y-102926181D01*
X180890112Y-102783697D01*
X181100347Y-102608738D01*
X181282867Y-102405033D01*
X181433783Y-102176923D01*
X181549877Y-101929271D01*
X181628676Y-101667355D01*
X181668500Y-101396757D01*
X181668500Y-100671712D01*
X181653533Y-100467217D01*
X181594063Y-100200247D01*
X181496355Y-99944781D01*
X181362493Y-99706264D01*
X181195329Y-99489780D01*
X180998426Y-99299941D01*
X180994686Y-99297265D01*
X180994681Y-99297261D01*
X180779730Y-99143477D01*
X180779728Y-99143475D01*
X180775981Y-99140795D01*
X180771885Y-99138689D01*
X180536829Y-99017838D01*
X180536824Y-99017836D01*
X180532734Y-99015733D01*
X180273870Y-98927421D01*
X180257303Y-98924360D01*
X180009436Y-98878577D01*
X180009428Y-98878576D01*
X180004907Y-98877741D01*
X180000316Y-98877573D01*
X180000305Y-98877572D01*
X179736179Y-98867920D01*
X179736176Y-98867920D01*
X179731576Y-98867752D01*
X179727008Y-98868254D01*
X179726996Y-98868255D01*
X179464277Y-98897162D01*
X179464265Y-98897164D01*
X179459704Y-98897666D01*
X179455261Y-98898827D01*
X179455253Y-98898829D01*
X179199539Y-98965682D01*
X179199535Y-98965683D01*
X179195084Y-98966847D01*
X179190857Y-98968643D01*
X179190846Y-98968647D01*
X178947588Y-99072020D01*
X178947576Y-99072025D01*
X178943357Y-99073819D01*
X178939436Y-99076211D01*
X178939430Y-99076215D01*
X178713819Y-99213903D01*
X178713809Y-99213909D01*
X178709888Y-99216303D01*
X178706361Y-99219237D01*
X178706350Y-99219246D01*
X178503187Y-99388320D01*
X178503179Y-99388327D01*
X178499653Y-99391262D01*
X178496584Y-99394686D01*
X178496581Y-99394690D01*
X178320211Y-99591530D01*
X178320201Y-99591542D01*
X178317133Y-99594967D01*
X178314593Y-99598805D01*
X178314590Y-99598810D01*
X178240844Y-99710278D01*
X178166217Y-99823077D01*
X178164268Y-99827234D01*
X178164261Y-99827247D01*
X178052077Y-100066560D01*
X178050123Y-100070729D01*
X178048801Y-100075122D01*
X178048796Y-100075136D01*
X177972651Y-100328232D01*
X177972649Y-100328240D01*
X177971324Y-100332645D01*
X177970653Y-100337201D01*
X177970652Y-100337208D01*
X177932171Y-100598681D01*
X177931500Y-100603243D01*
X177931500Y-101328288D01*
X172068500Y-101328288D01*
X172068500Y-100671712D01*
X172053533Y-100467217D01*
X171994063Y-100200247D01*
X171896355Y-99944781D01*
X171762493Y-99706264D01*
X171595329Y-99489780D01*
X171398426Y-99299941D01*
X171394686Y-99297265D01*
X171394681Y-99297261D01*
X171179730Y-99143477D01*
X171179728Y-99143475D01*
X171175981Y-99140795D01*
X171171885Y-99138689D01*
X170936829Y-99017838D01*
X170936824Y-99017836D01*
X170932734Y-99015733D01*
X170673870Y-98927421D01*
X170657303Y-98924360D01*
X170409436Y-98878577D01*
X170409428Y-98878576D01*
X170404907Y-98877741D01*
X170400316Y-98877573D01*
X170400305Y-98877572D01*
X170136179Y-98867920D01*
X170136176Y-98867920D01*
X170131576Y-98867752D01*
X170127008Y-98868254D01*
X170126996Y-98868255D01*
X169864277Y-98897162D01*
X169864265Y-98897164D01*
X169859704Y-98897666D01*
X169855261Y-98898827D01*
X169855253Y-98898829D01*
X169599539Y-98965682D01*
X169599535Y-98965683D01*
X169595084Y-98966847D01*
X169590857Y-98968643D01*
X169590846Y-98968647D01*
X169347588Y-99072020D01*
X169347576Y-99072025D01*
X169343357Y-99073819D01*
X169339436Y-99076211D01*
X169339430Y-99076215D01*
X169113819Y-99213903D01*
X169113809Y-99213909D01*
X169109888Y-99216303D01*
X169106361Y-99219237D01*
X169106350Y-99219246D01*
X168903187Y-99388320D01*
X168903179Y-99388327D01*
X168899653Y-99391262D01*
X168896584Y-99394686D01*
X168896581Y-99394690D01*
X168720211Y-99591530D01*
X168720201Y-99591542D01*
X168717133Y-99594967D01*
X168714593Y-99598805D01*
X168714590Y-99598810D01*
X168640844Y-99710278D01*
X168566217Y-99823077D01*
X168564268Y-99827234D01*
X168564261Y-99827247D01*
X168452077Y-100066560D01*
X168450123Y-100070729D01*
X168448801Y-100075122D01*
X168448796Y-100075136D01*
X168372651Y-100328232D01*
X168372649Y-100328240D01*
X168371324Y-100332645D01*
X168370653Y-100337201D01*
X168370652Y-100337208D01*
X168332171Y-100598681D01*
X168331500Y-100603243D01*
X168331500Y-101328288D01*
X131668500Y-101328288D01*
X131668500Y-100671712D01*
X131653533Y-100467217D01*
X131594063Y-100200247D01*
X131496355Y-99944781D01*
X131362493Y-99706264D01*
X131195329Y-99489780D01*
X130998426Y-99299941D01*
X130994686Y-99297265D01*
X130994681Y-99297261D01*
X130779730Y-99143477D01*
X130779728Y-99143475D01*
X130775981Y-99140795D01*
X130771885Y-99138689D01*
X130536829Y-99017838D01*
X130536824Y-99017836D01*
X130532734Y-99015733D01*
X130273870Y-98927421D01*
X130257303Y-98924360D01*
X130009436Y-98878577D01*
X130009428Y-98878576D01*
X130004907Y-98877741D01*
X130000316Y-98877573D01*
X130000305Y-98877572D01*
X129736179Y-98867920D01*
X129736176Y-98867920D01*
X129731576Y-98867752D01*
X129727008Y-98868254D01*
X129726996Y-98868255D01*
X129464277Y-98897162D01*
X129464265Y-98897164D01*
X129459704Y-98897666D01*
X129455261Y-98898827D01*
X129455253Y-98898829D01*
X129199539Y-98965682D01*
X129199535Y-98965683D01*
X129195084Y-98966847D01*
X129190857Y-98968643D01*
X129190846Y-98968647D01*
X128947588Y-99072020D01*
X128947576Y-99072025D01*
X128943357Y-99073819D01*
X128939436Y-99076211D01*
X128939430Y-99076215D01*
X128713819Y-99213903D01*
X128713809Y-99213909D01*
X128709888Y-99216303D01*
X128706361Y-99219237D01*
X128706350Y-99219246D01*
X128503187Y-99388320D01*
X128503179Y-99388327D01*
X128499653Y-99391262D01*
X128496584Y-99394686D01*
X128496581Y-99394690D01*
X128320211Y-99591530D01*
X128320201Y-99591542D01*
X128317133Y-99594967D01*
X128314593Y-99598805D01*
X128314590Y-99598810D01*
X128240844Y-99710278D01*
X128166217Y-99823077D01*
X128164268Y-99827234D01*
X128164261Y-99827247D01*
X128052077Y-100066560D01*
X128050123Y-100070729D01*
X128048801Y-100075122D01*
X128048796Y-100075136D01*
X127972651Y-100328232D01*
X127972649Y-100328240D01*
X127971324Y-100332645D01*
X127970653Y-100337201D01*
X127970652Y-100337208D01*
X127932171Y-100598681D01*
X127931500Y-100603243D01*
X127931500Y-101328288D01*
X123133500Y-101328288D01*
X123133500Y-94833773D01*
X123151259Y-94769276D01*
X123199530Y-94722960D01*
X123268431Y-94685672D01*
X123268436Y-94685669D01*
X123273017Y-94683190D01*
X123457220Y-94539818D01*
X123615314Y-94368083D01*
X123644517Y-94323383D01*
X123690030Y-94281485D01*
X123750000Y-94266299D01*
X123809970Y-94281485D01*
X123855482Y-94323383D01*
X123884686Y-94368083D01*
X123888214Y-94371915D01*
X124039247Y-94535981D01*
X124039252Y-94535985D01*
X124042780Y-94539818D01*
X124226983Y-94683190D01*
X124432273Y-94794287D01*
X124653049Y-94870080D01*
X124883288Y-94908500D01*
X125111501Y-94908500D01*
X125116712Y-94908500D01*
X125346951Y-94870080D01*
X125567727Y-94794287D01*
X125773017Y-94683190D01*
X125939729Y-94553431D01*
X125992999Y-94529195D01*
X126051477Y-94531641D01*
X126102540Y-94560244D01*
X126135172Y-94608833D01*
X126145961Y-94637761D01*
X126145963Y-94637766D01*
X126149111Y-94646204D01*
X126154508Y-94653414D01*
X126154510Y-94653417D01*
X126174401Y-94679988D01*
X126236739Y-94763261D01*
X126243950Y-94768659D01*
X126330931Y-94833773D01*
X126353796Y-94850889D01*
X126490799Y-94901989D01*
X126551362Y-94908500D01*
X128445269Y-94908500D01*
X128448638Y-94908500D01*
X128509201Y-94901989D01*
X128646204Y-94850889D01*
X128763261Y-94763261D01*
X128850889Y-94646204D01*
X128901989Y-94509201D01*
X128908500Y-94448638D01*
X128908500Y-93500000D01*
X171086673Y-93500000D01*
X171105949Y-93732626D01*
X171163251Y-93958907D01*
X171257016Y-94172669D01*
X171384686Y-94368083D01*
X171388214Y-94371915D01*
X171539247Y-94535981D01*
X171539252Y-94535985D01*
X171542780Y-94539818D01*
X171726983Y-94683190D01*
X171932273Y-94794287D01*
X172153049Y-94870080D01*
X172383288Y-94908500D01*
X172611501Y-94908500D01*
X172616712Y-94908500D01*
X172846951Y-94870080D01*
X173067727Y-94794287D01*
X173273017Y-94683190D01*
X173457220Y-94539818D01*
X173615314Y-94368083D01*
X173644517Y-94323383D01*
X173690030Y-94281485D01*
X173750000Y-94266299D01*
X173809970Y-94281485D01*
X173855482Y-94323383D01*
X173884686Y-94368083D01*
X173888214Y-94371915D01*
X174039247Y-94535981D01*
X174039252Y-94535985D01*
X174042780Y-94539818D01*
X174226983Y-94683190D01*
X174432273Y-94794287D01*
X174653049Y-94870080D01*
X174883288Y-94908500D01*
X175111501Y-94908500D01*
X175116712Y-94908500D01*
X175346951Y-94870080D01*
X175567727Y-94794287D01*
X175773017Y-94683190D01*
X175939729Y-94553431D01*
X175992999Y-94529195D01*
X176051477Y-94531641D01*
X176102540Y-94560244D01*
X176135172Y-94608833D01*
X176145961Y-94637761D01*
X176145963Y-94637766D01*
X176149111Y-94646204D01*
X176154508Y-94653414D01*
X176154510Y-94653417D01*
X176174401Y-94679988D01*
X176236739Y-94763261D01*
X176243950Y-94768659D01*
X176330931Y-94833773D01*
X176353796Y-94850889D01*
X176490799Y-94901989D01*
X176551362Y-94908500D01*
X178445269Y-94908500D01*
X178448638Y-94908500D01*
X178509201Y-94901989D01*
X178646204Y-94850889D01*
X178763261Y-94763261D01*
X178850889Y-94646204D01*
X178901989Y-94509201D01*
X178908500Y-94448638D01*
X178908500Y-92551362D01*
X178901989Y-92490799D01*
X178850889Y-92353796D01*
X178763261Y-92236739D01*
X178756049Y-92231340D01*
X178653417Y-92154510D01*
X178653414Y-92154508D01*
X178646204Y-92149111D01*
X178637766Y-92145964D01*
X178637763Y-92145962D01*
X178516580Y-92100763D01*
X178516578Y-92100762D01*
X178509201Y-92098011D01*
X178501373Y-92097169D01*
X178501367Y-92097168D01*
X178451988Y-92091860D01*
X178451985Y-92091859D01*
X178448638Y-92091500D01*
X176551362Y-92091500D01*
X176548015Y-92091859D01*
X176548011Y-92091860D01*
X176498632Y-92097168D01*
X176498625Y-92097169D01*
X176490799Y-92098011D01*
X176483423Y-92100761D01*
X176483419Y-92100763D01*
X176362236Y-92145962D01*
X176362230Y-92145965D01*
X176353796Y-92149111D01*
X176346588Y-92154506D01*
X176346582Y-92154510D01*
X176243950Y-92231340D01*
X176243946Y-92231343D01*
X176236739Y-92236739D01*
X176231343Y-92243946D01*
X176231340Y-92243950D01*
X176154510Y-92346582D01*
X176154506Y-92346588D01*
X176149111Y-92353796D01*
X176145964Y-92362231D01*
X176145959Y-92362242D01*
X176135171Y-92391167D01*
X176102540Y-92439756D01*
X176051476Y-92468358D01*
X175992999Y-92470804D01*
X175939725Y-92446565D01*
X175777130Y-92320011D01*
X175777127Y-92320009D01*
X175773017Y-92316810D01*
X175768438Y-92314332D01*
X175768435Y-92314330D01*
X175572312Y-92208194D01*
X175572309Y-92208192D01*
X175567727Y-92205713D01*
X175562799Y-92204021D01*
X175562794Y-92204019D01*
X175351881Y-92131612D01*
X175351875Y-92131610D01*
X175346951Y-92129920D01*
X175341814Y-92129062D01*
X175341811Y-92129062D01*
X175121849Y-92092357D01*
X175121846Y-92092356D01*
X175116712Y-92091500D01*
X174883288Y-92091500D01*
X174878154Y-92092356D01*
X174878150Y-92092357D01*
X174658188Y-92129062D01*
X174658182Y-92129063D01*
X174653049Y-92129920D01*
X174648127Y-92131609D01*
X174648118Y-92131612D01*
X174437205Y-92204019D01*
X174437196Y-92204022D01*
X174432273Y-92205713D01*
X174427694Y-92208190D01*
X174427687Y-92208194D01*
X174231564Y-92314330D01*
X174231556Y-92314335D01*
X174226983Y-92316810D01*
X174222877Y-92320005D01*
X174222869Y-92320011D01*
X174046898Y-92456976D01*
X174046892Y-92456981D01*
X174042780Y-92460182D01*
X174039258Y-92464007D01*
X174039247Y-92464018D01*
X173888214Y-92628084D01*
X173888211Y-92628087D01*
X173884686Y-92631917D01*
X173881842Y-92636268D01*
X173881838Y-92636275D01*
X173855483Y-92676616D01*
X173809969Y-92718514D01*
X173750000Y-92733700D01*
X173690031Y-92718514D01*
X173644517Y-92676616D01*
X173618161Y-92636275D01*
X173615314Y-92631917D01*
X173492616Y-92498632D01*
X173460752Y-92464018D01*
X173460747Y-92464013D01*
X173457220Y-92460182D01*
X173331380Y-92362236D01*
X173277130Y-92320011D01*
X173277127Y-92320009D01*
X173273017Y-92316810D01*
X173268438Y-92314332D01*
X173268435Y-92314330D01*
X173072312Y-92208194D01*
X173072309Y-92208192D01*
X173067727Y-92205713D01*
X173062799Y-92204021D01*
X173062794Y-92204019D01*
X172851881Y-92131612D01*
X172851875Y-92131610D01*
X172846951Y-92129920D01*
X172841814Y-92129062D01*
X172841811Y-92129062D01*
X172621849Y-92092357D01*
X172621846Y-92092356D01*
X172616712Y-92091500D01*
X172383288Y-92091500D01*
X172378154Y-92092356D01*
X172378150Y-92092357D01*
X172158188Y-92129062D01*
X172158182Y-92129063D01*
X172153049Y-92129920D01*
X172148127Y-92131609D01*
X172148118Y-92131612D01*
X171937205Y-92204019D01*
X171937196Y-92204022D01*
X171932273Y-92205713D01*
X171927694Y-92208190D01*
X171927687Y-92208194D01*
X171731564Y-92314330D01*
X171731556Y-92314335D01*
X171726983Y-92316810D01*
X171722877Y-92320005D01*
X171722869Y-92320011D01*
X171546898Y-92456976D01*
X171546892Y-92456981D01*
X171542780Y-92460182D01*
X171539258Y-92464007D01*
X171539247Y-92464018D01*
X171388214Y-92628084D01*
X171388211Y-92628087D01*
X171384686Y-92631917D01*
X171381838Y-92636275D01*
X171381835Y-92636280D01*
X171318188Y-92733700D01*
X171257016Y-92827331D01*
X171254923Y-92832101D01*
X171254921Y-92832106D01*
X171165344Y-93036320D01*
X171165341Y-93036326D01*
X171163251Y-93041093D01*
X171161973Y-93046137D01*
X171161971Y-93046145D01*
X171107230Y-93262315D01*
X171105949Y-93267374D01*
X171105519Y-93272562D01*
X171105518Y-93272569D01*
X171087961Y-93484446D01*
X171086673Y-93500000D01*
X128908500Y-93500000D01*
X128908500Y-92551362D01*
X128901989Y-92490799D01*
X128850889Y-92353796D01*
X128763261Y-92236739D01*
X128756049Y-92231340D01*
X128653417Y-92154510D01*
X128653414Y-92154508D01*
X128646204Y-92149111D01*
X128637766Y-92145964D01*
X128637763Y-92145962D01*
X128516580Y-92100763D01*
X128516578Y-92100762D01*
X128509201Y-92098011D01*
X128501373Y-92097169D01*
X128501367Y-92097168D01*
X128451988Y-92091860D01*
X128451985Y-92091859D01*
X128448638Y-92091500D01*
X126551362Y-92091500D01*
X126548015Y-92091859D01*
X126548011Y-92091860D01*
X126498632Y-92097168D01*
X126498625Y-92097169D01*
X126490799Y-92098011D01*
X126483423Y-92100761D01*
X126483419Y-92100763D01*
X126362236Y-92145962D01*
X126362230Y-92145965D01*
X126353796Y-92149111D01*
X126346588Y-92154506D01*
X126346582Y-92154510D01*
X126243950Y-92231340D01*
X126243946Y-92231343D01*
X126236739Y-92236739D01*
X126231343Y-92243946D01*
X126231340Y-92243950D01*
X126154510Y-92346582D01*
X126154506Y-92346588D01*
X126149111Y-92353796D01*
X126145964Y-92362231D01*
X126145959Y-92362242D01*
X126135171Y-92391167D01*
X126102540Y-92439756D01*
X126051476Y-92468358D01*
X125992999Y-92470804D01*
X125939725Y-92446565D01*
X125777130Y-92320011D01*
X125777127Y-92320009D01*
X125773017Y-92316810D01*
X125768438Y-92314332D01*
X125768435Y-92314330D01*
X125572312Y-92208194D01*
X125572309Y-92208192D01*
X125567727Y-92205713D01*
X125562799Y-92204021D01*
X125562794Y-92204019D01*
X125351881Y-92131612D01*
X125351875Y-92131610D01*
X125346951Y-92129920D01*
X125341814Y-92129062D01*
X125341811Y-92129062D01*
X125121849Y-92092357D01*
X125121846Y-92092356D01*
X125116712Y-92091500D01*
X124883288Y-92091500D01*
X124878154Y-92092356D01*
X124878150Y-92092357D01*
X124658188Y-92129062D01*
X124658182Y-92129063D01*
X124653049Y-92129920D01*
X124648127Y-92131609D01*
X124648118Y-92131612D01*
X124437205Y-92204019D01*
X124437196Y-92204022D01*
X124432273Y-92205713D01*
X124427694Y-92208190D01*
X124427687Y-92208194D01*
X124231564Y-92314330D01*
X124231556Y-92314335D01*
X124226983Y-92316810D01*
X124222877Y-92320005D01*
X124222869Y-92320011D01*
X124046898Y-92456976D01*
X124046892Y-92456981D01*
X124042780Y-92460182D01*
X124039258Y-92464007D01*
X124039247Y-92464018D01*
X123888214Y-92628084D01*
X123888211Y-92628087D01*
X123884686Y-92631917D01*
X123881842Y-92636268D01*
X123881838Y-92636275D01*
X123855483Y-92676616D01*
X123809969Y-92718514D01*
X123750000Y-92733700D01*
X123690031Y-92718514D01*
X123644517Y-92676616D01*
X123618161Y-92636275D01*
X123615314Y-92631917D01*
X123492616Y-92498632D01*
X123460752Y-92464018D01*
X123460747Y-92464013D01*
X123457220Y-92460182D01*
X123331380Y-92362236D01*
X123277130Y-92320011D01*
X123277127Y-92320009D01*
X123273017Y-92316810D01*
X123268438Y-92314332D01*
X123268435Y-92314330D01*
X123072312Y-92208194D01*
X123072309Y-92208192D01*
X123067727Y-92205713D01*
X123062799Y-92204021D01*
X123062794Y-92204019D01*
X122851881Y-92131612D01*
X122851875Y-92131610D01*
X122846951Y-92129920D01*
X122841814Y-92129062D01*
X122841811Y-92129062D01*
X122621849Y-92092357D01*
X122621846Y-92092356D01*
X122616712Y-92091500D01*
X122383288Y-92091500D01*
X122378154Y-92092356D01*
X122378150Y-92092357D01*
X122158188Y-92129062D01*
X122158182Y-92129063D01*
X122153049Y-92129920D01*
X122148127Y-92131609D01*
X122148118Y-92131612D01*
X121937205Y-92204019D01*
X121937196Y-92204022D01*
X121932273Y-92205713D01*
X121927694Y-92208190D01*
X121927687Y-92208194D01*
X121731564Y-92314330D01*
X121731556Y-92314335D01*
X121726983Y-92316810D01*
X121722877Y-92320005D01*
X121722869Y-92320011D01*
X121546898Y-92456976D01*
X121546892Y-92456981D01*
X121542780Y-92460182D01*
X121539258Y-92464007D01*
X121539247Y-92464018D01*
X121388214Y-92628084D01*
X121388211Y-92628087D01*
X121384686Y-92631917D01*
X121381838Y-92636275D01*
X121381835Y-92636280D01*
X121318188Y-92733700D01*
X121257016Y-92827331D01*
X121254923Y-92832101D01*
X121254921Y-92832106D01*
X121165344Y-93036320D01*
X121165341Y-93036326D01*
X121163251Y-93041093D01*
X121161973Y-93046137D01*
X121161971Y-93046145D01*
X121107230Y-93262315D01*
X121105949Y-93267374D01*
X121105519Y-93272562D01*
X121105518Y-93272569D01*
X121087961Y-93484446D01*
X121086673Y-93500000D01*
X121105949Y-93732626D01*
X121163251Y-93958907D01*
X121257016Y-94172669D01*
X121384686Y-94368083D01*
X121388214Y-94371915D01*
X121539247Y-94535981D01*
X121539252Y-94535985D01*
X121542780Y-94539818D01*
X121726983Y-94683190D01*
X121731561Y-94685667D01*
X121731568Y-94685672D01*
X121800470Y-94722960D01*
X121848741Y-94769276D01*
X121866500Y-94833773D01*
X121866500Y-99471622D01*
X121851268Y-99531676D01*
X121809253Y-99577211D01*
X121750616Y-99597215D01*
X121689532Y-99586853D01*
X121640772Y-99548630D01*
X121598144Y-99493426D01*
X121595329Y-99489780D01*
X121398426Y-99299941D01*
X121394686Y-99297265D01*
X121394681Y-99297261D01*
X121179730Y-99143477D01*
X121179728Y-99143475D01*
X121175981Y-99140795D01*
X121171885Y-99138689D01*
X120936829Y-99017838D01*
X120936824Y-99017836D01*
X120932734Y-99015733D01*
X120673870Y-98927421D01*
X120657303Y-98924360D01*
X120409436Y-98878577D01*
X120409428Y-98878576D01*
X120404907Y-98877741D01*
X120400316Y-98877573D01*
X120400305Y-98877572D01*
X120136179Y-98867920D01*
X120136176Y-98867920D01*
X120131576Y-98867752D01*
X120127008Y-98868254D01*
X120126996Y-98868255D01*
X119864277Y-98897162D01*
X119864265Y-98897164D01*
X119859704Y-98897666D01*
X119855261Y-98898827D01*
X119855253Y-98898829D01*
X119599539Y-98965682D01*
X119599535Y-98965683D01*
X119595084Y-98966847D01*
X119590857Y-98968643D01*
X119590846Y-98968647D01*
X119347588Y-99072020D01*
X119347576Y-99072025D01*
X119343357Y-99073819D01*
X119339436Y-99076211D01*
X119339430Y-99076215D01*
X119113819Y-99213903D01*
X119113809Y-99213909D01*
X119109888Y-99216303D01*
X119106361Y-99219237D01*
X119106350Y-99219246D01*
X118903187Y-99388320D01*
X118903179Y-99388327D01*
X118899653Y-99391262D01*
X118896584Y-99394686D01*
X118896581Y-99394690D01*
X118720211Y-99591530D01*
X118720201Y-99591542D01*
X118717133Y-99594967D01*
X118714593Y-99598805D01*
X118714590Y-99598810D01*
X118640844Y-99710278D01*
X118566217Y-99823077D01*
X118564268Y-99827234D01*
X118564261Y-99827247D01*
X118452077Y-100066560D01*
X118450123Y-100070729D01*
X118448801Y-100075122D01*
X118448796Y-100075136D01*
X118372651Y-100328232D01*
X118372649Y-100328240D01*
X118371324Y-100332645D01*
X118370653Y-100337201D01*
X118370652Y-100337208D01*
X118332171Y-100598681D01*
X118331500Y-100603243D01*
X118331500Y-101328288D01*
X118331666Y-101330558D01*
X118331667Y-101330581D01*
X118346130Y-101528188D01*
X118346131Y-101528197D01*
X118346467Y-101532783D01*
X118405937Y-101799753D01*
X118503645Y-102055219D01*
X118505897Y-102059231D01*
X118505900Y-102059238D01*
X118635253Y-102289721D01*
X118635257Y-102289727D01*
X118637507Y-102293736D01*
X118804671Y-102510220D01*
X119001574Y-102700059D01*
X119005314Y-102702735D01*
X119005318Y-102702738D01*
X119176415Y-102825147D01*
X119224019Y-102859205D01*
X119467266Y-102984267D01*
X119726130Y-103072579D01*
X119995093Y-103122259D01*
X120268424Y-103132248D01*
X120540296Y-103102334D01*
X120804916Y-103033153D01*
X121056643Y-102926181D01*
X121290112Y-102783697D01*
X121500347Y-102608738D01*
X121646658Y-102445444D01*
X121696350Y-102411514D01*
X121756109Y-102404497D01*
X121812309Y-102425991D01*
X121852133Y-102471096D01*
X121866500Y-102529526D01*
X121866500Y-128005405D01*
X121856909Y-128053623D01*
X121829595Y-128094500D01*
X117682422Y-132241671D01*
X117625939Y-132274282D01*
X117560718Y-132274283D01*
X117534690Y-132267309D01*
X117534676Y-132267306D01*
X117529371Y-132265885D01*
X117523903Y-132265406D01*
X117523894Y-132265405D01*
X117315475Y-132247172D01*
X117310000Y-132246693D01*
X117304525Y-132247172D01*
X117096105Y-132265405D01*
X117096094Y-132265406D01*
X117090629Y-132265885D01*
X117085328Y-132267305D01*
X117085319Y-132267307D01*
X116883235Y-132321456D01*
X116883225Y-132321459D01*
X116877924Y-132322880D01*
X116872947Y-132325200D01*
X116872938Y-132325204D01*
X116683334Y-132413618D01*
X116683329Y-132413620D01*
X116678347Y-132415944D01*
X116673848Y-132419094D01*
X116673838Y-132419100D01*
X116502473Y-132539092D01*
X116502470Y-132539094D01*
X116497962Y-132542251D01*
X116494070Y-132546142D01*
X116494064Y-132546148D01*
X116346148Y-132694064D01*
X116346142Y-132694070D01*
X116342251Y-132697962D01*
X116339094Y-132702470D01*
X116339092Y-132702473D01*
X116219100Y-132873838D01*
X116219094Y-132873848D01*
X116215944Y-132878347D01*
X116213620Y-132883329D01*
X116213618Y-132883334D01*
X116125204Y-133072938D01*
X116125200Y-133072947D01*
X116122880Y-133077924D01*
X116121459Y-133083225D01*
X116121456Y-133083235D01*
X116067307Y-133285319D01*
X116067305Y-133285328D01*
X116065885Y-133290629D01*
X116065406Y-133296094D01*
X116065405Y-133296105D01*
X116047394Y-133501976D01*
X116046693Y-133510000D01*
X114000500Y-133510000D01*
X114000500Y-125670870D01*
X116621762Y-125670870D01*
X116629314Y-125679112D01*
X116674085Y-125710461D01*
X116683586Y-125715947D01*
X116873112Y-125804325D01*
X116883404Y-125808071D01*
X117085401Y-125862195D01*
X117096196Y-125864099D01*
X117304525Y-125882326D01*
X117315475Y-125882326D01*
X117523803Y-125864099D01*
X117534598Y-125862195D01*
X117736595Y-125808071D01*
X117746887Y-125804325D01*
X117936413Y-125715947D01*
X117945914Y-125710461D01*
X117990683Y-125679112D01*
X117998236Y-125670870D01*
X117992229Y-125661440D01*
X117321730Y-124990940D01*
X117309999Y-124984167D01*
X117298270Y-124990939D01*
X116627772Y-125661437D01*
X116621762Y-125670870D01*
X114000500Y-125670870D01*
X114000500Y-124625475D01*
X116047674Y-124625475D01*
X116065900Y-124833803D01*
X116067804Y-124844598D01*
X116121928Y-125046595D01*
X116125674Y-125056887D01*
X116214053Y-125246415D01*
X116219535Y-125255911D01*
X116250886Y-125300684D01*
X116259128Y-125308236D01*
X116268558Y-125302229D01*
X116939058Y-124631730D01*
X116945831Y-124619999D01*
X117674167Y-124619999D01*
X117680939Y-124631728D01*
X118351437Y-125302226D01*
X118360870Y-125308236D01*
X118369112Y-125300683D01*
X118400461Y-125255914D01*
X118405947Y-125246413D01*
X118494325Y-125056887D01*
X118498071Y-125046595D01*
X118552195Y-124844598D01*
X118554099Y-124833803D01*
X118572326Y-124625475D01*
X118572326Y-124614525D01*
X118554099Y-124406196D01*
X118552195Y-124395401D01*
X118498071Y-124193404D01*
X118494325Y-124183112D01*
X118405946Y-123993585D01*
X118400464Y-123984089D01*
X118369112Y-123939314D01*
X118360870Y-123931762D01*
X118351440Y-123937769D01*
X117680940Y-124608268D01*
X117674167Y-124619999D01*
X116945831Y-124619999D01*
X116939059Y-124608270D01*
X116268560Y-123937771D01*
X116259128Y-123931762D01*
X116250887Y-123939313D01*
X116219533Y-123984092D01*
X116214054Y-123993583D01*
X116125674Y-124183112D01*
X116121928Y-124193404D01*
X116067804Y-124395401D01*
X116065900Y-124406196D01*
X116047674Y-124614525D01*
X116047674Y-124625475D01*
X114000500Y-124625475D01*
X114000500Y-123569128D01*
X116621762Y-123569128D01*
X116627771Y-123578560D01*
X117298270Y-124249059D01*
X117309999Y-124255831D01*
X117321730Y-124249058D01*
X117992229Y-123578558D01*
X117998236Y-123569128D01*
X117990684Y-123560886D01*
X117945911Y-123529535D01*
X117936415Y-123524053D01*
X117746887Y-123435674D01*
X117736595Y-123431928D01*
X117534598Y-123377804D01*
X117523803Y-123375900D01*
X117315475Y-123357674D01*
X117304525Y-123357674D01*
X117096196Y-123375900D01*
X117085401Y-123377804D01*
X116883404Y-123431928D01*
X116873112Y-123435674D01*
X116683583Y-123524054D01*
X116674092Y-123529533D01*
X116629313Y-123560887D01*
X116621762Y-123569128D01*
X114000500Y-123569128D01*
X114000500Y-115730000D01*
X116046693Y-115730000D01*
X116047172Y-115735475D01*
X116065405Y-115943894D01*
X116065406Y-115943903D01*
X116065885Y-115949371D01*
X116067305Y-115954673D01*
X116067307Y-115954680D01*
X116121456Y-116156764D01*
X116121458Y-116156770D01*
X116122880Y-116162076D01*
X116125202Y-116167055D01*
X116125204Y-116167061D01*
X116213618Y-116356666D01*
X116215944Y-116361654D01*
X116219097Y-116366157D01*
X116219100Y-116366162D01*
X116292223Y-116470591D01*
X116342251Y-116542038D01*
X116497962Y-116697749D01*
X116678346Y-116824056D01*
X116877924Y-116917120D01*
X117090629Y-116974115D01*
X117310000Y-116993307D01*
X117529371Y-116974115D01*
X117742076Y-116917120D01*
X117941654Y-116824056D01*
X118122038Y-116697749D01*
X118277749Y-116542038D01*
X118404056Y-116361654D01*
X118497120Y-116162076D01*
X118554115Y-115949371D01*
X118573307Y-115730000D01*
X118554115Y-115510629D01*
X118497120Y-115297924D01*
X118404056Y-115098347D01*
X118277749Y-114917962D01*
X118122038Y-114762251D01*
X118050591Y-114712223D01*
X117946162Y-114639100D01*
X117946157Y-114639097D01*
X117941654Y-114635944D01*
X117936666Y-114633618D01*
X117747061Y-114545204D01*
X117747055Y-114545202D01*
X117742076Y-114542880D01*
X117736770Y-114541458D01*
X117736764Y-114541456D01*
X117534680Y-114487307D01*
X117534673Y-114487305D01*
X117529371Y-114485885D01*
X117523903Y-114485406D01*
X117523894Y-114485405D01*
X117315475Y-114467172D01*
X117310000Y-114466693D01*
X117304525Y-114467172D01*
X117096105Y-114485405D01*
X117096094Y-114485406D01*
X117090629Y-114485885D01*
X117085328Y-114487305D01*
X117085319Y-114487307D01*
X116883235Y-114541456D01*
X116883225Y-114541459D01*
X116877924Y-114542880D01*
X116872947Y-114545200D01*
X116872938Y-114545204D01*
X116683334Y-114633618D01*
X116683329Y-114633620D01*
X116678347Y-114635944D01*
X116673848Y-114639094D01*
X116673838Y-114639100D01*
X116502473Y-114759092D01*
X116502470Y-114759094D01*
X116497962Y-114762251D01*
X116494070Y-114766142D01*
X116494064Y-114766148D01*
X116346148Y-114914064D01*
X116346142Y-114914070D01*
X116342251Y-114917962D01*
X116339094Y-114922470D01*
X116339092Y-114922473D01*
X116219100Y-115093838D01*
X116219094Y-115093848D01*
X116215944Y-115098347D01*
X116213620Y-115103329D01*
X116213618Y-115103334D01*
X116125204Y-115292938D01*
X116125200Y-115292947D01*
X116122880Y-115297924D01*
X116121459Y-115303225D01*
X116121456Y-115303235D01*
X116067307Y-115505319D01*
X116067305Y-115505328D01*
X116065885Y-115510629D01*
X116065406Y-115516094D01*
X116065405Y-115516105D01*
X116047394Y-115721976D01*
X116046693Y-115730000D01*
X114000500Y-115730000D01*
X114000500Y-85000000D01*
X118316793Y-85000000D01*
X118335593Y-85250869D01*
X118336642Y-85255468D01*
X118336643Y-85255470D01*
X118390523Y-85491534D01*
X118391573Y-85496134D01*
X118393296Y-85500525D01*
X118393297Y-85500527D01*
X118432808Y-85601199D01*
X118483483Y-85730316D01*
X118485838Y-85734396D01*
X118485842Y-85734403D01*
X118606913Y-85944104D01*
X118609269Y-85948184D01*
X118766122Y-86144872D01*
X118769582Y-86148082D01*
X118947082Y-86312778D01*
X118947087Y-86312782D01*
X118950538Y-86315984D01*
X119158397Y-86457700D01*
X119162642Y-86459744D01*
X119162645Y-86459746D01*
X119264662Y-86508874D01*
X119385055Y-86566853D01*
X119625451Y-86641005D01*
X119874214Y-86678500D01*
X120121070Y-86678500D01*
X120125786Y-86678500D01*
X120374549Y-86641005D01*
X120614945Y-86566853D01*
X120841604Y-86457700D01*
X121049462Y-86315984D01*
X121233878Y-86144872D01*
X121390731Y-85948184D01*
X121516517Y-85730316D01*
X121608427Y-85496134D01*
X121664407Y-85250869D01*
X121683207Y-85000000D01*
X123316793Y-85000000D01*
X123335593Y-85250869D01*
X123336642Y-85255468D01*
X123336643Y-85255470D01*
X123390523Y-85491534D01*
X123391573Y-85496134D01*
X123393296Y-85500525D01*
X123393297Y-85500527D01*
X123432808Y-85601199D01*
X123483483Y-85730316D01*
X123485838Y-85734396D01*
X123485842Y-85734403D01*
X123606913Y-85944104D01*
X123609269Y-85948184D01*
X123766122Y-86144872D01*
X123769582Y-86148082D01*
X123947082Y-86312778D01*
X123947087Y-86312782D01*
X123950538Y-86315984D01*
X124158397Y-86457700D01*
X124162642Y-86459744D01*
X124162645Y-86459746D01*
X124264662Y-86508874D01*
X124385055Y-86566853D01*
X124625451Y-86641005D01*
X124874214Y-86678500D01*
X125121070Y-86678500D01*
X125125786Y-86678500D01*
X125374549Y-86641005D01*
X125614945Y-86566853D01*
X125841604Y-86457700D01*
X126049462Y-86315984D01*
X126233878Y-86144872D01*
X126390731Y-85948184D01*
X126516517Y-85730316D01*
X126608427Y-85496134D01*
X126664407Y-85250869D01*
X126683207Y-85000000D01*
X126664407Y-84749131D01*
X126608427Y-84503866D01*
X126516517Y-84269684D01*
X126390731Y-84051816D01*
X126233878Y-83855128D01*
X126049462Y-83684016D01*
X126045566Y-83681360D01*
X125858124Y-83553563D01*
X125841604Y-83542300D01*
X125837357Y-83540254D01*
X125837354Y-83540253D01*
X125619194Y-83435193D01*
X125619191Y-83435192D01*
X125614945Y-83433147D01*
X125610447Y-83431759D01*
X125610438Y-83431756D01*
X125379050Y-83360383D01*
X125379045Y-83360381D01*
X125374549Y-83358995D01*
X125369895Y-83358293D01*
X125369893Y-83358293D01*
X125130447Y-83322202D01*
X125130439Y-83322201D01*
X125125786Y-83321500D01*
X124874214Y-83321500D01*
X124869561Y-83322201D01*
X124869552Y-83322202D01*
X124630106Y-83358293D01*
X124630101Y-83358294D01*
X124625451Y-83358995D01*
X124620957Y-83360381D01*
X124620949Y-83360383D01*
X124389561Y-83431756D01*
X124389548Y-83431761D01*
X124385055Y-83433147D01*
X124380812Y-83435189D01*
X124380805Y-83435193D01*
X124162645Y-83540253D01*
X124162631Y-83540260D01*
X124158397Y-83542300D01*
X124154508Y-83544950D01*
X124154500Y-83544956D01*
X123954433Y-83681360D01*
X123954432Y-83681361D01*
X123950538Y-83684016D01*
X123947094Y-83687210D01*
X123947082Y-83687221D01*
X123769582Y-83851917D01*
X123769577Y-83851921D01*
X123766122Y-83855128D01*
X123763186Y-83858809D01*
X123763181Y-83858815D01*
X123612204Y-84048135D01*
X123609269Y-84051816D01*
X123606919Y-84055885D01*
X123606913Y-84055895D01*
X123485842Y-84265596D01*
X123485839Y-84265603D01*
X123483483Y-84269684D01*
X123481760Y-84274073D01*
X123481759Y-84274076D01*
X123393297Y-84499472D01*
X123393295Y-84499478D01*
X123391573Y-84503866D01*
X123390524Y-84508461D01*
X123390523Y-84508465D01*
X123343926Y-84712623D01*
X123335593Y-84749131D01*
X123316793Y-85000000D01*
X121683207Y-85000000D01*
X121664407Y-84749131D01*
X121608427Y-84503866D01*
X121577575Y-84425258D01*
X121568876Y-84377655D01*
X121578760Y-84330283D01*
X121605768Y-84290134D01*
X127370681Y-78525223D01*
X130867000Y-78525223D01*
X130867359Y-78531938D01*
X130872662Y-78581257D01*
X130876259Y-78596478D01*
X130921405Y-78717519D01*
X130929954Y-78733175D01*
X131006697Y-78835692D01*
X131019307Y-78848302D01*
X131121824Y-78925045D01*
X131137480Y-78933594D01*
X131258521Y-78978740D01*
X131273742Y-78982337D01*
X131323061Y-78987640D01*
X131329777Y-78988000D01*
X131954410Y-78988000D01*
X131967493Y-78984493D01*
X131971000Y-78971410D01*
X131971000Y-77900590D01*
X131967493Y-77887506D01*
X131954410Y-77884000D01*
X130883590Y-77884000D01*
X130870506Y-77887506D01*
X130867000Y-77900590D01*
X130867000Y-78525223D01*
X127370681Y-78525223D01*
X128770499Y-77125405D01*
X128811377Y-77098091D01*
X128859595Y-77088500D01*
X130741000Y-77088500D01*
X130804000Y-77105381D01*
X130850119Y-77151500D01*
X130867000Y-77214500D01*
X130867000Y-77359410D01*
X130870506Y-77372493D01*
X130883590Y-77376000D01*
X132353000Y-77376000D01*
X132416000Y-77392881D01*
X132462119Y-77439000D01*
X132479000Y-77502000D01*
X132479000Y-78971410D01*
X132482506Y-78984493D01*
X132495590Y-78988000D01*
X133120223Y-78988000D01*
X133126938Y-78987640D01*
X133176257Y-78982337D01*
X133191478Y-78978740D01*
X133312519Y-78933594D01*
X133328175Y-78925045D01*
X133430692Y-78848302D01*
X133443302Y-78835692D01*
X133520045Y-78733175D01*
X133528594Y-78717519D01*
X133569618Y-78607531D01*
X133606150Y-78555491D01*
X133663440Y-78527915D01*
X133726902Y-78531825D01*
X133780375Y-78566225D01*
X133841760Y-78632906D01*
X134019424Y-78771189D01*
X134217426Y-78878342D01*
X134222355Y-78880034D01*
X134222357Y-78880035D01*
X134292430Y-78904091D01*
X134430365Y-78951444D01*
X134652431Y-78988500D01*
X134872358Y-78988500D01*
X134877569Y-78988500D01*
X135099635Y-78951444D01*
X135102956Y-78950303D01*
X135166790Y-78950960D01*
X135222441Y-78983345D01*
X135308595Y-79069499D01*
X135335909Y-79110376D01*
X135345500Y-79158594D01*
X135345500Y-84240500D01*
X135328619Y-84303500D01*
X135282500Y-84349619D01*
X135219500Y-84366500D01*
X131640420Y-84366500D01*
X131591477Y-84356606D01*
X131550220Y-84328477D01*
X131523130Y-84286532D01*
X131518240Y-84274074D01*
X131518239Y-84274073D01*
X131516517Y-84269684D01*
X131390731Y-84051816D01*
X131233878Y-83855128D01*
X131049462Y-83684016D01*
X131045566Y-83681360D01*
X130858124Y-83553563D01*
X130841604Y-83542300D01*
X130837357Y-83540254D01*
X130837354Y-83540253D01*
X130619194Y-83435193D01*
X130619191Y-83435192D01*
X130614945Y-83433147D01*
X130610447Y-83431759D01*
X130610438Y-83431756D01*
X130379050Y-83360383D01*
X130379045Y-83360381D01*
X130374549Y-83358995D01*
X130369895Y-83358293D01*
X130369893Y-83358293D01*
X130130447Y-83322202D01*
X130130439Y-83322201D01*
X130125786Y-83321500D01*
X129874214Y-83321500D01*
X129869561Y-83322201D01*
X129869552Y-83322202D01*
X129630106Y-83358293D01*
X129630101Y-83358294D01*
X129625451Y-83358995D01*
X129620957Y-83360381D01*
X129620949Y-83360383D01*
X129389561Y-83431756D01*
X129389548Y-83431761D01*
X129385055Y-83433147D01*
X129380812Y-83435189D01*
X129380805Y-83435193D01*
X129162645Y-83540253D01*
X129162631Y-83540260D01*
X129158397Y-83542300D01*
X129154508Y-83544950D01*
X129154500Y-83544956D01*
X128954433Y-83681360D01*
X128954432Y-83681361D01*
X128950538Y-83684016D01*
X128947094Y-83687210D01*
X128947082Y-83687221D01*
X128769582Y-83851917D01*
X128769577Y-83851921D01*
X128766122Y-83855128D01*
X128763186Y-83858809D01*
X128763181Y-83858815D01*
X128612204Y-84048135D01*
X128609269Y-84051816D01*
X128606919Y-84055885D01*
X128606913Y-84055895D01*
X128485842Y-84265596D01*
X128485839Y-84265603D01*
X128483483Y-84269684D01*
X128481760Y-84274073D01*
X128481759Y-84274076D01*
X128393297Y-84499472D01*
X128393295Y-84499478D01*
X128391573Y-84503866D01*
X128390524Y-84508461D01*
X128390523Y-84508465D01*
X128343926Y-84712623D01*
X128335593Y-84749131D01*
X128316793Y-85000000D01*
X128335593Y-85250869D01*
X128336642Y-85255468D01*
X128336643Y-85255470D01*
X128390523Y-85491534D01*
X128391573Y-85496134D01*
X128393296Y-85500525D01*
X128393297Y-85500527D01*
X128432808Y-85601199D01*
X128483483Y-85730316D01*
X128485838Y-85734396D01*
X128485842Y-85734403D01*
X128606913Y-85944104D01*
X128609269Y-85948184D01*
X128766122Y-86144872D01*
X128769582Y-86148082D01*
X128947082Y-86312778D01*
X128947087Y-86312782D01*
X128950538Y-86315984D01*
X129158397Y-86457700D01*
X129162642Y-86459744D01*
X129162645Y-86459746D01*
X129264662Y-86508874D01*
X129385055Y-86566853D01*
X129625451Y-86641005D01*
X129874214Y-86678500D01*
X130121070Y-86678500D01*
X130125786Y-86678500D01*
X130374549Y-86641005D01*
X130614945Y-86566853D01*
X130841604Y-86457700D01*
X131049462Y-86315984D01*
X131233878Y-86144872D01*
X131390731Y-85948184D01*
X131516517Y-85730316D01*
X131520173Y-85720999D01*
X131523130Y-85713468D01*
X131550220Y-85671523D01*
X131591477Y-85643394D01*
X131640420Y-85633500D01*
X135685406Y-85633500D01*
X135733624Y-85643091D01*
X135774501Y-85670405D01*
X136990853Y-86886757D01*
X136998395Y-86895044D01*
X137002511Y-86901529D01*
X137008290Y-86906955D01*
X137008291Y-86906957D01*
X137052178Y-86948169D01*
X137055020Y-86950924D01*
X137074741Y-86970645D01*
X137077925Y-86973115D01*
X137086948Y-86980820D01*
X137119190Y-87011097D01*
X137126139Y-87014917D01*
X137136940Y-87020855D01*
X137153470Y-87031713D01*
X137163205Y-87039265D01*
X137163208Y-87039267D01*
X137169470Y-87044124D01*
X137210047Y-87061683D01*
X137220682Y-87066892D01*
X137259451Y-87088206D01*
X137279077Y-87093245D01*
X137297770Y-87099645D01*
X137316366Y-87107692D01*
X137324197Y-87108932D01*
X137324200Y-87108933D01*
X137340639Y-87111536D01*
X137360036Y-87114608D01*
X137371636Y-87117009D01*
X137414481Y-87128011D01*
X137434735Y-87128011D01*
X137454445Y-87129561D01*
X137474454Y-87132731D01*
X137518472Y-87128569D01*
X137530330Y-87128011D01*
X178426722Y-87128011D01*
X178437905Y-87128538D01*
X178445398Y-87130213D01*
X178513474Y-87128073D01*
X178517434Y-87128011D01*
X178541383Y-87128011D01*
X178545345Y-87128011D01*
X178549345Y-87127505D01*
X178561188Y-87126572D01*
X178605378Y-87125184D01*
X178624822Y-87119534D01*
X178644191Y-87115523D01*
X178664286Y-87112985D01*
X178705404Y-87096704D01*
X178716606Y-87092868D01*
X178759082Y-87080529D01*
X178776528Y-87070210D01*
X178794258Y-87061524D01*
X178813106Y-87054063D01*
X178848876Y-87028072D01*
X178858787Y-87021562D01*
X178896851Y-86999053D01*
X178911177Y-86984726D01*
X178926206Y-86971889D01*
X178942596Y-86959983D01*
X178970783Y-86925908D01*
X178978761Y-86917141D01*
X179288569Y-86607333D01*
X179347332Y-86574135D01*
X179414799Y-86576027D01*
X179625451Y-86641005D01*
X179874214Y-86678500D01*
X180121070Y-86678500D01*
X180125786Y-86678500D01*
X180374549Y-86641005D01*
X180614945Y-86566853D01*
X180841604Y-86457700D01*
X181049462Y-86315984D01*
X181233878Y-86144872D01*
X181390731Y-85948184D01*
X181516517Y-85730316D01*
X181608427Y-85496134D01*
X181664407Y-85250869D01*
X181683207Y-85000000D01*
X181664407Y-84749131D01*
X181608427Y-84503866D01*
X181516517Y-84269684D01*
X181390731Y-84051816D01*
X181233878Y-83855128D01*
X181049462Y-83684016D01*
X181045566Y-83681360D01*
X180858124Y-83553563D01*
X180841604Y-83542300D01*
X180837357Y-83540254D01*
X180837354Y-83540253D01*
X180619194Y-83435193D01*
X180619191Y-83435192D01*
X180614945Y-83433147D01*
X180610447Y-83431759D01*
X180610438Y-83431756D01*
X180379050Y-83360383D01*
X180379045Y-83360381D01*
X180374549Y-83358995D01*
X180369895Y-83358293D01*
X180369893Y-83358293D01*
X180130447Y-83322202D01*
X180130439Y-83322201D01*
X180125786Y-83321500D01*
X179874214Y-83321500D01*
X179869561Y-83322201D01*
X179869552Y-83322202D01*
X179630106Y-83358293D01*
X179630101Y-83358294D01*
X179625451Y-83358995D01*
X179620957Y-83360381D01*
X179620949Y-83360383D01*
X179389561Y-83431756D01*
X179389548Y-83431761D01*
X179385055Y-83433147D01*
X179380812Y-83435189D01*
X179380805Y-83435193D01*
X179162645Y-83540253D01*
X179162631Y-83540260D01*
X179158397Y-83542300D01*
X179154508Y-83544950D01*
X179154500Y-83544956D01*
X178954433Y-83681360D01*
X178954432Y-83681361D01*
X178950538Y-83684016D01*
X178947094Y-83687210D01*
X178947082Y-83687221D01*
X178769582Y-83851917D01*
X178769577Y-83851921D01*
X178766122Y-83855128D01*
X178763186Y-83858809D01*
X178763181Y-83858815D01*
X178612204Y-84048135D01*
X178609269Y-84051816D01*
X178606919Y-84055885D01*
X178606913Y-84055895D01*
X178485842Y-84265596D01*
X178485839Y-84265603D01*
X178483483Y-84269684D01*
X178481760Y-84274073D01*
X178481759Y-84274076D01*
X178393297Y-84499472D01*
X178393295Y-84499478D01*
X178391573Y-84503866D01*
X178390524Y-84508461D01*
X178390523Y-84508465D01*
X178343926Y-84712623D01*
X178335593Y-84749131D01*
X178316793Y-85000000D01*
X178335593Y-85250869D01*
X178336642Y-85255468D01*
X178336643Y-85255470D01*
X178390523Y-85491534D01*
X178391573Y-85496134D01*
X178393294Y-85500519D01*
X178393298Y-85500532D01*
X178422422Y-85574738D01*
X178431122Y-85622341D01*
X178421238Y-85669712D01*
X178394228Y-85709865D01*
X178279989Y-85824106D01*
X178239112Y-85851420D01*
X178190893Y-85861011D01*
X176650031Y-85861011D01*
X176591155Y-85846410D01*
X176545925Y-85805989D01*
X176524823Y-85749118D01*
X176532741Y-85688978D01*
X176540302Y-85669712D01*
X176608427Y-85496134D01*
X176664407Y-85250869D01*
X176683207Y-85000000D01*
X176664407Y-84749131D01*
X176608427Y-84503866D01*
X176516517Y-84269684D01*
X176390731Y-84051816D01*
X176233878Y-83855128D01*
X176049462Y-83684016D01*
X176045566Y-83681360D01*
X175858124Y-83553563D01*
X175841604Y-83542300D01*
X175837357Y-83540254D01*
X175837354Y-83540253D01*
X175619194Y-83435193D01*
X175619191Y-83435192D01*
X175614945Y-83433147D01*
X175610447Y-83431759D01*
X175610438Y-83431756D01*
X175379050Y-83360383D01*
X175379045Y-83360381D01*
X175374549Y-83358995D01*
X175369895Y-83358293D01*
X175369893Y-83358293D01*
X175130447Y-83322202D01*
X175130439Y-83322201D01*
X175125786Y-83321500D01*
X174874214Y-83321500D01*
X174869561Y-83322201D01*
X174869552Y-83322202D01*
X174630106Y-83358293D01*
X174630101Y-83358294D01*
X174625451Y-83358995D01*
X174620957Y-83360381D01*
X174620949Y-83360383D01*
X174389561Y-83431756D01*
X174389548Y-83431761D01*
X174385055Y-83433147D01*
X174380812Y-83435189D01*
X174380805Y-83435193D01*
X174162645Y-83540253D01*
X174162631Y-83540260D01*
X174158397Y-83542300D01*
X174154508Y-83544950D01*
X174154500Y-83544956D01*
X173954433Y-83681360D01*
X173954432Y-83681361D01*
X173950538Y-83684016D01*
X173947094Y-83687210D01*
X173947082Y-83687221D01*
X173769582Y-83851917D01*
X173769577Y-83851921D01*
X173766122Y-83855128D01*
X173763186Y-83858809D01*
X173763181Y-83858815D01*
X173612204Y-84048135D01*
X173609269Y-84051816D01*
X173606919Y-84055885D01*
X173606913Y-84055895D01*
X173485842Y-84265596D01*
X173485839Y-84265603D01*
X173483483Y-84269684D01*
X173481760Y-84274073D01*
X173481759Y-84274076D01*
X173393297Y-84499472D01*
X173393295Y-84499478D01*
X173391573Y-84503866D01*
X173390524Y-84508461D01*
X173390523Y-84508465D01*
X173343926Y-84712623D01*
X173335593Y-84749131D01*
X173316793Y-85000000D01*
X173335593Y-85250869D01*
X173336642Y-85255468D01*
X173336643Y-85255470D01*
X173390523Y-85491534D01*
X173391573Y-85496134D01*
X173393296Y-85500525D01*
X173393297Y-85500527D01*
X173467259Y-85688978D01*
X173475177Y-85749118D01*
X173454075Y-85805989D01*
X173408845Y-85846410D01*
X173349969Y-85861011D01*
X171650031Y-85861011D01*
X171591155Y-85846410D01*
X171545925Y-85805989D01*
X171524823Y-85749118D01*
X171532741Y-85688978D01*
X171540302Y-85669712D01*
X171608427Y-85496134D01*
X171664407Y-85250869D01*
X171683207Y-85000000D01*
X171664407Y-84749131D01*
X171608427Y-84503866D01*
X171516517Y-84269684D01*
X171390731Y-84051816D01*
X171233878Y-83855128D01*
X171049462Y-83684016D01*
X171045566Y-83681360D01*
X170858124Y-83553563D01*
X170841604Y-83542300D01*
X170837357Y-83540254D01*
X170837354Y-83540253D01*
X170619194Y-83435193D01*
X170619191Y-83435192D01*
X170614945Y-83433147D01*
X170610447Y-83431759D01*
X170610438Y-83431756D01*
X170379050Y-83360383D01*
X170379045Y-83360381D01*
X170374549Y-83358995D01*
X170369895Y-83358293D01*
X170369893Y-83358293D01*
X170130447Y-83322202D01*
X170130439Y-83322201D01*
X170125786Y-83321500D01*
X169874214Y-83321500D01*
X169869561Y-83322201D01*
X169869552Y-83322202D01*
X169630106Y-83358293D01*
X169630101Y-83358294D01*
X169625451Y-83358995D01*
X169620957Y-83360381D01*
X169620949Y-83360383D01*
X169389561Y-83431756D01*
X169389548Y-83431761D01*
X169385055Y-83433147D01*
X169380812Y-83435189D01*
X169380805Y-83435193D01*
X169162645Y-83540253D01*
X169162631Y-83540260D01*
X169158397Y-83542300D01*
X169154508Y-83544950D01*
X169154500Y-83544956D01*
X168954433Y-83681360D01*
X168954432Y-83681361D01*
X168950538Y-83684016D01*
X168947094Y-83687210D01*
X168947082Y-83687221D01*
X168769582Y-83851917D01*
X168769577Y-83851921D01*
X168766122Y-83855128D01*
X168763186Y-83858809D01*
X168763181Y-83858815D01*
X168612204Y-84048135D01*
X168609269Y-84051816D01*
X168606919Y-84055885D01*
X168606913Y-84055895D01*
X168485838Y-84265603D01*
X168485832Y-84265615D01*
X168483483Y-84269684D01*
X168481764Y-84274062D01*
X168481759Y-84274074D01*
X168476870Y-84286532D01*
X168449780Y-84328477D01*
X168408523Y-84356606D01*
X168359580Y-84366500D01*
X139345594Y-84366500D01*
X139297376Y-84356909D01*
X139256499Y-84329595D01*
X137975405Y-83048500D01*
X137948091Y-83007623D01*
X137938500Y-82959405D01*
X137938500Y-78906921D01*
X137956259Y-78842423D01*
X138004531Y-78796107D01*
X138045995Y-78773668D01*
X138045994Y-78773668D01*
X138050576Y-78771189D01*
X138228240Y-78632906D01*
X138380722Y-78467268D01*
X138469518Y-78331354D01*
X138515030Y-78289457D01*
X138575000Y-78274271D01*
X138634970Y-78289457D01*
X138680481Y-78331354D01*
X138769278Y-78467268D01*
X138772806Y-78471100D01*
X138918227Y-78629069D01*
X138918231Y-78629073D01*
X138921760Y-78632906D01*
X139099424Y-78771189D01*
X139297426Y-78878342D01*
X139302355Y-78880034D01*
X139302357Y-78880035D01*
X139372430Y-78904091D01*
X139510365Y-78951444D01*
X139732431Y-78988500D01*
X139952358Y-78988500D01*
X139957569Y-78988500D01*
X140179635Y-78951444D01*
X140392574Y-78878342D01*
X140590576Y-78771189D01*
X140768240Y-78632906D01*
X140920722Y-78467268D01*
X141009518Y-78331354D01*
X141055030Y-78289457D01*
X141115000Y-78274271D01*
X141174970Y-78289457D01*
X141220481Y-78331354D01*
X141309278Y-78467268D01*
X141312806Y-78471100D01*
X141458227Y-78629069D01*
X141458231Y-78629073D01*
X141461760Y-78632906D01*
X141639424Y-78771189D01*
X141837426Y-78878342D01*
X141842355Y-78880034D01*
X141842357Y-78880035D01*
X141912430Y-78904091D01*
X142050365Y-78951444D01*
X142272431Y-78988500D01*
X142492358Y-78988500D01*
X142497569Y-78988500D01*
X142719635Y-78951444D01*
X142932574Y-78878342D01*
X143130576Y-78771189D01*
X143308240Y-78632906D01*
X143460722Y-78467268D01*
X143549518Y-78331354D01*
X143595030Y-78289457D01*
X143655000Y-78274271D01*
X143714970Y-78289457D01*
X143760481Y-78331354D01*
X143849278Y-78467268D01*
X143852806Y-78471100D01*
X143998227Y-78629069D01*
X143998231Y-78629073D01*
X144001760Y-78632906D01*
X144179424Y-78771189D01*
X144377426Y-78878342D01*
X144382355Y-78880034D01*
X144382357Y-78880035D01*
X144452430Y-78904091D01*
X144590365Y-78951444D01*
X144812431Y-78988500D01*
X145032358Y-78988500D01*
X145037569Y-78988500D01*
X145259635Y-78951444D01*
X145472574Y-78878342D01*
X145670576Y-78771189D01*
X145848240Y-78632906D01*
X146000722Y-78467268D01*
X146089518Y-78331354D01*
X146135030Y-78289457D01*
X146195000Y-78274271D01*
X146254970Y-78289457D01*
X146300481Y-78331354D01*
X146389278Y-78467268D01*
X146392806Y-78471100D01*
X146538227Y-78629069D01*
X146538231Y-78629073D01*
X146541760Y-78632906D01*
X146719424Y-78771189D01*
X146917426Y-78878342D01*
X146922355Y-78880034D01*
X146922357Y-78880035D01*
X146992430Y-78904091D01*
X147130365Y-78951444D01*
X147352431Y-78988500D01*
X147572358Y-78988500D01*
X147577569Y-78988500D01*
X147799635Y-78951444D01*
X148012574Y-78878342D01*
X148210576Y-78771189D01*
X148388240Y-78632906D01*
X148540722Y-78467268D01*
X148629518Y-78331354D01*
X148675030Y-78289457D01*
X148735000Y-78274271D01*
X148794970Y-78289457D01*
X148840481Y-78331354D01*
X148929278Y-78467268D01*
X148932806Y-78471100D01*
X149078227Y-78629069D01*
X149078231Y-78629073D01*
X149081760Y-78632906D01*
X149259424Y-78771189D01*
X149457426Y-78878342D01*
X149462355Y-78880034D01*
X149462357Y-78880035D01*
X149532430Y-78904091D01*
X149670365Y-78951444D01*
X149892431Y-78988500D01*
X150112358Y-78988500D01*
X150117569Y-78988500D01*
X150339635Y-78951444D01*
X150552574Y-78878342D01*
X150750576Y-78771189D01*
X150928240Y-78632906D01*
X151080722Y-78467268D01*
X151169518Y-78331354D01*
X151215030Y-78289457D01*
X151275000Y-78274271D01*
X151334970Y-78289457D01*
X151380481Y-78331354D01*
X151469278Y-78467268D01*
X151472806Y-78471100D01*
X151618227Y-78629069D01*
X151618231Y-78629073D01*
X151621760Y-78632906D01*
X151799424Y-78771189D01*
X151997426Y-78878342D01*
X152002355Y-78880034D01*
X152002357Y-78880035D01*
X152072430Y-78904091D01*
X152210365Y-78951444D01*
X152432431Y-78988500D01*
X152652358Y-78988500D01*
X152657569Y-78988500D01*
X152879635Y-78951444D01*
X153092574Y-78878342D01*
X153290576Y-78771189D01*
X153468240Y-78632906D01*
X153620722Y-78467268D01*
X153709518Y-78331354D01*
X153755030Y-78289457D01*
X153815000Y-78274271D01*
X153874970Y-78289457D01*
X153920481Y-78331354D01*
X154009278Y-78467268D01*
X154012806Y-78471100D01*
X154158227Y-78629069D01*
X154158231Y-78629073D01*
X154161760Y-78632906D01*
X154339424Y-78771189D01*
X154537426Y-78878342D01*
X154542355Y-78880034D01*
X154542357Y-78880035D01*
X154612430Y-78904091D01*
X154750365Y-78951444D01*
X154972431Y-78988500D01*
X155192358Y-78988500D01*
X155197569Y-78988500D01*
X155419635Y-78951444D01*
X155632574Y-78878342D01*
X155830576Y-78771189D01*
X156008240Y-78632906D01*
X156160722Y-78467268D01*
X156249518Y-78331354D01*
X156295030Y-78289457D01*
X156355000Y-78274271D01*
X156414970Y-78289457D01*
X156460481Y-78331354D01*
X156549278Y-78467268D01*
X156552806Y-78471100D01*
X156698227Y-78629069D01*
X156698231Y-78629073D01*
X156701760Y-78632906D01*
X156879424Y-78771189D01*
X157077426Y-78878342D01*
X157082355Y-78880034D01*
X157082357Y-78880035D01*
X157152430Y-78904091D01*
X157290365Y-78951444D01*
X157512431Y-78988500D01*
X157732358Y-78988500D01*
X157737569Y-78988500D01*
X157959635Y-78951444D01*
X158172574Y-78878342D01*
X158370576Y-78771189D01*
X158548240Y-78632906D01*
X158700722Y-78467268D01*
X158789518Y-78331354D01*
X158835030Y-78289457D01*
X158895000Y-78274271D01*
X158954970Y-78289457D01*
X159000481Y-78331354D01*
X159089278Y-78467268D01*
X159092806Y-78471100D01*
X159238227Y-78629069D01*
X159238231Y-78629073D01*
X159241760Y-78632906D01*
X159419424Y-78771189D01*
X159617426Y-78878342D01*
X159622355Y-78880034D01*
X159622357Y-78880035D01*
X159692430Y-78904091D01*
X159830365Y-78951444D01*
X160052431Y-78988500D01*
X160272358Y-78988500D01*
X160277569Y-78988500D01*
X160499635Y-78951444D01*
X160712574Y-78878342D01*
X160910576Y-78771189D01*
X161088240Y-78632906D01*
X161240722Y-78467268D01*
X161329518Y-78331354D01*
X161375030Y-78289457D01*
X161435000Y-78274271D01*
X161494970Y-78289457D01*
X161540481Y-78331354D01*
X161629278Y-78467268D01*
X161632806Y-78471100D01*
X161778227Y-78629069D01*
X161778231Y-78629073D01*
X161781760Y-78632906D01*
X161959424Y-78771189D01*
X162157426Y-78878342D01*
X162162355Y-78880034D01*
X162162357Y-78880035D01*
X162232430Y-78904091D01*
X162370365Y-78951444D01*
X162592431Y-78988500D01*
X162812358Y-78988500D01*
X162817569Y-78988500D01*
X163039635Y-78951444D01*
X163252574Y-78878342D01*
X163450576Y-78771189D01*
X163628240Y-78632906D01*
X163780722Y-78467268D01*
X163869518Y-78331354D01*
X163915030Y-78289457D01*
X163975000Y-78274271D01*
X164034970Y-78289457D01*
X164080481Y-78331354D01*
X164169278Y-78467268D01*
X164172806Y-78471100D01*
X164318227Y-78629069D01*
X164318231Y-78629073D01*
X164321760Y-78632906D01*
X164499424Y-78771189D01*
X164697426Y-78878342D01*
X164702355Y-78880034D01*
X164702357Y-78880035D01*
X164772430Y-78904091D01*
X164910365Y-78951444D01*
X165132431Y-78988500D01*
X165352358Y-78988500D01*
X165357569Y-78988500D01*
X165579635Y-78951444D01*
X165792574Y-78878342D01*
X165990576Y-78771189D01*
X166168240Y-78632906D01*
X166320722Y-78467268D01*
X166409518Y-78331354D01*
X166455030Y-78289457D01*
X166515000Y-78274271D01*
X166574970Y-78289457D01*
X166620481Y-78331354D01*
X166709278Y-78467268D01*
X166712806Y-78471100D01*
X166858227Y-78629069D01*
X166858231Y-78629073D01*
X166861760Y-78632906D01*
X167039424Y-78771189D01*
X167237426Y-78878342D01*
X167242355Y-78880034D01*
X167242357Y-78880035D01*
X167312430Y-78904091D01*
X167450365Y-78951444D01*
X167672431Y-78988500D01*
X167892358Y-78988500D01*
X167897569Y-78988500D01*
X168119635Y-78951444D01*
X168332574Y-78878342D01*
X168530576Y-78771189D01*
X168708240Y-78632906D01*
X168860722Y-78467268D01*
X168983860Y-78278791D01*
X169074296Y-78072616D01*
X169129564Y-77854368D01*
X169148156Y-77630000D01*
X169129564Y-77405632D01*
X169074296Y-77187384D01*
X168983860Y-76981209D01*
X168860722Y-76792732D01*
X168799956Y-76726723D01*
X168711772Y-76630930D01*
X168711767Y-76630925D01*
X168708240Y-76627094D01*
X168530576Y-76488811D01*
X168525997Y-76486333D01*
X168525994Y-76486331D01*
X168337159Y-76384139D01*
X168337156Y-76384137D01*
X168332574Y-76381658D01*
X168327650Y-76379967D01*
X168327642Y-76379964D01*
X168124565Y-76310248D01*
X168124559Y-76310246D01*
X168119635Y-76308556D01*
X168114498Y-76307698D01*
X168114495Y-76307698D01*
X167902706Y-76272357D01*
X167902703Y-76272356D01*
X167897569Y-76271500D01*
X167672431Y-76271500D01*
X167667297Y-76272356D01*
X167667293Y-76272357D01*
X167455504Y-76307698D01*
X167455498Y-76307699D01*
X167450365Y-76308556D01*
X167445443Y-76310245D01*
X167445434Y-76310248D01*
X167242357Y-76379964D01*
X167242344Y-76379969D01*
X167237426Y-76381658D01*
X167232847Y-76384135D01*
X167232840Y-76384139D01*
X167044005Y-76486331D01*
X167043997Y-76486336D01*
X167039424Y-76488811D01*
X167035313Y-76492010D01*
X167035311Y-76492012D01*
X166865878Y-76623888D01*
X166865872Y-76623893D01*
X166861760Y-76627094D01*
X166858237Y-76630919D01*
X166858227Y-76630930D01*
X166712806Y-76788899D01*
X166712802Y-76788902D01*
X166709278Y-76792732D01*
X166706430Y-76797090D01*
X166706427Y-76797095D01*
X166620483Y-76928643D01*
X166574969Y-76970542D01*
X166515000Y-76985728D01*
X166455031Y-76970542D01*
X166409517Y-76928643D01*
X166323572Y-76797095D01*
X166320722Y-76792732D01*
X166259956Y-76726723D01*
X166171772Y-76630930D01*
X166171767Y-76630925D01*
X166168240Y-76627094D01*
X165990576Y-76488811D01*
X165985997Y-76486333D01*
X165985994Y-76486331D01*
X165797159Y-76384139D01*
X165797156Y-76384137D01*
X165792574Y-76381658D01*
X165787650Y-76379967D01*
X165787642Y-76379964D01*
X165584565Y-76310248D01*
X165584559Y-76310246D01*
X165579635Y-76308556D01*
X165574498Y-76307698D01*
X165574495Y-76307698D01*
X165362706Y-76272357D01*
X165362703Y-76272356D01*
X165357569Y-76271500D01*
X165132431Y-76271500D01*
X165127297Y-76272356D01*
X165127293Y-76272357D01*
X164915504Y-76307698D01*
X164915498Y-76307699D01*
X164910365Y-76308556D01*
X164905443Y-76310245D01*
X164905434Y-76310248D01*
X164702357Y-76379964D01*
X164702344Y-76379969D01*
X164697426Y-76381658D01*
X164692847Y-76384135D01*
X164692840Y-76384139D01*
X164504005Y-76486331D01*
X164503997Y-76486336D01*
X164499424Y-76488811D01*
X164495313Y-76492010D01*
X164495311Y-76492012D01*
X164325878Y-76623888D01*
X164325872Y-76623893D01*
X164321760Y-76627094D01*
X164318237Y-76630919D01*
X164318227Y-76630930D01*
X164172806Y-76788899D01*
X164172802Y-76788902D01*
X164169278Y-76792732D01*
X164166430Y-76797090D01*
X164166427Y-76797095D01*
X164080483Y-76928643D01*
X164034969Y-76970542D01*
X163975000Y-76985728D01*
X163915031Y-76970542D01*
X163869517Y-76928643D01*
X163783572Y-76797095D01*
X163780722Y-76792732D01*
X163719956Y-76726723D01*
X163631772Y-76630930D01*
X163631767Y-76630925D01*
X163628240Y-76627094D01*
X163450576Y-76488811D01*
X163445997Y-76486333D01*
X163445994Y-76486331D01*
X163257159Y-76384139D01*
X163257156Y-76384137D01*
X163252574Y-76381658D01*
X163247650Y-76379967D01*
X163247642Y-76379964D01*
X163044565Y-76310248D01*
X163044559Y-76310246D01*
X163039635Y-76308556D01*
X163034498Y-76307698D01*
X163034495Y-76307698D01*
X162822706Y-76272357D01*
X162822703Y-76272356D01*
X162817569Y-76271500D01*
X162592431Y-76271500D01*
X162587297Y-76272356D01*
X162587293Y-76272357D01*
X162375504Y-76307698D01*
X162375498Y-76307699D01*
X162370365Y-76308556D01*
X162365443Y-76310245D01*
X162365434Y-76310248D01*
X162162357Y-76379964D01*
X162162344Y-76379969D01*
X162157426Y-76381658D01*
X162152847Y-76384135D01*
X162152840Y-76384139D01*
X161964005Y-76486331D01*
X161963997Y-76486336D01*
X161959424Y-76488811D01*
X161955313Y-76492010D01*
X161955311Y-76492012D01*
X161785878Y-76623888D01*
X161785872Y-76623893D01*
X161781760Y-76627094D01*
X161778237Y-76630919D01*
X161778227Y-76630930D01*
X161632806Y-76788899D01*
X161632802Y-76788902D01*
X161629278Y-76792732D01*
X161626430Y-76797090D01*
X161626427Y-76797095D01*
X161540483Y-76928643D01*
X161494969Y-76970542D01*
X161435000Y-76985728D01*
X161375031Y-76970542D01*
X161329517Y-76928643D01*
X161243572Y-76797095D01*
X161240722Y-76792732D01*
X161179956Y-76726723D01*
X161091772Y-76630930D01*
X161091767Y-76630925D01*
X161088240Y-76627094D01*
X160910576Y-76488811D01*
X160905997Y-76486333D01*
X160905994Y-76486331D01*
X160717159Y-76384139D01*
X160717156Y-76384137D01*
X160712574Y-76381658D01*
X160707650Y-76379967D01*
X160707642Y-76379964D01*
X160504565Y-76310248D01*
X160504559Y-76310246D01*
X160499635Y-76308556D01*
X160494498Y-76307698D01*
X160494495Y-76307698D01*
X160282706Y-76272357D01*
X160282703Y-76272356D01*
X160277569Y-76271500D01*
X160052431Y-76271500D01*
X160047297Y-76272356D01*
X160047293Y-76272357D01*
X159835504Y-76307698D01*
X159835498Y-76307699D01*
X159830365Y-76308556D01*
X159825443Y-76310245D01*
X159825434Y-76310248D01*
X159622357Y-76379964D01*
X159622344Y-76379969D01*
X159617426Y-76381658D01*
X159612847Y-76384135D01*
X159612840Y-76384139D01*
X159424005Y-76486331D01*
X159423997Y-76486336D01*
X159419424Y-76488811D01*
X159415313Y-76492010D01*
X159415311Y-76492012D01*
X159245878Y-76623888D01*
X159245872Y-76623893D01*
X159241760Y-76627094D01*
X159238237Y-76630919D01*
X159238227Y-76630930D01*
X159092806Y-76788899D01*
X159092802Y-76788902D01*
X159089278Y-76792732D01*
X159086430Y-76797090D01*
X159086427Y-76797095D01*
X159000483Y-76928643D01*
X158954969Y-76970542D01*
X158895000Y-76985728D01*
X158835031Y-76970542D01*
X158789517Y-76928643D01*
X158703572Y-76797095D01*
X158700722Y-76792732D01*
X158639956Y-76726723D01*
X158551772Y-76630930D01*
X158551767Y-76630925D01*
X158548240Y-76627094D01*
X158370576Y-76488811D01*
X158365997Y-76486333D01*
X158365994Y-76486331D01*
X158177159Y-76384139D01*
X158177156Y-76384137D01*
X158172574Y-76381658D01*
X158167650Y-76379967D01*
X158167642Y-76379964D01*
X157964565Y-76310248D01*
X157964559Y-76310246D01*
X157959635Y-76308556D01*
X157954498Y-76307698D01*
X157954495Y-76307698D01*
X157742706Y-76272357D01*
X157742703Y-76272356D01*
X157737569Y-76271500D01*
X157512431Y-76271500D01*
X157507297Y-76272356D01*
X157507293Y-76272357D01*
X157295504Y-76307698D01*
X157295498Y-76307699D01*
X157290365Y-76308556D01*
X157285443Y-76310245D01*
X157285434Y-76310248D01*
X157082357Y-76379964D01*
X157082344Y-76379969D01*
X157077426Y-76381658D01*
X157072847Y-76384135D01*
X157072840Y-76384139D01*
X156884005Y-76486331D01*
X156883997Y-76486336D01*
X156879424Y-76488811D01*
X156875313Y-76492010D01*
X156875311Y-76492012D01*
X156705878Y-76623888D01*
X156705872Y-76623893D01*
X156701760Y-76627094D01*
X156698237Y-76630919D01*
X156698227Y-76630930D01*
X156552806Y-76788899D01*
X156552802Y-76788902D01*
X156549278Y-76792732D01*
X156546430Y-76797090D01*
X156546427Y-76797095D01*
X156460483Y-76928643D01*
X156414969Y-76970542D01*
X156355000Y-76985728D01*
X156295031Y-76970542D01*
X156249517Y-76928643D01*
X156163572Y-76797095D01*
X156160722Y-76792732D01*
X156099956Y-76726723D01*
X156011772Y-76630930D01*
X156011767Y-76630925D01*
X156008240Y-76627094D01*
X155830576Y-76488811D01*
X155825997Y-76486333D01*
X155825994Y-76486331D01*
X155637159Y-76384139D01*
X155637156Y-76384137D01*
X155632574Y-76381658D01*
X155627650Y-76379967D01*
X155627642Y-76379964D01*
X155424565Y-76310248D01*
X155424559Y-76310246D01*
X155419635Y-76308556D01*
X155414498Y-76307698D01*
X155414495Y-76307698D01*
X155202706Y-76272357D01*
X155202703Y-76272356D01*
X155197569Y-76271500D01*
X154972431Y-76271500D01*
X154967297Y-76272356D01*
X154967293Y-76272357D01*
X154755504Y-76307698D01*
X154755498Y-76307699D01*
X154750365Y-76308556D01*
X154745443Y-76310245D01*
X154745434Y-76310248D01*
X154542357Y-76379964D01*
X154542344Y-76379969D01*
X154537426Y-76381658D01*
X154532847Y-76384135D01*
X154532840Y-76384139D01*
X154344005Y-76486331D01*
X154343997Y-76486336D01*
X154339424Y-76488811D01*
X154335313Y-76492010D01*
X154335311Y-76492012D01*
X154165878Y-76623888D01*
X154165872Y-76623893D01*
X154161760Y-76627094D01*
X154158237Y-76630919D01*
X154158227Y-76630930D01*
X154012806Y-76788899D01*
X154012802Y-76788902D01*
X154009278Y-76792732D01*
X154006430Y-76797090D01*
X154006427Y-76797095D01*
X153920483Y-76928643D01*
X153874969Y-76970542D01*
X153815000Y-76985728D01*
X153755031Y-76970542D01*
X153709517Y-76928643D01*
X153623572Y-76797095D01*
X153620722Y-76792732D01*
X153559956Y-76726723D01*
X153471772Y-76630930D01*
X153471767Y-76630925D01*
X153468240Y-76627094D01*
X153290576Y-76488811D01*
X153285997Y-76486333D01*
X153285994Y-76486331D01*
X153097159Y-76384139D01*
X153097156Y-76384137D01*
X153092574Y-76381658D01*
X153087650Y-76379967D01*
X153087642Y-76379964D01*
X152884565Y-76310248D01*
X152884559Y-76310246D01*
X152879635Y-76308556D01*
X152874498Y-76307698D01*
X152874495Y-76307698D01*
X152662706Y-76272357D01*
X152662703Y-76272356D01*
X152657569Y-76271500D01*
X152432431Y-76271500D01*
X152427297Y-76272356D01*
X152427293Y-76272357D01*
X152215504Y-76307698D01*
X152215498Y-76307699D01*
X152210365Y-76308556D01*
X152205443Y-76310245D01*
X152205434Y-76310248D01*
X152002357Y-76379964D01*
X152002344Y-76379969D01*
X151997426Y-76381658D01*
X151992847Y-76384135D01*
X151992840Y-76384139D01*
X151804005Y-76486331D01*
X151803997Y-76486336D01*
X151799424Y-76488811D01*
X151795313Y-76492010D01*
X151795311Y-76492012D01*
X151625878Y-76623888D01*
X151625872Y-76623893D01*
X151621760Y-76627094D01*
X151618237Y-76630919D01*
X151618227Y-76630930D01*
X151472806Y-76788899D01*
X151472802Y-76788902D01*
X151469278Y-76792732D01*
X151466430Y-76797090D01*
X151466427Y-76797095D01*
X151380483Y-76928643D01*
X151334969Y-76970542D01*
X151275000Y-76985728D01*
X151215031Y-76970542D01*
X151169517Y-76928643D01*
X151083572Y-76797095D01*
X151080722Y-76792732D01*
X151019956Y-76726723D01*
X150931772Y-76630930D01*
X150931767Y-76630925D01*
X150928240Y-76627094D01*
X150750576Y-76488811D01*
X150745997Y-76486333D01*
X150745994Y-76486331D01*
X150557159Y-76384139D01*
X150557156Y-76384137D01*
X150552574Y-76381658D01*
X150547650Y-76379967D01*
X150547642Y-76379964D01*
X150344565Y-76310248D01*
X150344559Y-76310246D01*
X150339635Y-76308556D01*
X150334498Y-76307698D01*
X150334495Y-76307698D01*
X150122706Y-76272357D01*
X150122703Y-76272356D01*
X150117569Y-76271500D01*
X149892431Y-76271500D01*
X149887297Y-76272356D01*
X149887293Y-76272357D01*
X149675504Y-76307698D01*
X149675498Y-76307699D01*
X149670365Y-76308556D01*
X149665443Y-76310245D01*
X149665434Y-76310248D01*
X149462357Y-76379964D01*
X149462344Y-76379969D01*
X149457426Y-76381658D01*
X149452847Y-76384135D01*
X149452840Y-76384139D01*
X149264005Y-76486331D01*
X149263997Y-76486336D01*
X149259424Y-76488811D01*
X149255313Y-76492010D01*
X149255311Y-76492012D01*
X149085878Y-76623888D01*
X149085872Y-76623893D01*
X149081760Y-76627094D01*
X149078237Y-76630919D01*
X149078227Y-76630930D01*
X148932806Y-76788899D01*
X148932802Y-76788902D01*
X148929278Y-76792732D01*
X148926430Y-76797090D01*
X148926427Y-76797095D01*
X148840483Y-76928643D01*
X148794969Y-76970542D01*
X148735000Y-76985728D01*
X148675031Y-76970542D01*
X148629517Y-76928643D01*
X148543572Y-76797095D01*
X148540722Y-76792732D01*
X148479956Y-76726723D01*
X148391772Y-76630930D01*
X148391767Y-76630925D01*
X148388240Y-76627094D01*
X148210576Y-76488811D01*
X148205997Y-76486333D01*
X148205994Y-76486331D01*
X148017159Y-76384139D01*
X148017156Y-76384137D01*
X148012574Y-76381658D01*
X148007650Y-76379967D01*
X148007642Y-76379964D01*
X147804565Y-76310248D01*
X147804559Y-76310246D01*
X147799635Y-76308556D01*
X147794498Y-76307698D01*
X147794495Y-76307698D01*
X147582706Y-76272357D01*
X147582703Y-76272356D01*
X147577569Y-76271500D01*
X147352431Y-76271500D01*
X147347297Y-76272356D01*
X147347293Y-76272357D01*
X147135504Y-76307698D01*
X147135498Y-76307699D01*
X147130365Y-76308556D01*
X147125443Y-76310245D01*
X147125434Y-76310248D01*
X146922357Y-76379964D01*
X146922344Y-76379969D01*
X146917426Y-76381658D01*
X146912847Y-76384135D01*
X146912840Y-76384139D01*
X146724005Y-76486331D01*
X146723997Y-76486336D01*
X146719424Y-76488811D01*
X146715313Y-76492010D01*
X146715311Y-76492012D01*
X146545878Y-76623888D01*
X146545872Y-76623893D01*
X146541760Y-76627094D01*
X146538237Y-76630919D01*
X146538227Y-76630930D01*
X146392806Y-76788899D01*
X146392802Y-76788902D01*
X146389278Y-76792732D01*
X146386430Y-76797090D01*
X146386427Y-76797095D01*
X146300483Y-76928643D01*
X146254969Y-76970542D01*
X146195000Y-76985728D01*
X146135031Y-76970542D01*
X146089517Y-76928643D01*
X146003572Y-76797095D01*
X146000722Y-76792732D01*
X145939956Y-76726723D01*
X145851772Y-76630930D01*
X145851767Y-76630925D01*
X145848240Y-76627094D01*
X145670576Y-76488811D01*
X145665997Y-76486333D01*
X145665994Y-76486331D01*
X145477159Y-76384139D01*
X145477156Y-76384137D01*
X145472574Y-76381658D01*
X145467650Y-76379967D01*
X145467642Y-76379964D01*
X145264565Y-76310248D01*
X145264559Y-76310246D01*
X145259635Y-76308556D01*
X145254498Y-76307698D01*
X145254495Y-76307698D01*
X145042706Y-76272357D01*
X145042703Y-76272356D01*
X145037569Y-76271500D01*
X144812431Y-76271500D01*
X144807297Y-76272356D01*
X144807293Y-76272357D01*
X144595498Y-76307699D01*
X144595492Y-76307700D01*
X144590365Y-76308556D01*
X144587037Y-76309698D01*
X144523203Y-76309038D01*
X144467558Y-76276654D01*
X142650650Y-74459746D01*
X142543745Y-74352841D01*
X169009826Y-74352841D01*
X169017493Y-74361027D01*
X169154746Y-74454604D01*
X169162899Y-74459312D01*
X169380990Y-74564340D01*
X169389747Y-74567776D01*
X169621061Y-74639127D01*
X169630218Y-74641217D01*
X169869589Y-74677297D01*
X169878967Y-74678000D01*
X170121033Y-74678000D01*
X170130410Y-74677297D01*
X170369781Y-74641217D01*
X170378938Y-74639127D01*
X170610254Y-74567776D01*
X170619010Y-74564339D01*
X170837103Y-74459311D01*
X170845247Y-74454609D01*
X170982506Y-74361026D01*
X170990172Y-74352842D01*
X170984158Y-74343369D01*
X170011729Y-73370939D01*
X170000000Y-73364167D01*
X169988270Y-73370939D01*
X169015840Y-74343369D01*
X169009826Y-74352841D01*
X142543745Y-74352841D01*
X141195602Y-73004697D01*
X168317647Y-73004697D01*
X168335736Y-73246088D01*
X168337139Y-73255395D01*
X168391003Y-73491386D01*
X168393777Y-73500379D01*
X168482211Y-73725705D01*
X168486294Y-73734185D01*
X168607323Y-73943812D01*
X168612627Y-73951592D01*
X168635505Y-73980280D01*
X168646924Y-73988382D01*
X168659177Y-73981610D01*
X169629059Y-73011729D01*
X169635831Y-73000000D01*
X170364167Y-73000000D01*
X170370939Y-73011729D01*
X171340822Y-73981611D01*
X171353075Y-73988383D01*
X171364491Y-73980283D01*
X171387377Y-73951586D01*
X171392674Y-73943816D01*
X171513705Y-73734185D01*
X171517788Y-73725705D01*
X171606222Y-73500379D01*
X171608996Y-73491386D01*
X171662860Y-73255395D01*
X171664263Y-73246088D01*
X171682353Y-73004697D01*
X171682353Y-73000000D01*
X173316793Y-73000000D01*
X173317145Y-73004697D01*
X173335234Y-73246088D01*
X173335593Y-73250869D01*
X173391573Y-73496134D01*
X173483483Y-73730316D01*
X173485838Y-73734396D01*
X173485842Y-73734403D01*
X173606747Y-73943816D01*
X173609269Y-73948184D01*
X173766122Y-74144872D01*
X173769582Y-74148082D01*
X173947082Y-74312778D01*
X173947087Y-74312782D01*
X173950538Y-74315984D01*
X174158397Y-74457700D01*
X174162642Y-74459744D01*
X174162645Y-74459746D01*
X174264662Y-74508874D01*
X174385055Y-74566853D01*
X174625451Y-74641005D01*
X174874214Y-74678500D01*
X175121070Y-74678500D01*
X175125786Y-74678500D01*
X175374549Y-74641005D01*
X175614945Y-74566853D01*
X175841604Y-74457700D01*
X176049462Y-74315984D01*
X176233878Y-74144872D01*
X176390731Y-73948184D01*
X176516517Y-73730316D01*
X176608427Y-73496134D01*
X176664407Y-73250869D01*
X176683207Y-73000000D01*
X178316793Y-73000000D01*
X178317145Y-73004697D01*
X178335234Y-73246088D01*
X178335593Y-73250869D01*
X178391573Y-73496134D01*
X178483483Y-73730316D01*
X178485838Y-73734396D01*
X178485842Y-73734403D01*
X178606747Y-73943816D01*
X178609269Y-73948184D01*
X178766122Y-74144872D01*
X178769582Y-74148082D01*
X178947082Y-74312778D01*
X178947087Y-74312782D01*
X178950538Y-74315984D01*
X179158397Y-74457700D01*
X179162642Y-74459744D01*
X179162645Y-74459746D01*
X179264662Y-74508874D01*
X179385055Y-74566853D01*
X179625451Y-74641005D01*
X179874214Y-74678500D01*
X180121070Y-74678500D01*
X180125786Y-74678500D01*
X180374549Y-74641005D01*
X180614945Y-74566853D01*
X180841604Y-74457700D01*
X181049462Y-74315984D01*
X181233878Y-74144872D01*
X181390731Y-73948184D01*
X181516517Y-73730316D01*
X181608427Y-73496134D01*
X181664407Y-73250869D01*
X181683207Y-73000000D01*
X181664407Y-72749131D01*
X181608427Y-72503866D01*
X181516517Y-72269684D01*
X181390731Y-72051816D01*
X181233878Y-71855128D01*
X181049462Y-71684016D01*
X181045566Y-71681360D01*
X180945533Y-71613158D01*
X180841604Y-71542300D01*
X180837357Y-71540254D01*
X180837354Y-71540253D01*
X180619194Y-71435193D01*
X180619191Y-71435192D01*
X180614945Y-71433147D01*
X180610447Y-71431759D01*
X180610438Y-71431756D01*
X180379050Y-71360383D01*
X180379045Y-71360381D01*
X180374549Y-71358995D01*
X180369895Y-71358293D01*
X180369893Y-71358293D01*
X180130447Y-71322202D01*
X180130439Y-71322201D01*
X180125786Y-71321500D01*
X179874214Y-71321500D01*
X179869561Y-71322201D01*
X179869552Y-71322202D01*
X179630106Y-71358293D01*
X179630101Y-71358294D01*
X179625451Y-71358995D01*
X179620957Y-71360381D01*
X179620949Y-71360383D01*
X179389561Y-71431756D01*
X179389548Y-71431761D01*
X179385055Y-71433147D01*
X179380812Y-71435189D01*
X179380805Y-71435193D01*
X179162645Y-71540253D01*
X179162631Y-71540260D01*
X179158397Y-71542300D01*
X179154508Y-71544950D01*
X179154500Y-71544956D01*
X178954433Y-71681360D01*
X178954432Y-71681361D01*
X178950538Y-71684016D01*
X178947094Y-71687210D01*
X178947082Y-71687221D01*
X178769582Y-71851917D01*
X178769577Y-71851921D01*
X178766122Y-71855128D01*
X178763186Y-71858809D01*
X178763181Y-71858815D01*
X178612204Y-72048135D01*
X178609269Y-72051816D01*
X178606919Y-72055885D01*
X178606913Y-72055895D01*
X178485842Y-72265596D01*
X178485839Y-72265603D01*
X178483483Y-72269684D01*
X178481760Y-72274073D01*
X178481759Y-72274076D01*
X178393297Y-72499472D01*
X178393297Y-72499473D01*
X178391573Y-72503866D01*
X178390524Y-72508461D01*
X178390523Y-72508465D01*
X178362999Y-72629059D01*
X178335593Y-72749131D01*
X178335240Y-72753830D01*
X178335240Y-72753836D01*
X178317672Y-72988270D01*
X178316793Y-73000000D01*
X176683207Y-73000000D01*
X176664407Y-72749131D01*
X176608427Y-72503866D01*
X176516517Y-72269684D01*
X176390731Y-72051816D01*
X176233878Y-71855128D01*
X176049462Y-71684016D01*
X176045566Y-71681360D01*
X175945533Y-71613158D01*
X175841604Y-71542300D01*
X175837357Y-71540254D01*
X175837354Y-71540253D01*
X175619194Y-71435193D01*
X175619191Y-71435192D01*
X175614945Y-71433147D01*
X175610447Y-71431759D01*
X175610438Y-71431756D01*
X175379050Y-71360383D01*
X175379045Y-71360381D01*
X175374549Y-71358995D01*
X175369895Y-71358293D01*
X175369893Y-71358293D01*
X175130447Y-71322202D01*
X175130439Y-71322201D01*
X175125786Y-71321500D01*
X174874214Y-71321500D01*
X174869561Y-71322201D01*
X174869552Y-71322202D01*
X174630106Y-71358293D01*
X174630101Y-71358294D01*
X174625451Y-71358995D01*
X174620957Y-71360381D01*
X174620949Y-71360383D01*
X174389561Y-71431756D01*
X174389548Y-71431761D01*
X174385055Y-71433147D01*
X174380812Y-71435189D01*
X174380805Y-71435193D01*
X174162645Y-71540253D01*
X174162631Y-71540260D01*
X174158397Y-71542300D01*
X174154508Y-71544950D01*
X174154500Y-71544956D01*
X173954433Y-71681360D01*
X173954432Y-71681361D01*
X173950538Y-71684016D01*
X173947094Y-71687210D01*
X173947082Y-71687221D01*
X173769582Y-71851917D01*
X173769577Y-71851921D01*
X173766122Y-71855128D01*
X173763186Y-71858809D01*
X173763181Y-71858815D01*
X173612204Y-72048135D01*
X173609269Y-72051816D01*
X173606919Y-72055885D01*
X173606913Y-72055895D01*
X173485842Y-72265596D01*
X173485839Y-72265603D01*
X173483483Y-72269684D01*
X173481760Y-72274073D01*
X173481759Y-72274076D01*
X173393297Y-72499472D01*
X173393297Y-72499473D01*
X173391573Y-72503866D01*
X173390524Y-72508461D01*
X173390523Y-72508465D01*
X173362999Y-72629059D01*
X173335593Y-72749131D01*
X173335240Y-72753830D01*
X173335240Y-72753836D01*
X173317672Y-72988270D01*
X173316793Y-73000000D01*
X171682353Y-73000000D01*
X171682353Y-72995303D01*
X171664263Y-72753911D01*
X171662860Y-72744604D01*
X171608996Y-72508613D01*
X171606222Y-72499620D01*
X171517788Y-72274294D01*
X171513705Y-72265814D01*
X171392671Y-72056179D01*
X171387380Y-72048418D01*
X171364491Y-72019715D01*
X171353074Y-72011615D01*
X171340822Y-72018387D01*
X170370939Y-72988270D01*
X170364167Y-73000000D01*
X169635831Y-73000000D01*
X169629059Y-72988270D01*
X168659177Y-72018388D01*
X168646924Y-72011616D01*
X168635506Y-72019717D01*
X168612624Y-72048412D01*
X168607325Y-72056183D01*
X168486294Y-72265814D01*
X168482211Y-72274294D01*
X168393777Y-72499620D01*
X168391003Y-72508613D01*
X168337139Y-72744604D01*
X168335736Y-72753911D01*
X168317647Y-72995303D01*
X168317647Y-73004697D01*
X141195602Y-73004697D01*
X140798646Y-72607741D01*
X140791112Y-72599463D01*
X140787000Y-72592982D01*
X140737348Y-72546356D01*
X140734506Y-72543601D01*
X140717574Y-72526669D01*
X140714770Y-72523865D01*
X140711575Y-72521386D01*
X140702554Y-72513682D01*
X140696998Y-72508465D01*
X140670321Y-72483414D01*
X140663377Y-72479596D01*
X140663371Y-72479592D01*
X140652566Y-72473652D01*
X140636047Y-72462801D01*
X140620041Y-72450386D01*
X140612766Y-72447238D01*
X140612763Y-72447236D01*
X140579466Y-72432828D01*
X140568804Y-72427605D01*
X140537007Y-72410124D01*
X140537005Y-72410123D01*
X140530060Y-72406305D01*
X140522383Y-72404334D01*
X140522381Y-72404333D01*
X140510438Y-72401267D01*
X140491734Y-72394863D01*
X140480420Y-72389967D01*
X140480418Y-72389966D01*
X140473145Y-72386819D01*
X140465319Y-72385579D01*
X140465318Y-72385579D01*
X140429475Y-72379902D01*
X140417859Y-72377496D01*
X140375030Y-72366500D01*
X140367101Y-72366500D01*
X140354776Y-72366500D01*
X140335065Y-72364949D01*
X140322885Y-72363019D01*
X140322878Y-72363018D01*
X140315057Y-72361780D01*
X140307173Y-72362525D01*
X140307165Y-72362525D01*
X140271039Y-72365941D01*
X140259181Y-72366500D01*
X131640420Y-72366500D01*
X131591477Y-72356606D01*
X131550220Y-72328477D01*
X131523130Y-72286532D01*
X131518240Y-72274074D01*
X131518239Y-72274073D01*
X131516517Y-72269684D01*
X131390731Y-72051816D01*
X131233878Y-71855128D01*
X131049462Y-71684016D01*
X131045566Y-71681360D01*
X130995400Y-71647157D01*
X169009826Y-71647157D01*
X169015840Y-71656629D01*
X169988270Y-72629059D01*
X170000000Y-72635831D01*
X170011729Y-72629059D01*
X170984158Y-71656629D01*
X170990172Y-71647157D01*
X170982504Y-71638970D01*
X170845249Y-71545391D01*
X170837104Y-71540689D01*
X170619010Y-71435660D01*
X170610254Y-71432223D01*
X170378938Y-71360872D01*
X170369781Y-71358782D01*
X170130410Y-71322702D01*
X170121033Y-71322000D01*
X169878967Y-71322000D01*
X169869589Y-71322702D01*
X169630218Y-71358782D01*
X169621061Y-71360872D01*
X169389747Y-71432223D01*
X169380990Y-71435659D01*
X169162899Y-71540687D01*
X169154745Y-71545395D01*
X169017493Y-71638971D01*
X169009826Y-71647157D01*
X130995400Y-71647157D01*
X130945533Y-71613158D01*
X130841604Y-71542300D01*
X130837357Y-71540254D01*
X130837354Y-71540253D01*
X130619194Y-71435193D01*
X130619191Y-71435192D01*
X130614945Y-71433147D01*
X130610447Y-71431759D01*
X130610438Y-71431756D01*
X130379050Y-71360383D01*
X130379045Y-71360381D01*
X130374549Y-71358995D01*
X130369895Y-71358293D01*
X130369893Y-71358293D01*
X130130447Y-71322202D01*
X130130439Y-71322201D01*
X130125786Y-71321500D01*
X129874214Y-71321500D01*
X129869561Y-71322201D01*
X129869552Y-71322202D01*
X129630106Y-71358293D01*
X129630101Y-71358294D01*
X129625451Y-71358995D01*
X129620956Y-71360381D01*
X129620945Y-71360384D01*
X129414802Y-71423970D01*
X129347334Y-71425863D01*
X129288569Y-71392663D01*
X128170405Y-70274500D01*
X128143091Y-70233623D01*
X128133500Y-70185405D01*
X128133500Y-65833773D01*
X128151259Y-65769276D01*
X128199530Y-65722960D01*
X128268431Y-65685672D01*
X128268436Y-65685669D01*
X128273017Y-65683190D01*
X128457220Y-65539818D01*
X128544301Y-65445223D01*
X171092000Y-65445223D01*
X171092359Y-65451938D01*
X171097662Y-65501257D01*
X171101259Y-65516478D01*
X171146405Y-65637519D01*
X171154954Y-65653175D01*
X171231697Y-65755692D01*
X171244307Y-65768302D01*
X171346824Y-65845045D01*
X171362480Y-65853594D01*
X171483521Y-65898740D01*
X171498742Y-65902337D01*
X171548061Y-65907640D01*
X171554777Y-65908000D01*
X172229410Y-65908000D01*
X172242493Y-65904493D01*
X172246000Y-65891410D01*
X172754000Y-65891410D01*
X172757506Y-65904493D01*
X172770590Y-65908000D01*
X173445223Y-65908000D01*
X173451938Y-65907640D01*
X173501257Y-65902337D01*
X173516478Y-65898740D01*
X173637519Y-65853594D01*
X173653175Y-65845045D01*
X173755692Y-65768302D01*
X173768302Y-65755692D01*
X173845045Y-65653175D01*
X173853595Y-65637518D01*
X173864414Y-65608512D01*
X173897045Y-65559923D01*
X173948109Y-65531319D01*
X174006587Y-65528873D01*
X174059858Y-65553110D01*
X174226983Y-65683190D01*
X174432273Y-65794287D01*
X174653049Y-65870080D01*
X174883288Y-65908500D01*
X175111501Y-65908500D01*
X175116712Y-65908500D01*
X175346951Y-65870080D01*
X175567727Y-65794287D01*
X175773017Y-65683190D01*
X175957220Y-65539818D01*
X176115314Y-65368083D01*
X176144517Y-65323383D01*
X176190030Y-65281485D01*
X176250000Y-65266299D01*
X176309970Y-65281485D01*
X176355482Y-65323383D01*
X176384686Y-65368083D01*
X176388214Y-65371915D01*
X176539247Y-65535981D01*
X176539252Y-65535985D01*
X176542780Y-65539818D01*
X176726983Y-65683190D01*
X176932273Y-65794287D01*
X177153049Y-65870080D01*
X177383288Y-65908500D01*
X177611501Y-65908500D01*
X177616712Y-65908500D01*
X177846951Y-65870080D01*
X178067727Y-65794287D01*
X178273017Y-65683190D01*
X178457220Y-65539818D01*
X178615314Y-65368083D01*
X178742984Y-65172669D01*
X178836749Y-64958907D01*
X178894051Y-64732626D01*
X178913327Y-64500000D01*
X178894051Y-64267374D01*
X178836749Y-64041093D01*
X178742984Y-63827331D01*
X178615314Y-63631917D01*
X178538119Y-63548061D01*
X178460752Y-63464018D01*
X178460747Y-63464013D01*
X178457220Y-63460182D01*
X178368963Y-63391488D01*
X178277130Y-63320011D01*
X178277127Y-63320009D01*
X178273017Y-63316810D01*
X178268438Y-63314332D01*
X178268435Y-63314330D01*
X178072312Y-63208194D01*
X178072309Y-63208192D01*
X178067727Y-63205713D01*
X178062799Y-63204021D01*
X178062794Y-63204019D01*
X177851881Y-63131612D01*
X177851875Y-63131610D01*
X177846951Y-63129920D01*
X177841814Y-63129062D01*
X177841811Y-63129062D01*
X177621849Y-63092357D01*
X177621846Y-63092356D01*
X177616712Y-63091500D01*
X177383288Y-63091500D01*
X177378154Y-63092356D01*
X177378150Y-63092357D01*
X177158188Y-63129062D01*
X177158182Y-63129063D01*
X177153049Y-63129920D01*
X177148127Y-63131609D01*
X177148118Y-63131612D01*
X176937205Y-63204019D01*
X176937196Y-63204022D01*
X176932273Y-63205713D01*
X176927694Y-63208190D01*
X176927687Y-63208194D01*
X176731564Y-63314330D01*
X176731556Y-63314335D01*
X176726983Y-63316810D01*
X176722877Y-63320005D01*
X176722869Y-63320011D01*
X176546898Y-63456976D01*
X176546892Y-63456981D01*
X176542780Y-63460182D01*
X176539258Y-63464007D01*
X176539247Y-63464018D01*
X176388214Y-63628084D01*
X176388211Y-63628087D01*
X176384686Y-63631917D01*
X176381842Y-63636268D01*
X176381838Y-63636275D01*
X176355483Y-63676616D01*
X176309969Y-63718514D01*
X176250000Y-63733700D01*
X176190031Y-63718514D01*
X176144517Y-63676616D01*
X176118161Y-63636275D01*
X176115314Y-63631917D01*
X176038119Y-63548061D01*
X175960752Y-63464018D01*
X175960747Y-63464013D01*
X175957220Y-63460182D01*
X175868963Y-63391488D01*
X175777130Y-63320011D01*
X175777127Y-63320009D01*
X175773017Y-63316810D01*
X175768438Y-63314332D01*
X175768435Y-63314330D01*
X175572312Y-63208194D01*
X175572309Y-63208192D01*
X175567727Y-63205713D01*
X175562799Y-63204021D01*
X175562794Y-63204019D01*
X175351881Y-63131612D01*
X175351875Y-63131610D01*
X175346951Y-63129920D01*
X175341814Y-63129062D01*
X175341811Y-63129062D01*
X175121849Y-63092357D01*
X175121846Y-63092356D01*
X175116712Y-63091500D01*
X174883288Y-63091500D01*
X174878154Y-63092356D01*
X174878150Y-63092357D01*
X174658188Y-63129062D01*
X174658182Y-63129063D01*
X174653049Y-63129920D01*
X174648127Y-63131609D01*
X174648118Y-63131612D01*
X174437205Y-63204019D01*
X174437196Y-63204022D01*
X174432273Y-63205713D01*
X174427694Y-63208190D01*
X174427687Y-63208194D01*
X174231564Y-63314330D01*
X174231556Y-63314335D01*
X174226983Y-63316810D01*
X174222877Y-63320005D01*
X174222869Y-63320011D01*
X174059861Y-63446887D01*
X174006587Y-63471126D01*
X173948109Y-63468680D01*
X173897045Y-63440077D01*
X173864414Y-63391488D01*
X173853594Y-63362480D01*
X173845045Y-63346824D01*
X173768302Y-63244307D01*
X173755692Y-63231697D01*
X173653175Y-63154954D01*
X173637519Y-63146405D01*
X173516478Y-63101259D01*
X173501257Y-63097662D01*
X173451938Y-63092359D01*
X173445223Y-63092000D01*
X172770590Y-63092000D01*
X172757506Y-63095506D01*
X172754000Y-63108590D01*
X172754000Y-65891410D01*
X172246000Y-65891410D01*
X172246000Y-64770590D01*
X172242493Y-64757506D01*
X172229410Y-64754000D01*
X171108590Y-64754000D01*
X171095506Y-64757506D01*
X171092000Y-64770590D01*
X171092000Y-65445223D01*
X128544301Y-65445223D01*
X128615314Y-65368083D01*
X128742984Y-65172669D01*
X128836749Y-64958907D01*
X128894051Y-64732626D01*
X128913327Y-64500000D01*
X128894051Y-64267374D01*
X128884437Y-64229410D01*
X171092000Y-64229410D01*
X171095506Y-64242493D01*
X171108590Y-64246000D01*
X172229410Y-64246000D01*
X172242493Y-64242493D01*
X172246000Y-64229410D01*
X172246000Y-63108590D01*
X172242493Y-63095506D01*
X172229410Y-63092000D01*
X171554777Y-63092000D01*
X171548061Y-63092359D01*
X171498742Y-63097662D01*
X171483521Y-63101259D01*
X171362480Y-63146405D01*
X171346824Y-63154954D01*
X171244307Y-63231697D01*
X171231697Y-63244307D01*
X171154954Y-63346824D01*
X171146405Y-63362480D01*
X171101259Y-63483521D01*
X171097662Y-63498742D01*
X171092359Y-63548061D01*
X171092000Y-63554777D01*
X171092000Y-64229410D01*
X128884437Y-64229410D01*
X128836749Y-64041093D01*
X128742984Y-63827331D01*
X128615314Y-63631917D01*
X128538119Y-63548061D01*
X128460752Y-63464018D01*
X128460747Y-63464013D01*
X128457220Y-63460182D01*
X128368963Y-63391488D01*
X128277130Y-63320011D01*
X128277127Y-63320009D01*
X128273017Y-63316810D01*
X128268438Y-63314332D01*
X128268435Y-63314330D01*
X128072312Y-63208194D01*
X128072309Y-63208192D01*
X128067727Y-63205713D01*
X128062799Y-63204021D01*
X128062794Y-63204019D01*
X127851881Y-63131612D01*
X127851875Y-63131610D01*
X127846951Y-63129920D01*
X127841814Y-63129062D01*
X127841811Y-63129062D01*
X127621849Y-63092357D01*
X127621846Y-63092356D01*
X127616712Y-63091500D01*
X127383288Y-63091500D01*
X127378154Y-63092356D01*
X127378150Y-63092357D01*
X127158188Y-63129062D01*
X127158182Y-63129063D01*
X127153049Y-63129920D01*
X127148127Y-63131609D01*
X127148118Y-63131612D01*
X126937205Y-63204019D01*
X126937196Y-63204022D01*
X126932273Y-63205713D01*
X126927694Y-63208190D01*
X126927687Y-63208194D01*
X126731564Y-63314330D01*
X126731556Y-63314335D01*
X126726983Y-63316810D01*
X126722877Y-63320005D01*
X126722869Y-63320011D01*
X126546898Y-63456976D01*
X126546892Y-63456981D01*
X126542780Y-63460182D01*
X126539258Y-63464007D01*
X126539247Y-63464018D01*
X126388214Y-63628084D01*
X126388211Y-63628087D01*
X126384686Y-63631917D01*
X126381842Y-63636268D01*
X126381838Y-63636275D01*
X126355483Y-63676616D01*
X126309969Y-63718514D01*
X126250000Y-63733700D01*
X126190031Y-63718514D01*
X126144517Y-63676616D01*
X126118161Y-63636275D01*
X126115314Y-63631917D01*
X126038119Y-63548061D01*
X125960752Y-63464018D01*
X125960747Y-63464013D01*
X125957220Y-63460182D01*
X125868963Y-63391488D01*
X125777130Y-63320011D01*
X125777127Y-63320009D01*
X125773017Y-63316810D01*
X125768438Y-63314332D01*
X125768435Y-63314330D01*
X125572312Y-63208194D01*
X125572309Y-63208192D01*
X125567727Y-63205713D01*
X125562799Y-63204021D01*
X125562794Y-63204019D01*
X125351881Y-63131612D01*
X125351875Y-63131610D01*
X125346951Y-63129920D01*
X125341814Y-63129062D01*
X125341811Y-63129062D01*
X125121849Y-63092357D01*
X125121846Y-63092356D01*
X125116712Y-63091500D01*
X124883288Y-63091500D01*
X124878154Y-63092356D01*
X124878150Y-63092357D01*
X124658188Y-63129062D01*
X124658182Y-63129063D01*
X124653049Y-63129920D01*
X124648127Y-63131609D01*
X124648118Y-63131612D01*
X124437205Y-63204019D01*
X124437196Y-63204022D01*
X124432273Y-63205713D01*
X124427694Y-63208190D01*
X124427687Y-63208194D01*
X124231564Y-63314330D01*
X124231556Y-63314335D01*
X124226983Y-63316810D01*
X124222877Y-63320005D01*
X124222869Y-63320011D01*
X124059861Y-63446887D01*
X124006587Y-63471126D01*
X123948109Y-63468680D01*
X123897045Y-63440077D01*
X123864414Y-63391488D01*
X123853594Y-63362480D01*
X123845045Y-63346824D01*
X123768302Y-63244307D01*
X123755692Y-63231697D01*
X123653175Y-63154954D01*
X123637519Y-63146405D01*
X123516478Y-63101259D01*
X123501257Y-63097662D01*
X123451938Y-63092359D01*
X123445223Y-63092000D01*
X122770590Y-63092000D01*
X122757506Y-63095506D01*
X122754000Y-63108590D01*
X122754000Y-65891410D01*
X122757506Y-65904493D01*
X122770590Y-65908000D01*
X123445223Y-65908000D01*
X123451938Y-65907640D01*
X123501257Y-65902337D01*
X123516478Y-65898740D01*
X123637519Y-65853594D01*
X123653175Y-65845045D01*
X123755692Y-65768302D01*
X123768302Y-65755692D01*
X123845045Y-65653175D01*
X123853595Y-65637518D01*
X123864414Y-65608512D01*
X123897045Y-65559923D01*
X123948109Y-65531319D01*
X124006587Y-65528873D01*
X124059858Y-65553110D01*
X124226983Y-65683190D01*
X124432273Y-65794287D01*
X124653049Y-65870080D01*
X124883288Y-65908500D01*
X125111501Y-65908500D01*
X125116712Y-65908500D01*
X125346951Y-65870080D01*
X125567727Y-65794287D01*
X125773017Y-65683190D01*
X125957220Y-65539818D01*
X126115314Y-65368083D01*
X126144517Y-65323383D01*
X126190030Y-65281485D01*
X126250000Y-65266299D01*
X126309970Y-65281485D01*
X126355482Y-65323383D01*
X126384686Y-65368083D01*
X126388214Y-65371915D01*
X126539247Y-65535981D01*
X126539252Y-65535985D01*
X126542780Y-65539818D01*
X126726983Y-65683190D01*
X126731561Y-65685667D01*
X126731568Y-65685672D01*
X126800470Y-65722960D01*
X126848741Y-65769276D01*
X126866500Y-65833773D01*
X126866500Y-70421233D01*
X126865972Y-70432416D01*
X126864298Y-70439909D01*
X126864547Y-70447833D01*
X126864547Y-70447835D01*
X126866438Y-70507986D01*
X126866500Y-70511945D01*
X126866500Y-70539856D01*
X126866995Y-70543774D01*
X126866997Y-70543806D01*
X126867008Y-70543888D01*
X126867937Y-70555697D01*
X126869077Y-70591969D01*
X126869078Y-70591976D01*
X126869327Y-70599889D01*
X126871537Y-70607498D01*
X126871538Y-70607500D01*
X126874978Y-70619342D01*
X126878986Y-70638693D01*
X126881526Y-70658797D01*
X126884444Y-70666169D01*
X126884445Y-70666170D01*
X126897800Y-70699901D01*
X126901645Y-70711130D01*
X126911771Y-70745986D01*
X126911773Y-70745992D01*
X126913982Y-70753593D01*
X126918014Y-70760411D01*
X126918015Y-70760413D01*
X126924293Y-70771029D01*
X126932990Y-70788782D01*
X126940448Y-70807617D01*
X126945107Y-70814030D01*
X126945108Y-70814031D01*
X126966432Y-70843381D01*
X126972948Y-70853301D01*
X126991422Y-70884538D01*
X126995458Y-70891362D01*
X127001063Y-70896966D01*
X127001063Y-70896967D01*
X127009778Y-70905682D01*
X127022618Y-70920715D01*
X127034528Y-70937107D01*
X127040635Y-70942159D01*
X127040636Y-70942160D01*
X127068598Y-70965292D01*
X127077378Y-70973282D01*
X128394227Y-72290132D01*
X128421238Y-72330284D01*
X128431122Y-72377655D01*
X128422423Y-72425258D01*
X128393296Y-72499473D01*
X128393291Y-72499486D01*
X128391573Y-72503866D01*
X128390524Y-72508461D01*
X128390523Y-72508465D01*
X128362999Y-72629059D01*
X128335593Y-72749131D01*
X128335240Y-72753830D01*
X128335240Y-72753836D01*
X128317672Y-72988270D01*
X128316793Y-73000000D01*
X128317145Y-73004697D01*
X128335234Y-73246088D01*
X128335593Y-73250869D01*
X128391573Y-73496134D01*
X128483483Y-73730316D01*
X128485838Y-73734396D01*
X128485842Y-73734403D01*
X128606747Y-73943816D01*
X128609269Y-73948184D01*
X128766122Y-74144872D01*
X128769582Y-74148082D01*
X128947082Y-74312778D01*
X128947087Y-74312782D01*
X128950538Y-74315984D01*
X129158397Y-74457700D01*
X129162642Y-74459744D01*
X129162645Y-74459746D01*
X129264662Y-74508874D01*
X129385055Y-74566853D01*
X129625451Y-74641005D01*
X129874214Y-74678500D01*
X130121070Y-74678500D01*
X130125786Y-74678500D01*
X130374549Y-74641005D01*
X130614945Y-74566853D01*
X130841604Y-74457700D01*
X131049462Y-74315984D01*
X131233878Y-74144872D01*
X131390731Y-73948184D01*
X131516517Y-73730316D01*
X131520173Y-73720999D01*
X131523130Y-73713468D01*
X131550220Y-73671523D01*
X131591477Y-73643394D01*
X131640420Y-73633500D01*
X139980406Y-73633500D01*
X140028624Y-73643091D01*
X140069501Y-73670405D01*
X142455501Y-76056405D01*
X142486239Y-76106564D01*
X142490855Y-76165211D01*
X142468342Y-76219561D01*
X142423609Y-76257767D01*
X142366406Y-76271500D01*
X142272431Y-76271500D01*
X142267297Y-76272356D01*
X142267293Y-76272357D01*
X142055504Y-76307698D01*
X142055498Y-76307699D01*
X142050365Y-76308556D01*
X142045443Y-76310245D01*
X142045434Y-76310248D01*
X141842357Y-76379964D01*
X141842344Y-76379969D01*
X141837426Y-76381658D01*
X141832847Y-76384135D01*
X141832840Y-76384139D01*
X141644005Y-76486331D01*
X141643997Y-76486336D01*
X141639424Y-76488811D01*
X141635313Y-76492010D01*
X141635311Y-76492012D01*
X141465878Y-76623888D01*
X141465872Y-76623893D01*
X141461760Y-76627094D01*
X141458237Y-76630919D01*
X141458227Y-76630930D01*
X141312806Y-76788899D01*
X141312802Y-76788902D01*
X141309278Y-76792732D01*
X141306430Y-76797090D01*
X141306427Y-76797095D01*
X141220483Y-76928643D01*
X141174969Y-76970542D01*
X141115000Y-76985728D01*
X141055031Y-76970542D01*
X141009517Y-76928643D01*
X140923572Y-76797095D01*
X140920722Y-76792732D01*
X140859956Y-76726723D01*
X140771772Y-76630930D01*
X140771767Y-76630925D01*
X140768240Y-76627094D01*
X140590576Y-76488811D01*
X140585997Y-76486333D01*
X140585994Y-76486331D01*
X140397159Y-76384139D01*
X140397156Y-76384137D01*
X140392574Y-76381658D01*
X140387650Y-76379967D01*
X140387642Y-76379964D01*
X140184565Y-76310248D01*
X140184559Y-76310246D01*
X140179635Y-76308556D01*
X140174498Y-76307698D01*
X140174495Y-76307698D01*
X139962706Y-76272357D01*
X139962703Y-76272356D01*
X139957569Y-76271500D01*
X139732431Y-76271500D01*
X139727297Y-76272356D01*
X139727293Y-76272357D01*
X139515504Y-76307698D01*
X139515498Y-76307699D01*
X139510365Y-76308556D01*
X139505443Y-76310245D01*
X139505434Y-76310248D01*
X139302357Y-76379964D01*
X139302344Y-76379969D01*
X139297426Y-76381658D01*
X139292847Y-76384135D01*
X139292840Y-76384139D01*
X139104005Y-76486331D01*
X139103997Y-76486336D01*
X139099424Y-76488811D01*
X139095313Y-76492010D01*
X139095311Y-76492012D01*
X138925878Y-76623888D01*
X138925872Y-76623893D01*
X138921760Y-76627094D01*
X138918237Y-76630919D01*
X138918227Y-76630930D01*
X138772806Y-76788899D01*
X138772802Y-76788902D01*
X138769278Y-76792732D01*
X138766430Y-76797090D01*
X138766427Y-76797095D01*
X138680483Y-76928643D01*
X138634969Y-76970542D01*
X138575000Y-76985728D01*
X138515031Y-76970542D01*
X138469517Y-76928643D01*
X138383572Y-76797095D01*
X138380722Y-76792732D01*
X138319956Y-76726723D01*
X138231772Y-76630930D01*
X138231767Y-76630925D01*
X138228240Y-76627094D01*
X138050576Y-76488811D01*
X138045997Y-76486333D01*
X138045994Y-76486331D01*
X137857159Y-76384139D01*
X137857156Y-76384137D01*
X137852574Y-76381658D01*
X137847650Y-76379967D01*
X137847642Y-76379964D01*
X137644565Y-76310248D01*
X137644559Y-76310246D01*
X137639635Y-76308556D01*
X137634498Y-76307698D01*
X137634495Y-76307698D01*
X137422706Y-76272357D01*
X137422703Y-76272356D01*
X137417569Y-76271500D01*
X137192431Y-76271500D01*
X137187297Y-76272356D01*
X137187293Y-76272357D01*
X136975491Y-76307700D01*
X136975483Y-76307701D01*
X136970365Y-76308556D01*
X136967034Y-76309699D01*
X136903199Y-76309036D01*
X136847558Y-76276653D01*
X136633646Y-76062741D01*
X136626112Y-76054463D01*
X136622000Y-76047982D01*
X136572347Y-76001355D01*
X136569505Y-75998600D01*
X136552574Y-75981669D01*
X136549770Y-75978865D01*
X136546575Y-75976386D01*
X136537554Y-75968682D01*
X136511097Y-75943838D01*
X136505321Y-75938414D01*
X136498377Y-75934596D01*
X136498371Y-75934592D01*
X136487566Y-75928652D01*
X136471047Y-75917801D01*
X136455041Y-75905386D01*
X136447766Y-75902238D01*
X136447763Y-75902236D01*
X136414466Y-75887828D01*
X136403804Y-75882605D01*
X136372007Y-75865124D01*
X136372005Y-75865123D01*
X136365060Y-75861305D01*
X136357383Y-75859334D01*
X136357381Y-75859333D01*
X136345438Y-75856267D01*
X136326734Y-75849863D01*
X136315420Y-75844967D01*
X136315418Y-75844966D01*
X136308145Y-75841819D01*
X136300319Y-75840579D01*
X136300318Y-75840579D01*
X136264475Y-75834902D01*
X136252859Y-75832496D01*
X136210030Y-75821500D01*
X136202101Y-75821500D01*
X136189776Y-75821500D01*
X136170065Y-75819949D01*
X136157885Y-75818019D01*
X136157878Y-75818018D01*
X136150057Y-75816780D01*
X136142173Y-75817525D01*
X136142165Y-75817525D01*
X136106039Y-75820941D01*
X136094181Y-75821500D01*
X128623767Y-75821500D01*
X128612583Y-75820972D01*
X128605091Y-75819298D01*
X128597165Y-75819547D01*
X128537001Y-75821438D01*
X128533043Y-75821500D01*
X128505144Y-75821500D01*
X128501219Y-75821995D01*
X128501198Y-75821997D01*
X128501124Y-75822007D01*
X128489313Y-75822936D01*
X128453034Y-75824076D01*
X128453026Y-75824077D01*
X128445111Y-75824326D01*
X128437500Y-75826536D01*
X128437493Y-75826538D01*
X128425648Y-75829979D01*
X128406303Y-75833985D01*
X128394072Y-75835530D01*
X128394059Y-75835533D01*
X128386203Y-75836526D01*
X128378839Y-75839441D01*
X128378829Y-75839444D01*
X128345092Y-75852802D01*
X128333865Y-75856646D01*
X128299018Y-75866770D01*
X128299013Y-75866772D01*
X128291407Y-75868982D01*
X128284590Y-75873012D01*
X128284581Y-75873017D01*
X128273960Y-75879298D01*
X128256221Y-75887989D01*
X128244749Y-75892531D01*
X128244746Y-75892532D01*
X128237383Y-75895448D01*
X128230976Y-75900102D01*
X128230972Y-75900105D01*
X128201611Y-75921437D01*
X128191693Y-75927951D01*
X128160465Y-75946419D01*
X128160457Y-75946425D01*
X128153638Y-75950458D01*
X128148036Y-75956058D01*
X128148029Y-75956065D01*
X128139308Y-75964786D01*
X128124287Y-75977615D01*
X128114307Y-75984866D01*
X128114298Y-75984873D01*
X128107893Y-75989528D01*
X128102845Y-75995628D01*
X128102836Y-75995638D01*
X128079700Y-76023604D01*
X128071713Y-76032381D01*
X120711430Y-83392663D01*
X120652665Y-83425863D01*
X120585196Y-83423970D01*
X120379050Y-83360383D01*
X120379045Y-83360381D01*
X120374549Y-83358995D01*
X120369895Y-83358293D01*
X120369893Y-83358293D01*
X120130447Y-83322202D01*
X120130439Y-83322201D01*
X120125786Y-83321500D01*
X119874214Y-83321500D01*
X119869561Y-83322201D01*
X119869552Y-83322202D01*
X119630106Y-83358293D01*
X119630101Y-83358294D01*
X119625451Y-83358995D01*
X119620957Y-83360381D01*
X119620949Y-83360383D01*
X119389561Y-83431756D01*
X119389548Y-83431761D01*
X119385055Y-83433147D01*
X119380812Y-83435189D01*
X119380805Y-83435193D01*
X119162645Y-83540253D01*
X119162631Y-83540260D01*
X119158397Y-83542300D01*
X119154508Y-83544950D01*
X119154500Y-83544956D01*
X118954433Y-83681360D01*
X118954432Y-83681361D01*
X118950538Y-83684016D01*
X118947094Y-83687210D01*
X118947082Y-83687221D01*
X118769582Y-83851917D01*
X118769577Y-83851921D01*
X118766122Y-83855128D01*
X118763186Y-83858809D01*
X118763181Y-83858815D01*
X118612204Y-84048135D01*
X118609269Y-84051816D01*
X118606919Y-84055885D01*
X118606913Y-84055895D01*
X118485842Y-84265596D01*
X118485839Y-84265603D01*
X118483483Y-84269684D01*
X118481760Y-84274073D01*
X118481759Y-84274076D01*
X118393297Y-84499472D01*
X118393295Y-84499478D01*
X118391573Y-84503866D01*
X118390524Y-84508461D01*
X118390523Y-84508465D01*
X118343926Y-84712623D01*
X118335593Y-84749131D01*
X118316793Y-85000000D01*
X114000500Y-85000000D01*
X114000500Y-74352841D01*
X119009826Y-74352841D01*
X119017493Y-74361027D01*
X119154746Y-74454604D01*
X119162899Y-74459312D01*
X119380990Y-74564340D01*
X119389747Y-74567776D01*
X119621061Y-74639127D01*
X119630218Y-74641217D01*
X119869589Y-74677297D01*
X119878967Y-74678000D01*
X120121033Y-74678000D01*
X120130410Y-74677297D01*
X120369781Y-74641217D01*
X120378938Y-74639127D01*
X120610254Y-74567776D01*
X120619010Y-74564339D01*
X120837103Y-74459311D01*
X120845247Y-74454609D01*
X120982506Y-74361026D01*
X120990172Y-74352842D01*
X120984158Y-74343369D01*
X120011729Y-73370939D01*
X120000000Y-73364167D01*
X119988270Y-73370939D01*
X119015840Y-74343369D01*
X119009826Y-74352841D01*
X114000500Y-74352841D01*
X114000500Y-73004697D01*
X118317647Y-73004697D01*
X118335736Y-73246088D01*
X118337139Y-73255395D01*
X118391003Y-73491386D01*
X118393777Y-73500379D01*
X118482211Y-73725705D01*
X118486294Y-73734185D01*
X118607323Y-73943812D01*
X118612627Y-73951592D01*
X118635505Y-73980280D01*
X118646924Y-73988382D01*
X118659177Y-73981610D01*
X119629059Y-73011729D01*
X119635831Y-73000000D01*
X120364167Y-73000000D01*
X120370939Y-73011729D01*
X121340822Y-73981611D01*
X121353075Y-73988383D01*
X121364491Y-73980283D01*
X121387377Y-73951586D01*
X121392674Y-73943816D01*
X121513705Y-73734185D01*
X121517788Y-73725705D01*
X121606222Y-73500379D01*
X121608996Y-73491386D01*
X121662860Y-73255395D01*
X121664263Y-73246088D01*
X121682353Y-73004697D01*
X121682353Y-73000000D01*
X123316793Y-73000000D01*
X123317145Y-73004697D01*
X123335234Y-73246088D01*
X123335593Y-73250869D01*
X123391573Y-73496134D01*
X123483483Y-73730316D01*
X123485838Y-73734396D01*
X123485842Y-73734403D01*
X123606747Y-73943816D01*
X123609269Y-73948184D01*
X123766122Y-74144872D01*
X123769582Y-74148082D01*
X123947082Y-74312778D01*
X123947087Y-74312782D01*
X123950538Y-74315984D01*
X124158397Y-74457700D01*
X124162642Y-74459744D01*
X124162645Y-74459746D01*
X124264662Y-74508874D01*
X124385055Y-74566853D01*
X124625451Y-74641005D01*
X124874214Y-74678500D01*
X125121070Y-74678500D01*
X125125786Y-74678500D01*
X125374549Y-74641005D01*
X125614945Y-74566853D01*
X125841604Y-74457700D01*
X126049462Y-74315984D01*
X126233878Y-74144872D01*
X126390731Y-73948184D01*
X126516517Y-73730316D01*
X126608427Y-73496134D01*
X126664407Y-73250869D01*
X126683207Y-73000000D01*
X126664407Y-72749131D01*
X126608427Y-72503866D01*
X126516517Y-72269684D01*
X126390731Y-72051816D01*
X126233878Y-71855128D01*
X126049462Y-71684016D01*
X126045566Y-71681360D01*
X125945533Y-71613158D01*
X125841604Y-71542300D01*
X125837357Y-71540254D01*
X125837354Y-71540253D01*
X125619194Y-71435193D01*
X125619191Y-71435192D01*
X125614945Y-71433147D01*
X125610447Y-71431759D01*
X125610438Y-71431756D01*
X125379050Y-71360383D01*
X125379045Y-71360381D01*
X125374549Y-71358995D01*
X125369895Y-71358293D01*
X125369893Y-71358293D01*
X125130447Y-71322202D01*
X125130439Y-71322201D01*
X125125786Y-71321500D01*
X124874214Y-71321500D01*
X124869561Y-71322201D01*
X124869552Y-71322202D01*
X124630106Y-71358293D01*
X124630101Y-71358294D01*
X124625451Y-71358995D01*
X124620957Y-71360381D01*
X124620949Y-71360383D01*
X124389561Y-71431756D01*
X124389548Y-71431761D01*
X124385055Y-71433147D01*
X124380812Y-71435189D01*
X124380805Y-71435193D01*
X124162645Y-71540253D01*
X124162631Y-71540260D01*
X124158397Y-71542300D01*
X124154508Y-71544950D01*
X124154500Y-71544956D01*
X123954433Y-71681360D01*
X123954432Y-71681361D01*
X123950538Y-71684016D01*
X123947094Y-71687210D01*
X123947082Y-71687221D01*
X123769582Y-71851917D01*
X123769577Y-71851921D01*
X123766122Y-71855128D01*
X123763186Y-71858809D01*
X123763181Y-71858815D01*
X123612204Y-72048135D01*
X123609269Y-72051816D01*
X123606919Y-72055885D01*
X123606913Y-72055895D01*
X123485842Y-72265596D01*
X123485839Y-72265603D01*
X123483483Y-72269684D01*
X123481760Y-72274073D01*
X123481759Y-72274076D01*
X123393297Y-72499472D01*
X123393297Y-72499473D01*
X123391573Y-72503866D01*
X123390524Y-72508461D01*
X123390523Y-72508465D01*
X123362999Y-72629059D01*
X123335593Y-72749131D01*
X123335240Y-72753830D01*
X123335240Y-72753836D01*
X123317672Y-72988270D01*
X123316793Y-73000000D01*
X121682353Y-73000000D01*
X121682353Y-72995303D01*
X121664263Y-72753911D01*
X121662860Y-72744604D01*
X121608996Y-72508613D01*
X121606222Y-72499620D01*
X121517788Y-72274294D01*
X121513705Y-72265814D01*
X121392671Y-72056179D01*
X121387380Y-72048418D01*
X121364491Y-72019715D01*
X121353074Y-72011615D01*
X121340822Y-72018387D01*
X120370939Y-72988270D01*
X120364167Y-73000000D01*
X119635831Y-73000000D01*
X119629059Y-72988270D01*
X118659177Y-72018388D01*
X118646924Y-72011616D01*
X118635506Y-72019717D01*
X118612624Y-72048412D01*
X118607325Y-72056183D01*
X118486294Y-72265814D01*
X118482211Y-72274294D01*
X118393777Y-72499620D01*
X118391003Y-72508613D01*
X118337139Y-72744604D01*
X118335736Y-72753911D01*
X118317647Y-72995303D01*
X118317647Y-73004697D01*
X114000500Y-73004697D01*
X114000500Y-71647157D01*
X119009826Y-71647157D01*
X119015840Y-71656629D01*
X119988270Y-72629059D01*
X120000000Y-72635831D01*
X120011729Y-72629059D01*
X120984158Y-71656629D01*
X120990172Y-71647157D01*
X120982504Y-71638970D01*
X120845249Y-71545391D01*
X120837104Y-71540689D01*
X120619010Y-71435660D01*
X120610254Y-71432223D01*
X120378938Y-71360872D01*
X120369781Y-71358782D01*
X120130410Y-71322702D01*
X120121033Y-71322000D01*
X119878967Y-71322000D01*
X119869589Y-71322702D01*
X119630218Y-71358782D01*
X119621061Y-71360872D01*
X119389747Y-71432223D01*
X119380990Y-71435659D01*
X119162899Y-71540687D01*
X119154745Y-71545395D01*
X119017493Y-71638971D01*
X119009826Y-71647157D01*
X114000500Y-71647157D01*
X114000500Y-65445223D01*
X121092000Y-65445223D01*
X121092359Y-65451938D01*
X121097662Y-65501257D01*
X121101259Y-65516478D01*
X121146405Y-65637519D01*
X121154954Y-65653175D01*
X121231697Y-65755692D01*
X121244307Y-65768302D01*
X121346824Y-65845045D01*
X121362480Y-65853594D01*
X121483521Y-65898740D01*
X121498742Y-65902337D01*
X121548061Y-65907640D01*
X121554777Y-65908000D01*
X122229410Y-65908000D01*
X122242493Y-65904493D01*
X122246000Y-65891410D01*
X122246000Y-64770590D01*
X122242493Y-64757506D01*
X122229410Y-64754000D01*
X121108590Y-64754000D01*
X121095506Y-64757506D01*
X121092000Y-64770590D01*
X121092000Y-65445223D01*
X114000500Y-65445223D01*
X114000500Y-64229410D01*
X121092000Y-64229410D01*
X121095506Y-64242493D01*
X121108590Y-64246000D01*
X122229410Y-64246000D01*
X122242493Y-64242493D01*
X122246000Y-64229410D01*
X122246000Y-63108590D01*
X122242493Y-63095506D01*
X122229410Y-63092000D01*
X121554777Y-63092000D01*
X121548061Y-63092359D01*
X121498742Y-63097662D01*
X121483521Y-63101259D01*
X121362480Y-63146405D01*
X121346824Y-63154954D01*
X121244307Y-63231697D01*
X121231697Y-63244307D01*
X121154954Y-63346824D01*
X121146405Y-63362480D01*
X121101259Y-63483521D01*
X121097662Y-63498742D01*
X121092359Y-63548061D01*
X121092000Y-63554777D01*
X121092000Y-64229410D01*
X114000500Y-64229410D01*
X114000500Y-57328288D01*
X118331500Y-57328288D01*
X118331666Y-57330558D01*
X118331667Y-57330581D01*
X118346130Y-57528188D01*
X118346131Y-57528197D01*
X118346467Y-57532783D01*
X118405937Y-57799753D01*
X118503645Y-58055219D01*
X118505897Y-58059231D01*
X118505900Y-58059238D01*
X118635253Y-58289721D01*
X118635257Y-58289727D01*
X118637507Y-58293736D01*
X118804671Y-58510220D01*
X119001574Y-58700059D01*
X119005314Y-58702735D01*
X119005318Y-58702738D01*
X119176415Y-58825147D01*
X119224019Y-58859205D01*
X119467266Y-58984267D01*
X119726130Y-59072579D01*
X119995093Y-59122259D01*
X120268424Y-59132248D01*
X120540296Y-59102334D01*
X120804916Y-59033153D01*
X121056643Y-58926181D01*
X121290112Y-58783697D01*
X121500347Y-58608738D01*
X121682867Y-58405033D01*
X121833783Y-58176923D01*
X121949877Y-57929271D01*
X122028676Y-57667355D01*
X122068500Y-57396757D01*
X122068500Y-57328288D01*
X127931500Y-57328288D01*
X127931666Y-57330558D01*
X127931667Y-57330581D01*
X127946130Y-57528188D01*
X127946131Y-57528197D01*
X127946467Y-57532783D01*
X128005937Y-57799753D01*
X128103645Y-58055219D01*
X128105897Y-58059231D01*
X128105900Y-58059238D01*
X128235253Y-58289721D01*
X128235257Y-58289727D01*
X128237507Y-58293736D01*
X128404671Y-58510220D01*
X128601574Y-58700059D01*
X128605314Y-58702735D01*
X128605318Y-58702738D01*
X128776415Y-58825147D01*
X128824019Y-58859205D01*
X129067266Y-58984267D01*
X129326130Y-59072579D01*
X129595093Y-59122259D01*
X129868424Y-59132248D01*
X130140296Y-59102334D01*
X130404916Y-59033153D01*
X130656643Y-58926181D01*
X130890112Y-58783697D01*
X131100347Y-58608738D01*
X131282867Y-58405033D01*
X131433783Y-58176923D01*
X131549877Y-57929271D01*
X131628676Y-57667355D01*
X131668500Y-57396757D01*
X131668500Y-57328288D01*
X168331500Y-57328288D01*
X168331666Y-57330558D01*
X168331667Y-57330581D01*
X168346130Y-57528188D01*
X168346131Y-57528197D01*
X168346467Y-57532783D01*
X168405937Y-57799753D01*
X168503645Y-58055219D01*
X168505897Y-58059231D01*
X168505900Y-58059238D01*
X168635253Y-58289721D01*
X168635257Y-58289727D01*
X168637507Y-58293736D01*
X168804671Y-58510220D01*
X169001574Y-58700059D01*
X169005314Y-58702735D01*
X169005318Y-58702738D01*
X169176415Y-58825147D01*
X169224019Y-58859205D01*
X169467266Y-58984267D01*
X169726130Y-59072579D01*
X169995093Y-59122259D01*
X170268424Y-59132248D01*
X170540296Y-59102334D01*
X170804916Y-59033153D01*
X171056643Y-58926181D01*
X171290112Y-58783697D01*
X171500347Y-58608738D01*
X171682867Y-58405033D01*
X171833783Y-58176923D01*
X171949877Y-57929271D01*
X172028676Y-57667355D01*
X172068500Y-57396757D01*
X172068500Y-57328288D01*
X177931500Y-57328288D01*
X177931666Y-57330558D01*
X177931667Y-57330581D01*
X177946130Y-57528188D01*
X177946131Y-57528197D01*
X177946467Y-57532783D01*
X178005937Y-57799753D01*
X178103645Y-58055219D01*
X178105897Y-58059231D01*
X178105900Y-58059238D01*
X178235253Y-58289721D01*
X178235257Y-58289727D01*
X178237507Y-58293736D01*
X178404671Y-58510220D01*
X178601574Y-58700059D01*
X178605314Y-58702735D01*
X178605318Y-58702738D01*
X178776415Y-58825147D01*
X178824019Y-58859205D01*
X179067266Y-58984267D01*
X179326130Y-59072579D01*
X179595093Y-59122259D01*
X179868424Y-59132248D01*
X180140296Y-59102334D01*
X180404916Y-59033153D01*
X180656643Y-58926181D01*
X180890112Y-58783697D01*
X181100347Y-58608738D01*
X181282867Y-58405033D01*
X181433783Y-58176923D01*
X181549877Y-57929271D01*
X181628676Y-57667355D01*
X181668500Y-57396757D01*
X181668500Y-56671712D01*
X181653533Y-56467217D01*
X181594063Y-56200247D01*
X181496355Y-55944781D01*
X181362493Y-55706264D01*
X181195329Y-55489780D01*
X180998426Y-55299941D01*
X180994686Y-55297265D01*
X180994681Y-55297261D01*
X180779730Y-55143477D01*
X180779728Y-55143475D01*
X180775981Y-55140795D01*
X180771885Y-55138689D01*
X180536829Y-55017838D01*
X180536824Y-55017836D01*
X180532734Y-55015733D01*
X180273870Y-54927421D01*
X180257303Y-54924360D01*
X180009436Y-54878577D01*
X180009428Y-54878576D01*
X180004907Y-54877741D01*
X180000316Y-54877573D01*
X180000305Y-54877572D01*
X179736179Y-54867920D01*
X179736176Y-54867920D01*
X179731576Y-54867752D01*
X179727008Y-54868254D01*
X179726996Y-54868255D01*
X179464277Y-54897162D01*
X179464265Y-54897164D01*
X179459704Y-54897666D01*
X179455261Y-54898827D01*
X179455253Y-54898829D01*
X179199539Y-54965682D01*
X179199535Y-54965683D01*
X179195084Y-54966847D01*
X179190857Y-54968643D01*
X179190846Y-54968647D01*
X178947588Y-55072020D01*
X178947576Y-55072025D01*
X178943357Y-55073819D01*
X178939436Y-55076211D01*
X178939430Y-55076215D01*
X178713819Y-55213903D01*
X178713809Y-55213909D01*
X178709888Y-55216303D01*
X178706361Y-55219237D01*
X178706350Y-55219246D01*
X178503187Y-55388320D01*
X178503179Y-55388327D01*
X178499653Y-55391262D01*
X178496584Y-55394686D01*
X178496581Y-55394690D01*
X178320211Y-55591530D01*
X178320201Y-55591542D01*
X178317133Y-55594967D01*
X178314593Y-55598805D01*
X178314590Y-55598810D01*
X178240844Y-55710278D01*
X178166217Y-55823077D01*
X178164268Y-55827234D01*
X178164261Y-55827247D01*
X178052077Y-56066560D01*
X178050123Y-56070729D01*
X178048801Y-56075122D01*
X178048796Y-56075136D01*
X177972651Y-56328232D01*
X177972649Y-56328240D01*
X177971324Y-56332645D01*
X177970653Y-56337201D01*
X177970652Y-56337208D01*
X177932171Y-56598681D01*
X177931500Y-56603243D01*
X177931500Y-57328288D01*
X172068500Y-57328288D01*
X172068500Y-56671712D01*
X172053533Y-56467217D01*
X171994063Y-56200247D01*
X171896355Y-55944781D01*
X171762493Y-55706264D01*
X171595329Y-55489780D01*
X171398426Y-55299941D01*
X171394686Y-55297265D01*
X171394681Y-55297261D01*
X171179730Y-55143477D01*
X171179728Y-55143475D01*
X171175981Y-55140795D01*
X171171885Y-55138689D01*
X170936829Y-55017838D01*
X170936824Y-55017836D01*
X170932734Y-55015733D01*
X170673870Y-54927421D01*
X170657303Y-54924360D01*
X170409436Y-54878577D01*
X170409428Y-54878576D01*
X170404907Y-54877741D01*
X170400316Y-54877573D01*
X170400305Y-54877572D01*
X170136179Y-54867920D01*
X170136176Y-54867920D01*
X170131576Y-54867752D01*
X170127008Y-54868254D01*
X170126996Y-54868255D01*
X169864277Y-54897162D01*
X169864265Y-54897164D01*
X169859704Y-54897666D01*
X169855261Y-54898827D01*
X169855253Y-54898829D01*
X169599539Y-54965682D01*
X169599535Y-54965683D01*
X169595084Y-54966847D01*
X169590857Y-54968643D01*
X169590846Y-54968647D01*
X169347588Y-55072020D01*
X169347576Y-55072025D01*
X169343357Y-55073819D01*
X169339436Y-55076211D01*
X169339430Y-55076215D01*
X169113819Y-55213903D01*
X169113809Y-55213909D01*
X169109888Y-55216303D01*
X169106361Y-55219237D01*
X169106350Y-55219246D01*
X168903187Y-55388320D01*
X168903179Y-55388327D01*
X168899653Y-55391262D01*
X168896584Y-55394686D01*
X168896581Y-55394690D01*
X168720211Y-55591530D01*
X168720201Y-55591542D01*
X168717133Y-55594967D01*
X168714593Y-55598805D01*
X168714590Y-55598810D01*
X168640844Y-55710278D01*
X168566217Y-55823077D01*
X168564268Y-55827234D01*
X168564261Y-55827247D01*
X168452077Y-56066560D01*
X168450123Y-56070729D01*
X168448801Y-56075122D01*
X168448796Y-56075136D01*
X168372651Y-56328232D01*
X168372649Y-56328240D01*
X168371324Y-56332645D01*
X168370653Y-56337201D01*
X168370652Y-56337208D01*
X168332171Y-56598681D01*
X168331500Y-56603243D01*
X168331500Y-57328288D01*
X131668500Y-57328288D01*
X131668500Y-56671712D01*
X131653533Y-56467217D01*
X131594063Y-56200247D01*
X131496355Y-55944781D01*
X131362493Y-55706264D01*
X131195329Y-55489780D01*
X130998426Y-55299941D01*
X130994686Y-55297265D01*
X130994681Y-55297261D01*
X130779730Y-55143477D01*
X130779728Y-55143475D01*
X130775981Y-55140795D01*
X130771885Y-55138689D01*
X130536829Y-55017838D01*
X130536824Y-55017836D01*
X130532734Y-55015733D01*
X130273870Y-54927421D01*
X130257303Y-54924360D01*
X130009436Y-54878577D01*
X130009428Y-54878576D01*
X130004907Y-54877741D01*
X130000316Y-54877573D01*
X130000305Y-54877572D01*
X129736179Y-54867920D01*
X129736176Y-54867920D01*
X129731576Y-54867752D01*
X129727008Y-54868254D01*
X129726996Y-54868255D01*
X129464277Y-54897162D01*
X129464265Y-54897164D01*
X129459704Y-54897666D01*
X129455261Y-54898827D01*
X129455253Y-54898829D01*
X129199539Y-54965682D01*
X129199535Y-54965683D01*
X129195084Y-54966847D01*
X129190857Y-54968643D01*
X129190846Y-54968647D01*
X128947588Y-55072020D01*
X128947576Y-55072025D01*
X128943357Y-55073819D01*
X128939436Y-55076211D01*
X128939430Y-55076215D01*
X128713819Y-55213903D01*
X128713809Y-55213909D01*
X128709888Y-55216303D01*
X128706361Y-55219237D01*
X128706350Y-55219246D01*
X128503187Y-55388320D01*
X128503179Y-55388327D01*
X128499653Y-55391262D01*
X128496584Y-55394686D01*
X128496581Y-55394690D01*
X128320211Y-55591530D01*
X128320201Y-55591542D01*
X128317133Y-55594967D01*
X128314593Y-55598805D01*
X128314590Y-55598810D01*
X128240844Y-55710278D01*
X128166217Y-55823077D01*
X128164268Y-55827234D01*
X128164261Y-55827247D01*
X128052077Y-56066560D01*
X128050123Y-56070729D01*
X128048801Y-56075122D01*
X128048796Y-56075136D01*
X127972651Y-56328232D01*
X127972649Y-56328240D01*
X127971324Y-56332645D01*
X127970653Y-56337201D01*
X127970652Y-56337208D01*
X127932171Y-56598681D01*
X127931500Y-56603243D01*
X127931500Y-57328288D01*
X122068500Y-57328288D01*
X122068500Y-56671712D01*
X122053533Y-56467217D01*
X121994063Y-56200247D01*
X121896355Y-55944781D01*
X121762493Y-55706264D01*
X121595329Y-55489780D01*
X121398426Y-55299941D01*
X121394686Y-55297265D01*
X121394681Y-55297261D01*
X121179730Y-55143477D01*
X121179728Y-55143475D01*
X121175981Y-55140795D01*
X121171885Y-55138689D01*
X120936829Y-55017838D01*
X120936824Y-55017836D01*
X120932734Y-55015733D01*
X120673870Y-54927421D01*
X120657303Y-54924360D01*
X120409436Y-54878577D01*
X120409428Y-54878576D01*
X120404907Y-54877741D01*
X120400316Y-54877573D01*
X120400305Y-54877572D01*
X120136179Y-54867920D01*
X120136176Y-54867920D01*
X120131576Y-54867752D01*
X120127008Y-54868254D01*
X120126996Y-54868255D01*
X119864277Y-54897162D01*
X119864265Y-54897164D01*
X119859704Y-54897666D01*
X119855261Y-54898827D01*
X119855253Y-54898829D01*
X119599539Y-54965682D01*
X119599535Y-54965683D01*
X119595084Y-54966847D01*
X119590857Y-54968643D01*
X119590846Y-54968647D01*
X119347588Y-55072020D01*
X119347576Y-55072025D01*
X119343357Y-55073819D01*
X119339436Y-55076211D01*
X119339430Y-55076215D01*
X119113819Y-55213903D01*
X119113809Y-55213909D01*
X119109888Y-55216303D01*
X119106361Y-55219237D01*
X119106350Y-55219246D01*
X118903187Y-55388320D01*
X118903179Y-55388327D01*
X118899653Y-55391262D01*
X118896584Y-55394686D01*
X118896581Y-55394690D01*
X118720211Y-55591530D01*
X118720201Y-55591542D01*
X118717133Y-55594967D01*
X118714593Y-55598805D01*
X118714590Y-55598810D01*
X118640844Y-55710278D01*
X118566217Y-55823077D01*
X118564268Y-55827234D01*
X118564261Y-55827247D01*
X118452077Y-56066560D01*
X118450123Y-56070729D01*
X118448801Y-56075122D01*
X118448796Y-56075136D01*
X118372651Y-56328232D01*
X118372649Y-56328240D01*
X118371324Y-56332645D01*
X118370653Y-56337201D01*
X118370652Y-56337208D01*
X118332171Y-56598681D01*
X118331500Y-56603243D01*
X118331500Y-57328288D01*
X114000500Y-57328288D01*
X114000500Y-47126500D01*
X114017381Y-47063500D01*
X114063500Y-47017381D01*
X114126500Y-47000500D01*
X185873500Y-47000500D01*
X185936500Y-47017381D01*
G37*
G04 #@! TD.AperFunction*
G04 #@! TD*
M02*
