G04 #@! TF.GenerationSoftware,KiCad,Pcbnew,7.0.1-3b83917a11~171~ubuntu22.04.1*
G04 #@! TF.CreationDate,2023-03-14T16:36:31-04:00*
G04 #@! TF.ProjectId,mfos_vca-panel,6d666f73-5f76-4636-912d-70616e656c2e,rev?*
G04 #@! TF.SameCoordinates,Original*
G04 #@! TF.FileFunction,Legend,Top*
G04 #@! TF.FilePolarity,Positive*
%FSLAX46Y46*%
G04 Gerber Fmt 4.6, Leading zero omitted, Abs format (unit mm)*
G04 Created by KiCad (PCBNEW 7.0.1-3b83917a11~171~ubuntu22.04.1) date 2023-03-14 16:36:31*
%MOMM*%
%LPD*%
G01*
G04 APERTURE LIST*
G04 APERTURE END LIST*
G04 #@! TO.C,GRAF2*
G36*
X27336336Y-191251452D02*
G01*
X27336336Y-193107508D01*
X27043944Y-193107508D01*
X26751551Y-193107508D01*
X26751551Y-191251452D01*
X26751551Y-189395396D01*
X27043944Y-189395396D01*
X27336336Y-189395396D01*
X27336336Y-191251452D01*
G37*
G36*
X31912913Y-191251452D02*
G01*
X31912913Y-193107508D01*
X31620520Y-193107508D01*
X31328128Y-193107508D01*
X31328128Y-191251452D01*
X31328128Y-189395396D01*
X31620520Y-189395396D01*
X31912913Y-189395396D01*
X31912913Y-191251452D01*
G37*
G36*
X42184785Y-139485286D02*
G01*
X42184785Y-141087087D01*
X41930530Y-141087087D01*
X41676276Y-141087087D01*
X41676276Y-139485286D01*
X41676276Y-137883484D01*
X41930530Y-137883484D01*
X42184785Y-137883484D01*
X42184785Y-139485286D01*
G37*
G36*
X74932732Y-10908909D02*
G01*
X74932732Y-12612413D01*
X74322522Y-12612413D01*
X73712312Y-12612413D01*
X73712312Y-10908909D01*
X73712312Y-9205406D01*
X74322522Y-9205406D01*
X74932732Y-9205406D01*
X74932732Y-10908909D01*
G37*
G36*
X77398999Y-191251452D02*
G01*
X77398999Y-193107508D01*
X77093894Y-193107508D01*
X76788789Y-193107508D01*
X76788789Y-191251452D01*
X76788789Y-189395396D01*
X77093894Y-189395396D01*
X77398999Y-189395396D01*
X77398999Y-191251452D01*
G37*
G36*
X81975575Y-191251452D02*
G01*
X81975575Y-193107508D01*
X81670470Y-193107508D01*
X81365365Y-193107508D01*
X81365365Y-191251452D01*
X81365365Y-189395396D01*
X81670470Y-189395396D01*
X81975575Y-189395396D01*
X81975575Y-191251452D01*
G37*
G36*
X92247447Y-139485286D02*
G01*
X92247447Y-141087087D01*
X91993193Y-141087087D01*
X91738939Y-141087087D01*
X91738939Y-139485286D01*
X91738939Y-137883484D01*
X91993193Y-137883484D01*
X92247447Y-137883484D01*
X92247447Y-139485286D01*
G37*
G36*
X39012963Y-119862324D02*
G01*
X39273573Y-119869570D01*
X39280156Y-121198048D01*
X39286740Y-122526527D01*
X39756883Y-122526527D01*
X40227027Y-122526527D01*
X40227027Y-122793494D01*
X40227027Y-123060461D01*
X39489689Y-123060461D01*
X38752352Y-123060461D01*
X38752352Y-121457770D01*
X38752352Y-119855078D01*
X39012963Y-119862324D01*
G37*
G36*
X40557557Y-139218319D02*
G01*
X40557557Y-140553154D01*
X41040640Y-140553154D01*
X41523723Y-140553154D01*
X41523723Y-140820121D01*
X41523723Y-141087087D01*
X40786386Y-141087087D01*
X40049049Y-141087087D01*
X40049049Y-139485286D01*
X40049049Y-137883484D01*
X40303303Y-137883484D01*
X40557557Y-137883484D01*
X40557557Y-139218319D01*
G37*
G36*
X41320320Y-63793794D02*
G01*
X41320320Y-65344745D01*
X41879679Y-65344745D01*
X42439039Y-65344745D01*
X42439039Y-65649850D01*
X42439039Y-65954955D01*
X41574574Y-65954955D01*
X40710110Y-65954955D01*
X40710110Y-64098899D01*
X40710110Y-62242843D01*
X41015215Y-62242843D01*
X41320320Y-62242843D01*
X41320320Y-63793794D01*
G37*
G36*
X50193794Y-63793794D02*
G01*
X50193794Y-65344745D01*
X50753153Y-65344745D01*
X51312512Y-65344745D01*
X51312512Y-65649850D01*
X51312512Y-65954955D01*
X50448048Y-65954955D01*
X49583583Y-65954955D01*
X49583583Y-64098899D01*
X49583583Y-62242843D01*
X49888688Y-62242843D01*
X50193794Y-62242843D01*
X50193794Y-63793794D01*
G37*
G36*
X89323523Y-121191692D02*
G01*
X89323523Y-122526527D01*
X89806606Y-122526527D01*
X90289689Y-122526527D01*
X90289689Y-122793494D01*
X90289689Y-123060461D01*
X89552352Y-123060461D01*
X88815015Y-123060461D01*
X88815015Y-121458659D01*
X88815015Y-119856857D01*
X89069269Y-119856857D01*
X89323523Y-119856857D01*
X89323523Y-121191692D01*
G37*
G36*
X91382983Y-63793794D02*
G01*
X91382983Y-65344745D01*
X91942342Y-65344745D01*
X92501701Y-65344745D01*
X92501701Y-65649850D01*
X92501701Y-65954955D01*
X91637237Y-65954955D01*
X90772773Y-65954955D01*
X90772773Y-64098899D01*
X90772773Y-62242843D01*
X91077878Y-62242843D01*
X91382983Y-62242843D01*
X91382983Y-63793794D01*
G37*
G36*
X100256456Y-63793794D02*
G01*
X100256456Y-65344745D01*
X100815816Y-65344745D01*
X101375175Y-65344745D01*
X101375175Y-65649850D01*
X101375175Y-65954955D01*
X100510710Y-65954955D01*
X99646246Y-65954955D01*
X99646246Y-64098899D01*
X99646246Y-62242843D01*
X99951351Y-62242843D01*
X100256456Y-62242843D01*
X100256456Y-63793794D01*
G37*
G36*
X49100500Y-106584785D02*
G01*
X49100500Y-106889890D01*
X48757257Y-106889890D01*
X48414014Y-106889890D01*
X48414014Y-108440841D01*
X48414014Y-109991792D01*
X48108909Y-109991792D01*
X47803804Y-109991792D01*
X47803804Y-108440841D01*
X47803804Y-106889890D01*
X47460560Y-106889890D01*
X47117317Y-106889890D01*
X47117317Y-106584785D01*
X47117317Y-106279680D01*
X48108909Y-106279680D01*
X49100500Y-106279680D01*
X49100500Y-106584785D01*
G37*
G36*
X99137737Y-106584785D02*
G01*
X99137737Y-106889890D01*
X98794494Y-106889890D01*
X98451251Y-106889890D01*
X98451251Y-108440841D01*
X98451251Y-109991792D01*
X98146146Y-109991792D01*
X97841041Y-109991792D01*
X97841041Y-108440841D01*
X97841041Y-106889890D01*
X97497798Y-106889890D01*
X97154554Y-106889890D01*
X97154554Y-106584785D01*
X97154554Y-106279680D01*
X98146146Y-106279680D01*
X99137737Y-106279680D01*
X99137737Y-106584785D01*
G37*
G36*
X117062662Y-15905005D02*
G01*
X117062662Y-16299099D01*
X92234734Y-16299099D01*
X67406807Y-16299099D01*
X67406807Y-106000000D01*
X67406807Y-195700901D01*
X92234734Y-195700901D01*
X117062662Y-195700901D01*
X117062662Y-196094995D01*
X117062662Y-196489089D01*
X67012712Y-196489089D01*
X16962763Y-196489089D01*
X16962763Y-196094995D01*
X16962763Y-195700901D01*
X41790690Y-195700901D01*
X66618618Y-195700901D01*
X66618618Y-106000000D01*
X66618618Y-16299099D01*
X41790690Y-16299099D01*
X16962763Y-16299099D01*
X16962763Y-15905005D01*
X16962763Y-15510911D01*
X67012712Y-15510911D01*
X117062662Y-15510911D01*
X117062662Y-15905005D01*
G37*
G36*
X56321321Y-10832633D02*
G01*
X56321321Y-12459860D01*
X56604426Y-12459860D01*
X56740054Y-12457038D01*
X56876191Y-12449442D01*
X56993279Y-12438375D01*
X57048107Y-12430273D01*
X57143230Y-12415470D01*
X57202752Y-12414459D01*
X57240075Y-12427451D01*
X57248085Y-12433386D01*
X57283443Y-12488426D01*
X57277129Y-12546939D01*
X57238308Y-12586093D01*
X57198603Y-12593351D01*
X57109764Y-12599504D01*
X56973499Y-12604511D01*
X56791513Y-12608330D01*
X56565513Y-12610921D01*
X56297205Y-12612241D01*
X56145015Y-12612413D01*
X55100901Y-12612413D01*
X55100901Y-10908909D01*
X55100901Y-9205406D01*
X55711111Y-9205406D01*
X56321321Y-9205406D01*
X56321321Y-10832633D01*
G37*
G36*
X90620220Y-139218319D02*
G01*
X90620220Y-140553154D01*
X91104193Y-140553154D01*
X91588165Y-140553154D01*
X91580919Y-140813764D01*
X91573673Y-141074375D01*
X90847312Y-141081113D01*
X90659987Y-141082262D01*
X90489373Y-141082178D01*
X90342042Y-141080957D01*
X90224566Y-141078691D01*
X90143516Y-141075475D01*
X90105465Y-141071402D01*
X90103619Y-141070520D01*
X90100567Y-141042702D01*
X90097687Y-140968408D01*
X90095025Y-140852013D01*
X90092629Y-140697890D01*
X90090546Y-140510415D01*
X90088824Y-140293962D01*
X90087509Y-140052906D01*
X90086650Y-139791621D01*
X90086293Y-139514482D01*
X90086286Y-139468335D01*
X90086286Y-137883484D01*
X90353253Y-137883484D01*
X90620220Y-137883484D01*
X90620220Y-139218319D01*
G37*
G36*
X40786386Y-106584785D02*
G01*
X40786386Y-106889890D01*
X40201601Y-106889890D01*
X39616817Y-106889890D01*
X39616817Y-106991592D01*
X39616817Y-107093294D01*
X40214314Y-107093294D01*
X40811812Y-107093294D01*
X40811812Y-107397930D01*
X40811812Y-107702567D01*
X40220670Y-107709392D01*
X39629529Y-107716217D01*
X39622911Y-108854004D01*
X39616293Y-109991792D01*
X39324424Y-109991792D01*
X39032555Y-109991792D01*
X39025937Y-108854004D01*
X39019319Y-107716217D01*
X38898548Y-107708467D01*
X38777778Y-107700718D01*
X38777778Y-107397006D01*
X38777778Y-107093294D01*
X38904905Y-107093294D01*
X39032032Y-107093294D01*
X39032032Y-106686487D01*
X39032032Y-106279680D01*
X39909209Y-106279680D01*
X40786386Y-106279680D01*
X40786386Y-106584785D01*
G37*
G36*
X42998398Y-106584785D02*
G01*
X42998398Y-106889890D01*
X42426326Y-106889890D01*
X41854254Y-106889890D01*
X41854254Y-106991592D01*
X41854254Y-107093294D01*
X42439039Y-107093294D01*
X43023824Y-107093294D01*
X43023824Y-107398399D01*
X43023824Y-107703504D01*
X42439039Y-107703504D01*
X41854254Y-107703504D01*
X41854254Y-108847648D01*
X41854254Y-109991792D01*
X41549149Y-109991792D01*
X41244044Y-109991792D01*
X41244044Y-108847648D01*
X41244044Y-107703504D01*
X41116917Y-107703504D01*
X40989790Y-107703504D01*
X40989790Y-107398399D01*
X40989790Y-107093294D01*
X41116917Y-107093294D01*
X41244044Y-107093294D01*
X41244044Y-106686487D01*
X41244044Y-106279680D01*
X42121221Y-106279680D01*
X42998398Y-106279680D01*
X42998398Y-106584785D01*
G37*
G36*
X60084284Y-10835071D02*
G01*
X60084284Y-12464737D01*
X60433884Y-12449739D01*
X60573101Y-12443640D01*
X60704089Y-12437673D01*
X60813354Y-12432469D01*
X60887399Y-12428657D01*
X60894852Y-12428232D01*
X60984949Y-12434302D01*
X61036361Y-12462272D01*
X61045188Y-12507813D01*
X61013659Y-12560074D01*
X61000755Y-12572883D01*
X60984265Y-12583412D01*
X60959444Y-12591883D01*
X60921548Y-12598521D01*
X60865832Y-12603549D01*
X60787554Y-12607190D01*
X60681967Y-12609668D01*
X60544329Y-12611205D01*
X60369896Y-12612026D01*
X60153922Y-12612354D01*
X59902365Y-12612413D01*
X58838438Y-12612413D01*
X58838438Y-10908909D01*
X58838438Y-9205406D01*
X59461361Y-9205406D01*
X60084284Y-9205406D01*
X60084284Y-10835071D01*
G37*
G36*
X90823623Y-106584785D02*
G01*
X90823623Y-106889890D01*
X90251551Y-106889890D01*
X89679479Y-106889890D01*
X89679479Y-106991592D01*
X89679479Y-107093294D01*
X90276977Y-107093294D01*
X90874474Y-107093294D01*
X90874474Y-107398399D01*
X90874474Y-107703504D01*
X90276977Y-107703504D01*
X89679479Y-107703504D01*
X89679479Y-108847648D01*
X89679479Y-109991792D01*
X89374374Y-109991792D01*
X89069269Y-109991792D01*
X89069269Y-108847648D01*
X89069269Y-107703504D01*
X88954855Y-107703504D01*
X88840440Y-107703504D01*
X88840440Y-107398399D01*
X88840440Y-107093294D01*
X88954855Y-107093294D01*
X89069269Y-107093294D01*
X89069269Y-106686487D01*
X89069269Y-106279680D01*
X89946446Y-106279680D01*
X90823623Y-106279680D01*
X90823623Y-106584785D01*
G37*
G36*
X93035635Y-106584785D02*
G01*
X93035635Y-106889890D01*
X92463563Y-106889890D01*
X91891491Y-106889890D01*
X91891491Y-106991592D01*
X91891491Y-107093294D01*
X92488989Y-107093294D01*
X93086486Y-107093294D01*
X93086486Y-107398399D01*
X93086486Y-107703504D01*
X92488989Y-107703504D01*
X91891491Y-107703504D01*
X91891491Y-108847648D01*
X91891491Y-109991792D01*
X91586386Y-109991792D01*
X91281281Y-109991792D01*
X91281281Y-108847648D01*
X91281281Y-107703504D01*
X91166867Y-107703504D01*
X91052452Y-107703504D01*
X91052452Y-107398399D01*
X91052452Y-107093294D01*
X91166867Y-107093294D01*
X91281281Y-107093294D01*
X91281281Y-106686487D01*
X91281281Y-106279680D01*
X92158458Y-106279680D01*
X93035635Y-106279680D01*
X93035635Y-106584785D01*
G37*
G36*
X72313914Y-10835017D02*
G01*
X72313914Y-12464628D01*
X72676226Y-12449757D01*
X72817872Y-12443810D01*
X72951415Y-12437963D01*
X73063635Y-12432812D01*
X73141315Y-12428950D01*
X73152953Y-12428304D01*
X73224296Y-12427110D01*
X73259712Y-12438462D01*
X73273722Y-12468516D01*
X73275675Y-12480329D01*
X73279658Y-12511686D01*
X73279021Y-12537641D01*
X73269444Y-12558705D01*
X73246608Y-12575388D01*
X73206193Y-12588201D01*
X73143879Y-12597654D01*
X73055345Y-12604258D01*
X72936273Y-12608524D01*
X72782341Y-12610963D01*
X72589231Y-12612084D01*
X72352622Y-12612399D01*
X72158248Y-12612413D01*
X71093493Y-12612413D01*
X71093493Y-10908909D01*
X71093493Y-9205406D01*
X71703703Y-9205406D01*
X72313914Y-9205406D01*
X72313914Y-10835017D01*
G37*
G36*
X50829429Y-190598116D02*
G01*
X50829429Y-190819220D01*
X51083683Y-190819220D01*
X51337938Y-190819220D01*
X51337938Y-191645546D01*
X51337750Y-191844706D01*
X51337217Y-192026565D01*
X51336384Y-192185159D01*
X51335299Y-192314521D01*
X51334006Y-192408688D01*
X51332551Y-192461693D01*
X51331581Y-192471269D01*
X51306680Y-192462077D01*
X51248161Y-192438739D01*
X51179319Y-192410662D01*
X51016037Y-192326391D01*
X50858425Y-192214524D01*
X50726527Y-192089771D01*
X50700921Y-192059542D01*
X50577806Y-191868486D01*
X50489342Y-191650785D01*
X50438959Y-191419634D01*
X50430088Y-191188225D01*
X50443485Y-191069431D01*
X50485262Y-190908560D01*
X50552310Y-190744452D01*
X50636178Y-190594326D01*
X50728412Y-190475404D01*
X50741517Y-190462220D01*
X50829429Y-190377012D01*
X50829429Y-190598116D01*
G37*
G36*
X55645348Y-190018567D02*
G01*
X55773618Y-190044537D01*
X56006077Y-190129696D01*
X56213695Y-190254701D01*
X56392136Y-190414064D01*
X56537065Y-190602298D01*
X56644148Y-190813915D01*
X56709049Y-191043428D01*
X56727826Y-191252466D01*
X56705463Y-191498056D01*
X56636696Y-191725146D01*
X56520403Y-191936416D01*
X56359459Y-192130469D01*
X56167589Y-192291624D01*
X55952785Y-192408218D01*
X55718913Y-192478905D01*
X55469837Y-192502338D01*
X55317017Y-192493420D01*
X55080770Y-192442169D01*
X54863635Y-192346940D01*
X54670412Y-192212554D01*
X54505902Y-192043829D01*
X54374905Y-191845584D01*
X54282224Y-191622639D01*
X54235973Y-191408300D01*
X54229335Y-191170172D01*
X54268084Y-190942910D01*
X54347499Y-190730701D01*
X54462856Y-190537735D01*
X54609434Y-190368199D01*
X54782510Y-190226282D01*
X54977362Y-190116172D01*
X55189267Y-190042057D01*
X55413503Y-190008126D01*
X55645348Y-190018567D01*
G37*
G36*
X89101067Y-62219594D02*
G01*
X89105031Y-62291206D01*
X89108606Y-62408467D01*
X89111760Y-62568775D01*
X89114459Y-62769529D01*
X89116672Y-63008128D01*
X89118366Y-63281972D01*
X89119508Y-63588459D01*
X89120067Y-63924988D01*
X89120120Y-64071355D01*
X89120120Y-65954955D01*
X88815261Y-65954955D01*
X88510403Y-65954955D01*
X88503800Y-64742437D01*
X88497197Y-63529919D01*
X88398814Y-63616307D01*
X88300431Y-63702695D01*
X88113401Y-63500347D01*
X88037768Y-63415572D01*
X87977917Y-63342841D01*
X87940787Y-63290956D01*
X87932105Y-63270373D01*
X87951399Y-63247744D01*
X88002868Y-63196228D01*
X88080918Y-63120982D01*
X88179954Y-63027168D01*
X88294382Y-62919945D01*
X88418607Y-62804473D01*
X88547035Y-62685911D01*
X88674071Y-62569420D01*
X88794122Y-62460158D01*
X88901592Y-62363287D01*
X88990887Y-62283964D01*
X89056413Y-62227351D01*
X89092574Y-62198607D01*
X89096745Y-62196230D01*
X89101067Y-62219594D01*
G37*
G36*
X105713611Y-190021538D02*
G01*
X105939886Y-190077489D01*
X106154880Y-190177756D01*
X106352282Y-190322611D01*
X106353523Y-190323726D01*
X106523701Y-190508237D01*
X106650744Y-190713192D01*
X106734341Y-190932622D01*
X106774181Y-191160558D01*
X106769953Y-191391032D01*
X106721345Y-191618078D01*
X106628046Y-191835725D01*
X106489744Y-192038008D01*
X106445593Y-192088195D01*
X106257504Y-192261577D01*
X106056853Y-192387025D01*
X105839514Y-192466070D01*
X105601362Y-192500244D01*
X105355455Y-192492886D01*
X105166230Y-192452849D01*
X104972967Y-192374952D01*
X104792632Y-192267646D01*
X104642192Y-192139380D01*
X104639082Y-192136107D01*
X104477904Y-191932038D01*
X104363086Y-191713473D01*
X104294646Y-191485494D01*
X104272595Y-191253179D01*
X104296951Y-191021608D01*
X104367727Y-190795860D01*
X104484938Y-190581017D01*
X104634031Y-190397113D01*
X104821995Y-190235519D01*
X105030249Y-190116895D01*
X105252479Y-190041511D01*
X105482371Y-190009635D01*
X105713611Y-190021538D01*
G37*
G36*
X33384381Y-164327402D02*
G01*
X33390546Y-164340721D01*
X33395760Y-164367942D01*
X33400101Y-164412388D01*
X33403649Y-164477386D01*
X33406484Y-164566259D01*
X33408685Y-164682333D01*
X33410331Y-164828933D01*
X33411501Y-165009382D01*
X33412275Y-165227006D01*
X33412732Y-165485130D01*
X33412951Y-165787078D01*
X33413012Y-166136175D01*
X33413013Y-166178869D01*
X33413013Y-168063464D01*
X33120620Y-168063464D01*
X32828228Y-168063464D01*
X32828228Y-166840085D01*
X32828228Y-165616706D01*
X32726453Y-165708653D01*
X32668542Y-165759671D01*
X32627880Y-165793059D01*
X32616163Y-165800601D01*
X32596734Y-165782969D01*
X32550403Y-165735088D01*
X32484317Y-165664479D01*
X32413347Y-165587155D01*
X32219045Y-165373709D01*
X32771894Y-164868887D01*
X32914224Y-164739101D01*
X33045985Y-164619291D01*
X33162050Y-164514096D01*
X33257288Y-164428152D01*
X33326569Y-164366097D01*
X33364763Y-164332570D01*
X33368878Y-164329169D01*
X33377185Y-164324660D01*
X33384381Y-164327402D01*
G37*
G36*
X100865608Y-190596747D02*
G01*
X100866666Y-190819220D01*
X101133633Y-190819220D01*
X101400600Y-190819220D01*
X101400600Y-191645546D01*
X101400412Y-191844706D01*
X101399879Y-192026565D01*
X101399047Y-192185159D01*
X101397961Y-192314521D01*
X101396668Y-192408688D01*
X101395214Y-192461693D01*
X101394244Y-192471269D01*
X101369330Y-192462080D01*
X101310973Y-192438803D01*
X101245305Y-192412012D01*
X101030034Y-192302909D01*
X100853371Y-192166044D01*
X100708227Y-191994684D01*
X100591848Y-191791233D01*
X100552841Y-191707823D01*
X100526487Y-191641864D01*
X100510306Y-191579764D01*
X100501818Y-191507927D01*
X100498542Y-191412760D01*
X100497998Y-191280667D01*
X100497998Y-191276877D01*
X100498515Y-191143640D01*
X100501693Y-191047791D01*
X100509969Y-190975867D01*
X100525781Y-190914405D01*
X100551566Y-190849943D01*
X100589763Y-190769019D01*
X100590077Y-190768369D01*
X100646563Y-190662505D01*
X100709997Y-190560444D01*
X100767652Y-190482496D01*
X100773353Y-190475976D01*
X100864550Y-190374275D01*
X100865608Y-190596747D01*
G37*
G36*
X43932974Y-139478929D02*
G01*
X43926426Y-141074375D01*
X43672172Y-141074375D01*
X43417918Y-141074375D01*
X43411307Y-139898424D01*
X43404697Y-138722474D01*
X43296893Y-138643036D01*
X43150135Y-138551175D01*
X42990684Y-138477787D01*
X42928478Y-138456563D01*
X42871271Y-138439417D01*
X42871271Y-139763252D01*
X42871271Y-141087087D01*
X42621254Y-141087087D01*
X42513137Y-141085463D01*
X42424848Y-141081091D01*
X42368242Y-141074726D01*
X42354287Y-141070137D01*
X42351303Y-141042388D01*
X42348486Y-140968162D01*
X42345883Y-140851831D01*
X42343540Y-140697769D01*
X42341503Y-140510349D01*
X42339819Y-140293943D01*
X42338534Y-140052927D01*
X42337693Y-139791671D01*
X42337344Y-139514550D01*
X42337337Y-139468335D01*
X42337337Y-137883484D01*
X42547097Y-137883662D01*
X42744889Y-137896970D01*
X42957864Y-137933312D01*
X43161819Y-137987776D01*
X43284434Y-138033269D01*
X43405205Y-138085080D01*
X43405205Y-137984282D01*
X43405205Y-137883484D01*
X43672363Y-137883484D01*
X43939521Y-137883484D01*
X43932974Y-139478929D01*
G37*
G36*
X92673323Y-137889427D02*
G01*
X92984055Y-137929138D01*
X93291494Y-138018622D01*
X93423373Y-138072558D01*
X93451662Y-138078304D01*
X93464644Y-138054927D01*
X93467863Y-137991881D01*
X93467868Y-137987906D01*
X93467868Y-137883484D01*
X93722122Y-137883484D01*
X93976376Y-137883484D01*
X93976376Y-139485286D01*
X93976376Y-141087087D01*
X93722122Y-141087087D01*
X93467868Y-141087087D01*
X93467868Y-139906027D01*
X93467868Y-138724966D01*
X93353684Y-138646405D01*
X93269620Y-138593501D01*
X93173018Y-138540062D01*
X93077446Y-138492760D01*
X92996474Y-138458270D01*
X92943672Y-138443265D01*
X92940290Y-138443092D01*
X92932959Y-138453010D01*
X92926770Y-138485144D01*
X92921640Y-138542876D01*
X92917488Y-138629585D01*
X92914233Y-138748654D01*
X92911794Y-138903464D01*
X92910090Y-139097397D01*
X92909039Y-139333834D01*
X92908559Y-139616155D01*
X92908508Y-139764965D01*
X92908508Y-141087087D01*
X92654254Y-141087087D01*
X92400000Y-141087087D01*
X92400000Y-139481685D01*
X92400000Y-137876283D01*
X92673323Y-137889427D01*
G37*
G36*
X39027522Y-62219214D02*
G01*
X39033962Y-62230360D01*
X39039407Y-62254431D01*
X39043940Y-62294765D01*
X39047645Y-62354704D01*
X39050604Y-62437588D01*
X39052902Y-62546757D01*
X39054621Y-62685551D01*
X39055845Y-62857311D01*
X39056656Y-63065377D01*
X39057140Y-63313088D01*
X39057378Y-63603786D01*
X39057453Y-63940810D01*
X39057457Y-64072032D01*
X39057457Y-65954955D01*
X38765065Y-65954955D01*
X38472672Y-65954955D01*
X38472672Y-64729375D01*
X38472672Y-63503794D01*
X38376255Y-63597943D01*
X38318692Y-63650864D01*
X38275078Y-63685019D01*
X38260499Y-63692092D01*
X38235958Y-63674554D01*
X38186834Y-63628201D01*
X38122103Y-63562425D01*
X38050737Y-63486617D01*
X37981711Y-63410171D01*
X37923999Y-63342478D01*
X37911257Y-63326585D01*
X37863275Y-63265586D01*
X38414232Y-62760571D01*
X38556271Y-62630677D01*
X38687885Y-62510888D01*
X38803929Y-62405840D01*
X38899259Y-62320173D01*
X38968730Y-62258523D01*
X39007197Y-62225529D01*
X39011323Y-62222332D01*
X39020003Y-62217651D01*
X39027522Y-62219214D01*
G37*
G36*
X42591591Y-24026583D02*
G01*
X42591591Y-25909910D01*
X42299199Y-25909910D01*
X42006807Y-25909910D01*
X42006807Y-24702203D01*
X42006386Y-24459830D01*
X42005179Y-24233696D01*
X42003271Y-24028741D01*
X42000746Y-23849902D01*
X41997689Y-23702119D01*
X41994185Y-23590332D01*
X41990317Y-23519478D01*
X41986171Y-23494496D01*
X41986138Y-23494495D01*
X41957118Y-23511311D01*
X41909629Y-23553351D01*
X41892392Y-23570771D01*
X41840569Y-23618588D01*
X41800129Y-23645125D01*
X41792290Y-23647034D01*
X41767540Y-23629635D01*
X41717845Y-23583685D01*
X41652157Y-23518540D01*
X41579425Y-23443555D01*
X41508600Y-23368086D01*
X41448633Y-23301489D01*
X41408474Y-23253120D01*
X41396596Y-23233432D01*
X41414497Y-23214516D01*
X41464478Y-23166557D01*
X41540959Y-23094680D01*
X41638359Y-23004010D01*
X41751096Y-22899673D01*
X41873592Y-22786791D01*
X42000263Y-22670492D01*
X42125530Y-22555899D01*
X42243812Y-22448137D01*
X42349528Y-22352331D01*
X42437096Y-22273607D01*
X42500938Y-22217088D01*
X42533302Y-22189596D01*
X42591591Y-22143257D01*
X42591591Y-24026583D01*
G37*
G36*
X66901380Y-200424595D02*
G01*
X67074633Y-200427509D01*
X67201161Y-200431877D01*
X67279446Y-200437678D01*
X67304794Y-200442604D01*
X67358886Y-200483425D01*
X67379206Y-200537949D01*
X67359580Y-200589095D01*
X67358246Y-200590463D01*
X67323828Y-200600868D01*
X67243791Y-200607981D01*
X67116755Y-200611850D01*
X66941340Y-200612527D01*
X66783789Y-200611057D01*
X66237237Y-200603747D01*
X66237237Y-201041671D01*
X66237237Y-201479596D01*
X66653711Y-201466963D01*
X66796612Y-201464059D01*
X66923564Y-201464163D01*
X67025026Y-201467057D01*
X67091456Y-201472525D01*
X67111369Y-201477378D01*
X67147266Y-201521099D01*
X67145538Y-201576376D01*
X67107348Y-201621881D01*
X67103373Y-201624131D01*
X67060583Y-201633582D01*
X66975897Y-201641403D01*
X66858260Y-201647079D01*
X66716614Y-201650097D01*
X66645715Y-201650451D01*
X66237237Y-201650451D01*
X66237237Y-202743744D01*
X66237237Y-203837037D01*
X65614314Y-203837037D01*
X64991391Y-203837037D01*
X64991391Y-202134997D01*
X64991391Y-200432956D01*
X66116466Y-200424805D01*
X66420777Y-200423220D01*
X66682921Y-200423157D01*
X66901380Y-200424595D01*
G37*
G36*
X82643507Y-189411263D02*
G01*
X82898445Y-189456501D01*
X83129162Y-189527564D01*
X83157858Y-189539128D01*
X83266711Y-189584260D01*
X83336761Y-189609873D01*
X83376533Y-189615037D01*
X83394554Y-189598821D01*
X83399352Y-189560295D01*
X83399399Y-189512776D01*
X83399399Y-189395396D01*
X83704504Y-189395396D01*
X84009609Y-189395396D01*
X84009609Y-191251452D01*
X84009609Y-193107508D01*
X83704504Y-193107508D01*
X83399399Y-193107508D01*
X83399399Y-191749099D01*
X83399399Y-190390690D01*
X83304054Y-190311153D01*
X83236030Y-190262377D01*
X83144612Y-190207201D01*
X83042913Y-190152324D01*
X82944047Y-190104446D01*
X82861125Y-190070268D01*
X82807263Y-190056490D01*
X82805590Y-190056457D01*
X82796879Y-190059611D01*
X82789459Y-190071565D01*
X82783229Y-190096057D01*
X82778086Y-190136823D01*
X82773927Y-190197600D01*
X82770650Y-190282127D01*
X82768152Y-190394139D01*
X82766331Y-190537374D01*
X82765085Y-190715570D01*
X82764311Y-190932463D01*
X82763906Y-191191792D01*
X82763768Y-191497292D01*
X82763764Y-191581982D01*
X82763764Y-193107508D01*
X82458658Y-193107508D01*
X82153553Y-193107508D01*
X82153553Y-191251452D01*
X82153553Y-189395396D01*
X82383454Y-189395396D01*
X82643507Y-189411263D01*
G37*
G36*
X83456513Y-164328106D02*
G01*
X83460571Y-164399947D01*
X83464213Y-164517887D01*
X83467409Y-164679549D01*
X83470128Y-164882559D01*
X83472340Y-165124540D01*
X83474017Y-165403117D01*
X83475127Y-165715915D01*
X83475642Y-166060557D01*
X83475675Y-166179864D01*
X83475675Y-168063464D01*
X83170570Y-168063464D01*
X82865465Y-168063464D01*
X82865465Y-166855756D01*
X82865101Y-166613383D01*
X82864059Y-166387249D01*
X82862410Y-166182294D01*
X82860229Y-166003455D01*
X82857588Y-165855672D01*
X82854560Y-165743885D01*
X82851218Y-165673031D01*
X82847635Y-165648050D01*
X82847607Y-165648048D01*
X82820113Y-165664258D01*
X82771559Y-165705155D01*
X82747631Y-165727639D01*
X82665515Y-165807229D01*
X82521486Y-165651661D01*
X82446563Y-165569505D01*
X82378697Y-165492945D01*
X82330511Y-165436266D01*
X82324320Y-165428539D01*
X82271182Y-165360986D01*
X82336255Y-165307470D01*
X82371940Y-165276399D01*
X82439445Y-165216025D01*
X82533140Y-165131443D01*
X82647396Y-165027750D01*
X82776584Y-164910043D01*
X82914894Y-164783584D01*
X83050588Y-164659766D01*
X83174551Y-164547536D01*
X83281709Y-164451415D01*
X83366990Y-164375926D01*
X83425321Y-164325591D01*
X83451629Y-164304932D01*
X83452068Y-164304738D01*
X83456513Y-164328106D01*
G37*
G36*
X32415065Y-189401282D02*
G01*
X32563092Y-189408871D01*
X32677709Y-189419783D01*
X32776359Y-189437060D01*
X32876482Y-189463746D01*
X32993493Y-189502183D01*
X33103560Y-189540566D01*
X33198901Y-189574577D01*
X33267154Y-189599761D01*
X33292242Y-189609777D01*
X33319413Y-189615605D01*
X33332616Y-189594195D01*
X33336616Y-189535133D01*
X33336736Y-189512530D01*
X33336736Y-189395396D01*
X33641842Y-189395396D01*
X33946947Y-189395396D01*
X33946947Y-191251452D01*
X33946947Y-193107508D01*
X33641842Y-193107508D01*
X33336736Y-193107508D01*
X33336736Y-191738845D01*
X33336736Y-190370182D01*
X33224362Y-190289481D01*
X33139756Y-190234639D01*
X33038842Y-190177896D01*
X32934736Y-190125636D01*
X32840555Y-190084242D01*
X32769415Y-190060097D01*
X32745595Y-190056477D01*
X32736350Y-190058792D01*
X32728478Y-190068258D01*
X32721869Y-190088640D01*
X32716414Y-190123704D01*
X32712003Y-190177216D01*
X32708526Y-190252943D01*
X32705872Y-190354650D01*
X32703933Y-190486104D01*
X32702599Y-190651069D01*
X32701759Y-190853313D01*
X32701303Y-191096602D01*
X32701123Y-191384700D01*
X32701101Y-191581982D01*
X32701101Y-193107508D01*
X32395996Y-193107508D01*
X32090891Y-193107508D01*
X32090891Y-191247798D01*
X32090891Y-189388089D01*
X32415065Y-189401282D01*
G37*
G36*
X102030687Y-164650101D02*
G01*
X102023523Y-164948849D01*
X101858258Y-164965528D01*
X101629864Y-165012154D01*
X101405032Y-165101944D01*
X101196939Y-165228128D01*
X101018761Y-165383938D01*
X100996413Y-165408337D01*
X100852335Y-165606497D01*
X100753213Y-165822519D01*
X100699736Y-166050089D01*
X100692590Y-166282891D01*
X100732464Y-166514610D01*
X100820046Y-166738930D01*
X100846187Y-166787368D01*
X100982724Y-166977784D01*
X101157867Y-167143007D01*
X101363490Y-167277893D01*
X101591469Y-167377295D01*
X101833676Y-167436068D01*
X101880310Y-167442181D01*
X102036236Y-167459822D01*
X102036236Y-167761643D01*
X102036236Y-168063464D01*
X101890040Y-168061075D01*
X101781389Y-168054210D01*
X101656780Y-168039075D01*
X101578527Y-168025704D01*
X101301031Y-167945228D01*
X101036997Y-167819880D01*
X100793379Y-167655049D01*
X100577129Y-167456126D01*
X100395201Y-167228501D01*
X100270362Y-167011544D01*
X100155816Y-166719015D01*
X100091852Y-166426148D01*
X100078259Y-166135031D01*
X100114827Y-165847754D01*
X100201343Y-165566405D01*
X100337598Y-165293074D01*
X100462602Y-165107439D01*
X100620766Y-164929816D01*
X100814038Y-164766557D01*
X101032253Y-164623003D01*
X101265249Y-164504495D01*
X101502860Y-164416375D01*
X101734924Y-164363985D01*
X101901270Y-164351352D01*
X102037850Y-164351352D01*
X102030687Y-164650101D01*
G37*
G36*
X49380180Y-62547948D02*
G01*
X49380180Y-62853053D01*
X48731832Y-62853053D01*
X48083483Y-62853053D01*
X48083483Y-62954755D01*
X48083483Y-63056457D01*
X48744544Y-63056457D01*
X49405605Y-63056457D01*
X49405605Y-63361562D01*
X49405605Y-63666667D01*
X48744544Y-63666667D01*
X48083483Y-63666667D01*
X48083483Y-63979870D01*
X48088044Y-64171119D01*
X48103523Y-64325331D01*
X48132614Y-64455653D01*
X48178010Y-64575230D01*
X48223870Y-64664858D01*
X48360885Y-64859585D01*
X48536415Y-65028379D01*
X48742606Y-65166178D01*
X48971601Y-65267916D01*
X49215543Y-65328529D01*
X49263521Y-65335047D01*
X49405605Y-65351746D01*
X49405605Y-65653351D01*
X49405605Y-65954955D01*
X49246696Y-65952934D01*
X49127514Y-65945692D01*
X48998880Y-65929438D01*
X48935235Y-65917640D01*
X48656767Y-65831531D01*
X48393360Y-65700482D01*
X48151250Y-65529630D01*
X47936672Y-65324115D01*
X47755861Y-65089075D01*
X47615075Y-64829700D01*
X47554609Y-64673402D01*
X47512679Y-64516007D01*
X47486898Y-64343798D01*
X47474881Y-64143054D01*
X47473273Y-64014642D01*
X47473273Y-63666667D01*
X47358859Y-63666667D01*
X47244444Y-63666667D01*
X47244444Y-63361562D01*
X47244444Y-63056457D01*
X47358859Y-63056457D01*
X47473273Y-63056457D01*
X47473273Y-62649650D01*
X47473273Y-62242843D01*
X48426726Y-62242843D01*
X49380180Y-62242843D01*
X49380180Y-62547948D01*
G37*
G36*
X99442843Y-62547948D02*
G01*
X99442843Y-62853053D01*
X98781782Y-62853053D01*
X98120720Y-62853053D01*
X98120720Y-62954755D01*
X98120720Y-63056457D01*
X98794494Y-63056457D01*
X99468268Y-63056457D01*
X99468268Y-63361562D01*
X99468268Y-63666667D01*
X98794494Y-63666667D01*
X98120720Y-63666667D01*
X98120720Y-63932383D01*
X98129544Y-64167775D01*
X98158630Y-64365617D01*
X98211899Y-64536513D01*
X98293271Y-64691068D01*
X98406668Y-64839885D01*
X98488835Y-64927928D01*
X98686423Y-65098502D01*
X98897863Y-65222001D01*
X99129802Y-65301690D01*
X99316178Y-65334106D01*
X99468268Y-65351313D01*
X99468268Y-65653134D01*
X99468268Y-65954955D01*
X99296646Y-65953114D01*
X99182897Y-65945445D01*
X99049267Y-65927099D01*
X98924572Y-65902037D01*
X98923906Y-65901873D01*
X98663718Y-65812918D01*
X98414212Y-65679507D01*
X98182537Y-65507910D01*
X97975841Y-65304398D01*
X97801270Y-65075243D01*
X97665972Y-64826716D01*
X97646706Y-64781306D01*
X97571698Y-64545978D01*
X97526652Y-64280548D01*
X97510576Y-63979020D01*
X97510510Y-63956823D01*
X97510510Y-63666667D01*
X97396096Y-63666667D01*
X97281681Y-63666667D01*
X97281681Y-63361562D01*
X97281681Y-63056457D01*
X97396096Y-63056457D01*
X97510510Y-63056457D01*
X97510510Y-62649650D01*
X97510510Y-62242843D01*
X98476676Y-62242843D01*
X99442843Y-62242843D01*
X99442843Y-62547948D01*
G37*
G36*
X77546002Y-164650101D02*
G01*
X77538839Y-164948849D01*
X77373573Y-164965528D01*
X77133789Y-165013197D01*
X76908974Y-165103219D01*
X76704837Y-165230409D01*
X76527085Y-165389581D01*
X76381428Y-165575551D01*
X76273571Y-165783133D01*
X76209224Y-166007142D01*
X76206038Y-166026181D01*
X76193898Y-166257403D01*
X76228648Y-166481554D01*
X76306373Y-166693786D01*
X76423159Y-166889249D01*
X76575092Y-167063094D01*
X76758260Y-167210471D01*
X76968748Y-167326531D01*
X77202642Y-167406425D01*
X77341792Y-167433475D01*
X77551551Y-167463607D01*
X77551551Y-167763536D01*
X77551551Y-168063464D01*
X77405355Y-168060473D01*
X77296691Y-168054849D01*
X77185645Y-168043933D01*
X77138728Y-168037204D01*
X76857950Y-167965023D01*
X76591991Y-167848239D01*
X76346153Y-167691808D01*
X76125734Y-167500685D01*
X75936036Y-167279826D01*
X75782358Y-167034185D01*
X75670002Y-166768719D01*
X75630233Y-166626927D01*
X75605074Y-166473016D01*
X75592521Y-166293770D01*
X75592560Y-166107769D01*
X75605177Y-165933593D01*
X75630359Y-165789821D01*
X75630859Y-165787888D01*
X75687518Y-165619346D01*
X75770465Y-165435290D01*
X75869539Y-165255662D01*
X75974577Y-165100408D01*
X75993130Y-165076841D01*
X76167538Y-164892431D01*
X76373254Y-164726972D01*
X76600511Y-164585484D01*
X76839545Y-164472990D01*
X77080588Y-164394512D01*
X77313875Y-164355072D01*
X77403873Y-164351352D01*
X77553165Y-164351352D01*
X77546002Y-164650101D01*
G37*
G36*
X70414171Y-9168657D02*
G01*
X70452607Y-9194417D01*
X70464684Y-9238051D01*
X70450510Y-9308555D01*
X70417000Y-9398540D01*
X70397970Y-9451711D01*
X70366297Y-9548497D01*
X70323577Y-9683696D01*
X70271405Y-9852106D01*
X70211377Y-10048525D01*
X70145090Y-10267752D01*
X70074139Y-10504584D01*
X70000120Y-10753820D01*
X69973099Y-10845346D01*
X69875698Y-11175540D01*
X69791462Y-11460448D01*
X69719293Y-11703596D01*
X69658092Y-11908507D01*
X69606763Y-12078705D01*
X69564207Y-12217714D01*
X69529326Y-12329060D01*
X69501023Y-12416267D01*
X69478200Y-12482858D01*
X69459759Y-12532358D01*
X69444602Y-12568291D01*
X69431631Y-12594182D01*
X69424633Y-12606056D01*
X69378441Y-12647315D01*
X69319742Y-12662917D01*
X69268050Y-12650807D01*
X69246512Y-12624813D01*
X69239679Y-12560214D01*
X69259021Y-12464925D01*
X69305679Y-12333949D01*
X69321935Y-12294595D01*
X69341318Y-12241170D01*
X69373216Y-12144045D01*
X69416052Y-12008382D01*
X69468251Y-11839342D01*
X69528237Y-11642084D01*
X69594435Y-11421771D01*
X69665269Y-11183562D01*
X69739163Y-10932619D01*
X69771563Y-10821821D01*
X69845925Y-10567684D01*
X69917455Y-10324578D01*
X69984630Y-10097580D01*
X70045929Y-9891771D01*
X70099833Y-9712229D01*
X70144818Y-9564032D01*
X70179366Y-9452260D01*
X70201953Y-9381991D01*
X70207757Y-9365406D01*
X70258641Y-9261828D01*
X70318141Y-9192720D01*
X70379850Y-9164189D01*
X70414171Y-9168657D01*
G37*
G36*
X84670670Y-62547948D02*
G01*
X84670670Y-62853053D01*
X84574311Y-62853053D01*
X84406011Y-62871755D01*
X84220736Y-62923744D01*
X84033580Y-63002844D01*
X83859639Y-63102879D01*
X83739061Y-63194782D01*
X83564375Y-63379131D01*
X83436233Y-63583393D01*
X83355097Y-63806570D01*
X83321430Y-64047661D01*
X83320433Y-64098899D01*
X83344335Y-64343492D01*
X83415908Y-64570496D01*
X83534955Y-64779484D01*
X83701280Y-64970024D01*
X83734344Y-65000642D01*
X83880177Y-65109890D01*
X84053592Y-65205230D01*
X84239172Y-65280346D01*
X84421503Y-65328922D01*
X84574311Y-65344745D01*
X84670670Y-65344745D01*
X84670670Y-65649850D01*
X84670670Y-65954955D01*
X84499049Y-65952934D01*
X84378864Y-65946257D01*
X84250735Y-65931197D01*
X84174393Y-65917591D01*
X83893968Y-65831350D01*
X83631219Y-65701188D01*
X83391259Y-65532112D01*
X83179204Y-65329127D01*
X83000168Y-65097238D01*
X82859265Y-64841452D01*
X82761610Y-64566773D01*
X82751087Y-64524584D01*
X82728641Y-64387143D01*
X82716579Y-64221243D01*
X82714875Y-64044761D01*
X82723504Y-63875573D01*
X82742440Y-63731553D01*
X82752278Y-63687356D01*
X82851005Y-63405221D01*
X82993334Y-63144052D01*
X83174920Y-62907883D01*
X83391413Y-62700753D01*
X83638468Y-62526696D01*
X83911736Y-62389749D01*
X84206870Y-62293949D01*
X84267930Y-62280126D01*
X84376996Y-62260686D01*
X84484494Y-62247198D01*
X84557918Y-62242843D01*
X84670670Y-62242843D01*
X84670670Y-62547948D01*
G37*
G36*
X96951151Y-106584785D02*
G01*
X96951151Y-106889890D01*
X96290090Y-106889890D01*
X95629029Y-106889890D01*
X95629029Y-106991592D01*
X95629029Y-107093294D01*
X96302803Y-107093294D01*
X96976576Y-107093294D01*
X96976576Y-107398399D01*
X96976576Y-107703504D01*
X96302803Y-107703504D01*
X95629029Y-107703504D01*
X95629470Y-107951402D01*
X95643802Y-108218503D01*
X95687556Y-108449499D01*
X95763406Y-108651535D01*
X95874029Y-108831753D01*
X96020536Y-108995799D01*
X96182791Y-109127674D01*
X96367658Y-109237879D01*
X96562068Y-109320580D01*
X96752950Y-109369944D01*
X96884901Y-109381582D01*
X96976576Y-109381582D01*
X96976576Y-109686687D01*
X96976576Y-109991792D01*
X96792242Y-109990392D01*
X96666622Y-109982277D01*
X96526682Y-109962610D01*
X96423052Y-109940557D01*
X96170414Y-109854261D01*
X95938218Y-109731118D01*
X95717397Y-109565757D01*
X95588724Y-109446164D01*
X95481354Y-109336102D01*
X95401626Y-109244523D01*
X95338645Y-109156731D01*
X95281519Y-109058031D01*
X95239274Y-108974775D01*
X95166833Y-108818236D01*
X95113451Y-108677936D01*
X95075786Y-108539603D01*
X95050498Y-108388967D01*
X95034248Y-108211755D01*
X95026527Y-108065816D01*
X95011047Y-107703504D01*
X94913231Y-107703504D01*
X94815415Y-107703504D01*
X94815415Y-107398399D01*
X94815415Y-107093294D01*
X94917117Y-107093294D01*
X95018819Y-107093294D01*
X95018819Y-106686487D01*
X95018819Y-106279680D01*
X95984985Y-106279680D01*
X96951151Y-106279680D01*
X96951151Y-106584785D01*
G37*
G36*
X45941391Y-106285731D02*
G01*
X46901201Y-106292393D01*
X46908364Y-106591142D01*
X46915527Y-106889890D01*
X46253659Y-106889890D01*
X45591792Y-106889890D01*
X45591792Y-106991592D01*
X45591792Y-107093294D01*
X46252853Y-107093294D01*
X46913914Y-107093294D01*
X46913914Y-107398399D01*
X46913914Y-107703504D01*
X46252853Y-107703504D01*
X45591792Y-107703504D01*
X45592093Y-108002253D01*
X45595509Y-108146428D01*
X45604605Y-108280310D01*
X45618093Y-108388142D01*
X45627258Y-108431938D01*
X45711920Y-108654003D01*
X45839208Y-108854874D01*
X46003741Y-109030127D01*
X46200138Y-109175338D01*
X46423020Y-109286085D01*
X46667006Y-109357943D01*
X46774982Y-109375526D01*
X46926626Y-109394428D01*
X46933790Y-109693110D01*
X46940953Y-109991792D01*
X46743099Y-109989674D01*
X46620433Y-109983404D01*
X46492731Y-109969076D01*
X46392692Y-109950857D01*
X46169804Y-109876283D01*
X45943167Y-109762661D01*
X45726104Y-109618843D01*
X45531937Y-109453680D01*
X45373988Y-109276024D01*
X45370983Y-109271990D01*
X45258518Y-109100870D01*
X45157404Y-108910300D01*
X45075997Y-108717955D01*
X45022655Y-108541510D01*
X45020107Y-108529830D01*
X45003461Y-108421322D01*
X44990781Y-108279363D01*
X44983380Y-108121281D01*
X44982023Y-108027678D01*
X44981581Y-107703504D01*
X44867167Y-107703504D01*
X44752752Y-107703504D01*
X44752752Y-107398399D01*
X44752752Y-107093294D01*
X44867167Y-107093294D01*
X44981581Y-107093294D01*
X44981581Y-106686181D01*
X44981581Y-106279069D01*
X45941391Y-106285731D01*
G37*
G36*
X44142542Y-62547948D02*
G01*
X44142542Y-62853053D01*
X43481481Y-62853053D01*
X42820420Y-62853053D01*
X42820420Y-62954755D01*
X42820420Y-63056457D01*
X43494194Y-63056457D01*
X44167968Y-63056457D01*
X44167968Y-63361562D01*
X44167968Y-63666667D01*
X43494194Y-63666667D01*
X42820420Y-63666667D01*
X42820420Y-63917451D01*
X42825869Y-64116387D01*
X42844072Y-64280068D01*
X42877818Y-64423106D01*
X42929892Y-64560109D01*
X42952022Y-64607408D01*
X43036358Y-64745078D01*
X43153107Y-64887994D01*
X43287965Y-65021326D01*
X43426625Y-65130247D01*
X43498656Y-65174019D01*
X43596290Y-65217810D01*
X43719492Y-65261501D01*
X43851454Y-65300288D01*
X43975369Y-65329364D01*
X44074429Y-65343924D01*
X44095759Y-65344745D01*
X44167968Y-65344745D01*
X44167968Y-65649850D01*
X44167968Y-65954955D01*
X43996346Y-65953084D01*
X43876171Y-65945153D01*
X43741298Y-65926535D01*
X43646746Y-65907224D01*
X43358915Y-65810506D01*
X43093582Y-65669703D01*
X42854603Y-65488042D01*
X42645837Y-65268750D01*
X42471141Y-65015053D01*
X42386971Y-64853466D01*
X42325959Y-64708326D01*
X42281187Y-64565038D01*
X42249917Y-64410278D01*
X42229413Y-64230723D01*
X42217571Y-64028979D01*
X42202741Y-63666667D01*
X42104774Y-63666667D01*
X42006807Y-63666667D01*
X42006807Y-63361562D01*
X42006807Y-63056457D01*
X42108508Y-63056457D01*
X42210210Y-63056457D01*
X42210210Y-62649650D01*
X42210210Y-62242843D01*
X43176376Y-62242843D01*
X44142542Y-62242843D01*
X44142542Y-62547948D01*
G37*
G36*
X94179780Y-62547948D02*
G01*
X94179780Y-62853053D01*
X93531431Y-62853053D01*
X92883083Y-62853053D01*
X92883083Y-62954755D01*
X92883083Y-63056457D01*
X93544144Y-63056457D01*
X94205205Y-63056457D01*
X94205205Y-63361562D01*
X94205205Y-63666667D01*
X93544144Y-63666667D01*
X92883083Y-63666667D01*
X92883083Y-63969094D01*
X92885886Y-64129570D01*
X92895398Y-64254595D01*
X92913273Y-64359316D01*
X92934169Y-64436920D01*
X93029438Y-64660787D01*
X93168342Y-64860947D01*
X93347897Y-65034005D01*
X93565119Y-65176563D01*
X93599770Y-65194603D01*
X93731169Y-65250834D01*
X93878840Y-65298143D01*
X94022955Y-65331113D01*
X94143687Y-65344327D01*
X94147998Y-65344369D01*
X94230630Y-65344745D01*
X94230630Y-65649850D01*
X94230630Y-65954955D01*
X94059009Y-65952934D01*
X93935453Y-65945791D01*
X93800875Y-65929580D01*
X93722122Y-65915520D01*
X93623445Y-65887436D01*
X93501060Y-65842659D01*
X93375777Y-65789073D01*
X93328028Y-65766200D01*
X93062226Y-65610415D01*
X92836578Y-65426057D01*
X92646226Y-65208204D01*
X92486307Y-64951937D01*
X92447164Y-64874375D01*
X92374475Y-64704234D01*
X92323531Y-64534791D01*
X92291612Y-64352232D01*
X92276000Y-64142741D01*
X92273314Y-63990841D01*
X92272873Y-63666667D01*
X92158458Y-63666667D01*
X92044044Y-63666667D01*
X92044044Y-63361562D01*
X92044044Y-63056457D01*
X92158458Y-63056457D01*
X92272873Y-63056457D01*
X92272873Y-62649650D01*
X92272873Y-62242843D01*
X93226326Y-62242843D01*
X94179780Y-62242843D01*
X94179780Y-62547948D01*
G37*
G36*
X27514314Y-164641024D02*
G01*
X27513597Y-164773341D01*
X27508396Y-164863075D01*
X27494136Y-164918495D01*
X27466240Y-164947870D01*
X27420134Y-164959468D01*
X27351241Y-164961558D01*
X27336935Y-164961562D01*
X27228318Y-164974211D01*
X27094606Y-165008342D01*
X26953666Y-165058233D01*
X26823364Y-165118161D01*
X26789689Y-165136850D01*
X26585995Y-165281674D01*
X26417068Y-165455457D01*
X26285738Y-165652181D01*
X26194832Y-165865829D01*
X26147180Y-166090382D01*
X26145610Y-166319824D01*
X26168289Y-166458747D01*
X26230314Y-166635135D01*
X26331463Y-166815072D01*
X26462389Y-166986735D01*
X26613745Y-167138299D01*
X26776185Y-167257940D01*
X26819576Y-167282622D01*
X26924151Y-167329330D01*
X27054172Y-167374616D01*
X27192177Y-167413601D01*
X27320707Y-167441405D01*
X27422300Y-167453150D01*
X27430199Y-167453254D01*
X27515928Y-167453254D01*
X27508765Y-167752002D01*
X27501601Y-168050751D01*
X27349049Y-168055250D01*
X27236749Y-168052081D01*
X27109464Y-168039149D01*
X27030296Y-168026073D01*
X26763734Y-167947473D01*
X26504836Y-167824196D01*
X26262226Y-167662406D01*
X26044530Y-167468269D01*
X25860370Y-167247948D01*
X25788811Y-167138702D01*
X25670387Y-166897296D01*
X25587386Y-166632619D01*
X25541981Y-166357253D01*
X25536341Y-166083778D01*
X25566679Y-165851452D01*
X25649694Y-165579872D01*
X25778576Y-165319453D01*
X25948517Y-165077116D01*
X26154711Y-164859782D01*
X26377046Y-164684639D01*
X26565703Y-164574255D01*
X26775978Y-164480772D01*
X26993059Y-164409185D01*
X27202133Y-164364484D01*
X27365829Y-164351352D01*
X27514314Y-164351352D01*
X27514314Y-164641024D01*
G37*
G36*
X103257426Y-165609910D02*
G01*
X103333026Y-165852099D01*
X103404443Y-166078969D01*
X103470214Y-166285997D01*
X103528872Y-166468665D01*
X103578953Y-166622452D01*
X103618993Y-166742837D01*
X103647527Y-166825300D01*
X103663089Y-166865322D01*
X103665241Y-166868469D01*
X103680737Y-166846211D01*
X103703154Y-166788874D01*
X103719988Y-166734985D01*
X103735359Y-166683430D01*
X103764184Y-166588896D01*
X103804746Y-166456939D01*
X103855327Y-166293115D01*
X103914209Y-166102980D01*
X103979674Y-165892090D01*
X104050006Y-165666002D01*
X104109086Y-165476427D01*
X104459999Y-164351352D01*
X104776608Y-164351352D01*
X104908290Y-164351917D01*
X104996963Y-164354376D01*
X105050466Y-164359872D01*
X105076636Y-164369549D01*
X105083310Y-164384552D01*
X105081416Y-164395846D01*
X105072042Y-164426783D01*
X105048618Y-164502345D01*
X105012360Y-164618650D01*
X104964484Y-164771817D01*
X104906206Y-164957965D01*
X104838742Y-165173213D01*
X104763307Y-165413679D01*
X104681117Y-165675484D01*
X104593389Y-165954745D01*
X104501337Y-166247582D01*
X104500023Y-166251762D01*
X103930430Y-168063184D01*
X103663259Y-168063324D01*
X103396088Y-168063464D01*
X102828286Y-166258602D01*
X102736252Y-165965942D01*
X102648491Y-165686650D01*
X102566228Y-165424636D01*
X102490686Y-165183805D01*
X102423088Y-164968065D01*
X102364657Y-164781323D01*
X102316617Y-164627486D01*
X102280192Y-164510462D01*
X102256605Y-164434157D01*
X102247096Y-164402546D01*
X102243943Y-164381292D01*
X102252920Y-164366914D01*
X102281961Y-164358072D01*
X102338998Y-164353426D01*
X102431964Y-164351633D01*
X102549940Y-164351352D01*
X102866172Y-164351352D01*
X103257426Y-165609910D01*
G37*
G36*
X93448152Y-121534765D02*
G01*
X93960071Y-121534765D01*
X93996704Y-121749364D01*
X94077713Y-121954363D01*
X94200108Y-122141427D01*
X94306570Y-122255168D01*
X94418112Y-122344422D01*
X94543347Y-122422502D01*
X94664482Y-122479194D01*
X94732783Y-122499777D01*
X94734442Y-122475789D01*
X94735940Y-122407426D01*
X94737218Y-122301161D01*
X94738216Y-122163469D01*
X94738875Y-122000826D01*
X94739137Y-121819705D01*
X94739139Y-121801902D01*
X94739139Y-121102703D01*
X94523023Y-121102703D01*
X94306907Y-121102703D01*
X94306907Y-120907025D01*
X94306907Y-120711346D01*
X94221122Y-120794493D01*
X94129260Y-120909526D01*
X94050082Y-121058154D01*
X93991725Y-121223324D01*
X93970805Y-121318905D01*
X93960071Y-121534765D01*
X93448152Y-121534765D01*
X93442443Y-121473166D01*
X93442442Y-121471372D01*
X93466652Y-121200027D01*
X93537056Y-120943679D01*
X93650318Y-120705814D01*
X93803100Y-120489919D01*
X93992066Y-120299482D01*
X94213879Y-120137990D01*
X94465203Y-120008931D01*
X94742699Y-119915792D01*
X94974324Y-119870438D01*
X95095095Y-119853741D01*
X95095095Y-120116639D01*
X95095095Y-120379536D01*
X94923473Y-120407585D01*
X94810346Y-120432378D01*
X94695458Y-120467462D01*
X94624724Y-120495845D01*
X94497597Y-120556056D01*
X94885335Y-120563075D01*
X95273073Y-120570094D01*
X95273073Y-121815277D01*
X95273073Y-123060461D01*
X95063313Y-123058440D01*
X94937177Y-123052733D01*
X94805140Y-123039663D01*
X94695029Y-123022012D01*
X94691615Y-123021280D01*
X94434594Y-122940371D01*
X94197710Y-122816513D01*
X93985305Y-122655094D01*
X93801721Y-122461503D01*
X93651301Y-122241127D01*
X93538386Y-121999354D01*
X93467319Y-121741571D01*
X93448152Y-121534765D01*
G37*
G36*
X27529103Y-191287200D02*
G01*
X28128644Y-191287200D01*
X28156354Y-191512666D01*
X28224021Y-191734324D01*
X28327986Y-191940906D01*
X28464589Y-192121142D01*
X28496968Y-192154479D01*
X28594292Y-192238573D01*
X28706162Y-192317070D01*
X28819917Y-192382710D01*
X28922899Y-192428235D01*
X29002450Y-192446387D01*
X29006120Y-192446447D01*
X29065979Y-192446447D01*
X29059266Y-191639190D01*
X29052552Y-190831932D01*
X28791942Y-190824687D01*
X28531331Y-190817441D01*
X28531331Y-190597226D01*
X28531331Y-190377012D01*
X28440717Y-190464632D01*
X28360887Y-190562371D01*
X28282474Y-190694049D01*
X28213548Y-190843196D01*
X28162179Y-190993336D01*
X28144549Y-191069195D01*
X28128644Y-191287200D01*
X27529103Y-191287200D01*
X27544202Y-191020468D01*
X27606351Y-190743377D01*
X27712897Y-190479111D01*
X27862263Y-190231838D01*
X28052871Y-190005726D01*
X28283144Y-189804942D01*
X28476577Y-189676052D01*
X28638081Y-189593535D01*
X28825777Y-189518293D01*
X29020203Y-189456912D01*
X29201898Y-189415976D01*
X29275025Y-189405908D01*
X29446646Y-189388374D01*
X29446646Y-189691258D01*
X29446646Y-189994142D01*
X29251272Y-190025227D01*
X29128719Y-190051853D01*
X29000499Y-190090865D01*
X28901673Y-190130588D01*
X28747447Y-190204863D01*
X29198748Y-190206936D01*
X29650050Y-190209009D01*
X29650050Y-191658259D01*
X29650050Y-193107508D01*
X29364014Y-193105390D01*
X29230820Y-193101301D01*
X29100054Y-193091966D01*
X28989802Y-193078932D01*
X28936012Y-193068802D01*
X28663987Y-192977206D01*
X28408673Y-192841027D01*
X28175571Y-192665283D01*
X27970185Y-192454990D01*
X27798017Y-192215165D01*
X27664570Y-191950827D01*
X27639907Y-191887018D01*
X27559403Y-191596456D01*
X27528027Y-191306217D01*
X27529103Y-191287200D01*
G37*
G36*
X34627917Y-62537759D02*
G01*
X34620720Y-62840341D01*
X34459858Y-62858083D01*
X34204800Y-62910589D01*
X33967594Y-63007513D01*
X33753847Y-63144685D01*
X33569168Y-63317941D01*
X33419164Y-63523112D01*
X33332738Y-63695555D01*
X33293942Y-63832939D01*
X33274223Y-63999296D01*
X33273660Y-64176430D01*
X33292333Y-64346146D01*
X33329279Y-64487486D01*
X33438440Y-64708575D01*
X33587973Y-64903950D01*
X33772102Y-65069257D01*
X33985051Y-65200143D01*
X34221044Y-65292253D01*
X34459858Y-65339716D01*
X34620720Y-65357458D01*
X34627884Y-65656207D01*
X34635047Y-65954955D01*
X34449906Y-65953084D01*
X34323745Y-65945141D01*
X34183085Y-65926398D01*
X34078631Y-65905498D01*
X33967079Y-65871793D01*
X33834936Y-65822571D01*
X33706103Y-65766938D01*
X33672538Y-65750789D01*
X33561145Y-65691369D01*
X33464698Y-65628460D01*
X33368879Y-65551286D01*
X33259367Y-65449075D01*
X33220415Y-65410638D01*
X33053075Y-65229601D01*
X32923125Y-65053236D01*
X32821075Y-64866522D01*
X32737431Y-64654436D01*
X32731630Y-64637070D01*
X32703595Y-64545195D01*
X32684894Y-64461317D01*
X32673702Y-64370707D01*
X32668197Y-64258638D01*
X32666556Y-64111612D01*
X32667488Y-63966104D01*
X32672181Y-63856635D01*
X32682495Y-63768431D01*
X32700287Y-63686716D01*
X32727415Y-63596714D01*
X32733705Y-63577678D01*
X32780444Y-63453945D01*
X32838615Y-63322730D01*
X32895866Y-63211834D01*
X32897497Y-63209013D01*
X32992400Y-63070839D01*
X33119125Y-62921941D01*
X33264547Y-62775382D01*
X33415545Y-62644223D01*
X33558993Y-62541528D01*
X33582077Y-62527611D01*
X33783216Y-62426439D01*
X34004756Y-62342448D01*
X34227726Y-62281824D01*
X34430570Y-62250950D01*
X34635113Y-62235177D01*
X34627917Y-62537759D01*
G37*
G36*
X51998999Y-164637440D02*
G01*
X51998232Y-164770622D01*
X51993145Y-164861176D01*
X51979562Y-164917323D01*
X51953306Y-164947288D01*
X51910198Y-164959290D01*
X51846063Y-164961554D01*
X51834332Y-164961562D01*
X51733969Y-164973712D01*
X51606763Y-165006423D01*
X51469473Y-165054089D01*
X51338857Y-165111103D01*
X51260283Y-165153626D01*
X51067262Y-165295825D01*
X50905243Y-165467336D01*
X50777781Y-165661019D01*
X50688431Y-165869738D01*
X50640747Y-166086352D01*
X50638284Y-166303724D01*
X50649163Y-166380848D01*
X50717900Y-166618623D01*
X50830337Y-166835374D01*
X50982116Y-167026687D01*
X51168875Y-167188149D01*
X51386256Y-167315348D01*
X51629897Y-167403871D01*
X51669813Y-167413866D01*
X51769452Y-167434421D01*
X51861793Y-167448580D01*
X51916366Y-167452878D01*
X51998999Y-167453254D01*
X51998999Y-167758359D01*
X51998999Y-168063464D01*
X51852803Y-168060514D01*
X51762806Y-168057169D01*
X51687474Y-168051716D01*
X51655755Y-168047552D01*
X51602616Y-168037148D01*
X51521404Y-168021310D01*
X51465065Y-168010345D01*
X51338450Y-167974289D01*
X51187735Y-167913756D01*
X51028271Y-167836358D01*
X50875408Y-167749703D01*
X50744498Y-167661400D01*
X50715631Y-167638851D01*
X50516841Y-167448031D01*
X50341863Y-167221487D01*
X50198794Y-166971859D01*
X50095733Y-166711786D01*
X50075360Y-166639640D01*
X50050598Y-166502498D01*
X50036325Y-166336616D01*
X50032785Y-166160527D01*
X50040225Y-165992768D01*
X50058889Y-165851873D01*
X50064598Y-165826026D01*
X50156950Y-165548517D01*
X50291878Y-165289222D01*
X50464167Y-165052587D01*
X50668599Y-164843056D01*
X50899957Y-164665073D01*
X51153024Y-164523083D01*
X51422584Y-164421532D01*
X51703420Y-164364864D01*
X51788440Y-164357320D01*
X51998999Y-164344184D01*
X51998999Y-164637440D01*
G37*
G36*
X80587389Y-164408559D02*
G01*
X80576870Y-164441637D01*
X80552321Y-164519280D01*
X80514984Y-164637549D01*
X80466102Y-164792504D01*
X80406914Y-164980206D01*
X80338665Y-165196717D01*
X80262595Y-165438097D01*
X80179946Y-165700408D01*
X80091961Y-165979711D01*
X80004229Y-166258259D01*
X79439710Y-168050751D01*
X79170481Y-168057957D01*
X78901252Y-168065162D01*
X78836481Y-167854553D01*
X78817731Y-167794182D01*
X78785151Y-167689965D01*
X78740203Y-167546556D01*
X78684349Y-167368606D01*
X78619051Y-167160769D01*
X78545770Y-166927696D01*
X78465969Y-166674040D01*
X78381110Y-166404453D01*
X78292654Y-166123587D01*
X78254979Y-166004004D01*
X77738248Y-164364064D01*
X78043262Y-164356891D01*
X78163213Y-164355675D01*
X78264235Y-164357670D01*
X78335695Y-164362456D01*
X78366946Y-164369604D01*
X78377892Y-164397071D01*
X78402338Y-164468502D01*
X78438803Y-164579268D01*
X78485803Y-164724742D01*
X78541855Y-164900294D01*
X78605476Y-165101296D01*
X78675182Y-165323119D01*
X78749491Y-165561134D01*
X78774344Y-165641070D01*
X78849451Y-165882204D01*
X78920111Y-166107729D01*
X78984887Y-166313157D01*
X79042345Y-166493997D01*
X79091049Y-166645760D01*
X79129562Y-166763955D01*
X79156450Y-166844093D01*
X79170276Y-166881684D01*
X79171757Y-166883965D01*
X79181017Y-166858550D01*
X79203592Y-166789969D01*
X79237764Y-166683634D01*
X79281814Y-166544958D01*
X79334024Y-166379353D01*
X79392675Y-166192230D01*
X79456048Y-165989002D01*
X79460208Y-165975628D01*
X79529710Y-165752286D01*
X79599616Y-165527940D01*
X79667232Y-165311212D01*
X79729865Y-165110725D01*
X79784821Y-164935102D01*
X79829408Y-164792966D01*
X79854380Y-164713664D01*
X79968787Y-164351352D01*
X80287408Y-164351352D01*
X80606029Y-164351352D01*
X80587389Y-164408559D01*
G37*
G36*
X47022415Y-62243404D02*
G01*
X47121664Y-62244937D01*
X47190326Y-62247212D01*
X47218759Y-62250005D01*
X47219019Y-62250308D01*
X47211575Y-62275151D01*
X47190026Y-62344750D01*
X47155545Y-62455360D01*
X47109308Y-62603235D01*
X47052487Y-62784631D01*
X46986258Y-62995802D01*
X46911793Y-63233003D01*
X46830267Y-63492489D01*
X46742854Y-63770515D01*
X46650727Y-64063335D01*
X46639185Y-64100007D01*
X46059352Y-65942243D01*
X45788438Y-65949449D01*
X45517524Y-65956655D01*
X45440105Y-65707907D01*
X45418957Y-65640231D01*
X45384067Y-65528916D01*
X45336964Y-65378828D01*
X45279177Y-65194831D01*
X45212234Y-64981792D01*
X45137665Y-64744575D01*
X45056998Y-64488046D01*
X44971763Y-64217069D01*
X44883488Y-63936511D01*
X44858578Y-63857358D01*
X44354470Y-62255556D01*
X44659581Y-62248383D01*
X44779524Y-62247167D01*
X44880512Y-62249159D01*
X44951924Y-62253943D01*
X44983132Y-62261095D01*
X44994027Y-62288561D01*
X45018422Y-62359995D01*
X45054835Y-62470771D01*
X45101785Y-62616264D01*
X45157793Y-62791846D01*
X45221376Y-62992892D01*
X45291055Y-63214777D01*
X45365348Y-63452873D01*
X45390559Y-63534000D01*
X45465720Y-63774434D01*
X45536771Y-63998487D01*
X45602251Y-64201779D01*
X45660702Y-64379932D01*
X45710663Y-64528566D01*
X45750677Y-64643302D01*
X45779283Y-64719762D01*
X45795022Y-64753566D01*
X45797274Y-64754420D01*
X45808290Y-64723900D01*
X45833171Y-64648363D01*
X45870795Y-64531381D01*
X45920040Y-64376530D01*
X45979783Y-64187382D01*
X46048901Y-63967513D01*
X46126271Y-63720495D01*
X46210772Y-63449904D01*
X46301280Y-63159312D01*
X46396673Y-62852294D01*
X46495828Y-62532424D01*
X46536269Y-62401752D01*
X46585426Y-62242843D01*
X46902223Y-62242843D01*
X47022415Y-62243404D01*
G37*
G36*
X26028745Y-189401833D02*
G01*
X26053288Y-189438545D01*
X26063263Y-189509719D01*
X26065141Y-189621869D01*
X26065065Y-189697174D01*
X26065065Y-189998953D01*
X25977375Y-190013183D01*
X25829700Y-190055385D01*
X25716958Y-190125460D01*
X25642816Y-190218406D01*
X25610944Y-190329223D01*
X25625009Y-190452912D01*
X25634377Y-190480678D01*
X25660671Y-190520452D01*
X25717693Y-190588288D01*
X25799185Y-190677351D01*
X25898887Y-190780806D01*
X26010540Y-190891820D01*
X26014317Y-190895496D01*
X26144573Y-191023628D01*
X26243289Y-191124882D01*
X26316604Y-191206524D01*
X26370662Y-191275823D01*
X26411604Y-191340044D01*
X26444867Y-191404945D01*
X26527544Y-191628351D01*
X26561511Y-191844110D01*
X26546685Y-192058276D01*
X26482986Y-192276903D01*
X26431577Y-192392226D01*
X26310909Y-192584921D01*
X26154092Y-192755709D01*
X25969806Y-192898942D01*
X25766731Y-193008974D01*
X25553547Y-193080154D01*
X25338934Y-193106836D01*
X25333277Y-193106886D01*
X25224412Y-193107508D01*
X25231575Y-192809033D01*
X25238738Y-192510558D01*
X25359980Y-192493255D01*
X25526822Y-192448735D01*
X25676585Y-192369327D01*
X25802068Y-192262204D01*
X25896066Y-192134535D01*
X25951379Y-191993494D01*
X25963221Y-191892627D01*
X25954521Y-191825590D01*
X25925484Y-191752382D01*
X25872193Y-191667368D01*
X25790729Y-191564913D01*
X25677172Y-191439380D01*
X25572435Y-191330620D01*
X25460287Y-191212967D01*
X25352651Y-191094208D01*
X25258245Y-190984384D01*
X25185786Y-190893534D01*
X25154516Y-190849303D01*
X25057794Y-190657722D01*
X25008963Y-190462934D01*
X25005729Y-190269946D01*
X25045801Y-190083763D01*
X25126886Y-189909390D01*
X25246690Y-189751835D01*
X25402922Y-189616103D01*
X25593288Y-189507200D01*
X25803013Y-189433322D01*
X25910078Y-189405736D01*
X25983165Y-189393068D01*
X26028745Y-189401833D01*
G37*
G36*
X107932044Y-164466465D02*
G01*
X108159896Y-164519405D01*
X108372044Y-164615374D01*
X108563582Y-164750633D01*
X108729602Y-164921442D01*
X108865201Y-165124062D01*
X108965470Y-165354753D01*
X108993972Y-165451645D01*
X109022378Y-165650105D01*
X109014039Y-165863464D01*
X108971714Y-166075983D01*
X108898161Y-166271926D01*
X108829215Y-166391312D01*
X108792082Y-166441912D01*
X108728560Y-166525001D01*
X108644184Y-166633488D01*
X108544488Y-166760282D01*
X108435009Y-166898291D01*
X108367446Y-166982883D01*
X107980599Y-167465966D01*
X108453562Y-167472884D01*
X108926526Y-167479801D01*
X108926526Y-167771632D01*
X108926526Y-168063464D01*
X107844100Y-168063464D01*
X106761674Y-168063464D01*
X106808014Y-168004793D01*
X106832883Y-167973398D01*
X106886032Y-167906368D01*
X106964132Y-167807900D01*
X107063852Y-167682191D01*
X107181864Y-167533439D01*
X107314837Y-167365840D01*
X107459442Y-167183593D01*
X107604404Y-167000905D01*
X107789962Y-166766527D01*
X107946032Y-166567786D01*
X108075148Y-166400818D01*
X108179844Y-166261758D01*
X108262652Y-166146740D01*
X108326107Y-166051900D01*
X108372741Y-165973373D01*
X108405089Y-165907293D01*
X108425683Y-165849797D01*
X108437057Y-165797017D01*
X108441746Y-165745091D01*
X108442330Y-165722583D01*
X108426897Y-165588309D01*
X108383093Y-165447668D01*
X108319189Y-165324762D01*
X108294305Y-165291238D01*
X108163215Y-165170560D01*
X108008076Y-165090777D01*
X107837301Y-165053641D01*
X107659299Y-165060905D01*
X107482483Y-165114319D01*
X107470663Y-165119694D01*
X107324208Y-165187814D01*
X107288891Y-165131895D01*
X107259463Y-165084756D01*
X107212145Y-165008390D01*
X107155667Y-164916896D01*
X107137323Y-164887110D01*
X107021071Y-164698243D01*
X107102978Y-164648411D01*
X107249527Y-164575492D01*
X107422398Y-164514335D01*
X107597218Y-164472705D01*
X107693393Y-164460294D01*
X107932044Y-164466465D01*
G37*
G36*
X87524903Y-62244275D02*
G01*
X87623798Y-62248185D01*
X87691998Y-62253992D01*
X87719925Y-62261119D01*
X87720132Y-62261912D01*
X87712408Y-62288645D01*
X87690547Y-62360077D01*
X87655735Y-62472423D01*
X87609157Y-62621893D01*
X87551999Y-62804702D01*
X87485448Y-63017063D01*
X87410688Y-63255186D01*
X87328905Y-63515287D01*
X87241286Y-63793576D01*
X87149015Y-64086268D01*
X87141020Y-64111612D01*
X86563499Y-65942243D01*
X86291935Y-65949448D01*
X86020371Y-65956654D01*
X85955744Y-65746045D01*
X85937021Y-65685672D01*
X85904471Y-65581454D01*
X85859554Y-65438042D01*
X85803733Y-65260089D01*
X85738468Y-65052248D01*
X85665221Y-64819172D01*
X85585453Y-64565511D01*
X85500624Y-64295920D01*
X85412197Y-64015050D01*
X85374543Y-63895496D01*
X84857967Y-62255556D01*
X85162681Y-62248383D01*
X85282577Y-62247167D01*
X85383546Y-62249165D01*
X85454947Y-62253957D01*
X85486110Y-62261095D01*
X85497065Y-62288560D01*
X85521527Y-62359990D01*
X85558011Y-62470757D01*
X85605035Y-62616234D01*
X85661115Y-62791795D01*
X85724768Y-62992812D01*
X85794511Y-63214659D01*
X85868860Y-63452708D01*
X85893927Y-63533303D01*
X85969127Y-63773684D01*
X86040201Y-63997705D01*
X86105691Y-64200984D01*
X86164136Y-64379138D01*
X86214076Y-64527784D01*
X86254051Y-64642539D01*
X86282602Y-64719021D01*
X86298267Y-64752847D01*
X86300479Y-64753723D01*
X86310532Y-64725281D01*
X86333914Y-64653948D01*
X86368846Y-64545386D01*
X86413547Y-64405258D01*
X86466237Y-64239228D01*
X86525135Y-64052957D01*
X86588462Y-63852110D01*
X86654437Y-63642348D01*
X86721280Y-63429334D01*
X86787210Y-63218732D01*
X86850449Y-63016203D01*
X86909214Y-62827412D01*
X86961727Y-62658020D01*
X87006206Y-62513691D01*
X87040872Y-62400087D01*
X87051863Y-62363614D01*
X87088056Y-62242843D01*
X87404889Y-62242843D01*
X87524903Y-62244275D01*
G37*
G36*
X35479295Y-62363614D02*
G01*
X35513897Y-62478251D01*
X35558299Y-62623470D01*
X35610754Y-62793710D01*
X35669515Y-62983407D01*
X35732836Y-63187000D01*
X35798971Y-63398926D01*
X35866172Y-63613624D01*
X35932693Y-63825530D01*
X35996787Y-64029083D01*
X36056707Y-64218721D01*
X36110707Y-64388881D01*
X36157041Y-64534000D01*
X36193961Y-64648518D01*
X36219720Y-64726871D01*
X36232573Y-64763497D01*
X36233521Y-64765436D01*
X36243712Y-64745430D01*
X36267356Y-64681221D01*
X36303009Y-64577227D01*
X36349230Y-64437865D01*
X36404575Y-64267553D01*
X36467601Y-64070708D01*
X36536865Y-63851747D01*
X36610924Y-63615088D01*
X36642432Y-63513668D01*
X37036136Y-62243712D01*
X37358563Y-62243277D01*
X37680990Y-62242843D01*
X37620254Y-62427178D01*
X37605081Y-62474339D01*
X37576361Y-62564691D01*
X37535656Y-62693266D01*
X37484528Y-62855098D01*
X37424540Y-63045219D01*
X37357252Y-63258664D01*
X37284229Y-63490464D01*
X37207031Y-63735654D01*
X37127220Y-63989267D01*
X37046360Y-64246335D01*
X36966012Y-64501892D01*
X36887738Y-64750971D01*
X36813100Y-64988606D01*
X36743661Y-65209829D01*
X36680983Y-65409673D01*
X36626627Y-65583173D01*
X36582156Y-65725360D01*
X36549132Y-65831269D01*
X36529117Y-65895932D01*
X36524708Y-65910461D01*
X36512926Y-65930421D01*
X36485697Y-65943385D01*
X36433870Y-65950766D01*
X36348291Y-65953980D01*
X36239878Y-65954488D01*
X35968268Y-65954021D01*
X35396196Y-64133817D01*
X35304008Y-63840377D01*
X35216206Y-63560661D01*
X35133991Y-63298516D01*
X35058567Y-63057787D01*
X34991137Y-62842321D01*
X34932902Y-62655963D01*
X34885066Y-62502559D01*
X34848831Y-62385955D01*
X34825401Y-62309997D01*
X34815977Y-62278530D01*
X34815903Y-62278228D01*
X34821126Y-62263163D01*
X34849760Y-62252903D01*
X34908894Y-62246639D01*
X35005616Y-62243561D01*
X35125452Y-62242843D01*
X35443222Y-62242843D01*
X35479295Y-62363614D01*
G37*
G36*
X44269669Y-106581510D02*
G01*
X44269200Y-106711060D01*
X44266854Y-106798154D01*
X44261227Y-106851184D01*
X44250910Y-106878543D01*
X44234500Y-106888621D01*
X44218002Y-106889890D01*
X44134421Y-106906039D01*
X44035847Y-106947824D01*
X43943573Y-107005252D01*
X43907674Y-107035532D01*
X43841431Y-107120679D01*
X43816080Y-107212596D01*
X43832669Y-107314092D01*
X43892249Y-107427976D01*
X43995868Y-107557058D01*
X44144574Y-107704147D01*
X44163922Y-107721720D01*
X44319721Y-107866230D01*
X44440887Y-107988759D01*
X44534034Y-108097062D01*
X44605778Y-108198896D01*
X44662733Y-108302017D01*
X44667750Y-108312448D01*
X44744346Y-108529909D01*
X44772316Y-108752667D01*
X44752741Y-108975293D01*
X44686705Y-109192356D01*
X44575287Y-109398426D01*
X44419568Y-109588074D01*
X44412267Y-109595407D01*
X44241279Y-109739883D01*
X44050162Y-109856548D01*
X43850400Y-109940103D01*
X43653477Y-109985249D01*
X43553143Y-109991792D01*
X43430630Y-109991792D01*
X43430630Y-109702120D01*
X43431515Y-109569924D01*
X43436725Y-109480272D01*
X43450095Y-109424861D01*
X43475460Y-109395387D01*
X43516653Y-109383546D01*
X43577511Y-109381035D01*
X43578906Y-109381024D01*
X43662839Y-109365270D01*
X43768136Y-109324244D01*
X43877439Y-109265635D01*
X43947912Y-109217598D01*
X44034881Y-109128684D01*
X44107086Y-109013473D01*
X44154537Y-108890982D01*
X44167968Y-108798700D01*
X44161736Y-108724773D01*
X44140242Y-108651771D01*
X44099285Y-108573492D01*
X44034665Y-108483736D01*
X43942181Y-108376299D01*
X43817634Y-108244981D01*
X43739207Y-108165603D01*
X43570191Y-107988907D01*
X43439088Y-107834144D01*
X43341710Y-107694725D01*
X43273873Y-107564061D01*
X43231388Y-107435565D01*
X43213933Y-107338986D01*
X43214273Y-107146076D01*
X43260607Y-106959548D01*
X43348084Y-106784891D01*
X43471853Y-106627595D01*
X43627065Y-106493152D01*
X43808870Y-106387050D01*
X44012417Y-106314779D01*
X44140394Y-106290278D01*
X44269669Y-106273129D01*
X44269669Y-106581510D01*
G37*
G36*
X85441332Y-9179213D02*
G01*
X85650315Y-9208411D01*
X85850503Y-9254099D01*
X86033456Y-9313973D01*
X86190734Y-9385726D01*
X86313898Y-9467053D01*
X86391795Y-9551353D01*
X86411844Y-9595181D01*
X86399832Y-9634642D01*
X86376392Y-9665768D01*
X86350725Y-9694838D01*
X86326435Y-9708466D01*
X86294333Y-9703735D01*
X86245228Y-9677731D01*
X86169928Y-9627538D01*
X86098278Y-9577546D01*
X85955635Y-9498212D01*
X85778391Y-9430865D01*
X85582102Y-9379127D01*
X85382325Y-9346618D01*
X85194615Y-9336959D01*
X85093677Y-9343710D01*
X84950350Y-9361617D01*
X84950350Y-10907773D01*
X84950350Y-12453929D01*
X85007557Y-12469260D01*
X85087392Y-12480671D01*
X85201852Y-12484539D01*
X85335361Y-12481410D01*
X85472340Y-12471830D01*
X85597213Y-12456343D01*
X85649106Y-12446797D01*
X85872693Y-12380545D01*
X86061891Y-12282238D01*
X86204048Y-12168194D01*
X86273844Y-12108452D01*
X86336695Y-12066830D01*
X86375165Y-12053053D01*
X86427535Y-12074701D01*
X86459592Y-12127694D01*
X86463611Y-12194112D01*
X86451245Y-12229547D01*
X86408418Y-12278643D01*
X86331173Y-12340138D01*
X86231716Y-12406137D01*
X86122255Y-12468743D01*
X86014995Y-12520061D01*
X85981440Y-12533444D01*
X85748472Y-12601327D01*
X85488227Y-12644437D01*
X85218533Y-12661480D01*
X84957219Y-12651161D01*
X84763899Y-12621847D01*
X84470922Y-12535326D01*
X84208056Y-12408771D01*
X83977237Y-12243873D01*
X83780401Y-12042322D01*
X83619486Y-11805809D01*
X83496426Y-11536024D01*
X83485892Y-11506163D01*
X83443240Y-11342529D01*
X83414314Y-11149490D01*
X83399937Y-10943915D01*
X83400931Y-10742674D01*
X83418119Y-10562637D01*
X83435601Y-10475488D01*
X83531015Y-10198010D01*
X83667357Y-9949074D01*
X83842190Y-9730658D01*
X84053083Y-9544738D01*
X84297601Y-9393292D01*
X84573310Y-9278298D01*
X84877776Y-9201733D01*
X85030742Y-9179514D01*
X85231995Y-9168812D01*
X85441332Y-9179213D01*
G37*
G36*
X40055551Y-121371117D02*
G01*
X40577635Y-121371117D01*
X40580758Y-121589112D01*
X40630434Y-121807015D01*
X40670701Y-121907971D01*
X40789572Y-122109729D01*
X40944963Y-122276241D01*
X41135978Y-122406697D01*
X41305396Y-122481579D01*
X41452068Y-122515005D01*
X41624319Y-122524948D01*
X41803150Y-122512391D01*
X41969562Y-122478316D01*
X42068594Y-122442135D01*
X42276819Y-122320195D01*
X42447815Y-122164409D01*
X42579802Y-121976778D01*
X42668503Y-121767442D01*
X42712561Y-121549018D01*
X42710516Y-121338164D01*
X42666982Y-121138798D01*
X42586577Y-120954838D01*
X42473916Y-120790204D01*
X42333614Y-120648814D01*
X42170288Y-120534587D01*
X41988554Y-120451440D01*
X41793026Y-120403294D01*
X41588323Y-120394065D01*
X41379058Y-120427674D01*
X41179383Y-120503270D01*
X40984427Y-120625936D01*
X40824461Y-120780440D01*
X40701799Y-120960395D01*
X40618753Y-121159416D01*
X40577635Y-121371117D01*
X40055551Y-121371117D01*
X40055300Y-121362431D01*
X40098301Y-121096839D01*
X40192003Y-120831775D01*
X40227828Y-120756541D01*
X40376072Y-120515460D01*
X40558940Y-120308232D01*
X40771581Y-120137912D01*
X41009145Y-120007557D01*
X41266780Y-119920223D01*
X41539637Y-119878967D01*
X41625425Y-119876018D01*
X41897138Y-119893493D01*
X42144374Y-119951788D01*
X42373431Y-120053550D01*
X42590605Y-120201426D01*
X42757341Y-120352027D01*
X42943660Y-120567262D01*
X43081492Y-120793369D01*
X43172829Y-121035072D01*
X43219661Y-121297095D01*
X43227227Y-121466687D01*
X43208161Y-121729996D01*
X43149452Y-121968948D01*
X43075601Y-122143112D01*
X42924729Y-122390292D01*
X42742180Y-122602131D01*
X42532573Y-122776319D01*
X42300529Y-122910545D01*
X42050668Y-123002499D01*
X41787613Y-123049870D01*
X41515982Y-123050347D01*
X41320320Y-123020923D01*
X41068685Y-122941873D01*
X40829815Y-122818625D01*
X40611853Y-122657531D01*
X40422942Y-122464948D01*
X40271226Y-122247228D01*
X40230525Y-122170571D01*
X40121411Y-121898478D01*
X40063003Y-121629371D01*
X40055551Y-121371117D01*
G37*
G36*
X28383407Y-164548399D02*
G01*
X28404137Y-164614880D01*
X28437998Y-164723718D01*
X28483061Y-164868702D01*
X28537396Y-165043619D01*
X28599074Y-165242257D01*
X28666166Y-165458405D01*
X28736741Y-165685849D01*
X28774220Y-165806661D01*
X28843361Y-166028521D01*
X28908226Y-166234665D01*
X28967219Y-166420167D01*
X29018744Y-166580102D01*
X29061206Y-166709542D01*
X29093009Y-166803562D01*
X29112559Y-166857235D01*
X29118030Y-166868173D01*
X29128168Y-166844689D01*
X29151839Y-166777131D01*
X29187583Y-166670019D01*
X29233943Y-166527869D01*
X29289461Y-166355200D01*
X29352677Y-166156529D01*
X29422134Y-165936374D01*
X29496372Y-165699254D01*
X29524205Y-165609910D01*
X29915753Y-164351352D01*
X30227846Y-164351352D01*
X30347129Y-164352807D01*
X30445452Y-164356776D01*
X30513083Y-164362664D01*
X30540285Y-164369880D01*
X30540424Y-164370421D01*
X30533055Y-164397155D01*
X30511576Y-164468605D01*
X30477161Y-164580991D01*
X30430986Y-164730530D01*
X30374229Y-164913440D01*
X30308063Y-165125939D01*
X30233666Y-165364246D01*
X30152213Y-165624578D01*
X30064881Y-165903154D01*
X29972844Y-166196193D01*
X29963323Y-166226477D01*
X29385738Y-168063464D01*
X29125300Y-168063464D01*
X29015596Y-168061715D01*
X28926273Y-168056997D01*
X28868613Y-168050099D01*
X28853130Y-168044395D01*
X28843873Y-168017844D01*
X28820861Y-167947420D01*
X28785540Y-167837702D01*
X28739355Y-167693273D01*
X28683752Y-167518712D01*
X28620175Y-167318600D01*
X28550071Y-167097520D01*
X28474883Y-166860051D01*
X28396058Y-166610774D01*
X28315040Y-166354271D01*
X28233276Y-166095123D01*
X28152209Y-165837910D01*
X28073286Y-165587213D01*
X27997951Y-165347613D01*
X27927650Y-165123692D01*
X27863828Y-164920030D01*
X27807929Y-164741208D01*
X27761401Y-164591807D01*
X27725687Y-164476408D01*
X27702233Y-164399592D01*
X27692484Y-164365940D01*
X27692292Y-164364873D01*
X27716104Y-164359728D01*
X27781090Y-164355483D01*
X27877577Y-164352556D01*
X27995889Y-164351360D01*
X28007035Y-164351352D01*
X28321778Y-164351352D01*
X28383407Y-164548399D01*
G37*
G36*
X54957142Y-164356518D02*
G01*
X55012422Y-164362115D01*
X55036211Y-164372287D01*
X55037578Y-164382378D01*
X55028064Y-164411955D01*
X55004697Y-164485679D01*
X54968854Y-164599182D01*
X54921909Y-164748093D01*
X54865240Y-164928044D01*
X54800222Y-165134666D01*
X54728232Y-165363588D01*
X54650645Y-165610442D01*
X54578925Y-165838739D01*
X54493130Y-166111846D01*
X54408225Y-166382024D01*
X54326090Y-166643290D01*
X54248609Y-166889660D01*
X54177664Y-167115151D01*
X54115137Y-167313779D01*
X54062911Y-167479561D01*
X54022868Y-167606513D01*
X54005012Y-167663013D01*
X53878297Y-168063464D01*
X53614518Y-168063464D01*
X53350740Y-168063464D01*
X53273680Y-167828279D01*
X53252588Y-167762856D01*
X53217830Y-167653752D01*
X53170934Y-167505809D01*
X53113429Y-167323875D01*
X53046843Y-167112793D01*
X52972703Y-166877410D01*
X52892538Y-166622570D01*
X52807877Y-166353119D01*
X52720246Y-166073902D01*
X52698325Y-166004004D01*
X52612435Y-165730136D01*
X52530899Y-165470225D01*
X52455012Y-165228396D01*
X52386069Y-165008772D01*
X52325365Y-164815477D01*
X52274196Y-164652635D01*
X52233857Y-164524370D01*
X52205642Y-164434805D01*
X52190848Y-164388064D01*
X52189011Y-164382378D01*
X52194859Y-164368668D01*
X52227780Y-164359928D01*
X52294211Y-164355630D01*
X52400588Y-164355246D01*
X52499058Y-164356952D01*
X52820124Y-164364064D01*
X53205080Y-165597198D01*
X53280336Y-165838147D01*
X53351227Y-166064902D01*
X53416270Y-166272726D01*
X53473979Y-166456885D01*
X53522869Y-166612645D01*
X53561455Y-166735272D01*
X53588252Y-166820031D01*
X53601775Y-166862187D01*
X53602922Y-166865553D01*
X53612602Y-166848686D01*
X53635805Y-166787429D01*
X53671169Y-166686014D01*
X53717335Y-166548674D01*
X53772941Y-166379642D01*
X53836628Y-166183152D01*
X53907036Y-165963436D01*
X53982803Y-165724727D01*
X54062569Y-165471259D01*
X54144974Y-165207265D01*
X54228657Y-164936978D01*
X54312259Y-164664631D01*
X54349638Y-164542042D01*
X54403789Y-164364064D01*
X54726411Y-164356952D01*
X54863946Y-164354972D01*
X54957142Y-164356518D01*
G37*
G36*
X44218819Y-11647775D02*
G01*
X45443876Y-11647775D01*
X45444309Y-11860803D01*
X45445172Y-12045310D01*
X45446443Y-12196705D01*
X45448101Y-12310398D01*
X45450127Y-12381797D01*
X45452157Y-12405897D01*
X45483310Y-12421845D01*
X45553529Y-12428079D01*
X45652113Y-12425314D01*
X45768359Y-12414266D01*
X45891564Y-12395649D01*
X46011024Y-12370179D01*
X46019722Y-12367965D01*
X46246383Y-12290141D01*
X46463502Y-12179143D01*
X46658914Y-12042676D01*
X46820452Y-11888445D01*
X46866909Y-11831464D01*
X47010541Y-11606782D01*
X47108247Y-11370844D01*
X47162500Y-11116075D01*
X47176301Y-10883484D01*
X47154960Y-10595317D01*
X47090684Y-10333986D01*
X46983094Y-10098494D01*
X46831810Y-9887838D01*
X46774421Y-9825829D01*
X46596445Y-9674546D01*
X46391620Y-9558028D01*
X46156012Y-9474795D01*
X45885687Y-9423367D01*
X45655355Y-9404674D01*
X45451952Y-9396096D01*
X45445354Y-10883484D01*
X45444377Y-11154525D01*
X45443892Y-11410819D01*
X45443876Y-11647775D01*
X44218819Y-11647775D01*
X44218819Y-10911284D01*
X44218819Y-9205406D01*
X44860811Y-9205427D01*
X45180201Y-9207617D01*
X45453739Y-9214407D01*
X45686245Y-9226162D01*
X45882540Y-9243247D01*
X46047446Y-9266025D01*
X46185783Y-9294863D01*
X46240140Y-9309762D01*
X46515272Y-9415256D01*
X46755564Y-9557435D01*
X46959977Y-9735241D01*
X47127471Y-9947617D01*
X47257008Y-10193503D01*
X47335902Y-10425826D01*
X47363635Y-10576187D01*
X47378115Y-10756551D01*
X47379352Y-10948078D01*
X47367352Y-11131928D01*
X47342123Y-11289259D01*
X47335535Y-11315716D01*
X47236305Y-11592370D01*
X47095716Y-11840421D01*
X46915593Y-12058121D01*
X46697759Y-12243718D01*
X46444039Y-12395461D01*
X46156259Y-12511600D01*
X46059064Y-12540471D01*
X45998804Y-12555892D01*
X45938397Y-12568322D01*
X45871253Y-12578187D01*
X45790779Y-12585910D01*
X45690384Y-12591916D01*
X45563477Y-12596630D01*
X45403466Y-12600477D01*
X45203759Y-12603881D01*
X45038789Y-12606202D01*
X44218819Y-12617161D01*
X44218819Y-11647775D01*
G37*
G36*
X95065148Y-62325476D02*
G01*
X95084986Y-62393209D01*
X95116770Y-62498456D01*
X95158735Y-62635594D01*
X95209120Y-62798999D01*
X95266160Y-62983049D01*
X95328094Y-63182121D01*
X95393157Y-63390592D01*
X95459587Y-63602839D01*
X95525621Y-63813240D01*
X95589496Y-64016171D01*
X95649449Y-64206011D01*
X95703716Y-64377135D01*
X95750535Y-64523921D01*
X95788143Y-64640746D01*
X95814776Y-64721988D01*
X95828672Y-64762023D01*
X95830118Y-64765189D01*
X95840334Y-64745136D01*
X95864012Y-64680885D01*
X95899707Y-64576853D01*
X95945974Y-64437460D01*
X96001370Y-64267123D01*
X96064449Y-64070260D01*
X96133767Y-63851291D01*
X96207880Y-63614634D01*
X96239382Y-63513306D01*
X96633333Y-62243482D01*
X96959008Y-62243163D01*
X97079724Y-62244429D01*
X97178391Y-62248119D01*
X97245937Y-62253692D01*
X97273293Y-62260607D01*
X97273273Y-62261912D01*
X97264614Y-62287533D01*
X97242154Y-62357076D01*
X97207339Y-62465950D01*
X97161619Y-62609567D01*
X97106442Y-62783338D01*
X97043256Y-62982673D01*
X96973509Y-63202984D01*
X96898649Y-63439681D01*
X96820126Y-63688175D01*
X96739386Y-63943877D01*
X96657878Y-64202198D01*
X96577051Y-64458549D01*
X96498353Y-64708341D01*
X96423231Y-64946985D01*
X96353135Y-65169890D01*
X96289512Y-65372469D01*
X96233810Y-65550133D01*
X96187479Y-65698291D01*
X96151966Y-65812355D01*
X96128719Y-65887737D01*
X96121859Y-65910461D01*
X96110095Y-65930423D01*
X96082873Y-65943392D01*
X96031042Y-65950785D01*
X95945453Y-65954019D01*
X95837075Y-65954553D01*
X95565465Y-65954150D01*
X94993393Y-64134537D01*
X94901189Y-63841130D01*
X94813372Y-63561432D01*
X94731145Y-63299293D01*
X94655711Y-63058559D01*
X94588275Y-62843079D01*
X94530040Y-62656701D01*
X94482208Y-62503274D01*
X94445984Y-62386645D01*
X94422570Y-62310663D01*
X94413171Y-62279175D01*
X94413100Y-62278883D01*
X94417825Y-62263601D01*
X94445013Y-62253193D01*
X94501866Y-62246823D01*
X94595588Y-62243652D01*
X94723367Y-62242843D01*
X95041854Y-62242843D01*
X95065148Y-62325476D01*
G37*
G36*
X77587078Y-191180897D02*
G01*
X78191634Y-191180897D01*
X78193281Y-191399836D01*
X78223134Y-191591077D01*
X78284374Y-191771190D01*
X78319366Y-191845809D01*
X78401079Y-191979946D01*
X78506298Y-192112343D01*
X78620860Y-192226826D01*
X78715671Y-192298383D01*
X78769061Y-192327583D01*
X78846247Y-192365499D01*
X78932532Y-192405454D01*
X79013217Y-192440768D01*
X79073605Y-192464762D01*
X79096146Y-192471269D01*
X79097678Y-192446988D01*
X79099077Y-192377821D01*
X79100298Y-192269734D01*
X79101294Y-192128692D01*
X79102019Y-191960660D01*
X79102428Y-191771602D01*
X79102502Y-191645546D01*
X79102502Y-190819220D01*
X78835535Y-190819220D01*
X78568568Y-190819220D01*
X78567614Y-190596747D01*
X78566659Y-190374275D01*
X78478043Y-190475976D01*
X78422459Y-190550056D01*
X78358988Y-190649994D01*
X78300587Y-190755266D01*
X78296029Y-190764288D01*
X78248582Y-190865061D01*
X78219147Y-190948793D01*
X78202458Y-191036498D01*
X78193249Y-191149189D01*
X78191634Y-191180897D01*
X77587078Y-191180897D01*
X77596168Y-191015995D01*
X77660365Y-190731751D01*
X77771088Y-190462171D01*
X77926925Y-190211093D01*
X78126468Y-189982349D01*
X78254655Y-189867185D01*
X78504035Y-189691943D01*
X78779537Y-189553054D01*
X79069921Y-189455266D01*
X79349264Y-189404771D01*
X79509309Y-189388374D01*
X79509309Y-189693368D01*
X79509309Y-189998362D01*
X79358994Y-190014073D01*
X79269421Y-190029408D01*
X79161735Y-190056485D01*
X79050082Y-190090676D01*
X78948612Y-190127355D01*
X78871470Y-190161896D01*
X78836836Y-190184826D01*
X78851578Y-190194038D01*
X78914264Y-190201193D01*
X79022021Y-190206128D01*
X79171976Y-190208679D01*
X79262682Y-190209009D01*
X79712712Y-190209009D01*
X79712712Y-191658259D01*
X79712712Y-193107508D01*
X79413964Y-193106146D01*
X79254668Y-193102569D01*
X79128549Y-193092111D01*
X79018160Y-193072693D01*
X78924524Y-193047848D01*
X78640705Y-192937791D01*
X78382028Y-192786714D01*
X78152471Y-192598969D01*
X77956011Y-192378908D01*
X77796626Y-192130880D01*
X77678294Y-191859238D01*
X77612982Y-191613141D01*
X77579903Y-191311070D01*
X77587078Y-191180897D01*
G37*
G36*
X92108012Y-22323765D02*
G01*
X92312134Y-22381605D01*
X92442814Y-22437484D01*
X92639504Y-22557195D01*
X92815743Y-22715789D01*
X92963651Y-22903514D01*
X93075349Y-23110614D01*
X93136255Y-23295968D01*
X93161045Y-23483543D01*
X93156586Y-23686726D01*
X93125133Y-23888644D01*
X93068940Y-24072422D01*
X93018554Y-24177034D01*
X92984961Y-24227423D01*
X92924570Y-24310463D01*
X92842596Y-24419295D01*
X92744250Y-24547058D01*
X92634747Y-24686892D01*
X92550069Y-24793515D01*
X92440358Y-24931302D01*
X92341957Y-25055808D01*
X92259097Y-25161603D01*
X92196011Y-25243259D01*
X92156930Y-25295345D01*
X92145745Y-25312328D01*
X92169851Y-25316364D01*
X92236893Y-25319876D01*
X92338958Y-25322651D01*
X92468130Y-25324473D01*
X92616116Y-25325126D01*
X93086486Y-25325126D01*
X93086486Y-25617518D01*
X93086486Y-25909910D01*
X92002888Y-25909910D01*
X90919290Y-25909910D01*
X90991946Y-25814565D01*
X91022506Y-25775247D01*
X91081124Y-25700569D01*
X91164264Y-25595011D01*
X91268387Y-25463056D01*
X91389954Y-25309185D01*
X91525428Y-25137880D01*
X91671269Y-24953623D01*
X91794549Y-24797985D01*
X91999763Y-24537595D01*
X92172276Y-24315670D01*
X92312305Y-24131918D01*
X92420068Y-23986044D01*
X92495784Y-23877757D01*
X92539668Y-23806763D01*
X92551095Y-23780968D01*
X92579850Y-23595285D01*
X92563744Y-23422643D01*
X92508067Y-23267666D01*
X92418109Y-23134977D01*
X92299157Y-23029201D01*
X92156503Y-22954962D01*
X91995434Y-22916885D01*
X91821240Y-22919592D01*
X91639210Y-22967709D01*
X91626645Y-22972760D01*
X91546599Y-23003235D01*
X91486097Y-23021759D01*
X91459868Y-23024501D01*
X91438500Y-22998191D01*
X91399374Y-22939563D01*
X91349491Y-22860239D01*
X91295851Y-22771841D01*
X91245455Y-22685993D01*
X91205304Y-22614315D01*
X91182398Y-22568431D01*
X91179579Y-22559164D01*
X91202130Y-22534223D01*
X91262695Y-22498952D01*
X91350643Y-22457835D01*
X91455343Y-22415354D01*
X91566162Y-22375993D01*
X91672471Y-22344235D01*
X91712639Y-22334372D01*
X91911563Y-22308498D01*
X92108012Y-22323765D01*
G37*
G36*
X76127727Y-189697000D02*
G01*
X76127727Y-190005606D01*
X76056839Y-190005606D01*
X75970877Y-190022458D01*
X75871082Y-190065728D01*
X75778129Y-190124486D01*
X75713020Y-190187353D01*
X75675425Y-190276114D01*
X75667042Y-190384129D01*
X75688007Y-190488936D01*
X75710906Y-190535258D01*
X75748995Y-190582366D01*
X75813984Y-190651415D01*
X75894633Y-190730711D01*
X75934944Y-190768369D01*
X76090521Y-190913366D01*
X76212830Y-191033216D01*
X76307968Y-191134957D01*
X76382034Y-191225627D01*
X76441126Y-191312267D01*
X76491344Y-191401915D01*
X76501710Y-191422545D01*
X76544857Y-191512343D01*
X76572730Y-191582358D01*
X76588659Y-191648670D01*
X76595977Y-191727361D01*
X76598015Y-191834510D01*
X76598098Y-191887804D01*
X76597350Y-192009483D01*
X76592669Y-192096839D01*
X76580402Y-192166397D01*
X76556895Y-192234686D01*
X76518494Y-192318230D01*
X76490272Y-192375520D01*
X76412359Y-192517372D01*
X76330345Y-192630298D01*
X76229143Y-192735022D01*
X76227344Y-192736690D01*
X76061350Y-192868112D01*
X75876837Y-192976131D01*
X75686247Y-193055179D01*
X75502020Y-193099692D01*
X75398488Y-193107508D01*
X75288688Y-193107508D01*
X75288688Y-192802403D01*
X75288688Y-192497298D01*
X75384034Y-192497049D01*
X75484525Y-192480676D01*
X75603578Y-192437323D01*
X75722835Y-192374973D01*
X75814285Y-192309959D01*
X75905950Y-192204477D01*
X75968379Y-192074931D01*
X75998232Y-191935261D01*
X75992168Y-191799403D01*
X75959610Y-191703594D01*
X75929335Y-191660872D01*
X75869519Y-191589246D01*
X75786504Y-191495844D01*
X75686633Y-191387793D01*
X75576246Y-191272220D01*
X75570464Y-191266268D01*
X75420390Y-191109435D01*
X75303573Y-190979608D01*
X75215931Y-190869269D01*
X75153386Y-190770901D01*
X75111857Y-190676987D01*
X75087265Y-190580009D01*
X75075531Y-190472450D01*
X75072572Y-190348849D01*
X75073806Y-190228322D01*
X75079457Y-190143448D01*
X75092446Y-190079053D01*
X75115697Y-190019961D01*
X75147633Y-189959091D01*
X75271436Y-189785530D01*
X75432878Y-189636197D01*
X75621886Y-189517741D01*
X75828382Y-189436811D01*
X75987481Y-189404878D01*
X76127727Y-189388395D01*
X76127727Y-189697000D01*
G37*
G36*
X43401466Y-121471372D02*
G01*
X43926426Y-121471372D01*
X43927459Y-121598373D01*
X43932365Y-121689674D01*
X43943854Y-121760416D01*
X43964634Y-121825735D01*
X43997416Y-121900772D01*
X44006885Y-121920883D01*
X44121573Y-122115437D01*
X44264582Y-122270488D01*
X44441830Y-122392184D01*
X44479490Y-122411855D01*
X44566540Y-122454085D01*
X44636372Y-122485525D01*
X44676367Y-122500555D01*
X44679892Y-122501102D01*
X44685640Y-122476759D01*
X44690829Y-122408057D01*
X44695252Y-122301487D01*
X44698708Y-122163541D01*
X44700990Y-122000708D01*
X44701895Y-121819481D01*
X44701902Y-121801902D01*
X44701902Y-121102703D01*
X44473073Y-121102703D01*
X44244244Y-121102703D01*
X44243186Y-120905656D01*
X44242127Y-120708609D01*
X44153849Y-120808593D01*
X44091524Y-120890296D01*
X44027976Y-120990732D01*
X43995998Y-121050135D01*
X43964675Y-121118586D01*
X43944421Y-121180290D01*
X43932871Y-121249563D01*
X43927661Y-121340719D01*
X43926427Y-121468073D01*
X43926426Y-121471372D01*
X43401466Y-121471372D01*
X43400356Y-121380724D01*
X43413233Y-121213155D01*
X43428545Y-121128129D01*
X43499627Y-120905576D01*
X43605610Y-120701521D01*
X43752436Y-120505810D01*
X43859626Y-120391140D01*
X44081057Y-120199622D01*
X44318826Y-120049972D01*
X44567450Y-119944878D01*
X44821443Y-119887026D01*
X44905305Y-119878774D01*
X45045145Y-119869570D01*
X45052427Y-120117910D01*
X45054149Y-120240941D01*
X45050224Y-120320304D01*
X45039968Y-120362943D01*
X45027002Y-120375209D01*
X44985410Y-120384544D01*
X44911962Y-120399348D01*
X44846707Y-120411854D01*
X44734795Y-120440073D01*
X44617428Y-120480443D01*
X44567028Y-120502036D01*
X44434935Y-120564531D01*
X44822672Y-120566650D01*
X45210410Y-120568769D01*
X45210410Y-121814615D01*
X45210410Y-123060461D01*
X45000650Y-123058440D01*
X44875330Y-123052858D01*
X44744882Y-123040107D01*
X44636660Y-123022892D01*
X44632698Y-123022044D01*
X44390378Y-122944326D01*
X44160154Y-122822349D01*
X43948618Y-122662405D01*
X43762360Y-122470786D01*
X43607969Y-122253786D01*
X43492037Y-122017697D01*
X43450108Y-121892899D01*
X43419373Y-121741161D01*
X43402596Y-121563581D01*
X43401466Y-121471372D01*
G37*
G36*
X75816539Y-9093674D02*
G01*
X75875933Y-9138095D01*
X75968331Y-9208897D01*
X76090344Y-9303434D01*
X76238582Y-9419059D01*
X76409656Y-9553127D01*
X76600177Y-9702992D01*
X76806755Y-9866008D01*
X77026001Y-10039529D01*
X77096073Y-10095091D01*
X77318610Y-10271354D01*
X77529577Y-10437937D01*
X77725580Y-10592192D01*
X77903225Y-10731473D01*
X78059116Y-10853130D01*
X78189858Y-10954519D01*
X78292056Y-11032990D01*
X78362316Y-11085898D01*
X78397241Y-11110594D01*
X78400361Y-11112108D01*
X78405413Y-11087561D01*
X78409373Y-11017106D01*
X78412183Y-10905676D01*
X78413788Y-10758205D01*
X78414131Y-10579623D01*
X78413155Y-10374866D01*
X78411102Y-10172272D01*
X78408255Y-9885540D01*
X78407500Y-9648911D01*
X78408835Y-9462527D01*
X78412257Y-9326526D01*
X78417765Y-9241051D01*
X78425356Y-9206242D01*
X78425486Y-9206105D01*
X78481216Y-9181410D01*
X78542116Y-9194788D01*
X78565631Y-9214580D01*
X78571668Y-9237801D01*
X78576770Y-9293214D01*
X78580964Y-9382986D01*
X78584278Y-9509283D01*
X78586739Y-9674270D01*
X78588374Y-9880114D01*
X78589208Y-10128982D01*
X78589271Y-10423038D01*
X78588587Y-10764451D01*
X78587814Y-10997464D01*
X78581281Y-12745748D01*
X77284584Y-11728251D01*
X75987888Y-10710754D01*
X75981214Y-11640292D01*
X75978508Y-11920713D01*
X75974752Y-12151436D01*
X75969904Y-12333600D01*
X75963922Y-12468348D01*
X75956767Y-12556821D01*
X75948396Y-12600160D01*
X75946319Y-12603834D01*
X75896254Y-12633049D01*
X75835266Y-12633426D01*
X75787275Y-12606463D01*
X75779022Y-12593344D01*
X75775386Y-12560420D01*
X75772329Y-12482506D01*
X75769829Y-12364597D01*
X75767868Y-12211685D01*
X75766423Y-12028764D01*
X75765475Y-11820827D01*
X75765002Y-11592866D01*
X75764985Y-11349876D01*
X75765402Y-11096850D01*
X75766233Y-10838780D01*
X75767458Y-10580661D01*
X75769055Y-10327485D01*
X75771004Y-10084245D01*
X75773285Y-9855936D01*
X75775876Y-9647549D01*
X75778757Y-9464079D01*
X75781908Y-9310519D01*
X75785309Y-9191861D01*
X75788937Y-9113100D01*
X75792773Y-9079228D01*
X75793539Y-9078279D01*
X75816539Y-9093674D01*
G37*
G36*
X83001306Y-9185218D02*
G01*
X83064109Y-9213810D01*
X83087694Y-9274247D01*
X83071811Y-9365700D01*
X83063347Y-9388999D01*
X83046682Y-9430768D01*
X83012578Y-9515464D01*
X82962731Y-9638901D01*
X82898834Y-9796894D01*
X82822584Y-9985255D01*
X82735674Y-10199799D01*
X82639800Y-10436339D01*
X82536658Y-10690690D01*
X82427941Y-10958664D01*
X82372745Y-11094670D01*
X82262968Y-11365216D01*
X82158747Y-11622217D01*
X82061673Y-11861747D01*
X81973334Y-12079877D01*
X81895319Y-12272678D01*
X81829217Y-12436224D01*
X81776616Y-12566586D01*
X81739107Y-12659837D01*
X81718277Y-12712049D01*
X81714512Y-12721829D01*
X81697728Y-12728469D01*
X81677557Y-12701334D01*
X81663746Y-12671723D01*
X81631208Y-12600166D01*
X81581951Y-12491149D01*
X81517985Y-12349157D01*
X81441318Y-12178677D01*
X81353959Y-11984194D01*
X81257916Y-11770193D01*
X81155197Y-11541160D01*
X81047812Y-11301581D01*
X80937769Y-11055940D01*
X80827077Y-10808725D01*
X80717744Y-10564419D01*
X80611779Y-10327510D01*
X80511191Y-10102482D01*
X80417987Y-9893821D01*
X80334178Y-9706013D01*
X80261771Y-9543543D01*
X80202775Y-9410896D01*
X80159198Y-9312559D01*
X80133050Y-9253017D01*
X80126330Y-9237188D01*
X80132832Y-9227176D01*
X80164030Y-9219366D01*
X80224525Y-9213532D01*
X80318915Y-9209449D01*
X80451800Y-9206891D01*
X80627782Y-9205633D01*
X80775373Y-9205406D01*
X81436667Y-9205406D01*
X81461294Y-9275326D01*
X81490245Y-9352010D01*
X81533806Y-9460181D01*
X81589258Y-9593656D01*
X81653881Y-9746253D01*
X81724954Y-9911790D01*
X81799758Y-10084086D01*
X81875572Y-10256959D01*
X81949677Y-10424227D01*
X82019351Y-10579709D01*
X82081876Y-10717222D01*
X82134531Y-10830585D01*
X82174596Y-10913616D01*
X82199350Y-10960133D01*
X82206006Y-10967805D01*
X82220481Y-10939338D01*
X82250570Y-10870332D01*
X82293534Y-10767669D01*
X82346631Y-10638231D01*
X82407121Y-10488901D01*
X82472264Y-10326562D01*
X82539318Y-10158097D01*
X82605543Y-9990388D01*
X82668198Y-9830317D01*
X82724543Y-9684768D01*
X82771836Y-9560623D01*
X82807338Y-9464764D01*
X82826799Y-9408809D01*
X82874357Y-9287342D01*
X82923968Y-9213706D01*
X82977989Y-9184883D01*
X83001306Y-9185218D01*
G37*
G36*
X90113672Y-121525108D02*
G01*
X90624354Y-121525108D01*
X90657389Y-121734515D01*
X90736385Y-121945589D01*
X90745276Y-121963339D01*
X90861870Y-122140557D01*
X91017427Y-122290200D01*
X91214822Y-122414751D01*
X91329389Y-122468091D01*
X91404160Y-122496606D01*
X91473298Y-122513644D01*
X91552927Y-122521306D01*
X91659170Y-122521696D01*
X91726226Y-122519858D01*
X91852133Y-122513908D01*
X91944684Y-122503301D01*
X92021365Y-122484350D01*
X92099660Y-122453366D01*
X92147272Y-122431055D01*
X92296343Y-122339527D01*
X92440480Y-122216100D01*
X92565548Y-122074931D01*
X92657414Y-121930180D01*
X92666675Y-121910754D01*
X92739593Y-121693235D01*
X92764711Y-121473151D01*
X92744300Y-121256807D01*
X92680633Y-121050507D01*
X92575981Y-120860555D01*
X92432615Y-120693257D01*
X92252807Y-120554917D01*
X92159556Y-120503270D01*
X91948904Y-120423972D01*
X91740566Y-120391401D01*
X91538510Y-120401461D01*
X91346704Y-120450056D01*
X91169116Y-120533090D01*
X91009712Y-120646466D01*
X90872463Y-120786088D01*
X90761334Y-120947860D01*
X90680295Y-121127685D01*
X90633312Y-121321466D01*
X90624354Y-121525108D01*
X90113672Y-121525108D01*
X90112013Y-121459674D01*
X90120728Y-121261666D01*
X90149651Y-121088221D01*
X90203763Y-120918208D01*
X90280031Y-120746747D01*
X90394812Y-120560249D01*
X90549173Y-120379846D01*
X90731956Y-120215048D01*
X90932006Y-120075362D01*
X91138166Y-119970299D01*
X91230430Y-119936701D01*
X91412355Y-119895105D01*
X91615958Y-119874139D01*
X91815536Y-119875971D01*
X91877470Y-119882117D01*
X92142492Y-119939580D01*
X92388704Y-120039423D01*
X92612528Y-120176759D01*
X92810386Y-120346698D01*
X92978699Y-120544351D01*
X93113888Y-120764830D01*
X93212376Y-121003245D01*
X93270584Y-121254707D01*
X93284932Y-121514329D01*
X93254745Y-121763764D01*
X93174723Y-122028644D01*
X93053936Y-122270505D01*
X92897340Y-122486056D01*
X92709890Y-122672007D01*
X92496542Y-122825068D01*
X92262249Y-122941950D01*
X92011968Y-123019361D01*
X91750653Y-123054011D01*
X91483260Y-123042611D01*
X91360884Y-123021280D01*
X91102590Y-122939790D01*
X90861257Y-122813382D01*
X90642895Y-122646795D01*
X90453515Y-122444770D01*
X90299128Y-122212044D01*
X90273970Y-122164200D01*
X90190696Y-121973958D01*
X90139358Y-121789100D01*
X90115301Y-121589377D01*
X90113672Y-121525108D01*
G37*
G36*
X94295010Y-106285751D02*
G01*
X94320096Y-106321732D01*
X94330409Y-106391974D01*
X94332420Y-106502955D01*
X94332332Y-106584785D01*
X94331538Y-106714989D01*
X94328421Y-106802473D01*
X94321874Y-106855354D01*
X94310793Y-106881747D01*
X94294072Y-106889769D01*
X94290787Y-106889890D01*
X94189152Y-106907153D01*
X94077372Y-106952163D01*
X93979190Y-107014758D01*
X93960063Y-107031479D01*
X93903584Y-107094362D01*
X93879037Y-107155924D01*
X93874674Y-107218738D01*
X93881266Y-107300825D01*
X93897593Y-107369742D01*
X93902406Y-107381001D01*
X93928751Y-107415799D01*
X93985443Y-107479350D01*
X94066265Y-107565066D01*
X94165001Y-107666357D01*
X94275436Y-107776637D01*
X94278626Y-107779780D01*
X94409585Y-107910426D01*
X94509273Y-108014476D01*
X94584052Y-108099532D01*
X94640285Y-108173197D01*
X94684336Y-108243072D01*
X94714909Y-108301001D01*
X94752939Y-108380574D01*
X94778027Y-108444829D01*
X94792859Y-108508158D01*
X94800122Y-108584954D01*
X94802501Y-108689606D01*
X94802702Y-108771372D01*
X94802027Y-108898970D01*
X94798093Y-108990427D01*
X94788041Y-109060449D01*
X94769013Y-109123746D01*
X94738148Y-109195023D01*
X94708320Y-109256823D01*
X94592062Y-109444819D01*
X94440145Y-109614347D01*
X94261481Y-109759499D01*
X94064979Y-109874366D01*
X93859549Y-109953038D01*
X93654104Y-109989605D01*
X93600544Y-109991490D01*
X93491679Y-109991792D01*
X93498843Y-109693317D01*
X93506006Y-109394842D01*
X93620420Y-109378507D01*
X93803832Y-109330024D01*
X93961582Y-109243474D01*
X94087971Y-109123966D01*
X94177300Y-108976609D01*
X94218136Y-108842712D01*
X94223413Y-108771423D01*
X94209865Y-108698199D01*
X94174036Y-108617545D01*
X94112469Y-108523964D01*
X94021707Y-108411960D01*
X93898295Y-108276036D01*
X93791952Y-108165076D01*
X93636196Y-108000745D01*
X93516075Y-107864216D01*
X93427899Y-107751052D01*
X93367977Y-107656817D01*
X93365726Y-107652653D01*
X93323835Y-107570986D01*
X93297756Y-107505100D01*
X93283769Y-107437900D01*
X93278151Y-107352288D01*
X93277177Y-107245846D01*
X93279366Y-107120841D01*
X93287674Y-107030632D01*
X93304707Y-106959286D01*
X93333077Y-106890867D01*
X93336414Y-106884026D01*
X93453779Y-106701890D01*
X93610965Y-106545834D01*
X93801518Y-106420857D01*
X94018983Y-106331957D01*
X94066422Y-106318611D01*
X94174643Y-106290667D01*
X94248683Y-106277555D01*
X94295010Y-106285751D01*
G37*
G36*
X57860776Y-164462398D02*
G01*
X58084362Y-164510090D01*
X58295795Y-164601081D01*
X58489806Y-164732894D01*
X58661124Y-164903058D01*
X58804481Y-165109096D01*
X58845629Y-165186303D01*
X58897265Y-165294960D01*
X58929518Y-165380114D01*
X58947778Y-165462673D01*
X58957432Y-165563545D01*
X58961009Y-165634018D01*
X58960224Y-165844868D01*
X58935823Y-166025020D01*
X58885098Y-166190131D01*
X58851648Y-166266457D01*
X58818525Y-166322260D01*
X58758213Y-166410349D01*
X58675855Y-166523762D01*
X58576592Y-166655532D01*
X58465565Y-166798697D01*
X58369665Y-166919320D01*
X58257530Y-167059407D01*
X58156641Y-167186698D01*
X58071197Y-167295789D01*
X58005401Y-167381279D01*
X57963454Y-167437765D01*
X57949521Y-167459610D01*
X57973309Y-167465622D01*
X58040054Y-167470856D01*
X58141864Y-167474990D01*
X58270848Y-167477705D01*
X58418919Y-167478679D01*
X58889289Y-167478679D01*
X58889289Y-167771071D01*
X58889289Y-168063464D01*
X57808708Y-168063464D01*
X57579844Y-168063226D01*
X57367500Y-168062544D01*
X57176900Y-168061471D01*
X57013264Y-168060056D01*
X56881814Y-168058350D01*
X56787772Y-168056404D01*
X56736358Y-168054269D01*
X56728128Y-168052975D01*
X56743438Y-168031593D01*
X56787374Y-167974199D01*
X56856948Y-167884606D01*
X56949168Y-167766631D01*
X57061046Y-167624087D01*
X57189590Y-167460789D01*
X57331813Y-167280551D01*
X57484723Y-167087189D01*
X57520255Y-167042315D01*
X57676847Y-166843839D01*
X57824517Y-166655213D01*
X57960084Y-166480604D01*
X58080365Y-166324180D01*
X58182175Y-166190109D01*
X58262333Y-166082558D01*
X58317656Y-166005696D01*
X58344960Y-165963689D01*
X58346581Y-165960327D01*
X58370636Y-165863901D01*
X58379512Y-165739602D01*
X58373066Y-165608133D01*
X58351156Y-165490200D01*
X58349860Y-165485733D01*
X58303189Y-165389851D01*
X58219522Y-165282458D01*
X58187934Y-165249279D01*
X58040064Y-165131488D01*
X57880778Y-165063064D01*
X57712027Y-165044311D01*
X57535762Y-165075533D01*
X57408082Y-165127721D01*
X57329874Y-165163554D01*
X57283775Y-165174281D01*
X57259047Y-165162178D01*
X57257249Y-165159670D01*
X57217785Y-165098153D01*
X57167559Y-165016889D01*
X57113092Y-164926835D01*
X57060906Y-164838945D01*
X57017519Y-164764175D01*
X56989454Y-164713482D01*
X56982382Y-164697849D01*
X57004578Y-164675505D01*
X57063823Y-164641609D01*
X57149107Y-164601220D01*
X57249418Y-164559397D01*
X57353745Y-164521198D01*
X57398223Y-164506800D01*
X57630306Y-164460476D01*
X57860776Y-164462398D01*
G37*
G36*
X67836168Y-202948972D02*
G01*
X69164769Y-202948972D01*
X69164965Y-203139409D01*
X69165838Y-203294059D01*
X69167479Y-203416686D01*
X69169980Y-203511056D01*
X69173431Y-203580935D01*
X69177925Y-203630087D01*
X69183553Y-203662279D01*
X69190407Y-203681276D01*
X69198578Y-203690843D01*
X69205461Y-203694047D01*
X69284690Y-203704987D01*
X69398780Y-203704677D01*
X69533351Y-203694570D01*
X69674027Y-203676117D01*
X69806428Y-203650772D01*
X69906830Y-203623201D01*
X70166560Y-203511484D01*
X70392079Y-203362514D01*
X70582494Y-203177063D01*
X70736911Y-202955909D01*
X70788142Y-202858159D01*
X70866915Y-202671813D01*
X70917088Y-202493039D01*
X70942749Y-202302638D01*
X70948276Y-202106594D01*
X70922927Y-201814683D01*
X70852951Y-201545179D01*
X70740311Y-201300801D01*
X70586970Y-201084263D01*
X70394893Y-200898284D01*
X70166043Y-200745581D01*
X69902383Y-200628869D01*
X69873073Y-200618916D01*
X69766140Y-200592512D01*
X69633265Y-200577104D01*
X69462605Y-200571346D01*
X69453553Y-200571291D01*
X69173874Y-200569870D01*
X69167323Y-202125276D01*
X69166039Y-202445670D01*
X69165157Y-202718980D01*
X69164769Y-202948972D01*
X67836168Y-202948972D01*
X67776558Y-202831521D01*
X67689839Y-202557788D01*
X67645733Y-202263472D01*
X67644019Y-201993694D01*
X67664184Y-201784504D01*
X67701478Y-201605162D01*
X67761076Y-201436088D01*
X67828924Y-201293849D01*
X67982559Y-201050826D01*
X68170799Y-200844606D01*
X68395192Y-200673724D01*
X68604028Y-200560434D01*
X68755007Y-200494595D01*
X68887462Y-200448063D01*
X69016449Y-200417846D01*
X69157026Y-200400951D01*
X69324253Y-200394387D01*
X69440841Y-200394143D01*
X69590632Y-200396364D01*
X69703963Y-200401972D01*
X69795200Y-200412790D01*
X69878709Y-200430636D01*
X69968858Y-200457333D01*
X69987487Y-200463412D01*
X70258022Y-200578055D01*
X70498399Y-200732137D01*
X70705543Y-200922197D01*
X70876380Y-201144773D01*
X71007837Y-201396402D01*
X71096838Y-201673622D01*
X71108000Y-201725411D01*
X71137670Y-201958507D01*
X71140034Y-202208468D01*
X71116079Y-202455589D01*
X71066792Y-202680163D01*
X71058919Y-202705606D01*
X70948005Y-202972387D01*
X70797051Y-203212288D01*
X70610164Y-203420908D01*
X70391454Y-203593848D01*
X70145027Y-203726709D01*
X70081472Y-203752425D01*
X69781248Y-203840491D01*
X69476367Y-203879485D01*
X69171995Y-203868921D01*
X69046746Y-203849814D01*
X68758724Y-203771528D01*
X68497779Y-203652101D01*
X68266500Y-203494961D01*
X68067478Y-203303534D01*
X67903300Y-203081245D01*
X67836168Y-202948972D01*
G37*
G36*
X34892247Y-108189687D02*
G01*
X35494338Y-108189687D01*
X35523258Y-108422648D01*
X35597412Y-108650380D01*
X35655569Y-108766547D01*
X35782744Y-108944853D01*
X35946688Y-109104578D01*
X36134565Y-109235268D01*
X36333540Y-109326468D01*
X36349457Y-109331714D01*
X36450510Y-109357290D01*
X36569596Y-109377748D01*
X36685978Y-109390328D01*
X36778920Y-109392270D01*
X36794594Y-109390946D01*
X36859571Y-109383157D01*
X36945723Y-109372542D01*
X36975453Y-109368824D01*
X37127966Y-109330744D01*
X37292929Y-109257279D01*
X37455968Y-109156243D01*
X37602709Y-109035451D01*
X37620248Y-109018295D01*
X37783432Y-108823843D01*
X37898587Y-108613776D01*
X37966907Y-108385229D01*
X37989589Y-108135338D01*
X37989589Y-108133800D01*
X37965418Y-107888747D01*
X37895375Y-107659663D01*
X37783167Y-107451213D01*
X37632501Y-107268058D01*
X37447081Y-107114862D01*
X37230616Y-106996288D01*
X37030970Y-106927751D01*
X36796274Y-106892497D01*
X36557922Y-106907463D01*
X36318142Y-106972361D01*
X36165140Y-107039877D01*
X35962251Y-107170051D01*
X35793285Y-107333328D01*
X35660125Y-107523318D01*
X35564657Y-107733634D01*
X35508766Y-107957886D01*
X35494338Y-108189687D01*
X34892247Y-108189687D01*
X34893745Y-107977188D01*
X34934791Y-107728420D01*
X35031635Y-107439648D01*
X35170524Y-107173558D01*
X35347116Y-106934314D01*
X35557070Y-106726082D01*
X35796046Y-106553024D01*
X36059702Y-106419306D01*
X36343697Y-106329091D01*
X36407480Y-106315686D01*
X36697233Y-106283089D01*
X36978617Y-106298884D01*
X37256661Y-106363769D01*
X37519219Y-106470024D01*
X37792465Y-106628154D01*
X38027278Y-106819253D01*
X38225062Y-107044688D01*
X38387220Y-107305822D01*
X38395674Y-107322315D01*
X38481721Y-107508918D01*
X38539327Y-107679913D01*
X38574491Y-107857104D01*
X38591575Y-108034555D01*
X38589202Y-108313468D01*
X38544005Y-108578130D01*
X38453503Y-108840836D01*
X38409676Y-108936637D01*
X38252749Y-109207262D01*
X38062670Y-109439851D01*
X37838076Y-109635627D01*
X37577605Y-109795808D01*
X37328528Y-109904318D01*
X37241529Y-109934117D01*
X37162289Y-109954700D01*
X37076948Y-109968095D01*
X36971644Y-109976325D01*
X36832517Y-109981417D01*
X36794594Y-109982350D01*
X36595017Y-109983224D01*
X36440127Y-109975232D01*
X36324484Y-109958062D01*
X36309385Y-109954474D01*
X36033536Y-109859391D01*
X35771936Y-109719632D01*
X35532226Y-109540938D01*
X35322048Y-109329055D01*
X35149045Y-109089723D01*
X35141115Y-109076477D01*
X35016990Y-108820627D01*
X34933347Y-108545336D01*
X34891746Y-108260794D01*
X34892247Y-108189687D01*
G37*
G36*
X50956561Y-9181366D02*
G01*
X50977551Y-9188445D01*
X50994469Y-9205604D01*
X51007682Y-9237229D01*
X51017558Y-9287705D01*
X51024464Y-9361417D01*
X51028768Y-9462753D01*
X51030839Y-9596096D01*
X51031043Y-9765834D01*
X51029749Y-9976351D01*
X51027323Y-10232033D01*
X51026444Y-10316856D01*
X51023577Y-10579238D01*
X51020781Y-10796168D01*
X51017769Y-10973046D01*
X51014252Y-11115269D01*
X51009942Y-11228236D01*
X51004552Y-11317345D01*
X50997795Y-11387995D01*
X50989381Y-11445584D01*
X50979025Y-11495511D01*
X50966437Y-11543173D01*
X50959881Y-11565613D01*
X50883132Y-11783570D01*
X50790246Y-11966337D01*
X50672424Y-12129045D01*
X50565278Y-12244179D01*
X50410611Y-12382871D01*
X50260111Y-12484956D01*
X50096930Y-12560133D01*
X49924654Y-12612968D01*
X49720862Y-12649024D01*
X49495027Y-12662229D01*
X49268503Y-12652588D01*
X49062644Y-12620105D01*
X49033046Y-12612787D01*
X48871872Y-12563682D01*
X48735854Y-12504096D01*
X48602602Y-12423114D01*
X48515839Y-12360595D01*
X48359313Y-12223510D01*
X48233298Y-12066419D01*
X48126040Y-11874516D01*
X48120314Y-11862363D01*
X48082631Y-11778570D01*
X48051171Y-11698952D01*
X48025378Y-11618041D01*
X48004697Y-11530368D01*
X47988571Y-11430462D01*
X47976445Y-11312855D01*
X47967762Y-11172078D01*
X47961968Y-11002661D01*
X47958507Y-10799135D01*
X47956822Y-10556031D01*
X47956357Y-10267879D01*
X47956356Y-10248920D01*
X47956356Y-9205406D01*
X48566566Y-9205406D01*
X49176777Y-9205406D01*
X49176777Y-10829668D01*
X49176777Y-12453929D01*
X49233984Y-12469260D01*
X49312230Y-12480590D01*
X49424952Y-12485071D01*
X49556311Y-12483250D01*
X49690474Y-12475671D01*
X49811602Y-12462880D01*
X49900512Y-12446311D01*
X50120423Y-12367084D01*
X50310362Y-12250732D01*
X50472327Y-12095177D01*
X50608317Y-11898344D01*
X50720333Y-11658154D01*
X50756309Y-11557258D01*
X50770771Y-11512146D01*
X50782698Y-11468775D01*
X50792373Y-11421819D01*
X50800078Y-11365952D01*
X50806097Y-11295851D01*
X50810713Y-11206189D01*
X50814210Y-11091642D01*
X50816869Y-10946885D01*
X50818976Y-10766593D01*
X50820812Y-10545440D01*
X50822421Y-10313939D01*
X50824378Y-10044341D01*
X50826585Y-9821207D01*
X50829464Y-9640149D01*
X50833435Y-9496781D01*
X50838918Y-9386715D01*
X50846334Y-9305565D01*
X50856104Y-9248944D01*
X50868648Y-9212464D01*
X50884387Y-9191739D01*
X50903741Y-9182382D01*
X50927131Y-9180006D01*
X50931131Y-9179980D01*
X50956561Y-9181366D01*
G37*
G36*
X73016796Y-200386142D02*
G01*
X73217920Y-200416812D01*
X73385822Y-200462159D01*
X73529816Y-200516620D01*
X73645741Y-200576938D01*
X73729434Y-200639857D01*
X73776733Y-200702123D01*
X73783478Y-200760478D01*
X73745504Y-200811668D01*
X73733356Y-200820024D01*
X73693696Y-200832282D01*
X73642380Y-200820279D01*
X73570395Y-200780436D01*
X73485730Y-200721643D01*
X73352699Y-200649902D01*
X73179856Y-200597305D01*
X72975423Y-200566302D01*
X72960092Y-200565000D01*
X72798381Y-200562485D01*
X72677497Y-200585359D01*
X72593546Y-200634809D01*
X72552944Y-200689141D01*
X72528405Y-200757166D01*
X72527786Y-200826773D01*
X72554031Y-200902302D01*
X72610087Y-200988095D01*
X72698899Y-201088491D01*
X72823412Y-201207834D01*
X72986572Y-201350462D01*
X73021977Y-201380377D01*
X73296215Y-201618679D01*
X73525854Y-201834732D01*
X73711619Y-202029346D01*
X73854232Y-202203332D01*
X73954418Y-202357500D01*
X74011934Y-202489490D01*
X74056384Y-202714758D01*
X74052208Y-202935326D01*
X74001512Y-203145418D01*
X73906402Y-203339256D01*
X73768987Y-203511063D01*
X73591373Y-203655063D01*
X73585427Y-203658904D01*
X73406105Y-203750021D01*
X73193182Y-203818891D01*
X72959835Y-203863207D01*
X72719242Y-203880663D01*
X72484580Y-203868953D01*
X72429111Y-203861312D01*
X72258776Y-203825861D01*
X72097302Y-203776177D01*
X71950622Y-203715847D01*
X71824668Y-203648457D01*
X71725374Y-203577593D01*
X71658672Y-203506842D01*
X71630495Y-203439791D01*
X71642737Y-203385956D01*
X71694496Y-203341312D01*
X71764604Y-203343703D01*
X71853431Y-203393161D01*
X71870414Y-203406247D01*
X72082179Y-203543835D01*
X72317534Y-203637191D01*
X72577773Y-203686743D01*
X72746146Y-203695625D01*
X72952541Y-203683932D01*
X73117238Y-203646162D01*
X73239556Y-203582709D01*
X73318815Y-203493970D01*
X73354332Y-203380339D01*
X73356356Y-203341267D01*
X73351092Y-203281726D01*
X73332688Y-203222805D01*
X73297224Y-203160175D01*
X73240778Y-203089504D01*
X73159432Y-203006464D01*
X73049266Y-202906724D01*
X72906359Y-202785954D01*
X72726791Y-202639824D01*
X72706791Y-202623748D01*
X72473975Y-202433402D01*
X72280267Y-202266574D01*
X72122278Y-202118855D01*
X71996619Y-201985838D01*
X71899901Y-201863116D01*
X71828734Y-201746282D01*
X71779729Y-201630928D01*
X71749497Y-201512647D01*
X71734648Y-201387032D01*
X71733092Y-201357555D01*
X71733914Y-201187135D01*
X71755354Y-201048543D01*
X71801330Y-200925576D01*
X71862958Y-200820748D01*
X71986070Y-200680946D01*
X72147390Y-200564952D01*
X72339019Y-200475120D01*
X72553061Y-200413805D01*
X72781619Y-200383361D01*
X73016796Y-200386142D01*
G37*
G36*
X84945385Y-108070534D02*
G01*
X85540205Y-108070534D01*
X85548153Y-108307016D01*
X85563146Y-108395095D01*
X85634630Y-108618552D01*
X85749903Y-108827823D01*
X85902222Y-109014382D01*
X86084839Y-109169704D01*
X86254155Y-109268582D01*
X86491358Y-109354777D01*
X86733299Y-109390346D01*
X86979874Y-109375282D01*
X87177835Y-109327590D01*
X87398259Y-109231490D01*
X87594930Y-109094041D01*
X87762702Y-108921219D01*
X87896431Y-108718999D01*
X87990975Y-108493354D01*
X88028516Y-108339550D01*
X88045471Y-108106842D01*
X88015783Y-107878932D01*
X87943650Y-107661516D01*
X87833273Y-107460289D01*
X87688851Y-107280949D01*
X87514583Y-107129190D01*
X87314669Y-107010711D01*
X87093309Y-106931206D01*
X86972676Y-106907380D01*
X86731388Y-106896400D01*
X86500605Y-106931057D01*
X86284623Y-107006816D01*
X86087740Y-107119142D01*
X85914253Y-107263500D01*
X85768458Y-107435353D01*
X85654654Y-107630167D01*
X85577137Y-107843406D01*
X85540205Y-108070534D01*
X84945385Y-108070534D01*
X84946069Y-108027005D01*
X84960194Y-107855218D01*
X84985244Y-107712448D01*
X84987539Y-107703504D01*
X85090553Y-107409042D01*
X85235826Y-107140935D01*
X85420444Y-106902188D01*
X85641491Y-106695807D01*
X85896055Y-106524797D01*
X86181221Y-106392163D01*
X86297898Y-106352171D01*
X86393654Y-106325301D01*
X86484246Y-106307909D01*
X86585229Y-106298224D01*
X86712155Y-106294478D01*
X86806406Y-106294341D01*
X86949977Y-106296380D01*
X87058235Y-106302364D01*
X87146689Y-106314417D01*
X87230843Y-106334662D01*
X87326204Y-106365222D01*
X87327627Y-106365710D01*
X87536024Y-106446966D01*
X87714711Y-106540413D01*
X87879831Y-106656253D01*
X88047527Y-106804685D01*
X88093057Y-106849391D01*
X88200339Y-106959726D01*
X88279980Y-107051394D01*
X88342782Y-107139011D01*
X88399552Y-107237193D01*
X88442507Y-107322123D01*
X88526503Y-107506661D01*
X88584041Y-107667878D01*
X88619314Y-107823032D01*
X88636512Y-107989379D01*
X88640073Y-108135736D01*
X88620210Y-108434689D01*
X88558753Y-108708626D01*
X88453443Y-108962933D01*
X88302019Y-109202997D01*
X88102223Y-109434205D01*
X88090390Y-109446164D01*
X87878065Y-109635717D01*
X87660054Y-109780691D01*
X87426056Y-109887148D01*
X87248218Y-109941743D01*
X87050660Y-109976854D01*
X86828882Y-109990921D01*
X86603843Y-109983971D01*
X86396505Y-109956030D01*
X86329158Y-109940557D01*
X86054951Y-109843100D01*
X85799014Y-109701895D01*
X85566499Y-109522325D01*
X85362559Y-109309774D01*
X85192347Y-109069623D01*
X85061015Y-108807255D01*
X84973716Y-108528052D01*
X84972728Y-108523582D01*
X84951988Y-108380476D01*
X84943218Y-108208521D01*
X84945385Y-108070534D01*
G37*
G36*
X67656162Y-9218699D02*
G01*
X67762763Y-9245939D01*
X67904719Y-9295196D01*
X68039957Y-9357190D01*
X68160164Y-9426505D01*
X68257029Y-9497728D01*
X68322239Y-9565442D01*
X68347483Y-9624234D01*
X68347547Y-9626912D01*
X68326060Y-9670120D01*
X68276292Y-9706843D01*
X68220286Y-9723289D01*
X68198432Y-9720222D01*
X68155017Y-9695954D01*
X68091220Y-9651361D01*
X68055155Y-9623505D01*
X67873872Y-9507043D01*
X67661743Y-9418369D01*
X67432797Y-9361347D01*
X67201060Y-9339841D01*
X67051973Y-9347140D01*
X66898298Y-9364527D01*
X66898298Y-10928670D01*
X66898298Y-12492813D01*
X67120771Y-12477810D01*
X67396024Y-12435595D01*
X67648116Y-12348537D01*
X67874811Y-12218142D01*
X68073870Y-12045915D01*
X68243055Y-11833359D01*
X68346382Y-11653649D01*
X68386549Y-11570081D01*
X68410488Y-11505785D01*
X68421279Y-11443158D01*
X68421999Y-11364601D01*
X68415942Y-11255856D01*
X68411081Y-11115153D01*
X68418713Y-11018631D01*
X68440169Y-10960860D01*
X68476780Y-10936410D01*
X68494638Y-10934724D01*
X68524298Y-10935971D01*
X68548046Y-10942521D01*
X68566539Y-10959468D01*
X68580434Y-10991903D01*
X68590387Y-11044919D01*
X68597057Y-11123610D01*
X68601101Y-11233068D01*
X68603175Y-11378386D01*
X68603937Y-11564657D01*
X68604045Y-11782537D01*
X68603577Y-11980535D01*
X68602251Y-12162435D01*
X68600183Y-12321938D01*
X68597489Y-12452747D01*
X68594286Y-12548564D01*
X68590690Y-12603091D01*
X68588710Y-12613026D01*
X68552511Y-12632816D01*
X68494984Y-12636861D01*
X68440827Y-12626156D01*
X68415836Y-12606056D01*
X68412091Y-12569787D01*
X68410602Y-12493390D01*
X68411389Y-12387539D01*
X68414474Y-12262909D01*
X68415120Y-12243744D01*
X68426629Y-11913214D01*
X68356733Y-12002203D01*
X68156263Y-12218848D01*
X67927885Y-12395913D01*
X67676483Y-12530266D01*
X67406935Y-12618777D01*
X67389075Y-12622831D01*
X67255550Y-12643762D01*
X67094580Y-12656175D01*
X66925204Y-12659704D01*
X66766468Y-12653983D01*
X66637411Y-12638644D01*
X66631074Y-12637420D01*
X66361074Y-12560204D01*
X66117362Y-12440274D01*
X65896264Y-12275579D01*
X65780488Y-12162530D01*
X65611093Y-11952530D01*
X65484497Y-11727342D01*
X65398537Y-11481132D01*
X65351050Y-11208065D01*
X65339325Y-10972473D01*
X65346470Y-10757384D01*
X65372893Y-10571186D01*
X65423189Y-10394084D01*
X65501955Y-10206285D01*
X65531202Y-10146147D01*
X65640029Y-9967162D01*
X65784330Y-9787366D01*
X65950916Y-9620696D01*
X66126596Y-9481092D01*
X66211812Y-9426900D01*
X66474141Y-9303190D01*
X66759575Y-9219368D01*
X67058280Y-9176580D01*
X67360420Y-9175974D01*
X67656162Y-9218699D01*
G37*
G36*
X86707967Y-11981865D02*
G01*
X87162000Y-11981865D01*
X87186064Y-11990750D01*
X87251931Y-11999122D01*
X87350673Y-12006750D01*
X87473356Y-12013402D01*
X87611052Y-12018848D01*
X87754828Y-12022857D01*
X87895754Y-12025198D01*
X88024899Y-12025640D01*
X88133332Y-12023952D01*
X88212123Y-12019903D01*
X88252339Y-12013262D01*
X88255655Y-12010143D01*
X88245382Y-11982629D01*
X88216840Y-11916508D01*
X88173442Y-11819166D01*
X88118604Y-11697992D01*
X88055739Y-11560375D01*
X87988262Y-11413701D01*
X87919588Y-11265360D01*
X87853130Y-11122738D01*
X87792304Y-10993225D01*
X87740523Y-10884207D01*
X87701203Y-10803073D01*
X87677757Y-10757211D01*
X87673287Y-10750040D01*
X87660785Y-10768510D01*
X87632588Y-10826835D01*
X87591769Y-10917611D01*
X87541401Y-11033432D01*
X87484559Y-11166894D01*
X87424315Y-11310592D01*
X87363744Y-11457120D01*
X87305918Y-11599074D01*
X87253912Y-11729049D01*
X87210798Y-11839640D01*
X87179650Y-11923442D01*
X87163542Y-11973050D01*
X87162000Y-11981865D01*
X86707967Y-11981865D01*
X86741305Y-11961764D01*
X86808508Y-11958317D01*
X86844377Y-11962710D01*
X86950446Y-11978616D01*
X87545843Y-10528851D01*
X87651352Y-10272426D01*
X87751294Y-10030470D01*
X87843985Y-9806998D01*
X87927740Y-9606027D01*
X88000875Y-9431570D01*
X88061708Y-9287644D01*
X88108553Y-9178264D01*
X88139726Y-9107446D01*
X88153544Y-9079205D01*
X88153954Y-9078868D01*
X88166378Y-9101337D01*
X88198418Y-9166459D01*
X88248413Y-9270699D01*
X88314705Y-9410524D01*
X88395634Y-9582400D01*
X88489542Y-9782792D01*
X88594769Y-10008166D01*
X88709657Y-10254989D01*
X88832545Y-10519726D01*
X88961774Y-10798843D01*
X88983360Y-10845532D01*
X89800053Y-12612413D01*
X89171703Y-12612413D01*
X88543354Y-12612413D01*
X88447903Y-12409009D01*
X88352451Y-12205606D01*
X87878177Y-12205425D01*
X87714119Y-12204495D01*
X87554881Y-12202028D01*
X87412523Y-12198325D01*
X87299101Y-12193686D01*
X87236307Y-12189412D01*
X87068711Y-12173579D01*
X86999221Y-12348501D01*
X86947722Y-12472606D01*
X86906221Y-12555969D01*
X86868998Y-12606214D01*
X86830334Y-12630959D01*
X86784512Y-12637827D01*
X86782108Y-12637838D01*
X86717152Y-12622803D01*
X86692795Y-12589518D01*
X86697232Y-12537379D01*
X86729820Y-12452075D01*
X86771092Y-12370854D01*
X86818240Y-12280930D01*
X86840851Y-12224534D01*
X86841740Y-12192329D01*
X86829209Y-12178022D01*
X86780254Y-12157551D01*
X86763728Y-12155144D01*
X86722070Y-12137184D01*
X86678226Y-12097883D01*
X86654345Y-12057823D01*
X86653854Y-12053053D01*
X86670038Y-12019744D01*
X86696081Y-11989032D01*
X86707967Y-11981865D01*
G37*
G36*
X61353364Y-10918885D02*
G01*
X62855655Y-10918885D01*
X62855929Y-11193424D01*
X62856718Y-11452750D01*
X62857974Y-11692413D01*
X62859647Y-11907964D01*
X62861689Y-12094952D01*
X62864052Y-12248930D01*
X62866686Y-12365448D01*
X62869544Y-12440055D01*
X62872576Y-12468304D01*
X62872606Y-12468335D01*
X62912300Y-12481119D01*
X62990454Y-12486815D01*
X63095259Y-12486032D01*
X63214910Y-12479378D01*
X63337599Y-12467462D01*
X63451521Y-12450893D01*
X63529145Y-12434507D01*
X63781249Y-12345138D01*
X64007169Y-12215335D01*
X64204196Y-12049774D01*
X64369620Y-11853130D01*
X64500733Y-11630079D01*
X64594823Y-11385296D01*
X64649182Y-11123457D01*
X64661100Y-10849236D01*
X64627868Y-10567308D01*
X64623523Y-10546189D01*
X64542781Y-10282146D01*
X64419697Y-10042273D01*
X64258325Y-9830740D01*
X64062721Y-9651714D01*
X63836943Y-9509365D01*
X63585046Y-9407862D01*
X63491726Y-9382819D01*
X63403399Y-9367547D01*
X63293501Y-9356365D01*
X63175250Y-9349644D01*
X63061862Y-9347755D01*
X62966555Y-9351067D01*
X62902545Y-9359951D01*
X62887437Y-9365888D01*
X62880554Y-9380740D01*
X62874665Y-9417849D01*
X62869708Y-9480367D01*
X62865618Y-9571448D01*
X62862329Y-9694243D01*
X62859778Y-9851906D01*
X62857899Y-10047590D01*
X62856629Y-10284446D01*
X62855903Y-10565628D01*
X62855656Y-10894288D01*
X62855655Y-10918885D01*
X61353364Y-10918885D01*
X61356164Y-10738033D01*
X61379133Y-10529769D01*
X61407406Y-10400582D01*
X61507721Y-10132618D01*
X61648383Y-9891904D01*
X61825248Y-9681061D01*
X62034176Y-9502710D01*
X62271024Y-9359472D01*
X62531649Y-9253969D01*
X62811910Y-9188821D01*
X63107665Y-9166650D01*
X63336699Y-9179749D01*
X63635307Y-9236570D01*
X63907842Y-9335415D01*
X64151841Y-9474495D01*
X64364843Y-9652019D01*
X64544387Y-9866195D01*
X64688011Y-10115233D01*
X64719218Y-10185596D01*
X64783480Y-10366081D01*
X64824391Y-10550693D01*
X64844825Y-10755801D01*
X64848481Y-10921622D01*
X64825502Y-11230023D01*
X64757691Y-11514726D01*
X64644654Y-11776750D01*
X64485997Y-12017118D01*
X64377603Y-12142091D01*
X64177503Y-12324843D01*
X63962128Y-12464852D01*
X63725618Y-12564579D01*
X63462112Y-12626487D01*
X63165750Y-12653035D01*
X63160760Y-12653185D01*
X62949028Y-12654011D01*
X62780574Y-12642563D01*
X62677677Y-12625430D01*
X62580914Y-12597165D01*
X62459184Y-12552207D01*
X62332208Y-12498135D01*
X62271875Y-12469534D01*
X62030274Y-12322387D01*
X61820200Y-12136859D01*
X61644522Y-11916573D01*
X61506108Y-11665153D01*
X61407826Y-11386222D01*
X61404593Y-11373857D01*
X61368839Y-11179051D01*
X61352715Y-10960785D01*
X61353364Y-10918885D01*
G37*
G36*
X51454328Y-11989490D02*
G01*
X51900655Y-11989490D01*
X52057885Y-12004171D01*
X52156596Y-12011222D01*
X52278115Y-12016621D01*
X52413444Y-12020356D01*
X52553583Y-12022413D01*
X52689534Y-12022776D01*
X52812299Y-12021433D01*
X52912878Y-12018369D01*
X52982274Y-12013571D01*
X53011488Y-12007025D01*
X53011778Y-12005643D01*
X52989191Y-11952082D01*
X52950424Y-11865514D01*
X52898838Y-11753022D01*
X52837796Y-11621684D01*
X52770659Y-11478583D01*
X52700790Y-11330799D01*
X52631550Y-11185412D01*
X52566301Y-11049503D01*
X52508406Y-10930154D01*
X52461226Y-10834445D01*
X52428123Y-10769456D01*
X52412460Y-10742268D01*
X52411759Y-10741928D01*
X52399520Y-10767666D01*
X52370951Y-10834264D01*
X52328678Y-10935397D01*
X52275327Y-11064740D01*
X52213523Y-11215966D01*
X52150453Y-11371462D01*
X51900655Y-11989490D01*
X51454328Y-11989490D01*
X51496542Y-11966718D01*
X51582406Y-11959019D01*
X51613164Y-11962514D01*
X51706606Y-11977503D01*
X52301557Y-10526615D01*
X52406945Y-10270676D01*
X52506992Y-10029779D01*
X52600002Y-9807867D01*
X52684281Y-9608886D01*
X52758135Y-9436780D01*
X52819869Y-9295494D01*
X52867789Y-9188971D01*
X52900202Y-9121157D01*
X52915411Y-9095996D01*
X52916045Y-9096072D01*
X52929030Y-9121208D01*
X52961240Y-9188091D01*
X53010658Y-9292368D01*
X53075264Y-9429686D01*
X53153039Y-9595689D01*
X53241965Y-9786026D01*
X53340024Y-9996342D01*
X53445195Y-10222283D01*
X53555462Y-10459496D01*
X53668804Y-10703626D01*
X53783203Y-10950322D01*
X53896640Y-11195227D01*
X54007098Y-11433990D01*
X54112556Y-11662255D01*
X54210997Y-11875671D01*
X54300401Y-12069882D01*
X54378750Y-12240535D01*
X54444025Y-12383276D01*
X54494207Y-12493753D01*
X54527278Y-12567610D01*
X54541219Y-12600495D01*
X54541541Y-12601709D01*
X54517260Y-12604658D01*
X54448994Y-12607296D01*
X54343607Y-12609506D01*
X54207966Y-12611170D01*
X54048935Y-12612169D01*
X53916471Y-12612413D01*
X53291400Y-12612413D01*
X53199003Y-12409009D01*
X53106607Y-12205606D01*
X52565515Y-12200405D01*
X52397742Y-12198785D01*
X52241050Y-12197257D01*
X52104807Y-12195914D01*
X51998377Y-12194849D01*
X51931127Y-12194153D01*
X51921668Y-12194049D01*
X51818911Y-12192893D01*
X51723879Y-12409009D01*
X51677432Y-12511482D01*
X51642900Y-12575983D01*
X51613225Y-12611722D01*
X51581348Y-12627906D01*
X51552398Y-12632687D01*
X51492380Y-12632615D01*
X51457795Y-12622093D01*
X51440178Y-12570052D01*
X51458614Y-12491204D01*
X51497747Y-12414861D01*
X51542102Y-12337781D01*
X51579022Y-12265909D01*
X51585120Y-12252451D01*
X51601256Y-12203258D01*
X51584559Y-12179765D01*
X51546224Y-12167775D01*
X51459226Y-12132235D01*
X51418301Y-12079739D01*
X51414214Y-12050835D01*
X51436690Y-11999005D01*
X51454328Y-11989490D01*
G37*
G36*
X63295336Y-200306129D02*
G01*
X63318967Y-200376311D01*
X63356664Y-200486928D01*
X63407119Y-200634182D01*
X63469025Y-200814270D01*
X63541073Y-201023394D01*
X63621955Y-201257752D01*
X63710364Y-201513544D01*
X63804992Y-201786969D01*
X63898098Y-202055673D01*
X63997326Y-202342025D01*
X64091543Y-202614191D01*
X64179443Y-202868384D01*
X64259723Y-203100818D01*
X64331077Y-203307706D01*
X64392199Y-203485261D01*
X64441785Y-203629695D01*
X64478531Y-203737223D01*
X64501130Y-203804057D01*
X64508308Y-203826391D01*
X64484011Y-203829284D01*
X64415629Y-203831879D01*
X64309930Y-203834062D01*
X64173681Y-203835723D01*
X64013648Y-203836748D01*
X63864891Y-203837037D01*
X63221475Y-203837037D01*
X62922303Y-202919332D01*
X62855223Y-202714421D01*
X62792968Y-202525891D01*
X62737293Y-202358934D01*
X62689953Y-202218744D01*
X62652705Y-202110511D01*
X62627303Y-202039429D01*
X62615503Y-202010688D01*
X62614988Y-202010373D01*
X62602615Y-202034450D01*
X62570675Y-202099557D01*
X62521513Y-202200840D01*
X62457471Y-202333439D01*
X62380894Y-202492500D01*
X62294126Y-202673164D01*
X62199510Y-202870575D01*
X62156777Y-202959860D01*
X62059518Y-203162964D01*
X61969116Y-203351385D01*
X61887912Y-203520273D01*
X61818246Y-203664777D01*
X61762457Y-203780047D01*
X61722887Y-203861230D01*
X61701874Y-203903477D01*
X61699122Y-203908470D01*
X61684680Y-203890493D01*
X61650163Y-203835732D01*
X61600199Y-203751854D01*
X61539414Y-203646522D01*
X61514949Y-203603365D01*
X61449136Y-203486565D01*
X61365055Y-203337104D01*
X61269281Y-203166687D01*
X61168394Y-202987020D01*
X61068969Y-202809807D01*
X61035951Y-202750917D01*
X60951697Y-202602440D01*
X60875185Y-202471077D01*
X60809952Y-202362621D01*
X60759535Y-202282863D01*
X60727470Y-202237593D01*
X60717641Y-202229696D01*
X60706023Y-202257530D01*
X60680668Y-202327702D01*
X60643629Y-202434215D01*
X60596961Y-202571070D01*
X60542720Y-202732268D01*
X60482958Y-202911813D01*
X60454482Y-202997998D01*
X60391818Y-203186341D01*
X60332558Y-203361161D01*
X60278969Y-203516022D01*
X60233320Y-203644486D01*
X60197877Y-203740115D01*
X60174908Y-203796473D01*
X60169587Y-203806791D01*
X60118826Y-203852681D01*
X60066187Y-203857642D01*
X60007184Y-203842738D01*
X59976458Y-203811120D01*
X59973571Y-203756045D01*
X59998086Y-203670769D01*
X60046551Y-203555210D01*
X60071844Y-203492990D01*
X60111479Y-203387388D01*
X60163748Y-203243276D01*
X60226944Y-203065524D01*
X60299359Y-202859003D01*
X60379287Y-202628584D01*
X60465021Y-202379137D01*
X60554853Y-202115535D01*
X60647077Y-201842646D01*
X60653976Y-201822137D01*
X60743576Y-201556372D01*
X60828619Y-201305391D01*
X60907699Y-201073260D01*
X60979411Y-200864049D01*
X61042347Y-200681825D01*
X61095102Y-200530655D01*
X61136269Y-200414607D01*
X61164441Y-200337750D01*
X61178214Y-200304150D01*
X61179176Y-200302967D01*
X61193463Y-200324802D01*
X61228609Y-200387304D01*
X61282195Y-200485930D01*
X61351803Y-200616138D01*
X61435015Y-200773384D01*
X61529412Y-200953127D01*
X61632575Y-201150822D01*
X61713106Y-201305940D01*
X61821180Y-201513235D01*
X61922563Y-201705151D01*
X62014819Y-201877258D01*
X62095511Y-202025128D01*
X62162202Y-202144332D01*
X62212457Y-202230443D01*
X62243837Y-202279030D01*
X62253527Y-202288175D01*
X62269007Y-202261786D01*
X62304913Y-202194678D01*
X62358816Y-202091558D01*
X62428291Y-201957133D01*
X62510912Y-201796112D01*
X62604253Y-201613202D01*
X62705886Y-201413112D01*
X62780300Y-201266069D01*
X62885418Y-201058414D01*
X62983184Y-200866000D01*
X63071293Y-200693314D01*
X63147438Y-200544839D01*
X63209315Y-200425062D01*
X63254617Y-200338468D01*
X63281038Y-200289542D01*
X63287079Y-200280184D01*
X63295336Y-200306129D01*
G37*
G36*
X87530019Y-89797499D02*
G01*
X87552280Y-89797499D01*
X87558646Y-90256798D01*
X87611559Y-90714778D01*
X87710639Y-91166963D01*
X87855506Y-91608876D01*
X88045780Y-92036040D01*
X88134557Y-92201844D01*
X88381730Y-92590498D01*
X88666842Y-92948467D01*
X88986139Y-93273787D01*
X89335865Y-93564492D01*
X89712267Y-93818617D01*
X90111589Y-94034197D01*
X90530078Y-94209267D01*
X90963977Y-94341862D01*
X91409533Y-94430018D01*
X91862991Y-94471767D01*
X92320597Y-94465147D01*
X92440078Y-94455232D01*
X92918226Y-94384199D01*
X93376935Y-94267316D01*
X93813986Y-94106583D01*
X94227164Y-93903994D01*
X94614250Y-93661549D01*
X94973027Y-93381244D01*
X95301277Y-93065075D01*
X95596784Y-92715041D01*
X95857331Y-92333137D01*
X96080699Y-91921362D01*
X96264671Y-91481712D01*
X96407031Y-91016184D01*
X96446845Y-90846447D01*
X96465918Y-90752977D01*
X96480334Y-90665926D01*
X96490724Y-90575854D01*
X96497718Y-90473319D01*
X96501949Y-90348882D01*
X96504046Y-90193101D01*
X96504643Y-89996537D01*
X96504644Y-89981982D01*
X96502788Y-89735953D01*
X96496044Y-89528913D01*
X96482649Y-89349099D01*
X96460840Y-89184744D01*
X96428853Y-89024084D01*
X96384925Y-88855354D01*
X96327293Y-88666789D01*
X96290871Y-88555634D01*
X96119182Y-88118926D01*
X95904115Y-87706091D01*
X95648540Y-87319857D01*
X95355324Y-86962950D01*
X95027337Y-86638098D01*
X94667447Y-86348029D01*
X94278522Y-86095468D01*
X93863431Y-85883145D01*
X93425042Y-85713785D01*
X93243923Y-85658715D01*
X92824200Y-85565034D01*
X92384982Y-85512639D01*
X91936588Y-85501625D01*
X91489338Y-85532085D01*
X91053556Y-85604116D01*
X90912768Y-85637344D01*
X90470282Y-85775939D01*
X90047294Y-85959926D01*
X89646762Y-86186612D01*
X89271645Y-86453304D01*
X88924901Y-86757307D01*
X88609489Y-87095928D01*
X88328368Y-87466474D01*
X88084496Y-87866251D01*
X87880832Y-88292565D01*
X87816271Y-88456457D01*
X87680712Y-88892852D01*
X87592842Y-89341358D01*
X87552280Y-89797499D01*
X87530019Y-89797499D01*
X87544792Y-89519253D01*
X87616391Y-89066829D01*
X87733618Y-88623550D01*
X87894777Y-88193725D01*
X88098176Y-87781666D01*
X88342119Y-87391683D01*
X88624913Y-87028088D01*
X88944864Y-86695192D01*
X89052997Y-86597443D01*
X89427197Y-86303037D01*
X89822674Y-86052973D01*
X90235961Y-85847349D01*
X90663587Y-85686264D01*
X91102083Y-85569815D01*
X91547980Y-85498102D01*
X91997807Y-85471221D01*
X92448096Y-85489271D01*
X92895377Y-85552350D01*
X93336180Y-85660556D01*
X93767036Y-85813988D01*
X94184475Y-86012744D01*
X94585028Y-86256921D01*
X94827134Y-86434110D01*
X94983268Y-86565962D01*
X95153904Y-86726216D01*
X95326827Y-86902175D01*
X95489823Y-87081140D01*
X95630674Y-87250413D01*
X95696401Y-87337738D01*
X95952266Y-87737649D01*
X96165876Y-88162305D01*
X96334989Y-88606011D01*
X96457367Y-89063069D01*
X96519762Y-89431700D01*
X96535548Y-89616943D01*
X96542174Y-89836218D01*
X96540171Y-90074438D01*
X96530070Y-90316520D01*
X96512402Y-90547378D01*
X96487697Y-90751929D01*
X96469654Y-90856072D01*
X96351405Y-91318265D01*
X96187204Y-91761317D01*
X95979302Y-92182284D01*
X95729947Y-92578222D01*
X95441391Y-92946186D01*
X95115884Y-93283235D01*
X94755675Y-93586422D01*
X94363014Y-93852805D01*
X94044762Y-94028584D01*
X93672723Y-94191721D01*
X93274850Y-94322947D01*
X92862211Y-94420082D01*
X92445876Y-94480947D01*
X92036911Y-94503359D01*
X91700801Y-94490328D01*
X91220856Y-94424273D01*
X90759632Y-94312457D01*
X90319440Y-94157139D01*
X89902594Y-93960575D01*
X89511406Y-93725021D01*
X89148187Y-93452736D01*
X88815251Y-93145976D01*
X88514910Y-92806998D01*
X88249476Y-92438059D01*
X88021261Y-92041417D01*
X87832579Y-91619328D01*
X87685741Y-91174049D01*
X87583060Y-90707838D01*
X87545251Y-90434286D01*
X87520514Y-89976509D01*
X87530019Y-89797499D01*
G37*
G36*
X37484497Y-89981982D02*
G01*
X37520780Y-89981982D01*
X37522616Y-90227554D01*
X37529313Y-90434189D01*
X37542656Y-90613711D01*
X37564430Y-90777941D01*
X37596419Y-90938701D01*
X37640409Y-91107813D01*
X37698184Y-91297099D01*
X37737413Y-91416882D01*
X37909739Y-91855817D01*
X38124742Y-92269365D01*
X38379729Y-92655108D01*
X38672007Y-93010625D01*
X38998883Y-93333495D01*
X39357666Y-93621300D01*
X39745661Y-93871618D01*
X40160177Y-94082031D01*
X40598520Y-94250117D01*
X41017214Y-94364556D01*
X41389201Y-94433968D01*
X41741669Y-94470093D01*
X42092469Y-94474132D01*
X42375475Y-94455868D01*
X42855150Y-94386017D01*
X43317894Y-94269111D01*
X43761314Y-94106256D01*
X44183019Y-93898560D01*
X44580618Y-93647131D01*
X44951718Y-93353077D01*
X45142865Y-93174367D01*
X45462753Y-92822762D01*
X45740347Y-92445123D01*
X45974835Y-92044831D01*
X46165406Y-91625264D01*
X46311247Y-91189803D01*
X46411545Y-90741827D01*
X46465489Y-90284716D01*
X46472265Y-89821850D01*
X46431063Y-89356609D01*
X46341068Y-88892372D01*
X46249141Y-88571455D01*
X46157036Y-88324914D01*
X46036783Y-88058825D01*
X45896414Y-87789368D01*
X45743962Y-87532727D01*
X45699871Y-87464865D01*
X45537358Y-87243203D01*
X45340370Y-87012040D01*
X45120638Y-86783110D01*
X44889893Y-86568145D01*
X44659866Y-86378880D01*
X44498498Y-86263258D01*
X44080298Y-86014547D01*
X43647436Y-85814499D01*
X43200585Y-85663294D01*
X42740421Y-85561112D01*
X42267617Y-85508132D01*
X41782847Y-85504534D01*
X41676276Y-85510282D01*
X41211130Y-85565221D01*
X40759805Y-85667535D01*
X40325287Y-85814915D01*
X39910565Y-86005053D01*
X39518628Y-86235640D01*
X39152464Y-86504368D01*
X38815061Y-86808927D01*
X38509407Y-87147009D01*
X38238490Y-87516306D01*
X38005299Y-87914508D01*
X37812822Y-88339308D01*
X37734554Y-88555634D01*
X37669003Y-88759359D01*
X37618085Y-88937058D01*
X37580035Y-89100498D01*
X37553090Y-89261442D01*
X37535488Y-89431656D01*
X37525464Y-89622904D01*
X37521256Y-89846953D01*
X37520780Y-89981982D01*
X37484497Y-89981982D01*
X37483349Y-89881353D01*
X37491045Y-89630368D01*
X37509843Y-89407863D01*
X37517373Y-89351285D01*
X37611856Y-88873927D01*
X37751862Y-88419130D01*
X37937133Y-87987395D01*
X38167410Y-87579226D01*
X38442435Y-87195127D01*
X38761949Y-86835600D01*
X38860263Y-86738527D01*
X39126291Y-86498085D01*
X39387535Y-86294445D01*
X39658403Y-86117315D01*
X39953301Y-85956405D01*
X39960060Y-85953024D01*
X40393471Y-85763639D01*
X40835250Y-85622430D01*
X41282164Y-85528303D01*
X41730980Y-85480165D01*
X42178463Y-85476922D01*
X42621382Y-85517481D01*
X43056502Y-85600749D01*
X43480592Y-85725631D01*
X43890416Y-85891034D01*
X44282743Y-86095866D01*
X44654339Y-86339031D01*
X45001970Y-86619437D01*
X45322404Y-86935991D01*
X45612407Y-87287598D01*
X45868746Y-87673166D01*
X46051167Y-88013099D01*
X46235633Y-88452166D01*
X46371866Y-88903575D01*
X46459879Y-89363602D01*
X46499687Y-89828525D01*
X46491303Y-90294619D01*
X46434741Y-90758163D01*
X46330014Y-91215432D01*
X46177137Y-91662705D01*
X46036561Y-91977878D01*
X45803504Y-92395026D01*
X45531715Y-92780691D01*
X45223919Y-93132844D01*
X44882836Y-93449453D01*
X44511189Y-93728489D01*
X44111701Y-93967921D01*
X43687094Y-94165718D01*
X43240090Y-94319850D01*
X42773413Y-94428287D01*
X42744144Y-94433417D01*
X42537409Y-94461991D01*
X42305179Y-94482478D01*
X42064488Y-94494181D01*
X41832371Y-94496405D01*
X41625862Y-94488453D01*
X41552705Y-94482106D01*
X41245970Y-94439552D01*
X40944416Y-94375325D01*
X40627284Y-94284869D01*
X40570270Y-94266537D01*
X40132118Y-94097377D01*
X39718203Y-93885086D01*
X39331042Y-93632509D01*
X38973150Y-93342492D01*
X38647042Y-93017883D01*
X38355236Y-92661526D01*
X38100246Y-92276269D01*
X37884590Y-91864957D01*
X37710782Y-91430438D01*
X37581339Y-90975556D01*
X37555617Y-90856072D01*
X37522890Y-90648180D01*
X37499671Y-90405962D01*
X37486357Y-90145119D01*
X37484497Y-89981982D01*
G37*
G36*
X37494902Y-131005906D02*
G01*
X37520175Y-131005906D01*
X37520419Y-131204612D01*
X37522322Y-131362497D01*
X37526546Y-131489580D01*
X37533753Y-131595883D01*
X37544606Y-131691423D01*
X37559767Y-131786222D01*
X37578050Y-131881200D01*
X37697873Y-132347106D01*
X37863870Y-132793732D01*
X38074152Y-133218152D01*
X38326829Y-133617438D01*
X38620009Y-133988666D01*
X38951802Y-134328907D01*
X39320319Y-134635237D01*
X39390213Y-134686411D01*
X39551216Y-134792839D01*
X39744359Y-134906029D01*
X39955398Y-135018735D01*
X40170090Y-135123713D01*
X40374190Y-135213719D01*
X40553454Y-135281510D01*
X40572841Y-135287879D01*
X41043181Y-135413965D01*
X41513766Y-135489491D01*
X41983820Y-135514373D01*
X42417276Y-135492245D01*
X42894137Y-135419052D01*
X43354039Y-135298696D01*
X43794355Y-135132767D01*
X44212459Y-134922856D01*
X44605724Y-134670555D01*
X44971525Y-134377455D01*
X45307233Y-134045147D01*
X45610224Y-133675222D01*
X45751579Y-133472173D01*
X45978952Y-133081319D01*
X46165744Y-132664451D01*
X46310264Y-132228247D01*
X46410824Y-131779382D01*
X46465733Y-131324531D01*
X46473304Y-130870372D01*
X46460904Y-130669019D01*
X46413841Y-130280580D01*
X46340480Y-129922061D01*
X46236318Y-129577443D01*
X46096852Y-129230702D01*
X45998219Y-129022723D01*
X45763050Y-128606092D01*
X45489519Y-128221665D01*
X45180077Y-127871312D01*
X44837176Y-127556904D01*
X44463267Y-127280314D01*
X44060803Y-127043411D01*
X43632235Y-126848067D01*
X43180014Y-126696153D01*
X42843962Y-126615288D01*
X42739030Y-126595269D01*
X42642291Y-126580294D01*
X42543456Y-126569659D01*
X42432233Y-126562664D01*
X42298333Y-126558607D01*
X42131466Y-126556786D01*
X41981381Y-126556466D01*
X41784414Y-126557074D01*
X41628197Y-126559354D01*
X41502638Y-126563996D01*
X41397646Y-126571694D01*
X41303129Y-126583139D01*
X41208996Y-126599024D01*
X41129629Y-126614882D01*
X40656386Y-126738600D01*
X40207642Y-126905919D01*
X39785415Y-127114826D01*
X39391723Y-127363313D01*
X39028582Y-127649366D01*
X38698011Y-127970976D01*
X38402026Y-128326132D01*
X38142646Y-128712822D01*
X37921888Y-129129036D01*
X37741770Y-129572763D01*
X37604308Y-130041992D01*
X37578755Y-130154155D01*
X37559438Y-130249460D01*
X37544878Y-130338749D01*
X37534408Y-130431695D01*
X37527365Y-130537972D01*
X37523082Y-130667255D01*
X37520894Y-130829219D01*
X37520175Y-131005906D01*
X37494902Y-131005906D01*
X37497354Y-130759507D01*
X37504921Y-130551734D01*
X37519454Y-130370464D01*
X37542803Y-130203578D01*
X37576817Y-130038955D01*
X37623348Y-129864474D01*
X37684244Y-129668014D01*
X37711987Y-129583720D01*
X37884819Y-129143072D01*
X38100101Y-128728531D01*
X38355463Y-128342179D01*
X38648536Y-127986098D01*
X38976953Y-127662369D01*
X39338344Y-127373076D01*
X39730341Y-127120300D01*
X40150575Y-126906123D01*
X40596677Y-126732627D01*
X41066279Y-126601895D01*
X41116917Y-126590720D01*
X41212420Y-126571431D01*
X41302070Y-126556890D01*
X41395549Y-126546430D01*
X41502541Y-126539386D01*
X41632729Y-126535091D01*
X41795795Y-126532880D01*
X41968668Y-126532140D01*
X42167506Y-126532336D01*
X42325494Y-126534206D01*
X42452625Y-126538406D01*
X42558891Y-126545591D01*
X42654282Y-126556416D01*
X42748792Y-126571536D01*
X42841620Y-126589414D01*
X43312386Y-126709729D01*
X43759658Y-126873961D01*
X44181300Y-127079878D01*
X44575179Y-127325249D01*
X44939158Y-127607844D01*
X45271103Y-127925432D01*
X45568880Y-128275781D01*
X45830353Y-128656661D01*
X46053387Y-129065840D01*
X46235847Y-129501089D01*
X46375599Y-129960174D01*
X46459665Y-130370271D01*
X46478352Y-130533672D01*
X46489324Y-130733631D01*
X46492822Y-130956480D01*
X46489084Y-131188551D01*
X46478349Y-131416177D01*
X46460858Y-131625691D01*
X46436850Y-131803424D01*
X46434312Y-131817758D01*
X46372766Y-132094692D01*
X46287434Y-132389690D01*
X46185487Y-132680474D01*
X46074098Y-132944768D01*
X46065684Y-132962646D01*
X45842087Y-133375731D01*
X45578155Y-133760589D01*
X45277237Y-134114671D01*
X44942677Y-134435427D01*
X44577821Y-134720309D01*
X44186016Y-134966767D01*
X43770608Y-135172252D01*
X43334943Y-135334214D01*
X42882366Y-135450106D01*
X42774088Y-135470350D01*
X42640169Y-135489419D01*
X42476951Y-135506162D01*
X42296953Y-135519937D01*
X42112694Y-135530101D01*
X41936695Y-135536012D01*
X41781474Y-135537027D01*
X41659551Y-135532504D01*
X41625425Y-135529303D01*
X41266116Y-135478694D01*
X40944520Y-135415153D01*
X40648490Y-135335751D01*
X40365883Y-135237563D01*
X40290590Y-135207567D01*
X39855855Y-135003066D01*
X39450593Y-134758205D01*
X39076804Y-134475418D01*
X38736491Y-134157138D01*
X38431655Y-133805798D01*
X38164298Y-133423831D01*
X37936420Y-133013670D01*
X37750024Y-132577748D01*
X37607112Y-132118497D01*
X37552176Y-131878858D01*
X37532616Y-131776568D01*
X37517943Y-131682412D01*
X37507502Y-131586400D01*
X37500638Y-131478538D01*
X37496694Y-131348836D01*
X37495016Y-131187302D01*
X37494902Y-131005906D01*
G37*
G36*
X87532638Y-130995696D02*
G01*
X87550446Y-130995696D01*
X87572620Y-131469490D01*
X87644646Y-131939595D01*
X87766522Y-132403021D01*
X87785771Y-132461854D01*
X87957058Y-132895975D01*
X88170064Y-133304148D01*
X88421649Y-133684346D01*
X88708676Y-134034543D01*
X89028005Y-134352714D01*
X89376497Y-134636831D01*
X89751015Y-134884869D01*
X90148419Y-135094801D01*
X90565570Y-135264602D01*
X90999330Y-135392246D01*
X91446560Y-135475706D01*
X91904122Y-135512956D01*
X92368877Y-135501970D01*
X92479938Y-135492053D01*
X92884399Y-135432111D01*
X93289577Y-135336826D01*
X93454572Y-135287229D01*
X93626566Y-135223842D01*
X93825596Y-135137464D01*
X94037700Y-135035184D01*
X94248915Y-134924092D01*
X94445278Y-134811277D01*
X94612828Y-134703829D01*
X94637437Y-134686610D01*
X94776616Y-134579248D01*
X94935247Y-134442958D01*
X95102843Y-134287984D01*
X95268918Y-134124570D01*
X95422988Y-133962959D01*
X95554564Y-133813395D01*
X95633343Y-133713714D01*
X95900253Y-133310535D01*
X96120317Y-132887924D01*
X96293892Y-132445008D01*
X96421337Y-131980914D01*
X96483498Y-131641593D01*
X96504685Y-131440041D01*
X96515354Y-131205669D01*
X96515901Y-130953620D01*
X96506722Y-130699033D01*
X96488215Y-130457049D01*
X96460775Y-130242809D01*
X96444523Y-130154155D01*
X96322498Y-129685876D01*
X96156437Y-129240987D01*
X95948512Y-128821656D01*
X95700898Y-128430052D01*
X95415769Y-128068342D01*
X95095299Y-127738694D01*
X94741662Y-127443276D01*
X94357030Y-127184256D01*
X93943579Y-126963803D01*
X93503482Y-126784083D01*
X93038913Y-126647265D01*
X92895796Y-126615056D01*
X92795137Y-126595199D01*
X92702055Y-126580328D01*
X92606464Y-126569750D01*
X92498282Y-126562770D01*
X92367424Y-126558695D01*
X92203807Y-126556831D01*
X92044044Y-126556466D01*
X91846295Y-126557088D01*
X91689097Y-126559429D01*
X91562159Y-126564191D01*
X91455192Y-126572075D01*
X91357905Y-126583783D01*
X91260009Y-126600017D01*
X91181463Y-126615288D01*
X90718229Y-126734509D01*
X90273154Y-126899894D01*
X89849569Y-127109291D01*
X89450806Y-127360549D01*
X89080195Y-127651518D01*
X88741069Y-127980045D01*
X88436757Y-128343981D01*
X88376252Y-128426571D01*
X88277582Y-128575987D01*
X88170829Y-128757065D01*
X88062974Y-128956208D01*
X87960998Y-129159816D01*
X87871881Y-129354292D01*
X87802603Y-129526038D01*
X87783073Y-129582082D01*
X87655670Y-130049001D01*
X87578129Y-130521203D01*
X87550446Y-130995696D01*
X87532638Y-130995696D01*
X87532406Y-130983965D01*
X87534844Y-130762063D01*
X87544495Y-130561112D01*
X87561592Y-130394601D01*
X87565323Y-130370271D01*
X87652601Y-129942854D01*
X87771870Y-129543843D01*
X87927703Y-129158816D01*
X87992706Y-129022723D01*
X88227455Y-128605638D01*
X88500944Y-128220198D01*
X88810659Y-127868322D01*
X89154082Y-127551928D01*
X89528697Y-127272936D01*
X89931990Y-127033263D01*
X90361443Y-126834829D01*
X90814540Y-126679551D01*
X91183805Y-126589414D01*
X91286095Y-126569854D01*
X91380251Y-126555181D01*
X91476263Y-126544740D01*
X91584125Y-126537875D01*
X91713827Y-126533932D01*
X91875361Y-126532254D01*
X92056756Y-126532140D01*
X92255627Y-126533097D01*
X92413338Y-126535568D01*
X92539570Y-126540219D01*
X92644008Y-126547716D01*
X92736334Y-126558725D01*
X92826232Y-126573912D01*
X92908508Y-126590720D01*
X93350530Y-126706632D01*
X93772796Y-126858756D01*
X94167127Y-127043770D01*
X94484885Y-127231377D01*
X94880503Y-127520497D01*
X95237129Y-127842044D01*
X95554051Y-128194969D01*
X95830556Y-128578222D01*
X96065931Y-128990756D01*
X96259462Y-129431522D01*
X96410437Y-129899471D01*
X96472095Y-130154155D01*
X96491412Y-130249460D01*
X96505973Y-130338749D01*
X96516442Y-130431695D01*
X96523485Y-130537972D01*
X96527768Y-130667255D01*
X96529956Y-130829219D01*
X96530676Y-131005906D01*
X96530424Y-131204842D01*
X96528505Y-131362933D01*
X96524259Y-131490175D01*
X96517030Y-131596564D01*
X96506160Y-131692096D01*
X96490991Y-131786766D01*
X96473249Y-131878858D01*
X96355949Y-132339938D01*
X96195591Y-132781645D01*
X95994540Y-133198137D01*
X95825049Y-133480438D01*
X95537845Y-133873658D01*
X95217297Y-134229024D01*
X94865433Y-134545208D01*
X94484284Y-134820888D01*
X94075880Y-135054736D01*
X93642249Y-135245430D01*
X93185422Y-135391642D01*
X92755956Y-135484134D01*
X92618677Y-135501910D01*
X92447490Y-135516055D01*
X92256285Y-135526177D01*
X92058956Y-135531889D01*
X91869394Y-135532799D01*
X91701491Y-135528518D01*
X91569140Y-135518655D01*
X91560961Y-135517671D01*
X91253028Y-135471578D01*
X90972746Y-135412098D01*
X90697619Y-135334278D01*
X90632933Y-135313340D01*
X90187244Y-135139877D01*
X89767630Y-134924120D01*
X89376406Y-134668736D01*
X89015890Y-134376392D01*
X88688398Y-134049753D01*
X88396246Y-133691486D01*
X88141753Y-133304257D01*
X87927234Y-132890734D01*
X87755006Y-132453581D01*
X87627386Y-131995466D01*
X87590139Y-131811325D01*
X87566047Y-131640499D01*
X87548240Y-131436671D01*
X87536948Y-131213331D01*
X87532638Y-130995696D01*
G37*
G36*
X47491596Y-156124105D02*
G01*
X47507430Y-156124105D01*
X47539266Y-156712305D01*
X47621952Y-157300625D01*
X47717022Y-157740741D01*
X47882813Y-158305757D01*
X48092870Y-158848346D01*
X48344951Y-159366637D01*
X48636810Y-159858759D01*
X48966205Y-160322840D01*
X49330890Y-160757011D01*
X49728623Y-161159399D01*
X50157159Y-161528135D01*
X50614254Y-161861347D01*
X51097665Y-162157164D01*
X51605147Y-162413715D01*
X52134457Y-162629130D01*
X52683350Y-162801537D01*
X53249583Y-162929066D01*
X53830911Y-163009845D01*
X54058458Y-163028097D01*
X54402899Y-163039622D01*
X54772892Y-163033158D01*
X55146687Y-163009370D01*
X55350923Y-162988571D01*
X55926559Y-162895860D01*
X56490236Y-162754511D01*
X57039197Y-162565898D01*
X57570686Y-162331393D01*
X58081947Y-162052370D01*
X58570221Y-161730203D01*
X59032753Y-161366265D01*
X59466786Y-160961929D01*
X59512212Y-160915518D01*
X59914631Y-160465199D01*
X60272815Y-159989998D01*
X60586248Y-159491002D01*
X60854415Y-158969302D01*
X61076799Y-158425984D01*
X61252884Y-157862139D01*
X61382155Y-157278853D01*
X61447691Y-156832601D01*
X61463474Y-156649473D01*
X61473535Y-156430569D01*
X61478057Y-156187980D01*
X61477221Y-155933797D01*
X61471208Y-155680114D01*
X61460199Y-155439021D01*
X61444377Y-155222610D01*
X61423921Y-155042974D01*
X61420507Y-155020221D01*
X61302958Y-154426905D01*
X61138701Y-153852689D01*
X60928506Y-153299123D01*
X60673142Y-152767760D01*
X60373376Y-152260150D01*
X60029977Y-151777843D01*
X59643713Y-151322392D01*
X59527226Y-151199107D01*
X59088369Y-150780578D01*
X58624527Y-150406286D01*
X58136404Y-150076582D01*
X57624705Y-149791818D01*
X57090134Y-149552346D01*
X56533396Y-149358517D01*
X55955194Y-149210684D01*
X55356233Y-149109198D01*
X55338211Y-149106906D01*
X55151356Y-149088733D01*
X54929075Y-149075728D01*
X54685366Y-149068002D01*
X54434229Y-149065664D01*
X54189659Y-149068822D01*
X53965657Y-149077586D01*
X53776220Y-149092066D01*
X53753353Y-149094544D01*
X53165643Y-149185824D01*
X52594794Y-149323550D01*
X52042956Y-149505846D01*
X51512280Y-149730837D01*
X51004916Y-149996648D01*
X50523014Y-150301403D01*
X50068725Y-150643227D01*
X49644198Y-151020244D01*
X49251584Y-151430580D01*
X48893033Y-151872359D01*
X48570695Y-152343706D01*
X48286721Y-152842745D01*
X48043261Y-153367600D01*
X47842465Y-153916398D01*
X47717022Y-154359160D01*
X47596308Y-154947638D01*
X47526444Y-155535918D01*
X47507430Y-156124105D01*
X47491596Y-156124105D01*
X47491249Y-156092194D01*
X47492331Y-155869709D01*
X47496892Y-155657045D01*
X47504933Y-155466314D01*
X47516453Y-155309625D01*
X47521714Y-155261762D01*
X47621459Y-154655703D01*
X47767479Y-154070331D01*
X47959637Y-153506024D01*
X48197796Y-152963161D01*
X48481819Y-152442121D01*
X48618965Y-152223424D01*
X48796348Y-151962064D01*
X48972264Y-151725959D01*
X49158070Y-151501274D01*
X49365120Y-151274178D01*
X49568664Y-151066567D01*
X50010410Y-150662620D01*
X50477885Y-150301752D01*
X50968777Y-149984618D01*
X51480776Y-149711875D01*
X52011571Y-149484179D01*
X52558851Y-149302186D01*
X53120307Y-149166553D01*
X53693626Y-149077935D01*
X54276499Y-149036990D01*
X54866615Y-149044373D01*
X55461662Y-149100740D01*
X56059331Y-149206749D01*
X56091766Y-149213928D01*
X56636328Y-149361409D01*
X57169264Y-149556523D01*
X57686825Y-149796663D01*
X58185259Y-150079226D01*
X58660818Y-150401607D01*
X59109751Y-150761200D01*
X59528309Y-151155401D01*
X59912741Y-151581605D01*
X60259297Y-152037207D01*
X60350936Y-152172573D01*
X60652061Y-152670664D01*
X60907387Y-153182747D01*
X61118762Y-153713557D01*
X61288035Y-154267823D01*
X61417055Y-154850280D01*
X61433664Y-154943944D01*
X61460371Y-155139342D01*
X61481216Y-155372808D01*
X61495948Y-155631871D01*
X61504314Y-155904059D01*
X61506064Y-156176900D01*
X61500946Y-156437923D01*
X61488708Y-156674655D01*
X61472110Y-156850851D01*
X61374184Y-157451440D01*
X61229648Y-158033057D01*
X61039773Y-158593859D01*
X60805830Y-159132000D01*
X60529088Y-159645634D01*
X60210818Y-160132916D01*
X59852291Y-160592002D01*
X59454778Y-161021046D01*
X59019548Y-161418202D01*
X58547874Y-161781626D01*
X58041024Y-162109472D01*
X57732432Y-162282066D01*
X57256693Y-162507263D01*
X56750979Y-162697048D01*
X56223364Y-162849742D01*
X55681923Y-162963667D01*
X55134730Y-163037144D01*
X54589861Y-163068495D01*
X54055390Y-163056041D01*
X54020497Y-163053625D01*
X53423159Y-162985406D01*
X52838940Y-162868210D01*
X52268994Y-162702483D01*
X51714474Y-162488673D01*
X51176536Y-162227225D01*
X50656333Y-161918586D01*
X50155020Y-161563203D01*
X50142943Y-161553880D01*
X50001308Y-161437155D01*
X49837664Y-161290523D01*
X49661792Y-161123764D01*
X49483472Y-160946660D01*
X49312486Y-160768992D01*
X49158614Y-160600541D01*
X49031639Y-160451087D01*
X48999473Y-160410411D01*
X48641797Y-159909471D01*
X48332559Y-159393696D01*
X48071100Y-158861496D01*
X47856762Y-158311279D01*
X47688887Y-157741453D01*
X47566817Y-157150428D01*
X47521714Y-156838139D01*
X47508879Y-156697473D01*
X47499523Y-156518187D01*
X47493646Y-156312390D01*
X47491596Y-156124105D01*
G37*
G36*
X22468273Y-180954971D02*
G01*
X22485098Y-180954971D01*
X22497080Y-181508569D01*
X22553174Y-182061790D01*
X22653911Y-182611939D01*
X22799820Y-183156324D01*
X22991431Y-183692250D01*
X23229274Y-184217022D01*
X23513878Y-184727949D01*
X23677385Y-184982592D01*
X24027109Y-185457830D01*
X24412882Y-185898452D01*
X24832175Y-186302977D01*
X25282464Y-186669919D01*
X25761220Y-186997798D01*
X26265917Y-187285131D01*
X26794028Y-187530434D01*
X27343027Y-187732225D01*
X27910387Y-187889022D01*
X28493582Y-187999341D01*
X28900000Y-188047241D01*
X29070248Y-188057400D01*
X29277077Y-188061806D01*
X29506582Y-188060812D01*
X29744860Y-188054772D01*
X29978009Y-188044040D01*
X30192125Y-188028970D01*
X30373305Y-188009914D01*
X30374674Y-188009735D01*
X30964873Y-187907124D01*
X31537940Y-187756908D01*
X32092229Y-187559916D01*
X32626095Y-187316978D01*
X33137891Y-187028922D01*
X33625971Y-186696579D01*
X34088691Y-186320778D01*
X34495115Y-185932703D01*
X34896471Y-185483997D01*
X35252926Y-185011474D01*
X35564320Y-184515479D01*
X35830497Y-183996359D01*
X36051298Y-183454456D01*
X36226566Y-182890117D01*
X36356143Y-182303686D01*
X36439872Y-181695508D01*
X36441496Y-181678779D01*
X36453078Y-181504575D01*
X36458840Y-181294853D01*
X36459118Y-181062797D01*
X36454254Y-180821592D01*
X36444583Y-180584423D01*
X36430446Y-180364472D01*
X36412181Y-180174926D01*
X36400695Y-180089690D01*
X36283491Y-179485548D01*
X36121472Y-178905313D01*
X35914737Y-178349183D01*
X35663386Y-177817358D01*
X35367518Y-177310034D01*
X35027232Y-176827412D01*
X34642627Y-176369688D01*
X34418027Y-176134423D01*
X33977875Y-175727989D01*
X33511271Y-175364946D01*
X33018572Y-175045470D01*
X32500136Y-174769743D01*
X31956318Y-174537943D01*
X31387475Y-174350249D01*
X30793964Y-174206841D01*
X30463663Y-174147928D01*
X30309068Y-174129490D01*
X30115041Y-174115425D01*
X29892283Y-174105735D01*
X29651494Y-174100420D01*
X29403375Y-174099482D01*
X29158625Y-174102921D01*
X28927945Y-174110739D01*
X28722035Y-174122935D01*
X28551595Y-174139510D01*
X28493193Y-174147773D01*
X27900441Y-174263932D01*
X27338747Y-174418421D01*
X26804040Y-174612802D01*
X26292247Y-174848640D01*
X25799298Y-175127498D01*
X25589205Y-175262966D01*
X25113169Y-175610964D01*
X24674887Y-175990912D01*
X24274888Y-176400116D01*
X23913703Y-176835882D01*
X23591862Y-177295516D01*
X23309894Y-177776324D01*
X23068329Y-178275612D01*
X22867697Y-178790687D01*
X22708528Y-179318854D01*
X22591352Y-179857420D01*
X22516699Y-180403690D01*
X22485098Y-180954971D01*
X22468273Y-180954971D01*
X22472827Y-180742177D01*
X22485752Y-180477069D01*
X22505567Y-180237604D01*
X22527250Y-180066981D01*
X22645097Y-179466307D01*
X22808565Y-178886772D01*
X23016651Y-178329954D01*
X23268350Y-177797432D01*
X23562659Y-177290783D01*
X23898576Y-176811588D01*
X24275097Y-176361423D01*
X24691218Y-175941867D01*
X25145936Y-175554499D01*
X25607407Y-175221306D01*
X26110661Y-174916697D01*
X26635296Y-174657329D01*
X27178394Y-174443778D01*
X27737033Y-174276618D01*
X28308295Y-174156422D01*
X28889258Y-174083765D01*
X29477004Y-174059221D01*
X30068613Y-174083365D01*
X30661164Y-174156770D01*
X30849343Y-174190533D01*
X31402017Y-174322713D01*
X31945368Y-174503140D01*
X32474844Y-174729435D01*
X32985893Y-174999216D01*
X33473962Y-175310105D01*
X33934499Y-175659723D01*
X34322043Y-176005874D01*
X34598758Y-176284398D01*
X34842216Y-176555732D01*
X35064953Y-176834794D01*
X35279507Y-177136498D01*
X35307664Y-177178479D01*
X35608137Y-177668055D01*
X35863080Y-178168451D01*
X36074630Y-178685233D01*
X36244920Y-179223965D01*
X36376087Y-179790215D01*
X36431086Y-180107356D01*
X36449011Y-180260830D01*
X36462592Y-180453876D01*
X36471835Y-180675656D01*
X36476744Y-180915332D01*
X36477326Y-181162065D01*
X36473586Y-181405017D01*
X36465529Y-181633349D01*
X36453161Y-181836223D01*
X36436487Y-182002800D01*
X36430120Y-182047448D01*
X36314307Y-182644860D01*
X36158596Y-183212507D01*
X35961759Y-183753646D01*
X35722568Y-184271537D01*
X35439791Y-184769438D01*
X35351262Y-184907808D01*
X35000168Y-185397703D01*
X34614387Y-185851134D01*
X34195930Y-186266837D01*
X33746807Y-186643551D01*
X33269029Y-186980012D01*
X32764607Y-187274957D01*
X32235551Y-187527123D01*
X31683872Y-187735246D01*
X31111580Y-187898065D01*
X30520687Y-188014316D01*
X30371771Y-188035757D01*
X30201534Y-188053989D01*
X29997673Y-188068636D01*
X29773440Y-188079370D01*
X29542087Y-188085864D01*
X29316865Y-188087790D01*
X29111028Y-188084821D01*
X28937826Y-188076629D01*
X28887287Y-188072459D01*
X28278011Y-187990366D01*
X27689342Y-187861792D01*
X27121170Y-187686694D01*
X26573385Y-187465030D01*
X26045877Y-187196758D01*
X25538536Y-186881837D01*
X25264164Y-186685816D01*
X24800549Y-186307243D01*
X24375122Y-185895694D01*
X23988891Y-185452882D01*
X23642864Y-184980521D01*
X23338048Y-184480324D01*
X23075451Y-183954005D01*
X22856080Y-183403279D01*
X22680943Y-182829857D01*
X22551048Y-182235455D01*
X22514472Y-182009310D01*
X22491697Y-181805869D01*
X22476228Y-181564776D01*
X22467982Y-181298690D01*
X22466876Y-181020271D01*
X22468273Y-180954971D01*
G37*
G36*
X72526949Y-181022793D02*
G01*
X72544841Y-181022793D01*
X72548885Y-181274282D01*
X72558019Y-181524229D01*
X72571915Y-181760720D01*
X72590243Y-181971842D01*
X72612676Y-182145683D01*
X72615812Y-182164550D01*
X72743697Y-182768009D01*
X72915939Y-183347760D01*
X73131928Y-183902745D01*
X73391056Y-184431906D01*
X73692713Y-184934184D01*
X74036291Y-185408520D01*
X74421180Y-185853857D01*
X74846772Y-186269135D01*
X75104121Y-186489364D01*
X75563417Y-186836174D01*
X76037861Y-187138280D01*
X76530466Y-187396865D01*
X77044240Y-187613108D01*
X77582194Y-187788190D01*
X78147338Y-187923293D01*
X78742681Y-188019598D01*
X79102502Y-188058098D01*
X79226377Y-188064274D01*
X79388994Y-188065396D01*
X79578551Y-188061986D01*
X79783246Y-188054565D01*
X79991277Y-188043655D01*
X80190841Y-188029777D01*
X80370137Y-188013452D01*
X80513613Y-187995759D01*
X81108341Y-187883481D01*
X81680601Y-187725664D01*
X82231054Y-187522057D01*
X82760360Y-187272408D01*
X83269179Y-186976467D01*
X83379014Y-186904738D01*
X83627979Y-186733947D01*
X83845220Y-186573105D01*
X84045047Y-186410555D01*
X84241767Y-186234641D01*
X84449689Y-186033707D01*
X84456168Y-186027252D01*
X84857368Y-185592614D01*
X85215532Y-185133442D01*
X85530525Y-184652501D01*
X85802212Y-184152558D01*
X86030458Y-183636376D01*
X86215129Y-183106723D01*
X86356090Y-182566361D01*
X86453208Y-182018058D01*
X86506346Y-181464578D01*
X86515370Y-180908687D01*
X86480147Y-180353149D01*
X86400540Y-179800730D01*
X86276417Y-179254195D01*
X86107641Y-178716310D01*
X85894079Y-178189839D01*
X85635595Y-177677548D01*
X85332056Y-177182203D01*
X84983326Y-176706568D01*
X84914058Y-176621214D01*
X84645194Y-176317857D01*
X84340898Y-176014359D01*
X84013673Y-175721712D01*
X83676025Y-175450909D01*
X83340455Y-175212944D01*
X83235856Y-175145715D01*
X82725255Y-174855964D01*
X82194288Y-174611651D01*
X81646307Y-174413234D01*
X81084668Y-174261172D01*
X80512723Y-174155925D01*
X79933828Y-174097950D01*
X79351337Y-174087707D01*
X78768602Y-174125654D01*
X78188980Y-174212250D01*
X77615823Y-174347954D01*
X77547253Y-174367673D01*
X76992657Y-174556184D01*
X76461139Y-174788593D01*
X75954652Y-175062543D01*
X75475150Y-175375677D01*
X75024585Y-175725637D01*
X74604913Y-176110066D01*
X74218085Y-176526607D01*
X73866056Y-176972903D01*
X73550778Y-177446596D01*
X73274205Y-177945329D01*
X73038290Y-178466745D01*
X72844987Y-179008486D01*
X72696249Y-179568196D01*
X72594030Y-180143517D01*
X72566533Y-180378207D01*
X72553336Y-180562842D01*
X72546215Y-180781675D01*
X72544841Y-181022793D01*
X72526949Y-181022793D01*
X72530018Y-180781499D01*
X72537459Y-180544349D01*
X72549167Y-180329240D01*
X72565130Y-180146556D01*
X72577560Y-180051552D01*
X72694539Y-179460359D01*
X72857566Y-178887750D01*
X73065074Y-178335909D01*
X73315497Y-177807018D01*
X73607267Y-177303262D01*
X73938817Y-176826824D01*
X74308579Y-176379888D01*
X74714988Y-175964636D01*
X75156475Y-175583253D01*
X75631474Y-175237921D01*
X76138417Y-174930825D01*
X76323114Y-174832773D01*
X76823913Y-174598079D01*
X77324075Y-174408816D01*
X77834087Y-174261816D01*
X78364436Y-174153912D01*
X78746546Y-174100731D01*
X78937020Y-174084197D01*
X79160967Y-174073620D01*
X79406401Y-174068829D01*
X79661339Y-174069654D01*
X79913796Y-174075926D01*
X80151787Y-174087475D01*
X80363329Y-174104130D01*
X80536437Y-174125722D01*
X80539039Y-174126141D01*
X81148393Y-174248869D01*
X81733387Y-174415888D01*
X82293213Y-174626711D01*
X82827063Y-174880854D01*
X83334129Y-175177832D01*
X83813602Y-175517160D01*
X84264674Y-175898352D01*
X84686538Y-176320924D01*
X85078386Y-176784390D01*
X85172045Y-176907235D01*
X85498676Y-177386461D01*
X85781422Y-177888608D01*
X86019978Y-178410388D01*
X86214035Y-178948516D01*
X86363289Y-179499705D01*
X86467431Y-180060669D01*
X86526155Y-180628120D01*
X86539154Y-181198773D01*
X86506121Y-181769341D01*
X86426750Y-182336537D01*
X86300734Y-182897076D01*
X86127766Y-183447669D01*
X85907540Y-183985031D01*
X85845006Y-184117036D01*
X85642698Y-184508921D01*
X85433978Y-184863069D01*
X85210082Y-185191767D01*
X84962243Y-185507297D01*
X84681697Y-185821946D01*
X84481459Y-186028006D01*
X84035979Y-186440064D01*
X83569534Y-186805913D01*
X83081027Y-187126154D01*
X82569360Y-187401387D01*
X82033438Y-187632210D01*
X81472163Y-187819226D01*
X80981531Y-187942635D01*
X80701784Y-187994109D01*
X80389930Y-188035730D01*
X80060457Y-188066556D01*
X79727849Y-188085643D01*
X79406593Y-188092047D01*
X79111174Y-188084824D01*
X78960332Y-188074288D01*
X78358656Y-187995268D01*
X77773279Y-187868986D01*
X77206296Y-187696677D01*
X76659804Y-187479574D01*
X76135897Y-187218913D01*
X75636671Y-186915926D01*
X75164221Y-186571848D01*
X74720644Y-186187914D01*
X74308034Y-185765357D01*
X73928487Y-185305412D01*
X73688800Y-184969617D01*
X73389695Y-184483661D01*
X73134593Y-183980498D01*
X72921976Y-183456189D01*
X72750321Y-182906796D01*
X72618111Y-182328380D01*
X72575540Y-182085586D01*
X72557167Y-181934314D01*
X72543122Y-181742763D01*
X72533395Y-181521320D01*
X72527976Y-181280370D01*
X72526853Y-181030301D01*
X72526949Y-181022793D01*
G37*
G36*
X97541907Y-156113089D02*
G01*
X97574737Y-156113089D01*
X97577786Y-156352392D01*
X97584845Y-156578219D01*
X97595915Y-156779874D01*
X97610995Y-156946662D01*
X97619653Y-157011163D01*
X97737333Y-157619524D01*
X97897775Y-158200512D01*
X98101284Y-158754739D01*
X98348165Y-159282821D01*
X98638722Y-159785369D01*
X98973260Y-160262996D01*
X99352086Y-160716318D01*
X99582682Y-160958781D01*
X99707393Y-161082092D01*
X99834888Y-161204536D01*
X99955364Y-161316950D01*
X100059018Y-161410172D01*
X100129329Y-161469695D01*
X100616230Y-161829098D01*
X101124750Y-162143613D01*
X101652741Y-162412394D01*
X102198056Y-162634598D01*
X102758550Y-162809381D01*
X103332075Y-162935900D01*
X103916484Y-163013310D01*
X104090594Y-163026639D01*
X104217809Y-163034785D01*
X104329992Y-163041998D01*
X104415517Y-163047530D01*
X104462755Y-163050629D01*
X104464364Y-163050738D01*
X104506114Y-163050412D01*
X104588853Y-163047285D01*
X104702821Y-163041813D01*
X104838259Y-163034451D01*
X104934734Y-163028775D01*
X105538625Y-162967675D01*
X106126368Y-162858975D01*
X106696320Y-162703413D01*
X107246835Y-162501725D01*
X107776270Y-162254648D01*
X108282981Y-161962918D01*
X108765324Y-161627271D01*
X109221654Y-161248445D01*
X109498701Y-160984272D01*
X109701430Y-160774492D01*
X109878428Y-160576990D01*
X110041423Y-160377368D01*
X110202149Y-160161227D01*
X110372336Y-159914167D01*
X110380531Y-159901902D01*
X110681560Y-159405280D01*
X110940244Y-158881645D01*
X111155600Y-158333564D01*
X111326647Y-157763604D01*
X111452402Y-157174332D01*
X111473144Y-157047212D01*
X111502060Y-156807181D01*
X111521638Y-156531062D01*
X111531878Y-156232754D01*
X111532780Y-155926154D01*
X111524344Y-155625161D01*
X111506569Y-155343673D01*
X111479457Y-155095588D01*
X111473144Y-155052689D01*
X111372351Y-154518041D01*
X111238216Y-154011968D01*
X111066626Y-153521434D01*
X110853469Y-153033404D01*
X110804571Y-152933101D01*
X110522297Y-152418812D01*
X110199691Y-151934073D01*
X109834740Y-151476082D01*
X109499101Y-151115131D01*
X109064393Y-150713600D01*
X108598659Y-150351422D01*
X108104935Y-150030347D01*
X107586257Y-149752124D01*
X107045663Y-149518502D01*
X106486188Y-149331232D01*
X106326887Y-149287425D01*
X105751550Y-149162686D01*
X105167094Y-149086917D01*
X104577889Y-149060060D01*
X103988307Y-149082057D01*
X103402717Y-149152850D01*
X102825491Y-149272379D01*
X102585646Y-149337378D01*
X102331389Y-149416630D01*
X102087099Y-149504821D01*
X101837851Y-149607910D01*
X101568721Y-149731856D01*
X101438738Y-149795236D01*
X101021395Y-150017033D01*
X100638366Y-150254412D01*
X100277969Y-150515840D01*
X99928519Y-150809784D01*
X99582682Y-151140321D01*
X99178249Y-151582439D01*
X98818820Y-152047180D01*
X98503937Y-152535464D01*
X98233142Y-153048213D01*
X98005977Y-153586350D01*
X97821982Y-154150796D01*
X97680701Y-154742473D01*
X97619653Y-155088737D01*
X97602649Y-155235002D01*
X97589655Y-155421265D01*
X97580672Y-155636830D01*
X97575699Y-155871003D01*
X97574737Y-156113089D01*
X97541907Y-156113089D01*
X97538758Y-155955957D01*
X97560527Y-155454927D01*
X97613999Y-154968660D01*
X97699020Y-154509628D01*
X97701458Y-154498999D01*
X97859899Y-153923123D01*
X98064333Y-153367096D01*
X98313020Y-152833228D01*
X98604225Y-152323828D01*
X98936209Y-151841206D01*
X99307234Y-151387672D01*
X99715562Y-150965533D01*
X100159457Y-150577102D01*
X100637179Y-150224685D01*
X101146992Y-149910594D01*
X101159059Y-149903852D01*
X101650985Y-149657069D01*
X102172867Y-149447397D01*
X102717595Y-149277132D01*
X103278060Y-149148574D01*
X103705833Y-149080730D01*
X103926135Y-149059137D01*
X104181087Y-149045159D01*
X104455858Y-149038787D01*
X104735618Y-149040010D01*
X105005536Y-149048820D01*
X105250779Y-149065206D01*
X105405105Y-149081868D01*
X105893278Y-149160028D01*
X106349633Y-149263663D01*
X106788605Y-149397124D01*
X107224633Y-149564764D01*
X107642542Y-149756330D01*
X108065400Y-149978957D01*
X108450686Y-150214967D01*
X108811506Y-150473551D01*
X109160969Y-150763905D01*
X109414321Y-150999161D01*
X109718103Y-151307598D01*
X109986749Y-151613418D01*
X110231789Y-151931211D01*
X110464752Y-152275569D01*
X110611313Y-152514077D01*
X110876257Y-153008362D01*
X111100548Y-153529219D01*
X111282699Y-154070790D01*
X111421227Y-154627214D01*
X111514645Y-155192636D01*
X111561467Y-155761195D01*
X111562712Y-156266066D01*
X111517098Y-156872972D01*
X111424740Y-157460300D01*
X111285217Y-158029235D01*
X111098111Y-158580963D01*
X110863002Y-159116670D01*
X110579470Y-159637540D01*
X110247096Y-160144759D01*
X110136633Y-160295996D01*
X110008690Y-160456346D01*
X109850446Y-160637885D01*
X109671115Y-160831311D01*
X109479913Y-161027319D01*
X109286053Y-161216605D01*
X109098750Y-161389867D01*
X108927219Y-161537800D01*
X108831618Y-161613639D01*
X108332343Y-161962055D01*
X107815431Y-162262799D01*
X107280628Y-162515965D01*
X106727681Y-162721650D01*
X106156335Y-162879946D01*
X105566339Y-162990950D01*
X104972873Y-163053735D01*
X104806794Y-163064347D01*
X104676028Y-163070999D01*
X104565208Y-163073884D01*
X104458966Y-163073196D01*
X104341933Y-163069128D01*
X104222823Y-163063175D01*
X103652595Y-163009433D01*
X103086419Y-162910626D01*
X102531117Y-162768687D01*
X101993517Y-162585546D01*
X101480443Y-162363137D01*
X101159059Y-162196049D01*
X100652802Y-161885404D01*
X100177527Y-161536230D01*
X99735131Y-161151117D01*
X99327511Y-160732656D01*
X98956562Y-160283438D01*
X98624180Y-159806052D01*
X98332262Y-159303090D01*
X98082705Y-158777142D01*
X97877403Y-158230799D01*
X97718254Y-157666651D01*
X97665213Y-157422923D01*
X97590946Y-156952426D01*
X97548846Y-156459281D01*
X97541907Y-156113089D01*
G37*
G36*
X42998398Y-181017916D02*
G01*
X47507428Y-181017916D01*
X47527525Y-181601512D01*
X47596836Y-182185021D01*
X47715743Y-182765768D01*
X47846751Y-183226319D01*
X48047924Y-183772463D01*
X48291806Y-184293985D01*
X48575878Y-184789190D01*
X48897625Y-185256386D01*
X49254529Y-185693880D01*
X49644073Y-186099978D01*
X50063739Y-186472989D01*
X50511012Y-186811219D01*
X50983374Y-187112975D01*
X51478307Y-187376565D01*
X51993296Y-187600294D01*
X52525822Y-187782471D01*
X53073369Y-187921401D01*
X53633420Y-188015394D01*
X54203457Y-188062754D01*
X54780964Y-188061790D01*
X55014576Y-188047409D01*
X55614397Y-187975363D01*
X56198723Y-187855579D01*
X56765606Y-187688949D01*
X57313100Y-187476370D01*
X57839259Y-187218736D01*
X58342135Y-186916941D01*
X58819783Y-186571879D01*
X59270255Y-186184447D01*
X59452023Y-186008158D01*
X59854895Y-185567777D01*
X60216467Y-185098372D01*
X60535738Y-184601934D01*
X60811704Y-184080454D01*
X61043363Y-183535926D01*
X61229713Y-182970339D01*
X61369750Y-182385687D01*
X61420311Y-182098299D01*
X61438414Y-181949566D01*
X61453517Y-181761790D01*
X61465352Y-181546704D01*
X61473650Y-181316041D01*
X61478143Y-181081535D01*
X61478562Y-180854920D01*
X61474639Y-180647929D01*
X61466105Y-180472296D01*
X61459324Y-180393075D01*
X61372367Y-179796693D01*
X61238463Y-179216584D01*
X61058404Y-178654976D01*
X60832982Y-178114095D01*
X60562989Y-177596168D01*
X60331970Y-177224498D01*
X60178906Y-177000419D01*
X60038199Y-176807297D01*
X59898912Y-176631806D01*
X59750105Y-176460624D01*
X59580840Y-176280427D01*
X59437255Y-176134717D01*
X59085540Y-175802427D01*
X58732707Y-175509917D01*
X58365968Y-175247475D01*
X57972537Y-175005387D01*
X57887245Y-174957291D01*
X57365315Y-174695925D01*
X56824384Y-174480512D01*
X56267997Y-174311426D01*
X55699696Y-174189040D01*
X55123026Y-174113726D01*
X54541529Y-174085858D01*
X53958750Y-174105808D01*
X53378233Y-174173950D01*
X52803519Y-174290656D01*
X52457649Y-174385751D01*
X51915056Y-174576455D01*
X51388637Y-174813725D01*
X50882082Y-175094829D01*
X50399084Y-175417039D01*
X49943335Y-175777623D01*
X49518525Y-176173852D01*
X49128348Y-176602996D01*
X48776494Y-177062325D01*
X48712683Y-177155148D01*
X48398969Y-177664409D01*
X48131797Y-178192318D01*
X47911548Y-178736199D01*
X47738606Y-179293376D01*
X47613350Y-179861172D01*
X47536164Y-180436911D01*
X47507428Y-181017916D01*
X42998398Y-181017916D01*
X42998398Y-170072072D01*
X54503403Y-170072072D01*
X66008408Y-170072072D01*
X66008408Y-182581382D01*
X66008408Y-195090691D01*
X54503403Y-195090691D01*
X42998398Y-195090691D01*
X42998398Y-190362097D01*
X47308008Y-190362097D01*
X47312643Y-190483096D01*
X47329186Y-190591211D01*
X47361589Y-190693443D01*
X47413807Y-190796795D01*
X47489792Y-190908267D01*
X47593498Y-191034862D01*
X47728879Y-191183580D01*
X47834053Y-191293688D01*
X47976439Y-191443534D01*
X48085105Y-191564618D01*
X48163944Y-191662398D01*
X48216849Y-191742332D01*
X48247715Y-191809878D01*
X48260434Y-191870494D01*
X48261319Y-191892627D01*
X48236741Y-192038698D01*
X48168531Y-192176320D01*
X48063891Y-192298322D01*
X47930024Y-192397531D01*
X47774134Y-192466778D01*
X47658078Y-192493255D01*
X47536837Y-192510558D01*
X47529643Y-192812581D01*
X47522449Y-193114604D01*
X47607769Y-193107508D01*
X49049649Y-193107508D01*
X49342042Y-193107508D01*
X49634434Y-193107508D01*
X49634434Y-191251452D01*
X49634434Y-191165794D01*
X49830560Y-191165794D01*
X49832123Y-191343060D01*
X49844298Y-191515976D01*
X49866805Y-191666577D01*
X49873298Y-191695694D01*
X49966697Y-191977039D01*
X50104770Y-192239814D01*
X50283032Y-192478454D01*
X50496996Y-192687393D01*
X50742177Y-192861067D01*
X50867567Y-192929248D01*
X51039072Y-193005817D01*
X51200735Y-193057824D01*
X51369797Y-193089091D01*
X51563503Y-193103441D01*
X51662112Y-193105390D01*
X51948148Y-193107508D01*
X51948148Y-191658259D01*
X51948148Y-191277690D01*
X53630630Y-191277690D01*
X53633211Y-191350354D01*
X53656549Y-191600742D01*
X53705027Y-191819994D01*
X53784029Y-192023831D01*
X53898940Y-192227971D01*
X53969388Y-192332032D01*
X54153292Y-192550710D01*
X54372491Y-192742302D01*
X54617403Y-192900251D01*
X54878443Y-193017998D01*
X55045179Y-193068178D01*
X55198626Y-193093306D01*
X55381846Y-193104720D01*
X55575704Y-193102633D01*
X55761068Y-193087259D01*
X55918803Y-193058810D01*
X55920252Y-193058441D01*
X56205656Y-192959880D01*
X56468988Y-192817940D01*
X56705959Y-192636883D01*
X56912276Y-192420972D01*
X57083648Y-192174468D01*
X57215783Y-191901635D01*
X57279661Y-191708305D01*
X57311877Y-191536475D01*
X57326095Y-191336921D01*
X57322605Y-191128744D01*
X57301697Y-190931047D01*
X57265362Y-190768369D01*
X57148318Y-190470461D01*
X56991063Y-190202957D01*
X56795255Y-189967775D01*
X56562550Y-189766834D01*
X56294605Y-189602054D01*
X56232332Y-189571430D01*
X55954931Y-189467257D01*
X55672210Y-189411176D01*
X55388984Y-189401452D01*
X55110068Y-189436346D01*
X54840279Y-189514120D01*
X54584431Y-189633039D01*
X54347340Y-189791364D01*
X54133821Y-189987358D01*
X53948691Y-190219284D01*
X53817630Y-190442611D01*
X53726216Y-190648468D01*
X53666877Y-190844951D01*
X53636165Y-191049033D01*
X53630630Y-191277690D01*
X51948148Y-191277690D01*
X51948148Y-190209009D01*
X51496847Y-190206936D01*
X51045545Y-190204863D01*
X51199771Y-190130588D01*
X51307062Y-190087944D01*
X51435831Y-190049506D01*
X51549371Y-190025227D01*
X51744744Y-189994142D01*
X51744744Y-189691258D01*
X51744744Y-189395396D01*
X57514381Y-189395396D01*
X57521705Y-190876427D01*
X57529029Y-192357458D01*
X57596671Y-192501751D01*
X57676873Y-192638319D01*
X57784970Y-192775842D01*
X57904044Y-192893948D01*
X57956949Y-192935512D01*
X58023043Y-192975520D01*
X58112749Y-193021258D01*
X58174643Y-193049104D01*
X58252006Y-193078436D01*
X58323637Y-193095521D01*
X58406653Y-193102667D01*
X58518170Y-193102185D01*
X58558758Y-193100932D01*
X58690700Y-193093497D01*
X58790072Y-193079402D01*
X58875057Y-193055105D01*
X58945684Y-193025585D01*
X59127575Y-192914822D01*
X59285370Y-192765513D01*
X59411495Y-192587207D01*
X59498374Y-192389451D01*
X59522161Y-192298999D01*
X59529508Y-192235930D01*
X59535761Y-192122437D01*
X59540912Y-191958934D01*
X59544954Y-191745836D01*
X59547879Y-191483559D01*
X59549678Y-191172516D01*
X59550346Y-190813124D01*
X59550350Y-190779830D01*
X59550350Y-189395396D01*
X59728328Y-189395396D01*
X59728328Y-189700501D01*
X59728328Y-190005606D01*
X60071571Y-190005606D01*
X60414815Y-190005606D01*
X60414815Y-191556557D01*
X60414815Y-193107508D01*
X60719920Y-193107508D01*
X61025025Y-193107508D01*
X61025025Y-191556557D01*
X61025025Y-190005606D01*
X61368268Y-190005606D01*
X61711511Y-190005606D01*
X61711511Y-189700501D01*
X61711511Y-189395396D01*
X60719920Y-189395396D01*
X59728328Y-189395396D01*
X59550350Y-189395396D01*
X59245245Y-189395396D01*
X58940140Y-189395396D01*
X58940140Y-190796689D01*
X58940112Y-191098923D01*
X58939921Y-191354544D01*
X58939410Y-191567791D01*
X58938419Y-191742899D01*
X58936790Y-191884108D01*
X58934363Y-191995655D01*
X58930981Y-192081778D01*
X58926484Y-192146714D01*
X58920713Y-192194702D01*
X58913511Y-192229979D01*
X58904717Y-192256783D01*
X58894174Y-192279352D01*
X58883901Y-192298045D01*
X58796168Y-192409353D01*
X58682464Y-192476959D01*
X58542379Y-192501104D01*
X58537751Y-192501160D01*
X58392782Y-192482053D01*
X58275889Y-192421277D01*
X58198451Y-192338772D01*
X58139239Y-192255756D01*
X58132268Y-190825576D01*
X58125298Y-189395396D01*
X57819839Y-189395396D01*
X57514381Y-189395396D01*
X51744744Y-189395396D01*
X51744744Y-189388374D01*
X51576676Y-189405593D01*
X51292932Y-189458851D01*
X51012099Y-189557433D01*
X50743664Y-189696238D01*
X50497111Y-189870168D01*
X50281924Y-190074120D01*
X50236673Y-190126164D01*
X50149216Y-190246939D01*
X50059256Y-190398469D01*
X49975515Y-190563510D01*
X49906716Y-190724818D01*
X49861581Y-190865146D01*
X49860394Y-190870070D01*
X49839890Y-191002143D01*
X49830560Y-191165794D01*
X49634434Y-191165794D01*
X49634434Y-189395396D01*
X49342042Y-189395396D01*
X49049649Y-189395396D01*
X49049649Y-191251452D01*
X49049649Y-193107508D01*
X47607769Y-193107508D01*
X47682195Y-193101318D01*
X47800547Y-193084078D01*
X47928363Y-193054529D01*
X47994494Y-193034094D01*
X48213332Y-192933078D01*
X48406872Y-192796884D01*
X48571134Y-192631654D01*
X48702140Y-192443534D01*
X48795910Y-192238667D01*
X48848466Y-192023197D01*
X48855826Y-191803269D01*
X48845897Y-191719505D01*
X48819583Y-191594344D01*
X48780664Y-191480356D01*
X48724160Y-191369863D01*
X48645094Y-191255185D01*
X48538485Y-191128643D01*
X48399356Y-190982556D01*
X48311665Y-190895496D01*
X48200526Y-190785217D01*
X48100938Y-190683706D01*
X48019122Y-190597524D01*
X47961303Y-190533229D01*
X47933703Y-190497381D01*
X47933358Y-190496717D01*
X47902076Y-190384604D01*
X47916617Y-190275456D01*
X47972105Y-190176164D01*
X48063666Y-190093620D01*
X48186422Y-190034715D01*
X48275473Y-190013183D01*
X48363163Y-189998953D01*
X48363163Y-189697174D01*
X48362945Y-189561517D01*
X48357915Y-189470188D01*
X48341503Y-189416695D01*
X48308459Y-189395396D01*
X48307143Y-189394548D01*
X48248267Y-189397254D01*
X48158308Y-189418320D01*
X48097252Y-189434327D01*
X47869805Y-189516398D01*
X47674045Y-189634639D01*
X47513492Y-189786287D01*
X47391665Y-189968577D01*
X47375650Y-190001153D01*
X47339885Y-190086698D01*
X47319201Y-190166585D01*
X47309850Y-190260815D01*
X47308008Y-190362097D01*
X42998398Y-190362097D01*
X42998398Y-182581382D01*
X42998398Y-181017916D01*
G37*
G36*
X93035635Y-181024518D02*
G01*
X97571445Y-181024518D01*
X97574418Y-181292141D01*
X97583293Y-181552969D01*
X97597997Y-181795550D01*
X97618458Y-182008433D01*
X97632500Y-182111011D01*
X97750474Y-182706150D01*
X97914386Y-183280492D01*
X98123633Y-183832824D01*
X98377616Y-184361929D01*
X98675733Y-184866590D01*
X99017383Y-185345593D01*
X99401964Y-185797721D01*
X99513028Y-185914973D01*
X99954385Y-186335310D01*
X100420877Y-186711566D01*
X100911460Y-187043242D01*
X101425091Y-187329840D01*
X101960725Y-187570862D01*
X102517319Y-187765810D01*
X103093829Y-187914185D01*
X103689209Y-188015490D01*
X103981281Y-188047241D01*
X104151792Y-188057414D01*
X104358837Y-188061818D01*
X104588473Y-188060807D01*
X104826753Y-188054738D01*
X105059731Y-188043966D01*
X105273463Y-188028849D01*
X105454004Y-188009741D01*
X105454951Y-188009616D01*
X106038053Y-187907481D01*
X106604887Y-187758299D01*
X107153099Y-187563912D01*
X107680336Y-187326159D01*
X108184245Y-187046883D01*
X108662472Y-186727925D01*
X109112665Y-186371126D01*
X109532470Y-185978327D01*
X109919533Y-185551370D01*
X110271501Y-185092095D01*
X110586022Y-184602345D01*
X110860741Y-184083959D01*
X111060560Y-183623824D01*
X111206614Y-183215642D01*
X111325756Y-182800598D01*
X111421794Y-182363988D01*
X111485344Y-181983884D01*
X111505563Y-181803484D01*
X111520109Y-181584992D01*
X111528980Y-181340850D01*
X111532172Y-181083500D01*
X111529684Y-180825383D01*
X111521515Y-180578942D01*
X111507661Y-180356617D01*
X111488122Y-180170852D01*
X111485636Y-180153254D01*
X111372970Y-179548319D01*
X111214750Y-178965216D01*
X111011614Y-178405068D01*
X110764199Y-177868999D01*
X110473140Y-177358132D01*
X110139076Y-176873590D01*
X109762643Y-176416498D01*
X109344478Y-175987978D01*
X108908432Y-175607795D01*
X108440631Y-175263174D01*
X107944203Y-174960375D01*
X107419933Y-174699737D01*
X106868606Y-174481599D01*
X106291007Y-174306300D01*
X105687921Y-174174181D01*
X105532232Y-174147773D01*
X105376982Y-174128993D01*
X105181812Y-174114783D01*
X104957449Y-174105134D01*
X104714618Y-174100037D01*
X104464042Y-174099481D01*
X104216449Y-174103458D01*
X103982563Y-174111958D01*
X103773108Y-174124971D01*
X103598811Y-174142488D01*
X103549049Y-174149533D01*
X102952595Y-174267341D01*
X102375875Y-174431165D01*
X101820825Y-174639665D01*
X101289384Y-174891498D01*
X100783491Y-175185326D01*
X100305085Y-175519808D01*
X99856103Y-175893602D01*
X99438484Y-176305369D01*
X99054166Y-176753768D01*
X98705089Y-177237458D01*
X98429138Y-177690258D01*
X98194088Y-178155934D01*
X97990807Y-178656607D01*
X97821398Y-179185975D01*
X97687963Y-179737734D01*
X97619998Y-180115116D01*
X97598649Y-180295399D01*
X97583489Y-180514696D01*
X97574445Y-180761553D01*
X97571445Y-181024518D01*
X93035635Y-181024518D01*
X93035635Y-170072072D01*
X104553353Y-170072072D01*
X116071071Y-170072072D01*
X116071071Y-182581382D01*
X116071071Y-195090691D01*
X104553353Y-195090691D01*
X93035635Y-195090691D01*
X93035635Y-190330672D01*
X97354988Y-190330672D01*
X97358721Y-190438558D01*
X97368997Y-190541766D01*
X97381478Y-190608742D01*
X97436024Y-190741368D01*
X97532934Y-190895083D01*
X97669883Y-191066715D01*
X97844546Y-191253090D01*
X97878095Y-191286280D01*
X98018586Y-191426417D01*
X98124953Y-191539672D01*
X98201571Y-191632382D01*
X98252815Y-191710883D01*
X98283061Y-191781516D01*
X98296682Y-191850617D01*
X98298698Y-191895588D01*
X98276289Y-192047656D01*
X98214016Y-192189296D01*
X98119316Y-192303974D01*
X98112383Y-192309959D01*
X98008392Y-192382503D01*
X97888260Y-192443157D01*
X97770348Y-192483937D01*
X97682132Y-192497049D01*
X97586787Y-192497298D01*
X97586787Y-192802403D01*
X97586787Y-193107508D01*
X99086887Y-193107508D01*
X99391992Y-193107508D01*
X99697097Y-193107508D01*
X99697097Y-191251452D01*
X99697097Y-191226414D01*
X99879254Y-191226414D01*
X99882716Y-191353154D01*
X99917383Y-191647307D01*
X99993818Y-191917749D01*
X100114377Y-192169642D01*
X100281412Y-192408146D01*
X100446606Y-192589326D01*
X100560466Y-192697356D01*
X100661043Y-192778689D01*
X100766566Y-192846532D01*
X100893995Y-192913471D01*
X101065110Y-192992579D01*
X101212568Y-193047098D01*
X101354477Y-193081286D01*
X101508948Y-193099403D01*
X101694089Y-193105706D01*
X101712062Y-193105835D01*
X102010811Y-193107508D01*
X102010811Y-191658259D01*
X102010811Y-191307187D01*
X103679063Y-191307187D01*
X103688133Y-191479047D01*
X103706551Y-191630503D01*
X103723043Y-191708305D01*
X103823452Y-191989317D01*
X103966777Y-192250141D01*
X104148022Y-192485769D01*
X104362192Y-192691193D01*
X104604290Y-192861405D01*
X104869321Y-192991397D01*
X105067697Y-193056273D01*
X105227829Y-193086126D01*
X105416241Y-193102408D01*
X105613333Y-193104828D01*
X105799507Y-193093094D01*
X105945204Y-193069334D01*
X106224506Y-192977935D01*
X106485451Y-192842023D01*
X106723103Y-192666131D01*
X106932525Y-192454794D01*
X107108782Y-192212545D01*
X107246938Y-191943918D01*
X107288609Y-191835326D01*
X107323404Y-191721024D01*
X107346794Y-191603821D01*
X107361717Y-191465900D01*
X107368567Y-191350354D01*
X107369842Y-191114425D01*
X107347443Y-190907572D01*
X107297719Y-190712129D01*
X107217016Y-190510427D01*
X107178307Y-190430144D01*
X107117166Y-190315277D01*
X107055714Y-190219278D01*
X106982818Y-190127331D01*
X106887345Y-190024620D01*
X106830795Y-189967707D01*
X106671482Y-189818550D01*
X106524552Y-189703183D01*
X106375445Y-189612268D01*
X106209605Y-189536466D01*
X106089094Y-189491963D01*
X105809102Y-189421589D01*
X105523907Y-189399466D01*
X105238862Y-189424102D01*
X104959321Y-189494007D01*
X104690635Y-189607689D01*
X104438159Y-189763654D01*
X104207245Y-189960413D01*
X104134254Y-190036717D01*
X104036676Y-190162037D01*
X103937209Y-190320477D01*
X103844565Y-190495425D01*
X103767457Y-190670266D01*
X103714599Y-190828388D01*
X103710495Y-190844645D01*
X103689989Y-190972439D01*
X103679596Y-191132468D01*
X103679063Y-191307187D01*
X102010811Y-191307187D01*
X102010811Y-190209009D01*
X101560781Y-190209009D01*
X101387905Y-190207998D01*
X101262604Y-190204823D01*
X101181635Y-190199274D01*
X101141759Y-190191139D01*
X101138232Y-190181528D01*
X101186804Y-190151358D01*
X101271095Y-190115876D01*
X101376942Y-190079645D01*
X101490184Y-190047233D01*
X101596656Y-190023204D01*
X101657987Y-190013979D01*
X101807407Y-189998362D01*
X101807407Y-189693368D01*
X101807407Y-189395396D01*
X107550873Y-189395396D01*
X107558570Y-190851001D01*
X107560258Y-191160159D01*
X107561903Y-191422704D01*
X107563665Y-191642874D01*
X107565710Y-191824904D01*
X107568198Y-191973034D01*
X107571294Y-192091499D01*
X107575160Y-192184538D01*
X107579959Y-192256388D01*
X107585854Y-192311286D01*
X107593009Y-192353469D01*
X107601585Y-192387175D01*
X107611746Y-192416642D01*
X107619524Y-192436126D01*
X107732570Y-192649509D01*
X107881221Y-192827598D01*
X107976482Y-192908909D01*
X108115634Y-193001920D01*
X108249402Y-193061817D01*
X108393984Y-193093401D01*
X108565576Y-193101476D01*
X108621421Y-193100151D01*
X108743541Y-193093876D01*
X108832900Y-193082542D01*
X108907581Y-193062056D01*
X108985666Y-193028324D01*
X109024432Y-193008912D01*
X109215710Y-192882991D01*
X109374571Y-192719781D01*
X109495165Y-192525310D01*
X109496398Y-192522723D01*
X109574875Y-192357458D01*
X109582015Y-190876427D01*
X109589155Y-189395396D01*
X109765565Y-189395396D01*
X109765565Y-189700501D01*
X109765565Y-190005606D01*
X110121521Y-190005606D01*
X110477477Y-190005606D01*
X110477477Y-191556557D01*
X110477477Y-193107508D01*
X110769870Y-193107508D01*
X111062262Y-193107508D01*
X111062262Y-191556557D01*
X111062262Y-190005606D01*
X111405505Y-190005606D01*
X111748748Y-190005606D01*
X111748748Y-189700501D01*
X111748748Y-189395396D01*
X110757157Y-189395396D01*
X109765565Y-189395396D01*
X109589155Y-189395396D01*
X109296801Y-189395396D01*
X109004446Y-189395396D01*
X108997268Y-190800151D01*
X108995658Y-191103418D01*
X108994070Y-191360032D01*
X108992341Y-191574193D01*
X108990307Y-191750097D01*
X108987806Y-191891943D01*
X108984674Y-192003928D01*
X108980747Y-192090252D01*
X108975862Y-192155112D01*
X108969856Y-192202705D01*
X108962565Y-192237231D01*
X108953826Y-192262888D01*
X108943476Y-192283872D01*
X108939239Y-192291237D01*
X108845279Y-192406069D01*
X108726933Y-192477259D01*
X108589355Y-192502555D01*
X108481581Y-192491151D01*
X108372618Y-192445121D01*
X108275563Y-192364630D01*
X108206400Y-192264564D01*
X108189082Y-192218746D01*
X108183641Y-192173453D01*
X108178732Y-192080903D01*
X108174416Y-191944684D01*
X108170755Y-191768389D01*
X108167811Y-191555606D01*
X108165647Y-191309928D01*
X108164325Y-191034943D01*
X108163905Y-190762012D01*
X108163764Y-189395396D01*
X107857318Y-189395396D01*
X107550873Y-189395396D01*
X101807407Y-189395396D01*
X101807407Y-189388374D01*
X101646466Y-189404862D01*
X101346358Y-189459070D01*
X101061366Y-189556305D01*
X100796133Y-189692579D01*
X100555298Y-189863898D01*
X100343504Y-190066275D01*
X100165390Y-190295716D01*
X100025599Y-190548232D01*
X99928770Y-190819832D01*
X99910173Y-190897888D01*
X99886432Y-191052987D01*
X99879254Y-191226414D01*
X99697097Y-191226414D01*
X99697097Y-189395396D01*
X99391992Y-189395396D01*
X99086887Y-189395396D01*
X99086887Y-191251452D01*
X99086887Y-193107508D01*
X97586787Y-193107508D01*
X97707557Y-193106852D01*
X97797074Y-193097806D01*
X97907110Y-193074983D01*
X97995063Y-193049353D01*
X98243929Y-192939983D01*
X98458546Y-192793702D01*
X98637583Y-192611669D01*
X98779708Y-192395041D01*
X98804988Y-192344745D01*
X98846179Y-192255642D01*
X98872652Y-192184990D01*
X98887645Y-192116484D01*
X98894401Y-192033819D01*
X98896158Y-191920690D01*
X98896196Y-191885769D01*
X98895268Y-191763219D01*
X98890285Y-191675410D01*
X98877942Y-191606238D01*
X98854939Y-191539598D01*
X98817974Y-191459385D01*
X98802184Y-191427262D01*
X98760348Y-191348447D01*
X98713195Y-191273711D01*
X98655278Y-191196787D01*
X98581148Y-191111411D01*
X98485358Y-191011315D01*
X98362462Y-190890236D01*
X98207010Y-190741906D01*
X98203191Y-190738297D01*
X98083713Y-190617839D01*
X98004230Y-190517275D01*
X97961647Y-190429502D01*
X97952868Y-190347415D01*
X97974795Y-190263911D01*
X97985855Y-190239635D01*
X98062610Y-190136526D01*
X98172982Y-190057985D01*
X98301612Y-190014906D01*
X98303044Y-190014675D01*
X98400400Y-189999107D01*
X98400400Y-189697251D01*
X98400184Y-189561573D01*
X98395156Y-189470226D01*
X98378747Y-189416717D01*
X98345689Y-189395396D01*
X98344388Y-189394557D01*
X98285508Y-189397255D01*
X98195538Y-189418321D01*
X98134322Y-189434371D01*
X97917091Y-189514456D01*
X97725708Y-189632571D01*
X97566449Y-189783712D01*
X97445592Y-189962876D01*
X97428875Y-189996701D01*
X97383746Y-190107388D01*
X97361296Y-190209027D01*
X97354988Y-190330672D01*
X93035635Y-190330672D01*
X93035635Y-182581382D01*
X93035635Y-181024518D01*
G37*
G36*
X37495012Y-45983616D02*
G01*
X37509560Y-45983616D01*
X37517104Y-46232688D01*
X37533318Y-46470997D01*
X37557831Y-46684274D01*
X37582096Y-46822323D01*
X37706637Y-47288657D01*
X37874774Y-47731986D01*
X38084103Y-48150023D01*
X38332222Y-48540479D01*
X38616727Y-48901063D01*
X38935215Y-49229487D01*
X39285283Y-49523463D01*
X39664527Y-49780702D01*
X40070545Y-49998913D01*
X40500933Y-50175810D01*
X40953289Y-50309101D01*
X41318501Y-50381120D01*
X41505880Y-50402357D01*
X41727725Y-50414730D01*
X41968456Y-50418376D01*
X42212492Y-50413432D01*
X42444252Y-50400037D01*
X42648155Y-50378327D01*
X42709836Y-50368828D01*
X43186546Y-50263452D01*
X43639241Y-50113311D01*
X44068467Y-49918168D01*
X44474771Y-49677782D01*
X44755540Y-49474904D01*
X44927668Y-49329222D01*
X45112994Y-49153186D01*
X45298766Y-48960171D01*
X45472232Y-48763554D01*
X45620638Y-48576711D01*
X45649173Y-48537525D01*
X45747845Y-48387959D01*
X45854567Y-48206834D01*
X45962374Y-48007723D01*
X46064300Y-47804198D01*
X46153380Y-47609832D01*
X46222647Y-47438199D01*
X46242352Y-47381682D01*
X46369453Y-46915576D01*
X46446855Y-46443657D01*
X46474560Y-45969168D01*
X46452572Y-45495351D01*
X46380892Y-45025448D01*
X46259525Y-44562702D01*
X46239654Y-44501911D01*
X46068396Y-44069366D01*
X45851996Y-43656921D01*
X45593560Y-43268623D01*
X45296195Y-42908516D01*
X44963008Y-42580647D01*
X44597107Y-42289062D01*
X44476354Y-42205895D01*
X44068256Y-41963601D01*
X43643835Y-41768518D01*
X43200734Y-41619830D01*
X42736598Y-41516723D01*
X42337633Y-41465523D01*
X41945760Y-41451461D01*
X41536641Y-41475439D01*
X41124726Y-41535734D01*
X40724466Y-41630624D01*
X40578962Y-41675220D01*
X40397239Y-41742781D01*
X40189390Y-41833322D01*
X39970061Y-41939430D01*
X39753894Y-42053693D01*
X39555532Y-42168697D01*
X39389619Y-42277029D01*
X39388240Y-42278006D01*
X39249228Y-42385042D01*
X39090898Y-42520800D01*
X38923670Y-42675117D01*
X38757963Y-42837828D01*
X38604196Y-42998767D01*
X38472789Y-43147771D01*
X38391866Y-43250050D01*
X38123950Y-43655366D01*
X37903092Y-44079942D01*
X37729230Y-44523935D01*
X37602299Y-44987499D01*
X37542684Y-45314499D01*
X37521977Y-45510253D01*
X37511060Y-45738048D01*
X37509560Y-45983616D01*
X37495012Y-45983616D01*
X37494902Y-45957858D01*
X37495098Y-45759021D01*
X37496969Y-45601032D01*
X37501168Y-45473901D01*
X37508353Y-45367636D01*
X37519178Y-45272244D01*
X37534299Y-45177735D01*
X37552176Y-45084907D01*
X37670484Y-44621615D01*
X37831067Y-44182825D01*
X38031116Y-43770173D01*
X38267822Y-43385297D01*
X38538376Y-43029833D01*
X38839970Y-42705418D01*
X39169796Y-42413689D01*
X39525044Y-42156282D01*
X39902906Y-41934836D01*
X40300573Y-41750985D01*
X40715237Y-41606368D01*
X41144088Y-41502621D01*
X41584319Y-41441380D01*
X42033121Y-41424283D01*
X42487684Y-41452966D01*
X42945201Y-41529067D01*
X43402862Y-41654222D01*
X43425893Y-41661862D01*
X43864671Y-41834904D01*
X44278661Y-42050764D01*
X44665375Y-42306557D01*
X45022321Y-42599402D01*
X45347009Y-42926412D01*
X45636950Y-43284705D01*
X45889654Y-43671397D01*
X46102630Y-44083603D01*
X46273388Y-44518440D01*
X46399438Y-44973025D01*
X46434312Y-45146007D01*
X46458910Y-45320115D01*
X46477013Y-45527266D01*
X46488382Y-45753792D01*
X46492776Y-45986026D01*
X46489957Y-46210299D01*
X46479685Y-46412946D01*
X46461721Y-46580297D01*
X46459665Y-46593494D01*
X46357867Y-47072568D01*
X46211397Y-47529419D01*
X46022309Y-47961883D01*
X45792660Y-48367793D01*
X45524505Y-48744986D01*
X45219899Y-49091295D01*
X44880898Y-49404557D01*
X44509558Y-49682605D01*
X44107933Y-49923276D01*
X43678079Y-50124404D01*
X43222052Y-50283823D01*
X42871271Y-50373168D01*
X42777367Y-50392272D01*
X42689512Y-50406731D01*
X42598246Y-50417186D01*
X42494107Y-50424280D01*
X42367635Y-50428654D01*
X42209369Y-50430949D01*
X42009847Y-50431809D01*
X42006807Y-50431814D01*
X41807727Y-50431620D01*
X41649731Y-50429917D01*
X41523058Y-50426052D01*
X41417947Y-50419375D01*
X41324638Y-50409233D01*
X41233371Y-50394973D01*
X41134385Y-50375943D01*
X41116917Y-50372358D01*
X40646070Y-50250579D01*
X40198253Y-50084817D01*
X39775800Y-49876113D01*
X39381042Y-49625509D01*
X39283824Y-49554066D01*
X39090670Y-49407899D01*
X30721812Y-57776787D01*
X22352953Y-66145675D01*
X22352953Y-107258023D01*
X22352953Y-148370372D01*
X23572448Y-149590641D01*
X24791943Y-150810910D01*
X24854458Y-150760761D01*
X25098219Y-150567743D01*
X25313258Y-150403635D01*
X25508151Y-150262782D01*
X25691470Y-150139524D01*
X25871790Y-150028207D01*
X26057685Y-149923172D01*
X26257728Y-149818762D01*
X26357457Y-149769092D01*
X26790101Y-149569933D01*
X27207304Y-149407522D01*
X27623518Y-149277471D01*
X28053195Y-149175391D01*
X28510786Y-149096893D01*
X28620320Y-149081868D01*
X28838319Y-149059980D01*
X29091772Y-149045662D01*
X29365849Y-149038923D01*
X29645719Y-149039772D01*
X29916550Y-149048220D01*
X30163512Y-149064277D01*
X30319592Y-149080730D01*
X30887209Y-149176394D01*
X31444440Y-149315492D01*
X31984175Y-149495728D01*
X32499302Y-149714803D01*
X32866366Y-149903852D01*
X33375202Y-150216032D01*
X33852553Y-150566754D01*
X34296569Y-150953593D01*
X34705398Y-151374127D01*
X35077189Y-151825933D01*
X35410091Y-152306589D01*
X35702252Y-152813671D01*
X35951822Y-153344756D01*
X36156950Y-153897421D01*
X36298224Y-154395571D01*
X36396217Y-154885134D01*
X36459017Y-155399683D01*
X36486193Y-155927091D01*
X36477316Y-156455229D01*
X36431954Y-156971972D01*
X36398014Y-157206807D01*
X36279261Y-157777748D01*
X36114361Y-158330981D01*
X35905530Y-158864383D01*
X35654983Y-159375835D01*
X35364935Y-159863215D01*
X35037602Y-160324401D01*
X34675199Y-160757273D01*
X34279943Y-161159709D01*
X33854047Y-161529587D01*
X33399728Y-161864787D01*
X32919201Y-162163188D01*
X32414681Y-162422668D01*
X31888385Y-162641106D01*
X31342526Y-162816380D01*
X30779322Y-162946371D01*
X30332305Y-163014617D01*
X30027530Y-163043600D01*
X29706974Y-163061063D01*
X29389827Y-163066455D01*
X29095281Y-163059225D01*
X28993613Y-163053078D01*
X28398603Y-162985199D01*
X27816631Y-162869073D01*
X27250186Y-162705807D01*
X26701755Y-162496508D01*
X26173827Y-162242285D01*
X25668890Y-161944245D01*
X25189432Y-161603496D01*
X24737942Y-161221145D01*
X24612955Y-161102988D01*
X24193617Y-160662816D01*
X23817722Y-160197274D01*
X23485938Y-159707498D01*
X23198934Y-159194623D01*
X22957379Y-158659784D01*
X22761941Y-158104118D01*
X22683791Y-157826805D01*
X22558242Y-157244085D01*
X22482567Y-156658556D01*
X22460907Y-156178509D01*
X22492634Y-156178509D01*
X22501272Y-156480835D01*
X22519402Y-156763245D01*
X22547028Y-157011822D01*
X22552281Y-157047212D01*
X22653074Y-157581859D01*
X22787209Y-158087933D01*
X22958799Y-158578467D01*
X23171956Y-159066497D01*
X23220854Y-159166800D01*
X23495379Y-159669019D01*
X23806101Y-160139523D01*
X24157225Y-160584126D01*
X24552215Y-161007908D01*
X24990196Y-161407908D01*
X25456625Y-161767312D01*
X25948633Y-162084824D01*
X26463348Y-162359149D01*
X26997902Y-162588990D01*
X27549424Y-162773053D01*
X28115044Y-162910040D01*
X28691892Y-162998658D01*
X29024701Y-163027035D01*
X29152323Y-163034851D01*
X29263469Y-163041820D01*
X29347270Y-163047250D01*
X29392857Y-163050448D01*
X29395796Y-163050699D01*
X29433060Y-163050392D01*
X29511674Y-163047300D01*
X29622241Y-163041873D01*
X29755365Y-163034562D01*
X29853453Y-163028775D01*
X30457063Y-162967821D01*
X31044795Y-162859584D01*
X31614757Y-162704923D01*
X32165060Y-162504701D01*
X32693814Y-162259778D01*
X33199129Y-161971015D01*
X33679115Y-161639271D01*
X34131881Y-161265410D01*
X34493593Y-160915493D01*
X34894892Y-160463639D01*
X35251035Y-159988943D01*
X35562324Y-159490790D01*
X35829060Y-158968561D01*
X36051548Y-158421639D01*
X36230088Y-157849408D01*
X36364983Y-157251250D01*
X36405772Y-157011163D01*
X36422776Y-156864898D01*
X36435770Y-156678636D01*
X36444753Y-156463071D01*
X36449725Y-156228898D01*
X36450687Y-155986812D01*
X36447639Y-155747508D01*
X36440580Y-155521682D01*
X36429510Y-155320027D01*
X36414430Y-155153239D01*
X36405772Y-155088737D01*
X36287394Y-154478969D01*
X36125146Y-153894892D01*
X35918963Y-153336373D01*
X35668781Y-152803281D01*
X35374535Y-152295482D01*
X35036162Y-151812844D01*
X34653596Y-151355235D01*
X34521383Y-151213597D01*
X34095154Y-150804764D01*
X33639496Y-150435879D01*
X33157363Y-150108101D01*
X32651709Y-149822587D01*
X32125488Y-149580495D01*
X31581653Y-149382984D01*
X31023159Y-149231212D01*
X30452960Y-149126336D01*
X29874008Y-149069516D01*
X29289259Y-149061909D01*
X29060378Y-149072524D01*
X28498644Y-149127737D01*
X27963114Y-149221985D01*
X27444722Y-149357671D01*
X26934402Y-149537201D01*
X26423087Y-149762979D01*
X26382883Y-149782613D01*
X25858177Y-150068275D01*
X25365192Y-150393606D01*
X24904547Y-150758089D01*
X24476862Y-151161206D01*
X24082757Y-151602442D01*
X23866430Y-151880181D01*
X23717316Y-152086111D01*
X23591922Y-152270679D01*
X23480189Y-152450206D01*
X23372060Y-152641013D01*
X23257475Y-152859422D01*
X23231859Y-152909910D01*
X22995269Y-153428547D01*
X22803646Y-153960208D01*
X22654811Y-154511752D01*
X22552913Y-155048362D01*
X22523628Y-155291193D01*
X22503816Y-155569771D01*
X22493484Y-155870182D01*
X22492634Y-156178509D01*
X22460907Y-156178509D01*
X22456149Y-156073056D01*
X22478374Y-155490419D01*
X22548626Y-154913484D01*
X22666290Y-154345084D01*
X22830751Y-153788058D01*
X23041393Y-153245241D01*
X23297601Y-152719470D01*
X23598760Y-152213580D01*
X23944255Y-151730409D01*
X24029570Y-151623229D01*
X24233794Y-151371672D01*
X22953966Y-150087688D01*
X22705528Y-149838251D01*
X22490629Y-149621971D01*
X22306740Y-149436157D01*
X22151335Y-149278120D01*
X22021887Y-149145168D01*
X21915868Y-149034611D01*
X21830751Y-148943758D01*
X21764008Y-148869917D01*
X21713113Y-148810399D01*
X21675539Y-148762512D01*
X21648757Y-148723567D01*
X21630242Y-148690871D01*
X21619451Y-148666830D01*
X21564765Y-148529956D01*
X21564765Y-107255436D01*
X21564765Y-65980916D01*
X21628603Y-65821450D01*
X21634233Y-65808362D01*
X21641537Y-65793997D01*
X21651483Y-65777378D01*
X21665038Y-65757527D01*
X21683166Y-65733467D01*
X21706835Y-65704220D01*
X21737012Y-65668810D01*
X21774661Y-65626259D01*
X21820751Y-65575589D01*
X21876248Y-65515824D01*
X21942117Y-65445985D01*
X22019326Y-65365097D01*
X22108840Y-65272181D01*
X22211626Y-65166260D01*
X22328651Y-65046356D01*
X22460881Y-64911493D01*
X22609282Y-64760694D01*
X22774820Y-64592980D01*
X22958463Y-64407374D01*
X23161177Y-64202900D01*
X23383928Y-63978579D01*
X23627682Y-63733436D01*
X23893406Y-63466491D01*
X24182066Y-63176768D01*
X24494629Y-62863290D01*
X24832061Y-62525079D01*
X25195328Y-62161158D01*
X25585398Y-61770550D01*
X26003235Y-61352277D01*
X26449808Y-60905363D01*
X26926082Y-60428828D01*
X27433023Y-59921698D01*
X27971598Y-59382993D01*
X28542774Y-58811737D01*
X29147517Y-58206953D01*
X29786793Y-57567662D01*
X30105534Y-57248920D01*
X38518627Y-48835856D01*
X38372264Y-48642703D01*
X38118695Y-48268794D01*
X37905097Y-47868289D01*
X37730182Y-47438306D01*
X37592668Y-46975964D01*
X37553262Y-46806549D01*
X37534054Y-46712109D01*
X37519572Y-46623260D01*
X37509152Y-46530369D01*
X37502132Y-46423800D01*
X37497851Y-46293920D01*
X37495644Y-46131095D01*
X37495012Y-45983616D01*
G37*
G36*
X87533600Y-45925215D02*
G01*
X87548418Y-45925215D01*
X87570498Y-46382423D01*
X87640014Y-46837647D01*
X87757450Y-47287453D01*
X87923289Y-47728408D01*
X87988867Y-47871700D01*
X88184241Y-48239750D01*
X88404124Y-48574685D01*
X88657312Y-48888589D01*
X88947850Y-49189007D01*
X89309641Y-49501298D01*
X89695075Y-49768864D01*
X90104968Y-49992116D01*
X90540141Y-50171465D01*
X91001411Y-50307324D01*
X91293994Y-50368666D01*
X91471937Y-50392284D01*
X91685775Y-50407358D01*
X91922331Y-50414082D01*
X92168428Y-50412649D01*
X92410888Y-50403252D01*
X92636533Y-50386084D01*
X92832187Y-50361340D01*
X92921221Y-50344790D01*
X93391789Y-50218655D01*
X93838353Y-50048987D01*
X94258745Y-49837959D01*
X94650800Y-49587746D01*
X95012348Y-49300524D01*
X95341224Y-48978466D01*
X95635259Y-48623747D01*
X95892286Y-48238543D01*
X96110139Y-47825027D01*
X96286650Y-47385375D01*
X96419651Y-46921760D01*
X96444350Y-46809610D01*
X96476019Y-46614221D01*
X96498930Y-46383794D01*
X96512686Y-46133449D01*
X96516887Y-45878307D01*
X96511137Y-45633487D01*
X96495036Y-45414111D01*
X96483498Y-45322171D01*
X96388260Y-44842670D01*
X96247143Y-44384960D01*
X96059790Y-43948170D01*
X95825842Y-43531424D01*
X95633343Y-43250050D01*
X95525643Y-43116154D01*
X95387455Y-42962474D01*
X95229302Y-42799289D01*
X95061710Y-42636875D01*
X94895205Y-42485508D01*
X94740311Y-42355467D01*
X94637437Y-42277648D01*
X94241426Y-42027881D01*
X93822509Y-41821992D01*
X93384924Y-41660859D01*
X92932909Y-41545359D01*
X92470701Y-41476368D01*
X92002538Y-41454765D01*
X91532658Y-41481427D01*
X91111092Y-41547560D01*
X90680070Y-41661184D01*
X90257092Y-41821353D01*
X89848872Y-42024171D01*
X89462121Y-42265741D01*
X89103554Y-42542168D01*
X88779884Y-42849555D01*
X88681405Y-42957658D01*
X88384986Y-43332604D01*
X88132615Y-43729603D01*
X87924776Y-44145222D01*
X87761952Y-44576026D01*
X87644629Y-45018583D01*
X87573290Y-45469457D01*
X87548418Y-45925215D01*
X87533600Y-45925215D01*
X87535891Y-45781950D01*
X87546549Y-45554748D01*
X87563931Y-45344820D01*
X87587793Y-45165668D01*
X87591238Y-45146007D01*
X87700190Y-44684112D01*
X87855391Y-44240064D01*
X88054492Y-43816979D01*
X88295141Y-43417973D01*
X88574988Y-43046162D01*
X88891683Y-42704662D01*
X89242876Y-42396589D01*
X89626216Y-42125059D01*
X90039352Y-41893187D01*
X90048148Y-41888856D01*
X90482924Y-41702605D01*
X90926850Y-41564731D01*
X91376542Y-41474328D01*
X91828618Y-41430489D01*
X92279695Y-41432310D01*
X92726388Y-41478884D01*
X93165316Y-41569306D01*
X93593096Y-41702669D01*
X94006343Y-41878069D01*
X94401675Y-42094599D01*
X94775708Y-42351353D01*
X95125061Y-42647427D01*
X95446349Y-42981913D01*
X95736189Y-43353907D01*
X95784717Y-43424715D01*
X96030169Y-43835540D01*
X96231010Y-44270308D01*
X96386521Y-44727292D01*
X96473249Y-45084907D01*
X96492819Y-45187272D01*
X96507502Y-45281561D01*
X96517956Y-45377768D01*
X96524838Y-45485891D01*
X96528807Y-45615923D01*
X96530519Y-45777863D01*
X96530676Y-45957858D01*
X96528299Y-46203845D01*
X96520812Y-46411220D01*
X96506363Y-46592120D01*
X96483097Y-46758678D01*
X96449162Y-46923030D01*
X96402702Y-47097312D01*
X96341865Y-47293658D01*
X96313438Y-47380045D01*
X96141354Y-47818330D01*
X95926733Y-48231395D01*
X95672456Y-48616887D01*
X95381406Y-48972449D01*
X95056468Y-49295725D01*
X94700522Y-49584361D01*
X94316454Y-49835999D01*
X93907145Y-50048286D01*
X93475478Y-50218865D01*
X93024337Y-50345380D01*
X92591380Y-50421235D01*
X92420673Y-50435965D01*
X92216739Y-50442818D01*
X91993076Y-50442273D01*
X91763183Y-50434810D01*
X91540562Y-50420908D01*
X91338709Y-50401047D01*
X91171126Y-50375707D01*
X91141441Y-50369711D01*
X90747650Y-50265967D01*
X90355576Y-50125217D01*
X89976312Y-49952628D01*
X89620949Y-49753372D01*
X89300579Y-49532616D01*
X89235809Y-49481608D01*
X89135382Y-49400483D01*
X80775499Y-57760337D01*
X72415615Y-66120192D01*
X72415615Y-107245931D01*
X72415615Y-148371671D01*
X73632980Y-149588837D01*
X74850345Y-150806004D01*
X75101298Y-150602610D01*
X75578176Y-150248177D01*
X76078078Y-149937977D01*
X76598102Y-149672498D01*
X77135346Y-149452228D01*
X77686906Y-149277656D01*
X78249881Y-149149269D01*
X78821366Y-149067556D01*
X79398461Y-149033005D01*
X79978261Y-149046104D01*
X80557865Y-149107342D01*
X81134370Y-149217206D01*
X81704872Y-149376186D01*
X81931192Y-149453802D01*
X82287793Y-149597888D01*
X82660540Y-149776138D01*
X83036313Y-149981135D01*
X83401991Y-150205457D01*
X83744455Y-150441685D01*
X83933333Y-150586051D01*
X84070377Y-150701893D01*
X84228713Y-150846472D01*
X84398662Y-151010011D01*
X84570547Y-151182733D01*
X84734688Y-151354863D01*
X84881409Y-151516622D01*
X85001029Y-151658235D01*
X85025678Y-151689490D01*
X85372479Y-152175222D01*
X85677513Y-152681960D01*
X85938349Y-153204978D01*
X86152552Y-153739549D01*
X86270605Y-154108192D01*
X86386428Y-154565437D01*
X86467903Y-155018044D01*
X86517074Y-155480940D01*
X86535983Y-155969054D01*
X86536337Y-156049950D01*
X86516939Y-156615018D01*
X86457508Y-157154576D01*
X86356190Y-157676593D01*
X86211132Y-158189038D01*
X86020481Y-158699880D01*
X85814785Y-159151852D01*
X85551248Y-159641399D01*
X85258101Y-160095367D01*
X84928747Y-160522973D01*
X84556588Y-160933430D01*
X84494019Y-160996738D01*
X84287705Y-161198337D01*
X84098570Y-161371374D01*
X83912650Y-161527296D01*
X83715979Y-161677552D01*
X83494593Y-161833589D01*
X83374050Y-161914834D01*
X82877820Y-162215069D01*
X82356658Y-162471652D01*
X81813053Y-162683754D01*
X81249494Y-162850545D01*
X80668472Y-162971196D01*
X80072476Y-163044879D01*
X79954254Y-163053735D01*
X79788175Y-163064347D01*
X79657410Y-163070999D01*
X79546590Y-163073884D01*
X79440347Y-163073196D01*
X79323314Y-163069128D01*
X79204204Y-163063175D01*
X78595781Y-163006085D01*
X78003948Y-162900934D01*
X77428539Y-162747672D01*
X76869390Y-162546250D01*
X76326336Y-162296618D01*
X75924257Y-162074611D01*
X75443282Y-161760154D01*
X74990472Y-161405819D01*
X74568189Y-161014979D01*
X74178798Y-160591008D01*
X73824661Y-160137282D01*
X73508142Y-159657174D01*
X73231605Y-159154059D01*
X72997414Y-158631310D01*
X72807931Y-158092303D01*
X72665520Y-157540410D01*
X72632853Y-157375673D01*
X72591435Y-157136523D01*
X72560430Y-156918601D01*
X72538887Y-156708711D01*
X72525855Y-156493658D01*
X72520380Y-156260247D01*
X72520857Y-156148594D01*
X72552329Y-156148594D01*
X72556548Y-156403039D01*
X72565556Y-156642347D01*
X72579353Y-156855559D01*
X72597940Y-157031714D01*
X72603067Y-157066967D01*
X72716421Y-157645836D01*
X72873732Y-158202695D01*
X73077162Y-158744496D01*
X73227240Y-159075576D01*
X73463541Y-159528374D01*
X73717980Y-159942950D01*
X73998626Y-160330928D01*
X74313549Y-160703932D01*
X74484691Y-160886696D01*
X74923790Y-161306189D01*
X75387700Y-161681867D01*
X75875332Y-162013128D01*
X76385593Y-162299370D01*
X76917392Y-162539991D01*
X77469639Y-162734389D01*
X78041243Y-162881962D01*
X78136336Y-162901569D01*
X78682154Y-162989835D01*
X79219636Y-163034446D01*
X79760606Y-163035859D01*
X80316887Y-162994532D01*
X80373774Y-162988070D01*
X80948611Y-162895762D01*
X81508183Y-162756319D01*
X82050186Y-162571778D01*
X82572319Y-162344176D01*
X83072278Y-162075548D01*
X83547759Y-161767931D01*
X83996460Y-161423362D01*
X84416078Y-161043877D01*
X84804309Y-160631513D01*
X85158850Y-160188306D01*
X85477399Y-159716292D01*
X85757652Y-159217508D01*
X85997306Y-158693991D01*
X86194059Y-158147777D01*
X86308073Y-157740741D01*
X86428550Y-157150810D01*
X86498195Y-156560727D01*
X86517008Y-155970816D01*
X86484989Y-155381399D01*
X86402137Y-154792796D01*
X86308403Y-154359160D01*
X86142451Y-153793811D01*
X85931874Y-153250333D01*
X85678847Y-152730714D01*
X85385547Y-152236940D01*
X85054151Y-151770998D01*
X84686833Y-151334875D01*
X84285772Y-150930558D01*
X83853142Y-150560035D01*
X83391120Y-150225291D01*
X82901884Y-149928314D01*
X82387608Y-149671091D01*
X81850469Y-149455609D01*
X81292643Y-149283854D01*
X80716307Y-149157815D01*
X80588192Y-149136566D01*
X80248053Y-149095108D01*
X79876681Y-149070608D01*
X79490821Y-149063185D01*
X79107221Y-149072955D01*
X78742626Y-149100035D01*
X78555856Y-149122406D01*
X78074938Y-149208901D01*
X77584481Y-149334507D01*
X77098325Y-149494641D01*
X76630307Y-149684718D01*
X76194265Y-149900153D01*
X76173217Y-149911693D01*
X75686910Y-150207411D01*
X75221136Y-150545922D01*
X74781071Y-150922318D01*
X74371891Y-151331693D01*
X73998775Y-151769138D01*
X73666899Y-152229748D01*
X73573508Y-152375976D01*
X73470282Y-152553088D01*
X73357960Y-152763776D01*
X73243265Y-152993944D01*
X73132921Y-153229495D01*
X73033652Y-153456330D01*
X72952180Y-153660353D01*
X72924752Y-153736237D01*
X72829708Y-154035726D01*
X72741198Y-154363399D01*
X72664842Y-154696593D01*
X72606262Y-155012649D01*
X72603067Y-155032933D01*
X72583342Y-155198657D01*
X72568405Y-155404045D01*
X72558257Y-155638137D01*
X72552899Y-155889974D01*
X72552329Y-156148594D01*
X72520857Y-156148594D01*
X72521512Y-155995282D01*
X72523870Y-155864721D01*
X72529436Y-155647021D01*
X72536498Y-155468357D01*
X72546011Y-155316916D01*
X72558932Y-155180886D01*
X72576218Y-155048453D01*
X72598826Y-154907807D01*
X72603592Y-154880381D01*
X72732131Y-154288777D01*
X72906449Y-153716855D01*
X73125640Y-153166605D01*
X73388798Y-152640017D01*
X73695020Y-152139081D01*
X74043398Y-151665788D01*
X74094167Y-151603444D01*
X74165992Y-151514486D01*
X74223874Y-151439358D01*
X74261152Y-151386930D01*
X74271671Y-151367059D01*
X74254121Y-151346055D01*
X74203394Y-151292129D01*
X74122377Y-151208209D01*
X74013956Y-151097223D01*
X73881018Y-150962099D01*
X73726449Y-150805766D01*
X73553136Y-150631152D01*
X73363966Y-150441186D01*
X73161825Y-150238794D01*
X73010442Y-150087592D01*
X72759541Y-149836960D01*
X72542424Y-149619381D01*
X72356619Y-149432253D01*
X72199656Y-149272972D01*
X72069062Y-149138936D01*
X71962367Y-149027541D01*
X71877100Y-148936184D01*
X71810789Y-148862262D01*
X71760963Y-148803172D01*
X71725150Y-148756310D01*
X71700880Y-148719075D01*
X71688320Y-148694921D01*
X71627427Y-148560713D01*
X71627427Y-107248353D01*
X71627427Y-65935994D01*
X71680788Y-65811991D01*
X71689098Y-65798077D01*
X71705941Y-65775921D01*
X71732226Y-65744608D01*
X71768859Y-65703223D01*
X71816749Y-65650851D01*
X71876802Y-65586575D01*
X71949928Y-65509481D01*
X72037032Y-65418652D01*
X72139024Y-65313174D01*
X72256810Y-65192131D01*
X72391298Y-65054607D01*
X72543396Y-64899687D01*
X72714012Y-64726456D01*
X72904052Y-64533998D01*
X73114425Y-64321397D01*
X73346039Y-64087739D01*
X73599800Y-63832107D01*
X73876617Y-63553586D01*
X74177397Y-63251261D01*
X74503048Y-62924217D01*
X74854478Y-62571537D01*
X75232593Y-62192307D01*
X75638302Y-61785610D01*
X76072513Y-61350532D01*
X76536132Y-60886156D01*
X77030068Y-60391569D01*
X77555229Y-59865853D01*
X78112521Y-59308093D01*
X78702853Y-58717375D01*
X79327131Y-58092782D01*
X79986265Y-57433400D01*
X80153008Y-57266605D01*
X88571867Y-48845222D01*
X88516214Y-48774513D01*
X88480242Y-48725863D01*
X88423803Y-48646137D01*
X88354723Y-48546513D01*
X88283024Y-48441421D01*
X88042588Y-48041594D01*
X87845875Y-47617117D01*
X87692466Y-47166912D01*
X87581943Y-46689901D01*
X87565323Y-46593494D01*
X87546672Y-46432199D01*
X87535711Y-46234176D01*
X87532198Y-46012927D01*
X87533600Y-45925215D01*
G37*
G04 #@! TD*
M02*
