G04 #@! TF.GenerationSoftware,KiCad,Pcbnew,7.0.1-3b83917a11~171~ubuntu22.04.1*
G04 #@! TF.CreationDate,2023-03-14T16:36:31-04:00*
G04 #@! TF.ProjectId,mfos_vca-panel,6d666f73-5f76-4636-912d-70616e656c2e,rev?*
G04 #@! TF.SameCoordinates,Original*
G04 #@! TF.FileFunction,Other,Comment*
%FSLAX46Y46*%
G04 Gerber Fmt 4.6, Leading zero omitted, Abs format (unit mm)*
G04 Created by KiCad (PCBNEW 7.0.1-3b83917a11~171~ubuntu22.04.1) date 2023-03-14 16:36:31*
%MOMM*%
%LPD*%
G01*
G04 APERTURE LIST*
%ADD10C,0.150000*%
%ADD11C,0.120000*%
G04 APERTURE END LIST*
D10*
G04 #@! TO.C,H6*
X99000000Y-46000000D02*
G75*
G03*
X99000000Y-46000000I-7000000J0D01*
G01*
D11*
G04 #@! TO.C,H4*
X20000000Y-6000000D02*
X22800000Y-6000000D01*
X20000000Y-12000000D02*
X22800000Y-12000000D01*
X20000000Y-200000000D02*
X22800000Y-200000000D01*
X20000000Y-206000000D02*
X22800000Y-206000000D01*
X20000000Y-6000000D02*
G75*
G03*
X20000000Y-12000000I0J-3000000D01*
G01*
X20000000Y-200000000D02*
G75*
G03*
X20000000Y-206000000I0J-3000000D01*
G01*
X22800000Y-12000000D02*
G75*
G03*
X22800000Y-6000000I0J3000000D01*
G01*
X22800000Y-206000000D02*
G75*
G03*
X22800000Y-200000000I0J3000000D01*
G01*
D10*
G04 #@! TO.C,H7*
X99000000Y-131000000D02*
G75*
G03*
X99000000Y-131000000I-7000000J0D01*
G01*
G04 #@! TO.C,H16*
X114000000Y-181000000D02*
G75*
G03*
X114000000Y-181000000I-9500000J0D01*
G01*
G04 #@! TO.C,H2*
X49000000Y-131000000D02*
G75*
G03*
X49000000Y-131000000I-7000000J0D01*
G01*
G04 #@! TO.C,H9*
X64000000Y-156000000D02*
G75*
G03*
X64000000Y-156000000I-9500000J0D01*
G01*
D11*
G04 #@! TO.C,H8*
X114000000Y-206000000D02*
X111200000Y-206000000D01*
X114000000Y-200000000D02*
X111200000Y-200000000D01*
X114000000Y-12000000D02*
X111200000Y-12000000D01*
X114000000Y-6000000D02*
X111200000Y-6000000D01*
X114000000Y-206000000D02*
G75*
G03*
X114000000Y-200000000I0J3000000D01*
G01*
X114000000Y-12000000D02*
G75*
G03*
X114000000Y-6000000I0J3000000D01*
G01*
X111200000Y-200000000D02*
G75*
G03*
X111200000Y-206000000I0J-3000000D01*
G01*
X111200000Y-6000000D02*
G75*
G03*
X111200000Y-12000000I0J-3000000D01*
G01*
D10*
G04 #@! TO.C,H15*
X114000000Y-156000000D02*
G75*
G03*
X114000000Y-156000000I-9500000J0D01*
G01*
G04 #@! TO.C,H14*
X89000000Y-181000000D02*
G75*
G03*
X89000000Y-181000000I-9500000J0D01*
G01*
G04 #@! TO.C,H5*
X39000000Y-181000000D02*
G75*
G03*
X39000000Y-181000000I-9500000J0D01*
G01*
G04 #@! TO.C,H10*
X49000000Y-90000000D02*
G75*
G03*
X49000000Y-90000000I-7000000J0D01*
G01*
G04 #@! TO.C,H13*
X89000000Y-156000000D02*
G75*
G03*
X89000000Y-156000000I-9500000J0D01*
G01*
G04 #@! TO.C,H11*
X64000000Y-181000000D02*
G75*
G03*
X64000000Y-181000000I-9500000J0D01*
G01*
G04 #@! TO.C,H12*
X99000000Y-90000000D02*
G75*
G03*
X99000000Y-90000000I-7000000J0D01*
G01*
G04 #@! TO.C,H1*
X49000000Y-46000000D02*
G75*
G03*
X49000000Y-46000000I-7000000J0D01*
G01*
G04 #@! TO.C,H3*
X39000000Y-156000000D02*
G75*
G03*
X39000000Y-156000000I-9500000J0D01*
G01*
G04 #@! TD*
M02*
