G04 #@! TF.GenerationSoftware,KiCad,Pcbnew,7.0.1-3b83917a11~171~ubuntu22.04.1*
G04 #@! TF.CreationDate,2023-03-14T16:36:31-04:00*
G04 #@! TF.ProjectId,mfos_vca-panel,6d666f73-5f76-4636-912d-70616e656c2e,rev?*
G04 #@! TF.SameCoordinates,Original*
G04 #@! TF.FileFunction,Legend,Bot*
G04 #@! TF.FilePolarity,Positive*
%FSLAX46Y46*%
G04 Gerber Fmt 4.6, Leading zero omitted, Abs format (unit mm)*
G04 Created by KiCad (PCBNEW 7.0.1-3b83917a11~171~ubuntu22.04.1) date 2023-03-14 16:36:31*
%MOMM*%
%LPD*%
G01*
G04 APERTURE LIST*
%ADD10C,0.150000*%
G04 APERTURE END LIST*
D10*
X78000000Y-190532619D02*
X78000000Y-189532619D01*
X78000000Y-189532619D02*
X77619048Y-189532619D01*
X77619048Y-189532619D02*
X77523810Y-189580238D01*
X77523810Y-189580238D02*
X77476191Y-189627857D01*
X77476191Y-189627857D02*
X77428572Y-189723095D01*
X77428572Y-189723095D02*
X77428572Y-189865952D01*
X77428572Y-189865952D02*
X77476191Y-189961190D01*
X77476191Y-189961190D02*
X77523810Y-190008809D01*
X77523810Y-190008809D02*
X77619048Y-190056428D01*
X77619048Y-190056428D02*
X78000000Y-190056428D01*
X76571429Y-190532619D02*
X76571429Y-190008809D01*
X76571429Y-190008809D02*
X76619048Y-189913571D01*
X76619048Y-189913571D02*
X76714286Y-189865952D01*
X76714286Y-189865952D02*
X76904762Y-189865952D01*
X76904762Y-189865952D02*
X77000000Y-189913571D01*
X76571429Y-190485000D02*
X76666667Y-190532619D01*
X76666667Y-190532619D02*
X76904762Y-190532619D01*
X76904762Y-190532619D02*
X77000000Y-190485000D01*
X77000000Y-190485000D02*
X77047619Y-190389761D01*
X77047619Y-190389761D02*
X77047619Y-190294523D01*
X77047619Y-190294523D02*
X77000000Y-190199285D01*
X77000000Y-190199285D02*
X76904762Y-190151666D01*
X76904762Y-190151666D02*
X76666667Y-190151666D01*
X76666667Y-190151666D02*
X76571429Y-190104047D01*
X76095238Y-189865952D02*
X76095238Y-190532619D01*
X76095238Y-189961190D02*
X76047619Y-189913571D01*
X76047619Y-189913571D02*
X75952381Y-189865952D01*
X75952381Y-189865952D02*
X75809524Y-189865952D01*
X75809524Y-189865952D02*
X75714286Y-189913571D01*
X75714286Y-189913571D02*
X75666667Y-190008809D01*
X75666667Y-190008809D02*
X75666667Y-190532619D01*
X74809524Y-190485000D02*
X74904762Y-190532619D01*
X74904762Y-190532619D02*
X75095238Y-190532619D01*
X75095238Y-190532619D02*
X75190476Y-190485000D01*
X75190476Y-190485000D02*
X75238095Y-190389761D01*
X75238095Y-190389761D02*
X75238095Y-190008809D01*
X75238095Y-190008809D02*
X75190476Y-189913571D01*
X75190476Y-189913571D02*
X75095238Y-189865952D01*
X75095238Y-189865952D02*
X74904762Y-189865952D01*
X74904762Y-189865952D02*
X74809524Y-189913571D01*
X74809524Y-189913571D02*
X74761905Y-190008809D01*
X74761905Y-190008809D02*
X74761905Y-190104047D01*
X74761905Y-190104047D02*
X75238095Y-190199285D01*
X74190476Y-190532619D02*
X74285714Y-190485000D01*
X74285714Y-190485000D02*
X74333333Y-190389761D01*
X74333333Y-190389761D02*
X74333333Y-189532619D01*
X72619047Y-190532619D02*
X72619047Y-189532619D01*
X72619047Y-190485000D02*
X72714285Y-190532619D01*
X72714285Y-190532619D02*
X72904761Y-190532619D01*
X72904761Y-190532619D02*
X72999999Y-190485000D01*
X72999999Y-190485000D02*
X73047618Y-190437380D01*
X73047618Y-190437380D02*
X73095237Y-190342142D01*
X73095237Y-190342142D02*
X73095237Y-190056428D01*
X73095237Y-190056428D02*
X73047618Y-189961190D01*
X73047618Y-189961190D02*
X72999999Y-189913571D01*
X72999999Y-189913571D02*
X72904761Y-189865952D01*
X72904761Y-189865952D02*
X72714285Y-189865952D01*
X72714285Y-189865952D02*
X72619047Y-189913571D01*
X71761904Y-190485000D02*
X71857142Y-190532619D01*
X71857142Y-190532619D02*
X72047618Y-190532619D01*
X72047618Y-190532619D02*
X72142856Y-190485000D01*
X72142856Y-190485000D02*
X72190475Y-190389761D01*
X72190475Y-190389761D02*
X72190475Y-190008809D01*
X72190475Y-190008809D02*
X72142856Y-189913571D01*
X72142856Y-189913571D02*
X72047618Y-189865952D01*
X72047618Y-189865952D02*
X71857142Y-189865952D01*
X71857142Y-189865952D02*
X71761904Y-189913571D01*
X71761904Y-189913571D02*
X71714285Y-190008809D01*
X71714285Y-190008809D02*
X71714285Y-190104047D01*
X71714285Y-190104047D02*
X72190475Y-190199285D01*
X71333332Y-190485000D02*
X71238094Y-190532619D01*
X71238094Y-190532619D02*
X71047618Y-190532619D01*
X71047618Y-190532619D02*
X70952380Y-190485000D01*
X70952380Y-190485000D02*
X70904761Y-190389761D01*
X70904761Y-190389761D02*
X70904761Y-190342142D01*
X70904761Y-190342142D02*
X70952380Y-190246904D01*
X70952380Y-190246904D02*
X71047618Y-190199285D01*
X71047618Y-190199285D02*
X71190475Y-190199285D01*
X71190475Y-190199285D02*
X71285713Y-190151666D01*
X71285713Y-190151666D02*
X71333332Y-190056428D01*
X71333332Y-190056428D02*
X71333332Y-190008809D01*
X71333332Y-190008809D02*
X71285713Y-189913571D01*
X71285713Y-189913571D02*
X71190475Y-189865952D01*
X71190475Y-189865952D02*
X71047618Y-189865952D01*
X71047618Y-189865952D02*
X70952380Y-189913571D01*
X70476189Y-190532619D02*
X70476189Y-189865952D01*
X70476189Y-189532619D02*
X70523808Y-189580238D01*
X70523808Y-189580238D02*
X70476189Y-189627857D01*
X70476189Y-189627857D02*
X70428570Y-189580238D01*
X70428570Y-189580238D02*
X70476189Y-189532619D01*
X70476189Y-189532619D02*
X70476189Y-189627857D01*
X69571428Y-189865952D02*
X69571428Y-190675476D01*
X69571428Y-190675476D02*
X69619047Y-190770714D01*
X69619047Y-190770714D02*
X69666666Y-190818333D01*
X69666666Y-190818333D02*
X69761904Y-190865952D01*
X69761904Y-190865952D02*
X69904761Y-190865952D01*
X69904761Y-190865952D02*
X69999999Y-190818333D01*
X69571428Y-190485000D02*
X69666666Y-190532619D01*
X69666666Y-190532619D02*
X69857142Y-190532619D01*
X69857142Y-190532619D02*
X69952380Y-190485000D01*
X69952380Y-190485000D02*
X69999999Y-190437380D01*
X69999999Y-190437380D02*
X70047618Y-190342142D01*
X70047618Y-190342142D02*
X70047618Y-190056428D01*
X70047618Y-190056428D02*
X69999999Y-189961190D01*
X69999999Y-189961190D02*
X69952380Y-189913571D01*
X69952380Y-189913571D02*
X69857142Y-189865952D01*
X69857142Y-189865952D02*
X69666666Y-189865952D01*
X69666666Y-189865952D02*
X69571428Y-189913571D01*
X69095237Y-189865952D02*
X69095237Y-190532619D01*
X69095237Y-189961190D02*
X69047618Y-189913571D01*
X69047618Y-189913571D02*
X68952380Y-189865952D01*
X68952380Y-189865952D02*
X68809523Y-189865952D01*
X68809523Y-189865952D02*
X68714285Y-189913571D01*
X68714285Y-189913571D02*
X68666666Y-190008809D01*
X68666666Y-190008809D02*
X68666666Y-190532619D01*
X67428570Y-190532619D02*
X67428570Y-189532619D01*
X67428570Y-189913571D02*
X67333332Y-189865952D01*
X67333332Y-189865952D02*
X67142856Y-189865952D01*
X67142856Y-189865952D02*
X67047618Y-189913571D01*
X67047618Y-189913571D02*
X66999999Y-189961190D01*
X66999999Y-189961190D02*
X66952380Y-190056428D01*
X66952380Y-190056428D02*
X66952380Y-190342142D01*
X66952380Y-190342142D02*
X66999999Y-190437380D01*
X66999999Y-190437380D02*
X67047618Y-190485000D01*
X67047618Y-190485000D02*
X67142856Y-190532619D01*
X67142856Y-190532619D02*
X67333332Y-190532619D01*
X67333332Y-190532619D02*
X67428570Y-190485000D01*
X66619046Y-189865952D02*
X66380951Y-190532619D01*
X66142856Y-189865952D02*
X66380951Y-190532619D01*
X66380951Y-190532619D02*
X66476189Y-190770714D01*
X66476189Y-190770714D02*
X66523808Y-190818333D01*
X66523808Y-190818333D02*
X66619046Y-190865952D01*
X64428570Y-190532619D02*
X64761903Y-190056428D01*
X64999998Y-190532619D02*
X64999998Y-189532619D01*
X64999998Y-189532619D02*
X64619046Y-189532619D01*
X64619046Y-189532619D02*
X64523808Y-189580238D01*
X64523808Y-189580238D02*
X64476189Y-189627857D01*
X64476189Y-189627857D02*
X64428570Y-189723095D01*
X64428570Y-189723095D02*
X64428570Y-189865952D01*
X64428570Y-189865952D02*
X64476189Y-189961190D01*
X64476189Y-189961190D02*
X64523808Y-190008809D01*
X64523808Y-190008809D02*
X64619046Y-190056428D01*
X64619046Y-190056428D02*
X64999998Y-190056428D01*
X63999998Y-190532619D02*
X63999998Y-189865952D01*
X63999998Y-189532619D02*
X64047617Y-189580238D01*
X64047617Y-189580238D02*
X63999998Y-189627857D01*
X63999998Y-189627857D02*
X63952379Y-189580238D01*
X63952379Y-189580238D02*
X63999998Y-189532619D01*
X63999998Y-189532619D02*
X63999998Y-189627857D01*
X63095237Y-190485000D02*
X63190475Y-190532619D01*
X63190475Y-190532619D02*
X63380951Y-190532619D01*
X63380951Y-190532619D02*
X63476189Y-190485000D01*
X63476189Y-190485000D02*
X63523808Y-190437380D01*
X63523808Y-190437380D02*
X63571427Y-190342142D01*
X63571427Y-190342142D02*
X63571427Y-190056428D01*
X63571427Y-190056428D02*
X63523808Y-189961190D01*
X63523808Y-189961190D02*
X63476189Y-189913571D01*
X63476189Y-189913571D02*
X63380951Y-189865952D01*
X63380951Y-189865952D02*
X63190475Y-189865952D01*
X63190475Y-189865952D02*
X63095237Y-189913571D01*
X62666665Y-190532619D02*
X62666665Y-189532619D01*
X62238094Y-190532619D02*
X62238094Y-190008809D01*
X62238094Y-190008809D02*
X62285713Y-189913571D01*
X62285713Y-189913571D02*
X62380951Y-189865952D01*
X62380951Y-189865952D02*
X62523808Y-189865952D01*
X62523808Y-189865952D02*
X62619046Y-189913571D01*
X62619046Y-189913571D02*
X62666665Y-189961190D01*
X60999998Y-190532619D02*
X60999998Y-189532619D01*
X60999998Y-190008809D02*
X60428570Y-190008809D01*
X60428570Y-190532619D02*
X60428570Y-189532619D01*
X59809522Y-190532619D02*
X59904760Y-190485000D01*
X59904760Y-190485000D02*
X59952379Y-190437380D01*
X59952379Y-190437380D02*
X59999998Y-190342142D01*
X59999998Y-190342142D02*
X59999998Y-190056428D01*
X59999998Y-190056428D02*
X59952379Y-189961190D01*
X59952379Y-189961190D02*
X59904760Y-189913571D01*
X59904760Y-189913571D02*
X59809522Y-189865952D01*
X59809522Y-189865952D02*
X59666665Y-189865952D01*
X59666665Y-189865952D02*
X59571427Y-189913571D01*
X59571427Y-189913571D02*
X59523808Y-189961190D01*
X59523808Y-189961190D02*
X59476189Y-190056428D01*
X59476189Y-190056428D02*
X59476189Y-190342142D01*
X59476189Y-190342142D02*
X59523808Y-190437380D01*
X59523808Y-190437380D02*
X59571427Y-190485000D01*
X59571427Y-190485000D02*
X59666665Y-190532619D01*
X59666665Y-190532619D02*
X59809522Y-190532619D01*
X58904760Y-190532619D02*
X58999998Y-190485000D01*
X58999998Y-190485000D02*
X59047617Y-190389761D01*
X59047617Y-190389761D02*
X59047617Y-189532619D01*
X58523807Y-190532619D02*
X58523807Y-189865952D01*
X58523807Y-189961190D02*
X58476188Y-189913571D01*
X58476188Y-189913571D02*
X58380950Y-189865952D01*
X58380950Y-189865952D02*
X58238093Y-189865952D01*
X58238093Y-189865952D02*
X58142855Y-189913571D01*
X58142855Y-189913571D02*
X58095236Y-190008809D01*
X58095236Y-190008809D02*
X58095236Y-190532619D01*
X58095236Y-190008809D02*
X58047617Y-189913571D01*
X58047617Y-189913571D02*
X57952379Y-189865952D01*
X57952379Y-189865952D02*
X57809522Y-189865952D01*
X57809522Y-189865952D02*
X57714283Y-189913571D01*
X57714283Y-189913571D02*
X57666664Y-190008809D01*
X57666664Y-190008809D02*
X57666664Y-190532619D01*
X56809522Y-190485000D02*
X56904760Y-190532619D01*
X56904760Y-190532619D02*
X57095236Y-190532619D01*
X57095236Y-190532619D02*
X57190474Y-190485000D01*
X57190474Y-190485000D02*
X57238093Y-190389761D01*
X57238093Y-190389761D02*
X57238093Y-190008809D01*
X57238093Y-190008809D02*
X57190474Y-189913571D01*
X57190474Y-189913571D02*
X57095236Y-189865952D01*
X57095236Y-189865952D02*
X56904760Y-189865952D01*
X56904760Y-189865952D02*
X56809522Y-189913571D01*
X56809522Y-189913571D02*
X56761903Y-190008809D01*
X56761903Y-190008809D02*
X56761903Y-190104047D01*
X56761903Y-190104047D02*
X57238093Y-190199285D01*
X56380950Y-190485000D02*
X56285712Y-190532619D01*
X56285712Y-190532619D02*
X56095236Y-190532619D01*
X56095236Y-190532619D02*
X55999998Y-190485000D01*
X55999998Y-190485000D02*
X55952379Y-190389761D01*
X55952379Y-190389761D02*
X55952379Y-190342142D01*
X55952379Y-190342142D02*
X55999998Y-190246904D01*
X55999998Y-190246904D02*
X56095236Y-190199285D01*
X56095236Y-190199285D02*
X56238093Y-190199285D01*
X56238093Y-190199285D02*
X56333331Y-190151666D01*
X56333331Y-190151666D02*
X56380950Y-190056428D01*
X56380950Y-190056428D02*
X56380950Y-190008809D01*
X56380950Y-190008809D02*
X56333331Y-189913571D01*
X56333331Y-189913571D02*
X56238093Y-189865952D01*
X56238093Y-189865952D02*
X56095236Y-189865952D01*
X56095236Y-189865952D02*
X55999998Y-189913571D01*
X74357143Y-191628809D02*
X74690476Y-191628809D01*
X74690476Y-192152619D02*
X74690476Y-191152619D01*
X74690476Y-191152619D02*
X74214286Y-191152619D01*
X73452381Y-192105000D02*
X73547619Y-192152619D01*
X73547619Y-192152619D02*
X73738095Y-192152619D01*
X73738095Y-192152619D02*
X73833333Y-192105000D01*
X73833333Y-192105000D02*
X73880952Y-192009761D01*
X73880952Y-192009761D02*
X73880952Y-191628809D01*
X73880952Y-191628809D02*
X73833333Y-191533571D01*
X73833333Y-191533571D02*
X73738095Y-191485952D01*
X73738095Y-191485952D02*
X73547619Y-191485952D01*
X73547619Y-191485952D02*
X73452381Y-191533571D01*
X73452381Y-191533571D02*
X73404762Y-191628809D01*
X73404762Y-191628809D02*
X73404762Y-191724047D01*
X73404762Y-191724047D02*
X73880952Y-191819285D01*
X72976190Y-192152619D02*
X72976190Y-191152619D01*
X72976190Y-191533571D02*
X72880952Y-191485952D01*
X72880952Y-191485952D02*
X72690476Y-191485952D01*
X72690476Y-191485952D02*
X72595238Y-191533571D01*
X72595238Y-191533571D02*
X72547619Y-191581190D01*
X72547619Y-191581190D02*
X72500000Y-191676428D01*
X72500000Y-191676428D02*
X72500000Y-191962142D01*
X72500000Y-191962142D02*
X72547619Y-192057380D01*
X72547619Y-192057380D02*
X72595238Y-192105000D01*
X72595238Y-192105000D02*
X72690476Y-192152619D01*
X72690476Y-192152619D02*
X72880952Y-192152619D01*
X72880952Y-192152619D02*
X72976190Y-192105000D01*
X71357142Y-191247857D02*
X71309523Y-191200238D01*
X71309523Y-191200238D02*
X71214285Y-191152619D01*
X71214285Y-191152619D02*
X70976190Y-191152619D01*
X70976190Y-191152619D02*
X70880952Y-191200238D01*
X70880952Y-191200238D02*
X70833333Y-191247857D01*
X70833333Y-191247857D02*
X70785714Y-191343095D01*
X70785714Y-191343095D02*
X70785714Y-191438333D01*
X70785714Y-191438333D02*
X70833333Y-191581190D01*
X70833333Y-191581190D02*
X71404761Y-192152619D01*
X71404761Y-192152619D02*
X70785714Y-192152619D01*
X70166666Y-191152619D02*
X70071428Y-191152619D01*
X70071428Y-191152619D02*
X69976190Y-191200238D01*
X69976190Y-191200238D02*
X69928571Y-191247857D01*
X69928571Y-191247857D02*
X69880952Y-191343095D01*
X69880952Y-191343095D02*
X69833333Y-191533571D01*
X69833333Y-191533571D02*
X69833333Y-191771666D01*
X69833333Y-191771666D02*
X69880952Y-191962142D01*
X69880952Y-191962142D02*
X69928571Y-192057380D01*
X69928571Y-192057380D02*
X69976190Y-192105000D01*
X69976190Y-192105000D02*
X70071428Y-192152619D01*
X70071428Y-192152619D02*
X70166666Y-192152619D01*
X70166666Y-192152619D02*
X70261904Y-192105000D01*
X70261904Y-192105000D02*
X70309523Y-192057380D01*
X70309523Y-192057380D02*
X70357142Y-191962142D01*
X70357142Y-191962142D02*
X70404761Y-191771666D01*
X70404761Y-191771666D02*
X70404761Y-191533571D01*
X70404761Y-191533571D02*
X70357142Y-191343095D01*
X70357142Y-191343095D02*
X70309523Y-191247857D01*
X70309523Y-191247857D02*
X70261904Y-191200238D01*
X70261904Y-191200238D02*
X70166666Y-191152619D01*
X69452380Y-191247857D02*
X69404761Y-191200238D01*
X69404761Y-191200238D02*
X69309523Y-191152619D01*
X69309523Y-191152619D02*
X69071428Y-191152619D01*
X69071428Y-191152619D02*
X68976190Y-191200238D01*
X68976190Y-191200238D02*
X68928571Y-191247857D01*
X68928571Y-191247857D02*
X68880952Y-191343095D01*
X68880952Y-191343095D02*
X68880952Y-191438333D01*
X68880952Y-191438333D02*
X68928571Y-191581190D01*
X68928571Y-191581190D02*
X69499999Y-192152619D01*
X69499999Y-192152619D02*
X68880952Y-192152619D01*
X68547618Y-191152619D02*
X67928571Y-191152619D01*
X67928571Y-191152619D02*
X68261904Y-191533571D01*
X68261904Y-191533571D02*
X68119047Y-191533571D01*
X68119047Y-191533571D02*
X68023809Y-191581190D01*
X68023809Y-191581190D02*
X67976190Y-191628809D01*
X67976190Y-191628809D02*
X67928571Y-191724047D01*
X67928571Y-191724047D02*
X67928571Y-191962142D01*
X67928571Y-191962142D02*
X67976190Y-192057380D01*
X67976190Y-192057380D02*
X68023809Y-192105000D01*
X68023809Y-192105000D02*
X68119047Y-192152619D01*
X68119047Y-192152619D02*
X68404761Y-192152619D01*
X68404761Y-192152619D02*
X68499999Y-192105000D01*
X68499999Y-192105000D02*
X68547618Y-192057380D01*
X66023809Y-191105000D02*
X66880951Y-192390714D01*
X64357142Y-192057380D02*
X64404761Y-192105000D01*
X64404761Y-192105000D02*
X64547618Y-192152619D01*
X64547618Y-192152619D02*
X64642856Y-192152619D01*
X64642856Y-192152619D02*
X64785713Y-192105000D01*
X64785713Y-192105000D02*
X64880951Y-192009761D01*
X64880951Y-192009761D02*
X64928570Y-191914523D01*
X64928570Y-191914523D02*
X64976189Y-191724047D01*
X64976189Y-191724047D02*
X64976189Y-191581190D01*
X64976189Y-191581190D02*
X64928570Y-191390714D01*
X64928570Y-191390714D02*
X64880951Y-191295476D01*
X64880951Y-191295476D02*
X64785713Y-191200238D01*
X64785713Y-191200238D02*
X64642856Y-191152619D01*
X64642856Y-191152619D02*
X64547618Y-191152619D01*
X64547618Y-191152619D02*
X64404761Y-191200238D01*
X64404761Y-191200238D02*
X64357142Y-191247857D01*
X63357142Y-192057380D02*
X63404761Y-192105000D01*
X63404761Y-192105000D02*
X63547618Y-192152619D01*
X63547618Y-192152619D02*
X63642856Y-192152619D01*
X63642856Y-192152619D02*
X63785713Y-192105000D01*
X63785713Y-192105000D02*
X63880951Y-192009761D01*
X63880951Y-192009761D02*
X63928570Y-191914523D01*
X63928570Y-191914523D02*
X63976189Y-191724047D01*
X63976189Y-191724047D02*
X63976189Y-191581190D01*
X63976189Y-191581190D02*
X63928570Y-191390714D01*
X63928570Y-191390714D02*
X63880951Y-191295476D01*
X63880951Y-191295476D02*
X63785713Y-191200238D01*
X63785713Y-191200238D02*
X63642856Y-191152619D01*
X63642856Y-191152619D02*
X63547618Y-191152619D01*
X63547618Y-191152619D02*
X63404761Y-191200238D01*
X63404761Y-191200238D02*
X63357142Y-191247857D01*
X62738094Y-191152619D02*
X62642856Y-191152619D01*
X62642856Y-191152619D02*
X62547618Y-191200238D01*
X62547618Y-191200238D02*
X62499999Y-191247857D01*
X62499999Y-191247857D02*
X62452380Y-191343095D01*
X62452380Y-191343095D02*
X62404761Y-191533571D01*
X62404761Y-191533571D02*
X62404761Y-191771666D01*
X62404761Y-191771666D02*
X62452380Y-191962142D01*
X62452380Y-191962142D02*
X62499999Y-192057380D01*
X62499999Y-192057380D02*
X62547618Y-192105000D01*
X62547618Y-192105000D02*
X62642856Y-192152619D01*
X62642856Y-192152619D02*
X62738094Y-192152619D01*
X62738094Y-192152619D02*
X62833332Y-192105000D01*
X62833332Y-192105000D02*
X62880951Y-192057380D01*
X62880951Y-192057380D02*
X62928570Y-191962142D01*
X62928570Y-191962142D02*
X62976189Y-191771666D01*
X62976189Y-191771666D02*
X62976189Y-191533571D01*
X62976189Y-191533571D02*
X62928570Y-191343095D01*
X62928570Y-191343095D02*
X62880951Y-191247857D01*
X62880951Y-191247857D02*
X62833332Y-191200238D01*
X62833332Y-191200238D02*
X62738094Y-191152619D01*
X60690475Y-192152619D02*
X61261903Y-192152619D01*
X60976189Y-192152619D02*
X60976189Y-191152619D01*
X60976189Y-191152619D02*
X61071427Y-191295476D01*
X61071427Y-191295476D02*
X61166665Y-191390714D01*
X61166665Y-191390714D02*
X61261903Y-191438333D01*
X60261903Y-192057380D02*
X60214284Y-192105000D01*
X60214284Y-192105000D02*
X60261903Y-192152619D01*
X60261903Y-192152619D02*
X60309522Y-192105000D01*
X60309522Y-192105000D02*
X60261903Y-192057380D01*
X60261903Y-192057380D02*
X60261903Y-192152619D01*
X59595237Y-191152619D02*
X59499999Y-191152619D01*
X59499999Y-191152619D02*
X59404761Y-191200238D01*
X59404761Y-191200238D02*
X59357142Y-191247857D01*
X59357142Y-191247857D02*
X59309523Y-191343095D01*
X59309523Y-191343095D02*
X59261904Y-191533571D01*
X59261904Y-191533571D02*
X59261904Y-191771666D01*
X59261904Y-191771666D02*
X59309523Y-191962142D01*
X59309523Y-191962142D02*
X59357142Y-192057380D01*
X59357142Y-192057380D02*
X59404761Y-192105000D01*
X59404761Y-192105000D02*
X59499999Y-192152619D01*
X59499999Y-192152619D02*
X59595237Y-192152619D01*
X59595237Y-192152619D02*
X59690475Y-192105000D01*
X59690475Y-192105000D02*
X59738094Y-192057380D01*
X59738094Y-192057380D02*
X59785713Y-191962142D01*
X59785713Y-191962142D02*
X59833332Y-191771666D01*
X59833332Y-191771666D02*
X59833332Y-191533571D01*
X59833332Y-191533571D02*
X59785713Y-191343095D01*
X59785713Y-191343095D02*
X59738094Y-191247857D01*
X59738094Y-191247857D02*
X59690475Y-191200238D01*
X59690475Y-191200238D02*
X59595237Y-191152619D01*
X71619048Y-194392619D02*
X71619048Y-195106904D01*
X71619048Y-195106904D02*
X71666667Y-195249761D01*
X71666667Y-195249761D02*
X71761905Y-195345000D01*
X71761905Y-195345000D02*
X71904762Y-195392619D01*
X71904762Y-195392619D02*
X72000000Y-195392619D01*
X70666667Y-195392619D02*
X71142857Y-195392619D01*
X71142857Y-195392619D02*
X71142857Y-194392619D01*
X69761905Y-195297380D02*
X69809524Y-195345000D01*
X69809524Y-195345000D02*
X69952381Y-195392619D01*
X69952381Y-195392619D02*
X70047619Y-195392619D01*
X70047619Y-195392619D02*
X70190476Y-195345000D01*
X70190476Y-195345000D02*
X70285714Y-195249761D01*
X70285714Y-195249761D02*
X70333333Y-195154523D01*
X70333333Y-195154523D02*
X70380952Y-194964047D01*
X70380952Y-194964047D02*
X70380952Y-194821190D01*
X70380952Y-194821190D02*
X70333333Y-194630714D01*
X70333333Y-194630714D02*
X70285714Y-194535476D01*
X70285714Y-194535476D02*
X70190476Y-194440238D01*
X70190476Y-194440238D02*
X70047619Y-194392619D01*
X70047619Y-194392619D02*
X69952381Y-194392619D01*
X69952381Y-194392619D02*
X69809524Y-194440238D01*
X69809524Y-194440238D02*
X69761905Y-194487857D01*
X69047619Y-194392619D02*
X69047619Y-195106904D01*
X69047619Y-195106904D02*
X69095238Y-195249761D01*
X69095238Y-195249761D02*
X69190476Y-195345000D01*
X69190476Y-195345000D02*
X69333333Y-195392619D01*
X69333333Y-195392619D02*
X69428571Y-195392619D01*
X68095238Y-195392619D02*
X68571428Y-195392619D01*
X68571428Y-195392619D02*
X68571428Y-194392619D01*
X67190476Y-195297380D02*
X67238095Y-195345000D01*
X67238095Y-195345000D02*
X67380952Y-195392619D01*
X67380952Y-195392619D02*
X67476190Y-195392619D01*
X67476190Y-195392619D02*
X67619047Y-195345000D01*
X67619047Y-195345000D02*
X67714285Y-195249761D01*
X67714285Y-195249761D02*
X67761904Y-195154523D01*
X67761904Y-195154523D02*
X67809523Y-194964047D01*
X67809523Y-194964047D02*
X67809523Y-194821190D01*
X67809523Y-194821190D02*
X67761904Y-194630714D01*
X67761904Y-194630714D02*
X67714285Y-194535476D01*
X67714285Y-194535476D02*
X67619047Y-194440238D01*
X67619047Y-194440238D02*
X67476190Y-194392619D01*
X67476190Y-194392619D02*
X67380952Y-194392619D01*
X67380952Y-194392619D02*
X67238095Y-194440238D01*
X67238095Y-194440238D02*
X67190476Y-194487857D01*
X66476190Y-194392619D02*
X66476190Y-195106904D01*
X66476190Y-195106904D02*
X66523809Y-195249761D01*
X66523809Y-195249761D02*
X66619047Y-195345000D01*
X66619047Y-195345000D02*
X66761904Y-195392619D01*
X66761904Y-195392619D02*
X66857142Y-195392619D01*
X65523809Y-195392619D02*
X65999999Y-195392619D01*
X65999999Y-195392619D02*
X65999999Y-194392619D01*
X64619047Y-195297380D02*
X64666666Y-195345000D01*
X64666666Y-195345000D02*
X64809523Y-195392619D01*
X64809523Y-195392619D02*
X64904761Y-195392619D01*
X64904761Y-195392619D02*
X65047618Y-195345000D01*
X65047618Y-195345000D02*
X65142856Y-195249761D01*
X65142856Y-195249761D02*
X65190475Y-195154523D01*
X65190475Y-195154523D02*
X65238094Y-194964047D01*
X65238094Y-194964047D02*
X65238094Y-194821190D01*
X65238094Y-194821190D02*
X65190475Y-194630714D01*
X65190475Y-194630714D02*
X65142856Y-194535476D01*
X65142856Y-194535476D02*
X65047618Y-194440238D01*
X65047618Y-194440238D02*
X64904761Y-194392619D01*
X64904761Y-194392619D02*
X64809523Y-194392619D01*
X64809523Y-194392619D02*
X64666666Y-194440238D01*
X64666666Y-194440238D02*
X64619047Y-194487857D01*
X63904761Y-194392619D02*
X63904761Y-195106904D01*
X63904761Y-195106904D02*
X63952380Y-195249761D01*
X63952380Y-195249761D02*
X64047618Y-195345000D01*
X64047618Y-195345000D02*
X64190475Y-195392619D01*
X64190475Y-195392619D02*
X64285713Y-195392619D01*
X62952380Y-195392619D02*
X63428570Y-195392619D01*
X63428570Y-195392619D02*
X63428570Y-194392619D01*
X62047618Y-195297380D02*
X62095237Y-195345000D01*
X62095237Y-195345000D02*
X62238094Y-195392619D01*
X62238094Y-195392619D02*
X62333332Y-195392619D01*
X62333332Y-195392619D02*
X62476189Y-195345000D01*
X62476189Y-195345000D02*
X62571427Y-195249761D01*
X62571427Y-195249761D02*
X62619046Y-195154523D01*
X62619046Y-195154523D02*
X62666665Y-194964047D01*
X62666665Y-194964047D02*
X62666665Y-194821190D01*
X62666665Y-194821190D02*
X62619046Y-194630714D01*
X62619046Y-194630714D02*
X62571427Y-194535476D01*
X62571427Y-194535476D02*
X62476189Y-194440238D01*
X62476189Y-194440238D02*
X62333332Y-194392619D01*
X62333332Y-194392619D02*
X62238094Y-194392619D01*
X62238094Y-194392619D02*
X62095237Y-194440238D01*
X62095237Y-194440238D02*
X62047618Y-194487857D01*
M02*
